M48
;Layer_Color=9474304
;FILE_FORMAT=2:5
INCH,LZ
;TYPE=PLATED
T1F00S00C0.00787
T2F00S00C0.01181
T4F00S00C0.03543
T6F00S00C0.04016
T7F00S00C0.04331
T8F00S00C0.05118
T9F00S00C0.12598
;TYPE=NON_PLATED
T10F00S00C0.02362
%
T01
X0324339Y00435
Y0049012
Y0054524
X0328276Y0058461
X0333788
X0339182
X0343237Y0054524
Y0049012
Y00435
X03393Y0039563
X0333788
X0328276
X0331032Y0046256
Y0051768
X0336544
X0336544Y0046256
T02
X0009627Y00845
X0032059Y007434
X0039158
X0046196
X0049196Y0082608
X0060032
X0067058Y0081567
X007099Y0086632
X0064424Y0070207
X00585Y0065
X0054633Y00615
X0094229Y0070207
X0105931Y007434
X0113031
X0120068
X0127005
X0133905
Y0082608
X0136796Y0086632
X01465
X0123068Y0082608
X0124005Y0067334
X0116968
X0109229
X0178717Y007434
X0185817
X0192854
X0195854Y0082608
X0206691
X0209576Y0086871
X0217943
X0214Y0078474
X0221Y0063
X022621
X02315
Y0056
X022621
X0221
X0213716Y0046384
X0214Y00375
X0216516Y00323
X0223702Y0029384
X0239984Y00375
X024Y00445
Y00485
X0247003Y00375
X025Y0029113
X024491Y0063
X02485Y00755
X02305Y0086871
X02584Y0050606
X02605Y0028
X0286Y00235
X0304182Y0025606
Y0015818
X0299182Y0014
X0309182Y0018318
X0314182Y0014
X0319182Y0018318
X0324261Y0025606
X0332Y0019
X0339182Y0030606
X0349182Y0021
X03625Y0024
X03565Y0039563
X0345982Y0063
X0351921Y0069579
X0337938
X0324339Y00695
X0323Y00885
X0339182Y0082952
X0296182Y00885
X0277Y00675
X0279Y00605
X0314182Y00575
X0319182Y0051768
X03215Y0105
X0332Y010187
X0342Y0101098
X0346158Y0109476
X0349982Y0106
X0359182
Y0093299
X0349982
X03685Y0096799
X03777
Y01095
X03685
X0329182Y0113858
X03275Y0142354
X03215Y0153
X0318Y0158
X0309182Y0147
X0299182Y01615
X0299Y0167
X0339182Y0158318
X0355Y016
X0361568Y0164932
X0353209Y0172
Y0187
X0348Y0135354
X0304182Y0122318
X0299182Y0117
X0289Y0106
Y0098677
X0296182
X0281Y009887
Y0106232
Y0091272
X02657Y0092249
X0261941
X02584
Y009887
X0261941
X02657
X02765Y0133
X0286Y0129
X0247754Y0127065
X02335Y012
X024341Y0109509
X0247654Y0089
X022Y0091
X0201421Y0095729
Y0101635
X0203082Y0107232
X0205448Y011642
X0198285
X0213648
X0213716Y0129741
X0205448Y0125565
X0173185
X0176185Y011642
X0166946
X01584
X01509
X01465Y0113858
X014093Y0116435
X0132662Y0116217
X0125499
X01306Y01078
X0128505Y0101635
Y0095729
X01465
Y0092249
X01524Y0088849
X01509Y0125565
X01584Y0125361
X0132662Y0125565
X0100399Y0125966
X01034Y011642
X0100399Y01068
X0173185
X0094443Y0116435
X0085897
X0078397
Y0125565
X0085897Y0125347
X006699Y01299
X005879Y0125565
Y0116435
X0051627Y0116516
X005729Y01068
X0054633Y0101635
Y0095729
X007099Y0093749
X0079897Y0088849
X006699Y0116435
X0029527
X002099Y0116516
X0012627
X00043Y0116435
Y0125316
X0012627
X002099Y01299
X00273Y0125966
X00259Y01065
T04
X00414Y00137
X00514
X00614
X0089229
Y00437
X00614
X00514
X00414
X0099229
X0109229
Y00137
X0099229
X0175817
X0185817
X0195817
Y00437
X0185817
X0175817
T06
X0260441Y0137
Y0147
Y0157
X02755Y0176
X02855
X02955
Y0186
X02855
X02755
X0319
Y0176
X0329
X0339
Y0186
X0329
X0250441Y0157
Y0147
Y0137
X02375
X02275
Y0147
Y0157
X02375
Y0147
T07
X03762Y0122354
Y0132354
Y0142354
Y0152354
T08
X0015748Y0040137
Y0055137
X0102638Y0169291
X0117638
X0132638
X0147638
X0167598
X0182598
X0197598
X0212598
X0082677
X0067677
X0052677
X0037677
T09
X0015748Y0015748
X02727Y0015
X0377Y01767
X0236221Y0177165
X0015748
T10
X0224922Y0021338
X0247678
M30
