M48
;Layer_Color=9474304
;FILE_FORMAT=2:5
INCH,LZ
;TYPE=PLATED
T1F00S00C0.00787
T2F00S00C0.01000
T4F00S00C0.03543
T6F00S00C0.04016
T7F00S00C0.04331
T8F00S00C0.05118
;TYPE=NON_PLATED
T9F00S00C0.02362
%
T01
X0348439Y0111676
Y0117188
Y01227
X0352376Y0126637
X0357888
X0363282
X0367337Y01227
Y0117188
Y0111676
X03634Y0107739
X0357888
X0352376
X0355132Y0114432
Y0119944
X0360644
X0360644Y0114432
T02
X0013635Y005831
Y0062247
Y0066184
Y0070121
X00177
Y0066184
Y0062247
Y005831
X00217
Y0062247
Y0066184
Y0070121
Y0074649
X00177
X0013635
X0023453Y01088
X003025
Y01043
X00353
Y0099861
X004
Y01043
Y01088
X00353
X00545
Y01043
Y0099861
X012104Y0099831
X012107Y011017
X012117Y011967
X013144Y011014
X013147Y0099831
X013144Y008947
X014227Y008957
Y008007
X014224Y007144
X015191Y007147
X015197Y008007
X015194Y008944
X014224Y0099801
X01051Y0045417
X016127Y007167
X016124Y008004
X0178517Y0117
Y0131783
Y01438
X02061Y01045
Y008957
X02465Y007527
X0246572Y00681
X024656Y006137
X024653Y005427
X0246572Y00466
X024653Y00389
X027853
X0278572Y00466
X027853Y005427
X027856Y006137
X0278572Y00681
X02785Y007527
X030851
X0308582Y00681
X030857Y006137
X030854Y005427
Y00389
X0302148Y0032994
X0323282Y00715
X0333282Y0083118
X0338282Y008598
X032458Y009288
X0343282Y0069232
X0348282Y0070446
X0353282Y00715
X0378282Y00715
X0383282Y00715
X0378144Y0093018
X0372143Y01021
X0370648Y0152018
X0358282Y0150518
X0328282Y01353
X0374251Y00477
X0374387Y003673
X037045
X0366513
Y0032793
Y0028856
X037045
Y0032793
X0374251Y0032791
X0374387Y0028856
X03614Y0024624
X0360286Y0017512
X0364545Y0013551
X0372143
X0379505
Y0005724
X0372143
X0364545
X0364148Y01596
Y0167182
X0379901Y01688
X0384401
Y01596
X0379901
Y0178
X0384401
Y0187
X0379901
X0374408Y0223477
X0322302Y0269196
X0317892Y0281447
X0324082Y0295849
X0328151Y0307815
X0311993Y0307815
X0302088Y0305847
X0298151
Y030191
X0294214
Y0305847
Y0309784
X0298151
X0302088
Y030191
X0308651Y0297466
X0302088Y0289973
X0304014Y027333
X0296977
X0289877
X0293351Y0265547
X0300651
X0310951
X0282946
X0282532Y0308834
X0263549
Y0301196
X0263151Y029503
X0232482Y0296049
X0236551Y0308015
X0220051Y0308015
X0210488Y0306047
Y030211
X0206551
Y0306047
Y0309984
X0202614
Y0306047
Y030211
X0210488Y0309984
X0217051Y0297666
X0210488Y0290173
X0212414Y027353
X0205377
X0198277
X0201751Y0265747
X0209051
X0219351
X0230702Y0269396
X0226292Y0281647
X0191346Y0265747
X0190932Y0309034
X0171949
Y0301396
X0171551Y029523
X03074Y01992
X03025Y01898
X0281709Y01566
X0140551Y0269443
X01292Y0265794
X01189
X01116
X0101195
X0108126Y0273576
X0115226
X0122263
X0120337Y029022
Y0302157
Y0306094
X01164
Y0302157
X0112463
Y0306094
Y0310031
X01164
X0120337
X0129853Y0308062
X01269Y0297713
X0142331Y0296096
X01464Y0308062
X0136141Y0281694
X010078Y0309081
X0081798
Y0301443
X00814Y0295276
X0065722Y0292408
X0079798Y0326192
X0087216
X0095667
X01048Y0322616
X00994Y0313794
X01013Y0335243
X0087216
X0079798
X0134063Y0331992
Y0323294
X01269
X01308Y0313394
X0142331Y0323294
X01477Y0331992
X0169949Y0335196
X0177367
Y0326145
X0169949
X0185818
X0194951Y0322569
X0189551Y0313747
X0191451Y0335196
X0224214Y0331945
Y0323247
X0217051
X0220951Y0313347
X0232482Y0323247
X0237851Y0331945
X0261549Y0334997
X0268967
Y0325945
X0261549
X0277418
X0286551Y0322369
X0281151Y0313547
X0283051Y0334997
X0308651Y0323047
X0315814
X0324082
X0329451Y0331745
X0315814
X0312551Y0313147
T04
X0195251Y0230847
X0205251
X0215251
Y0260847
X0205251
X0195251
X0286851Y0260647
X0296851
X0306851
Y0230647
X0296851
X0286851
X01251Y0230894
X01151
X01051
Y0260894
X01151
X01251
T06
X00951Y0128783
Y0138783
Y0148783
X01051
Y0138783
Y0128783
X01548
Y0138783
Y0148783
X01648
Y0138783
Y0128783
X0213322
X0223322
Y0138783
Y0148783
X0213322
Y0138783
X0338282Y00625
X0348282
X0358282
Y00525
X0348282
X0338282
T07
X02767Y01188
Y01288
Y01388
Y01488
T08
X0088613Y0378447
X0103613
X0118613
X0133613
X01778Y03784
X01928
X02078
X02228
X0270809Y03782
X0285809
X0300809
X0315809
T09
X0026038Y0053822
Y0076578
M30
