M48
;Layer_Color=9474304
;FILE_FORMAT=2:5
INCH,LZ
;TYPE=PLATED
T1F00S00C0.01181
T3F00S00C0.03543
T5F00S00C0.04016
T6F00S00C0.04331
T7F00S00C0.05118
T8F00S00C0.12598
;TYPE=NON_PLATED
T9F00S00C0.02362
%
T01
X0009627Y00845
X0032059Y007434
X0039158
X0046196
X0049196Y0082608
X00614Y0082
X0067058Y0081567
X007099Y0086632
X0065791Y0070207
X00585Y0065
X0054633Y00615
X0094229Y0070207
X0105157Y007434
X01125
X0120068
X0127005
X0135296Y0074301
X0139688Y0081567
X0136796Y0086632
X01465
X0123068Y0082608
X0124005Y0067334
X0116968
X0109229
X0174685Y0074301
X0182617
X0191
X0195854Y0082608
X0206691
X0209576Y0086871
X0217943
X0214Y0078474
X0221Y0063
X022621
X02315
Y0056
X022621
X0221
X0213716Y0046384
X0214Y00375
X0223702Y0029384
X0239984Y00375
X024Y00445
Y00485
X0247003Y00375
X025Y0029113
X0237Y0008
X024491Y0063
X02385Y0077
X0231644Y0084644
X0289289
X0296182Y00885
X0323
X03355Y0084644
X03365Y00665
X0339182Y0058461
X0333642Y0058524
X0328276Y0058461
X0324339Y0060606
X0324339Y0054524
Y0049012
Y00435
X0328276Y0039563
X0333788
X03393
X0343237Y00435
Y0049012
Y0054524
X0336544Y0051768
Y0046256
X0331032
Y0051768
X0319182
X0314182Y00575
X0324339Y00695
X0345982Y0063
X0353Y0070606
X03565Y0039563
X03625Y0024
X0349182Y0021
X0332Y0019
X0319182Y0018318
X0314182Y0014
X0309182Y0018318
X0304182Y0025606
X0298Y0015
X02905Y0008658
X0286Y00235
X02605Y0028
X0256931Y0049106
X0279637Y0060764
X0277Y0066
X0324261Y0025606
X0339182Y0030606
X0342Y0101098
X0346158Y0109476
X0349982Y0106
X0359182
Y0093299
X0349982
X03685Y0096799
X03777
Y01095
X03685
X0329182Y0113858
X0313Y00955
X0296182Y0098677
X0289
X02905Y0094272
X0281Y0091272
Y009887
Y0106232
X0289Y0106
X0286Y0129
X02765Y0132354
X0304182Y012674
X0309182Y0147
X0312Y0154
X0318Y0158
X0325Y0147
X03315Y015
X03355Y0144808
X0339182Y0158318
X0355Y016
X0361568Y0164932
X0353209Y0172
Y0187
X0348Y0135354
X0299182Y01615
X0299Y0167
X02657Y009887
X0261941
X02584
Y0092249
X0261941
X02657
X0247654Y0089
X024341Y0109509
X0247754Y0127065
X0213716Y0129741
X0205448Y0125565
Y011642
X0198285
X0203082Y0107232
X0201785Y0101635
X0201457Y0091272
X0191722Y0095729
X0187785
X0183848
Y0099666
X0187785
X0191722
Y0103603
X0187785
X0183848
X0173185Y01068
X0176185Y011642
X0166946
X01584
X01509
X01465Y0113858
X014093Y0116435
X0132662Y0116217
X0125499
X01306Y01078
X0128505Y0101635
X0128959Y0095015
X0119014Y0095729
X0118937Y0099666
X0114999
X0111063
Y0095729
X0114999
Y0103603
X0111063
X0118937Y0103649
X0100399Y01068
X01034Y011642
X0100399Y0125966
X0132662Y0125565
X01509
X01584Y0125361
X0173185Y0125565
X0213648Y011642
X022Y0091
X01524Y0088849
X01465Y0092249
Y0095729
X0094443Y0116435
X0085897
X0078397
Y0125565
X0085897Y0125347
X006699Y01299
X005879Y0125565
Y0116435
X0051627Y0116516
X005729Y01068
X0054633Y0101635
Y0093749
X0045064Y0095729
X0041127
X003719
Y0099666
X0041127
X0045064
Y0103649
X0041127
X003719
X00259Y01065
X0029527Y0116435
X002099Y0116516
X0012627
X00043Y0116435
Y0125316
X0012627
X002099Y01299
X00273Y0125966
X0015748Y0139
X006699Y0116435
X007099Y0093749
X0079897Y0088849
T03
X00414Y00137
X00514
X00614
X0089229
Y00437
X00614
X00514
X00414
X0099229
X0109229
Y00137
X0099229
X0175817
X0185817
X0195817
Y00437
X0185817
X0175817
T05
X0260441Y0137
Y0147
Y0157
X02755Y0176
Y0186
X02855
Y0176
X02955
Y0186
X0319
Y0176
X0329
X0339
Y0186
X0329
X0250441Y0157
Y0147
Y0137
X02375
X02275
Y0147
Y0157
X02375
Y0147
T06
X03777Y0116854
Y0126854
Y0136854
Y0146854
Y0156854
T07
X0015748Y0040137
Y0055137
X0102638Y0169291
X0117638
X0132638
X0147638
X0167598
X0182598
X0197598
X0212598
X0082677
X0067677
X0052677
X0037677
T08
X0015748Y0015748
X02727Y0015
X0377Y01767
X0236221Y0177165
X0015748
T09
X0224922Y0021338
X0247678
M30
