%TF.GenerationSoftware,Altium Limited,Altium Designer,23.4.1 (23)*%
G04 Layer_Color=16711935*
%FSLAX26Y26*%
%MOIN*%
%TF.SameCoordinates,C2345C50-9595-4326-80D3-D8EF8A282994*%
%TF.FilePolarity,Negative*%
%TF.FileFunction,Soldermask,Bot*%
%TF.Part,Single*%
G01*
G75*
%TA.AperFunction,ComponentPad*%
%ADD88C,0.027559*%
%ADD89R,0.068898X0.068898*%
%ADD90C,0.068898*%
%ADD91C,0.240157*%
%ADD92C,0.074803*%
%ADD93R,0.074803X0.074803*%
%ADD94R,0.177165X0.090551*%
%ADD95R,0.161417X0.082677*%
%ADD96R,0.082677X0.161417*%
%ADD97C,0.082677*%
%ADD98R,0.082677X0.082677*%
%ADD99R,0.082677X0.082677*%
%ADD100R,0.074803X0.074803*%
D88*
X2249220Y213378D02*
D03*
X2476780D02*
D03*
D89*
X3776999Y1568543D02*
D03*
D90*
Y1468543D02*
D03*
Y1268543D02*
D03*
Y1168543D02*
D03*
Y1368543D02*
D03*
D91*
X2727001Y150000D02*
D03*
X157481Y157481D02*
D03*
X3770001Y1767001D02*
D03*
X2362205Y1771654D02*
D03*
X157481D02*
D03*
D92*
X2275000Y1370000D02*
D03*
Y1570000D02*
D03*
Y1470000D02*
D03*
X2375000Y1370000D02*
D03*
Y1470000D02*
D03*
X2755000Y1760000D02*
D03*
X2955000D02*
D03*
X2855000D02*
D03*
Y1860000D02*
D03*
X2955000D02*
D03*
X3190000Y1760000D02*
D03*
X3390000D02*
D03*
X3290000D02*
D03*
Y1860000D02*
D03*
X3390000D02*
D03*
X2504414Y1370000D02*
D03*
Y1570000D02*
D03*
Y1470000D02*
D03*
X2604414Y1370000D02*
D03*
Y1470000D02*
D03*
D93*
X2375000Y1570000D02*
D03*
X2604414D02*
D03*
D94*
X1395000Y546221D02*
D03*
D95*
Y310000D02*
D03*
D96*
X1580039Y428110D02*
D03*
D97*
X376772Y1692913D02*
D03*
X526772D02*
D03*
X676772D02*
D03*
X157481Y401370D02*
D03*
X1675984Y1692913D02*
D03*
X1825984D02*
D03*
X1975984D02*
D03*
X1026378D02*
D03*
X1176378D02*
D03*
X1326378D02*
D03*
D98*
X826772D02*
D03*
X2125984D02*
D03*
X1476378D02*
D03*
D99*
X157481Y551370D02*
D03*
D100*
X2755000Y1860000D02*
D03*
X3190000D02*
D03*
%TF.MD5,d46a6f2dec0d685868f7fa7c8e3059ff*%
M02*
