%TF.GenerationSoftware,Altium Limited,Altium Designer,23.4.1 (23)*%
G04 Layer_Physical_Order=3*
G04 Layer_Color=36540*
%FSLAX26Y26*%
%MOIN*%
%TF.SameCoordinates,1A73CDA2-CD66-4AEC-B2A4-79F9F1676FB0*%
%TF.FilePolarity,Positive*%
%TF.FileFunction,Copper,L3,Inr,Signal*%
%TF.Part,Single*%
G01*
G75*
%TA.AperFunction,Conductor*%
%ADD10C,0.010000*%
%TA.AperFunction,ComponentPad*%
%ADD36O,0.047244X0.098425*%
%ADD37C,0.023622*%
%ADD38R,0.064961X0.064961*%
%ADD39C,0.064961*%
%ADD40C,0.236220*%
%ADD41C,0.070866*%
%ADD42R,0.070866X0.070866*%
%ADD43C,0.017716*%
%ADD44R,0.157480X0.078740*%
%ADD45R,0.078740X0.157480*%
%ADD46R,0.173228X0.086614*%
%ADD47C,0.078740*%
%ADD48R,0.078740X0.078740*%
%ADD49R,0.078740X0.078740*%
%ADD50R,0.070866X0.070866*%
%TA.AperFunction,ViaPad*%
%ADD51C,0.017716*%
%TA.AperFunction,NonConductor*%
%ADD53R,0.112724X0.130000*%
G36*
X3920952Y882198D02*
X3681103D01*
X3674959Y880976D01*
X3669750Y877495D01*
X3666269Y872286D01*
X3665047Y866142D01*
Y16056D01*
X2561221D01*
X2557410Y24056D01*
X2560024Y27462D01*
X2563109Y34912D01*
X2564162Y42906D01*
Y94087D01*
X2563109Y102081D01*
X2560024Y109530D01*
X2555115Y115927D01*
X2548719Y120835D01*
X2541269Y123921D01*
X2533276Y124973D01*
X2525282Y123921D01*
X2517832Y120835D01*
X2511436Y115927D01*
X2506527Y109530D01*
X2503442Y102081D01*
X2502389Y94087D01*
Y42906D01*
X2503442Y34912D01*
X2506527Y27462D01*
X2509141Y24056D01*
X2505330Y16056D01*
X2220670D01*
X2216859Y24056D01*
X2219473Y27462D01*
X2222558Y34912D01*
X2223611Y42906D01*
Y94087D01*
X2222558Y102081D01*
X2219473Y109530D01*
X2214564Y115927D01*
X2208168Y120835D01*
X2200718Y123921D01*
X2192724Y124973D01*
X2184731Y123921D01*
X2177281Y120835D01*
X2170885Y115927D01*
X2165976Y109530D01*
X2162891Y102081D01*
X2161838Y94087D01*
Y42906D01*
X2162891Y34912D01*
X2165976Y27462D01*
X2168590Y24056D01*
X2164779Y16056D01*
X16056D01*
Y1952448D01*
X2457863D01*
Y1880000D01*
X2458406Y1877269D01*
X2459953Y1874953D01*
X2462269Y1873406D01*
X2465000Y1872863D01*
X2665000D01*
X2667731Y1873406D01*
X2670047Y1874953D01*
X2671594Y1877269D01*
X2672137Y1880000D01*
Y1952448D01*
X3920952D01*
Y882198D01*
D02*
G37*
%LPC*%
G36*
X3568036Y1925858D02*
X3561727D01*
X3555899Y1923444D01*
X3551438Y1918983D01*
X3549024Y1913154D01*
Y1906846D01*
X3551438Y1901017D01*
X3555899Y1896556D01*
X3561727Y1894142D01*
X3568036D01*
X3573865Y1896556D01*
X3578326Y1901017D01*
X3580740Y1906846D01*
Y1913154D01*
X3578326Y1918983D01*
X3573865Y1923444D01*
X3568036Y1925858D01*
D02*
G37*
G36*
X3395586Y1902433D02*
X3384414D01*
X3373622Y1899541D01*
X3363945Y1893955D01*
X3356045Y1886054D01*
X3350459Y1876379D01*
X3347567Y1865586D01*
Y1854414D01*
X3350459Y1843621D01*
X3356045Y1833946D01*
X3363945Y1826045D01*
X3373622Y1820459D01*
X3384414Y1817567D01*
X3395586D01*
X3406378Y1820459D01*
X3416055Y1826045D01*
X3423955Y1833946D01*
X3429541Y1843621D01*
X3432433Y1854414D01*
Y1865586D01*
X3429541Y1876379D01*
X3423955Y1886054D01*
X3416055Y1893955D01*
X3406378Y1899541D01*
X3395586Y1902433D01*
D02*
G37*
G36*
X3295586D02*
X3284414D01*
X3273622Y1899541D01*
X3263945Y1893955D01*
X3256045Y1886054D01*
X3250459Y1876379D01*
X3247567Y1865586D01*
Y1854414D01*
X3250459Y1843621D01*
X3256045Y1833946D01*
X3263945Y1826045D01*
X3273622Y1820459D01*
X3284414Y1817567D01*
X3295586D01*
X3306378Y1820459D01*
X3316055Y1826045D01*
X3323955Y1833946D01*
X3329541Y1843621D01*
X3332433Y1854414D01*
Y1865586D01*
X3329541Y1876379D01*
X3323955Y1886054D01*
X3316055Y1893955D01*
X3306378Y1899541D01*
X3295586Y1902433D01*
D02*
G37*
G36*
X3232433D02*
X3147567D01*
Y1817567D01*
X3232433D01*
Y1902433D01*
D02*
G37*
G36*
X2960586D02*
X2949414D01*
X2938622Y1899541D01*
X2928945Y1893955D01*
X2921045Y1886054D01*
X2915459Y1876379D01*
X2912567Y1865586D01*
Y1854414D01*
X2915459Y1843621D01*
X2921045Y1833946D01*
X2928945Y1826045D01*
X2938622Y1820459D01*
X2949414Y1817567D01*
X2960586D01*
X2971378Y1820459D01*
X2981055Y1826045D01*
X2988955Y1833946D01*
X2994541Y1843621D01*
X2997433Y1854414D01*
Y1865586D01*
X2994541Y1876379D01*
X2988955Y1886054D01*
X2981055Y1893955D01*
X2971378Y1899541D01*
X2960586Y1902433D01*
D02*
G37*
G36*
X2860586D02*
X2849414D01*
X2838622Y1899541D01*
X2828945Y1893955D01*
X2821045Y1886054D01*
X2815459Y1876379D01*
X2812567Y1865586D01*
Y1854414D01*
X2815459Y1843621D01*
X2821045Y1833946D01*
X2828945Y1826045D01*
X2838622Y1820459D01*
X2849414Y1817567D01*
X2860586D01*
X2871378Y1820459D01*
X2881055Y1826045D01*
X2888955Y1833946D01*
X2894541Y1843621D01*
X2897433Y1854414D01*
Y1865586D01*
X2894541Y1876379D01*
X2888955Y1886054D01*
X2881055Y1893955D01*
X2871378Y1899541D01*
X2860586Y1902433D01*
D02*
G37*
G36*
X2797433D02*
X2712567D01*
Y1817567D01*
X2797433D01*
Y1902433D01*
D02*
G37*
G36*
X3252924Y1790005D02*
X3252044Y1789124D01*
X3245800Y1778309D01*
X3244141Y1772119D01*
X3235859D01*
X3234200Y1778309D01*
X3227956Y1789124D01*
X3227076Y1790005D01*
X3197071Y1760000D01*
X3227076Y1729995D01*
X3227956Y1730876D01*
X3234200Y1741691D01*
X3235859Y1747881D01*
X3244141D01*
X3245800Y1741691D01*
X3252044Y1730876D01*
X3252924Y1729995D01*
X3282929Y1760000D01*
X3252924Y1790005D01*
D02*
G37*
G36*
X3296245Y1807433D02*
X3283755D01*
X3271691Y1804200D01*
X3260876Y1797956D01*
X3259995Y1797076D01*
X3290000Y1767071D01*
X3320005Y1797076D01*
X3319124Y1797956D01*
X3308309Y1804200D01*
X3296245Y1807433D01*
D02*
G37*
G36*
X3196245D02*
X3183755D01*
X3171691Y1804200D01*
X3160876Y1797956D01*
X3159995Y1797076D01*
X3190000Y1767071D01*
X3220005Y1797076D01*
X3219124Y1797956D01*
X3208309Y1804200D01*
X3196245Y1807433D01*
D02*
G37*
G36*
X2761245D02*
X2748755D01*
X2736691Y1804200D01*
X2725876Y1797956D01*
X2724995Y1797076D01*
X2755000Y1767071D01*
X2785005Y1797076D01*
X2784124Y1797956D01*
X2773309Y1804200D01*
X2761245Y1807433D01*
D02*
G37*
G36*
X3327076Y1790005D02*
X3297071Y1760000D01*
X3327076Y1729995D01*
X3327956Y1730876D01*
X3334200Y1741691D01*
X3337433Y1753755D01*
Y1766245D01*
X3334200Y1778309D01*
X3327956Y1789124D01*
X3327076Y1790005D01*
D02*
G37*
G36*
X2792076D02*
X2762071Y1760000D01*
X2792076Y1729995D01*
X2792956Y1730876D01*
X2799200Y1741691D01*
X2802433Y1753755D01*
Y1766245D01*
X2799200Y1778309D01*
X2792956Y1789124D01*
X2792076Y1790005D01*
D02*
G37*
G36*
X3152924Y1790005D02*
X3152044Y1789124D01*
X3145800Y1778309D01*
X3142567Y1766245D01*
Y1753755D01*
X3145800Y1741691D01*
X3152044Y1730876D01*
X3152924Y1729995D01*
X3182929Y1760000D01*
X3152924Y1790005D01*
D02*
G37*
G36*
X2717924D02*
X2717044Y1789124D01*
X2710800Y1778309D01*
X2707567Y1766245D01*
Y1753755D01*
X2710800Y1741691D01*
X2717044Y1730876D01*
X2717924Y1729995D01*
X2747929Y1760000D01*
X2717924Y1790005D01*
D02*
G37*
G36*
X3395586Y1802433D02*
X3384414D01*
X3373622Y1799541D01*
X3363945Y1793955D01*
X3356045Y1786054D01*
X3350459Y1776379D01*
X3347567Y1765586D01*
Y1754414D01*
X3350459Y1743621D01*
X3356045Y1733946D01*
X3363945Y1726045D01*
X3373622Y1720459D01*
X3384414Y1717567D01*
X3395586D01*
X3406378Y1720459D01*
X3416055Y1726045D01*
X3423955Y1733946D01*
X3429541Y1743621D01*
X3432433Y1754414D01*
Y1765586D01*
X3429541Y1776379D01*
X3423955Y1786054D01*
X3416055Y1793955D01*
X3406378Y1799541D01*
X3395586Y1802433D01*
D02*
G37*
G36*
X2960586D02*
X2949414D01*
X2938622Y1799541D01*
X2928945Y1793955D01*
X2921045Y1786054D01*
X2915459Y1776379D01*
X2912567Y1765586D01*
Y1754414D01*
X2915459Y1743621D01*
X2921045Y1733946D01*
X2928945Y1726045D01*
X2938622Y1720459D01*
X2949414Y1717567D01*
X2960586D01*
X2971378Y1720459D01*
X2981055Y1726045D01*
X2988955Y1733946D01*
X2994541Y1743621D01*
X2997433Y1754414D01*
Y1765586D01*
X2994541Y1776379D01*
X2988955Y1786054D01*
X2981055Y1793955D01*
X2971378Y1799541D01*
X2960586Y1802433D01*
D02*
G37*
G36*
X3290000Y1752929D02*
X3259995Y1722924D01*
X3260876Y1722044D01*
X3271691Y1715800D01*
X3283755Y1712567D01*
X3296245D01*
X3308309Y1715800D01*
X3319124Y1722044D01*
X3320005Y1722924D01*
X3290000Y1752929D01*
D02*
G37*
G36*
X3190000D02*
X3159995Y1722924D01*
X3160876Y1722044D01*
X3171691Y1715800D01*
X3183755Y1712567D01*
X3196245D01*
X3208309Y1715800D01*
X3219124Y1722044D01*
X3220005Y1722924D01*
X3190000Y1752929D01*
D02*
G37*
G36*
X2755000D02*
X2724995Y1722924D01*
X2725876Y1722044D01*
X2736691Y1715800D01*
X2748755Y1712567D01*
X2761245D01*
X2773309Y1715800D01*
X2784124Y1722044D01*
X2785005Y1722924D01*
X2755000Y1752929D01*
D02*
G37*
G36*
X3568036Y1730976D02*
X3561727D01*
X3555899Y1728562D01*
X3551438Y1724101D01*
X3549024Y1718273D01*
Y1711964D01*
X3551438Y1706135D01*
X3555899Y1701674D01*
X3561727Y1699260D01*
X3568036D01*
X3573865Y1701674D01*
X3578326Y1706135D01*
X3580740Y1711964D01*
Y1718273D01*
X3578326Y1724101D01*
X3573865Y1728562D01*
X3568036Y1730976D01*
D02*
G37*
G36*
X2372051Y1896764D02*
X2352358D01*
X2332908Y1893684D01*
X2314179Y1887598D01*
X2296633Y1878658D01*
X2280701Y1867083D01*
X2266776Y1853158D01*
X2255201Y1837226D01*
X2246260Y1819680D01*
X2240175Y1800951D01*
X2237095Y1781500D01*
Y1761808D01*
X2240175Y1742357D01*
X2246260Y1723628D01*
X2255201Y1706082D01*
X2266776Y1690150D01*
X2280701Y1676225D01*
X2296633Y1664650D01*
X2314179Y1655710D01*
X2332908Y1649624D01*
X2352358Y1646544D01*
X2372051D01*
X2391501Y1649624D01*
X2410230Y1655710D01*
X2427777Y1664650D01*
X2443709Y1676225D01*
X2457633Y1690150D01*
X2469209Y1706082D01*
X2478149Y1723628D01*
X2484234Y1742357D01*
X2487315Y1761808D01*
Y1781500D01*
X2484234Y1800951D01*
X2478149Y1819680D01*
X2469209Y1837226D01*
X2457633Y1853158D01*
X2443709Y1867083D01*
X2427777Y1878658D01*
X2410230Y1887598D01*
X2391501Y1893684D01*
X2372051Y1896764D01*
D02*
G37*
G36*
X167327D02*
X147634D01*
X128184Y1893684D01*
X109455Y1887598D01*
X91909Y1878658D01*
X75977Y1867083D01*
X62052Y1853158D01*
X50477Y1837226D01*
X41537Y1819680D01*
X35451Y1800951D01*
X32371Y1781500D01*
Y1761808D01*
X35451Y1742357D01*
X41537Y1723628D01*
X50477Y1706082D01*
X62052Y1690150D01*
X75977Y1676225D01*
X91909Y1664650D01*
X109455Y1655710D01*
X128184Y1649624D01*
X147634Y1646544D01*
X167327D01*
X186778Y1649624D01*
X205506Y1655710D01*
X223053Y1664650D01*
X238985Y1676225D01*
X252910Y1690150D01*
X264485Y1706082D01*
X273425Y1723628D01*
X279510Y1742357D01*
X282591Y1761808D01*
Y1781500D01*
X279510Y1800951D01*
X273425Y1819680D01*
X264485Y1837226D01*
X252910Y1853158D01*
X238985Y1867083D01*
X223053Y1878658D01*
X205506Y1887598D01*
X186778Y1893684D01*
X167327Y1896764D01*
D02*
G37*
G36*
X2172354Y1739284D02*
X2079614D01*
Y1646543D01*
X2172354D01*
Y1739284D01*
D02*
G37*
G36*
X1982089D02*
X1969880D01*
X1958086Y1736123D01*
X1947512Y1730019D01*
X1938879Y1721385D01*
X1932774Y1710812D01*
X1929614Y1699018D01*
Y1686809D01*
X1932774Y1675015D01*
X1938879Y1664441D01*
X1947512Y1655808D01*
X1958086Y1649703D01*
X1969880Y1646543D01*
X1982089D01*
X1993882Y1649703D01*
X2004456Y1655808D01*
X2013090Y1664441D01*
X2019194Y1675015D01*
X2022354Y1686809D01*
Y1699018D01*
X2019194Y1710812D01*
X2013090Y1721385D01*
X2004456Y1730019D01*
X1993882Y1736123D01*
X1982089Y1739284D01*
D02*
G37*
G36*
X1832089D02*
X1819880D01*
X1808086Y1736123D01*
X1797512Y1730019D01*
X1788879Y1721385D01*
X1782774Y1710812D01*
X1779614Y1699018D01*
Y1686809D01*
X1782774Y1675015D01*
X1788879Y1664441D01*
X1797512Y1655808D01*
X1808086Y1649703D01*
X1819880Y1646543D01*
X1832089D01*
X1843882Y1649703D01*
X1854456Y1655808D01*
X1863090Y1664441D01*
X1869194Y1675015D01*
X1872354Y1686809D01*
Y1699018D01*
X1869194Y1710812D01*
X1863090Y1721385D01*
X1854456Y1730019D01*
X1843882Y1736123D01*
X1832089Y1739284D01*
D02*
G37*
G36*
X1682089D02*
X1669880D01*
X1658086Y1736123D01*
X1647512Y1730019D01*
X1638879Y1721385D01*
X1632774Y1710812D01*
X1629614Y1699018D01*
Y1686809D01*
X1632774Y1675015D01*
X1638879Y1664441D01*
X1647512Y1655808D01*
X1658086Y1649703D01*
X1669880Y1646543D01*
X1682089D01*
X1693882Y1649703D01*
X1704456Y1655808D01*
X1713090Y1664441D01*
X1719194Y1675015D01*
X1722354Y1686809D01*
Y1699018D01*
X1719194Y1710812D01*
X1713090Y1721385D01*
X1704456Y1730019D01*
X1693882Y1736123D01*
X1682089Y1739284D01*
D02*
G37*
G36*
X1522748D02*
X1430008D01*
Y1646543D01*
X1522748D01*
Y1739284D01*
D02*
G37*
G36*
X1332483D02*
X1320273D01*
X1308480Y1736123D01*
X1297906Y1730019D01*
X1289273Y1721385D01*
X1283168Y1710812D01*
X1280008Y1699018D01*
Y1686809D01*
X1283168Y1675015D01*
X1289273Y1664441D01*
X1297906Y1655808D01*
X1308480Y1649703D01*
X1320273Y1646543D01*
X1332483D01*
X1344276Y1649703D01*
X1354850Y1655808D01*
X1363483Y1664441D01*
X1369588Y1675015D01*
X1372748Y1686809D01*
Y1699018D01*
X1369588Y1710812D01*
X1363483Y1721385D01*
X1354850Y1730019D01*
X1344276Y1736123D01*
X1332483Y1739284D01*
D02*
G37*
G36*
X1182483D02*
X1170273D01*
X1158480Y1736123D01*
X1147906Y1730019D01*
X1139273Y1721385D01*
X1133168Y1710812D01*
X1130008Y1699018D01*
Y1686809D01*
X1133168Y1675015D01*
X1139273Y1664441D01*
X1147906Y1655808D01*
X1158480Y1649703D01*
X1170273Y1646543D01*
X1182483D01*
X1194276Y1649703D01*
X1204850Y1655808D01*
X1213483Y1664441D01*
X1219588Y1675015D01*
X1222748Y1686809D01*
Y1699018D01*
X1219588Y1710812D01*
X1213483Y1721385D01*
X1204850Y1730019D01*
X1194276Y1736123D01*
X1182483Y1739284D01*
D02*
G37*
G36*
X1032483D02*
X1020273D01*
X1008480Y1736123D01*
X997906Y1730019D01*
X989273Y1721385D01*
X983168Y1710812D01*
X980008Y1699018D01*
Y1686809D01*
X983168Y1675015D01*
X989273Y1664441D01*
X997906Y1655808D01*
X1008480Y1649703D01*
X1020273Y1646543D01*
X1032483D01*
X1044276Y1649703D01*
X1054850Y1655808D01*
X1063483Y1664441D01*
X1069588Y1675015D01*
X1072748Y1686809D01*
Y1699018D01*
X1069588Y1710812D01*
X1063483Y1721385D01*
X1054850Y1730019D01*
X1044276Y1736123D01*
X1032483Y1739284D01*
D02*
G37*
G36*
X873142D02*
X780402D01*
Y1646543D01*
X873142D01*
Y1739284D01*
D02*
G37*
G36*
X682876D02*
X670667D01*
X658874Y1736123D01*
X648300Y1730019D01*
X639666Y1721385D01*
X633562Y1710812D01*
X630402Y1699018D01*
Y1686809D01*
X633562Y1675015D01*
X639666Y1664441D01*
X648300Y1655808D01*
X658874Y1649703D01*
X670667Y1646543D01*
X682876D01*
X694670Y1649703D01*
X705244Y1655808D01*
X713877Y1664441D01*
X719982Y1675015D01*
X723142Y1686809D01*
Y1699018D01*
X719982Y1710812D01*
X713877Y1721385D01*
X705244Y1730019D01*
X694670Y1736123D01*
X682876Y1739284D01*
D02*
G37*
G36*
X532876D02*
X520667D01*
X508873Y1736123D01*
X498300Y1730019D01*
X489666Y1721385D01*
X483562Y1710812D01*
X480402Y1699018D01*
Y1686809D01*
X483562Y1675015D01*
X489666Y1664441D01*
X498300Y1655808D01*
X508873Y1649703D01*
X520667Y1646543D01*
X532876D01*
X544670Y1649703D01*
X555244Y1655808D01*
X563877Y1664441D01*
X569982Y1675015D01*
X573142Y1686809D01*
Y1699018D01*
X569982Y1710812D01*
X563877Y1721385D01*
X555244Y1730019D01*
X544670Y1736123D01*
X532876Y1739284D01*
D02*
G37*
G36*
X382876D02*
X370667D01*
X358873Y1736123D01*
X348300Y1730019D01*
X339666Y1721385D01*
X333562Y1710812D01*
X330402Y1699018D01*
Y1686809D01*
X333562Y1675015D01*
X339666Y1664441D01*
X348300Y1655808D01*
X358873Y1649703D01*
X370667Y1646543D01*
X382876D01*
X394670Y1649703D01*
X405244Y1655808D01*
X413877Y1664441D01*
X419982Y1675015D01*
X423142Y1686809D01*
Y1699018D01*
X419982Y1710812D01*
X413877Y1721385D01*
X405244Y1730019D01*
X394670Y1736123D01*
X382876Y1739284D01*
D02*
G37*
G36*
X3779847Y1892111D02*
X3760154D01*
X3740704Y1889030D01*
X3721975Y1882945D01*
X3704428Y1874004D01*
X3688497Y1862429D01*
X3674572Y1848504D01*
X3662997Y1832573D01*
X3654056Y1815026D01*
X3647971Y1796297D01*
X3644890Y1776847D01*
Y1757154D01*
X3647971Y1737704D01*
X3654056Y1718975D01*
X3662997Y1701428D01*
X3674572Y1685497D01*
X3688497Y1671572D01*
X3704428Y1659997D01*
X3721975Y1651056D01*
X3740704Y1644971D01*
X3760154Y1641890D01*
X3779847D01*
X3799297Y1644971D01*
X3818026Y1651056D01*
X3835573Y1659997D01*
X3851504Y1671572D01*
X3865429Y1685497D01*
X3877004Y1701428D01*
X3885945Y1718975D01*
X3892030Y1737704D01*
X3895111Y1757154D01*
Y1776847D01*
X3892030Y1796297D01*
X3885945Y1815026D01*
X3877004Y1832573D01*
X3865429Y1848504D01*
X3851504Y1862429D01*
X3835573Y1874004D01*
X3818026Y1882945D01*
X3799297Y1889030D01*
X3779847Y1892111D01*
D02*
G37*
G36*
X3618832Y1665180D02*
X3612523D01*
X3606695Y1662766D01*
X3602234Y1658305D01*
X3599820Y1652477D01*
Y1646168D01*
X3602234Y1640339D01*
X3606695Y1635878D01*
X3612523Y1633464D01*
X3618832D01*
X3624661Y1635878D01*
X3629122Y1640339D01*
X3631536Y1646168D01*
Y1652477D01*
X3629122Y1658305D01*
X3624661Y1662766D01*
X3618832Y1665180D01*
D02*
G37*
G36*
X2510659Y1617433D02*
X2498169D01*
X2486106Y1614200D01*
X2475290Y1607956D01*
X2474409Y1607076D01*
X2504414Y1577071D01*
X2534419Y1607076D01*
X2533539Y1607956D01*
X2522723Y1614200D01*
X2510659Y1617433D01*
D02*
G37*
G36*
X3394974Y1599039D02*
X3388665D01*
X3382836Y1596624D01*
X3378376Y1592164D01*
X3375961Y1586335D01*
Y1580026D01*
X3378376Y1574198D01*
X3382836Y1569737D01*
X3388665Y1567322D01*
X3394974D01*
X3400802Y1569737D01*
X3405263Y1574198D01*
X3407678Y1580026D01*
Y1586335D01*
X3405263Y1592164D01*
X3400802Y1596624D01*
X3394974Y1599039D01*
D02*
G37*
G36*
X2860586Y1802433D02*
X2849414D01*
X2838622Y1799541D01*
X2828945Y1793955D01*
X2821045Y1786054D01*
X2815459Y1776379D01*
X2812567Y1765586D01*
Y1754414D01*
X2815459Y1743621D01*
X2821045Y1733946D01*
X2828945Y1726045D01*
X2838622Y1720459D01*
X2842765Y1719349D01*
Y1660000D01*
X2843696Y1655318D01*
X2846349Y1651349D01*
X2926349Y1571349D01*
X2930318Y1568696D01*
X2935000Y1567765D01*
X3169808D01*
X3171017Y1566556D01*
X3176846Y1564142D01*
X3183154D01*
X3188983Y1566556D01*
X3193444Y1571017D01*
X3195858Y1576846D01*
Y1583154D01*
X3193444Y1588983D01*
X3188983Y1593444D01*
X3183154Y1595858D01*
X3176846D01*
X3171017Y1593444D01*
X3169808Y1592235D01*
X2940068D01*
X2867235Y1665068D01*
Y1719349D01*
X2871378Y1720459D01*
X2881055Y1726045D01*
X2888955Y1733946D01*
X2894541Y1743621D01*
X2897433Y1754414D01*
Y1765586D01*
X2894541Y1776379D01*
X2888955Y1786054D01*
X2881055Y1793955D01*
X2871378Y1799541D01*
X2860586Y1802433D01*
D02*
G37*
G36*
X2541490Y1600005D02*
X2511485Y1570000D01*
X2541490Y1539995D01*
X2542370Y1540876D01*
X2548615Y1551691D01*
X2551847Y1563755D01*
Y1576245D01*
X2548615Y1588309D01*
X2542370Y1599124D01*
X2541490Y1600005D01*
D02*
G37*
G36*
X2467338D02*
X2466458Y1599124D01*
X2460214Y1588309D01*
X2456981Y1576245D01*
Y1563755D01*
X2460214Y1551691D01*
X2466458Y1540876D01*
X2467338Y1539995D01*
X2497343Y1570000D01*
X2467338Y1600005D01*
D02*
G37*
G36*
X2237924Y1600005D02*
X2237044Y1599124D01*
X2230800Y1588309D01*
X2227567Y1576245D01*
Y1563755D01*
X2230800Y1551691D01*
X2237044Y1540876D01*
X2237924Y1539995D01*
X2267929Y1570000D01*
X2237924Y1600005D01*
D02*
G37*
G36*
X2993154Y1685858D02*
X2986846D01*
X2981017Y1683444D01*
X2976556Y1678983D01*
X2974142Y1673154D01*
Y1666846D01*
X2976556Y1661017D01*
X2981017Y1656556D01*
X2986846Y1654142D01*
X2993154D01*
X2998983Y1656556D01*
X3000192Y1657765D01*
X3509932D01*
X3544448Y1623249D01*
X3542376Y1614007D01*
X3541017Y1613444D01*
X3536556Y1608983D01*
X3534142Y1603154D01*
Y1596846D01*
X3536556Y1591017D01*
X3541017Y1586556D01*
X3546846Y1584142D01*
X3553154D01*
X3558983Y1586556D01*
X3563444Y1591017D01*
X3564007Y1592376D01*
X3573249Y1594448D01*
X3607416Y1560281D01*
X3611385Y1557629D01*
X3616067Y1556698D01*
X3737519D01*
Y1529063D01*
X3816480D01*
Y1608024D01*
X3737519D01*
Y1581168D01*
X3621135D01*
X3523651Y1678651D01*
X3519682Y1681304D01*
X3515000Y1682235D01*
X3000192D01*
X2998983Y1683444D01*
X2993154Y1685858D01*
D02*
G37*
G36*
X2504414Y1562929D02*
X2474410Y1532924D01*
X2475290Y1532044D01*
X2486106Y1525800D01*
X2498169Y1522567D01*
X2510659D01*
X2522723Y1525800D01*
X2533539Y1532044D01*
X2534419Y1532924D01*
X2504414Y1562929D01*
D02*
G37*
G36*
X2670000Y1682235D02*
X2495000D01*
X2490318Y1681304D01*
X2486349Y1678651D01*
X2439932Y1632235D01*
X2330000D01*
X2325318Y1631304D01*
X2321349Y1628651D01*
X2313782Y1621085D01*
X2311129Y1617115D01*
X2310325Y1613070D01*
X2308400Y1611482D01*
X2302198Y1609068D01*
X2293309Y1614200D01*
X2281245Y1617433D01*
X2268755D01*
X2256691Y1614200D01*
X2245876Y1607956D01*
X2244995Y1607076D01*
X2278536Y1573536D01*
X2275000Y1570000D01*
X2278536Y1566465D01*
X2244995Y1532924D01*
X2245876Y1532044D01*
X2256691Y1525800D01*
X2268755Y1522567D01*
X2281245D01*
X2293309Y1525800D01*
X2299252Y1529231D01*
X2307360Y1525519D01*
X2308077Y1520380D01*
X2295093Y1507397D01*
X2291378Y1509541D01*
X2280586Y1512433D01*
X2269414D01*
X2258622Y1509541D01*
X2248945Y1503955D01*
X2241045Y1496054D01*
X2235459Y1486379D01*
X2232567Y1475586D01*
Y1464414D01*
X2235459Y1453621D01*
X2241045Y1443946D01*
X2248945Y1436045D01*
X2258622Y1430459D01*
X2269414Y1427567D01*
X2280586D01*
X2291378Y1430459D01*
X2301055Y1436045D01*
X2308955Y1443946D01*
X2314541Y1453621D01*
X2317433Y1464414D01*
Y1475586D01*
X2314541Y1486379D01*
X2312396Y1490093D01*
X2331085Y1508782D01*
X2333737Y1512751D01*
X2334668Y1517433D01*
Y1527567D01*
X2417433D01*
Y1607765D01*
X2445000D01*
X2449682Y1608696D01*
X2453651Y1611349D01*
X2500068Y1657765D01*
X2664932D01*
X2811349Y1511349D01*
X2815318Y1508696D01*
X2820000Y1507765D01*
X3100000D01*
X3104682Y1508696D01*
X3108651Y1511349D01*
X3121445Y1524142D01*
X3123154D01*
X3128983Y1526556D01*
X3133444Y1531017D01*
X3135858Y1536846D01*
Y1543154D01*
X3133444Y1548983D01*
X3128983Y1553444D01*
X3123154Y1555858D01*
X3116846D01*
X3111017Y1553444D01*
X3106556Y1548983D01*
X3104142Y1543154D01*
Y1541445D01*
X3094932Y1532235D01*
X2825068D01*
X2678651Y1678651D01*
X2674682Y1681304D01*
X2670000Y1682235D01*
D02*
G37*
G36*
X2646847Y1612433D02*
X2561981D01*
Y1530668D01*
X2552847D01*
X2548165Y1529737D01*
X2544196Y1527085D01*
X2524508Y1507397D01*
X2520793Y1509541D01*
X2510001Y1512433D01*
X2498828D01*
X2488036Y1509541D01*
X2478360Y1503955D01*
X2470459Y1496054D01*
X2464873Y1486379D01*
X2461981Y1475586D01*
Y1464414D01*
X2464873Y1453621D01*
X2470459Y1443946D01*
X2478360Y1436045D01*
X2488036Y1430459D01*
X2498828Y1427567D01*
X2510001D01*
X2520793Y1430459D01*
X2530469Y1436045D01*
X2538369Y1443946D01*
X2543955Y1453621D01*
X2546847Y1464414D01*
Y1475586D01*
X2543955Y1486379D01*
X2541811Y1490093D01*
X2557915Y1506198D01*
X2569289D01*
X2572603Y1498198D01*
X2570459Y1496054D01*
X2564873Y1486379D01*
X2561981Y1475586D01*
Y1464414D01*
X2564873Y1453621D01*
X2570459Y1443946D01*
X2578360Y1436045D01*
X2588036Y1430459D01*
X2598828Y1427567D01*
X2610001D01*
X2620793Y1430459D01*
X2624508Y1432603D01*
X2642219Y1414892D01*
X2646189Y1412239D01*
X2650871Y1411308D01*
X3143543D01*
X3148226Y1412239D01*
X3152195Y1414892D01*
X3225068Y1487765D01*
X3234024D01*
X3237338Y1479765D01*
X3236556Y1478983D01*
X3234142Y1473154D01*
Y1466846D01*
X3236556Y1461017D01*
X3241017Y1456556D01*
X3246846Y1454142D01*
X3253154D01*
X3258983Y1456556D01*
X3263444Y1461017D01*
X3265858Y1466846D01*
Y1473154D01*
X3263444Y1478983D01*
X3262662Y1479765D01*
X3265976Y1487765D01*
X3304808D01*
X3306017Y1486556D01*
X3311846Y1484142D01*
X3318154D01*
X3323983Y1486556D01*
X3328444Y1491017D01*
X3330858Y1496846D01*
Y1503154D01*
X3328444Y1508983D01*
X3323983Y1513444D01*
X3318154Y1515858D01*
X3311846D01*
X3306017Y1513444D01*
X3304808Y1512235D01*
X3220000D01*
X3215318Y1511304D01*
X3211349Y1508651D01*
X3138475Y1435778D01*
X2655939D01*
X2641811Y1449907D01*
X2643955Y1453621D01*
X2646847Y1464414D01*
Y1475586D01*
X2643955Y1486379D01*
X2638369Y1496054D01*
X2636226Y1498198D01*
X2639539Y1506198D01*
X2686499D01*
X2731348Y1461349D01*
X2735318Y1458696D01*
X2740000Y1457765D01*
X3081628D01*
X3082836Y1456556D01*
X3088665Y1454142D01*
X3094974D01*
X3100802Y1456556D01*
X3105263Y1461017D01*
X3107677Y1466846D01*
Y1473154D01*
X3105263Y1478983D01*
X3100802Y1483444D01*
X3094974Y1485858D01*
X3088665D01*
X3082836Y1483444D01*
X3081628Y1482235D01*
X2745068D01*
X2700218Y1527085D01*
X2696249Y1529737D01*
X2691567Y1530668D01*
X2646847D01*
Y1612433D01*
D02*
G37*
G36*
X3782197Y1508024D02*
X3771802D01*
X3761761Y1505333D01*
X3752758Y1500135D01*
X3745407Y1492785D01*
X3740210Y1483782D01*
X3737519Y1473741D01*
Y1463346D01*
X3740210Y1453304D01*
X3745407Y1444302D01*
X3752758Y1436951D01*
X3761761Y1431754D01*
X3771802Y1429063D01*
X3782197D01*
X3792238Y1431754D01*
X3801241Y1436951D01*
X3808592Y1444302D01*
X3813789Y1453304D01*
X3816480Y1463346D01*
Y1473741D01*
X3813789Y1483782D01*
X3808592Y1492785D01*
X3801241Y1500135D01*
X3792238Y1505333D01*
X3782197Y1508024D01*
D02*
G37*
G36*
X2380586Y1512433D02*
X2369414D01*
X2358622Y1509541D01*
X2348945Y1503955D01*
X2341045Y1496054D01*
X2335459Y1486379D01*
X2332567Y1475586D01*
Y1464414D01*
X2335459Y1453621D01*
X2341045Y1443946D01*
X2348945Y1436045D01*
X2358622Y1430459D01*
X2369414Y1427567D01*
X2380586D01*
X2391378Y1430459D01*
X2401055Y1436045D01*
X2408955Y1443946D01*
X2414541Y1453621D01*
X2417433Y1464414D01*
Y1475586D01*
X2414541Y1486379D01*
X2408955Y1496054D01*
X2401055Y1503955D01*
X2391378Y1509541D01*
X2380586Y1512433D01*
D02*
G37*
G36*
X3448154Y1429441D02*
X3441846D01*
X3436017Y1427027D01*
X3431556Y1422566D01*
X3429142Y1416737D01*
Y1410428D01*
X3431556Y1404600D01*
X3436017Y1400139D01*
X3441846Y1397725D01*
X3448154D01*
X3453983Y1400139D01*
X3458444Y1404600D01*
X3460858Y1410428D01*
Y1416737D01*
X3458444Y1422566D01*
X3453983Y1427027D01*
X3448154Y1429441D01*
D02*
G37*
G36*
X160635Y1405858D02*
X154326D01*
X148498Y1403444D01*
X144037Y1398983D01*
X141623Y1393154D01*
Y1386846D01*
X144037Y1381017D01*
X148498Y1376556D01*
X154326Y1374142D01*
X160635D01*
X166464Y1376556D01*
X170925Y1381017D01*
X173339Y1386846D01*
Y1393154D01*
X170925Y1398983D01*
X166464Y1403444D01*
X160635Y1405858D01*
D02*
G37*
G36*
X3782197Y1408024D02*
X3771802D01*
X3761761Y1405333D01*
X3752758Y1400135D01*
X3745407Y1392785D01*
X3740210Y1383782D01*
X3739405Y1380778D01*
X3620000D01*
X3615318Y1379847D01*
X3611349Y1377195D01*
X3569932Y1335778D01*
X3459348D01*
X3456205Y1343778D01*
X3458444Y1346017D01*
X3460858Y1351846D01*
Y1358154D01*
X3458444Y1363983D01*
X3453983Y1368444D01*
X3448154Y1370858D01*
X3441846D01*
X3436017Y1368444D01*
X3431556Y1363983D01*
X3429142Y1358154D01*
Y1351846D01*
X3431556Y1346017D01*
X3433795Y1343778D01*
X3430652Y1335778D01*
X2775192D01*
X2773983Y1336987D01*
X2768154Y1339401D01*
X2761846D01*
X2756017Y1336987D01*
X2751556Y1332526D01*
X2749142Y1326698D01*
Y1320389D01*
X2751556Y1314560D01*
X2756017Y1310099D01*
X2761846Y1307685D01*
X2768154D01*
X2773983Y1310099D01*
X2775192Y1311308D01*
X3575000D01*
X3579682Y1312239D01*
X3583651Y1314892D01*
X3625068Y1356308D01*
X3739405D01*
X3740210Y1353304D01*
X3745407Y1344302D01*
X3752758Y1336951D01*
X3761761Y1331754D01*
X3771802Y1329063D01*
X3782197D01*
X3792238Y1331754D01*
X3801241Y1336951D01*
X3808592Y1344302D01*
X3813789Y1353304D01*
X3816480Y1363346D01*
Y1373741D01*
X3813789Y1383782D01*
X3808592Y1392785D01*
X3801241Y1400135D01*
X3792238Y1405333D01*
X3782197Y1408024D01*
D02*
G37*
G36*
X3358154Y1475858D02*
X3351846D01*
X3346017Y1473444D01*
X3341556Y1468983D01*
X3339142Y1463154D01*
Y1456846D01*
X3341556Y1451017D01*
X3342765Y1449808D01*
Y1400068D01*
X3324932Y1382235D01*
X2740000D01*
X2735318Y1381304D01*
X2731349Y1378651D01*
X2687499Y1334802D01*
X2640539D01*
X2637226Y1342802D01*
X2638369Y1343946D01*
X2643955Y1353621D01*
X2646847Y1364414D01*
Y1375586D01*
X2643955Y1386379D01*
X2638369Y1396054D01*
X2630469Y1403955D01*
X2620793Y1409541D01*
X2610001Y1412433D01*
X2598828D01*
X2588036Y1409541D01*
X2578360Y1403955D01*
X2570459Y1396054D01*
X2564873Y1386379D01*
X2561981Y1375586D01*
Y1364414D01*
X2564873Y1353621D01*
X2570459Y1343946D01*
X2571603Y1342802D01*
X2568289Y1334802D01*
X2556915D01*
X2541811Y1349907D01*
X2543955Y1353621D01*
X2546847Y1364414D01*
Y1375586D01*
X2543955Y1386379D01*
X2538369Y1396054D01*
X2530469Y1403955D01*
X2520793Y1409541D01*
X2510001Y1412433D01*
X2498828D01*
X2488036Y1409541D01*
X2478360Y1403955D01*
X2470459Y1396054D01*
X2464873Y1386379D01*
X2461981Y1375586D01*
Y1364414D01*
X2464873Y1353621D01*
X2470459Y1343946D01*
X2478360Y1336045D01*
X2488036Y1330459D01*
X2498828Y1327567D01*
X2510001D01*
X2520793Y1330459D01*
X2524508Y1332603D01*
X2543196Y1313915D01*
X2547165Y1311263D01*
X2551847Y1310332D01*
X2692567D01*
X2697249Y1311263D01*
X2701218Y1313915D01*
X2745068Y1357765D01*
X3330000D01*
X3334682Y1358696D01*
X3338651Y1361349D01*
X3363651Y1386349D01*
X3366304Y1390318D01*
X3367235Y1395000D01*
Y1449808D01*
X3368444Y1451017D01*
X3370858Y1456846D01*
Y1463154D01*
X3368444Y1468983D01*
X3363983Y1473444D01*
X3358154Y1475858D01*
D02*
G37*
G36*
X2280586Y1412433D02*
X2269414D01*
X2258622Y1409541D01*
X2248945Y1403955D01*
X2241045Y1396054D01*
X2235459Y1386379D01*
X2232567Y1375586D01*
Y1364414D01*
X2235459Y1353621D01*
X2241045Y1343946D01*
X2248945Y1336045D01*
X2258622Y1330459D01*
X2269414Y1327567D01*
X2280586D01*
X2291378Y1330459D01*
X2301055Y1336045D01*
X2308955Y1343946D01*
X2314541Y1353621D01*
X2317433Y1364414D01*
Y1375586D01*
X2314541Y1386379D01*
X2308955Y1396054D01*
X2301055Y1403955D01*
X2291378Y1409541D01*
X2280586Y1412433D01*
D02*
G37*
G36*
X3782197Y1308024D02*
X3771802D01*
X3761761Y1305333D01*
X3752758Y1300135D01*
X3745407Y1292785D01*
X3740210Y1283782D01*
X3739405Y1280778D01*
X3068087D01*
X3065614Y1283251D01*
Y1284961D01*
X3063200Y1290789D01*
X3058739Y1295250D01*
X3052910Y1297665D01*
X3046601D01*
X3040773Y1295250D01*
X3036312Y1290789D01*
X3033898Y1284961D01*
Y1278652D01*
X3036312Y1272823D01*
X3040773Y1268362D01*
X3046601Y1265948D01*
X3048311D01*
X3054367Y1259892D01*
X3058337Y1257239D01*
X3063019Y1256308D01*
X3739405D01*
X3740210Y1253304D01*
X3745407Y1244302D01*
X3752758Y1236951D01*
X3761761Y1231754D01*
X3771802Y1229063D01*
X3782197D01*
X3792238Y1231754D01*
X3801241Y1236951D01*
X3808592Y1244302D01*
X3813789Y1253304D01*
X3816480Y1263346D01*
Y1273741D01*
X3813789Y1283782D01*
X3808592Y1292785D01*
X3801241Y1300135D01*
X3792238Y1305333D01*
X3782197Y1308024D01*
D02*
G37*
G36*
X2380586Y1412433D02*
X2369414D01*
X2358622Y1409541D01*
X2348945Y1403955D01*
X2341045Y1396054D01*
X2335459Y1386379D01*
X2332567Y1375586D01*
Y1364414D01*
X2335459Y1353621D01*
X2341045Y1343946D01*
X2348945Y1336045D01*
X2358622Y1330459D01*
X2362765Y1329349D01*
Y1304265D01*
X2363696Y1299583D01*
X2366349Y1295614D01*
X2425614Y1236349D01*
X2429583Y1233696D01*
X2434265Y1232765D01*
X2824128D01*
X2828810Y1233696D01*
X2832779Y1236349D01*
X2861132Y1264702D01*
X2862842D01*
X2868670Y1267116D01*
X2873131Y1271577D01*
X2875546Y1277405D01*
Y1283714D01*
X2873131Y1289543D01*
X2868670Y1294004D01*
X2862842Y1296418D01*
X2856533D01*
X2850704Y1294004D01*
X2846243Y1289543D01*
X2843829Y1283714D01*
Y1282005D01*
X2819060Y1257235D01*
X2497010D01*
X2492464Y1265235D01*
X2493398Y1267490D01*
Y1273799D01*
X2490984Y1279628D01*
X2486523Y1284089D01*
X2480695Y1286503D01*
X2474386D01*
X2468557Y1284089D01*
X2464096Y1279628D01*
X2461682Y1273799D01*
Y1267490D01*
X2462616Y1265235D01*
X2458070Y1257235D01*
X2439333D01*
X2387235Y1309333D01*
Y1329349D01*
X2391378Y1330459D01*
X2401055Y1336045D01*
X2408955Y1343946D01*
X2414541Y1353621D01*
X2417433Y1364414D01*
Y1375586D01*
X2414541Y1386379D01*
X2408955Y1396054D01*
X2401055Y1403955D01*
X2391378Y1409541D01*
X2380586Y1412433D01*
D02*
G37*
G36*
X3782855Y1213024D02*
X3771144D01*
X3759831Y1209992D01*
X3749688Y1204136D01*
X3749083Y1203531D01*
X3777000Y1175614D01*
X3804916Y1203531D01*
X3804311Y1204136D01*
X3794168Y1209992D01*
X3782855Y1213024D01*
D02*
G37*
G36*
X2173154Y1180062D02*
X2166846D01*
X2161017Y1177647D01*
X2157990Y1174620D01*
X2153240Y1173776D01*
X2148491Y1174620D01*
X2145464Y1177647D01*
X2139635Y1180062D01*
X2133326D01*
X2127498Y1177647D01*
X2123037Y1173186D01*
X2120623Y1167358D01*
Y1161049D01*
X2121548Y1158814D01*
X2116991Y1150813D01*
X2073970D01*
X2069413Y1158814D01*
X2070339Y1161049D01*
Y1167358D01*
X2067925Y1173186D01*
X2063464Y1177647D01*
X2057635Y1180062D01*
X2051326D01*
X2045498Y1177647D01*
X2041037Y1173186D01*
X2038623Y1167358D01*
Y1161049D01*
X2039549Y1158814D01*
X2034991Y1150813D01*
X2002341D01*
X1997783Y1158814D01*
X1998709Y1161049D01*
Y1167358D01*
X1996295Y1173186D01*
X1991834Y1177647D01*
X1986005Y1180062D01*
X1979697D01*
X1973868Y1177647D01*
X1969407Y1173186D01*
X1966993Y1167358D01*
Y1161049D01*
X1967919Y1158814D01*
X1963361Y1150813D01*
X1781341D01*
X1776783Y1158814D01*
X1777709Y1161049D01*
Y1167358D01*
X1775295Y1173186D01*
X1770834Y1177647D01*
X1765005Y1180062D01*
X1758697D01*
X1752868Y1177647D01*
X1748407Y1173186D01*
X1745993Y1167358D01*
Y1161049D01*
X1746919Y1158814D01*
X1742361Y1150813D01*
X1688946D01*
X1684389Y1158814D01*
X1685315Y1161049D01*
Y1167358D01*
X1682901Y1173186D01*
X1678440Y1177647D01*
X1672611Y1180062D01*
X1666302D01*
X1660474Y1177647D01*
X1656013Y1173186D01*
X1653599Y1167358D01*
Y1161049D01*
X1654524Y1158814D01*
X1649967Y1150813D01*
X1603490D01*
X1598932Y1158814D01*
X1599858Y1161049D01*
Y1167358D01*
X1597444Y1173186D01*
X1592983Y1177647D01*
X1587154Y1180062D01*
X1580846D01*
X1575017Y1177647D01*
X1570556Y1173186D01*
X1568142Y1167358D01*
Y1161049D01*
X1569068Y1158814D01*
X1564510Y1150813D01*
X1528490D01*
X1523932Y1158814D01*
X1524858Y1161049D01*
Y1167358D01*
X1522444Y1173186D01*
X1517983Y1177647D01*
X1512154Y1180062D01*
X1505846D01*
X1500017Y1177647D01*
X1495556Y1173186D01*
X1493142Y1167358D01*
Y1161049D01*
X1494068Y1158814D01*
X1489510Y1150813D01*
X1475192D01*
X1473983Y1152022D01*
X1468154Y1154437D01*
X1461846D01*
X1456017Y1152022D01*
X1451556Y1147561D01*
X1449142Y1141733D01*
Y1135424D01*
X1451556Y1129595D01*
X1456017Y1125134D01*
X1461846Y1122720D01*
X1468154D01*
X1473983Y1125134D01*
X1475192Y1126343D01*
X3276085D01*
X3276229Y1126199D01*
X3278376Y1121017D01*
X3282836Y1116556D01*
X3288665Y1114142D01*
X3294974D01*
X3300802Y1116556D01*
X3305263Y1121017D01*
X3307678Y1126846D01*
Y1133154D01*
X3305263Y1138983D01*
X3300802Y1143444D01*
X3294974Y1145858D01*
X3291176D01*
X3289804Y1147230D01*
X3285835Y1149882D01*
X3281153Y1150813D01*
X2189490D01*
X2184932Y1158814D01*
X2185858Y1161049D01*
Y1167358D01*
X2183444Y1173186D01*
X2178983Y1177647D01*
X2173154Y1180062D01*
D02*
G37*
G36*
X519424Y1181023D02*
X513116D01*
X507287Y1178608D01*
X502826Y1174147D01*
X500412Y1168319D01*
Y1162010D01*
X502826Y1156181D01*
X507287Y1151720D01*
X513116Y1149306D01*
X519424D01*
X525253Y1151720D01*
X529714Y1156181D01*
X532128Y1162010D01*
Y1168319D01*
X529714Y1174147D01*
X525253Y1178608D01*
X519424Y1181023D01*
D02*
G37*
G36*
X213054D02*
X206745D01*
X200917Y1178608D01*
X196456Y1174147D01*
X194042Y1168319D01*
Y1162010D01*
X196456Y1156181D01*
X200917Y1151720D01*
X206745Y1149306D01*
X213054D01*
X218883Y1151720D01*
X223344Y1156181D01*
X225758Y1162010D01*
Y1168319D01*
X223344Y1174147D01*
X218883Y1178608D01*
X213054Y1181023D01*
D02*
G37*
G36*
X129424D02*
X123116D01*
X117287Y1178608D01*
X112826Y1174147D01*
X110412Y1168319D01*
Y1162010D01*
X112826Y1156181D01*
X117287Y1151720D01*
X123116Y1149306D01*
X129424D01*
X135253Y1151720D01*
X139714Y1156181D01*
X142128Y1162010D01*
Y1168319D01*
X139714Y1174147D01*
X135253Y1178608D01*
X129424Y1181023D01*
D02*
G37*
G36*
X1412456Y1180204D02*
X1406147D01*
X1400319Y1177790D01*
X1395858Y1173329D01*
X1393444Y1167500D01*
Y1161191D01*
X1395858Y1155363D01*
X1400319Y1150902D01*
X1406147Y1148488D01*
X1412456D01*
X1418285Y1150902D01*
X1422746Y1155363D01*
X1425160Y1161191D01*
Y1167500D01*
X1422746Y1173329D01*
X1418285Y1177790D01*
X1412456Y1180204D01*
D02*
G37*
G36*
X947580D02*
X941271D01*
X935443Y1177790D01*
X930982Y1173329D01*
X928567Y1167500D01*
Y1161191D01*
X930982Y1155363D01*
X935443Y1150902D01*
X941271Y1148488D01*
X947580D01*
X953409Y1150902D01*
X957870Y1155363D01*
X960284Y1161191D01*
Y1167500D01*
X957870Y1173329D01*
X953409Y1177790D01*
X947580Y1180204D01*
D02*
G37*
G36*
X862123D02*
X855815D01*
X849986Y1177790D01*
X845525Y1173329D01*
X843111Y1167500D01*
Y1161191D01*
X845525Y1155363D01*
X849986Y1150902D01*
X855815Y1148488D01*
X862123D01*
X867952Y1150902D01*
X872413Y1155363D01*
X874827Y1161191D01*
Y1167500D01*
X872413Y1173329D01*
X867952Y1177790D01*
X862123Y1180204D01*
D02*
G37*
G36*
X787123D02*
X780815D01*
X774986Y1177790D01*
X770525Y1173329D01*
X768111Y1167500D01*
Y1161191D01*
X770525Y1155363D01*
X774986Y1150902D01*
X780815Y1148488D01*
X787123D01*
X792952Y1150902D01*
X797413Y1155363D01*
X799827Y1161191D01*
Y1167500D01*
X797413Y1173329D01*
X792952Y1177790D01*
X787123Y1180204D01*
D02*
G37*
G36*
X673054D02*
X666745D01*
X660917Y1177790D01*
X656456Y1173329D01*
X654042Y1167500D01*
Y1161191D01*
X656456Y1155363D01*
X660917Y1150902D01*
X666745Y1148488D01*
X673054D01*
X678883Y1150902D01*
X683344Y1155363D01*
X685758Y1161191D01*
Y1167500D01*
X683344Y1173329D01*
X678883Y1177790D01*
X673054Y1180204D01*
D02*
G37*
G36*
X591054D02*
X584745D01*
X578917Y1177790D01*
X574456Y1173329D01*
X572042Y1167500D01*
Y1161191D01*
X574456Y1155363D01*
X578917Y1150902D01*
X584745Y1148488D01*
X591054D01*
X596883Y1150902D01*
X601344Y1155363D01*
X603758Y1161191D01*
Y1167500D01*
X601344Y1173329D01*
X596883Y1177790D01*
X591054Y1180204D01*
D02*
G37*
G36*
X298424D02*
X292116D01*
X286287Y1177790D01*
X281826Y1173329D01*
X279412Y1167500D01*
Y1161191D01*
X281826Y1155363D01*
X286287Y1150902D01*
X292116Y1148488D01*
X298424D01*
X304253Y1150902D01*
X308714Y1155363D01*
X311128Y1161191D01*
Y1167500D01*
X308714Y1173329D01*
X304253Y1177790D01*
X298424Y1180204D01*
D02*
G37*
G36*
X46155D02*
X39846D01*
X34017Y1177790D01*
X29557Y1173329D01*
X27142Y1167500D01*
Y1161191D01*
X29557Y1155363D01*
X34017Y1150902D01*
X39846Y1148488D01*
X46155D01*
X51983Y1150902D01*
X56444Y1155363D01*
X58859Y1161191D01*
Y1167500D01*
X56444Y1173329D01*
X51983Y1177790D01*
X46155Y1180204D01*
D02*
G37*
G36*
X1037149Y1180062D02*
X1030840D01*
X1025012Y1177647D01*
X1020551Y1173186D01*
X1018136Y1167358D01*
Y1161049D01*
X1020551Y1155220D01*
X1025012Y1150759D01*
X1030840Y1148345D01*
X1037149D01*
X1042978Y1150759D01*
X1047439Y1155220D01*
X1049853Y1161049D01*
Y1167358D01*
X1047439Y1173186D01*
X1042978Y1177647D01*
X1037149Y1180062D01*
D02*
G37*
G36*
X1329779Y1178030D02*
X1323470D01*
X1317642Y1175616D01*
X1313181Y1171155D01*
X1310766Y1165327D01*
Y1159018D01*
X1313181Y1153189D01*
X1317642Y1148728D01*
X1323470Y1146314D01*
X1329779D01*
X1335608Y1148728D01*
X1340069Y1153189D01*
X1342483Y1159018D01*
Y1165327D01*
X1340069Y1171155D01*
X1335608Y1175616D01*
X1329779Y1178030D01*
D02*
G37*
G36*
X1258149D02*
X1251840D01*
X1246012Y1175616D01*
X1241551Y1171155D01*
X1239137Y1165327D01*
Y1159018D01*
X1241551Y1153189D01*
X1246012Y1148728D01*
X1251840Y1146314D01*
X1258149D01*
X1263978Y1148728D01*
X1268439Y1153189D01*
X1270853Y1159018D01*
Y1165327D01*
X1268439Y1171155D01*
X1263978Y1175616D01*
X1258149Y1178030D01*
D02*
G37*
G36*
X3811987Y1196460D02*
X3784071Y1168543D01*
X3811988Y1140627D01*
X3812593Y1141232D01*
X3818448Y1151375D01*
X3821480Y1162687D01*
Y1174399D01*
X3818448Y1185712D01*
X3812593Y1195855D01*
X3811987Y1196460D01*
D02*
G37*
G36*
X3742012Y1196460D02*
X3741406Y1195855D01*
X3735550Y1185712D01*
X3732519Y1174399D01*
Y1162687D01*
X3735550Y1151375D01*
X3741406Y1141232D01*
X3742012Y1140626D01*
X3769929Y1168543D01*
X3742012Y1196460D01*
D02*
G37*
G36*
X3777000Y1161472D02*
X3749083Y1133555D01*
X3749688Y1132950D01*
X3759831Y1127094D01*
X3771144Y1124063D01*
X3782855D01*
X3794168Y1127094D01*
X3804311Y1132950D01*
X3804916Y1133556D01*
X3777000Y1161472D01*
D02*
G37*
G36*
X733154Y1180062D02*
X726846D01*
X721017Y1177647D01*
X716556Y1173186D01*
X714142Y1167358D01*
Y1161049D01*
X716556Y1155220D01*
X720067Y1151709D01*
X720596Y1147102D01*
X720067Y1142494D01*
X716556Y1138983D01*
X714142Y1133154D01*
Y1126846D01*
X716556Y1121017D01*
X721017Y1116556D01*
Y1108444D01*
X716556Y1103983D01*
X714142Y1098154D01*
Y1091846D01*
X716556Y1086017D01*
X721017Y1081556D01*
X726846Y1079142D01*
X733154D01*
X738983Y1081556D01*
X743444Y1086017D01*
X745858Y1091846D01*
Y1098154D01*
X743444Y1103983D01*
X738983Y1108444D01*
Y1116556D01*
X743444Y1121017D01*
X745858Y1126846D01*
Y1133154D01*
X743444Y1138983D01*
X739933Y1142494D01*
X739404Y1147102D01*
X739933Y1151709D01*
X743444Y1155220D01*
X745858Y1161049D01*
Y1167358D01*
X743444Y1173186D01*
X738983Y1177647D01*
X733154Y1180062D01*
D02*
G37*
G36*
X2437257Y1110944D02*
X2430948D01*
X2425119Y1108529D01*
X2420659Y1104069D01*
X2418244Y1098240D01*
Y1091931D01*
X2420659Y1086102D01*
X2425119Y1081642D01*
X2430948Y1079227D01*
X2437257D01*
X2443085Y1081642D01*
X2444131Y1082687D01*
X2797484D01*
X2798962Y1079792D01*
X2799937Y1074687D01*
X2796556Y1071306D01*
X2794142Y1065478D01*
Y1059169D01*
X2796556Y1053341D01*
X2801017Y1048880D01*
X2806846Y1046465D01*
X2813154D01*
X2818983Y1048880D01*
X2823444Y1053341D01*
X2825858Y1059169D01*
Y1065478D01*
X2823444Y1071306D01*
X2820063Y1074687D01*
X2821038Y1079792D01*
X2822516Y1082687D01*
X3238326D01*
X3244665Y1076349D01*
X3248635Y1073696D01*
X3253317Y1072765D01*
X3325000D01*
X3329682Y1073696D01*
X3333651Y1076349D01*
X3339990Y1082687D01*
X3451224D01*
X3452596Y1081316D01*
X3458425Y1078901D01*
X3464733D01*
X3470562Y1081316D01*
X3475023Y1085777D01*
X3477437Y1091605D01*
Y1097914D01*
X3475023Y1103743D01*
X3470562Y1108204D01*
X3464733Y1110618D01*
X3458425D01*
X3452596Y1108204D01*
X3451550Y1107158D01*
X3334923D01*
X3330240Y1106226D01*
X3326271Y1103574D01*
X3319932Y1097235D01*
X3258385D01*
X3252046Y1103574D01*
X3248076Y1106226D01*
X3243394Y1107158D01*
X2444457D01*
X2443085Y1108529D01*
X2437257Y1110944D01*
D02*
G37*
G36*
X1309155Y1093859D02*
X1302846D01*
X1297017Y1091444D01*
X1292557Y1086984D01*
X1290142Y1081155D01*
Y1074846D01*
X1292557Y1069017D01*
X1297017Y1064557D01*
X1302846Y1062142D01*
X1309155D01*
X1314984Y1064557D01*
X1319444Y1069017D01*
X1321859Y1074846D01*
Y1081155D01*
X1319444Y1086984D01*
X1314984Y1091444D01*
X1309155Y1093859D01*
D02*
G37*
G36*
X2033974Y1088182D02*
X2027665D01*
X2021836Y1085767D01*
X2017376Y1081306D01*
X2014961Y1075478D01*
Y1069169D01*
X2017376Y1063341D01*
X2021836Y1058880D01*
X2027665Y1056465D01*
X2033974D01*
X2039802Y1058880D01*
X2044263Y1063341D01*
X2046678Y1069169D01*
Y1075478D01*
X2044263Y1081306D01*
X2039802Y1085767D01*
X2033974Y1088182D01*
D02*
G37*
G36*
X1735005Y1083859D02*
X1728697D01*
X1722868Y1081444D01*
X1718407Y1076984D01*
X1715993Y1071155D01*
Y1064846D01*
X1718407Y1059017D01*
X1722868Y1054557D01*
X1728697Y1052142D01*
X1735005D01*
X1740834Y1054557D01*
X1745295Y1059017D01*
X1747709Y1064846D01*
Y1071155D01*
X1745295Y1076984D01*
X1740834Y1081444D01*
X1735005Y1083859D01*
D02*
G37*
G36*
X1007149D02*
X1000840D01*
X995012Y1081444D01*
X990551Y1076984D01*
X988136Y1071155D01*
Y1064846D01*
X990551Y1059017D01*
X995012Y1054557D01*
X1000840Y1052142D01*
X1007149D01*
X1012978Y1054557D01*
X1017439Y1059017D01*
X1019853Y1064846D01*
Y1071155D01*
X1017439Y1076984D01*
X1012978Y1081444D01*
X1007149Y1083859D01*
D02*
G37*
G36*
X576054D02*
X569745D01*
X563917Y1081444D01*
X559456Y1076984D01*
X557042Y1071155D01*
Y1064846D01*
X559456Y1059017D01*
X563917Y1054557D01*
X569745Y1052142D01*
X576054D01*
X581883Y1054557D01*
X586344Y1059017D01*
X588758Y1064846D01*
Y1071155D01*
X586344Y1076984D01*
X581883Y1081444D01*
X576054Y1083859D01*
D02*
G37*
G36*
X262155Y1080859D02*
X255846D01*
X250018Y1078444D01*
X245557Y1073984D01*
X243142Y1068155D01*
Y1061846D01*
X245557Y1056017D01*
X250018Y1051557D01*
X255846Y1049142D01*
X262155D01*
X267983Y1051557D01*
X272444Y1056017D01*
X274859Y1061846D01*
Y1068155D01*
X272444Y1073984D01*
X267983Y1078444D01*
X262155Y1080859D01*
D02*
G37*
G36*
X1288204Y1032204D02*
X1281896D01*
X1276067Y1029789D01*
X1271606Y1025328D01*
X1269192Y1019500D01*
Y1013191D01*
X1271606Y1007362D01*
X1276067Y1002901D01*
X1281896Y1000487D01*
X1288204D01*
X1294033Y1002901D01*
X1298494Y1007362D01*
X1300908Y1013191D01*
Y1019500D01*
X1298494Y1025328D01*
X1294033Y1029789D01*
X1288204Y1032204D01*
D02*
G37*
G36*
X549480D02*
X543171D01*
X537342Y1029789D01*
X532881Y1025328D01*
X530467Y1019500D01*
Y1013191D01*
X532881Y1007362D01*
X537342Y1002901D01*
X543171Y1000487D01*
X549480D01*
X555308Y1002901D01*
X559769Y1007362D01*
X562183Y1013191D01*
Y1019500D01*
X559769Y1025328D01*
X555308Y1029789D01*
X549480Y1032204D01*
D02*
G37*
G36*
X3223154Y1030670D02*
X3216846D01*
X3211017Y1028255D01*
X3206556Y1023794D01*
X3204142Y1017966D01*
Y1011657D01*
X3206556Y1005828D01*
X3211017Y1001368D01*
X3216846Y998953D01*
X3223154D01*
X3228983Y1001368D01*
X3233444Y1005828D01*
X3235858Y1011657D01*
Y1017966D01*
X3233444Y1023794D01*
X3228983Y1028255D01*
X3223154Y1030670D01*
D02*
G37*
G36*
X2964978Y1002630D02*
X2958669D01*
X2952840Y1000216D01*
X2948380Y995755D01*
X2945965Y989927D01*
Y983618D01*
X2948380Y977789D01*
X2952840Y973328D01*
X2958669Y970914D01*
X2964978D01*
X2970807Y973328D01*
X2975267Y977789D01*
X2977682Y983618D01*
Y989927D01*
X2975267Y995755D01*
X2970807Y1000216D01*
X2964978Y1002630D01*
D02*
G37*
G36*
X1468154Y973148D02*
X1461846D01*
X1456017Y970734D01*
X1451556Y966273D01*
X1449945Y962384D01*
X1299778D01*
X1298569Y963592D01*
X1292740Y966007D01*
X1286431D01*
X1280603Y963592D01*
X1276142Y959131D01*
X1273728Y953303D01*
Y946994D01*
X1276142Y941165D01*
X1280603Y936705D01*
X1286431Y934290D01*
X1292740D01*
X1298569Y936705D01*
X1299778Y937913D01*
X1446686D01*
X1448627Y935345D01*
X1450911Y929913D01*
X1449142Y925641D01*
Y919333D01*
X1451556Y913504D01*
X1456017Y909043D01*
X1461846Y906629D01*
X1468154D01*
X1473983Y909043D01*
X1478444Y913504D01*
X1480858Y919333D01*
Y925641D01*
X1478444Y931470D01*
X1474509Y935405D01*
X1474230Y939889D01*
X1474509Y944372D01*
X1478444Y948307D01*
X1480858Y954136D01*
Y960445D01*
X1478444Y966273D01*
X1473983Y970734D01*
X1468154Y973148D01*
D02*
G37*
G36*
X3780154Y983850D02*
X3773845D01*
X3768017Y981436D01*
X3763556Y976975D01*
X3761141Y971146D01*
Y964838D01*
X3763556Y959009D01*
X3768017Y954548D01*
X3773845Y952134D01*
X3780154D01*
X3785983Y954548D01*
X3790443Y959009D01*
X3792858Y964838D01*
Y971146D01*
X3790443Y976975D01*
X3785983Y981436D01*
X3780154Y983850D01*
D02*
G37*
G36*
X3688154D02*
X3681846D01*
X3676017Y981436D01*
X3671556Y976975D01*
X3669142Y971146D01*
Y964838D01*
X3671556Y959009D01*
X3676017Y954548D01*
X3681846Y952134D01*
X3688154D01*
X3693983Y954548D01*
X3698444Y959009D01*
X3700858Y964838D01*
Y971146D01*
X3698444Y976975D01*
X3693983Y981436D01*
X3688154Y983850D01*
D02*
G37*
G36*
X2021005Y1032204D02*
X2014697D01*
X2008868Y1029789D01*
X2004407Y1025328D01*
X2001993Y1019500D01*
Y1013191D01*
X2004407Y1007362D01*
X2008868Y1002901D01*
X2014697Y1000487D01*
X2021005D01*
X2026834Y1002901D01*
X2028043Y1004110D01*
X2673587D01*
X2731349Y946348D01*
X2735318Y943696D01*
X2740000Y942765D01*
X2894808D01*
X2896017Y941556D01*
X2901846Y939142D01*
X2908154D01*
X2913983Y941556D01*
X2918444Y946017D01*
X2920858Y951846D01*
Y958154D01*
X2918444Y963983D01*
X2913983Y968444D01*
X2908154Y970858D01*
X2901846D01*
X2896017Y968444D01*
X2894808Y967235D01*
X2820520D01*
X2818929Y975235D01*
X2818983Y975258D01*
X2823444Y979718D01*
X2825858Y985547D01*
Y991856D01*
X2823444Y997684D01*
X2818983Y1002145D01*
X2813154Y1004560D01*
X2806846D01*
X2801017Y1002145D01*
X2796556Y997684D01*
X2794142Y991856D01*
Y985547D01*
X2796556Y979718D01*
X2801017Y975258D01*
X2801071Y975235D01*
X2799480Y967235D01*
X2745068D01*
X2687306Y1024997D01*
X2683337Y1027649D01*
X2678655Y1028580D01*
X2028043D01*
X2026834Y1029789D01*
X2021005Y1032204D01*
D02*
G37*
G36*
X723154Y953463D02*
X716846D01*
X711017Y951049D01*
X706556Y946588D01*
X704142Y940760D01*
Y934451D01*
X706556Y928622D01*
X711017Y924161D01*
X716846Y921747D01*
X723154D01*
X728983Y924161D01*
X733444Y928622D01*
X735858Y934451D01*
Y940760D01*
X733444Y946588D01*
X728983Y951049D01*
X723154Y953463D01*
D02*
G37*
G36*
X549480Y953345D02*
X543171D01*
X537342Y950931D01*
X532881Y946470D01*
X530467Y940641D01*
Y934333D01*
X532881Y928504D01*
X537342Y924043D01*
X543171Y921629D01*
X549480D01*
X555308Y924043D01*
X559769Y928504D01*
X562183Y934333D01*
Y940641D01*
X559769Y946470D01*
X555308Y950931D01*
X549480Y953345D01*
D02*
G37*
G36*
X3594974Y948850D02*
X3588665D01*
X3582836Y946436D01*
X3578376Y941975D01*
X3575961Y936146D01*
Y929838D01*
X3578376Y924009D01*
X3582836Y919548D01*
X3588665Y917134D01*
X3594974D01*
X3600802Y919548D01*
X3605263Y924009D01*
X3607678Y929838D01*
Y936146D01*
X3605263Y941975D01*
X3600802Y946436D01*
X3594974Y948850D01*
D02*
G37*
G36*
X3502974D02*
X3496665D01*
X3490836Y946436D01*
X3486376Y941975D01*
X3483961Y936146D01*
Y929838D01*
X3486376Y924009D01*
X3490836Y919548D01*
X3496665Y917134D01*
X3502974D01*
X3508802Y919548D01*
X3513263Y924009D01*
X3515678Y929838D01*
Y936146D01*
X3513263Y941975D01*
X3508802Y946436D01*
X3502974Y948850D01*
D02*
G37*
G36*
X3423154Y935858D02*
X3416846D01*
X3411017Y933444D01*
X3406556Y928983D01*
X3404142Y923154D01*
Y916846D01*
X3406556Y911017D01*
X3411017Y906556D01*
X3416846Y904142D01*
X3423154D01*
X3428983Y906556D01*
X3433444Y911017D01*
X3435858Y916846D01*
Y923154D01*
X3433444Y928983D01*
X3428983Y933444D01*
X3423154Y935858D01*
D02*
G37*
G36*
X3233154Y900858D02*
X3226846D01*
X3221017Y898444D01*
X3219808Y897235D01*
X2972015D01*
X2970807Y898444D01*
X2964978Y900858D01*
X2958669D01*
X2952840Y898444D01*
X2948380Y893983D01*
X2945965Y888154D01*
Y881846D01*
X2948380Y876017D01*
X2952840Y871556D01*
X2958669Y869142D01*
X2964978D01*
X2970807Y871556D01*
X2972015Y872765D01*
X3219808D01*
X3221017Y871556D01*
X3226846Y869142D01*
X3233154D01*
X3238983Y871556D01*
X3243444Y876017D01*
X3245858Y881846D01*
Y888154D01*
X3243444Y893983D01*
X3238983Y898444D01*
X3233154Y900858D01*
D02*
G37*
G36*
X3133154Y970858D02*
X3126846D01*
X3121017Y968444D01*
X3116556Y963983D01*
X3114142Y958154D01*
Y956445D01*
X3111756Y954059D01*
X2961824D01*
X2957141Y953127D01*
X2953172Y950475D01*
X2899932Y897235D01*
X2828259D01*
X2826291Y899890D01*
X2824066Y905235D01*
X2825858Y909563D01*
Y915872D01*
X2823444Y921700D01*
X2818983Y926161D01*
X2813154Y928575D01*
X2806846D01*
X2801017Y926161D01*
X2796556Y921700D01*
X2794142Y915872D01*
Y909563D01*
X2795934Y905235D01*
X2793709Y899890D01*
X2791741Y897235D01*
X2555068D01*
X2506164Y946139D01*
X2502195Y948791D01*
X2497513Y949722D01*
X2160819D01*
X2156137Y948791D01*
X2152168Y946139D01*
X2130982Y924952D01*
X2024764D01*
X2023555Y926161D01*
X2017727Y928575D01*
X2011418D01*
X2005589Y926161D01*
X2001129Y921700D01*
X1998714Y915872D01*
Y909563D01*
X2001129Y903734D01*
X2005589Y899273D01*
X2011418Y896859D01*
X2017727D01*
X2023555Y899273D01*
X2024764Y900482D01*
X2136050D01*
X2140732Y901413D01*
X2144701Y904066D01*
X2165887Y925252D01*
X2181511D01*
X2183377Y922933D01*
X2185839Y917252D01*
X2184142Y913154D01*
Y906846D01*
X2186556Y901017D01*
X2191017Y896556D01*
X2196846Y894142D01*
X2203154D01*
X2208983Y896556D01*
X2213444Y901017D01*
X2215858Y906846D01*
Y913154D01*
X2214161Y917252D01*
X2216623Y922933D01*
X2218489Y925252D01*
X2492445D01*
X2541349Y876348D01*
X2545318Y873696D01*
X2550000Y872765D01*
X2905000D01*
X2909682Y873696D01*
X2913651Y876348D01*
X2966892Y929588D01*
X3116824D01*
X3121506Y930520D01*
X3125475Y933172D01*
X3131445Y939142D01*
X3133154D01*
X3138983Y941556D01*
X3143444Y946017D01*
X3145858Y951846D01*
Y958154D01*
X3143444Y963983D01*
X3138983Y968444D01*
X3133154Y970858D01*
D02*
G37*
G36*
X3343154Y915858D02*
X3336846D01*
X3331017Y913444D01*
X3326556Y908983D01*
X3324142Y903154D01*
Y896846D01*
X3326556Y891017D01*
X3331017Y886556D01*
X3336846Y884142D01*
X3343154D01*
X3348983Y886556D01*
X3353444Y891017D01*
X3355858Y896846D01*
Y903154D01*
X3353444Y908983D01*
X3348983Y913444D01*
X3343154Y915858D01*
D02*
G37*
G36*
X2479695Y905858D02*
X2473386D01*
X2467557Y903444D01*
X2463096Y898983D01*
X2460682Y893154D01*
Y886846D01*
X2463096Y881017D01*
X2467557Y876556D01*
X2473386Y874142D01*
X2479695D01*
X2485523Y876556D01*
X2489984Y881017D01*
X2492398Y886846D01*
Y893154D01*
X2489984Y898983D01*
X2485523Y903444D01*
X2479695Y905858D01*
D02*
G37*
G36*
X1527154Y904345D02*
X1520846D01*
X1515017Y901931D01*
X1510556Y897470D01*
X1508142Y891641D01*
Y885333D01*
X1510556Y879504D01*
X1515017Y875043D01*
X1520846Y872629D01*
X1527154D01*
X1532983Y875043D01*
X1537444Y879504D01*
X1539858Y885333D01*
Y891641D01*
X1537444Y897470D01*
X1532983Y901931D01*
X1527154Y904345D01*
D02*
G37*
G36*
X802123D02*
X795815D01*
X789986Y901931D01*
X785525Y897470D01*
X783111Y891641D01*
Y885333D01*
X785525Y879504D01*
X789986Y875043D01*
X795815Y872629D01*
X802123D01*
X807952Y875043D01*
X812413Y879504D01*
X814827Y885333D01*
Y891641D01*
X812413Y897470D01*
X807952Y901931D01*
X802123Y904345D01*
D02*
G37*
G36*
X2896048Y862296D02*
X2889739D01*
X2883911Y859882D01*
X2882702Y858673D01*
X2326630D01*
X2325421Y859882D01*
X2319592Y862296D01*
X2313283D01*
X2307455Y859882D01*
X2302994Y855421D01*
X2300579Y849592D01*
Y843283D01*
X2302994Y837455D01*
X2307455Y832994D01*
X2313283Y830580D01*
X2319592D01*
X2325421Y832994D01*
X2326630Y834203D01*
X2882702D01*
X2883911Y832994D01*
X2889739Y830580D01*
X2896048D01*
X2901877Y832994D01*
X2906338Y837455D01*
X2908752Y843283D01*
Y849592D01*
X2906338Y855421D01*
X2901877Y859882D01*
X2896048Y862296D01*
D02*
G37*
G36*
X2098915Y884571D02*
X2092606D01*
X2086777Y882156D01*
X2082316Y877695D01*
X2079902Y871867D01*
Y865558D01*
X2082316Y859729D01*
X2086777Y855269D01*
X2092606Y852854D01*
X2098915D01*
X2104743Y855269D01*
X2109204Y859729D01*
X2111619Y865558D01*
Y871867D01*
X2109204Y877695D01*
X2104743Y882156D01*
X2098915Y884571D01*
D02*
G37*
G36*
X1371118Y882179D02*
X1364809D01*
X1358980Y879765D01*
X1354519Y875304D01*
X1352105Y869476D01*
Y863167D01*
X1354519Y857338D01*
X1358980Y852877D01*
X1364809Y850463D01*
X1371118D01*
X1376946Y852877D01*
X1381407Y857338D01*
X1383821Y863167D01*
Y869476D01*
X1381407Y875304D01*
X1376946Y879765D01*
X1371118Y882179D01*
D02*
G37*
G36*
X2070061Y841941D02*
X2063752D01*
X2057923Y839526D01*
X2056714Y838317D01*
X1968728D01*
X1967519Y839526D01*
X1961690Y841941D01*
X1955382D01*
X1949553Y839526D01*
X1945092Y835065D01*
X1942678Y829237D01*
Y822928D01*
X1945092Y817099D01*
X1949553Y812639D01*
X1955382Y810224D01*
X1961690D01*
X1967519Y812639D01*
X1968728Y813847D01*
X2056714D01*
X2057923Y812639D01*
X2063752Y810224D01*
X2070061D01*
X2075889Y812639D01*
X2080350Y817099D01*
X2082764Y822928D01*
Y829237D01*
X2080350Y835065D01*
X2075889Y839526D01*
X2070061Y841941D01*
D02*
G37*
G36*
X3358154Y862296D02*
X3351846D01*
X3346017Y859882D01*
X3341556Y855421D01*
X3339142Y849592D01*
Y843283D01*
X3341556Y837455D01*
X3346017Y832994D01*
X3351846Y830580D01*
X3358154D01*
X3363983Y832994D01*
X3368444Y837455D01*
X3370858Y843283D01*
Y849592D01*
X3368444Y855421D01*
X3363983Y859882D01*
X3358154Y862296D01*
D02*
G37*
G36*
X99424Y860858D02*
X93116D01*
X87287Y858444D01*
X82826Y853983D01*
X80412Y848154D01*
Y841846D01*
X82826Y836017D01*
X87287Y831556D01*
X93116Y829142D01*
X99424D01*
X105253Y831556D01*
X109714Y836017D01*
X112128Y841846D01*
Y848154D01*
X109714Y853983D01*
X105253Y858444D01*
X99424Y860858D01*
D02*
G37*
G36*
X683154Y835858D02*
X676846D01*
X671017Y833444D01*
X666556Y828983D01*
X664142Y823154D01*
Y816846D01*
X666556Y811017D01*
X671017Y806556D01*
X676846Y804142D01*
X683154D01*
X688983Y806556D01*
X693444Y811017D01*
X695858Y816846D01*
Y823154D01*
X693444Y828983D01*
X688983Y833444D01*
X683154Y835858D01*
D02*
G37*
G36*
X495110Y841941D02*
X488801D01*
X482972Y839526D01*
X478511Y835065D01*
X476097Y829237D01*
Y822928D01*
X478511Y817099D01*
X482972Y812639D01*
X488801Y810224D01*
X495110D01*
X500938Y812639D01*
X502147Y813847D01*
X599384D01*
X600557Y811017D01*
X605018Y806556D01*
X610846Y804142D01*
X617155D01*
X622984Y806556D01*
X627444Y811017D01*
X629859Y816846D01*
Y823154D01*
X627444Y828983D01*
X622984Y833444D01*
X617155Y835858D01*
X612799D01*
X610512Y837386D01*
X605830Y838317D01*
X502147D01*
X500938Y839526D01*
X495110Y841941D01*
D02*
G37*
G36*
X1233834D02*
X1227525D01*
X1221697Y839526D01*
X1217236Y835065D01*
X1214822Y829237D01*
Y822928D01*
X1217236Y817099D01*
X1221697Y812639D01*
X1227525Y810224D01*
X1233834D01*
X1239663Y812639D01*
X1240872Y813847D01*
X1379448D01*
X1381187Y812108D01*
X1383433Y806686D01*
X1387893Y802225D01*
X1393722Y799811D01*
X1400031D01*
X1405860Y802225D01*
X1410320Y806686D01*
X1412735Y812515D01*
Y818824D01*
X1410320Y824652D01*
X1405860Y829113D01*
X1400031Y831527D01*
X1396373D01*
X1393167Y834734D01*
X1389198Y837386D01*
X1384515Y838317D01*
X1240872D01*
X1239663Y839526D01*
X1233834Y841941D01*
D02*
G37*
G36*
X323739Y764470D02*
X317431D01*
X311602Y762056D01*
X307141Y757595D01*
X304727Y751766D01*
Y745457D01*
X307141Y739629D01*
X311602Y735168D01*
X317431Y732754D01*
X323739D01*
X329568Y735168D01*
X334029Y739629D01*
X336443Y745457D01*
Y751766D01*
X334029Y757595D01*
X329568Y762056D01*
X323739Y764470D01*
D02*
G37*
G36*
X1203834Y759263D02*
X1197525D01*
X1191697Y756849D01*
X1187236Y752388D01*
X1184822Y746560D01*
Y740251D01*
X1187236Y734422D01*
X1191697Y729961D01*
X1197525Y727547D01*
X1203834D01*
X1209663Y729961D01*
X1214124Y734422D01*
X1216538Y740251D01*
Y746560D01*
X1214124Y752388D01*
X1209663Y756849D01*
X1203834Y759263D01*
D02*
G37*
G36*
X1128154D02*
X1121846D01*
X1116017Y756849D01*
X1111556Y752388D01*
X1109142Y746560D01*
Y740251D01*
X1111556Y734422D01*
X1116017Y729961D01*
X1121846Y727547D01*
X1128154D01*
X1133983Y729961D01*
X1138444Y734422D01*
X1140858Y740251D01*
Y746560D01*
X1138444Y752388D01*
X1133983Y756849D01*
X1128154Y759263D01*
D02*
G37*
G36*
X1054724D02*
X1048415D01*
X1042586Y756849D01*
X1038126Y752388D01*
X1035711Y746560D01*
Y740251D01*
X1038126Y734422D01*
X1042586Y729961D01*
X1048415Y727547D01*
X1054724D01*
X1060553Y729961D01*
X1065013Y734422D01*
X1067428Y740251D01*
Y746560D01*
X1065013Y752388D01*
X1060553Y756849D01*
X1054724Y759263D01*
D02*
G37*
G36*
X465110D02*
X458801D01*
X452972Y756849D01*
X448511Y752388D01*
X446097Y746560D01*
Y740251D01*
X448511Y734422D01*
X452972Y729961D01*
X458801Y727547D01*
X465110D01*
X470938Y729961D01*
X475399Y734422D01*
X477813Y740251D01*
Y746560D01*
X475399Y752388D01*
X470938Y756849D01*
X465110Y759263D01*
D02*
G37*
G36*
X394739D02*
X388431D01*
X382602Y756849D01*
X378141Y752388D01*
X375727Y746560D01*
Y740251D01*
X378141Y734422D01*
X382602Y729961D01*
X388431Y727547D01*
X394739D01*
X400568Y729961D01*
X405029Y734422D01*
X407443Y740251D01*
Y746560D01*
X405029Y752388D01*
X400568Y756849D01*
X394739Y759263D01*
D02*
G37*
G36*
X1913154Y758870D02*
X1906846D01*
X1901017Y756456D01*
X1896556Y751995D01*
X1894142Y746167D01*
Y739858D01*
X1896556Y734029D01*
X1901017Y729568D01*
X1906846Y727154D01*
X1913154D01*
X1918983Y729568D01*
X1923444Y734029D01*
X1925858Y739858D01*
Y746167D01*
X1923444Y751995D01*
X1918983Y756456D01*
X1913154Y758870D01*
D02*
G37*
G36*
X1829320D02*
X1823011D01*
X1817183Y756456D01*
X1812722Y751995D01*
X1810308Y746167D01*
Y739858D01*
X1812722Y734029D01*
X1817183Y729568D01*
X1823011Y727154D01*
X1829320D01*
X1835149Y729568D01*
X1839610Y734029D01*
X1842024Y739858D01*
Y746167D01*
X1839610Y751995D01*
X1835149Y756456D01*
X1829320Y758870D01*
D02*
G37*
G36*
X1750005D02*
X1743697D01*
X1737868Y756456D01*
X1733407Y751995D01*
X1730993Y746167D01*
Y739858D01*
X1733407Y734029D01*
X1737868Y729568D01*
X1743697Y727154D01*
X1750005D01*
X1755834Y729568D01*
X1760295Y734029D01*
X1762709Y739858D01*
Y746167D01*
X1760295Y751995D01*
X1755834Y756456D01*
X1750005Y758870D01*
D02*
G37*
G36*
X1356118D02*
X1349809D01*
X1343980Y756456D01*
X1339519Y751995D01*
X1337105Y746167D01*
Y739858D01*
X1339519Y734029D01*
X1343980Y729568D01*
X1349809Y727154D01*
X1356118D01*
X1361946Y729568D01*
X1366407Y734029D01*
X1368821Y739858D01*
Y746167D01*
X1366407Y751995D01*
X1361946Y756456D01*
X1356118Y758870D01*
D02*
G37*
G36*
X2388154Y785858D02*
X2381846D01*
X2376017Y783444D01*
X2371556Y778983D01*
X2369142Y773154D01*
Y766846D01*
X2371556Y761017D01*
X2376017Y756556D01*
X2381846Y754142D01*
X2388154D01*
X2393983Y756556D01*
X2395192Y757765D01*
X3460996D01*
X3514142Y704619D01*
Y702909D01*
X3516556Y697081D01*
X3521017Y692620D01*
X3526846Y690205D01*
X3533154D01*
X3538983Y692620D01*
X3543444Y697081D01*
X3545858Y702909D01*
Y709218D01*
X3543444Y715047D01*
X3538983Y719507D01*
X3533154Y721922D01*
X3531445D01*
X3474715Y778652D01*
X3470746Y781304D01*
X3466064Y782235D01*
X2395192D01*
X2393983Y783444D01*
X2388154Y785858D01*
D02*
G37*
G36*
X661068Y717925D02*
X654759D01*
X648931Y715510D01*
X644470Y711050D01*
X642056Y705221D01*
Y698912D01*
X644470Y693084D01*
X648931Y688623D01*
X654759Y686208D01*
X661068D01*
X666897Y688623D01*
X671358Y693084D01*
X673772Y698912D01*
Y705221D01*
X671358Y711050D01*
X666897Y715510D01*
X661068Y717925D01*
D02*
G37*
G36*
X1273204Y759263D02*
X1266896D01*
X1261067Y756849D01*
X1256606Y752388D01*
X1254192Y746560D01*
Y740251D01*
X1256606Y734422D01*
X1261067Y729961D01*
X1266896Y727547D01*
X1268605D01*
X1309804Y686348D01*
X1313773Y683696D01*
X1318455Y682765D01*
X2762615D01*
X2764206Y674765D01*
X2761017Y673444D01*
X2756556Y668983D01*
X2754142Y663154D01*
Y656846D01*
X2756556Y651017D01*
X2757338Y650235D01*
X2754024Y642235D01*
X2459294D01*
X2458085Y643444D01*
X2452257Y645858D01*
X2445948D01*
X2440119Y643444D01*
X2435659Y638983D01*
X2433244Y633154D01*
Y626846D01*
X2435659Y621017D01*
X2440119Y616556D01*
X2445948Y614142D01*
X2452257D01*
X2458085Y616556D01*
X2459294Y617765D01*
X2774738D01*
X2780509Y610793D01*
Y604484D01*
X2782923Y598655D01*
X2787384Y594194D01*
X2793213Y591780D01*
X2799521D01*
X2805350Y594194D01*
X2809811Y598655D01*
X2812225Y604484D01*
Y610793D01*
X2817996Y617765D01*
X2826834D01*
X2826869Y617736D01*
X2826869Y617694D01*
X2836422Y618952D01*
X2837613Y619445D01*
X2837936Y619481D01*
X2849054Y622978D01*
X2849294Y622853D01*
X2853031Y623596D01*
X2861031Y623623D01*
X3227213D01*
X3230527Y615623D01*
X3229950Y615047D01*
X3227536Y609218D01*
Y602909D01*
X3229950Y597081D01*
X3234411Y592620D01*
X3240240Y590205D01*
X3246549D01*
X3252377Y592620D01*
X3256838Y597081D01*
X3259252Y602909D01*
Y609218D01*
X3256838Y615047D01*
X3256261Y615623D01*
X3259575Y623623D01*
X3434158D01*
X3441686Y623596D01*
X3447957Y619436D01*
X3450836Y616556D01*
X3456665Y614142D01*
X3462974D01*
X3468802Y616556D01*
X3473263Y621017D01*
X3475678Y626846D01*
Y633154D01*
X3473263Y638983D01*
X3468802Y643444D01*
X3462974Y645858D01*
X3456665D01*
X3455252Y645273D01*
X3451309Y646906D01*
X3441756Y648164D01*
X3441756Y648122D01*
X3441721Y648093D01*
X3381834D01*
X3378444Y656017D01*
X3380858Y661846D01*
Y668154D01*
X3378444Y673983D01*
X3373983Y678444D01*
X3368154Y680858D01*
X3361846D01*
X3356017Y678444D01*
X3351556Y673983D01*
X3349142Y668154D01*
Y661846D01*
X3351556Y656017D01*
X3348166Y648093D01*
X2852996D01*
X2852961Y648122D01*
X2852961Y648164D01*
X2843408Y646906D01*
X2842217Y646413D01*
X2841894Y646378D01*
X2838150Y645200D01*
X2830536Y643006D01*
X2826799Y642262D01*
X2818799Y642235D01*
X2785976D01*
X2782662Y650235D01*
X2783444Y651017D01*
X2785858Y656846D01*
Y663154D01*
X2783444Y668983D01*
X2778983Y673444D01*
X2775794Y674765D01*
X2777385Y682765D01*
X3233202D01*
X3234411Y681556D01*
X3240240Y679142D01*
X3246549D01*
X3252377Y681556D01*
X3256838Y686017D01*
X3259252Y691846D01*
Y698154D01*
X3256838Y703983D01*
X3252377Y708444D01*
X3246549Y710858D01*
X3240240D01*
X3234411Y708444D01*
X3233202Y707235D01*
X2840545D01*
X2838954Y715235D01*
X2838983Y715247D01*
X2843444Y719708D01*
X2845858Y725537D01*
Y731846D01*
X2843444Y737674D01*
X2838983Y742135D01*
X2833154Y744549D01*
X2826846D01*
X2821017Y742135D01*
X2816556Y737674D01*
X2814142Y731846D01*
Y725537D01*
X2816556Y719708D01*
X2821017Y715247D01*
X2821046Y715235D01*
X2819455Y707235D01*
X1323523D01*
X1285908Y744850D01*
Y746560D01*
X1283494Y752388D01*
X1279033Y756849D01*
X1273204Y759263D01*
D02*
G37*
G36*
X588154Y665858D02*
X581846D01*
X576017Y663444D01*
X571556Y658983D01*
X569142Y653154D01*
Y646846D01*
X571556Y641017D01*
X576017Y636556D01*
X581846Y634142D01*
X583555D01*
X586348Y631348D01*
X590318Y628696D01*
X595000Y627765D01*
X1609932D01*
X1647156Y590541D01*
X1651125Y587889D01*
X1655807Y586958D01*
X2345739D01*
X2366349Y566348D01*
X2370318Y563696D01*
X2375000Y562765D01*
X2734932D01*
X2740169Y557528D01*
X2744139Y554875D01*
X2748821Y553944D01*
X2836179D01*
X2840861Y554875D01*
X2844831Y557528D01*
X2850068Y562765D01*
X3131628D01*
X3132836Y561556D01*
X3138665Y559142D01*
X3144974D01*
X3150802Y561556D01*
X3155263Y566017D01*
X3157678Y571846D01*
Y578154D01*
X3155263Y583983D01*
X3150802Y588444D01*
X3144974Y590858D01*
X3138665D01*
X3132836Y588444D01*
X3131628Y587235D01*
X2845000D01*
X2840318Y586304D01*
X2836349Y583652D01*
X2831111Y578414D01*
X2753889D01*
X2748651Y583652D01*
X2744682Y586304D01*
X2740000Y587235D01*
X2380068D01*
X2359459Y607844D01*
X2355489Y610497D01*
X2350807Y611428D01*
X2330169D01*
X2326855Y619428D01*
X2328444Y621017D01*
X2330858Y626846D01*
Y633154D01*
X2328444Y638983D01*
X2323983Y643444D01*
X2318154Y645858D01*
X2311846D01*
X2306017Y643444D01*
X2301556Y638983D01*
X2299142Y633154D01*
Y626846D01*
X2301556Y621017D01*
X2303145Y619428D01*
X2299831Y611428D01*
X2277271D01*
X2273958Y619428D01*
X2275547Y621017D01*
X2277961Y626846D01*
Y633154D01*
X2275547Y638983D01*
X2271086Y643444D01*
X2265257Y645858D01*
X2258948D01*
X2253120Y643444D01*
X2248659Y638983D01*
X2246245Y633154D01*
Y626846D01*
X2248659Y621017D01*
X2250248Y619428D01*
X2246934Y611428D01*
X2225169D01*
X2221855Y619428D01*
X2223444Y621017D01*
X2225858Y626846D01*
Y633154D01*
X2223444Y638983D01*
X2218983Y643444D01*
X2213154Y645858D01*
X2206846D01*
X2201017Y643444D01*
X2196556Y638983D01*
X2194142Y633154D01*
Y626846D01*
X2196556Y621017D01*
X2198145Y619428D01*
X2194831Y611428D01*
X1660875D01*
X1623652Y648652D01*
X1619682Y651304D01*
X1615000Y652235D01*
X600858D01*
Y653154D01*
X598444Y658983D01*
X593983Y663444D01*
X588154Y665858D01*
D02*
G37*
G36*
X2318154Y575858D02*
X2311846D01*
X2306017Y573444D01*
X2301556Y568983D01*
X2299142Y563154D01*
Y556846D01*
X2301556Y551017D01*
X2306017Y546556D01*
X2311846Y544142D01*
X2318154D01*
X2323983Y546556D01*
X2328444Y551017D01*
X2330858Y556846D01*
Y563154D01*
X2328444Y568983D01*
X2323983Y573444D01*
X2318154Y575858D01*
D02*
G37*
G36*
X2265257D02*
X2258948D01*
X2253120Y573444D01*
X2248659Y568983D01*
X2246245Y563154D01*
Y556846D01*
X2248659Y551017D01*
X2253120Y546556D01*
X2258948Y544142D01*
X2265257D01*
X2271086Y546556D01*
X2275547Y551017D01*
X2277961Y556846D01*
Y563154D01*
X2275547Y568983D01*
X2271086Y573444D01*
X2265257Y575858D01*
D02*
G37*
G36*
X2213154D02*
X2206846D01*
X2201017Y573444D01*
X2196556Y568983D01*
X2194142Y563154D01*
Y556846D01*
X2196556Y551017D01*
X2201017Y546556D01*
X2206846Y544142D01*
X2213154D01*
X2218983Y546556D01*
X2223444Y551017D01*
X2225858Y556846D01*
Y563154D01*
X2223444Y568983D01*
X2218983Y573444D01*
X2213154Y575858D01*
D02*
G37*
G36*
X203851Y597741D02*
X111111D01*
Y505000D01*
X203851D01*
Y597741D01*
D02*
G37*
G36*
X549480Y630858D02*
X543171D01*
X537342Y628444D01*
X532881Y623983D01*
X530467Y618154D01*
Y611846D01*
X532881Y606017D01*
X537342Y601556D01*
X543171Y599142D01*
X544880D01*
X550146Y593876D01*
X554115Y591224D01*
X558798Y590293D01*
X1301386D01*
Y495913D01*
X1488614D01*
Y590293D01*
X1572405D01*
X1634642Y528055D01*
X1638611Y525403D01*
X1643293Y524471D01*
X1744421D01*
X1747210Y516471D01*
X1744722Y513983D01*
X1742308Y508154D01*
Y501846D01*
X1744722Y496017D01*
X1749183Y491556D01*
X1755012Y489142D01*
X1761320D01*
X1767149Y491556D01*
X1771610Y496017D01*
X1774024Y501846D01*
Y508154D01*
X1771610Y513983D01*
X1769121Y516471D01*
X1771911Y524471D01*
X1844421D01*
X1847210Y516471D01*
X1844722Y513983D01*
X1842308Y508154D01*
Y501846D01*
X1844722Y496017D01*
X1849183Y491556D01*
X1855012Y489142D01*
X1861320D01*
X1867149Y491556D01*
X1871610Y496017D01*
X1874024Y501846D01*
Y508154D01*
X1871610Y513983D01*
X1869121Y516471D01*
X1871911Y524471D01*
X1944876D01*
X1947399Y516471D01*
X1944722Y513794D01*
X1942308Y507966D01*
Y501657D01*
X1944722Y495829D01*
X1949183Y491368D01*
X1955012Y488953D01*
X1961320D01*
X1967149Y491368D01*
X1971610Y495829D01*
X1974024Y501657D01*
Y507966D01*
X1971610Y513794D01*
X1968933Y516471D01*
X1971456Y524471D01*
X2056664D01*
X2072109Y509026D01*
X2076078Y506374D01*
X2080760Y505442D01*
X2387563D01*
X2389179Y502168D01*
X2390016Y497442D01*
X2386556Y493983D01*
X2384142Y488154D01*
Y481846D01*
X2386556Y476017D01*
X2391017Y471556D01*
X2396846Y469142D01*
X2403154D01*
X2408983Y471556D01*
X2413444Y476017D01*
X2415858Y481846D01*
Y488154D01*
X2413444Y493983D01*
X2409984Y497442D01*
X2410821Y502168D01*
X2412437Y505442D01*
X3181628D01*
X3182836Y504234D01*
X3188665Y501819D01*
X3194974D01*
X3200802Y504234D01*
X3205263Y508695D01*
X3207678Y514523D01*
Y520832D01*
X3205263Y526661D01*
X3200802Y531121D01*
X3194974Y533536D01*
X3188665D01*
X3182836Y531121D01*
X3181628Y529913D01*
X2085828D01*
X2070383Y545358D01*
X2066414Y548010D01*
X2061731Y548942D01*
X1648361D01*
X1586124Y611179D01*
X1582155Y613831D01*
X1577472Y614763D01*
X563865D01*
X562183Y616445D01*
Y618154D01*
X559769Y623983D01*
X555308Y628444D01*
X549480Y630858D01*
D02*
G37*
G36*
X617155Y520858D02*
X610846D01*
X605018Y518444D01*
X600557Y513983D01*
X598142Y508154D01*
Y501846D01*
X600557Y496017D01*
X605018Y491556D01*
X610846Y489142D01*
X617155D01*
X622984Y491556D01*
X627444Y496017D01*
X629859Y501846D01*
Y508154D01*
X627444Y513983D01*
X622984Y518444D01*
X617155Y520858D01*
D02*
G37*
G36*
X517155D02*
X510846D01*
X505017Y518444D01*
X500557Y513983D01*
X498142Y508154D01*
Y501846D01*
X500557Y496017D01*
X505017Y491556D01*
X510846Y489142D01*
X517155D01*
X522984Y491556D01*
X527444Y496017D01*
X529859Y501846D01*
Y508154D01*
X527444Y513983D01*
X522984Y518444D01*
X517155Y520858D01*
D02*
G37*
G36*
X1095440Y519859D02*
X1089132D01*
X1083303Y517444D01*
X1078842Y512984D01*
X1076428Y507155D01*
Y500846D01*
X1078842Y495017D01*
X1083303Y490557D01*
X1089132Y488142D01*
X1095440D01*
X1101269Y490557D01*
X1105730Y495017D01*
X1108144Y500846D01*
Y507155D01*
X1105730Y512984D01*
X1101269Y517444D01*
X1095440Y519859D01*
D02*
G37*
G36*
X995440D02*
X989132D01*
X983303Y517444D01*
X978842Y512984D01*
X976428Y507155D01*
Y500846D01*
X978842Y495017D01*
X983303Y490557D01*
X989132Y488142D01*
X995440D01*
X1001269Y490557D01*
X1005730Y495017D01*
X1008144Y500846D01*
Y507155D01*
X1005730Y512984D01*
X1001269Y517444D01*
X995440Y519859D01*
D02*
G37*
G36*
X895440D02*
X889132D01*
X883303Y517444D01*
X878842Y512984D01*
X876428Y507155D01*
Y500846D01*
X878842Y495017D01*
X883303Y490557D01*
X889132Y488142D01*
X895440D01*
X901269Y490557D01*
X905730Y495017D01*
X908144Y500846D01*
Y507155D01*
X905730Y512984D01*
X901269Y517444D01*
X895440Y519859D01*
D02*
G37*
G36*
X417155D02*
X410846D01*
X405017Y517444D01*
X400557Y512984D01*
X398142Y507155D01*
Y500846D01*
X400557Y495017D01*
X405017Y490557D01*
X410846Y488142D01*
X417155D01*
X422983Y490557D01*
X427444Y495017D01*
X429859Y500846D01*
Y507155D01*
X427444Y512984D01*
X422983Y517444D01*
X417155Y519859D01*
D02*
G37*
G36*
X1624338Y518850D02*
X1535740D01*
X1580039Y474551D01*
X1624338Y518850D01*
D02*
G37*
G36*
X1631409Y511780D02*
X1583575Y463945D01*
X1580039Y467480D01*
X1576504Y463945D01*
X1528669Y511779D01*
Y344441D01*
X1576504Y392276D01*
X1580039Y388740D01*
X1583575Y392276D01*
X1631409Y344441D01*
Y511780D01*
D02*
G37*
G36*
X2673154Y479701D02*
X2666846D01*
X2661017Y477287D01*
X2656556Y472826D01*
X2654142Y466997D01*
Y460689D01*
X2656556Y454860D01*
X2661017Y450399D01*
X2666846Y447985D01*
X2673154D01*
X2678983Y450399D01*
X2683444Y454860D01*
X2685858Y460689D01*
Y466997D01*
X2683444Y472826D01*
X2678983Y477287D01*
X2673154Y479701D01*
D02*
G37*
G36*
X2403154Y460858D02*
X2396846D01*
X2391017Y458444D01*
X2386556Y453983D01*
X2384142Y448154D01*
Y441846D01*
X2386556Y436017D01*
X2391017Y431556D01*
X2396846Y429142D01*
X2403154D01*
X2408983Y431556D01*
X2413444Y436017D01*
X2415858Y441846D01*
Y448154D01*
X2413444Y453983D01*
X2408983Y458444D01*
X2403154Y460858D01*
D02*
G37*
G36*
X164244Y452741D02*
X150718D01*
X137653Y449240D01*
X125939Y442477D01*
X124692Y441230D01*
X157481Y408442D01*
X190270Y441230D01*
X189023Y442477D01*
X177309Y449240D01*
X164244Y452741D01*
D02*
G37*
G36*
X3568154Y411489D02*
X3561846D01*
X3556017Y409074D01*
X3551556Y404613D01*
X3549142Y398785D01*
Y392476D01*
X3551556Y386647D01*
X3556017Y382187D01*
X3561846Y379772D01*
X3568154D01*
X3573983Y382187D01*
X3578444Y386647D01*
X3580858Y392476D01*
Y398785D01*
X3578444Y404613D01*
X3573983Y409074D01*
X3568154Y411489D01*
D02*
G37*
G36*
X197341Y434159D02*
X164552Y401370D01*
X197341Y368582D01*
X198587Y369829D01*
X205350Y381542D01*
X208851Y394608D01*
Y408134D01*
X205350Y421199D01*
X198587Y432913D01*
X197341Y434159D01*
D02*
G37*
G36*
X117621D02*
X116375Y432913D01*
X109612Y421199D01*
X106111Y408134D01*
Y394608D01*
X109612Y381542D01*
X116375Y369829D01*
X117621Y368582D01*
X150410Y401370D01*
X117621Y434159D01*
D02*
G37*
G36*
X157481Y394300D02*
X124692Y361511D01*
X125939Y360264D01*
X137653Y353501D01*
X150718Y350000D01*
X164244D01*
X177309Y353501D01*
X189023Y360264D01*
X190270Y361511D01*
X157481Y394300D01*
D02*
G37*
G36*
X1580039Y381669D02*
X1535740Y337370D01*
X1624339D01*
X1580039Y381669D01*
D02*
G37*
G36*
X2891910Y335964D02*
X2885601D01*
X2879772Y333550D01*
X2875311Y329089D01*
X2872897Y323260D01*
Y316952D01*
X2875311Y311123D01*
X2879772Y306662D01*
X2885601Y304248D01*
X2891910D01*
X2897738Y306662D01*
X2902199Y311123D01*
X2904614Y316952D01*
Y323260D01*
X2902199Y329089D01*
X2897738Y333550D01*
X2891910Y335964D01*
D02*
G37*
G36*
X2813154D02*
X2806846D01*
X2801017Y333550D01*
X2796556Y329089D01*
X2794142Y323260D01*
Y316952D01*
X2796556Y311123D01*
X2801017Y306662D01*
X2806846Y304248D01*
X2813154D01*
X2818983Y306662D01*
X2823444Y311123D01*
X2825858Y316952D01*
Y323260D01*
X2823444Y329089D01*
X2818983Y333550D01*
X2813154Y335964D01*
D02*
G37*
G36*
X3394974Y321922D02*
X3388665D01*
X3382836Y319507D01*
X3378376Y315046D01*
X3375961Y309218D01*
Y302909D01*
X3378376Y297080D01*
X3382836Y292620D01*
X3388665Y290205D01*
X3394974D01*
X3400802Y292620D01*
X3405263Y297080D01*
X3407678Y302909D01*
Y309218D01*
X3405263Y315046D01*
X3400802Y319507D01*
X3394974Y321922D01*
D02*
G37*
G36*
X1485740Y354299D02*
X1441441Y310000D01*
X1485740Y265701D01*
Y354299D01*
D02*
G37*
G36*
X1304260Y354299D02*
Y265701D01*
X1348559Y310000D01*
X1304260Y354299D01*
D02*
G37*
G36*
X2608154Y295858D02*
X2601846D01*
X2596017Y293444D01*
X2591556Y288983D01*
X2589142Y283154D01*
Y276846D01*
X2591556Y271017D01*
X2596017Y266556D01*
X2601846Y264142D01*
X2608154D01*
X2613983Y266556D01*
X2618444Y271017D01*
X2620858Y276846D01*
Y283154D01*
X2618444Y288983D01*
X2613983Y293444D01*
X2608154Y295858D01*
D02*
G37*
G36*
X1478669Y361370D02*
X1311331D01*
X1359166Y313536D01*
X1355630Y310000D01*
X1359166Y306464D01*
X1311331Y258630D01*
X1478669D01*
X1430835Y306464D01*
X1434370Y310000D01*
X1430835Y313536D01*
X1478669Y361370D01*
D02*
G37*
G36*
X3245761Y271922D02*
X3239452D01*
X3233624Y269507D01*
X3229163Y265046D01*
X3226749Y259218D01*
Y252909D01*
X3229163Y247081D01*
X3233624Y242620D01*
X3239452Y240205D01*
X3245761D01*
X3251590Y242620D01*
X3256051Y247081D01*
X3258465Y252909D01*
Y259218D01*
X3256051Y265046D01*
X3251590Y269507D01*
X3245761Y271922D01*
D02*
G37*
G36*
X3044974D02*
X3038665D01*
X3032836Y269507D01*
X3028376Y265046D01*
X3025961Y259218D01*
Y252909D01*
X3028376Y247081D01*
X3032836Y242620D01*
X3038665Y240205D01*
X3044974D01*
X3050802Y242620D01*
X3055263Y247081D01*
X3057678Y252909D01*
Y259218D01*
X3055263Y265046D01*
X3050802Y269507D01*
X3044974Y271922D01*
D02*
G37*
G36*
X2848154Y265677D02*
X2841846D01*
X2836017Y263263D01*
X2831556Y258802D01*
X2829142Y252973D01*
Y246665D01*
X2831556Y240836D01*
X2836017Y236375D01*
X2841846Y233961D01*
X2848154D01*
X2853983Y236375D01*
X2858444Y240836D01*
X2860858Y246665D01*
Y252973D01*
X2858444Y258802D01*
X2853983Y263263D01*
X2848154Y265677D01*
D02*
G37*
G36*
X3628154Y255858D02*
X3621846D01*
X3616017Y253444D01*
X3611556Y248983D01*
X3609142Y243154D01*
Y236846D01*
X3611556Y231017D01*
X3616017Y226556D01*
X3621846Y224142D01*
X3628154D01*
X3633983Y226556D01*
X3638444Y231017D01*
X3640858Y236846D01*
Y243154D01*
X3638444Y248983D01*
X3633983Y253444D01*
X3628154Y255858D01*
D02*
G37*
G36*
X2533276Y289146D02*
X2525282Y288094D01*
X2517832Y285008D01*
X2511436Y280100D01*
X2506527Y273703D01*
X2503442Y266254D01*
X2502389Y258260D01*
Y221611D01*
X2494389Y220019D01*
X2492727Y224034D01*
X2487435Y229325D01*
X2480521Y232189D01*
X2473038D01*
X2466124Y229325D01*
X2460832Y224034D01*
X2457968Y217120D01*
Y209636D01*
X2460832Y202722D01*
X2466124Y197431D01*
X2473038Y194567D01*
X2480521D01*
X2487435Y197431D01*
X2492727Y202722D01*
X2494460Y206908D01*
X2498969Y207005D01*
X2502583Y205612D01*
X2503442Y199085D01*
X2506527Y191636D01*
X2511436Y185239D01*
X2517832Y180331D01*
X2525282Y177245D01*
X2533276Y176192D01*
X2541269Y177245D01*
X2548719Y180331D01*
X2555115Y185239D01*
X2560024Y191636D01*
X2563109Y199085D01*
X2564162Y207079D01*
Y258260D01*
X2563109Y266254D01*
X2560024Y273703D01*
X2555115Y280100D01*
X2548719Y285008D01*
X2541269Y288094D01*
X2533276Y289146D01*
D02*
G37*
G36*
X1961320Y229236D02*
X1955012D01*
X1949183Y226822D01*
X1944722Y222361D01*
X1942308Y216532D01*
Y210224D01*
X1944722Y204395D01*
X1949183Y199934D01*
X1955012Y197520D01*
X1961320D01*
X1967149Y199934D01*
X1971610Y204395D01*
X1974024Y210224D01*
Y216532D01*
X1971610Y222361D01*
X1967149Y226822D01*
X1961320Y229236D01*
D02*
G37*
G36*
X1861320D02*
X1855012D01*
X1849183Y226822D01*
X1844722Y222361D01*
X1842308Y216532D01*
Y210224D01*
X1844722Y204395D01*
X1849183Y199934D01*
X1855012Y197520D01*
X1861320D01*
X1867149Y199934D01*
X1871610Y204395D01*
X1874024Y210224D01*
Y216532D01*
X1871610Y222361D01*
X1867149Y226822D01*
X1861320Y229236D01*
D02*
G37*
G36*
X1761320D02*
X1755012D01*
X1749183Y226822D01*
X1744722Y222361D01*
X1742308Y216532D01*
Y210224D01*
X1744722Y204395D01*
X1749183Y199934D01*
X1755012Y197520D01*
X1761320D01*
X1767149Y199934D01*
X1771610Y204395D01*
X1774024Y210224D01*
Y216532D01*
X1771610Y222361D01*
X1767149Y226822D01*
X1761320Y229236D01*
D02*
G37*
G36*
X2192724Y289146D02*
X2184731Y288094D01*
X2177281Y285008D01*
X2170885Y280100D01*
X2165976Y273703D01*
X2162891Y266254D01*
X2161838Y258260D01*
Y207079D01*
X2162891Y199085D01*
X2165976Y191636D01*
X2170885Y185239D01*
X2177281Y180331D01*
X2184731Y177245D01*
X2192724Y176192D01*
X2200718Y177245D01*
X2208168Y180331D01*
X2214564Y185239D01*
X2219473Y191636D01*
X2222558Y199085D01*
X2223417Y205612D01*
X2227031Y207005D01*
X2231540Y206908D01*
X2233273Y202722D01*
X2238565Y197431D01*
X2245479Y194567D01*
X2252962D01*
X2259876Y197431D01*
X2265168Y202722D01*
X2268032Y209636D01*
Y217120D01*
X2265168Y224034D01*
X2259876Y229325D01*
X2252962Y232189D01*
X2245479D01*
X2238565Y229325D01*
X2233273Y224034D01*
X2231611Y220019D01*
X2223611Y221611D01*
Y258260D01*
X2222558Y266254D01*
X2219473Y273703D01*
X2214564Y280100D01*
X2208168Y285008D01*
X2200718Y288094D01*
X2192724Y289146D01*
D02*
G37*
G36*
X3494974Y225858D02*
X3488665D01*
X3482836Y223444D01*
X3478376Y218983D01*
X3475961Y213154D01*
Y206846D01*
X3478376Y201017D01*
X3482836Y196556D01*
X3488665Y194142D01*
X3494974D01*
X3500802Y196556D01*
X3505263Y201017D01*
X3507678Y206846D01*
Y213154D01*
X3505263Y218983D01*
X3500802Y223444D01*
X3494974Y225858D01*
D02*
G37*
G36*
X1095440Y220858D02*
X1089132D01*
X1083303Y218444D01*
X1078842Y213983D01*
X1076428Y208154D01*
Y201846D01*
X1078842Y196017D01*
X1083303Y191556D01*
X1089132Y189142D01*
X1095440D01*
X1101269Y191556D01*
X1105730Y196017D01*
X1108144Y201846D01*
Y208154D01*
X1105730Y213983D01*
X1101269Y218444D01*
X1095440Y220858D01*
D02*
G37*
G36*
X995440D02*
X989132D01*
X983303Y218444D01*
X978842Y213983D01*
X976428Y208154D01*
Y201846D01*
X978842Y196017D01*
X983303Y191556D01*
X989132Y189142D01*
X995440D01*
X1001269Y191556D01*
X1005730Y196017D01*
X1008144Y201846D01*
Y208154D01*
X1005730Y213983D01*
X1001269Y218444D01*
X995440Y220858D01*
D02*
G37*
G36*
X895440D02*
X889132D01*
X883303Y218444D01*
X878842Y213983D01*
X876428Y208154D01*
Y201846D01*
X878842Y196017D01*
X883303Y191556D01*
X889132Y189142D01*
X895440D01*
X901269Y191556D01*
X905730Y196017D01*
X908144Y201846D01*
Y208154D01*
X905730Y213983D01*
X901269Y218444D01*
X895440Y220858D01*
D02*
G37*
G36*
X617155D02*
X610846D01*
X605018Y218444D01*
X600557Y213983D01*
X598142Y208154D01*
Y201846D01*
X600557Y196017D01*
X605018Y191556D01*
X610846Y189142D01*
X617155D01*
X622984Y191556D01*
X627444Y196017D01*
X629859Y201846D01*
Y208154D01*
X627444Y213983D01*
X622984Y218444D01*
X617155Y220858D01*
D02*
G37*
G36*
X517155D02*
X510846D01*
X505017Y218444D01*
X500557Y213983D01*
X498142Y208154D01*
Y201846D01*
X500557Y196017D01*
X505017Y191556D01*
X510846Y189142D01*
X517155D01*
X522984Y191556D01*
X527444Y196017D01*
X529859Y201846D01*
Y208154D01*
X527444Y213983D01*
X522984Y218444D01*
X517155Y220858D01*
D02*
G37*
G36*
X417155D02*
X410846D01*
X405017Y218444D01*
X400557Y213983D01*
X398142Y208154D01*
Y201846D01*
X400557Y196017D01*
X405017Y191556D01*
X410846Y189142D01*
X417155D01*
X422983Y191556D01*
X427444Y196017D01*
X429859Y201846D01*
Y208154D01*
X427444Y213983D01*
X422983Y218444D01*
X417155Y220858D01*
D02*
G37*
G36*
X3323154Y205858D02*
X3316846D01*
X3311017Y203444D01*
X3306556Y198983D01*
X3304142Y193154D01*
Y186846D01*
X3306556Y181017D01*
X3311017Y176556D01*
X3316846Y174142D01*
X3323154D01*
X3328983Y176556D01*
X3333444Y181017D01*
X3335858Y186846D01*
Y193154D01*
X3333444Y198983D01*
X3328983Y203444D01*
X3323154Y205858D01*
D02*
G37*
G36*
X3194974Y199039D02*
X3188665D01*
X3182836Y196625D01*
X3178376Y192164D01*
X3175961Y186335D01*
Y180026D01*
X3178376Y174198D01*
X3182836Y169737D01*
X3188665Y167322D01*
X3194974D01*
X3200802Y169737D01*
X3205263Y174198D01*
X3207678Y180026D01*
Y186335D01*
X3205263Y192164D01*
X3200802Y196625D01*
X3194974Y199039D01*
D02*
G37*
G36*
X3094974D02*
X3088665D01*
X3082836Y196625D01*
X3078376Y192164D01*
X3075961Y186335D01*
Y180026D01*
X3078376Y174198D01*
X3082836Y169737D01*
X3088665Y167322D01*
X3094974D01*
X3100802Y169737D01*
X3105263Y174198D01*
X3107678Y180026D01*
Y186335D01*
X3105263Y192164D01*
X3100802Y196625D01*
X3094974Y199039D01*
D02*
G37*
G36*
X2983154Y165858D02*
X2976846D01*
X2971017Y163444D01*
X2966556Y158983D01*
X2964142Y153154D01*
Y146846D01*
X2966556Y141017D01*
X2971017Y136556D01*
X2976846Y134142D01*
X2983154D01*
X2988983Y136556D01*
X2993444Y141017D01*
X2995858Y146846D01*
Y153154D01*
X2993444Y158983D01*
X2988983Y163444D01*
X2983154Y165858D01*
D02*
G37*
G36*
X3144974Y155858D02*
X3138665D01*
X3132836Y153444D01*
X3128376Y148983D01*
X3125961Y143154D01*
Y136846D01*
X3128376Y131017D01*
X3132836Y126556D01*
X3138665Y124142D01*
X3144974D01*
X3150802Y126556D01*
X3155263Y131017D01*
X3157678Y136846D01*
Y143154D01*
X3155263Y148983D01*
X3150802Y153444D01*
X3144974Y155858D01*
D02*
G37*
G36*
X2908154Y102433D02*
X2901846D01*
X2896017Y100019D01*
X2891556Y95558D01*
X2889142Y89730D01*
Y83421D01*
X2891556Y77592D01*
X2896017Y73131D01*
X2901846Y70717D01*
X2908154D01*
X2913983Y73131D01*
X2918444Y77592D01*
X2920858Y83421D01*
Y89730D01*
X2918444Y95558D01*
X2913983Y100019D01*
X2908154Y102433D01*
D02*
G37*
G36*
X167327Y282591D02*
X147634D01*
X128184Y279510D01*
X109455Y273425D01*
X91909Y264485D01*
X75977Y252910D01*
X62052Y238985D01*
X50477Y223053D01*
X41537Y205506D01*
X35451Y186778D01*
X32371Y167327D01*
Y147634D01*
X35451Y128184D01*
X41537Y109455D01*
X50477Y91909D01*
X62052Y75977D01*
X75977Y62052D01*
X91909Y50477D01*
X109455Y41537D01*
X128184Y35451D01*
X147634Y32371D01*
X167327D01*
X186778Y35451D01*
X205506Y41537D01*
X223053Y50477D01*
X238985Y62052D01*
X252910Y75977D01*
X264485Y91909D01*
X273425Y109455D01*
X279510Y128184D01*
X282591Y147634D01*
Y167327D01*
X279510Y186778D01*
X273425Y205506D01*
X264485Y223053D01*
X252910Y238985D01*
X238985Y252910D01*
X223053Y264485D01*
X205506Y273425D01*
X186778Y279510D01*
X167327Y282591D01*
D02*
G37*
G36*
X2736847Y275111D02*
X2717154D01*
X2697704Y272030D01*
X2678975Y265945D01*
X2661428Y257004D01*
X2645497Y245429D01*
X2631572Y231504D01*
X2619997Y215573D01*
X2611056Y198026D01*
X2604971Y179297D01*
X2601890Y159847D01*
Y140154D01*
X2604971Y120704D01*
X2611056Y101975D01*
X2619997Y84428D01*
X2631572Y68497D01*
X2645497Y54572D01*
X2661428Y42997D01*
X2678975Y34056D01*
X2697704Y27971D01*
X2717154Y24890D01*
X2736847D01*
X2756297Y27971D01*
X2775026Y34056D01*
X2792573Y42997D01*
X2808504Y54572D01*
X2822429Y68497D01*
X2834004Y84428D01*
X2842945Y101975D01*
X2849030Y120704D01*
X2852111Y140154D01*
Y159847D01*
X2849030Y179297D01*
X2842945Y198026D01*
X2834004Y215573D01*
X2822429Y231504D01*
X2808504Y245429D01*
X2792573Y257004D01*
X2775026Y265945D01*
X2756297Y272030D01*
X2736847Y275111D01*
D02*
G37*
%LPD*%
D10*
X2826834Y630000D02*
G03*
X2834265Y631152I-71J25000D01*
G01*
X2852996Y635858D02*
G03*
X2845565Y634706I71J-25000D01*
G01*
X3452144Y633549D02*
G03*
X3441721Y635858I-10493J-22691D01*
G01*
X2330000Y1620000D02*
X2445000D01*
X2495000Y1670000D01*
X2322433Y1612433D02*
X2330000Y1620000D01*
X2322433Y1517433D02*
Y1612433D01*
X3243394Y1094922D02*
X3253317Y1085000D01*
X3325000D02*
X3334923Y1094922D01*
X3253317Y1085000D02*
X3325000D01*
X3334923Y1094922D02*
X3461416D01*
X2434265D02*
X3243394D01*
X1615000Y640000D02*
X1655807Y599193D01*
X2350807D02*
X2375000Y575000D01*
X1655807Y599193D02*
X2350807D01*
X2740000Y575000D02*
X2748821Y566179D01*
X2836179D01*
X2845000Y575000D01*
X3141819D01*
X2375000D02*
X2740000D01*
X2905000Y885000D02*
X2961824Y941824D01*
X3116824D02*
X3130000Y955000D01*
X2961824Y941824D02*
X3116824D01*
X2678655Y1016345D02*
X2740000Y955000D01*
X2905000D01*
X2824128Y1245000D02*
X2859687Y1280560D01*
X2434265Y1245000D02*
X2824128D01*
X3049756Y1281806D02*
X3063019Y1268543D01*
X3776999D01*
X3355000Y1395000D02*
Y1460000D01*
X1465000Y1138578D02*
X3281153D01*
X3289731Y1130000D01*
X3291819D01*
X2316438Y846438D02*
X2892894D01*
X1577472Y602528D02*
X1643293Y536707D01*
X2080760Y517678D02*
X3191819D01*
X1643293Y536707D02*
X2061731D01*
X2080760Y517678D01*
X2765000Y1323543D02*
X3575000D01*
X3620000Y1368543D02*
X3776999D01*
X3575000Y1323543D02*
X3620000Y1368543D01*
X3515000Y1670000D02*
X3616067Y1568933D01*
X3776610D02*
X3776999Y1568543D01*
X3616067Y1568933D02*
X3776610D01*
X2495000Y1670000D02*
X2670000D01*
X2820000Y1520000D01*
X2275000Y1470000D02*
X2322433Y1517433D01*
X605830Y826082D02*
X611912Y820000D01*
X491955Y826082D02*
X605830D01*
X611912Y820000D02*
X614000D01*
X1394929Y815669D02*
X1396877D01*
X1384515Y826082D02*
X1394929Y815669D01*
X1230680Y826082D02*
X1384515D01*
X1318455Y695000D02*
X3243394D01*
X1270050Y743405D02*
X1318455Y695000D01*
X2852996Y635858D02*
X3441721D01*
X1289586Y950149D02*
X1455770D01*
X1462912Y957290D01*
X1465000D01*
X3466064Y770000D02*
X3530000Y706063D01*
X2385000Y770000D02*
X3466064D01*
X2375000Y1304265D02*
Y1370000D01*
Y1304265D02*
X2434265Y1245000D01*
X2504414Y1370000D02*
X2551847Y1322567D01*
X2692567D01*
X2740000Y1370000D01*
X3330000D01*
X3355000Y1395000D01*
X2650871Y1423543D02*
X3143543D01*
X2604414Y1470000D02*
X2650871Y1423543D01*
X3143543D02*
X3220000Y1500000D01*
X3315000D01*
X2820000Y1520000D02*
X3100000D01*
X3120000Y1540000D01*
X3452144Y633549D02*
X3459819Y630000D01*
X2834265Y631152D02*
X2845565Y634706D01*
X2449102Y630000D02*
X2826834D01*
X2550000Y885000D02*
X2905000D01*
X2160819Y937487D02*
X2497513D01*
X2550000Y885000D01*
X2017851Y1016345D02*
X2678655D01*
X2014572Y912717D02*
X2136050D01*
X2160819Y937487D01*
X2961823Y885000D02*
X3230000D01*
X2990000Y1670000D02*
X3515000D01*
X2855000Y1660000D02*
X2935000Y1580000D01*
X2855000Y1660000D02*
Y1760000D01*
X2935000Y1580000D02*
X3180000D01*
X595000Y640000D02*
X1615000D01*
X585000Y650000D02*
X595000Y640000D01*
X558798Y602528D02*
X1577472D01*
X546325Y615000D02*
X558798Y602528D01*
X2691567Y1518433D02*
X2740000Y1470000D01*
X2504414D02*
X2552847Y1518433D01*
X2691567D01*
X2740000Y1470000D02*
X3091819D01*
X2434102Y1095085D02*
X2434265Y1094922D01*
X3461416D02*
X3461579Y1094760D01*
X1958536Y826082D02*
X2066906D01*
D36*
X2192724Y68496D02*
D03*
Y232669D02*
D03*
X2533276Y68496D02*
D03*
Y232669D02*
D03*
D37*
X2249220Y213378D02*
D03*
X2476780D02*
D03*
D38*
X3776999Y1568543D02*
D03*
D39*
Y1468543D02*
D03*
Y1268543D02*
D03*
Y1168543D02*
D03*
Y1368543D02*
D03*
D40*
X2727001Y150000D02*
D03*
X157481Y157481D02*
D03*
X3770001Y1767001D02*
D03*
X2362205Y1771654D02*
D03*
X157481D02*
D03*
D41*
X2275000Y1370000D02*
D03*
Y1570000D02*
D03*
Y1470000D02*
D03*
X2375000Y1370000D02*
D03*
Y1470000D02*
D03*
X2755000Y1760000D02*
D03*
X2955000D02*
D03*
X2855000D02*
D03*
Y1860000D02*
D03*
X2955000D02*
D03*
X3190000Y1760000D02*
D03*
X3390000D02*
D03*
X3290000D02*
D03*
Y1860000D02*
D03*
X3390000D02*
D03*
X2504414Y1370000D02*
D03*
Y1570000D02*
D03*
Y1470000D02*
D03*
X2604414Y1370000D02*
D03*
Y1470000D02*
D03*
D42*
X2375000Y1570000D02*
D03*
X2604414D02*
D03*
D43*
X3243394Y490119D02*
D03*
Y545237D02*
D03*
Y435000D02*
D03*
X3282764Y584607D02*
D03*
Y395630D02*
D03*
X3337882D02*
D03*
X3393001D02*
D03*
X3365441Y462560D02*
D03*
X3432371Y435000D02*
D03*
X3310323Y462560D02*
D03*
Y517678D02*
D03*
X3365441D02*
D03*
X3391819Y584607D02*
D03*
X3336424Y585243D02*
D03*
X3432371Y545237D02*
D03*
Y490119D02*
D03*
D44*
X1395000Y310000D02*
D03*
D45*
X1580039Y428110D02*
D03*
D46*
X1395000Y546221D02*
D03*
D47*
X526772Y1692913D02*
D03*
X376772D02*
D03*
X676772D02*
D03*
X157481Y401370D02*
D03*
X1825984Y1692913D02*
D03*
X1675984D02*
D03*
X1975984D02*
D03*
X1176378D02*
D03*
X1026378D02*
D03*
X1326378D02*
D03*
D48*
X826772D02*
D03*
X2125984D02*
D03*
X1476378D02*
D03*
D49*
X157481Y551370D02*
D03*
D50*
X2755000Y1860000D02*
D03*
X3190000D02*
D03*
D51*
X3564882Y1910000D02*
D03*
Y1715118D02*
D03*
X295270Y1212338D02*
D03*
X669900Y1299000D02*
D03*
X1035000Y1220000D02*
D03*
X1761374Y1212338D02*
D03*
X720000Y937605D02*
D03*
X2905000Y955000D02*
D03*
X2859687Y1280560D02*
D03*
X3049756Y1281806D02*
D03*
X2670000Y463843D02*
D03*
X2810000Y320106D02*
D03*
X2888755D02*
D03*
X2845000Y249819D02*
D03*
X3445000Y1355000D02*
D03*
X3420000Y920000D02*
D03*
X2830000Y728691D02*
D03*
X3355000Y1460000D02*
D03*
X2980000Y1045000D02*
D03*
X3340000Y900000D02*
D03*
X3220000Y1014812D02*
D03*
X3341819Y1062323D02*
D03*
X3125000Y1185000D02*
D03*
X3445000Y1236417D02*
D03*
Y1413583D02*
D03*
X43001Y1253157D02*
D03*
X126270D02*
D03*
X587900Y1255645D02*
D03*
X783969D02*
D03*
X858969Y1253471D02*
D03*
X1326625Y1255645D02*
D03*
X1509000D02*
D03*
X1584000Y1253613D02*
D03*
X2054481Y1255645D02*
D03*
X2137158Y1297406D02*
D03*
X3499819Y1060000D02*
D03*
X3591819D02*
D03*
X3685000Y1095000D02*
D03*
X3776999D02*
D03*
X2237016Y293842D02*
D03*
X2510000Y295000D02*
D03*
X2470030Y375000D02*
D03*
X2140000D02*
D03*
X2127158Y458843D02*
D03*
X2140000Y784744D02*
D03*
X2583997Y922487D02*
D03*
X2619414D02*
D03*
X2656999D02*
D03*
Y988701D02*
D03*
X2619414D02*
D03*
X2583997D02*
D03*
X2890000Y1060000D02*
D03*
Y986772D02*
D03*
X1240050Y673339D02*
D03*
X1169680D02*
D03*
X1092286D02*
D03*
X942286Y702067D02*
D03*
X709900Y866321D02*
D03*
X1465000D02*
D03*
X2179426Y868712D02*
D03*
X2991819Y1615000D02*
D03*
X1110625Y1036030D02*
D03*
X1149995D02*
D03*
X1189365Y1036487D02*
D03*
X1110625Y957290D02*
D03*
X1149995D02*
D03*
X1190144D02*
D03*
X1189365Y996660D02*
D03*
X1149995D02*
D03*
X1110625D02*
D03*
X450640Y1036487D02*
D03*
X411270D02*
D03*
X371900D02*
D03*
X450640Y996660D02*
D03*
X411270D02*
D03*
X371900D02*
D03*
Y957290D02*
D03*
X411270D02*
D03*
X450640D02*
D03*
X1838481Y1036030D02*
D03*
X1877851D02*
D03*
X1917221D02*
D03*
Y996660D02*
D03*
X1877851D02*
D03*
X1838481D02*
D03*
Y957290D02*
D03*
X1877851D02*
D03*
X1917221D02*
D03*
X2382103Y375000D02*
D03*
X2370000Y80000D02*
D03*
X2179426Y323000D02*
D03*
X2140000Y340000D02*
D03*
X2105000Y375000D02*
D03*
Y340000D02*
D03*
X2127099Y427000D02*
D03*
Y491063D02*
D03*
X2206006Y436833D02*
D03*
Y475000D02*
D03*
X2095000Y426833D02*
D03*
Y458843D02*
D03*
Y491063D02*
D03*
X2575000Y825000D02*
D03*
X3291819Y1130000D02*
D03*
X680000Y820000D02*
D03*
X2170000Y1164203D02*
D03*
X730000Y1095000D02*
D03*
Y1130000D02*
D03*
Y1164203D02*
D03*
X1958166Y504812D02*
D03*
X1858166Y505000D02*
D03*
X1758166D02*
D03*
X1092286Y504000D02*
D03*
X992286D02*
D03*
X892286D02*
D03*
Y205000D02*
D03*
X992286D02*
D03*
X1092286D02*
D03*
X1758166Y213378D02*
D03*
X1858166D02*
D03*
X1958166D02*
D03*
X414000Y205000D02*
D03*
X514000D02*
D03*
X614000D02*
D03*
Y505000D02*
D03*
X514000D02*
D03*
X414000Y504000D02*
D03*
X3250000Y1470000D02*
D03*
X1910000Y743012D02*
D03*
X2066906Y826082D02*
D03*
X1746851Y743012D02*
D03*
X1396877Y815669D02*
D03*
X1352963Y743012D02*
D03*
X546325Y937487D02*
D03*
X2770000Y660000D02*
D03*
X2796367Y607638D02*
D03*
X1289586Y950149D02*
D03*
X614000Y820000D02*
D03*
X157481Y1390000D02*
D03*
X2385000Y770000D02*
D03*
X3530000Y706063D02*
D03*
X3355000Y846438D02*
D03*
X2765000Y1323543D02*
D03*
X3315000Y1500000D02*
D03*
X3365000Y665000D02*
D03*
X3120000Y1540000D02*
D03*
X3243394Y606063D02*
D03*
X3130000Y955000D02*
D03*
X2014572Y912717D02*
D03*
X2980000Y150000D02*
D03*
X2017851Y1016345D02*
D03*
X2316438Y846438D02*
D03*
X2892894D02*
D03*
X2905000Y86575D02*
D03*
X3230000Y885000D02*
D03*
X2961823D02*
D03*
X2990000Y1670000D02*
D03*
X2961823Y986772D02*
D03*
X3180000Y1580000D02*
D03*
X3242607Y256063D02*
D03*
X3320000Y190000D02*
D03*
X3391819Y1583181D02*
D03*
Y306063D02*
D03*
X3550000Y1600000D02*
D03*
X3565000Y395630D02*
D03*
X3625000Y240000D02*
D03*
X3615678Y1649322D02*
D03*
X3191819Y183181D02*
D03*
X3141819Y140000D02*
D03*
X1270050Y743405D02*
D03*
X3041819Y256063D02*
D03*
X3091819Y1470000D02*
D03*
X3091819Y183181D02*
D03*
X1524000Y888487D02*
D03*
X2095760Y868712D02*
D03*
X1367963Y866321D02*
D03*
X2200000Y910000D02*
D03*
X96270Y845000D02*
D03*
X657914Y702067D02*
D03*
X798969Y888487D02*
D03*
X1465000Y922487D02*
D03*
X3141819Y575000D02*
D03*
X585000Y650000D02*
D03*
X546325Y615000D02*
D03*
X3191819Y517678D02*
D03*
X546325Y1016345D02*
D03*
X3243394Y695000D02*
D03*
X1465000Y957290D02*
D03*
Y1138578D02*
D03*
X2810000Y1062323D02*
D03*
X2477540Y1270645D02*
D03*
X2434102Y1095085D02*
D03*
X1285050Y1016345D02*
D03*
X3491819Y210000D02*
D03*
X3461579Y1094760D02*
D03*
X3459819Y630000D02*
D03*
X2449102D02*
D03*
X2476540Y890000D02*
D03*
X3776999Y967992D02*
D03*
X3685000D02*
D03*
X3591819Y932992D02*
D03*
X3499819D02*
D03*
X2810000Y912717D02*
D03*
Y988701D02*
D03*
X2400000Y445000D02*
D03*
Y485000D02*
D03*
X2605000Y280000D02*
D03*
X2210000Y560000D02*
D03*
X2262103D02*
D03*
X2315000D02*
D03*
Y630000D02*
D03*
X2262103D02*
D03*
X2210000D02*
D03*
X2136481Y1164203D02*
D03*
X2054481D02*
D03*
X1982851D02*
D03*
X1761851D02*
D03*
X1669457D02*
D03*
X1584000D02*
D03*
X1509000D02*
D03*
X1409302Y1164346D02*
D03*
X1326625Y1162172D02*
D03*
X1254995D02*
D03*
X1033995Y1164203D02*
D03*
X944426Y1164346D02*
D03*
X858969D02*
D03*
X783969D02*
D03*
X669900D02*
D03*
X587900D02*
D03*
X516270Y1165164D02*
D03*
X295270Y1164346D02*
D03*
X209900Y1165164D02*
D03*
X126270D02*
D03*
X43001Y1164346D02*
D03*
X2030819Y1072323D02*
D03*
X1731851Y1068001D02*
D03*
X1306001Y1078001D02*
D03*
X1003995Y1068001D02*
D03*
X572900D02*
D03*
X259000Y1065001D02*
D03*
X1826166Y743012D02*
D03*
X1958536Y826082D02*
D03*
X1230680D02*
D03*
X1200680Y743405D02*
D03*
X1125000D02*
D03*
X1051570D02*
D03*
X320585Y748612D02*
D03*
X391585Y743405D02*
D03*
X461955D02*
D03*
X491955Y826082D02*
D03*
D53*
X2530776Y1955000D02*
D03*
%TF.MD5,5e499a0e45a821cf5625e39ccdb89381*%
M02*
