%TF.GenerationSoftware,Altium Limited,Altium Designer,22.11.1 (43)*%
G04 Layer_Color=65535*
%FSLAX26Y26*%
%MOIN*%
%TF.SameCoordinates,2A7337FD-AF25-45B1-AC32-E314E96981BF*%
%TF.FilePolarity,Positive*%
%TF.FileFunction,Legend,Top*%
%TF.Part,Single*%
G01*
G75*
%TA.AperFunction,NonConductor*%
%ADD53C,0.006000*%
%ADD54C,0.005000*%
%ADD55C,0.010000*%
%ADD56C,0.015000*%
D53*
X901772Y1799213D02*
Y1838583D01*
X862402D02*
X901772D01*
X301772Y1799213D02*
Y1838583D01*
X341142D01*
X301772Y1551181D02*
Y1590551D01*
Y1551181D02*
X901772Y1551181D01*
Y1629921D01*
X220473Y626371D02*
X299213D01*
Y326371D02*
Y626371D01*
X11812Y326371D02*
Y365741D01*
Y626371D02*
X51182D01*
X11812Y587000D02*
Y626371D01*
Y326371D02*
X51182D01*
X259843D02*
X299213D01*
X2407249Y1138579D02*
X2505674D01*
X2407249Y1261413D02*
X2462367D01*
X2407249Y1138579D02*
Y1175586D01*
Y1224405D02*
Y1261413D01*
X3711999Y1173543D02*
X3811999D01*
X3711999Y1523543D02*
Y1573543D01*
X3811999Y1523543D02*
Y1573543D01*
X3711999D02*
X3811999D01*
X2225000Y1620000D02*
X2245000D01*
X2225000Y1600000D02*
Y1620000D01*
Y1320000D02*
Y1340000D01*
Y1320000D02*
X2245000D01*
X2405000D02*
X2425000D01*
Y1340000D01*
Y1570000D02*
Y1620000D01*
X2375000D02*
X2425000D01*
Y1535000D02*
Y1570000D01*
X2340000Y1620000D02*
X2375000D01*
X2548564Y849331D02*
Y873347D01*
X2524942D02*
X2548564D01*
X2524942D02*
Y896969D01*
Y1046575D02*
Y1070197D01*
X2548564D01*
X2698170D02*
X2721792D01*
Y1046575D02*
Y1070197D01*
Y873347D02*
Y896969D01*
X2698170Y873347D02*
X2721792D01*
X748969Y1345000D02*
Y1435000D01*
Y1345000D02*
X898969D01*
Y1435000D01*
X748969D02*
X898969D01*
X3551819Y882992D02*
Y1017992D01*
X3631819Y882992D02*
Y1017992D01*
X3635000Y1763339D02*
Y1853339D01*
X3565000Y1763339D02*
Y1853339D01*
X3473543Y1730000D02*
X3533543D01*
X3473543Y1790000D02*
X3533543D01*
X1239680Y1275645D02*
X1279680D01*
X1239680Y1235645D02*
X1279680D01*
X214900Y946487D02*
Y1036487D01*
X144900Y946487D02*
Y1036487D01*
X93561Y853487D02*
X183561D01*
X93561Y923487D02*
X183561D01*
X286270Y698405D02*
Y788405D01*
X216270Y698405D02*
Y788405D01*
X552900Y1125999D02*
Y1215999D01*
X622900Y1125999D02*
Y1215999D01*
X8001Y1119346D02*
Y1209346D01*
X78001Y1119346D02*
Y1209346D01*
X161270Y1120164D02*
Y1210164D01*
X91270Y1120164D02*
Y1210164D01*
X551270Y1125999D02*
Y1215999D01*
X481270Y1125999D02*
Y1215999D01*
X330270Y1123826D02*
Y1213826D01*
X260270Y1123826D02*
Y1213826D01*
X169900Y1125165D02*
Y1260165D01*
X249900Y1125165D02*
Y1260165D01*
X629900Y1127652D02*
Y1262652D01*
X709900Y1127652D02*
Y1262652D01*
X566325Y698405D02*
Y788405D01*
X496325Y698405D02*
Y788405D01*
X584239Y972487D02*
X674239D01*
X584239Y902487D02*
X674239D01*
X304585Y1239660D02*
X344585D01*
X304585Y1279660D02*
X344585D01*
X635325Y698405D02*
Y788405D01*
X565325Y698405D02*
Y788405D01*
X500955Y1275645D02*
X540955D01*
X500955Y1235645D02*
X540955D01*
X76270Y946487D02*
Y1036487D01*
X146270Y946487D02*
Y1036487D01*
X584239Y981345D02*
X674239D01*
X584239Y1051345D02*
X674239D01*
X355585Y698405D02*
Y788405D01*
X285585Y698405D02*
Y788405D01*
X426585Y698405D02*
Y788405D01*
X356585Y698405D02*
Y788405D01*
X496955Y698405D02*
Y788405D01*
X426955Y698405D02*
Y788405D01*
X1681481Y946487D02*
Y1036487D01*
X1611481Y946487D02*
Y1036487D01*
X1560142Y853487D02*
X1650142D01*
X1560142Y923487D02*
X1650142D01*
X1752851Y698405D02*
Y788405D01*
X1682851Y698405D02*
Y788405D01*
X2019481Y1125999D02*
Y1215999D01*
X2089481Y1125999D02*
Y1215999D01*
X1474000Y1125999D02*
Y1215999D01*
X1544000Y1125999D02*
Y1215999D01*
X1619000Y1125999D02*
Y1215999D01*
X1549000Y1125999D02*
Y1215999D01*
X2017851Y1125999D02*
Y1215999D01*
X1947851Y1125999D02*
Y1215999D01*
X1796851Y1123826D02*
Y1213826D01*
X1726851Y1123826D02*
Y1213826D01*
X1629457Y1125621D02*
Y1260621D01*
X1709457Y1125621D02*
Y1260621D01*
X2096481Y1127652D02*
Y1262652D01*
X2176481Y1127652D02*
Y1262652D01*
X2032906Y698405D02*
Y788405D01*
X1962906Y698405D02*
Y788405D01*
X2050819Y972487D02*
X2140819D01*
X2050819Y902487D02*
X2140819D01*
X1771166Y1239660D02*
X1811166D01*
X1771166Y1279660D02*
X1811166D01*
X2101906Y698405D02*
Y788405D01*
X2031906Y698405D02*
Y788405D01*
X1967536Y1275645D02*
X2007536D01*
X1967536Y1235645D02*
X2007536D01*
X1542851Y946487D02*
Y1036487D01*
X1612851Y946487D02*
Y1036487D01*
X2050819Y981345D02*
X2140819D01*
X2050819Y1051345D02*
X2140819D01*
X1822166Y698405D02*
Y788405D01*
X1752166Y698405D02*
Y788405D01*
X1893166Y698405D02*
Y788405D01*
X1823166Y698405D02*
Y788405D01*
X1963536Y698405D02*
Y788405D01*
X1893536Y698405D02*
Y788405D01*
X953625Y946487D02*
Y1036487D01*
X883625Y946487D02*
Y1036487D01*
X832286Y853487D02*
X922286D01*
X832286Y923487D02*
X922286D01*
X1024995Y698405D02*
Y788405D01*
X954995Y698405D02*
Y788405D01*
X1291625Y1125999D02*
Y1215999D01*
X1361625Y1125999D02*
Y1215999D01*
X748969Y1125857D02*
Y1215857D01*
X818969Y1125857D02*
Y1215857D01*
X893969Y1125857D02*
Y1215857D01*
X823969Y1125857D02*
Y1215857D01*
X1289995Y1125999D02*
Y1215999D01*
X1219995Y1125999D02*
Y1215999D01*
X1068995Y1123826D02*
Y1213826D01*
X998995Y1123826D02*
Y1213826D01*
X904426Y1125479D02*
Y1260479D01*
X984426Y1125479D02*
Y1260479D01*
X1368625Y1127652D02*
Y1262652D01*
X1448625Y1127652D02*
Y1262652D01*
X1305050Y698405D02*
Y788405D01*
X1235050Y698405D02*
Y788405D01*
X1322963Y972487D02*
X1412963D01*
X1322963Y902487D02*
X1412963D01*
X1043310Y1239660D02*
X1083310D01*
X1043310Y1279660D02*
X1083310D01*
X1374050Y698405D02*
Y788405D01*
X1304050Y698405D02*
Y788405D01*
X814995Y946487D02*
Y1036487D01*
X884995Y946487D02*
Y1036487D01*
X1322963Y981345D02*
X1412963D01*
X1322963Y1051345D02*
X1412963D01*
X1094310Y698405D02*
Y788405D01*
X1024310Y698405D02*
Y788405D01*
X1165310Y698405D02*
Y788405D01*
X1095310Y698405D02*
Y788405D01*
X1235680Y698405D02*
Y788405D01*
X1165680Y698405D02*
Y788405D01*
X1564000Y613339D02*
Y703339D01*
X1494000Y613339D02*
Y703339D01*
X2200984Y1799213D02*
Y1838583D01*
X2161614D02*
X2200984D01*
X1600984Y1799213D02*
Y1838583D01*
X1640354D01*
X1600984Y1551181D02*
Y1590551D01*
Y1551181D02*
X2200984Y1551181D01*
Y1629921D01*
X1551378Y1799213D02*
Y1838583D01*
X1512008D02*
X1551378D01*
X951378Y1799213D02*
Y1838583D01*
X990748D01*
X951378Y1551181D02*
Y1590551D01*
Y1551181D02*
X1551378Y1551181D01*
Y1629921D01*
X1635186Y613339D02*
Y703339D01*
X1565186Y613339D02*
Y703339D01*
X3736999Y917992D02*
Y1052992D01*
X3816999Y917992D02*
Y1052992D01*
X3645000Y917992D02*
Y1052992D01*
X3725000Y917992D02*
Y1052992D01*
X3459819Y882992D02*
Y1017992D01*
X3539819Y882992D02*
Y1017992D01*
X2698265Y819744D02*
X2788265D01*
X2698265Y749744D02*
X2788265D01*
X2770792Y1023701D02*
X2860792D01*
X2770792Y953701D02*
X2860792D01*
X2770792Y877717D02*
X2860792D01*
X2770792Y947717D02*
X2860792D01*
X2770792Y1027323D02*
X2860792D01*
X2770792Y1097323D02*
X2860792D01*
X3385000Y881339D02*
Y971339D01*
X3455000Y881339D02*
Y971339D01*
X2697942Y1261413D02*
X2796367D01*
X2741249Y1138579D02*
X2796367D01*
Y1224405D02*
Y1261413D01*
Y1138579D02*
Y1175586D01*
X3351339Y1235000D02*
X3441339D01*
X3351339Y1165000D02*
X3441339D01*
X3351339Y1318543D02*
X3441339D01*
X3351339Y1388543D02*
X3441339D01*
X2559414Y1202398D02*
X2649414D01*
X2559414Y1272398D02*
X2649414D01*
X2559414Y1197594D02*
X2649414D01*
X2559414Y1127594D02*
X2649414D01*
X2454102Y865749D02*
Y955749D01*
X2384102Y865749D02*
Y955749D01*
X2339843Y340000D02*
X2429843D01*
X2339843Y410000D02*
X2429843D01*
X2484102Y460182D02*
Y550182D01*
X2414102Y460182D02*
Y550182D01*
X2175764Y340000D02*
X2265764D01*
X2175764Y410000D02*
X2265764D01*
X2175764Y749744D02*
X2265764D01*
X2175764Y819744D02*
X2265764D01*
X2570000Y319339D02*
Y409339D01*
X2640000Y319339D02*
Y409339D01*
X2651999Y319339D02*
Y409339D01*
X2721999Y319339D02*
Y409339D01*
X1322963Y831321D02*
X1412963D01*
X1322963Y901321D02*
X1412963D01*
X584239Y831984D02*
X674239D01*
X584239Y901984D02*
X674239D01*
X2050760Y833712D02*
X2140760D01*
X2050760Y903712D02*
X2140760D01*
X2705000Y1710000D02*
Y1730000D01*
Y1710000D02*
X2725000D01*
X2985000D02*
X3005000D01*
Y1730000D01*
Y1890000D02*
Y1910000D01*
X2985000D02*
X3005000D01*
X2705000D02*
X2755000D01*
X2705000Y1860000D02*
Y1910000D01*
X2755000D02*
X2790000D01*
X2705000Y1825000D02*
Y1860000D01*
X3140000Y1710000D02*
Y1730000D01*
Y1710000D02*
X3160000D01*
X3420000D02*
X3440000D01*
Y1730000D01*
Y1890000D02*
Y1910000D01*
X3420000D02*
X3440000D01*
X3140000D02*
X3190000D01*
X3140000Y1860000D02*
Y1910000D01*
X3190000D02*
X3225000D01*
X3140000Y1825000D02*
Y1860000D01*
X2454414Y1620000D02*
X2474414D01*
X2454414Y1600000D02*
Y1620000D01*
Y1320000D02*
Y1340000D01*
Y1320000D02*
X2474414D01*
X2634414D02*
X2654414D01*
Y1340000D01*
Y1570000D02*
Y1620000D01*
X2604414D02*
X2654414D01*
Y1535000D02*
Y1570000D01*
X2569414Y1620000D02*
X2604414D01*
X3473543Y1795000D02*
X3533543D01*
X3473543Y1855000D02*
X3533543D01*
X2595000Y630000D02*
Y720000D01*
Y630000D02*
X2745000D01*
Y720000D01*
X2595000D02*
X2745000D01*
X2595000Y461063D02*
Y551063D01*
Y461063D02*
X2745000D01*
Y551063D01*
X2595000D02*
X2745000D01*
X112481Y1420000D02*
X202481D01*
Y1570000D01*
X112481D02*
X202481D01*
X112481Y1420000D02*
Y1570000D01*
X2885000Y320030D02*
Y410030D01*
X2735000D02*
X2885000D01*
X2735000Y320030D02*
Y410030D01*
Y320030D02*
X2885000D01*
X2524942Y444397D02*
X2560000Y409339D01*
X2524942Y444397D02*
Y542623D01*
Y680000D01*
X2440000Y780000D02*
X2548564D01*
Y680000D02*
Y780000D01*
X2440000Y680000D02*
X2548564D01*
X2440000D02*
Y780000D01*
X189527Y626371D02*
Y665000D01*
X161270Y693257D02*
X189527Y665000D01*
X118914Y693257D02*
X161270D01*
X24002Y641810D02*
X119556D01*
X24002Y693257D02*
X118914D01*
X24002Y745216D02*
X119556D01*
Y641810D02*
Y745216D01*
X24002Y641810D02*
Y745216D01*
X710000Y490000D02*
Y634900D01*
X635325Y490000D02*
Y635000D01*
X565000Y490000D02*
Y635000D01*
X496325Y490000D02*
Y635000D01*
X420000Y490000D02*
Y635000D01*
X320585Y574110D02*
Y678405D01*
Y574110D02*
X332195Y562500D01*
X355000D01*
Y635000D02*
X775000D01*
Y490000D02*
Y635000D01*
X355000Y490000D02*
X775000D01*
X355000D02*
Y635000D01*
X594009Y1855647D02*
Y1944963D01*
X301772Y1945000D02*
X901772D01*
X301772Y1850000D02*
Y1945000D01*
X901772Y1850000D02*
Y1945000D01*
X951378Y1850000D02*
Y1945000D01*
X1243616Y1855647D02*
Y1944963D01*
X951378Y1945000D02*
X1551378D01*
X1600984Y1850000D02*
X2200984D01*
X1600984Y1945000D02*
X2200984D01*
X1893222Y1855647D02*
Y1944963D01*
X2200984Y1850000D02*
Y1945000D01*
X1600984Y1850000D02*
Y1945000D01*
X1551378Y1850000D02*
Y1945000D01*
X951378Y1850000D02*
X1551378D01*
X301772D02*
X901772D01*
X2604414Y1272398D02*
Y1290000D01*
X2614414Y1300000D01*
X2735000D01*
X2750684Y1315684D01*
Y1335000D01*
X2705000Y1440000D02*
X2796367D01*
Y1335000D02*
Y1440000D01*
X2705000Y1335000D02*
X2796367D01*
X2705000D02*
Y1440000D01*
X2160819Y937487D02*
X2267487D01*
X2278756Y948756D01*
Y972487D01*
X2200000Y1130000D02*
X2355000D01*
Y972487D02*
Y1130000D01*
X2200000Y972487D02*
X2355000D01*
X2200000D02*
Y1130000D01*
X1431708Y902487D02*
X1474000D01*
X1496250Y880237D01*
Y836321D02*
Y880237D01*
X1431708Y725000D02*
Y836321D01*
X1560792D01*
Y725000D02*
Y836321D01*
X1431708Y725000D02*
X1560792D01*
X1231570Y641569D02*
Y680000D01*
X1215000Y625000D02*
X1231570Y641569D01*
X1185000Y625000D02*
X1215000D01*
X1125000Y515000D02*
Y655000D01*
X1068995Y516795D02*
Y655000D01*
X1010000Y516967D02*
Y655000D01*
X953625Y515000D02*
Y655000D01*
X884995Y516370D02*
Y655000D01*
X835000D02*
X1185000D01*
Y515000D02*
Y655000D01*
X835000Y515000D02*
X1185000D01*
X835000D02*
Y655000D01*
X694239Y937487D02*
X727513D01*
X746604Y918396D01*
Y890380D02*
Y918396D01*
Y820000D02*
Y905380D01*
X675000Y705000D02*
X818969D01*
X675000Y765000D02*
X818969D01*
X674239Y820000D02*
X818969D01*
Y650000D02*
Y820000D01*
X674239Y650000D02*
X818969D01*
X674239D02*
Y820000D01*
X37001Y702201D02*
X45332D01*
X41166D01*
Y727193D01*
X37001Y723027D01*
X74489Y702201D02*
X57828D01*
X74489Y718862D01*
Y723027D01*
X70324Y727193D01*
X61993D01*
X57828Y723027D01*
X82820Y727193D02*
Y710531D01*
X91150Y702201D01*
X99481Y710531D01*
Y727193D01*
X53662Y678637D02*
X49497Y682802D01*
X41166D01*
X37001Y678637D01*
Y661976D01*
X41166Y657810D01*
X49497D01*
X53662Y661976D01*
Y670306D01*
X45332D01*
X61993Y657810D02*
Y682802D01*
X78654Y657810D01*
Y682802D01*
X86985D02*
Y657810D01*
X99481D01*
X103646Y661976D01*
Y678637D01*
X99481Y682802D01*
X86985D01*
X2420835Y1281669D02*
Y1298331D01*
X2416669Y1302496D01*
X2408339D01*
X2404173Y1298331D01*
Y1281669D01*
X2408339Y1277504D01*
X2416669D01*
X2412504Y1285835D02*
X2420835Y1277504D01*
X2416669D02*
X2420835Y1281669D01*
X2445827Y1277504D02*
X2429165D01*
X2445827Y1294165D01*
Y1298331D01*
X2441661Y1302496D01*
X2433331D01*
X2429165Y1298331D01*
X2361276Y800901D02*
Y780075D01*
X2365442Y775909D01*
X2373772D01*
X2377938Y780075D01*
Y800901D01*
X2398764Y775909D02*
Y800901D01*
X2386268Y788405D01*
X2402930D01*
X3290000Y1128331D02*
X3285835Y1132496D01*
X3277504D01*
X3273339Y1128331D01*
Y1124165D01*
X3277504Y1120000D01*
X3285835D01*
X3290000Y1115835D01*
Y1111669D01*
X3285835Y1107504D01*
X3277504D01*
X3273339Y1111669D01*
X3298331Y1107504D02*
X3306661D01*
X3302496D01*
Y1132496D01*
X3298331Y1128331D01*
X2890087Y734173D02*
X2910914D01*
X2915079Y738339D01*
Y746669D01*
X2910914Y750835D01*
X2890087D01*
X2915079Y775827D02*
Y759165D01*
X2898418Y775827D01*
X2894253D01*
X2890087Y771661D01*
Y763331D01*
X2894253Y759165D01*
X2494173Y1117496D02*
Y1096669D01*
X2498339Y1092504D01*
X2506669D01*
X2510835Y1096669D01*
Y1117496D01*
X2519165Y1113331D02*
X2523331Y1117496D01*
X2531661D01*
X2535827Y1113331D01*
Y1109165D01*
X2531661Y1105000D01*
X2527496D01*
X2531661D01*
X2535827Y1100835D01*
Y1096669D01*
X2531661Y1092504D01*
X2523331D01*
X2519165Y1096669D01*
X830008Y55413D02*
X825843Y59579D01*
X817512D01*
X813347Y55413D01*
Y51248D01*
X817512Y47083D01*
X825843D01*
X830008Y42917D01*
Y38752D01*
X825843Y34587D01*
X817512D01*
X813347Y38752D01*
X855000Y34587D02*
X838339D01*
X855000Y51248D01*
Y55413D01*
X850835Y59579D01*
X842504D01*
X838339Y55413D01*
X863331Y30421D02*
X879992D01*
X888323Y34587D02*
X896653D01*
X892488D01*
Y59579D01*
X888323Y55413D01*
X707504Y1351678D02*
Y1368339D01*
Y1360008D01*
X732496D01*
Y1376669D02*
X707504D01*
Y1389165D01*
X711669Y1393331D01*
X720000D01*
X724165Y1389165D01*
Y1376669D01*
X707504Y1418323D02*
Y1401661D01*
X720000D01*
X715835Y1409992D01*
Y1414157D01*
X720000Y1418323D01*
X728331D01*
X732496Y1414157D01*
Y1405827D01*
X728331Y1401661D01*
X1105429Y1159579D02*
Y1138752D01*
X1109595Y1134587D01*
X1117926D01*
X1122091Y1138752D01*
Y1159579D01*
X1130421Y1134587D02*
X1138752D01*
X1134587D01*
Y1159579D01*
X1130421Y1155413D01*
X1151248Y1130421D02*
X1167909D01*
X1176240Y1134587D02*
X1184571D01*
X1180405D01*
Y1159579D01*
X1176240Y1155413D01*
X3581669Y1067661D02*
X3577504Y1063496D01*
Y1055165D01*
X3581669Y1051000D01*
X3598331D01*
X3602496Y1055165D01*
Y1063496D01*
X3598331Y1067661D01*
X3602496Y1075992D02*
Y1084323D01*
Y1080157D01*
X3577504D01*
X3581669Y1075992D01*
X3602496Y1109315D02*
X3577504D01*
X3590000Y1096819D01*
Y1113480D01*
X3568001Y1902504D02*
Y1927496D01*
X3580497D01*
X3584662Y1923331D01*
Y1915000D01*
X3580497Y1910835D01*
X3568001D01*
X3576331D02*
X3584662Y1902504D01*
X3592992D02*
X3601323D01*
X3597158D01*
Y1927496D01*
X3592992Y1923331D01*
X3613819D02*
X3617984Y1927496D01*
X3626315D01*
X3630480Y1923331D01*
Y1919166D01*
X3626315Y1915000D01*
X3630480Y1910835D01*
Y1906670D01*
X3626315Y1902504D01*
X3617984D01*
X3613819Y1906670D01*
Y1910835D01*
X3617984Y1915000D01*
X3613819Y1919166D01*
Y1923331D01*
X3617984Y1915000D02*
X3626315D01*
X3476677Y1627504D02*
Y1652496D01*
X3489173D01*
X3493339Y1648331D01*
Y1640000D01*
X3489173Y1635835D01*
X3476677D01*
X3485008D02*
X3493339Y1627504D01*
X3518331D02*
X3501669D01*
X3518331Y1644165D01*
Y1648331D01*
X3514165Y1652496D01*
X3505835D01*
X3501669Y1648331D01*
X3526661D02*
X3530827Y1652496D01*
X3539157D01*
X3543323Y1648331D01*
Y1631669D01*
X3539157Y1627504D01*
X3530827D01*
X3526661Y1631669D01*
Y1648331D01*
X1128027Y1243200D02*
Y1268192D01*
X1140523D01*
X1144688Y1264027D01*
Y1255696D01*
X1140523Y1251531D01*
X1128027D01*
X1136357D02*
X1144688Y1243200D01*
X1169680Y1268192D02*
X1153019D01*
Y1255696D01*
X1161349Y1259861D01*
X1165515D01*
X1169680Y1255696D01*
Y1247366D01*
X1165515Y1243200D01*
X1157184D01*
X1153019Y1247366D01*
X1178011Y1239035D02*
X1194672D01*
X1203002Y1243200D02*
X1211333D01*
X1207168D01*
Y1268192D01*
X1203002Y1264027D01*
X244587Y962926D02*
X240421Y958760D01*
Y950429D01*
X244587Y946264D01*
X261248D01*
X265413Y950429D01*
Y958760D01*
X261248Y962926D01*
X265413Y971256D02*
Y979587D01*
Y975421D01*
X240421D01*
X244587Y971256D01*
X269579Y992083D02*
Y1008744D01*
X265413Y1033736D02*
Y1017075D01*
X248752Y1033736D01*
X244587D01*
X240421Y1029571D01*
Y1021240D01*
X244587Y1017075D01*
X105843Y820413D02*
X101677Y824579D01*
X93347D01*
X89181Y820413D01*
Y803752D01*
X93347Y799587D01*
X101677D01*
X105843Y803752D01*
X130835Y799587D02*
X114173D01*
X130835Y816248D01*
Y820413D01*
X126669Y824579D01*
X118339D01*
X114173Y820413D01*
X139165Y795421D02*
X155827D01*
X180819Y799587D02*
X164157D01*
X180819Y816248D01*
Y820413D01*
X176653Y824579D01*
X168322D01*
X164157Y820413D01*
X376780Y522493D02*
X372615Y518328D01*
Y509997D01*
X376780Y505832D01*
X393441D01*
X397606Y509997D01*
Y518328D01*
X393441Y522493D01*
X376780Y530824D02*
X372615Y534989D01*
Y543320D01*
X376780Y547485D01*
X380945D01*
X385110Y543320D01*
Y539154D01*
Y543320D01*
X389276Y547485D01*
X393441D01*
X397606Y543320D01*
Y534989D01*
X393441Y530824D01*
X401772Y555816D02*
Y572477D01*
X397606Y597469D02*
Y580808D01*
X380945Y597469D01*
X376780D01*
X372615Y593304D01*
Y584973D01*
X376780Y580808D01*
X584587Y1297661D02*
X580421Y1293496D01*
Y1285165D01*
X584587Y1281000D01*
X601248D01*
X605413Y1285165D01*
Y1293496D01*
X601248Y1297661D01*
X605413Y1318488D02*
X580421D01*
X592917Y1305992D01*
Y1322653D01*
X609578Y1330984D02*
Y1347645D01*
X605413Y1372637D02*
Y1355976D01*
X588752Y1372637D01*
X584587D01*
X580421Y1368472D01*
Y1360141D01*
X584587Y1355976D01*
X39587Y1267661D02*
X35421Y1263496D01*
Y1255165D01*
X39587Y1251000D01*
X56248D01*
X60413Y1255165D01*
Y1263496D01*
X56248Y1267661D01*
X35421Y1292653D02*
Y1275992D01*
X47917D01*
X43752Y1284323D01*
Y1288488D01*
X47917Y1292653D01*
X56248D01*
X60413Y1288488D01*
Y1280157D01*
X56248Y1275992D01*
X64579Y1300984D02*
Y1317645D01*
X60413Y1342637D02*
Y1325976D01*
X43752Y1342637D01*
X39587D01*
X35421Y1338472D01*
Y1330141D01*
X39587Y1325976D01*
X119587Y1267661D02*
X115421Y1263496D01*
Y1255165D01*
X119587Y1251000D01*
X136248D01*
X140413Y1255165D01*
Y1263496D01*
X136248Y1267661D01*
X115421Y1292653D02*
X119587Y1284323D01*
X127917Y1275992D01*
X136248D01*
X140413Y1280157D01*
Y1288488D01*
X136248Y1292653D01*
X132083D01*
X127917Y1288488D01*
Y1275992D01*
X144578Y1300984D02*
Y1317645D01*
X140413Y1342637D02*
Y1325976D01*
X123752Y1342637D01*
X119587D01*
X115421Y1338472D01*
Y1330141D01*
X119587Y1325976D01*
X505857Y1342661D02*
X501691Y1338496D01*
Y1330165D01*
X505857Y1326000D01*
X522518D01*
X526683Y1330165D01*
Y1338496D01*
X522518Y1342661D01*
X501691Y1350992D02*
Y1367653D01*
X505857D01*
X522518Y1350992D01*
X526683D01*
X530848Y1375984D02*
Y1392645D01*
X526683Y1417637D02*
Y1400976D01*
X510022Y1417637D01*
X505857D01*
X501691Y1413472D01*
Y1405141D01*
X505857Y1400976D01*
X279587Y1362661D02*
X275421Y1358496D01*
Y1350165D01*
X279587Y1346000D01*
X296248D01*
X300413Y1350165D01*
Y1358496D01*
X296248Y1362661D01*
X279587Y1370992D02*
X275421Y1375157D01*
Y1383488D01*
X279587Y1387653D01*
X283752D01*
X287917Y1383488D01*
X292083Y1387653D01*
X296248D01*
X300413Y1383488D01*
Y1375157D01*
X296248Y1370992D01*
X292083D01*
X287917Y1375157D01*
X283752Y1370992D01*
X279587D01*
X287917Y1375157D02*
Y1383488D01*
X304579Y1395984D02*
Y1412645D01*
X300413Y1437637D02*
Y1420976D01*
X283752Y1437637D01*
X279587D01*
X275421Y1433472D01*
Y1425141D01*
X279587Y1420976D01*
X199587Y1322661D02*
X195421Y1318496D01*
Y1310165D01*
X199587Y1306000D01*
X216248D01*
X220413Y1310165D01*
Y1318496D01*
X216248Y1322661D01*
Y1330992D02*
X220413Y1335157D01*
Y1343488D01*
X216248Y1347653D01*
X199587D01*
X195421Y1343488D01*
Y1335157D01*
X199587Y1330992D01*
X203752D01*
X207917Y1335157D01*
Y1347653D01*
X224578Y1355984D02*
Y1372645D01*
X220413Y1397637D02*
Y1380976D01*
X203752Y1397637D01*
X199587D01*
X195421Y1393472D01*
Y1385141D01*
X199587Y1380976D01*
X659587Y1317661D02*
X655421Y1313496D01*
Y1305165D01*
X659587Y1301000D01*
X676248D01*
X680413Y1305165D01*
Y1313496D01*
X676248Y1317661D01*
X680413Y1325992D02*
Y1334323D01*
Y1330157D01*
X655421D01*
X659587Y1325992D01*
Y1346819D02*
X655421Y1350984D01*
Y1359315D01*
X659587Y1363480D01*
X676248D01*
X680413Y1359315D01*
Y1350984D01*
X676248Y1346819D01*
X659587D01*
X684578Y1371811D02*
Y1388472D01*
X680413Y1413464D02*
Y1396802D01*
X663752Y1413464D01*
X659587D01*
X655421Y1409298D01*
Y1400968D01*
X659587Y1396802D01*
X682606Y505832D02*
X657615D01*
Y518328D01*
X661780Y522493D01*
X670111D01*
X674276Y518328D01*
Y505832D01*
Y514163D02*
X682606Y522493D01*
Y530824D02*
Y539154D01*
Y534989D01*
X657615D01*
X661780Y530824D01*
X686772Y551650D02*
Y568312D01*
X682606Y593304D02*
Y576642D01*
X665945Y593304D01*
X661780D01*
X657615Y589138D01*
Y580808D01*
X661780Y576642D01*
X691000Y724587D02*
Y749579D01*
X703496D01*
X707661Y745413D01*
Y737083D01*
X703496Y732917D01*
X691000D01*
X699331D02*
X707661Y724587D01*
X732653D02*
X715992D01*
X732653Y741248D01*
Y745413D01*
X728488Y749579D01*
X720157D01*
X715992Y745413D01*
X740984Y720421D02*
X757645D01*
X782637Y724587D02*
X765976D01*
X782637Y741248D01*
Y745413D01*
X778472Y749579D01*
X770141D01*
X765976Y745413D01*
X284452Y1294587D02*
Y1319579D01*
X296947D01*
X301113Y1315413D01*
Y1307083D01*
X296947Y1302917D01*
X284452D01*
X292782D02*
X301113Y1294587D01*
X309443Y1315413D02*
X313609Y1319579D01*
X321939D01*
X326105Y1315413D01*
Y1311248D01*
X321939Y1307083D01*
X317774D01*
X321939D01*
X326105Y1302917D01*
Y1298752D01*
X321939Y1294587D01*
X313609D01*
X309443Y1298752D01*
X334435Y1290421D02*
X351097D01*
X376089Y1294587D02*
X359427D01*
X376089Y1311248D01*
Y1315413D01*
X371923Y1319579D01*
X363592D01*
X359427Y1315413D01*
X757606Y505832D02*
X732615D01*
Y518328D01*
X736780Y522493D01*
X745110D01*
X749276Y518328D01*
Y505832D01*
Y514163D02*
X757606Y522493D01*
Y543320D02*
X732615D01*
X745110Y530824D01*
Y547485D01*
X761772Y555816D02*
Y572477D01*
X757606Y597469D02*
Y580808D01*
X740945Y597469D01*
X736780D01*
X732615Y593304D01*
Y584973D01*
X736780Y580808D01*
X404822Y1288587D02*
Y1313579D01*
X417318D01*
X421483Y1309413D01*
Y1301083D01*
X417318Y1296917D01*
X404822D01*
X413152D02*
X421483Y1288587D01*
X446475Y1313579D02*
X429813D01*
Y1301083D01*
X438144Y1305248D01*
X442310D01*
X446475Y1301083D01*
Y1292752D01*
X442310Y1288587D01*
X433979D01*
X429813Y1292752D01*
X454805Y1284421D02*
X471467D01*
X496459Y1288587D02*
X479797D01*
X496459Y1305248D01*
Y1309413D01*
X492293Y1313579D01*
X483963D01*
X479797Y1309413D01*
X45413Y939182D02*
X20421D01*
Y951678D01*
X24587Y955843D01*
X32917D01*
X37083Y951678D01*
Y939182D01*
Y947512D02*
X45413Y955843D01*
X20421Y980835D02*
X24587Y972504D01*
X32917Y964173D01*
X41248D01*
X45413Y968339D01*
Y976669D01*
X41248Y980835D01*
X37083D01*
X32917Y976669D01*
Y964173D01*
X49579Y989165D02*
Y1005827D01*
X45413Y1030819D02*
Y1014157D01*
X28752Y1030819D01*
X24587D01*
X20421Y1026653D01*
Y1018322D01*
X24587Y1014157D01*
X690239Y782992D02*
Y807984D01*
X702735D01*
X706900Y803818D01*
Y795488D01*
X702735Y791322D01*
X690239D01*
X698569D02*
X706900Y782992D01*
X715230Y807984D02*
X731892D01*
Y803818D01*
X715230Y787157D01*
Y782992D01*
X740222Y778827D02*
X756884D01*
X781875Y782992D02*
X765214D01*
X781875Y799653D01*
Y803818D01*
X777710Y807984D01*
X769380D01*
X765214Y803818D01*
X472606Y505832D02*
X447615D01*
Y518328D01*
X451780Y522493D01*
X460110D01*
X464276Y518328D01*
Y505832D01*
Y514163D02*
X472606Y522493D01*
Y530824D02*
Y539154D01*
Y534989D01*
X447615D01*
X451780Y530824D01*
X472606Y564146D02*
X447615D01*
X460110Y551650D01*
Y568312D01*
X476772Y576642D02*
Y593304D01*
X472606Y618296D02*
Y601634D01*
X455945Y618296D01*
X451780D01*
X447615Y614130D01*
Y605800D01*
X451780Y601634D01*
X542606Y505832D02*
X517615D01*
Y518328D01*
X521780Y522493D01*
X530110D01*
X534276Y518328D01*
Y505832D01*
Y514163D02*
X542606Y522493D01*
Y530824D02*
Y539154D01*
Y534989D01*
X517615D01*
X521780Y530824D01*
X517615Y568312D02*
Y551650D01*
X530110D01*
X525945Y559981D01*
Y564146D01*
X530110Y568312D01*
X538441D01*
X542606Y564146D01*
Y555816D01*
X538441Y551650D01*
X546772Y576642D02*
Y593304D01*
X542606Y618296D02*
Y601634D01*
X525945Y618296D01*
X521780D01*
X517615Y614130D01*
Y605800D01*
X521780Y601634D01*
X612606Y505832D02*
X587615D01*
Y518328D01*
X591780Y522493D01*
X600110D01*
X604276Y518328D01*
Y505832D01*
Y514163D02*
X612606Y522493D01*
Y530824D02*
Y539154D01*
Y534989D01*
X587615D01*
X591780Y530824D01*
X587615Y568312D02*
X591780Y559981D01*
X600110Y551650D01*
X608441D01*
X612606Y555816D01*
Y564146D01*
X608441Y568312D01*
X604276D01*
X600110Y564146D01*
Y551650D01*
X616772Y576642D02*
Y593304D01*
X612606Y618296D02*
Y601634D01*
X595945Y618296D01*
X591780D01*
X587615Y614130D01*
Y605800D01*
X591780Y601634D01*
X350843Y60413D02*
X346678Y64579D01*
X338347D01*
X334182Y60413D01*
Y56248D01*
X338347Y52083D01*
X346678D01*
X350843Y47917D01*
Y43752D01*
X346678Y39587D01*
X338347D01*
X334182Y43752D01*
X375835Y39587D02*
X359173D01*
X375835Y56248D01*
Y60413D01*
X371669Y64579D01*
X363339D01*
X359173Y60413D01*
X384165Y35421D02*
X400827D01*
X425818Y39587D02*
X409157D01*
X425818Y56248D01*
Y60413D01*
X421653Y64579D01*
X413322D01*
X409157Y60413D01*
X361264Y1169579D02*
Y1148752D01*
X365430Y1144587D01*
X373760D01*
X377925Y1148752D01*
Y1169579D01*
X386256Y1144587D02*
X394587D01*
X390421D01*
Y1169579D01*
X386256Y1165413D01*
X407083Y1140421D02*
X423744D01*
X448736Y1144587D02*
X432075D01*
X448736Y1161248D01*
Y1165413D01*
X444571Y1169579D01*
X436240D01*
X432075Y1165413D01*
X1705438Y966586D02*
X1701272Y962420D01*
Y954090D01*
X1705438Y949924D01*
X1722099D01*
X1726264Y954090D01*
Y962420D01*
X1722099Y966586D01*
X1726264Y974916D02*
Y983247D01*
Y979082D01*
X1701272D01*
X1705438Y974916D01*
X1730429Y995743D02*
Y1012404D01*
X1705438Y1020735D02*
X1701272Y1024900D01*
Y1033231D01*
X1705438Y1037396D01*
X1709603D01*
X1713768Y1033231D01*
Y1029065D01*
Y1033231D01*
X1717934Y1037396D01*
X1722099D01*
X1726264Y1033231D01*
Y1024900D01*
X1722099Y1020735D01*
X1600300Y820413D02*
X1596134Y824579D01*
X1587803D01*
X1583638Y820413D01*
Y803752D01*
X1587803Y799587D01*
X1596134D01*
X1600300Y803752D01*
X1625291Y799587D02*
X1608630D01*
X1625291Y816248D01*
Y820413D01*
X1621126Y824579D01*
X1612795D01*
X1608630Y820413D01*
X1633622Y795421D02*
X1650283D01*
X1658614Y820413D02*
X1662779Y824579D01*
X1671110D01*
X1675275Y820413D01*
Y816248D01*
X1671110Y812083D01*
X1666945D01*
X1671110D01*
X1675275Y807917D01*
Y803752D01*
X1671110Y799587D01*
X1662779D01*
X1658614Y803752D01*
X1704587Y572661D02*
X1700421Y568496D01*
Y560165D01*
X1704587Y556000D01*
X1721248D01*
X1725413Y560165D01*
Y568496D01*
X1721248Y572661D01*
X1704587Y580992D02*
X1700421Y585157D01*
Y593488D01*
X1704587Y597653D01*
X1708752D01*
X1712917Y593488D01*
Y589323D01*
Y593488D01*
X1717083Y597653D01*
X1721248D01*
X1725413Y593488D01*
Y585157D01*
X1721248Y580992D01*
X1729579Y605984D02*
Y622645D01*
X1704587Y630976D02*
X1700421Y635141D01*
Y643472D01*
X1704587Y647637D01*
X1708752D01*
X1712917Y643472D01*
Y639306D01*
Y643472D01*
X1717083Y647637D01*
X1721248D01*
X1725413Y643472D01*
Y635141D01*
X1721248Y630976D01*
X2040406Y1302322D02*
X2036241Y1298156D01*
Y1289826D01*
X2040406Y1285660D01*
X2057067D01*
X2061233Y1289826D01*
Y1298156D01*
X2057067Y1302322D01*
X2061233Y1323148D02*
X2036241D01*
X2048737Y1310652D01*
Y1327313D01*
X2065398Y1335644D02*
Y1352305D01*
X2040406Y1360636D02*
X2036241Y1364801D01*
Y1373132D01*
X2040406Y1377297D01*
X2044571D01*
X2048737Y1373132D01*
Y1368967D01*
Y1373132D01*
X2052902Y1377297D01*
X2057067D01*
X2061233Y1373132D01*
Y1364801D01*
X2057067Y1360636D01*
X1499587Y1267661D02*
X1495421Y1263496D01*
Y1255165D01*
X1499587Y1251000D01*
X1516248D01*
X1520413Y1255165D01*
Y1263496D01*
X1516248Y1267661D01*
X1495421Y1292653D02*
Y1275992D01*
X1507917D01*
X1503752Y1284323D01*
Y1288488D01*
X1507917Y1292653D01*
X1516248D01*
X1520413Y1288488D01*
Y1280157D01*
X1516248Y1275992D01*
X1524579Y1300984D02*
Y1317645D01*
X1499587Y1325976D02*
X1495421Y1330141D01*
Y1338472D01*
X1499587Y1342637D01*
X1503752D01*
X1507917Y1338472D01*
Y1334306D01*
Y1338472D01*
X1512083Y1342637D01*
X1516248D01*
X1520413Y1338472D01*
Y1330141D01*
X1516248Y1325976D01*
X1574587Y1267661D02*
X1570421Y1263496D01*
Y1255165D01*
X1574587Y1251000D01*
X1591248D01*
X1595413Y1255165D01*
Y1263496D01*
X1591248Y1267661D01*
X1570421Y1292653D02*
X1574587Y1284323D01*
X1582917Y1275992D01*
X1591248D01*
X1595413Y1280157D01*
Y1288488D01*
X1591248Y1292653D01*
X1587083D01*
X1582917Y1288488D01*
Y1275992D01*
X1599579Y1300984D02*
Y1317645D01*
X1574587Y1325976D02*
X1570421Y1330141D01*
Y1338472D01*
X1574587Y1342637D01*
X1578752D01*
X1582917Y1338472D01*
Y1334306D01*
Y1338472D01*
X1587083Y1342637D01*
X1591248D01*
X1595413Y1338472D01*
Y1330141D01*
X1591248Y1325976D01*
X1974587Y1332661D02*
X1970421Y1328496D01*
Y1320165D01*
X1974587Y1316000D01*
X1991248D01*
X1995413Y1320165D01*
Y1328496D01*
X1991248Y1332661D01*
X1970421Y1340992D02*
Y1357653D01*
X1974587D01*
X1991248Y1340992D01*
X1995413D01*
X1999579Y1365984D02*
Y1382645D01*
X1974587Y1390976D02*
X1970421Y1395141D01*
Y1403472D01*
X1974587Y1407637D01*
X1978752D01*
X1982917Y1403472D01*
Y1399306D01*
Y1403472D01*
X1987083Y1407637D01*
X1991248D01*
X1995413Y1403472D01*
Y1395141D01*
X1991248Y1390976D01*
X1744012Y1322661D02*
X1739847Y1318496D01*
Y1310165D01*
X1744012Y1306000D01*
X1760674D01*
X1764839Y1310165D01*
Y1318496D01*
X1760674Y1322661D01*
X1744012Y1330992D02*
X1739847Y1335157D01*
Y1343488D01*
X1744012Y1347653D01*
X1748178D01*
X1752343Y1343488D01*
X1756508Y1347653D01*
X1760674D01*
X1764839Y1343488D01*
Y1335157D01*
X1760674Y1330992D01*
X1756508D01*
X1752343Y1335157D01*
X1748178Y1330992D01*
X1744012D01*
X1752343Y1335157D02*
Y1343488D01*
X1769004Y1355984D02*
Y1372645D01*
X1744012Y1380976D02*
X1739847Y1385141D01*
Y1393472D01*
X1744012Y1397637D01*
X1748178D01*
X1752343Y1393472D01*
Y1389306D01*
Y1393472D01*
X1756508Y1397637D01*
X1760674D01*
X1764839Y1393472D01*
Y1385141D01*
X1760674Y1380976D01*
X1659587Y1317661D02*
X1655421Y1313496D01*
Y1305165D01*
X1659587Y1301000D01*
X1676248D01*
X1680413Y1305165D01*
Y1313496D01*
X1676248Y1317661D01*
Y1325992D02*
X1680413Y1330157D01*
Y1338488D01*
X1676248Y1342653D01*
X1659587D01*
X1655421Y1338488D01*
Y1330157D01*
X1659587Y1325992D01*
X1663752D01*
X1667917Y1330157D01*
Y1342653D01*
X1684579Y1350984D02*
Y1367645D01*
X1659587Y1375976D02*
X1655421Y1380141D01*
Y1388472D01*
X1659587Y1392637D01*
X1663752D01*
X1667917Y1388472D01*
Y1384306D01*
Y1388472D01*
X1672083Y1392637D01*
X1676248D01*
X1680413Y1388472D01*
Y1380141D01*
X1676248Y1375976D01*
X2130347Y1322661D02*
X2126182Y1318496D01*
Y1310165D01*
X2130347Y1306000D01*
X2147008D01*
X2151174Y1310165D01*
Y1318496D01*
X2147008Y1322661D01*
X2151174Y1330992D02*
Y1339323D01*
Y1335157D01*
X2126182D01*
X2130347Y1330992D01*
Y1351819D02*
X2126182Y1355984D01*
Y1364315D01*
X2130347Y1368480D01*
X2147008D01*
X2151174Y1364315D01*
Y1355984D01*
X2147008Y1351819D01*
X2130347D01*
X2155339Y1376811D02*
Y1393472D01*
X2130347Y1401802D02*
X2126182Y1405968D01*
Y1414298D01*
X2130347Y1418464D01*
X2134512D01*
X2138678Y1414298D01*
Y1410133D01*
Y1414298D01*
X2142843Y1418464D01*
X2147008D01*
X2151174Y1414298D01*
Y1405968D01*
X2147008Y1401802D01*
X2012913Y556000D02*
X1987921D01*
Y568496D01*
X1992087Y572661D01*
X2000417D01*
X2004583Y568496D01*
Y556000D01*
Y564331D02*
X2012913Y572661D01*
Y580992D02*
Y589322D01*
Y585157D01*
X1987921D01*
X1992087Y580992D01*
X2017079Y601818D02*
Y618480D01*
X1992087Y626810D02*
X1987921Y630976D01*
Y639306D01*
X1992087Y643472D01*
X1996252D01*
X2000417Y639306D01*
Y635141D01*
Y639306D01*
X2004583Y643472D01*
X2008748D01*
X2012913Y639306D01*
Y630976D01*
X2008748Y626810D01*
X2216686Y1045932D02*
Y1070924D01*
X2229182D01*
X2233347Y1066759D01*
Y1058428D01*
X2229182Y1054263D01*
X2216686D01*
X2225017D02*
X2233347Y1045932D01*
X2258339D02*
X2241678D01*
X2258339Y1062593D01*
Y1066759D01*
X2254174Y1070924D01*
X2245843D01*
X2241678Y1066759D01*
X2266670Y1041767D02*
X2283331D01*
X2291662Y1066759D02*
X2295827Y1070924D01*
X2304158D01*
X2308323Y1066759D01*
Y1062593D01*
X2304158Y1058428D01*
X2299992D01*
X2304158D01*
X2308323Y1054263D01*
Y1050097D01*
X2304158Y1045932D01*
X2295827D01*
X2291662Y1050097D01*
X1804181Y1299587D02*
Y1324579D01*
X1816678D01*
X1820843Y1320413D01*
Y1312083D01*
X1816678Y1307917D01*
X1804181D01*
X1812512D02*
X1820843Y1299587D01*
X1829173Y1320413D02*
X1833339Y1324579D01*
X1841669D01*
X1845835Y1320413D01*
Y1316248D01*
X1841669Y1312083D01*
X1837504D01*
X1841669D01*
X1845835Y1307917D01*
Y1303752D01*
X1841669Y1299587D01*
X1833339D01*
X1829173Y1303752D01*
X1854165Y1295421D02*
X1870827D01*
X1879157Y1320413D02*
X1883322Y1324579D01*
X1891653D01*
X1895819Y1320413D01*
Y1316248D01*
X1891653Y1312083D01*
X1887488D01*
X1891653D01*
X1895819Y1307917D01*
Y1303752D01*
X1891653Y1299587D01*
X1883322D01*
X1879157Y1303752D01*
X2075413Y556000D02*
X2050421D01*
Y568496D01*
X2054587Y572661D01*
X2062917D01*
X2067083Y568496D01*
Y556000D01*
Y564331D02*
X2075413Y572661D01*
Y593488D02*
X2050421D01*
X2062917Y580992D01*
Y597653D01*
X2079579Y605984D02*
Y622645D01*
X2054587Y630976D02*
X2050421Y635141D01*
Y643472D01*
X2054587Y647637D01*
X2058752D01*
X2062917Y643472D01*
Y639306D01*
Y643472D01*
X2067083Y647637D01*
X2071248D01*
X2075413Y643472D01*
Y635141D01*
X2071248Y630976D01*
X1847347Y1239587D02*
Y1264579D01*
X1859843D01*
X1864009Y1260413D01*
Y1252083D01*
X1859843Y1247917D01*
X1847347D01*
X1855678D02*
X1864009Y1239587D01*
X1889001Y1264579D02*
X1872339D01*
Y1252083D01*
X1880670Y1256248D01*
X1884835D01*
X1889001Y1252083D01*
Y1243752D01*
X1884835Y1239587D01*
X1876505D01*
X1872339Y1243752D01*
X1897331Y1235421D02*
X1913993D01*
X1922323Y1260413D02*
X1926488Y1264579D01*
X1934819D01*
X1938984Y1260413D01*
Y1256248D01*
X1934819Y1252083D01*
X1930654D01*
X1934819D01*
X1938984Y1247917D01*
Y1243752D01*
X1934819Y1239587D01*
X1926488D01*
X1922323Y1243752D01*
X1517264Y942842D02*
X1492272D01*
Y955338D01*
X1496437Y959503D01*
X1504768D01*
X1508933Y955338D01*
Y942842D01*
Y951172D02*
X1517264Y959503D01*
X1492272Y984495D02*
X1496437Y976164D01*
X1504768Y967834D01*
X1513099D01*
X1517264Y971999D01*
Y980330D01*
X1513099Y984495D01*
X1508933D01*
X1504768Y980330D01*
Y967834D01*
X1521429Y992826D02*
Y1009487D01*
X1496437Y1017817D02*
X1492272Y1021983D01*
Y1030313D01*
X1496437Y1034479D01*
X1500603D01*
X1504768Y1030313D01*
Y1026148D01*
Y1030313D01*
X1508933Y1034479D01*
X1513099D01*
X1517264Y1030313D01*
Y1021983D01*
X1513099Y1017817D01*
X2216686Y1091130D02*
Y1116121D01*
X2229182D01*
X2233347Y1111956D01*
Y1103626D01*
X2229182Y1099460D01*
X2216686D01*
X2225017D02*
X2233347Y1091130D01*
X2241678Y1116121D02*
X2258339D01*
Y1111956D01*
X2241678Y1095295D01*
Y1091130D01*
X2266670Y1086964D02*
X2283331D01*
X2291662Y1111956D02*
X2295827Y1116121D01*
X2304158D01*
X2308323Y1111956D01*
Y1107791D01*
X2304158Y1103626D01*
X2299992D01*
X2304158D01*
X2308323Y1099460D01*
Y1095295D01*
X2304158Y1091130D01*
X2295827D01*
X2291662Y1095295D01*
X1797579Y556000D02*
X1772587D01*
Y568496D01*
X1776752Y572661D01*
X1785083D01*
X1789248Y568496D01*
Y556000D01*
Y564331D02*
X1797579Y572661D01*
Y580992D02*
Y589322D01*
Y585157D01*
X1772587D01*
X1776752Y580992D01*
X1797579Y614314D02*
X1772587D01*
X1785083Y601818D01*
Y618480D01*
X1801744Y626810D02*
Y643472D01*
X1776752Y651802D02*
X1772587Y655968D01*
Y664298D01*
X1776752Y668464D01*
X1780918D01*
X1785083Y664298D01*
Y660133D01*
Y664298D01*
X1789248Y668464D01*
X1793414D01*
X1797579Y664298D01*
Y655968D01*
X1793414Y651802D01*
X1870413Y556000D02*
X1845421D01*
Y568496D01*
X1849587Y572661D01*
X1857917D01*
X1862083Y568496D01*
Y556000D01*
Y564331D02*
X1870413Y572661D01*
Y580992D02*
Y589323D01*
Y585157D01*
X1845421D01*
X1849587Y580992D01*
X1845421Y618480D02*
Y601819D01*
X1857917D01*
X1853752Y610149D01*
Y614315D01*
X1857917Y618480D01*
X1866248D01*
X1870413Y614315D01*
Y605984D01*
X1866248Y601819D01*
X1874579Y626811D02*
Y643472D01*
X1849587Y651802D02*
X1845421Y655968D01*
Y664298D01*
X1849587Y668464D01*
X1853752D01*
X1857917Y664298D01*
Y660133D01*
Y664298D01*
X1862083Y668464D01*
X1866248D01*
X1870413Y664298D01*
Y655968D01*
X1866248Y651802D01*
X1938949Y556000D02*
X1913957D01*
Y568496D01*
X1918123Y572661D01*
X1926453D01*
X1930619Y568496D01*
Y556000D01*
Y564331D02*
X1938949Y572661D01*
Y580992D02*
Y589323D01*
Y585157D01*
X1913957D01*
X1918123Y580992D01*
X1913957Y618480D02*
X1918123Y610149D01*
X1926453Y601819D01*
X1934784D01*
X1938949Y605984D01*
Y614315D01*
X1934784Y618480D01*
X1930619D01*
X1926453Y614315D01*
Y601819D01*
X1943114Y626811D02*
Y643472D01*
X1918123Y651802D02*
X1913957Y655968D01*
Y664298D01*
X1918123Y668464D01*
X1922288D01*
X1926453Y664298D01*
Y660133D01*
Y664298D01*
X1930619Y668464D01*
X1934784D01*
X1938949Y664298D01*
Y655968D01*
X1934784Y651802D01*
X1700843Y50413D02*
X1696678Y54579D01*
X1688347D01*
X1684181Y50413D01*
Y46248D01*
X1688347Y42083D01*
X1696678D01*
X1700843Y37917D01*
Y33752D01*
X1696678Y29587D01*
X1688347D01*
X1684181Y33752D01*
X1725835Y29587D02*
X1709173D01*
X1725835Y46248D01*
Y50413D01*
X1721669Y54579D01*
X1713339D01*
X1709173Y50413D01*
X1734165Y25421D02*
X1750827D01*
X1759157Y50413D02*
X1763322Y54579D01*
X1771653D01*
X1775819Y50413D01*
Y46248D01*
X1771653Y42083D01*
X1767488D01*
X1771653D01*
X1775819Y37917D01*
Y33752D01*
X1771653Y29587D01*
X1763322D01*
X1759157Y33752D01*
X1639115Y1092814D02*
Y1071987D01*
X1643280Y1067822D01*
X1651611D01*
X1655776Y1071987D01*
Y1092814D01*
X1664107Y1067822D02*
X1672438D01*
X1668272D01*
Y1092814D01*
X1664107Y1088648D01*
X1684934Y1063657D02*
X1701595D01*
X1709926Y1088648D02*
X1714091Y1092814D01*
X1722421D01*
X1726587Y1088648D01*
Y1084483D01*
X1722421Y1080318D01*
X1718256D01*
X1722421D01*
X1726587Y1076152D01*
Y1071987D01*
X1722421Y1067822D01*
X1714091D01*
X1709926Y1071987D01*
X977581Y966586D02*
X973416Y962420D01*
Y954090D01*
X977581Y949924D01*
X994243D01*
X998408Y954090D01*
Y962420D01*
X994243Y966586D01*
X998408Y974916D02*
Y983247D01*
Y979082D01*
X973416D01*
X977581Y974916D01*
X1002573Y995743D02*
Y1012404D01*
X998408Y1020735D02*
Y1029065D01*
Y1024900D01*
X973416D01*
X977581Y1020735D01*
X851837Y824074D02*
X847672Y828239D01*
X839341D01*
X835176Y824074D01*
Y807412D01*
X839341Y803247D01*
X847672D01*
X851837Y807412D01*
X876829Y803247D02*
X860168D01*
X876829Y819908D01*
Y824074D01*
X872664Y828239D01*
X864333D01*
X860168Y824074D01*
X885160Y799082D02*
X901821D01*
X910152Y803247D02*
X918482D01*
X914317D01*
Y828239D01*
X910152Y824074D01*
X849587Y547661D02*
X845421Y543496D01*
Y535165D01*
X849587Y531000D01*
X866248D01*
X870413Y535165D01*
Y543496D01*
X866248Y547661D01*
X849587Y555992D02*
X845421Y560157D01*
Y568488D01*
X849587Y572653D01*
X853752D01*
X857917Y568488D01*
Y564322D01*
Y568488D01*
X862083Y572653D01*
X866248D01*
X870413Y568488D01*
Y560157D01*
X866248Y555992D01*
X874578Y580984D02*
Y597645D01*
X870413Y605976D02*
Y614306D01*
Y610141D01*
X845421D01*
X849587Y605976D01*
X1312550Y1298306D02*
X1308385Y1294141D01*
Y1285810D01*
X1312550Y1281645D01*
X1329211D01*
X1333377Y1285810D01*
Y1294141D01*
X1329211Y1298306D01*
X1333377Y1319132D02*
X1308385D01*
X1320880Y1306637D01*
Y1323298D01*
X1337542Y1331628D02*
Y1348290D01*
X1333377Y1356620D02*
Y1364951D01*
Y1360786D01*
X1308385D01*
X1312550Y1356620D01*
X773556Y1258518D02*
X769390Y1254353D01*
Y1246022D01*
X773556Y1241857D01*
X790217D01*
X794382Y1246022D01*
Y1254353D01*
X790217Y1258518D01*
X769390Y1283510D02*
Y1266849D01*
X781886D01*
X777721Y1275179D01*
Y1279345D01*
X781886Y1283510D01*
X790217D01*
X794382Y1279345D01*
Y1271014D01*
X790217Y1266849D01*
X798548Y1291841D02*
Y1308502D01*
X794382Y1316832D02*
Y1325163D01*
Y1320998D01*
X769390D01*
X773556Y1316832D01*
X848556Y1258518D02*
X844390Y1254353D01*
Y1246022D01*
X848556Y1241857D01*
X865217D01*
X869382Y1246022D01*
Y1254353D01*
X865217Y1258518D01*
X844390Y1283510D02*
X848556Y1275179D01*
X856886Y1266849D01*
X865217D01*
X869382Y1271014D01*
Y1279345D01*
X865217Y1283510D01*
X861052D01*
X856886Y1279345D01*
Y1266849D01*
X873548Y1291841D02*
Y1308502D01*
X869382Y1316832D02*
Y1325163D01*
Y1320998D01*
X844390D01*
X848556Y1316832D01*
X1244587Y1327661D02*
X1240421Y1323496D01*
Y1315165D01*
X1244587Y1311000D01*
X1261248D01*
X1265413Y1315165D01*
Y1323496D01*
X1261248Y1327661D01*
X1240421Y1335992D02*
Y1352653D01*
X1244587D01*
X1261248Y1335992D01*
X1265413D01*
X1269579Y1360984D02*
Y1377645D01*
X1265413Y1385976D02*
Y1394306D01*
Y1390141D01*
X1240421D01*
X1244587Y1385976D01*
X1009587Y1317661D02*
X1005421Y1313496D01*
Y1305165D01*
X1009587Y1301000D01*
X1026248D01*
X1030413Y1305165D01*
Y1313496D01*
X1026248Y1317661D01*
X1009587Y1325992D02*
X1005421Y1330157D01*
Y1338488D01*
X1009587Y1342653D01*
X1013752D01*
X1017917Y1338488D01*
X1022083Y1342653D01*
X1026248D01*
X1030413Y1338488D01*
Y1330157D01*
X1026248Y1325992D01*
X1022083D01*
X1017917Y1330157D01*
X1013752Y1325992D01*
X1009587D01*
X1017917Y1330157D02*
Y1338488D01*
X1034579Y1350984D02*
Y1367645D01*
X1030413Y1375976D02*
Y1384306D01*
Y1380141D01*
X1005421D01*
X1009587Y1375976D01*
X949587Y1312661D02*
X945421Y1308496D01*
Y1300165D01*
X949587Y1296000D01*
X966248D01*
X970413Y1300165D01*
Y1308496D01*
X966248Y1312661D01*
Y1320992D02*
X970413Y1325157D01*
Y1333488D01*
X966248Y1337653D01*
X949587D01*
X945421Y1333488D01*
Y1325157D01*
X949587Y1320992D01*
X953752D01*
X957917Y1325157D01*
Y1337653D01*
X974579Y1345984D02*
Y1362645D01*
X970413Y1370976D02*
Y1379306D01*
Y1375141D01*
X945421D01*
X949587Y1370976D01*
X1394587Y1327661D02*
X1390421Y1323496D01*
Y1315165D01*
X1394587Y1311000D01*
X1411248D01*
X1415413Y1315165D01*
Y1323496D01*
X1411248Y1327661D01*
X1415413Y1335992D02*
Y1344322D01*
Y1340157D01*
X1390421D01*
X1394587Y1335992D01*
Y1356819D02*
X1390421Y1360984D01*
Y1369314D01*
X1394587Y1373480D01*
X1411248D01*
X1415413Y1369314D01*
Y1360984D01*
X1411248Y1356819D01*
X1394587D01*
X1419579Y1381810D02*
Y1398472D01*
X1415413Y1406802D02*
Y1415133D01*
Y1410968D01*
X1390421D01*
X1394587Y1406802D01*
X1110413Y531000D02*
X1085421D01*
Y543496D01*
X1089587Y547661D01*
X1097917D01*
X1102083Y543496D01*
Y531000D01*
Y539331D02*
X1110413Y547661D01*
Y555992D02*
Y564323D01*
Y560157D01*
X1085421D01*
X1089587Y555992D01*
X1114579Y576819D02*
Y593480D01*
X1110413Y601811D02*
Y610141D01*
Y605976D01*
X1085421D01*
X1089587Y601811D01*
X1442347Y739587D02*
Y764579D01*
X1454843D01*
X1459008Y760413D01*
Y752083D01*
X1454843Y747917D01*
X1442347D01*
X1450678D02*
X1459008Y739587D01*
X1484000D02*
X1467339D01*
X1484000Y756248D01*
Y760413D01*
X1479835Y764579D01*
X1471504D01*
X1467339Y760413D01*
X1492331Y735421D02*
X1508992D01*
X1517323Y739587D02*
X1525653D01*
X1521488D01*
Y764579D01*
X1517323Y760413D01*
X1078347Y1299587D02*
Y1324579D01*
X1090843D01*
X1095008Y1320413D01*
Y1312083D01*
X1090843Y1307917D01*
X1078347D01*
X1086678D02*
X1095008Y1299587D01*
X1103339Y1320413D02*
X1107504Y1324579D01*
X1115835D01*
X1120000Y1320413D01*
Y1316248D01*
X1115835Y1312083D01*
X1111669D01*
X1115835D01*
X1120000Y1307917D01*
Y1303752D01*
X1115835Y1299587D01*
X1107504D01*
X1103339Y1303752D01*
X1128331Y1295421D02*
X1144992D01*
X1153323Y1299587D02*
X1161653D01*
X1157488D01*
Y1324579D01*
X1153323Y1320413D01*
X1165413Y531000D02*
X1140421D01*
Y543496D01*
X1144587Y547661D01*
X1152917D01*
X1157083Y543496D01*
Y531000D01*
Y539331D02*
X1165413Y547661D01*
Y568488D02*
X1140421D01*
X1152917Y555992D01*
Y572653D01*
X1169579Y580984D02*
Y597645D01*
X1165413Y605976D02*
Y614306D01*
Y610141D01*
X1140421D01*
X1144587Y605976D01*
X789408Y942842D02*
X764416D01*
Y955338D01*
X768581Y959503D01*
X776912D01*
X781077Y955338D01*
Y942842D01*
Y951172D02*
X789408Y959503D01*
X764416Y984495D02*
X768581Y976164D01*
X776912Y967834D01*
X785243D01*
X789408Y971999D01*
Y980330D01*
X785243Y984495D01*
X781077D01*
X776912Y980330D01*
Y967834D01*
X793573Y992826D02*
Y1009487D01*
X789408Y1017817D02*
Y1026148D01*
Y1021983D01*
X764416D01*
X768581Y1017817D01*
X1332397Y1067822D02*
Y1092814D01*
X1344893D01*
X1349058Y1088648D01*
Y1080318D01*
X1344893Y1076152D01*
X1332397D01*
X1340727D02*
X1349058Y1067822D01*
X1357389Y1092814D02*
X1374050D01*
Y1088648D01*
X1357389Y1071987D01*
Y1067822D01*
X1382381Y1063657D02*
X1399042D01*
X1407372Y1067822D02*
X1415703D01*
X1411538D01*
Y1092814D01*
X1407372Y1088648D01*
X930413Y531000D02*
X905421D01*
Y543496D01*
X909587Y547661D01*
X917917D01*
X922083Y543496D01*
Y531000D01*
Y539331D02*
X930413Y547661D01*
Y555992D02*
Y564322D01*
Y560157D01*
X905421D01*
X909587Y555992D01*
X930413Y589314D02*
X905421D01*
X917917Y576818D01*
Y593480D01*
X934578Y601810D02*
Y618472D01*
X930413Y626802D02*
Y635133D01*
Y630967D01*
X905421D01*
X909587Y626802D01*
X990413Y531000D02*
X965421D01*
Y543496D01*
X969587Y547661D01*
X977917D01*
X982083Y543496D01*
Y531000D01*
Y539331D02*
X990413Y547661D01*
Y555992D02*
Y564322D01*
Y560157D01*
X965421D01*
X969587Y555992D01*
X965421Y593480D02*
Y576818D01*
X977917D01*
X973752Y585149D01*
Y589314D01*
X977917Y593480D01*
X986248D01*
X990413Y589314D01*
Y580984D01*
X986248Y576818D01*
X994578Y601810D02*
Y618472D01*
X990413Y626802D02*
Y635133D01*
Y630967D01*
X965421D01*
X969587Y626802D01*
X1050413Y531000D02*
X1025421D01*
Y543496D01*
X1029587Y547661D01*
X1037917D01*
X1042083Y543496D01*
Y531000D01*
Y539331D02*
X1050413Y547661D01*
Y555992D02*
Y564322D01*
Y560157D01*
X1025421D01*
X1029587Y555992D01*
X1025421Y593480D02*
X1029587Y585149D01*
X1037917Y576818D01*
X1046248D01*
X1050413Y580984D01*
Y589314D01*
X1046248Y593480D01*
X1042083D01*
X1037917Y589314D01*
Y576818D01*
X1054579Y601810D02*
Y618472D01*
X1050413Y626802D02*
Y635133D01*
Y630967D01*
X1025421D01*
X1029587Y626802D01*
X1447504Y633339D02*
X1472496D01*
Y645835D01*
X1468331Y650000D01*
X1451669D01*
X1447504Y645835D01*
Y633339D01*
X1472496Y658331D02*
Y666661D01*
Y662496D01*
X1447504D01*
X1451669Y658331D01*
X1647681Y539173D02*
X1622690D01*
Y551669D01*
X1626855Y555835D01*
X1635186D01*
X1639351Y551669D01*
Y539173D01*
Y547504D02*
X1647681Y555835D01*
X1626855Y564165D02*
X1622690Y568331D01*
Y576661D01*
X1626855Y580827D01*
X1631020D01*
X1635186Y576661D01*
X1639351Y580827D01*
X1643516D01*
X1647681Y576661D01*
Y568331D01*
X1643516Y564165D01*
X1639351D01*
X1635186Y568331D01*
X1631020Y564165D01*
X1626855D01*
X1635186Y568331D02*
Y576661D01*
X3770740Y1104733D02*
X3766575Y1100568D01*
Y1092237D01*
X3770740Y1088072D01*
X3787402D01*
X3791567Y1092237D01*
Y1100568D01*
X3787402Y1104733D01*
X3791567Y1113064D02*
Y1121394D01*
Y1117229D01*
X3766575D01*
X3770740Y1113064D01*
X3791567Y1133890D02*
Y1142221D01*
Y1138056D01*
X3766575D01*
X3770740Y1133890D01*
X3675740Y1104733D02*
X3671575Y1100568D01*
Y1092237D01*
X3675740Y1088072D01*
X3692402D01*
X3696567Y1092237D01*
Y1100568D01*
X3692402Y1104733D01*
X3696567Y1113064D02*
Y1121394D01*
Y1117229D01*
X3671575D01*
X3675740Y1113064D01*
X3696567Y1150552D02*
Y1133890D01*
X3679906Y1150552D01*
X3675740D01*
X3671575Y1146386D01*
Y1138056D01*
X3675740Y1133890D01*
X3491669Y1067661D02*
X3487504Y1063496D01*
Y1055165D01*
X3491669Y1051000D01*
X3508331D01*
X3512496Y1055165D01*
Y1063496D01*
X3508331Y1067661D01*
X3512496Y1075992D02*
Y1084323D01*
Y1080157D01*
X3487504D01*
X3491669Y1075992D01*
Y1096819D02*
X3487504Y1100984D01*
Y1109315D01*
X3491669Y1113480D01*
X3495834D01*
X3500000Y1109315D01*
Y1105149D01*
Y1109315D01*
X3504165Y1113480D01*
X3508331D01*
X3512496Y1109315D01*
Y1100984D01*
X3508331Y1096819D01*
X2610421Y793725D02*
X2606256Y797890D01*
X2597925D01*
X2593760Y793725D01*
Y777064D01*
X2597925Y772898D01*
X2606256D01*
X2610421Y777064D01*
X2618752Y772898D02*
X2627083D01*
X2622917D01*
Y797890D01*
X2618752Y793725D01*
X2656240Y797890D02*
X2639579D01*
Y785394D01*
X2647909Y789560D01*
X2652075D01*
X2656240Y785394D01*
Y777064D01*
X2652075Y772898D01*
X2643744D01*
X2639579Y777064D01*
X2905421Y998331D02*
X2901256Y1002496D01*
X2892925D01*
X2888760Y998331D01*
Y981669D01*
X2892925Y977504D01*
X2901256D01*
X2905421Y981669D01*
X2913752Y977504D02*
X2922083D01*
X2917917D01*
Y1002496D01*
X2913752Y998331D01*
X2951240Y1002496D02*
X2942909Y998331D01*
X2934579Y990000D01*
Y981669D01*
X2938744Y977504D01*
X2947075D01*
X2951240Y981669D01*
Y985835D01*
X2947075Y990000D01*
X2934579D01*
X2905421Y918331D02*
X2901256Y922496D01*
X2892925D01*
X2888760Y918331D01*
Y901669D01*
X2892925Y897504D01*
X2901256D01*
X2905421Y901669D01*
X2913752Y897504D02*
X2922083D01*
X2917917D01*
Y922496D01*
X2913752Y918331D01*
X2934579Y922496D02*
X2951240D01*
Y918331D01*
X2934579Y901669D01*
Y897504D01*
X2905421Y1078528D02*
X2901256Y1082694D01*
X2892925D01*
X2888760Y1078528D01*
Y1061867D01*
X2892925Y1057702D01*
X2901256D01*
X2905421Y1061867D01*
X2913752Y1057702D02*
X2922083D01*
X2917917D01*
Y1082694D01*
X2913752Y1078528D01*
X2934579D02*
X2938744Y1082694D01*
X2947075D01*
X2951240Y1078528D01*
Y1074363D01*
X2947075Y1070198D01*
X2951240Y1066032D01*
Y1061867D01*
X2947075Y1057702D01*
X2938744D01*
X2934579Y1061867D01*
Y1066032D01*
X2938744Y1070198D01*
X2934579Y1074363D01*
Y1078528D01*
X2938744Y1070198D02*
X2947075D01*
X3406669Y1067661D02*
X3402504Y1063496D01*
Y1055165D01*
X3406669Y1051000D01*
X3423331D01*
X3427496Y1055165D01*
Y1063496D01*
X3423331Y1067661D01*
X3427496Y1075992D02*
Y1084322D01*
Y1080157D01*
X3402504D01*
X3406669Y1075992D01*
X3423331Y1096819D02*
X3427496Y1100984D01*
Y1109314D01*
X3423331Y1113480D01*
X3406669D01*
X3402504Y1109314D01*
Y1100984D01*
X3406669Y1096819D01*
X3410835D01*
X3415000Y1100984D01*
Y1113480D01*
X2780000Y1281669D02*
Y1298331D01*
X2775835Y1302496D01*
X2767504D01*
X2763339Y1298331D01*
Y1281669D01*
X2767504Y1277504D01*
X2775835D01*
X2771669Y1285835D02*
X2780000Y1277504D01*
X2775835D02*
X2780000Y1281669D01*
X2788331Y1277504D02*
X2796661D01*
X2792496D01*
Y1302496D01*
X2788331Y1298331D01*
X3496000Y1182504D02*
Y1207496D01*
X3508496D01*
X3512661Y1203331D01*
Y1195000D01*
X3508496Y1190835D01*
X3496000D01*
X3504331D02*
X3512661Y1182504D01*
X3520992Y1186669D02*
X3525157Y1182504D01*
X3533488D01*
X3537653Y1186669D01*
Y1203331D01*
X3533488Y1207496D01*
X3525157D01*
X3520992Y1203331D01*
Y1199165D01*
X3525157Y1195000D01*
X3537653D01*
X3496000Y1341047D02*
Y1366039D01*
X3508496D01*
X3512661Y1361874D01*
Y1353543D01*
X3508496Y1349378D01*
X3496000D01*
X3504331D02*
X3512661Y1341047D01*
X3520992D02*
X3529323D01*
X3525157D01*
Y1366039D01*
X3520992Y1361874D01*
X3541818D02*
X3545984Y1366039D01*
X3554314D01*
X3558480Y1361874D01*
Y1345213D01*
X3554314Y1341047D01*
X3545984D01*
X3541818Y1345213D01*
Y1361874D01*
X2716000Y1397504D02*
Y1422496D01*
X2728496D01*
X2732661Y1418331D01*
Y1410000D01*
X2728496Y1405835D01*
X2716000D01*
X2724331D02*
X2732661Y1397504D01*
X2740992D02*
X2749323D01*
X2745157D01*
Y1422496D01*
X2740992Y1418331D01*
X2761818Y1397504D02*
X2770149D01*
X2765984D01*
Y1422496D01*
X2761818Y1418331D01*
X2716000Y1347504D02*
Y1372496D01*
X2728496D01*
X2732661Y1368331D01*
Y1360000D01*
X2728496Y1355835D01*
X2716000D01*
X2724331D02*
X2732661Y1347504D01*
X2740992D02*
X2749323D01*
X2745157D01*
Y1372496D01*
X2740992Y1368331D01*
X2778480Y1347504D02*
X2761818D01*
X2778480Y1364165D01*
Y1368331D01*
X2774314Y1372496D01*
X2765984D01*
X2761818Y1368331D01*
X2357496Y878760D02*
X2332504D01*
Y891256D01*
X2336669Y895422D01*
X2345000D01*
X2349165Y891256D01*
Y878760D01*
Y887091D02*
X2357496Y895422D01*
Y903752D02*
Y912083D01*
Y907917D01*
X2332504D01*
X2336669Y903752D01*
Y924579D02*
X2332504Y928744D01*
Y937075D01*
X2336669Y941240D01*
X2340834D01*
X2345000Y937075D01*
Y932909D01*
Y937075D01*
X2349165Y941240D01*
X2353331D01*
X2357496Y937075D01*
Y928744D01*
X2353331Y924579D01*
X2483339Y383331D02*
X2479173Y387496D01*
X2470843D01*
X2466677Y383331D01*
Y366669D01*
X2470843Y362504D01*
X2479173D01*
X2483339Y366669D01*
X2508331Y362504D02*
X2491669D01*
X2508331Y379165D01*
Y383331D01*
X2504165Y387496D01*
X2495835D01*
X2491669Y383331D01*
X2516661D02*
X2520827Y387496D01*
X2529157D01*
X2533323Y383331D01*
Y366669D01*
X2529157Y362504D01*
X2520827D01*
X2516661Y366669D01*
Y383331D01*
X2433662Y620331D02*
X2429497Y624496D01*
X2421166D01*
X2417001Y620331D01*
Y603670D01*
X2421166Y599504D01*
X2429497D01*
X2433662Y603670D01*
X2458654Y599504D02*
X2441992D01*
X2458654Y616166D01*
Y620331D01*
X2454488Y624496D01*
X2446158D01*
X2441992Y620331D01*
X2466984Y599504D02*
X2475315D01*
X2471150D01*
Y624496D01*
X2466984Y620331D01*
X2093339Y383331D02*
X2089173Y387496D01*
X2080843D01*
X2076677Y383331D01*
Y366669D01*
X2080843Y362504D01*
X2089173D01*
X2093339Y366669D01*
X2118331Y362504D02*
X2101669D01*
X2118331Y379165D01*
Y383331D01*
X2114165Y387496D01*
X2105835D01*
X2101669Y383331D01*
X2143323Y362504D02*
X2126661D01*
X2143323Y379165D01*
Y383331D01*
X2139157Y387496D01*
X2130827D01*
X2126661Y383331D01*
X2203339Y868331D02*
X2199173Y872496D01*
X2190843D01*
X2186677Y868331D01*
Y851669D01*
X2190843Y847504D01*
X2199173D01*
X2203339Y851669D01*
X2228331Y847504D02*
X2211669D01*
X2228331Y864165D01*
Y868331D01*
X2224165Y872496D01*
X2215835D01*
X2211669Y868331D01*
X2236661D02*
X2240827Y872496D01*
X2249157D01*
X2253323Y868331D01*
Y864165D01*
X2249157Y860000D01*
X2244992D01*
X2249157D01*
X2253323Y855835D01*
Y851669D01*
X2249157Y847504D01*
X2240827D01*
X2236661Y851669D01*
X2457504Y698174D02*
X2482496D01*
Y710670D01*
X2478331Y714835D01*
X2461669D01*
X2457504Y710670D01*
Y698174D01*
X2482496Y739827D02*
Y723166D01*
X2465835Y739827D01*
X2461669D01*
X2457504Y735662D01*
Y727331D01*
X2461669Y723166D01*
X2527496Y698760D02*
X2502504D01*
Y711256D01*
X2506669Y715421D01*
X2515000D01*
X2519165Y711256D01*
Y698760D01*
Y707091D02*
X2527496Y715421D01*
Y723752D02*
Y732083D01*
Y727917D01*
X2502504D01*
X2506669Y723752D01*
X2502504Y744579D02*
Y761240D01*
X2506669D01*
X2523331Y744579D01*
X2527496D01*
X1457512Y820413D02*
X1453347Y824579D01*
X1445016D01*
X1440851Y820413D01*
Y803752D01*
X1445016Y799587D01*
X1453347D01*
X1457512Y803752D01*
X1482504Y799587D02*
X1465843D01*
X1482504Y816248D01*
Y820413D01*
X1478339Y824579D01*
X1470008D01*
X1465843Y820413D01*
X1503331Y799587D02*
Y824579D01*
X1490835Y812083D01*
X1507496D01*
X1515827Y795421D02*
X1532488D01*
X1540819Y799587D02*
X1549149D01*
X1544984D01*
Y824579D01*
X1540819Y820413D01*
X706900Y685413D02*
X702735Y689579D01*
X694404D01*
X690239Y685413D01*
Y668752D01*
X694404Y664587D01*
X702735D01*
X706900Y668752D01*
X731892Y664587D02*
X715230D01*
X731892Y681248D01*
Y685413D01*
X727726Y689579D01*
X719396D01*
X715230Y685413D01*
X752718Y664587D02*
Y689579D01*
X740222Y677083D01*
X756884D01*
X765214Y660421D02*
X781875D01*
X806867Y664587D02*
X790206D01*
X806867Y681248D01*
Y685413D01*
X802702Y689579D01*
X794371D01*
X790206Y685413D01*
X2233347Y1015413D02*
X2229182Y1019579D01*
X2220851D01*
X2216686Y1015413D01*
Y998752D01*
X2220851Y994587D01*
X2229182D01*
X2233347Y998752D01*
X2258339Y994587D02*
X2241678D01*
X2258339Y1011248D01*
Y1015413D01*
X2254174Y1019579D01*
X2245843D01*
X2241678Y1015413D01*
X2279166Y994587D02*
Y1019579D01*
X2266670Y1007083D01*
X2283331D01*
X2291662Y990421D02*
X2308323D01*
X2316654Y1015413D02*
X2320819Y1019579D01*
X2329150D01*
X2333315Y1015413D01*
Y1011248D01*
X2329150Y1007083D01*
X2324984D01*
X2329150D01*
X2333315Y1002917D01*
Y998752D01*
X2329150Y994587D01*
X2320819D01*
X2316654Y998752D01*
X3473760Y1677504D02*
Y1702496D01*
X3486256D01*
X3490421Y1698331D01*
Y1690000D01*
X3486256Y1685835D01*
X3473760D01*
X3482091D02*
X3490421Y1677504D01*
X3498752D02*
X3507083D01*
X3502917D01*
Y1702496D01*
X3498752Y1698331D01*
X3519579Y1681669D02*
X3523744Y1677504D01*
X3532075D01*
X3536240Y1681669D01*
Y1698331D01*
X3532075Y1702496D01*
X3523744D01*
X3519579Y1698331D01*
Y1694165D01*
X3523744Y1690000D01*
X3536240D01*
X2775769Y645843D02*
Y662504D01*
Y654173D01*
X2800760D01*
Y670835D02*
X2775769D01*
Y683331D01*
X2779934Y687496D01*
X2788265D01*
X2792430Y683331D01*
Y670835D01*
X2800760Y695827D02*
Y704157D01*
Y699992D01*
X2775769D01*
X2779934Y695827D01*
X2767504Y471678D02*
Y488339D01*
Y480008D01*
X2792496D01*
Y496669D02*
X2767504D01*
Y509165D01*
X2771669Y513331D01*
X2780000D01*
X2784165Y509165D01*
Y496669D01*
X2792496Y538323D02*
Y521661D01*
X2775835Y538323D01*
X2771669D01*
X2767504Y534157D01*
Y525827D01*
X2771669Y521661D01*
X115001Y1623496D02*
X131662D01*
X123331D01*
Y1598504D01*
X139992D02*
Y1623496D01*
X152488D01*
X156654Y1619331D01*
Y1611000D01*
X152488Y1606835D01*
X139992D01*
X164984Y1619331D02*
X169150Y1623496D01*
X177480D01*
X181646Y1619331D01*
Y1615166D01*
X177480Y1611000D01*
X173315D01*
X177480D01*
X181646Y1606835D01*
Y1602670D01*
X177480Y1598504D01*
X169150D01*
X164984Y1602670D01*
X2816677Y452496D02*
X2833339D01*
X2825008D01*
Y427504D01*
X2841669D02*
Y452496D01*
X2854165D01*
X2858331Y448331D01*
Y440000D01*
X2854165Y435835D01*
X2841669D01*
X2879157Y427504D02*
Y452496D01*
X2866661Y440000D01*
X2883323D01*
D54*
X2187016Y-33866D02*
X2538984D01*
X2187016D02*
Y22433D01*
Y114559D02*
Y180701D01*
X2538984Y-33866D02*
Y22433D01*
Y114559D02*
Y180701D01*
X259173Y282504D02*
Y307496D01*
X271669D01*
X275835Y303331D01*
Y295000D01*
X271669Y290835D01*
X259173D01*
X300827Y307496D02*
X284165D01*
Y295000D01*
X292496Y299165D01*
X296661D01*
X300827Y295000D01*
Y286669D01*
X296661Y282504D01*
X288331D01*
X284165Y286669D01*
D55*
X2120371Y411678D02*
Y519000D01*
Y714000D02*
Y746323D01*
X2152103D01*
X2377103D02*
X2403835D01*
Y719000D02*
Y746323D01*
Y411678D02*
Y434000D01*
X2382103Y411678D02*
X2403835D01*
X2120371D02*
X2142103D01*
X2851850Y1353543D02*
Y1400787D01*
X3316417D01*
Y1353543D02*
Y1400787D01*
X2851850Y1152756D02*
X3316417D01*
X3936701Y76733D02*
Y785394D01*
X3693001D02*
X3936701D01*
X3877646Y76733D02*
X3936701D01*
X2942607D02*
Y135788D01*
Y722402D02*
Y785394D01*
Y76733D02*
X2962292D01*
X2942607Y785394D02*
X2962292D01*
X1210000Y516221D02*
Y566221D01*
X1255000D01*
X1555000D02*
X1595000D01*
Y521221D02*
Y566221D01*
Y6221D02*
Y66221D01*
X1215000Y6221D02*
X1595000D01*
X1215000D02*
Y61221D01*
X811577Y476371D02*
X932286D01*
X811577Y437000D02*
Y476371D01*
X1142286D02*
X1172995D01*
Y437000D02*
Y476371D01*
Y97630D02*
Y137000D01*
X1142286Y97630D02*
X1172995D01*
X811577D02*
X842286D01*
X811577D02*
Y137000D01*
X1051570Y898235D02*
Y915086D01*
Y898235D02*
X1068420D01*
X1231570D02*
X1248420D01*
Y915086D01*
Y1078235D02*
Y1095085D01*
X1231570D02*
X1248420D01*
X1051570Y1078235D02*
Y1095085D01*
X1068420D01*
X1026570Y1078235D02*
X1051570D01*
X333292Y476371D02*
X454000D01*
X333292Y437000D02*
Y476371D01*
X664000D02*
X694709D01*
Y437000D02*
Y476371D01*
Y97630D02*
Y137000D01*
X664000Y97630D02*
X694709D01*
X333292D02*
X364000D01*
X333292D02*
Y137000D01*
X312845Y898235D02*
Y915086D01*
Y898235D02*
X329695D01*
X492845D02*
X509695D01*
Y915086D01*
Y1078235D02*
Y1095085D01*
X492845D02*
X509695D01*
X312845Y1078235D02*
Y1095085D01*
X329695D01*
X287845Y1078235D02*
X312845D01*
X1677457Y476371D02*
X1798166D01*
X1677457Y437000D02*
Y476371D01*
X2008166D02*
X2038875D01*
Y437000D02*
Y476371D01*
Y97630D02*
Y137000D01*
X2008166Y97630D02*
X2038875D01*
X1677457D02*
X1708166D01*
X1677457D02*
Y137000D01*
X1779426Y898235D02*
Y915086D01*
Y898235D02*
X1796276D01*
X1959426D02*
X1976276D01*
Y915086D01*
Y1078235D02*
Y1095085D01*
X1959426D02*
X1976276D01*
X1779426Y1078235D02*
Y1095085D01*
X1796276D01*
X1754426Y1078235D02*
X1779426D01*
X440065Y1465010D02*
Y1524990D01*
X460058Y1504997D01*
X480052Y1524990D01*
Y1465010D01*
X530036Y1524990D02*
X510042D01*
X500045Y1514994D01*
Y1475006D01*
X510042Y1465010D01*
X530036D01*
X540032Y1475006D01*
Y1514994D01*
X530036Y1524990D01*
X560026D02*
X600013D01*
X580019D01*
Y1465010D01*
X649997Y1524990D02*
X630003D01*
X620006Y1514994D01*
Y1475006D01*
X630003Y1465010D01*
X649997D01*
X659994Y1475006D01*
Y1514994D01*
X649997Y1524990D01*
X679987Y1465010D02*
Y1524990D01*
X709977D01*
X719974Y1514994D01*
Y1495000D01*
X709977Y1485003D01*
X679987D01*
X699981D02*
X719974Y1465010D01*
X799948Y1524990D02*
Y1514994D01*
X819942Y1495000D01*
X839935Y1514994D01*
Y1524990D01*
X819942Y1495000D02*
Y1465010D01*
X309601D02*
Y1524990D01*
X339591D01*
X349588Y1514994D01*
Y1495000D01*
X339591Y1485003D01*
X309601D01*
X369582Y1514994D02*
X379579Y1524990D01*
X399572D01*
X409569Y1514994D01*
Y1504997D01*
X399572Y1495000D01*
X389575D01*
X399572D01*
X409569Y1485003D01*
Y1475006D01*
X399572Y1465010D01*
X379579D01*
X369582Y1475006D01*
X2017520Y30008D02*
Y79992D01*
X2042512D01*
X2050843Y71661D01*
Y55000D01*
X2042512Y46669D01*
X2017520D01*
X2067504Y30008D02*
X2084165D01*
X2075835D01*
Y79992D01*
X2067504Y71661D01*
X2109157D02*
X2117488Y79992D01*
X2134149D01*
X2142480Y71661D01*
Y38339D01*
X2134149Y30008D01*
X2117488D01*
X2109157Y38339D01*
Y71661D01*
X3894992Y1183347D02*
X3845008D01*
Y1208339D01*
X3853339Y1216669D01*
X3870000D01*
X3878331Y1208339D01*
Y1183347D01*
X3845008Y1266653D02*
X3853339Y1249992D01*
X3870000Y1233331D01*
X3886661D01*
X3894992Y1241661D01*
Y1258322D01*
X3886661Y1266653D01*
X3878331D01*
X3870000Y1258322D01*
Y1233331D01*
X2200000Y1229173D02*
Y1279157D01*
X2224992D01*
X2233323Y1270827D01*
Y1254165D01*
X2224992Y1245835D01*
X2200000D01*
X2249984Y1237504D02*
X2258314Y1229173D01*
X2274976D01*
X2283306Y1237504D01*
Y1270827D01*
X2274976Y1279157D01*
X2258314D01*
X2249984Y1270827D01*
Y1262496D01*
X2258314Y1254165D01*
X2283306D01*
X2299968Y1220843D02*
X2333290D01*
X2349951Y1229173D02*
X2366613D01*
X2358282D01*
Y1279157D01*
X2349951Y1270827D01*
X1106678Y25008D02*
Y74992D01*
X1131669D01*
X1140000Y66661D01*
Y50000D01*
X1131669Y41669D01*
X1106678D01*
X1156661Y25008D02*
X1173323D01*
X1164992D01*
Y74992D01*
X1156661Y66661D01*
X1740065Y1465010D02*
Y1524990D01*
X1760058Y1504997D01*
X1780052Y1524990D01*
Y1465010D01*
X1830036Y1524990D02*
X1810042D01*
X1800045Y1514994D01*
Y1475006D01*
X1810042Y1465010D01*
X1830036D01*
X1840032Y1475006D01*
Y1514994D01*
X1830036Y1524990D01*
X1860026D02*
X1900013D01*
X1880019D01*
Y1465010D01*
X1949997Y1524990D02*
X1930003D01*
X1920006Y1514994D01*
Y1475006D01*
X1930003Y1465010D01*
X1949997D01*
X1959994Y1475006D01*
Y1514994D01*
X1949997Y1524990D01*
X1979987Y1465010D02*
Y1524990D01*
X2009977D01*
X2019974Y1514994D01*
Y1495000D01*
X2009977Y1485003D01*
X1979987D01*
X1999981D02*
X2019974Y1465010D01*
X2099948Y1524990D02*
X2139935D01*
Y1514994D01*
X2099948Y1475006D01*
Y1465010D01*
X2139935D01*
X1604473D02*
Y1524990D01*
X1634463D01*
X1644460Y1514994D01*
Y1495000D01*
X1634463Y1485003D01*
X1604473D01*
X1704441Y1465010D02*
X1664454D01*
X1704441Y1504997D01*
Y1514994D01*
X1694444Y1524990D01*
X1674450D01*
X1664454Y1514994D01*
X1094745Y1465010D02*
Y1524990D01*
X1114738Y1504997D01*
X1134732Y1524990D01*
Y1465010D01*
X1184715Y1524990D02*
X1164722D01*
X1154725Y1514994D01*
Y1475006D01*
X1164722Y1465010D01*
X1184715D01*
X1194712Y1475006D01*
Y1514994D01*
X1184715Y1524990D01*
X1214706D02*
X1254693D01*
X1234699D01*
Y1465010D01*
X1304677Y1524990D02*
X1284683D01*
X1274686Y1514994D01*
Y1475006D01*
X1284683Y1465010D01*
X1304677D01*
X1314673Y1475006D01*
Y1514994D01*
X1304677Y1524990D01*
X1334667Y1465010D02*
Y1524990D01*
X1364657D01*
X1374654Y1514994D01*
Y1495000D01*
X1364657Y1485003D01*
X1334667D01*
X1354660D02*
X1374654Y1465010D01*
X1454628Y1524990D02*
Y1465010D01*
X1474622Y1485003D01*
X1494615Y1465010D01*
Y1524990D01*
X955016Y1465010D02*
Y1524990D01*
X985006D01*
X995003Y1514994D01*
Y1495000D01*
X985006Y1485003D01*
X955016D01*
X1044987Y1465010D02*
Y1524990D01*
X1014997Y1495000D01*
X1054984D01*
X2664992Y1818347D02*
X2615008D01*
Y1843339D01*
X2623339Y1851669D01*
X2640000D01*
X2648331Y1843339D01*
Y1818347D01*
X2615008Y1868331D02*
Y1901653D01*
X2623339D01*
X2656661Y1868331D01*
X2664992D01*
X3109992Y1818347D02*
X3060008D01*
Y1843339D01*
X3068339Y1851669D01*
X3085000D01*
X3093331Y1843339D01*
Y1818347D01*
X3068339Y1868331D02*
X3060008Y1876661D01*
Y1893322D01*
X3068339Y1901653D01*
X3076669D01*
X3085000Y1893322D01*
X3093331Y1901653D01*
X3101661D01*
X3109992Y1893322D01*
Y1876661D01*
X3101661Y1868331D01*
X3093331D01*
X3085000Y1876661D01*
X3076669Y1868331D01*
X3068339D01*
X3085000Y1876661D02*
Y1893322D01*
X2484414Y1649173D02*
Y1699157D01*
X2509406D01*
X2517737Y1690827D01*
Y1674165D01*
X2509406Y1665835D01*
X2484414D01*
X2534398Y1657504D02*
X2542729Y1649173D01*
X2559390D01*
X2567720Y1657504D01*
Y1690827D01*
X2559390Y1699157D01*
X2542729D01*
X2534398Y1690827D01*
Y1682496D01*
X2542729Y1674165D01*
X2567720D01*
X2584382Y1640843D02*
X2617704D01*
X2667688Y1649173D02*
X2634365D01*
X2667688Y1682496D01*
Y1690827D01*
X2659357Y1699157D01*
X2642696D01*
X2634365Y1690827D01*
X2815000Y1489987D02*
X2828329D01*
X2821664D01*
Y1450000D01*
X2815000D01*
X2828329D01*
X2854987Y1476658D02*
X2868316D01*
X2874981Y1469994D01*
Y1450000D01*
X2854987D01*
X2848323Y1456665D01*
X2854987Y1463329D01*
X2874981D01*
X2888310Y1450000D02*
Y1476658D01*
X2908303D01*
X2914968Y1469994D01*
Y1450000D01*
X2994942Y1483323D02*
X2988277Y1489987D01*
X2974948D01*
X2968284Y1483323D01*
Y1456665D01*
X2974948Y1450000D01*
X2988277D01*
X2994942Y1456665D01*
X3008271Y1450000D02*
Y1456665D01*
X3014936D01*
Y1450000D01*
X3008271D01*
X3081581Y1489987D02*
Y1450000D01*
X3101574D01*
X3108239Y1456665D01*
Y1483323D01*
X3101574Y1489987D01*
X3081581D01*
X3121568Y1450000D02*
X3134897D01*
X3128232D01*
Y1476658D01*
X3121568D01*
X3161555D02*
X3174884D01*
X3181548Y1469994D01*
Y1450000D01*
X3161555D01*
X3154890Y1456665D01*
X3161555Y1463329D01*
X3181548D01*
X3194878Y1476658D02*
X3221535D01*
X3194878Y1450000D01*
X3221535D01*
X2820000Y1564987D02*
Y1525000D01*
X2846658D01*
X2879981D02*
X2866652D01*
X2859987Y1531665D01*
Y1544994D01*
X2866652Y1551658D01*
X2879981D01*
X2886645Y1544994D01*
Y1538329D01*
X2859987D01*
X2899974Y1525000D02*
Y1551658D01*
X2919968D01*
X2926632Y1544994D01*
Y1525000D01*
X2939961D02*
X2959955D01*
X2966619Y1531665D01*
X2959955Y1538329D01*
X2946626D01*
X2939961Y1544994D01*
X2946626Y1551658D01*
X2966619D01*
X2979948Y1544994D02*
X3006606D01*
X3019936Y1525000D02*
Y1564987D01*
X3033265Y1551658D01*
X3046593Y1564987D01*
Y1525000D01*
X3066587Y1551658D02*
X3079916D01*
X3086581Y1544994D01*
Y1525000D01*
X3066587D01*
X3059923Y1531665D01*
X3066587Y1538329D01*
X3086581D01*
X3099910Y1525000D02*
Y1564987D01*
Y1538329D02*
X3119903Y1551658D01*
X3099910Y1538329D02*
X3119903Y1525000D01*
X3159890D02*
X3146561D01*
X3139897Y1531665D01*
Y1544994D01*
X3146561Y1551658D01*
X3159890D01*
X3166555Y1544994D01*
Y1538329D01*
X3139897D01*
X3179884Y1551658D02*
Y1525000D01*
Y1538329D01*
X3186548Y1544994D01*
X3193213Y1551658D01*
X3199877D01*
X3259858Y1525000D02*
Y1564987D01*
X3279852D01*
X3286516Y1558323D01*
Y1544994D01*
X3279852Y1538329D01*
X3259858D01*
X3273187D02*
X3286516Y1525000D01*
X3319839D02*
X3306510D01*
X3299845Y1531665D01*
Y1544994D01*
X3306510Y1551658D01*
X3319839D01*
X3326503Y1544994D01*
Y1538329D01*
X3299845D01*
X3339832Y1551658D02*
X3353161Y1525000D01*
X3366490Y1551658D01*
X3379819Y1525000D02*
Y1551658D01*
X3393148Y1564987D01*
X3406477Y1551658D01*
Y1525000D01*
Y1544994D01*
X3379819D01*
X3419807Y1525000D02*
Y1531665D01*
X3426471D01*
Y1525000D01*
X3419807D01*
X3453129Y1558323D02*
X3459794Y1564987D01*
X3473123D01*
X3479787Y1558323D01*
Y1531665D01*
X3473123Y1525000D01*
X3459794D01*
X3453129Y1531665D01*
Y1558323D01*
X3493116D02*
X3499781Y1564987D01*
X3513110D01*
X3519774Y1558323D01*
Y1531665D01*
X3513110Y1525000D01*
X3499781D01*
X3493116Y1531665D01*
Y1558323D01*
X388342Y1915000D02*
X415000D01*
X388342Y1888342D01*
Y1881677D01*
X395007Y1875013D01*
X408336D01*
X415000Y1881677D01*
X375013Y1875013D02*
Y1915000D01*
X355019D01*
X348355Y1908335D01*
Y1901671D01*
X355019Y1895006D01*
X375013D01*
X355019D01*
X348355Y1888342D01*
Y1881677D01*
X355019Y1875013D01*
X375013D01*
X855000Y1915000D02*
X841671D01*
X848335D01*
Y1875013D01*
X855000Y1881677D01*
X821677Y1915000D02*
Y1888342D01*
X808348Y1875013D01*
X795019Y1888342D01*
Y1915000D01*
Y1895006D01*
X821677D01*
X1037948Y1915000D02*
X1064606D01*
X1037948Y1888342D01*
Y1881677D01*
X1044613Y1875013D01*
X1057942D01*
X1064606Y1881677D01*
X1024619Y1875013D02*
Y1915000D01*
X1004626D01*
X997961Y1908335D01*
Y1901671D01*
X1004626Y1895006D01*
X1024619D01*
X1004626D01*
X997961Y1888342D01*
Y1881677D01*
X1004626Y1875013D01*
X1024619D01*
X1177948Y1915000D02*
X1204606D01*
X1177948Y1888342D01*
Y1881677D01*
X1184613Y1875013D01*
X1197942D01*
X1204606Y1881677D01*
X1164619Y1915000D02*
Y1888342D01*
X1151290Y1875013D01*
X1137961Y1888342D01*
Y1915000D01*
Y1895006D01*
X1164619D01*
X1351378Y1915000D02*
X1338049D01*
X1344713D01*
Y1875013D01*
X1351378Y1881677D01*
X1318055Y1875013D02*
Y1915000D01*
X1298062D01*
X1291397Y1908335D01*
Y1901671D01*
X1298062Y1895006D01*
X1318055D01*
X1298062D01*
X1291397Y1888342D01*
Y1881677D01*
X1298062Y1875013D01*
X1318055D01*
X701772Y1915000D02*
X688443D01*
X695107D01*
Y1875013D01*
X701772Y1881677D01*
X668449Y1875013D02*
Y1915000D01*
X648456D01*
X641791Y1908335D01*
Y1901671D01*
X648456Y1895006D01*
X668449D01*
X648456D01*
X641791Y1888342D01*
Y1881677D01*
X648456Y1875013D01*
X668449D01*
X528342Y1915000D02*
X555000D01*
X528342Y1888342D01*
Y1881677D01*
X535006Y1875013D01*
X548336D01*
X555000Y1881677D01*
X515013Y1915000D02*
Y1888342D01*
X501684Y1875013D01*
X488355Y1888342D01*
Y1915000D01*
Y1895006D01*
X515013D01*
X1504606Y1915000D02*
X1491277D01*
X1497942D01*
Y1875013D01*
X1504606Y1881677D01*
X1471284Y1915000D02*
Y1888342D01*
X1457955Y1875013D01*
X1444626Y1888342D01*
Y1915000D01*
Y1895006D01*
X1471284D01*
X1687555Y1915000D02*
X1714213D01*
X1687555Y1888342D01*
Y1881677D01*
X1694219Y1875013D01*
X1707548D01*
X1714213Y1881677D01*
X1674226Y1875013D02*
Y1915000D01*
X1654232D01*
X1647568Y1908335D01*
Y1901671D01*
X1654232Y1895006D01*
X1674226D01*
X1654232D01*
X1647568Y1888342D01*
Y1881677D01*
X1654232Y1875013D01*
X1674226D01*
X1827555Y1915000D02*
X1854213D01*
X1827555Y1888342D01*
Y1881677D01*
X1834219Y1875013D01*
X1847548D01*
X1854213Y1881677D01*
X1814226Y1915000D02*
Y1888342D01*
X1800897Y1875013D01*
X1787568Y1888342D01*
Y1915000D01*
Y1895006D01*
X1814226D01*
X2000984Y1915000D02*
X1987655D01*
X1994320D01*
Y1875013D01*
X2000984Y1881677D01*
X1967662Y1875013D02*
Y1915000D01*
X1947668D01*
X1941004Y1908335D01*
Y1901671D01*
X1947668Y1895006D01*
X1967662D01*
X1947668D01*
X1941004Y1888342D01*
Y1881677D01*
X1947668Y1875013D01*
X1967662D01*
X2154212Y1915000D02*
X2140883D01*
X2147548D01*
Y1875013D01*
X2154212Y1881677D01*
X2120890Y1915000D02*
Y1888342D01*
X2107561Y1875013D01*
X2094232Y1888342D01*
Y1915000D01*
Y1895006D01*
X2120890D01*
D56*
X2825000Y1604994D02*
Y1644981D01*
X2844994Y1664974D01*
X2864987Y1644981D01*
Y1604994D01*
Y1634984D01*
X2825000D01*
X2884981Y1604994D02*
X2904974D01*
X2894977D01*
Y1664974D01*
X2884981D01*
X2934964Y1604994D02*
X2954958D01*
X2944961D01*
Y1664974D01*
X2934964D01*
X2984948Y1604994D02*
X3004942D01*
X2994945D01*
Y1644981D01*
X2984948D01*
X3034932Y1604994D02*
Y1644981D01*
X3064922D01*
X3074919Y1634984D01*
Y1604994D01*
X3154893D02*
Y1664974D01*
X3184883D01*
X3194880Y1654977D01*
Y1634984D01*
X3184883Y1624987D01*
X3154893D01*
X3174887D02*
X3194880Y1604994D01*
X3214874D02*
X3234867D01*
X3224871D01*
Y1644981D01*
X3214874D01*
X3264858Y1604994D02*
Y1664974D01*
Y1624987D02*
X3294848Y1644981D01*
X3264858Y1624987D02*
X3294848Y1604994D01*
X3324838Y1644981D02*
Y1614990D01*
X3334835Y1604994D01*
X3364825D01*
Y1644981D01*
X3384819D02*
Y1614990D01*
X3394816Y1604994D01*
X3424806D01*
Y1594997D01*
X3414809Y1585000D01*
X3404812D01*
X3424806Y1604994D02*
Y1644981D01*
%TF.MD5,3c0f7fa14b0bcc8fc3f99a678e279311*%
M02*
