%TF.GenerationSoftware,Altium Limited,Altium Designer,23.4.1 (23)*%
G04 Layer_Color=255*
%FSLAX26Y26*%
%MOIN*%
%TF.SameCoordinates,CA55AB83-A8E7-406C-AA52-5D1E9B100620*%
%TF.FilePolarity,Positive*%
%TF.FileFunction,Pads,Bot*%
%TF.Part,Single*%
G01*
G75*
%TA.AperFunction,ComponentPad*%
%ADD36C,0.078740*%
%ADD37R,0.078740X0.078740*%
%ADD38R,0.078740X0.078740*%
%ADD39O,0.047244X0.098425*%
%ADD40C,0.023622*%
%ADD41C,0.064961*%
%ADD42R,0.064961X0.064961*%
%ADD43C,0.236220*%
%ADD44C,0.070866*%
%ADD45R,0.070866X0.070866*%
%ADD46C,0.017716*%
%ADD47R,0.173228X0.086614*%
%ADD48R,0.157480X0.078740*%
%ADD49R,0.078740X0.157480*%
%ADD50C,0.062992*%
%ADD51R,0.062992X0.062992*%
%ADD52R,0.070866X0.070866*%
D36*
X526772Y1692913D02*
D03*
X376772D02*
D03*
X676772D02*
D03*
X157481Y401370D02*
D03*
X1825984Y1692913D02*
D03*
X1675984D02*
D03*
X1975984D02*
D03*
X1176378D02*
D03*
X1026378D02*
D03*
X1326378D02*
D03*
D37*
X826772D02*
D03*
X2125984D02*
D03*
X1476378D02*
D03*
D38*
X157481Y551370D02*
D03*
D39*
X2192724Y68496D02*
D03*
Y232669D02*
D03*
X2533276Y68496D02*
D03*
Y232669D02*
D03*
D40*
X2249220Y213378D02*
D03*
X2476780D02*
D03*
D41*
X3776999Y1268543D02*
D03*
Y1368543D02*
D03*
Y1468543D02*
D03*
Y1168543D02*
D03*
D42*
Y1568543D02*
D03*
D43*
X2727001Y150000D02*
D03*
X157481Y157481D02*
D03*
X3770001Y1767001D02*
D03*
X2362205Y1771654D02*
D03*
X157481D02*
D03*
D44*
X2275000Y1370000D02*
D03*
Y1570000D02*
D03*
Y1470000D02*
D03*
X2375000Y1370000D02*
D03*
Y1470000D02*
D03*
X2755000Y1760000D02*
D03*
X2955000D02*
D03*
X2855000D02*
D03*
Y1860000D02*
D03*
X2955000D02*
D03*
X3190000Y1760000D02*
D03*
X3390000D02*
D03*
X3290000D02*
D03*
Y1860000D02*
D03*
X3390000D02*
D03*
X2504414Y1370000D02*
D03*
Y1570000D02*
D03*
Y1470000D02*
D03*
X2604414Y1370000D02*
D03*
Y1470000D02*
D03*
D45*
X2375000Y1570000D02*
D03*
X2604414D02*
D03*
D46*
X3243394Y435000D02*
D03*
X3282764Y395630D02*
D03*
X3243394Y490118D02*
D03*
Y545237D02*
D03*
X3282764Y584607D02*
D03*
X3337882Y395630D02*
D03*
X3393000D02*
D03*
X3365441Y462559D02*
D03*
X3432370Y435000D02*
D03*
X3310323Y462559D02*
D03*
Y517678D02*
D03*
X3365441D02*
D03*
X3391819Y584607D02*
D03*
X3336424Y585243D02*
D03*
X3432370Y545237D02*
D03*
Y490118D02*
D03*
D47*
X1395000Y546221D02*
D03*
D48*
Y310000D02*
D03*
D49*
X1580039Y428110D02*
D03*
D50*
X892286Y137000D02*
D03*
X992286Y437000D02*
D03*
Y137000D02*
D03*
X1092286D02*
D03*
Y437000D02*
D03*
X414000Y137000D02*
D03*
X514000Y437000D02*
D03*
Y137000D02*
D03*
X614000D02*
D03*
Y437000D02*
D03*
X1758166Y137000D02*
D03*
X1858166Y437000D02*
D03*
Y137000D02*
D03*
X1958166D02*
D03*
Y437000D02*
D03*
D51*
X892286D02*
D03*
X414000D02*
D03*
X1758166D02*
D03*
D52*
X2755000Y1860000D02*
D03*
X3190000D02*
D03*
%TF.MD5,3b568b9ea489a4012f796cd13c6a584e*%
M02*
