%TF.GenerationSoftware,Altium Limited,Altium Designer,23.4.1 (23)*%
G04 Layer_Color=255*
%FSLAX26Y26*%
%MOIN*%
%TF.SameCoordinates,8DF2FEB3-C5FF-4098-BA07-91CCA4DB3BA0*%
%TF.FilePolarity,Positive*%
%TF.FileFunction,Pads,Top*%
%TF.Part,Single*%
G01*
G75*
%TA.AperFunction,SMDPad,CuDef*%
%ADD10R,0.125984X0.084646*%
%ADD11R,0.035433X0.084646*%
G04:AMPARAMS|DCode=12|XSize=59.055mil|YSize=35.433mil|CornerRadius=4.429mil|HoleSize=0mil|Usage=FLASHONLY|Rotation=270.000|XOffset=0mil|YOffset=0mil|HoleType=Round|Shape=RoundedRectangle|*
%AMROUNDEDRECTD12*
21,1,0.059055,0.026575,0,0,270.0*
21,1,0.050197,0.035433,0,0,270.0*
1,1,0.008858,-0.013287,-0.025099*
1,1,0.008858,-0.013287,0.025099*
1,1,0.008858,0.013287,0.025099*
1,1,0.008858,0.013287,-0.025099*
%
%ADD12ROUNDEDRECTD12*%
G04:AMPARAMS|DCode=13|XSize=35.433mil|YSize=59.055mil|CornerRadius=4.429mil|HoleSize=0mil|Usage=FLASHONLY|Rotation=270.000|XOffset=0mil|YOffset=0mil|HoleType=Round|Shape=RoundedRectangle|*
%AMROUNDEDRECTD13*
21,1,0.035433,0.050197,0,0,270.0*
21,1,0.026575,0.059055,0,0,270.0*
1,1,0.008858,-0.025099,-0.013287*
1,1,0.008858,-0.025099,0.013287*
1,1,0.008858,0.025099,0.013287*
1,1,0.008858,0.025099,-0.013287*
%
%ADD13ROUNDEDRECTD13*%
G04:AMPARAMS|DCode=14|XSize=35.433mil|YSize=35.433mil|CornerRadius=4.429mil|HoleSize=0mil|Usage=FLASHONLY|Rotation=270.000|XOffset=0mil|YOffset=0mil|HoleType=Round|Shape=RoundedRectangle|*
%AMROUNDEDRECTD14*
21,1,0.035433,0.026575,0,0,270.0*
21,1,0.026575,0.035433,0,0,270.0*
1,1,0.008858,-0.013287,-0.013287*
1,1,0.008858,-0.013287,0.013287*
1,1,0.008858,0.013287,0.013287*
1,1,0.008858,0.013287,-0.013287*
%
%ADD14ROUNDEDRECTD14*%
%ADD15R,0.135000X0.070000*%
%ADD16R,0.025591X0.035433*%
%ADD17R,0.035433X0.051181*%
%ADD18R,0.051181X0.035433*%
%ADD19R,0.019685X0.023622*%
G04:AMPARAMS|DCode=20|XSize=48.425mil|YSize=23.228mil|CornerRadius=5.807mil|HoleSize=0mil|Usage=FLASHONLY|Rotation=180.000|XOffset=0mil|YOffset=0mil|HoleType=Round|Shape=RoundedRectangle|*
%AMROUNDEDRECTD20*
21,1,0.048425,0.011614,0,0,180.0*
21,1,0.036811,0.023228,0,0,180.0*
1,1,0.011614,-0.018406,0.005807*
1,1,0.011614,0.018406,0.005807*
1,1,0.011614,0.018406,-0.005807*
1,1,0.011614,-0.018406,-0.005807*
%
%ADD20ROUNDEDRECTD20*%
%ADD21R,0.023622X0.044882*%
%ADD22R,0.011811X0.044882*%
%ADD23R,0.074803X0.039370*%
G04:AMPARAMS|DCode=24|XSize=10.236mil|YSize=38.189mil|CornerRadius=2.559mil|HoleSize=0mil|Usage=FLASHONLY|Rotation=90.000|XOffset=0mil|YOffset=0mil|HoleType=Round|Shape=RoundedRectangle|*
%AMROUNDEDRECTD24*
21,1,0.010236,0.033071,0,0,90.0*
21,1,0.005118,0.038189,0,0,90.0*
1,1,0.005118,0.016535,0.002559*
1,1,0.005118,0.016535,-0.002559*
1,1,0.005118,-0.016535,-0.002559*
1,1,0.005118,-0.016535,0.002559*
%
%ADD24ROUNDEDRECTD24*%
G04:AMPARAMS|DCode=25|XSize=10.236mil|YSize=38.189mil|CornerRadius=2.559mil|HoleSize=0mil|Usage=FLASHONLY|Rotation=0.000|XOffset=0mil|YOffset=0mil|HoleType=Round|Shape=RoundedRectangle|*
%AMROUNDEDRECTD25*
21,1,0.010236,0.033071,0,0,0.0*
21,1,0.005118,0.038189,0,0,0.0*
1,1,0.005118,0.002559,-0.016535*
1,1,0.005118,-0.002559,-0.016535*
1,1,0.005118,-0.002559,0.016535*
1,1,0.005118,0.002559,0.016535*
%
%ADD25ROUNDEDRECTD25*%
%ADD26R,0.124016X0.124016*%
%ADD27R,0.045276X0.011811*%
%ADD28R,0.011811X0.045276*%
%ADD29R,0.124016X0.124016*%
%ADD30R,0.062992X0.039370*%
%ADD31R,0.070000X0.135000*%
%TA.AperFunction,ComponentPad*%
%ADD36C,0.017716*%
%ADD37C,0.023622*%
%ADD38O,0.047244X0.098425*%
%ADD39C,0.070866*%
%ADD40R,0.070866X0.070866*%
%ADD41C,0.064961*%
%ADD42R,0.064961X0.064961*%
%ADD43C,0.078740*%
%ADD44R,0.078740X0.078740*%
%ADD45R,0.078740X0.078740*%
%ADD46C,0.236220*%
%ADD47R,0.173228X0.086614*%
%ADD48R,0.157480X0.078740*%
%ADD49R,0.078740X0.157480*%
%ADD50C,0.062992*%
%ADD51R,0.062992X0.062992*%
%ADD52R,0.070866X0.070866*%
D10*
X2262103Y694158D02*
D03*
D11*
X2352654Y463843D02*
D03*
X2262103D02*
D03*
X2171552D02*
D03*
D12*
X3641819Y86575D02*
D03*
X3591819D02*
D03*
X3541819D02*
D03*
X3491819D02*
D03*
X3441819D02*
D03*
X3391819D02*
D03*
X3341819D02*
D03*
X3291819D02*
D03*
X3241819D02*
D03*
X3191819D02*
D03*
X3141819D02*
D03*
X3091819D02*
D03*
X3041819D02*
D03*
X2991819D02*
D03*
Y775552D02*
D03*
X3041819D02*
D03*
X3091819D02*
D03*
X3141819D02*
D03*
X3191819D02*
D03*
X3241819D02*
D03*
X3291819D02*
D03*
X3341819D02*
D03*
X3391819D02*
D03*
X3441819D02*
D03*
X3491819D02*
D03*
X3541819D02*
D03*
X3591819D02*
D03*
X3641819D02*
D03*
D13*
X2942607Y656063D02*
D03*
Y206064D02*
D03*
Y256063D02*
D03*
Y306063D02*
D03*
Y356063D02*
D03*
Y406063D02*
D03*
Y456063D02*
D03*
Y506063D02*
D03*
Y556063D02*
D03*
Y606063D02*
D03*
D14*
X3393001Y545237D02*
D03*
Y490119D02*
D03*
Y435000D02*
D03*
X3337882Y545237D02*
D03*
Y435000D02*
D03*
X3282764Y545237D02*
D03*
Y490119D02*
D03*
Y435000D02*
D03*
X3337882Y490119D02*
D03*
D15*
X2810000Y365030D02*
D03*
X823969Y1390000D02*
D03*
X2670000Y675000D02*
D03*
Y506063D02*
D03*
D16*
X3475000Y1760000D02*
D03*
X3532087D02*
D03*
X3475000Y1825000D02*
D03*
X3532087D02*
D03*
D17*
X2645753Y1162594D02*
D03*
X2563075D02*
D03*
X3437677Y1200000D02*
D03*
X3355000D02*
D03*
X2137099Y948756D02*
D03*
X2054422D02*
D03*
X670577Y937487D02*
D03*
X587900D02*
D03*
X1409302D02*
D03*
X1326625D02*
D03*
X2262103Y784744D02*
D03*
X2179426D02*
D03*
X2262103Y375000D02*
D03*
X2179426D02*
D03*
X2857131Y988701D02*
D03*
X2774454D02*
D03*
X2784603Y784744D02*
D03*
X2701926D02*
D03*
X97223Y888487D02*
D03*
X179900D02*
D03*
X587900Y1016345D02*
D03*
X670577D02*
D03*
X1563804Y888487D02*
D03*
X1646481D02*
D03*
X2054422Y1030827D02*
D03*
X2137099D02*
D03*
X835947Y888487D02*
D03*
X918625D02*
D03*
X1326625Y1016345D02*
D03*
X1409302D02*
D03*
X2774454Y912717D02*
D03*
X2857131D02*
D03*
X2774454Y1062323D02*
D03*
X2857131D02*
D03*
X3355000Y1353543D02*
D03*
X3437677D02*
D03*
X2563075Y1237398D02*
D03*
X2645753D02*
D03*
X2343661Y365030D02*
D03*
X2426339D02*
D03*
X1326625Y866321D02*
D03*
X1409302D02*
D03*
X587900Y866984D02*
D03*
X670577D02*
D03*
X2054422Y868712D02*
D03*
X2137099D02*
D03*
D18*
X1569000Y1032826D02*
D03*
Y950149D02*
D03*
X97223Y1032826D02*
D03*
Y950149D02*
D03*
X838969Y1032826D02*
D03*
Y950149D02*
D03*
X3420000Y967677D02*
D03*
Y885000D02*
D03*
X1509000Y1212338D02*
D03*
Y1129660D02*
D03*
X55000Y1205684D02*
D03*
Y1123007D02*
D03*
X783969Y1212195D02*
D03*
Y1129518D02*
D03*
X2054481Y1212338D02*
D03*
Y1129660D02*
D03*
X587900Y1212338D02*
D03*
Y1129660D02*
D03*
X1326625Y1212338D02*
D03*
Y1129660D02*
D03*
X3600000Y1767001D02*
D03*
Y1849678D02*
D03*
X179900Y950149D02*
D03*
Y1032826D02*
D03*
X236794Y702067D02*
D03*
Y784744D02*
D03*
X126270Y1123826D02*
D03*
Y1206503D02*
D03*
X516270Y1129660D02*
D03*
Y1212338D02*
D03*
X295270Y1127487D02*
D03*
Y1210164D02*
D03*
X538914Y702047D02*
D03*
Y784724D02*
D03*
X614000Y702067D02*
D03*
Y784744D02*
D03*
X320585Y702067D02*
D03*
Y784744D02*
D03*
X391585Y702067D02*
D03*
Y784744D02*
D03*
X461955Y702067D02*
D03*
Y784744D02*
D03*
X1646481Y950149D02*
D03*
Y1032826D02*
D03*
X1673587Y701674D02*
D03*
Y784351D02*
D03*
X1584000Y1129660D02*
D03*
Y1212338D02*
D03*
X1982851Y1129660D02*
D03*
Y1212338D02*
D03*
X1761851Y1127487D02*
D03*
Y1210164D02*
D03*
X1987536Y702067D02*
D03*
Y784744D02*
D03*
X2066906Y702067D02*
D03*
Y784744D02*
D03*
X1746851Y701674D02*
D03*
Y784351D02*
D03*
X1826166Y701674D02*
D03*
Y784351D02*
D03*
X1910000Y701674D02*
D03*
Y784351D02*
D03*
X918625Y950149D02*
D03*
Y1032826D02*
D03*
X975000Y701674D02*
D03*
Y784351D02*
D03*
X858969Y1129518D02*
D03*
Y1212195D02*
D03*
X1254995Y1129660D02*
D03*
Y1212338D02*
D03*
X1033995Y1127487D02*
D03*
Y1210164D02*
D03*
X1277740Y702048D02*
D03*
Y784725D02*
D03*
X1352963Y701674D02*
D03*
Y784351D02*
D03*
X1051570Y702067D02*
D03*
Y784744D02*
D03*
X1125000Y702067D02*
D03*
Y784744D02*
D03*
X1200680Y702067D02*
D03*
Y784744D02*
D03*
X1529000Y617000D02*
D03*
Y699677D02*
D03*
X1600186Y617000D02*
D03*
Y699677D02*
D03*
X2419102Y869410D02*
D03*
Y952087D02*
D03*
X2449102Y463843D02*
D03*
Y546520D02*
D03*
X2605000Y323000D02*
D03*
Y405678D02*
D03*
X2686999Y323000D02*
D03*
Y405678D02*
D03*
D19*
X1963166Y1270145D02*
D03*
X2002536D02*
D03*
X496585Y1270655D02*
D03*
X535955D02*
D03*
X1234474Y1267898D02*
D03*
X1273844D02*
D03*
X344270Y1270655D02*
D03*
X304900D02*
D03*
X1082995Y1267898D02*
D03*
X1043625D02*
D03*
X1771481Y1270145D02*
D03*
X1810851D02*
D03*
D20*
X2393075Y1199996D02*
D03*
X2476540Y1237398D02*
D03*
Y1162594D02*
D03*
X2727075D02*
D03*
Y1237398D02*
D03*
X2810540Y1199996D02*
D03*
D21*
X2237016Y255504D02*
D03*
X2268512D02*
D03*
X2457488D02*
D03*
X2488984D02*
D03*
D22*
X2353157D02*
D03*
X2333472D02*
D03*
X2313787D02*
D03*
X2294102D02*
D03*
X2372843D02*
D03*
X2392528D02*
D03*
X2412213D02*
D03*
X2431898D02*
D03*
D23*
X2905000Y1200000D02*
D03*
Y1353543D02*
D03*
X3263268Y1200000D02*
D03*
Y1353543D02*
D03*
D24*
X2530060Y912717D02*
D03*
Y991457D02*
D03*
Y952087D02*
D03*
Y971772D02*
D03*
Y1030827D02*
D03*
Y1011142D02*
D03*
Y932402D02*
D03*
X2716674Y912717D02*
D03*
Y932402D02*
D03*
Y952087D02*
D03*
Y1011142D02*
D03*
Y971772D02*
D03*
Y991457D02*
D03*
Y1030827D02*
D03*
D25*
X2583997Y878465D02*
D03*
X2564312D02*
D03*
X2583997Y1065079D02*
D03*
X2564312D02*
D03*
X2643052Y878465D02*
D03*
X2682422D02*
D03*
X2662737D02*
D03*
X2603682D02*
D03*
X2623367D02*
D03*
X2662737Y1065079D02*
D03*
X2603682D02*
D03*
X2643052D02*
D03*
X2623367D02*
D03*
X2682422D02*
D03*
D26*
X2623367Y971772D02*
D03*
D27*
X1055506Y976975D02*
D03*
Y957290D02*
D03*
Y937605D02*
D03*
Y1055715D02*
D03*
Y1036030D02*
D03*
Y996660D02*
D03*
Y1016345D02*
D03*
X1244483Y937605D02*
D03*
Y976975D02*
D03*
Y957290D02*
D03*
Y1036030D02*
D03*
Y996660D02*
D03*
Y1016345D02*
D03*
Y1055715D02*
D03*
X316782Y976975D02*
D03*
Y957290D02*
D03*
Y937605D02*
D03*
Y1055715D02*
D03*
Y1036030D02*
D03*
Y996660D02*
D03*
Y1016345D02*
D03*
X505758Y937605D02*
D03*
Y976975D02*
D03*
Y957290D02*
D03*
Y1036030D02*
D03*
Y996660D02*
D03*
Y1016345D02*
D03*
Y1055715D02*
D03*
X1783363Y976975D02*
D03*
Y957290D02*
D03*
Y937605D02*
D03*
Y1055715D02*
D03*
Y1036030D02*
D03*
Y996660D02*
D03*
Y1016345D02*
D03*
X1972339Y937605D02*
D03*
Y976975D02*
D03*
Y957290D02*
D03*
Y1036030D02*
D03*
Y996660D02*
D03*
Y1016345D02*
D03*
Y1055715D02*
D03*
D28*
X1110625Y902172D02*
D03*
X1090940D02*
D03*
X1110625Y1091149D02*
D03*
X1090940D02*
D03*
X1169680Y902172D02*
D03*
X1209050D02*
D03*
X1189365D02*
D03*
X1130310D02*
D03*
X1149995D02*
D03*
X1209050Y1091149D02*
D03*
X1189365D02*
D03*
X1130310D02*
D03*
X1169680D02*
D03*
X1149995D02*
D03*
X371900Y902172D02*
D03*
X352215D02*
D03*
X371900Y1091149D02*
D03*
X352215D02*
D03*
X430955Y902172D02*
D03*
X470325D02*
D03*
X450640D02*
D03*
X391585D02*
D03*
X411270D02*
D03*
X470325Y1091149D02*
D03*
X450640D02*
D03*
X391585D02*
D03*
X430955D02*
D03*
X411270D02*
D03*
X1838481Y902172D02*
D03*
X1818796D02*
D03*
X1838481Y1091149D02*
D03*
X1818796D02*
D03*
X1897536Y902172D02*
D03*
X1936906D02*
D03*
X1917221D02*
D03*
X1858166D02*
D03*
X1877851D02*
D03*
X1936906Y1091149D02*
D03*
X1917221D02*
D03*
X1858166D02*
D03*
X1897536D02*
D03*
X1877851D02*
D03*
D29*
X1149995Y996660D02*
D03*
X411270D02*
D03*
X1877851D02*
D03*
D30*
X3591819Y885000D02*
D03*
Y1010984D02*
D03*
X209900Y1127173D02*
D03*
Y1253157D02*
D03*
X669900Y1129660D02*
D03*
Y1255645D02*
D03*
X1669457Y1127629D02*
D03*
Y1253613D02*
D03*
X2136481Y1129660D02*
D03*
Y1255645D02*
D03*
X944426Y1127487D02*
D03*
Y1253471D02*
D03*
X1408625Y1129660D02*
D03*
Y1255645D02*
D03*
X3776999Y920000D02*
D03*
Y1045984D02*
D03*
X3685000Y920000D02*
D03*
Y1045984D02*
D03*
X3499819Y885000D02*
D03*
Y1010984D02*
D03*
D31*
X157481Y1495000D02*
D03*
D36*
X3432371Y490119D02*
D03*
Y435000D02*
D03*
X3393001Y395630D02*
D03*
X3391819Y584607D02*
D03*
X3432371Y545237D02*
D03*
X3365441Y517678D02*
D03*
X3310323D02*
D03*
X3336424Y585243D02*
D03*
X3282764Y584607D02*
D03*
X3243394Y545237D02*
D03*
Y490119D02*
D03*
Y435000D02*
D03*
X3282764Y395630D02*
D03*
X3337882D02*
D03*
X3310323Y462560D02*
D03*
X3365441D02*
D03*
D37*
X2249220Y213378D02*
D03*
X2476780D02*
D03*
D38*
X2192724Y232669D02*
D03*
X2533276D02*
D03*
Y68496D02*
D03*
X2192724D02*
D03*
D39*
X2504414Y1370000D02*
D03*
Y1470000D02*
D03*
Y1570000D02*
D03*
X2604414Y1370000D02*
D03*
Y1470000D02*
D03*
X2275000Y1370000D02*
D03*
Y1470000D02*
D03*
Y1570000D02*
D03*
X2375000Y1370000D02*
D03*
Y1470000D02*
D03*
X2755000Y1760000D02*
D03*
X2955000D02*
D03*
X2855000D02*
D03*
Y1860000D02*
D03*
X2955000D02*
D03*
X3190000Y1760000D02*
D03*
X3390000D02*
D03*
X3290000D02*
D03*
Y1860000D02*
D03*
X3390000D02*
D03*
D40*
X2604414Y1570000D02*
D03*
X2375000D02*
D03*
D41*
X3776999Y1168543D02*
D03*
Y1468543D02*
D03*
Y1368543D02*
D03*
Y1268543D02*
D03*
D42*
Y1568543D02*
D03*
D43*
X157481Y401370D02*
D03*
X1326378Y1692913D02*
D03*
X1176378D02*
D03*
X1026378D02*
D03*
X676772D02*
D03*
X526772D02*
D03*
X376772D02*
D03*
X1975984D02*
D03*
X1825984D02*
D03*
X1675984D02*
D03*
D44*
X157481Y551370D02*
D03*
D45*
X1476378Y1692913D02*
D03*
X826772D02*
D03*
X2125984D02*
D03*
D46*
X2727001Y150000D02*
D03*
X157481Y157481D02*
D03*
X3770001Y1767001D02*
D03*
X2362205Y1771654D02*
D03*
X157481D02*
D03*
D47*
X1395000Y546221D02*
D03*
D48*
Y310000D02*
D03*
D49*
X1580039Y428110D02*
D03*
D50*
X892286Y137000D02*
D03*
X992286Y437000D02*
D03*
Y137000D02*
D03*
X1092286D02*
D03*
Y437000D02*
D03*
X414000Y137000D02*
D03*
X514000Y437000D02*
D03*
Y137000D02*
D03*
X614000D02*
D03*
Y437000D02*
D03*
X1758166Y137000D02*
D03*
X1858166Y437000D02*
D03*
Y137000D02*
D03*
X1958166D02*
D03*
Y437000D02*
D03*
D51*
X892286D02*
D03*
X414000D02*
D03*
X1758166D02*
D03*
D52*
X2755000Y1860000D02*
D03*
X3190000D02*
D03*
%TF.MD5,611a5cf0828e4e0e479314fd0e6d61e7*%
M02*
