%TF.GenerationSoftware,Altium Limited,Altium Designer,23.4.1 (23)*%
G04 Layer_Color=16711935*
%FSLAX26Y26*%
%MOIN*%
%TF.SameCoordinates,CA55AB83-A8E7-406C-AA52-5D1E9B100620*%
%TF.FilePolarity,Negative*%
%TF.FileFunction,Soldermask,Bot*%
%TF.Part,Single*%
G01*
G75*
%TA.AperFunction,ComponentPad*%
%ADD82C,0.082677*%
%ADD83R,0.082677X0.082677*%
%ADD84R,0.082677X0.082677*%
%ADD85C,0.027559*%
%ADD86C,0.068898*%
%ADD87R,0.068898X0.068898*%
%ADD88C,0.240157*%
%ADD89C,0.074803*%
%ADD90R,0.074803X0.074803*%
%ADD91C,0.021654*%
%ADD92R,0.177165X0.090551*%
%ADD93R,0.161417X0.082677*%
%ADD94R,0.082677X0.161417*%
%ADD95C,0.066929*%
%ADD96R,0.066929X0.066929*%
%ADD97R,0.074803X0.074803*%
D82*
X526772Y1692913D02*
D03*
X376772D02*
D03*
X676772D02*
D03*
X157481Y401370D02*
D03*
X1825984Y1692913D02*
D03*
X1675984D02*
D03*
X1975984D02*
D03*
X1176378D02*
D03*
X1026378D02*
D03*
X1326378D02*
D03*
D83*
X826772D02*
D03*
X2125984D02*
D03*
X1476378D02*
D03*
D84*
X157481Y551370D02*
D03*
D85*
X2249220Y213378D02*
D03*
X2476780D02*
D03*
D86*
X3776999Y1268543D02*
D03*
Y1368543D02*
D03*
Y1468543D02*
D03*
Y1168543D02*
D03*
D87*
Y1568543D02*
D03*
D88*
X2727001Y150000D02*
D03*
X157481Y157481D02*
D03*
X3770001Y1767001D02*
D03*
X2362205Y1771654D02*
D03*
X157481D02*
D03*
D89*
X2275000Y1370000D02*
D03*
Y1570000D02*
D03*
Y1470000D02*
D03*
X2375000Y1370000D02*
D03*
Y1470000D02*
D03*
X2755000Y1760000D02*
D03*
X2955000D02*
D03*
X2855000D02*
D03*
Y1860000D02*
D03*
X2955000D02*
D03*
X3190000Y1760000D02*
D03*
X3390000D02*
D03*
X3290000D02*
D03*
Y1860000D02*
D03*
X3390000D02*
D03*
X2504414Y1370000D02*
D03*
Y1570000D02*
D03*
Y1470000D02*
D03*
X2604414Y1370000D02*
D03*
Y1470000D02*
D03*
D90*
X2375000Y1570000D02*
D03*
X2604414D02*
D03*
D91*
X3243394Y435000D02*
D03*
X3282764Y395630D02*
D03*
X3243394Y490118D02*
D03*
Y545237D02*
D03*
X3282764Y584607D02*
D03*
X3337882Y395630D02*
D03*
X3393000D02*
D03*
X3365441Y462559D02*
D03*
X3432370Y435000D02*
D03*
X3310323Y462559D02*
D03*
Y517678D02*
D03*
X3365441D02*
D03*
X3391819Y584607D02*
D03*
X3336424Y585243D02*
D03*
X3432370Y545237D02*
D03*
Y490118D02*
D03*
D92*
X1395000Y546221D02*
D03*
D93*
Y310000D02*
D03*
D94*
X1580039Y428110D02*
D03*
D95*
X892286Y137000D02*
D03*
X992286Y437000D02*
D03*
Y137000D02*
D03*
X1092286D02*
D03*
Y437000D02*
D03*
X414000Y137000D02*
D03*
X514000Y437000D02*
D03*
Y137000D02*
D03*
X614000D02*
D03*
Y437000D02*
D03*
X1758166Y137000D02*
D03*
X1858166Y437000D02*
D03*
Y137000D02*
D03*
X1958166D02*
D03*
Y437000D02*
D03*
D96*
X892286D02*
D03*
X414000D02*
D03*
X1758166D02*
D03*
D97*
X2755000Y1860000D02*
D03*
X3190000D02*
D03*
%TF.MD5,2cc6099b4f3822ce09ec9714f5166b86*%
M02*
