%TF.GenerationSoftware,Altium Limited,Altium Designer,23.4.1 (23)*%
G04 Layer_Color=255*
%FSLAX26Y26*%
%MOIN*%
%TF.SameCoordinates,C984E364-D40C-4CF4-8751-E295BDF5E6C2*%
%TF.FilePolarity,Positive*%
%TF.FileFunction,Pads,Bot*%
%TF.Part,Single*%
G01*
G75*
%TA.AperFunction,ComponentPad*%
%ADD36O,0.047244X0.098425*%
%ADD37C,0.023622*%
%ADD38R,0.064961X0.064961*%
%ADD39C,0.064961*%
%ADD40C,0.236220*%
%ADD41C,0.070866*%
%ADD42R,0.070866X0.070866*%
%ADD43C,0.017716*%
%ADD44R,0.157480X0.078740*%
%ADD45R,0.078740X0.157480*%
%ADD46R,0.173228X0.086614*%
%ADD47C,0.078740*%
%ADD48R,0.078740X0.078740*%
%ADD49R,0.078740X0.078740*%
%ADD50R,0.070866X0.070866*%
D36*
X2192724Y68496D02*
D03*
Y232669D02*
D03*
X2533276Y68496D02*
D03*
Y232669D02*
D03*
D37*
X2249220Y213378D02*
D03*
X2476780D02*
D03*
D38*
X3776999Y1568543D02*
D03*
D39*
Y1468543D02*
D03*
Y1268543D02*
D03*
Y1168543D02*
D03*
Y1368543D02*
D03*
D40*
X2716535Y157480D02*
D03*
X157481Y157481D02*
D03*
X3779528Y1771653D02*
D03*
X2362205Y1771654D02*
D03*
X157481D02*
D03*
D41*
X2275000Y1370000D02*
D03*
Y1570000D02*
D03*
Y1470000D02*
D03*
X2375000Y1370000D02*
D03*
Y1470000D02*
D03*
X2755000Y1760000D02*
D03*
X2955000D02*
D03*
X2855000D02*
D03*
Y1860000D02*
D03*
X2955000D02*
D03*
X3190000Y1760000D02*
D03*
X3390000D02*
D03*
X3290000D02*
D03*
Y1860000D02*
D03*
X3390000D02*
D03*
X2504414Y1370000D02*
D03*
Y1570000D02*
D03*
Y1470000D02*
D03*
X2604414Y1370000D02*
D03*
Y1470000D02*
D03*
D42*
X2375000Y1570000D02*
D03*
X2604414D02*
D03*
D43*
X3243394Y490119D02*
D03*
Y545237D02*
D03*
Y435000D02*
D03*
X3282764Y584607D02*
D03*
Y395630D02*
D03*
X3337882D02*
D03*
X3393001D02*
D03*
X3365441Y462560D02*
D03*
X3432371Y435000D02*
D03*
X3310323Y462560D02*
D03*
Y517678D02*
D03*
X3365441D02*
D03*
X3391819Y584607D02*
D03*
X3336424Y585243D02*
D03*
X3432371Y545237D02*
D03*
Y490119D02*
D03*
D44*
X1395000Y310000D02*
D03*
D45*
X1580039Y428110D02*
D03*
D46*
X1395000Y546221D02*
D03*
D47*
X526772Y1692913D02*
D03*
X376772D02*
D03*
X676772D02*
D03*
X157481Y401370D02*
D03*
X1825984Y1692913D02*
D03*
X1675984D02*
D03*
X1975984D02*
D03*
X1176378D02*
D03*
X1026378D02*
D03*
X1326378D02*
D03*
D48*
X826772D02*
D03*
X2125984D02*
D03*
X1476378D02*
D03*
D49*
X157481Y551370D02*
D03*
D50*
X2755000Y1860000D02*
D03*
X3190000D02*
D03*
%TF.MD5,7c859b664e0c9b7a6fd7c04799a4ac1c*%
M02*
