%TF.GenerationSoftware,Altium Limited,Altium Designer,22.11.1 (43)*%
G04 Layer_Physical_Order=2*
G04 Layer_Color=36540*
%FSLAX26Y26*%
%MOIN*%
%TF.SameCoordinates,7A21CAC7-823E-4026-81AB-88AB86373CC7*%
%TF.FilePolarity,Positive*%
%TF.FileFunction,Copper,L2,Inr,Signal*%
%TF.Part,Single*%
G01*
G75*
%TA.AperFunction,Conductor*%
%ADD30C,0.010000*%
%TA.AperFunction,ComponentPad*%
%ADD33C,0.078740*%
%ADD34C,0.023622*%
%ADD35O,0.098425X0.047244*%
%ADD36C,0.064961*%
%ADD37C,0.070866*%
%ADD38R,0.070866X0.070866*%
%ADD39R,0.078740X0.157480*%
%ADD40R,0.086614X0.173228*%
%ADD41R,0.157480X0.078740*%
%ADD42C,0.062992*%
%ADD43R,0.070866X0.070866*%
%TA.AperFunction,ViaPad*%
%ADD44C,0.017716*%
%ADD45C,0.020000*%
G36*
X3937008D02*
X0D01*
Y3937008D01*
X3937008D01*
Y0D01*
D02*
G37*
%LPC*%
G36*
X1341975Y3828839D02*
X1330292D01*
X1319007Y3825815D01*
X1308890Y3819974D01*
X1300629Y3811713D01*
X1294787Y3801595D01*
X1291764Y3790310D01*
Y3778627D01*
X1294787Y3767343D01*
X1300629Y3757225D01*
X1308890Y3748964D01*
X1319007Y3743122D01*
X1330292Y3740099D01*
X1341975D01*
X1353260Y3743122D01*
X1363378Y3748964D01*
X1371639Y3757225D01*
X1377480Y3767343D01*
X1380504Y3778627D01*
Y3790310D01*
X1377480Y3801595D01*
X1371639Y3811713D01*
X1363378Y3819974D01*
X1353260Y3825815D01*
X1341975Y3828839D01*
D02*
G37*
G36*
X1191975D02*
X1180292D01*
X1169007Y3825815D01*
X1158890Y3819974D01*
X1150629Y3811713D01*
X1144787Y3801595D01*
X1141764Y3790310D01*
Y3778627D01*
X1144787Y3767343D01*
X1150629Y3757225D01*
X1158890Y3748964D01*
X1169007Y3743122D01*
X1180292Y3740099D01*
X1191975D01*
X1203260Y3743122D01*
X1213378Y3748964D01*
X1221639Y3757225D01*
X1227480Y3767343D01*
X1230504Y3778627D01*
Y3790310D01*
X1227480Y3801595D01*
X1221639Y3811713D01*
X1213378Y3819974D01*
X1203260Y3825815D01*
X1191975Y3828839D01*
D02*
G37*
G36*
X1041975D02*
X1030292D01*
X1019008Y3825815D01*
X1008890Y3819974D01*
X1000629Y3811713D01*
X994787Y3801595D01*
X991764Y3790310D01*
Y3778627D01*
X994787Y3767343D01*
X1000629Y3757225D01*
X1008890Y3748964D01*
X1019008Y3743122D01*
X1030292Y3740099D01*
X1041975D01*
X1053260Y3743122D01*
X1063378Y3748964D01*
X1071639Y3757225D01*
X1077480Y3767343D01*
X1080504Y3778627D01*
Y3790310D01*
X1077480Y3801595D01*
X1071639Y3811713D01*
X1063378Y3819974D01*
X1053260Y3825815D01*
X1041975Y3828839D01*
D02*
G37*
G36*
X891975D02*
X880292D01*
X869008Y3825815D01*
X858890Y3819974D01*
X850629Y3811713D01*
X844787Y3801595D01*
X841764Y3790310D01*
Y3778627D01*
X844787Y3767343D01*
X850629Y3757225D01*
X858890Y3748964D01*
X869008Y3743122D01*
X880292Y3740099D01*
X891975D01*
X903260Y3743122D01*
X913378Y3748964D01*
X921639Y3757225D01*
X927480Y3767343D01*
X930504Y3778627D01*
Y3790310D01*
X927480Y3801595D01*
X921639Y3811713D01*
X913378Y3819974D01*
X903260Y3825815D01*
X891975Y3828839D01*
D02*
G37*
G36*
X2233841Y3828370D02*
X2222159D01*
X2210874Y3825346D01*
X2200756Y3819505D01*
X2192495Y3811244D01*
X2186654Y3801126D01*
X2183630Y3789841D01*
Y3778159D01*
X2186654Y3766874D01*
X2192495Y3756756D01*
X2200756Y3748495D01*
X2210874Y3742654D01*
X2222159Y3739630D01*
X2233841D01*
X2245126Y3742654D01*
X2255244Y3748495D01*
X2263505Y3756756D01*
X2269346Y3766874D01*
X2272370Y3778159D01*
Y3789841D01*
X2269346Y3801126D01*
X2263505Y3811244D01*
X2255244Y3819505D01*
X2245126Y3825346D01*
X2233841Y3828370D01*
D02*
G37*
G36*
X2083841D02*
X2072159D01*
X2060874Y3825346D01*
X2050756Y3819505D01*
X2042495Y3811244D01*
X2036654Y3801126D01*
X2033630Y3789841D01*
Y3778159D01*
X2036654Y3766874D01*
X2042495Y3756756D01*
X2050756Y3748495D01*
X2060874Y3742654D01*
X2072159Y3739630D01*
X2083841D01*
X2095126Y3742654D01*
X2105244Y3748495D01*
X2113505Y3756756D01*
X2119346Y3766874D01*
X2122370Y3778159D01*
Y3789841D01*
X2119346Y3801126D01*
X2113505Y3811244D01*
X2105244Y3819505D01*
X2095126Y3825346D01*
X2083841Y3828370D01*
D02*
G37*
G36*
X1933841D02*
X1922159D01*
X1910874Y3825346D01*
X1900756Y3819505D01*
X1892495Y3811244D01*
X1886654Y3801126D01*
X1883630Y3789841D01*
Y3778159D01*
X1886654Y3766874D01*
X1892495Y3756756D01*
X1900756Y3748495D01*
X1910874Y3742654D01*
X1922159Y3739630D01*
X1933841D01*
X1945126Y3742654D01*
X1955244Y3748495D01*
X1963505Y3756756D01*
X1969346Y3766874D01*
X1972370Y3778159D01*
Y3789841D01*
X1969346Y3801126D01*
X1963505Y3811244D01*
X1955244Y3819505D01*
X1945126Y3825346D01*
X1933841Y3828370D01*
D02*
G37*
G36*
X1783841D02*
X1772159D01*
X1760874Y3825346D01*
X1750756Y3819505D01*
X1742495Y3811244D01*
X1736654Y3801126D01*
X1733630Y3789841D01*
Y3778159D01*
X1736654Y3766874D01*
X1742495Y3756756D01*
X1750756Y3748495D01*
X1760874Y3742654D01*
X1772159Y3739630D01*
X1783841D01*
X1795126Y3742654D01*
X1805244Y3748495D01*
X1813505Y3756756D01*
X1819346Y3766874D01*
X1822370Y3778159D01*
Y3789841D01*
X1819346Y3801126D01*
X1813505Y3811244D01*
X1805244Y3819505D01*
X1795126Y3825346D01*
X1783841Y3828370D01*
D02*
G37*
G36*
X3163928Y3826370D02*
X3152245D01*
X3140960Y3823346D01*
X3130843Y3817505D01*
X3122582Y3809244D01*
X3116740Y3799126D01*
X3113716Y3787841D01*
Y3776159D01*
X3116740Y3764874D01*
X3122582Y3754756D01*
X3130843Y3746495D01*
X3140960Y3740654D01*
X3152245Y3737630D01*
X3163928D01*
X3175213Y3740654D01*
X3185331Y3746495D01*
X3193591Y3754756D01*
X3199433Y3764874D01*
X3202457Y3776159D01*
Y3787841D01*
X3199433Y3799126D01*
X3193591Y3809244D01*
X3185331Y3817505D01*
X3175213Y3823346D01*
X3163928Y3826370D01*
D02*
G37*
G36*
X3013928D02*
X3002245D01*
X2990960Y3823346D01*
X2980843Y3817505D01*
X2972582Y3809244D01*
X2966740Y3799126D01*
X2963716Y3787841D01*
Y3776159D01*
X2966740Y3764874D01*
X2972582Y3754756D01*
X2980843Y3746495D01*
X2990960Y3740654D01*
X3002245Y3737630D01*
X3013928D01*
X3025213Y3740654D01*
X3035331Y3746495D01*
X3043591Y3754756D01*
X3049433Y3764874D01*
X3052457Y3776159D01*
Y3787841D01*
X3049433Y3799126D01*
X3043591Y3809244D01*
X3035331Y3817505D01*
X3025213Y3823346D01*
X3013928Y3826370D01*
D02*
G37*
G36*
X2863928D02*
X2852245D01*
X2840960Y3823346D01*
X2830843Y3817505D01*
X2822582Y3809244D01*
X2816740Y3799126D01*
X2813716Y3787841D01*
Y3776159D01*
X2816740Y3764874D01*
X2822582Y3754756D01*
X2830843Y3746495D01*
X2840960Y3740654D01*
X2852245Y3737630D01*
X2863928D01*
X2875213Y3740654D01*
X2885331Y3746495D01*
X2893591Y3754756D01*
X2899433Y3764874D01*
X2902457Y3776159D01*
Y3787841D01*
X2899433Y3799126D01*
X2893591Y3809244D01*
X2885331Y3817505D01*
X2875213Y3823346D01*
X2863928Y3826370D01*
D02*
G37*
G36*
X2713928D02*
X2702245D01*
X2690960Y3823346D01*
X2680843Y3817505D01*
X2672582Y3809244D01*
X2666740Y3799126D01*
X2663716Y3787841D01*
Y3776159D01*
X2666740Y3764874D01*
X2672582Y3754756D01*
X2680843Y3746495D01*
X2690960Y3740654D01*
X2702245Y3737630D01*
X2713928D01*
X2725213Y3740654D01*
X2735331Y3746495D01*
X2743591Y3754756D01*
X2749433Y3764874D01*
X2752457Y3776159D01*
Y3787841D01*
X2749433Y3799126D01*
X2743591Y3809244D01*
X2735331Y3817505D01*
X2725213Y3823346D01*
X2713928Y3826370D01*
D02*
G37*
G36*
X960648Y3281921D02*
X952691D01*
X945340Y3278876D01*
X939714Y3273250D01*
X936669Y3265899D01*
Y3257943D01*
X939714Y3250592D01*
X945340Y3244966D01*
X952691Y3241921D01*
X960648D01*
X967998Y3244966D01*
X973625Y3250592D01*
X976669Y3257943D01*
Y3265899D01*
X973625Y3273250D01*
X967998Y3278876D01*
X960648Y3281921D01*
D02*
G37*
G36*
X876134D02*
X868178D01*
X860827Y3278876D01*
X855201Y3273250D01*
X852156Y3265899D01*
Y3257943D01*
X855201Y3250592D01*
X860827Y3244966D01*
X868178Y3241921D01*
X876134D01*
X883485Y3244966D01*
X889111Y3250592D01*
X892156Y3257943D01*
Y3265899D01*
X889111Y3273250D01*
X883485Y3278876D01*
X876134Y3281921D01*
D02*
G37*
G36*
X801956D02*
X794000D01*
X786649Y3278876D01*
X781023Y3273250D01*
X777978Y3265899D01*
Y3257943D01*
X781023Y3250592D01*
X786649Y3244966D01*
X794000Y3241921D01*
X801956D01*
X809307Y3244966D01*
X814933Y3250592D01*
X817978Y3257943D01*
Y3265899D01*
X814933Y3273250D01*
X809307Y3278876D01*
X801956Y3281921D01*
D02*
G37*
G36*
X1862159Y3281452D02*
X1854203D01*
X1846852Y3278407D01*
X1841226Y3272781D01*
X1838181Y3265430D01*
Y3257474D01*
X1841226Y3250123D01*
X1846852Y3244497D01*
X1854203Y3241452D01*
X1862159D01*
X1869510Y3244497D01*
X1875136Y3250123D01*
X1878181Y3257474D01*
Y3265430D01*
X1875136Y3272781D01*
X1869510Y3278407D01*
X1862159Y3281452D01*
D02*
G37*
G36*
X1777646D02*
X1769689D01*
X1762338Y3278407D01*
X1756712Y3272781D01*
X1753668Y3265430D01*
Y3257474D01*
X1756712Y3250123D01*
X1762338Y3244497D01*
X1769689Y3241452D01*
X1777646D01*
X1784997Y3244497D01*
X1790623Y3250123D01*
X1793668Y3257474D01*
Y3265430D01*
X1790623Y3272781D01*
X1784997Y3278407D01*
X1777646Y3281452D01*
D02*
G37*
G36*
X1703468D02*
X1695512D01*
X1688161Y3278407D01*
X1682535Y3272781D01*
X1679490Y3265430D01*
Y3257474D01*
X1682535Y3250123D01*
X1688161Y3244497D01*
X1695512Y3241452D01*
X1703468D01*
X1710819Y3244497D01*
X1716445Y3250123D01*
X1719490Y3257474D01*
Y3265430D01*
X1716445Y3272781D01*
X1710819Y3278407D01*
X1703468Y3281452D01*
D02*
G37*
G36*
X2778159Y3279452D02*
X2770203D01*
X2762852Y3276407D01*
X2757226Y3270781D01*
X2754181Y3263430D01*
Y3255474D01*
X2757226Y3248123D01*
X2762852Y3242497D01*
X2770203Y3239452D01*
X2778159D01*
X2785510Y3242497D01*
X2791136Y3248123D01*
X2794181Y3255474D01*
Y3263430D01*
X2791136Y3270781D01*
X2785510Y3276407D01*
X2778159Y3279452D01*
D02*
G37*
G36*
X2693646D02*
X2685689D01*
X2678338Y3276407D01*
X2672712Y3270781D01*
X2669668Y3263430D01*
Y3255474D01*
X2672712Y3248123D01*
X2678338Y3242497D01*
X2685689Y3239452D01*
X2693646D01*
X2700997Y3242497D01*
X2706623Y3248123D01*
X2709668Y3255474D01*
Y3263430D01*
X2706623Y3270781D01*
X2700997Y3276407D01*
X2693646Y3279452D01*
D02*
G37*
G36*
X2619468D02*
X2611512D01*
X2604161Y3276407D01*
X2598535Y3270781D01*
X2595490Y3263430D01*
Y3255474D01*
X2598535Y3248123D01*
X2604161Y3242497D01*
X2611512Y3239452D01*
X2619468D01*
X2626819Y3242497D01*
X2632445Y3248123D01*
X2635490Y3255474D01*
Y3263430D01*
X2632445Y3270781D01*
X2626819Y3276407D01*
X2619468Y3279452D01*
D02*
G37*
G36*
X1427285Y3252938D02*
X1419329D01*
X1411978Y3249893D01*
X1406352Y3244267D01*
X1403307Y3236916D01*
Y3228959D01*
X1406352Y3221608D01*
X1411978Y3215982D01*
X1419329Y3212938D01*
X1427285D01*
X1434636Y3215982D01*
X1440262Y3221608D01*
X1443307Y3228959D01*
Y3236916D01*
X1440262Y3244267D01*
X1434636Y3249893D01*
X1427285Y3252938D01*
D02*
G37*
G36*
X1344608D02*
X1336652D01*
X1329301Y3249893D01*
X1323675Y3244267D01*
X1320630Y3236916D01*
Y3228959D01*
X1323675Y3221608D01*
X1329301Y3215982D01*
X1336652Y3212938D01*
X1344608D01*
X1351959Y3215982D01*
X1357585Y3221608D01*
X1360630Y3228959D01*
Y3236916D01*
X1357585Y3244267D01*
X1351959Y3249893D01*
X1344608Y3252938D01*
D02*
G37*
G36*
X1272978D02*
X1265022D01*
X1257671Y3249893D01*
X1252045Y3244267D01*
X1249000Y3236916D01*
Y3228959D01*
X1252045Y3221608D01*
X1257671Y3215982D01*
X1265022Y3212938D01*
X1272978D01*
X1280329Y3215982D01*
X1285955Y3221608D01*
X1289000Y3228959D01*
Y3236916D01*
X1285955Y3244267D01*
X1280329Y3249893D01*
X1272978Y3252938D01*
D02*
G37*
G36*
X2328797Y3252469D02*
X2320841D01*
X2313490Y3249424D01*
X2307864Y3243798D01*
X2304819Y3236447D01*
Y3228491D01*
X2307864Y3221140D01*
X2313490Y3215514D01*
X2320841Y3212469D01*
X2328797D01*
X2336148Y3215514D01*
X2341774Y3221140D01*
X2344819Y3228491D01*
Y3236447D01*
X2341774Y3243798D01*
X2336148Y3249424D01*
X2328797Y3252469D01*
D02*
G37*
G36*
X2246120D02*
X2238164D01*
X2230813Y3249424D01*
X2225186Y3243798D01*
X2222142Y3236447D01*
Y3228491D01*
X2225186Y3221140D01*
X2230813Y3215514D01*
X2238164Y3212469D01*
X2246120D01*
X2253471Y3215514D01*
X2259097Y3221140D01*
X2262142Y3228491D01*
Y3236447D01*
X2259097Y3243798D01*
X2253471Y3249424D01*
X2246120Y3252469D01*
D02*
G37*
G36*
X2174490D02*
X2166534D01*
X2159183Y3249424D01*
X2153557Y3243798D01*
X2150512Y3236447D01*
Y3228491D01*
X2153557Y3221140D01*
X2159183Y3215514D01*
X2166534Y3212469D01*
X2174490D01*
X2181841Y3215514D01*
X2187467Y3221140D01*
X2190512Y3228491D01*
Y3236447D01*
X2187467Y3243798D01*
X2181841Y3249424D01*
X2174490Y3252469D01*
D02*
G37*
G36*
X3244797Y3250469D02*
X3236841D01*
X3229490Y3247424D01*
X3223864Y3241798D01*
X3220819Y3234447D01*
Y3226491D01*
X3223864Y3219140D01*
X3229490Y3213514D01*
X3236841Y3210469D01*
X3244797D01*
X3252148Y3213514D01*
X3257774Y3219140D01*
X3260819Y3226491D01*
Y3234447D01*
X3257774Y3241798D01*
X3252148Y3247424D01*
X3244797Y3250469D01*
D02*
G37*
G36*
X3162120D02*
X3154164D01*
X3146813Y3247424D01*
X3141186Y3241798D01*
X3138142Y3234447D01*
Y3226491D01*
X3141186Y3219140D01*
X3146813Y3213514D01*
X3154164Y3210469D01*
X3162120D01*
X3169471Y3213514D01*
X3175097Y3219140D01*
X3178142Y3226491D01*
Y3234447D01*
X3175097Y3241798D01*
X3169471Y3247424D01*
X3162120Y3250469D01*
D02*
G37*
G36*
X3090490D02*
X3082534D01*
X3075183Y3247424D01*
X3069557Y3241798D01*
X3066512Y3234447D01*
Y3226491D01*
X3069557Y3219140D01*
X3075183Y3213514D01*
X3082534Y3210469D01*
X3090490D01*
X3097841Y3213514D01*
X3103467Y3219140D01*
X3106512Y3226491D01*
Y3234447D01*
X3103467Y3241798D01*
X3097841Y3247424D01*
X3090490Y3250469D01*
D02*
G37*
G36*
X1051978Y3246162D02*
X1044022D01*
X1036671Y3243117D01*
X1031045Y3237491D01*
X1028000Y3230140D01*
Y3222184D01*
X1031045Y3214833D01*
X1036671Y3209207D01*
X1044022Y3206162D01*
X1051978D01*
X1059329Y3209207D01*
X1064955Y3214833D01*
X1068000Y3222184D01*
Y3230140D01*
X1064955Y3237491D01*
X1059329Y3243117D01*
X1051978Y3246162D01*
D02*
G37*
G36*
X1953490Y3245693D02*
X1945534D01*
X1938183Y3242649D01*
X1932557Y3237023D01*
X1929512Y3229672D01*
Y3221715D01*
X1932557Y3214364D01*
X1938183Y3208738D01*
X1945534Y3205693D01*
X1953490D01*
X1960841Y3208738D01*
X1966467Y3214364D01*
X1969512Y3221715D01*
Y3229672D01*
X1966467Y3237023D01*
X1960841Y3242649D01*
X1953490Y3245693D01*
D02*
G37*
G36*
X2869490Y3243693D02*
X2861534D01*
X2854183Y3240649D01*
X2848557Y3235023D01*
X2845512Y3227672D01*
Y3219715D01*
X2848557Y3212364D01*
X2854183Y3206738D01*
X2861534Y3203693D01*
X2869490D01*
X2876841Y3206738D01*
X2882467Y3212364D01*
X2885512Y3219715D01*
Y3227672D01*
X2882467Y3235023D01*
X2876841Y3240649D01*
X2869490Y3243693D01*
D02*
G37*
G36*
X613528Y3315614D02*
X516913D01*
Y3132386D01*
X613528D01*
Y3315614D01*
D02*
G37*
G36*
X997978Y3157938D02*
X990022D01*
X982671Y3154893D01*
X977045Y3149267D01*
X974000Y3141916D01*
Y3133959D01*
X977045Y3126608D01*
X982671Y3120982D01*
X990022Y3117938D01*
X997978D01*
X1005329Y3120982D01*
X1010955Y3126608D01*
X1014000Y3133959D01*
Y3141916D01*
X1010955Y3149267D01*
X1005329Y3154893D01*
X997978Y3157938D01*
D02*
G37*
G36*
X1899490Y3157469D02*
X1891534D01*
X1884183Y3154424D01*
X1878557Y3148798D01*
X1875512Y3141447D01*
Y3133491D01*
X1878557Y3126140D01*
X1884183Y3120514D01*
X1891534Y3117469D01*
X1899490D01*
X1906841Y3120514D01*
X1912467Y3126140D01*
X1915512Y3133491D01*
Y3141447D01*
X1912467Y3148798D01*
X1906841Y3154424D01*
X1899490Y3157469D01*
D02*
G37*
G36*
X2815490Y3155469D02*
X2807534D01*
X2800183Y3152424D01*
X2794557Y3146798D01*
X2791512Y3139447D01*
Y3131491D01*
X2794557Y3124140D01*
X2800183Y3118514D01*
X2807534Y3115469D01*
X2815490D01*
X2822841Y3118514D01*
X2828467Y3124140D01*
X2831512Y3131491D01*
Y3139447D01*
X2828467Y3146798D01*
X2822841Y3152424D01*
X2815490Y3155469D01*
D02*
G37*
G36*
X1311978Y3153938D02*
X1304022D01*
X1296671Y3150893D01*
X1291045Y3145267D01*
X1288000Y3137916D01*
Y3129959D01*
X1291045Y3122608D01*
X1296671Y3116982D01*
X1304022Y3113938D01*
X1311978D01*
X1319329Y3116982D01*
X1324955Y3122608D01*
X1328000Y3129959D01*
Y3137916D01*
X1324955Y3145267D01*
X1319329Y3150893D01*
X1311978Y3153938D01*
D02*
G37*
G36*
X2213490Y3153469D02*
X2205534D01*
X2198183Y3150424D01*
X2192557Y3144798D01*
X2189512Y3137447D01*
Y3129491D01*
X2192557Y3122140D01*
X2198183Y3116514D01*
X2205534Y3113469D01*
X2213490D01*
X2220841Y3116514D01*
X2226467Y3122140D01*
X2229512Y3129491D01*
Y3137447D01*
X2226467Y3144798D01*
X2220841Y3150424D01*
X2213490Y3153469D01*
D02*
G37*
G36*
X3129490Y3151469D02*
X3121534D01*
X3114183Y3148424D01*
X3108557Y3142798D01*
X3105512Y3135447D01*
Y3127491D01*
X3108557Y3120140D01*
X3114183Y3114514D01*
X3121534Y3111469D01*
X3129490D01*
X3136841Y3114514D01*
X3142467Y3120140D01*
X3145512Y3127491D01*
Y3135447D01*
X3142467Y3142798D01*
X3136841Y3148424D01*
X3129490Y3151469D01*
D02*
G37*
G36*
X1011782Y3110809D02*
X1003826D01*
X996475Y3107764D01*
X990849Y3102138D01*
X987804Y3094787D01*
Y3086831D01*
X990849Y3079480D01*
X996475Y3073854D01*
X1003826Y3070809D01*
X1011782D01*
X1019133Y3073854D01*
X1024759Y3079480D01*
X1027804Y3086831D01*
Y3094787D01*
X1024759Y3102138D01*
X1019133Y3107764D01*
X1011782Y3110809D01*
D02*
G37*
G36*
X821956D02*
X814000D01*
X806649Y3107764D01*
X801023Y3102138D01*
X797978Y3094787D01*
Y3086831D01*
X801023Y3079480D01*
X806649Y3073854D01*
X814000Y3070809D01*
X821956D01*
X829307Y3073854D01*
X834933Y3079480D01*
X837978Y3086831D01*
Y3094787D01*
X834933Y3102138D01*
X829307Y3107764D01*
X821956Y3110809D01*
D02*
G37*
G36*
X1913294Y3110340D02*
X1905338D01*
X1897987Y3107295D01*
X1892361Y3101669D01*
X1889316Y3094318D01*
Y3086362D01*
X1892361Y3079011D01*
X1897987Y3073385D01*
X1905338Y3070340D01*
X1913294D01*
X1920645Y3073385D01*
X1926271Y3079011D01*
X1929316Y3086362D01*
Y3094318D01*
X1926271Y3101669D01*
X1920645Y3107295D01*
X1913294Y3110340D01*
D02*
G37*
G36*
X1723468D02*
X1715512D01*
X1708161Y3107295D01*
X1702535Y3101669D01*
X1699490Y3094318D01*
Y3086362D01*
X1702535Y3079011D01*
X1708161Y3073385D01*
X1715512Y3070340D01*
X1723468D01*
X1730819Y3073385D01*
X1736445Y3079011D01*
X1739490Y3086362D01*
Y3094318D01*
X1736445Y3101669D01*
X1730819Y3107295D01*
X1723468Y3110340D01*
D02*
G37*
G36*
X2829294Y3108340D02*
X2821338D01*
X2813987Y3105295D01*
X2808361Y3099669D01*
X2805316Y3092318D01*
Y3084362D01*
X2808361Y3077011D01*
X2813987Y3071385D01*
X2821338Y3068340D01*
X2829294D01*
X2836645Y3071385D01*
X2842271Y3077011D01*
X2845316Y3084362D01*
Y3092318D01*
X2842271Y3099669D01*
X2836645Y3105295D01*
X2829294Y3108340D01*
D02*
G37*
G36*
X2639468D02*
X2631512D01*
X2624161Y3105295D01*
X2618535Y3099669D01*
X2615490Y3092318D01*
Y3084362D01*
X2618535Y3077011D01*
X2624161Y3071385D01*
X2631512Y3068340D01*
X2639468D01*
X2646819Y3071385D01*
X2652445Y3077011D01*
X2655490Y3084362D01*
Y3092318D01*
X2652445Y3099669D01*
X2646819Y3105295D01*
X2639468Y3108340D01*
D02*
G37*
G36*
X1302509Y3100622D02*
X1294553D01*
X1287202Y3097578D01*
X1281576Y3091952D01*
X1278531Y3084601D01*
Y3076644D01*
X1281576Y3069293D01*
X1287202Y3063667D01*
X1294553Y3060622D01*
X1302509D01*
X1309860Y3063667D01*
X1315486Y3069293D01*
X1318531Y3076644D01*
Y3084601D01*
X1315486Y3091952D01*
X1309860Y3097578D01*
X1302509Y3100622D01*
D02*
G37*
G36*
X2204490Y3100154D02*
X2196534D01*
X2189183Y3097109D01*
X2183557Y3091483D01*
X2180512Y3084132D01*
Y3076175D01*
X2183557Y3068825D01*
X2189183Y3063198D01*
X2196534Y3060154D01*
X2204490D01*
X2211841Y3063198D01*
X2217467Y3068825D01*
X2220512Y3076175D01*
Y3084132D01*
X2217467Y3091483D01*
X2211841Y3097109D01*
X2204490Y3100154D01*
D02*
G37*
G36*
X3123903Y3098154D02*
X3115947D01*
X3108596Y3095109D01*
X3102970Y3089483D01*
X3099925Y3082132D01*
Y3074175D01*
X3102970Y3066825D01*
X3108596Y3061198D01*
X3115947Y3058154D01*
X3123903D01*
X3131254Y3061198D01*
X3136880Y3066825D01*
X3139925Y3074175D01*
Y3082132D01*
X3136880Y3089483D01*
X3131254Y3095109D01*
X3123903Y3098154D01*
D02*
G37*
G36*
X1272978Y2997128D02*
X1265022D01*
X1257671Y2994083D01*
X1252045Y2988457D01*
X1249000Y2981106D01*
Y2973149D01*
X1252045Y2965798D01*
X1257671Y2960172D01*
X1265022Y2957128D01*
X1272978D01*
X1280329Y2960172D01*
X1285955Y2965798D01*
X1289000Y2973149D01*
Y2981106D01*
X1285955Y2988457D01*
X1280329Y2994083D01*
X1272978Y2997128D01*
D02*
G37*
G36*
X2174490Y2996659D02*
X2166534D01*
X2159183Y2993614D01*
X2153557Y2987988D01*
X2150512Y2980637D01*
Y2972680D01*
X2153557Y2965330D01*
X2159183Y2959704D01*
X2166534Y2956659D01*
X2174490D01*
X2181841Y2959704D01*
X2187467Y2965330D01*
X2190512Y2972680D01*
Y2980637D01*
X2187467Y2987988D01*
X2181841Y2993614D01*
X2174490Y2996659D01*
D02*
G37*
G36*
X3090490Y2994659D02*
X3082534D01*
X3075183Y2991614D01*
X3069557Y2985988D01*
X3066512Y2978637D01*
Y2970680D01*
X3069557Y2963330D01*
X3075183Y2957704D01*
X3082534Y2954659D01*
X3090490D01*
X3097841Y2957704D01*
X3103467Y2963330D01*
X3106512Y2970680D01*
Y2978637D01*
X3103467Y2985988D01*
X3097841Y2991614D01*
X3090490Y2994659D01*
D02*
G37*
G36*
X1427285Y2980961D02*
X1419329D01*
X1411978Y2977916D01*
X1406352Y2972290D01*
X1403307Y2964939D01*
Y2956983D01*
X1406352Y2949632D01*
X1411978Y2944006D01*
X1419329Y2940961D01*
X1427285D01*
X1434636Y2944006D01*
X1440262Y2949632D01*
X1443307Y2956983D01*
Y2964939D01*
X1440262Y2972290D01*
X1434636Y2977916D01*
X1427285Y2980961D01*
D02*
G37*
G36*
X2328797Y2980492D02*
X2320841D01*
X2313490Y2977447D01*
X2307864Y2971821D01*
X2304819Y2964470D01*
Y2956514D01*
X2307864Y2949163D01*
X2313490Y2943537D01*
X2320841Y2940492D01*
X2328797D01*
X2336148Y2943537D01*
X2341774Y2949163D01*
X2344819Y2956514D01*
Y2964470D01*
X2341774Y2971821D01*
X2336148Y2977447D01*
X2328797Y2980492D01*
D02*
G37*
G36*
X3244797Y2978492D02*
X3236841D01*
X3229490Y2975447D01*
X3223864Y2969821D01*
X3220819Y2962470D01*
Y2954514D01*
X3223864Y2947163D01*
X3229490Y2941537D01*
X3236841Y2938492D01*
X3244797D01*
X3252148Y2941537D01*
X3257774Y2947163D01*
X3260819Y2954514D01*
Y2962470D01*
X3257774Y2969821D01*
X3252148Y2975447D01*
X3244797Y2978492D01*
D02*
G37*
G36*
X817978Y2972764D02*
X810022D01*
X802671Y2969720D01*
X797045Y2964093D01*
X794000Y2956743D01*
Y2948786D01*
X797045Y2941435D01*
X802671Y2935809D01*
X810022Y2932764D01*
X817978D01*
X825329Y2935809D01*
X830955Y2941435D01*
X834000Y2948786D01*
Y2956743D01*
X830955Y2964093D01*
X825329Y2969720D01*
X817978Y2972764D01*
D02*
G37*
G36*
X1719490Y2972296D02*
X1711534D01*
X1704183Y2969251D01*
X1698557Y2963625D01*
X1695512Y2956274D01*
Y2948317D01*
X1698557Y2940966D01*
X1704183Y2935340D01*
X1711534Y2932296D01*
X1719490D01*
X1726841Y2935340D01*
X1732467Y2940966D01*
X1735512Y2948317D01*
Y2956274D01*
X1732467Y2963625D01*
X1726841Y2969251D01*
X1719490Y2972296D01*
D02*
G37*
G36*
X2635490Y2970296D02*
X2627534D01*
X2620183Y2967251D01*
X2614557Y2961625D01*
X2611512Y2954274D01*
Y2946317D01*
X2614557Y2938966D01*
X2620183Y2933340D01*
X2627534Y2930296D01*
X2635490D01*
X2642841Y2933340D01*
X2648467Y2938966D01*
X2651512Y2946317D01*
Y2954274D01*
X2648467Y2961625D01*
X2642841Y2967251D01*
X2635490Y2970296D01*
D02*
G37*
G36*
X1207348Y2922198D02*
X1199392D01*
X1192041Y2919153D01*
X1186415Y2913527D01*
X1183370Y2906176D01*
Y2898219D01*
X1186415Y2890868D01*
X1192041Y2885242D01*
X1199392Y2882198D01*
X1207348D01*
X1214699Y2885242D01*
X1220325Y2890868D01*
X1223370Y2898219D01*
Y2906176D01*
X1220325Y2913527D01*
X1214699Y2919153D01*
X1207348Y2922198D01*
D02*
G37*
G36*
X2108860Y2921729D02*
X2100904D01*
X2093553Y2918684D01*
X2087927Y2913058D01*
X2084882Y2905707D01*
Y2897751D01*
X2087927Y2890400D01*
X2093553Y2884773D01*
X2100904Y2881729D01*
X2108860D01*
X2116211Y2884773D01*
X2121837Y2890400D01*
X2124882Y2897751D01*
Y2905707D01*
X2121837Y2913058D01*
X2116211Y2918684D01*
X2108860Y2921729D01*
D02*
G37*
G36*
X3024860Y2919729D02*
X3016904D01*
X3009553Y2916684D01*
X3003927Y2911058D01*
X3000882Y2903707D01*
Y2895751D01*
X3003927Y2888400D01*
X3009553Y2882773D01*
X3016904Y2879729D01*
X3024860D01*
X3032211Y2882773D01*
X3037837Y2888400D01*
X3040882Y2895751D01*
Y2903707D01*
X3037837Y2911058D01*
X3032211Y2916684D01*
X3024860Y2919729D01*
D02*
G37*
G36*
X1365384Y2836938D02*
X1357428D01*
X1350077Y2833893D01*
X1344451Y2828267D01*
X1341406Y2820916D01*
Y2812959D01*
X1344451Y2805608D01*
X1350077Y2799982D01*
X1357428Y2796938D01*
X1365384D01*
X1372735Y2799982D01*
X1378361Y2805608D01*
X1381406Y2812959D01*
Y2820916D01*
X1378361Y2828267D01*
X1372735Y2833893D01*
X1365384Y2836938D01*
D02*
G37*
G36*
X2266896Y2836469D02*
X2258940D01*
X2251589Y2833424D01*
X2245963Y2827798D01*
X2242918Y2820447D01*
Y2812491D01*
X2245963Y2805140D01*
X2251589Y2799514D01*
X2258940Y2796469D01*
X2266896D01*
X2274247Y2799514D01*
X2279873Y2805140D01*
X2282918Y2812491D01*
Y2820447D01*
X2279873Y2827798D01*
X2274247Y2833424D01*
X2266896Y2836469D01*
D02*
G37*
G36*
X3182896Y2834469D02*
X3174940D01*
X3167589Y2831424D01*
X3161963Y2825798D01*
X3158918Y2818447D01*
Y2810491D01*
X3161963Y2803140D01*
X3167589Y2797514D01*
X3174940Y2794469D01*
X3182896D01*
X3190247Y2797514D01*
X3195873Y2803140D01*
X3198918Y2810491D01*
Y2818447D01*
X3195873Y2825798D01*
X3190247Y2831424D01*
X3182896Y2834469D01*
D02*
G37*
G36*
X1226608Y2755764D02*
X1218652D01*
X1211301Y2752720D01*
X1205675Y2747093D01*
X1202630Y2739743D01*
Y2731786D01*
X1205675Y2724435D01*
X1211301Y2718809D01*
X1218652Y2715764D01*
X1226608D01*
X1233959Y2718809D01*
X1239585Y2724435D01*
X1242630Y2731786D01*
Y2739743D01*
X1239585Y2747093D01*
X1233959Y2752720D01*
X1226608Y2755764D01*
D02*
G37*
G36*
X1156238D02*
X1148282D01*
X1140931Y2752720D01*
X1135305Y2747093D01*
X1132260Y2739743D01*
Y2731786D01*
X1135305Y2724435D01*
X1140931Y2718809D01*
X1148282Y2715764D01*
X1156238D01*
X1163589Y2718809D01*
X1169215Y2724435D01*
X1172260Y2731786D01*
Y2739743D01*
X1169215Y2747093D01*
X1163589Y2752720D01*
X1156238Y2755764D01*
D02*
G37*
G36*
X1085238D02*
X1077282D01*
X1069931Y2752720D01*
X1064305Y2747093D01*
X1061260Y2739743D01*
Y2731786D01*
X1064305Y2724435D01*
X1069931Y2718809D01*
X1077282Y2715764D01*
X1085238D01*
X1092589Y2718809D01*
X1098215Y2724435D01*
X1101260Y2731786D01*
Y2739743D01*
X1098215Y2747093D01*
X1092589Y2752720D01*
X1085238Y2755764D01*
D02*
G37*
G36*
X2128120Y2755296D02*
X2120164D01*
X2112813Y2752251D01*
X2107186Y2746625D01*
X2104142Y2739274D01*
Y2731317D01*
X2107186Y2723966D01*
X2112813Y2718340D01*
X2120164Y2715296D01*
X2128120D01*
X2135471Y2718340D01*
X2141097Y2723966D01*
X2144142Y2731317D01*
Y2739274D01*
X2141097Y2746625D01*
X2135471Y2752251D01*
X2128120Y2755296D01*
D02*
G37*
G36*
X2057750D02*
X2049793D01*
X2042443Y2752251D01*
X2036816Y2746625D01*
X2033772Y2739274D01*
Y2731317D01*
X2036816Y2723966D01*
X2042443Y2718340D01*
X2049793Y2715296D01*
X2057750D01*
X2065101Y2718340D01*
X2070727Y2723966D01*
X2073772Y2731317D01*
Y2739274D01*
X2070727Y2746625D01*
X2065101Y2752251D01*
X2057750Y2755296D01*
D02*
G37*
G36*
X1986750D02*
X1978793D01*
X1971443Y2752251D01*
X1965816Y2746625D01*
X1962772Y2739274D01*
Y2731317D01*
X1965816Y2723966D01*
X1971443Y2718340D01*
X1978793Y2715296D01*
X1986750D01*
X1994101Y2718340D01*
X1999727Y2723966D01*
X2002772Y2731317D01*
Y2739274D01*
X1999727Y2746625D01*
X1994101Y2752251D01*
X1986750Y2755296D01*
D02*
G37*
G36*
X3044120Y2753296D02*
X3036164D01*
X3028813Y2750251D01*
X3023186Y2744625D01*
X3020142Y2737274D01*
Y2729317D01*
X3023186Y2721966D01*
X3028813Y2716340D01*
X3036164Y2713296D01*
X3044120D01*
X3051471Y2716340D01*
X3057097Y2721966D01*
X3060142Y2729317D01*
Y2737274D01*
X3057097Y2744625D01*
X3051471Y2750251D01*
X3044120Y2753296D01*
D02*
G37*
G36*
X2973750D02*
X2965793D01*
X2958443Y2750251D01*
X2952816Y2744625D01*
X2949772Y2737274D01*
Y2729317D01*
X2952816Y2721966D01*
X2958443Y2716340D01*
X2965793Y2713296D01*
X2973750D01*
X2981101Y2716340D01*
X2986727Y2721966D01*
X2989772Y2729317D01*
Y2737274D01*
X2986727Y2744625D01*
X2981101Y2750251D01*
X2973750Y2753296D01*
D02*
G37*
G36*
X2902750D02*
X2894793D01*
X2887443Y2750251D01*
X2881816Y2744625D01*
X2878772Y2737274D01*
Y2729317D01*
X2881816Y2721966D01*
X2887443Y2716340D01*
X2894793Y2713296D01*
X2902750D01*
X2910101Y2716340D01*
X2915727Y2721966D01*
X2918772Y2729317D01*
Y2737274D01*
X2915727Y2744625D01*
X2910101Y2750251D01*
X2902750Y2753296D01*
D02*
G37*
G36*
X1409490Y2714426D02*
X1401534D01*
X1394183Y2711381D01*
X1388557Y2705755D01*
X1385512Y2698404D01*
Y2690448D01*
X1388557Y2683097D01*
X1394183Y2677471D01*
X1401534Y2674426D01*
X1409490D01*
X1416841Y2677471D01*
X1422467Y2683097D01*
X1425512Y2690448D01*
Y2698404D01*
X1422467Y2705755D01*
X1416841Y2711381D01*
X1409490Y2714426D01*
D02*
G37*
G36*
X2311002Y2713957D02*
X2303045D01*
X2295695Y2710912D01*
X2290068Y2705286D01*
X2287024Y2697935D01*
Y2689979D01*
X2290068Y2682628D01*
X2295695Y2677002D01*
X2303045Y2673957D01*
X2311002D01*
X2318353Y2677002D01*
X2323979Y2682628D01*
X2327024Y2689979D01*
Y2697935D01*
X2323979Y2705286D01*
X2318353Y2710912D01*
X2311002Y2713957D01*
D02*
G37*
G36*
X3227002Y2711957D02*
X3219045D01*
X3211695Y2708912D01*
X3206068Y2703286D01*
X3203024Y2695935D01*
Y2687979D01*
X3206068Y2680628D01*
X3211695Y2675002D01*
X3219045Y2671957D01*
X3227002D01*
X3234353Y2675002D01*
X3239979Y2680628D01*
X3243024Y2687979D01*
Y2695935D01*
X3239979Y2703286D01*
X3234353Y2708912D01*
X3227002Y2711957D01*
D02*
G37*
G36*
X1255805Y2645434D02*
X1246195D01*
X1236913Y2642946D01*
X1228591Y2638142D01*
X1221796Y2631347D01*
X1216991Y2623024D01*
X1214504Y2613742D01*
Y2604133D01*
X1216991Y2594851D01*
X1221796Y2586528D01*
X1228591Y2579733D01*
X1236913Y2574929D01*
X1246195Y2572442D01*
X1255805D01*
X1265087Y2574929D01*
X1273409Y2579733D01*
X1280204Y2586528D01*
X1285009Y2594851D01*
X1287496Y2604133D01*
Y2613742D01*
X1285009Y2623024D01*
X1280204Y2631347D01*
X1273409Y2638142D01*
X1265087Y2642946D01*
X1255805Y2645434D01*
D02*
G37*
G36*
X1155805D02*
X1146195D01*
X1136913Y2642946D01*
X1128591Y2638142D01*
X1121796Y2631347D01*
X1116991Y2623024D01*
X1114504Y2613742D01*
Y2604133D01*
X1116991Y2594851D01*
X1121796Y2586528D01*
X1128591Y2579733D01*
X1136913Y2574929D01*
X1146195Y2572442D01*
X1155805D01*
X1165087Y2574929D01*
X1173409Y2579733D01*
X1180204Y2586528D01*
X1185009Y2594851D01*
X1187496Y2604133D01*
Y2613742D01*
X1185009Y2623024D01*
X1180204Y2631347D01*
X1173409Y2638142D01*
X1165087Y2642946D01*
X1155805Y2645434D01*
D02*
G37*
G36*
X1055805D02*
X1046195D01*
X1036913Y2642946D01*
X1028591Y2638142D01*
X1021796Y2631347D01*
X1016991Y2623024D01*
X1014504Y2613742D01*
Y2604133D01*
X1016991Y2594851D01*
X1021796Y2586528D01*
X1028591Y2579733D01*
X1036913Y2574929D01*
X1046195Y2572442D01*
X1055805D01*
X1065087Y2574929D01*
X1073409Y2579733D01*
X1080204Y2586528D01*
X1085009Y2594851D01*
X1087496Y2604133D01*
Y2613742D01*
X1085009Y2623024D01*
X1080204Y2631347D01*
X1073409Y2638142D01*
X1065087Y2642946D01*
X1055805Y2645434D01*
D02*
G37*
G36*
X2157317Y2644965D02*
X2147707D01*
X2138425Y2642478D01*
X2130103Y2637673D01*
X2123308Y2630878D01*
X2118503Y2622556D01*
X2116016Y2613274D01*
Y2603664D01*
X2118503Y2594382D01*
X2123308Y2586060D01*
X2130103Y2579265D01*
X2138425Y2574460D01*
X2147707Y2571973D01*
X2157317D01*
X2166599Y2574460D01*
X2174921Y2579265D01*
X2181716Y2586060D01*
X2186521Y2594382D01*
X2189008Y2603664D01*
Y2613274D01*
X2186521Y2622556D01*
X2181716Y2630878D01*
X2174921Y2637673D01*
X2166599Y2642478D01*
X2157317Y2644965D01*
D02*
G37*
G36*
X2057317D02*
X2047707D01*
X2038425Y2642478D01*
X2030103Y2637673D01*
X2023308Y2630878D01*
X2018503Y2622556D01*
X2016016Y2613274D01*
Y2603664D01*
X2018503Y2594382D01*
X2023308Y2586060D01*
X2030103Y2579265D01*
X2038425Y2574460D01*
X2047707Y2571973D01*
X2057317D01*
X2066599Y2574460D01*
X2074921Y2579265D01*
X2081716Y2586060D01*
X2086521Y2594382D01*
X2089008Y2603664D01*
Y2613274D01*
X2086521Y2622556D01*
X2081716Y2630878D01*
X2074921Y2637673D01*
X2066599Y2642478D01*
X2057317Y2644965D01*
D02*
G37*
G36*
X1957317D02*
X1947707D01*
X1938425Y2642478D01*
X1930103Y2637673D01*
X1923308Y2630878D01*
X1918503Y2622556D01*
X1916016Y2613274D01*
Y2603664D01*
X1918503Y2594382D01*
X1923308Y2586060D01*
X1930103Y2579265D01*
X1938425Y2574460D01*
X1947707Y2571973D01*
X1957317D01*
X1966599Y2574460D01*
X1974921Y2579265D01*
X1981716Y2586060D01*
X1986521Y2594382D01*
X1989008Y2603664D01*
Y2613274D01*
X1986521Y2622556D01*
X1981716Y2630878D01*
X1974921Y2637673D01*
X1966599Y2642478D01*
X1957317Y2644965D01*
D02*
G37*
G36*
X3073317Y2642965D02*
X3063707D01*
X3054425Y2640478D01*
X3046103Y2635673D01*
X3039308Y2628878D01*
X3034503Y2620556D01*
X3032016Y2611274D01*
Y2601664D01*
X3034503Y2592382D01*
X3039308Y2584060D01*
X3046103Y2577265D01*
X3054425Y2572460D01*
X3063707Y2569973D01*
X3073317D01*
X3082599Y2572460D01*
X3090921Y2577265D01*
X3097716Y2584060D01*
X3102521Y2592382D01*
X3105008Y2601664D01*
Y2611274D01*
X3102521Y2620556D01*
X3097716Y2628878D01*
X3090921Y2635673D01*
X3082599Y2640478D01*
X3073317Y2642965D01*
D02*
G37*
G36*
X2973317D02*
X2963707D01*
X2954425Y2640478D01*
X2946103Y2635673D01*
X2939308Y2628878D01*
X2934503Y2620556D01*
X2932016Y2611274D01*
Y2601664D01*
X2934503Y2592382D01*
X2939308Y2584060D01*
X2946103Y2577265D01*
X2954425Y2572460D01*
X2963707Y2569973D01*
X2973317D01*
X2982599Y2572460D01*
X2990921Y2577265D01*
X2997716Y2584060D01*
X3002521Y2592382D01*
X3005008Y2601664D01*
Y2611274D01*
X3002521Y2620556D01*
X2997716Y2628878D01*
X2990921Y2635673D01*
X2982599Y2640478D01*
X2973317Y2642965D01*
D02*
G37*
G36*
X2873317D02*
X2863707D01*
X2854425Y2640478D01*
X2846103Y2635673D01*
X2839308Y2628878D01*
X2834503Y2620556D01*
X2832016Y2611274D01*
Y2601664D01*
X2834503Y2592382D01*
X2839308Y2584060D01*
X2846103Y2577265D01*
X2854425Y2572460D01*
X2863707Y2569973D01*
X2873317D01*
X2882599Y2572460D01*
X2890921Y2577265D01*
X2897716Y2584060D01*
X2902521Y2592382D01*
X2905008Y2601664D01*
Y2611274D01*
X2902521Y2620556D01*
X2897716Y2628878D01*
X2890921Y2635673D01*
X2882599Y2640478D01*
X2873317Y2642965D01*
D02*
G37*
G36*
X1255805Y2345434D02*
X1246195D01*
X1236913Y2342946D01*
X1228591Y2338142D01*
X1221796Y2331347D01*
X1216991Y2323024D01*
X1214504Y2313742D01*
Y2304133D01*
X1216991Y2294851D01*
X1221796Y2286528D01*
X1228591Y2279733D01*
X1236913Y2274929D01*
X1246195Y2272442D01*
X1255805D01*
X1265087Y2274929D01*
X1273409Y2279733D01*
X1280204Y2286528D01*
X1285009Y2294851D01*
X1287496Y2304133D01*
Y2313742D01*
X1285009Y2323024D01*
X1280204Y2331347D01*
X1273409Y2338142D01*
X1265087Y2342946D01*
X1255805Y2345434D01*
D02*
G37*
G36*
X1155805D02*
X1146195D01*
X1136913Y2342946D01*
X1128591Y2338142D01*
X1121796Y2331347D01*
X1116991Y2323024D01*
X1114504Y2313742D01*
Y2304133D01*
X1116991Y2294851D01*
X1121796Y2286528D01*
X1128591Y2279733D01*
X1136913Y2274929D01*
X1146195Y2272442D01*
X1155805D01*
X1165087Y2274929D01*
X1173409Y2279733D01*
X1180204Y2286528D01*
X1185009Y2294851D01*
X1187496Y2304133D01*
Y2313742D01*
X1185009Y2323024D01*
X1180204Y2331347D01*
X1173409Y2338142D01*
X1165087Y2342946D01*
X1155805Y2345434D01*
D02*
G37*
G36*
X1055805D02*
X1046195D01*
X1036913Y2342946D01*
X1028591Y2338142D01*
X1021796Y2331347D01*
X1016991Y2323024D01*
X1014504Y2313742D01*
Y2304133D01*
X1016991Y2294851D01*
X1021796Y2286528D01*
X1028591Y2279733D01*
X1036913Y2274929D01*
X1046195Y2272442D01*
X1055805D01*
X1065087Y2274929D01*
X1073409Y2279733D01*
X1080204Y2286528D01*
X1085009Y2294851D01*
X1087496Y2304133D01*
Y2313742D01*
X1085009Y2323024D01*
X1080204Y2331347D01*
X1073409Y2338142D01*
X1065087Y2342946D01*
X1055805Y2345434D01*
D02*
G37*
G36*
X2157317Y2344965D02*
X2147707D01*
X2138425Y2342478D01*
X2130103Y2337673D01*
X2123308Y2330878D01*
X2118503Y2322556D01*
X2116016Y2313274D01*
Y2303664D01*
X2118503Y2294382D01*
X2123308Y2286060D01*
X2130103Y2279265D01*
X2138425Y2274460D01*
X2147707Y2271973D01*
X2157317D01*
X2166599Y2274460D01*
X2174921Y2279265D01*
X2181716Y2286060D01*
X2186521Y2294382D01*
X2189008Y2303664D01*
Y2313274D01*
X2186521Y2322556D01*
X2181716Y2330878D01*
X2174921Y2337673D01*
X2166599Y2342478D01*
X2157317Y2344965D01*
D02*
G37*
G36*
X2057317D02*
X2047707D01*
X2038425Y2342478D01*
X2030103Y2337673D01*
X2023308Y2330878D01*
X2018503Y2322556D01*
X2016016Y2313274D01*
Y2303664D01*
X2018503Y2294382D01*
X2023308Y2286060D01*
X2030103Y2279265D01*
X2038425Y2274460D01*
X2047707Y2271973D01*
X2057317D01*
X2066599Y2274460D01*
X2074921Y2279265D01*
X2081716Y2286060D01*
X2086521Y2294382D01*
X2089008Y2303664D01*
Y2313274D01*
X2086521Y2322556D01*
X2081716Y2330878D01*
X2074921Y2337673D01*
X2066599Y2342478D01*
X2057317Y2344965D01*
D02*
G37*
G36*
X1957317D02*
X1947707D01*
X1938425Y2342478D01*
X1930103Y2337673D01*
X1923308Y2330878D01*
X1918503Y2322556D01*
X1916016Y2313274D01*
Y2303664D01*
X1918503Y2294382D01*
X1923308Y2286060D01*
X1930103Y2279265D01*
X1938425Y2274460D01*
X1947707Y2271973D01*
X1957317D01*
X1966599Y2274460D01*
X1974921Y2279265D01*
X1981716Y2286060D01*
X1986521Y2294382D01*
X1989008Y2303664D01*
Y2313274D01*
X1986521Y2322556D01*
X1981716Y2330878D01*
X1974921Y2337673D01*
X1966599Y2342478D01*
X1957317Y2344965D01*
D02*
G37*
G36*
X3073317Y2342965D02*
X3063707D01*
X3054425Y2340478D01*
X3046103Y2335673D01*
X3039308Y2328878D01*
X3034503Y2320556D01*
X3032016Y2311274D01*
Y2301664D01*
X3034503Y2292382D01*
X3039308Y2284060D01*
X3046103Y2277265D01*
X3054425Y2272460D01*
X3063707Y2269973D01*
X3073317D01*
X3082599Y2272460D01*
X3090921Y2277265D01*
X3097716Y2284060D01*
X3102521Y2292382D01*
X3105008Y2301664D01*
Y2311274D01*
X3102521Y2320556D01*
X3097716Y2328878D01*
X3090921Y2335673D01*
X3082599Y2340478D01*
X3073317Y2342965D01*
D02*
G37*
G36*
X2973317D02*
X2963707D01*
X2954425Y2340478D01*
X2946103Y2335673D01*
X2939308Y2328878D01*
X2934503Y2320556D01*
X2932016Y2311274D01*
Y2301664D01*
X2934503Y2292382D01*
X2939308Y2284060D01*
X2946103Y2277265D01*
X2954425Y2272460D01*
X2963707Y2269973D01*
X2973317D01*
X2982599Y2272460D01*
X2990921Y2277265D01*
X2997716Y2284060D01*
X3002521Y2292382D01*
X3005008Y2301664D01*
Y2311274D01*
X3002521Y2320556D01*
X2997716Y2328878D01*
X2990921Y2335673D01*
X2982599Y2340478D01*
X2973317Y2342965D01*
D02*
G37*
G36*
X2873317D02*
X2863707D01*
X2854425Y2340478D01*
X2846103Y2335673D01*
X2839308Y2328878D01*
X2834503Y2320556D01*
X2832016Y2311274D01*
Y2301664D01*
X2834503Y2292382D01*
X2839308Y2284060D01*
X2846103Y2277265D01*
X2854425Y2272460D01*
X2863707Y2269973D01*
X2873317D01*
X2882599Y2272460D01*
X2890921Y2277265D01*
X2897716Y2284060D01*
X2902521Y2292382D01*
X2905008Y2301664D01*
Y2311274D01*
X2902521Y2320556D01*
X2897716Y2328878D01*
X2890921Y2335673D01*
X2882599Y2340478D01*
X2873317Y2342965D01*
D02*
G37*
G36*
X3748057Y2254772D02*
X3740101D01*
X3732750Y2251727D01*
X3727124Y2246101D01*
X3724079Y2238750D01*
Y2230793D01*
X3727124Y2223443D01*
X3732750Y2217816D01*
X3740101Y2214772D01*
X3748057D01*
X3755408Y2217816D01*
X3761034Y2223443D01*
X3764079Y2230793D01*
Y2238750D01*
X3761034Y2246101D01*
X3755408Y2251727D01*
X3748057Y2254772D01*
D02*
G37*
G36*
X3077978Y2012000D02*
X3070022D01*
X3062671Y2008955D01*
X3057045Y2003329D01*
X3054000Y1995978D01*
Y1988022D01*
X3057045Y1980671D01*
X3062671Y1975045D01*
X3070022Y1972000D01*
X3077978D01*
X3085329Y1975045D01*
X3090955Y1980671D01*
X3094000Y1988022D01*
Y1995978D01*
X3090955Y2003329D01*
X3085329Y2008955D01*
X3077978Y2012000D01*
D02*
G37*
G36*
X3028978Y1918000D02*
X3021022D01*
X3013671Y1914955D01*
X3008045Y1909329D01*
X3005000Y1901978D01*
Y1894022D01*
X3008045Y1886671D01*
X3013671Y1881045D01*
X3021022Y1878000D01*
X3028978D01*
X3036329Y1881045D01*
X3041955Y1886671D01*
X3045000Y1894022D01*
Y1901978D01*
X3041955Y1909329D01*
X3036329Y1914955D01*
X3028978Y1918000D01*
D02*
G37*
G36*
X3802986Y1890000D02*
X3795030D01*
X3787679Y1886955D01*
X3782053Y1881329D01*
X3779008Y1873978D01*
Y1866022D01*
X3782053Y1858671D01*
X3787679Y1853045D01*
X3795030Y1850000D01*
X3802986D01*
X3810337Y1853045D01*
X3815963Y1858671D01*
X3819008Y1866022D01*
Y1873978D01*
X3815963Y1881329D01*
X3810337Y1886955D01*
X3802986Y1890000D01*
D02*
G37*
G36*
Y1800000D02*
X3795030D01*
X3787679Y1796955D01*
X3782053Y1791329D01*
X3779008Y1783978D01*
Y1776022D01*
X3782053Y1768671D01*
X3787679Y1763045D01*
X3795030Y1760000D01*
X3802986D01*
X3810337Y1763045D01*
X3815963Y1768671D01*
X3819008Y1776022D01*
Y1783978D01*
X3815963Y1791329D01*
X3810337Y1796955D01*
X3802986Y1800000D01*
D02*
G37*
G36*
Y1708000D02*
X3795030D01*
X3787679Y1704955D01*
X3782053Y1699329D01*
X3779008Y1691978D01*
Y1684022D01*
X3782053Y1676671D01*
X3787679Y1671045D01*
X3795030Y1668000D01*
X3802986D01*
X3810337Y1671045D01*
X3815963Y1676671D01*
X3819008Y1684022D01*
Y1691978D01*
X3815963Y1699329D01*
X3810337Y1704955D01*
X3802986Y1708000D01*
D02*
G37*
G36*
Y1616000D02*
X3795030D01*
X3787679Y1612955D01*
X3782053Y1607329D01*
X3779008Y1599978D01*
Y1592022D01*
X3782053Y1584671D01*
X3787679Y1579045D01*
X3795030Y1576000D01*
X3802986D01*
X3810337Y1579045D01*
X3815963Y1584671D01*
X3819008Y1592022D01*
Y1599978D01*
X3815963Y1607329D01*
X3810337Y1612955D01*
X3802986Y1616000D01*
D02*
G37*
G36*
X2821065Y1586000D02*
X2813108D01*
X2805758Y1582955D01*
X2800131Y1577329D01*
X2797087Y1569978D01*
Y1562022D01*
X2800131Y1554671D01*
X2805758Y1549045D01*
X2813108Y1546000D01*
X2821065D01*
X2828416Y1549045D01*
X2834042Y1554671D01*
X2837087Y1562022D01*
Y1569978D01*
X2834042Y1577329D01*
X2828416Y1582955D01*
X2821065Y1586000D01*
D02*
G37*
G36*
X3710459Y1540181D02*
X3702502D01*
X3695151Y1537136D01*
X3689525Y1531510D01*
X3686480Y1524159D01*
Y1516203D01*
X3689525Y1508852D01*
X3695151Y1503226D01*
X3702502Y1500181D01*
X3710459D01*
X3717809Y1503226D01*
X3723436Y1508852D01*
X3726480Y1516203D01*
Y1524159D01*
X3723436Y1531510D01*
X3717809Y1537136D01*
X3710459Y1540181D01*
D02*
G37*
G36*
X957245Y1535260D02*
X944755D01*
X932692Y1532027D01*
X921875Y1525783D01*
X920995Y1524902D01*
X951000Y1494898D01*
X981005Y1524902D01*
X980125Y1525783D01*
X969308Y1532027D01*
X957245Y1535260D01*
D02*
G37*
G36*
X3586797Y1525181D02*
X3578841D01*
X3571490Y1522136D01*
X3565864Y1516510D01*
X3562819Y1509159D01*
Y1501203D01*
X3565864Y1493852D01*
X3571490Y1488226D01*
X3578841Y1485181D01*
X3586797D01*
X3594148Y1488226D01*
X3599774Y1493852D01*
X3602819Y1501203D01*
Y1509159D01*
X3599774Y1516510D01*
X3594148Y1522136D01*
X3586797Y1525181D01*
D02*
G37*
G36*
X988076Y1517831D02*
X958071Y1487827D01*
X988076Y1457822D01*
X988956Y1458702D01*
X995201Y1469518D01*
X998433Y1481582D01*
Y1494072D01*
X995201Y1506135D01*
X988956Y1516951D01*
X988076Y1517831D01*
D02*
G37*
G36*
X913924D02*
X913044Y1516951D01*
X906799Y1506135D01*
X903567Y1494072D01*
Y1481582D01*
X906799Y1469518D01*
X913044Y1458702D01*
X913924Y1457822D01*
X943929Y1487827D01*
X913924Y1517831D01*
D02*
G37*
G36*
X2771934Y1525480D02*
X2762066D01*
X2752533Y1522926D01*
X2743987Y1517992D01*
X2737008Y1511013D01*
X2732074Y1502467D01*
X2729520Y1492934D01*
Y1483066D01*
X2732074Y1473533D01*
X2737008Y1464987D01*
X2743987Y1458008D01*
X2752533Y1453074D01*
X2762066Y1450520D01*
X2771934D01*
X2781467Y1453074D01*
X2790013Y1458008D01*
X2796992Y1464987D01*
X2801926Y1473533D01*
X2804480Y1483066D01*
Y1492934D01*
X2801926Y1502467D01*
X2796992Y1511013D01*
X2790013Y1517992D01*
X2781467Y1522926D01*
X2771934Y1525480D01*
D02*
G37*
G36*
X2238544Y1528260D02*
X2227897D01*
X2217614Y1525504D01*
X2208394Y1520181D01*
X2200866Y1512653D01*
X2195543Y1503433D01*
X2192787Y1493150D01*
Y1482504D01*
X2195543Y1472220D01*
X2200866Y1463000D01*
X2208394Y1455472D01*
X2217614Y1450149D01*
X2227897Y1447394D01*
X2238544D01*
X2248827Y1450149D01*
X2258047Y1455472D01*
X2265575Y1463000D01*
X2270898Y1472220D01*
X2273653Y1482504D01*
Y1493150D01*
X2270898Y1503433D01*
X2265575Y1512653D01*
X2258047Y1520181D01*
X2248827Y1525504D01*
X2238544Y1528260D01*
D02*
G37*
G36*
X2138544D02*
X2127897D01*
X2117614Y1525504D01*
X2108394Y1520181D01*
X2100866Y1512653D01*
X2095543Y1503433D01*
X2092787Y1493150D01*
Y1482504D01*
X2095543Y1472220D01*
X2100866Y1463000D01*
X2108394Y1455472D01*
X2117614Y1450149D01*
X2127897Y1447394D01*
X2138544D01*
X2148827Y1450149D01*
X2158047Y1455472D01*
X2165575Y1463000D01*
X2170898Y1472220D01*
X2173653Y1482504D01*
Y1493150D01*
X2170898Y1503433D01*
X2165575Y1512653D01*
X2158047Y1520181D01*
X2148827Y1525504D01*
X2138544Y1528260D01*
D02*
G37*
G36*
X1653323D02*
X1642677D01*
X1632393Y1525504D01*
X1623174Y1520181D01*
X1615646Y1512653D01*
X1610322Y1503433D01*
X1607567Y1493150D01*
Y1482504D01*
X1610322Y1472220D01*
X1615646Y1463000D01*
X1623174Y1455472D01*
X1632393Y1450149D01*
X1642677Y1447394D01*
X1653323D01*
X1663607Y1450149D01*
X1672826Y1455472D01*
X1680354Y1463000D01*
X1685678Y1472220D01*
X1688433Y1482504D01*
Y1493150D01*
X1685678Y1503433D01*
X1680354Y1512653D01*
X1672826Y1520181D01*
X1663607Y1525504D01*
X1653323Y1528260D01*
D02*
G37*
G36*
X1553323D02*
X1542677D01*
X1532393Y1525504D01*
X1523174Y1520181D01*
X1515646Y1512653D01*
X1510322Y1503433D01*
X1507567Y1493150D01*
Y1482504D01*
X1510322Y1472220D01*
X1515646Y1463000D01*
X1523174Y1455472D01*
X1532393Y1450149D01*
X1542677Y1447394D01*
X1553323D01*
X1563607Y1450149D01*
X1572826Y1455472D01*
X1580354Y1463000D01*
X1585678Y1472220D01*
X1588433Y1482504D01*
Y1493150D01*
X1585678Y1503433D01*
X1580354Y1512653D01*
X1572826Y1520181D01*
X1563607Y1525504D01*
X1553323Y1528260D01*
D02*
G37*
G36*
X1091433D02*
X1010567D01*
Y1447394D01*
X1091433D01*
Y1528260D01*
D02*
G37*
G36*
X951000Y1480756D02*
X920995Y1450751D01*
X921875Y1449871D01*
X932692Y1443626D01*
X944755Y1440394D01*
X957245D01*
X969308Y1443626D01*
X980125Y1449871D01*
X981005Y1450751D01*
X951000Y1480756D01*
D02*
G37*
G36*
X2771934Y1425480D02*
X2762066D01*
X2752533Y1422926D01*
X2743987Y1417992D01*
X2737008Y1411013D01*
X2732074Y1402467D01*
X2729520Y1392934D01*
Y1383066D01*
X2732074Y1373533D01*
X2737008Y1364987D01*
X2743987Y1358008D01*
X2752533Y1353074D01*
X2762066Y1350520D01*
X2771934D01*
X2781467Y1353074D01*
X2790013Y1358008D01*
X2796992Y1364987D01*
X2801926Y1373533D01*
X2804480Y1383066D01*
Y1392934D01*
X2801926Y1402467D01*
X2796992Y1411013D01*
X2790013Y1417992D01*
X2781467Y1422926D01*
X2771934Y1425480D01*
D02*
G37*
G36*
X2238544Y1428260D02*
X2227897D01*
X2217614Y1425504D01*
X2208394Y1420181D01*
X2200866Y1412653D01*
X2195543Y1403433D01*
X2192787Y1393150D01*
Y1382504D01*
X2195543Y1372220D01*
X2200866Y1363000D01*
X2208394Y1355472D01*
X2217614Y1350149D01*
X2227897Y1347394D01*
X2238544D01*
X2248827Y1350149D01*
X2258047Y1355472D01*
X2265575Y1363000D01*
X2270898Y1372220D01*
X2273653Y1382504D01*
Y1393150D01*
X2270898Y1403433D01*
X2265575Y1412653D01*
X2258047Y1420181D01*
X2248827Y1425504D01*
X2238544Y1428260D01*
D02*
G37*
G36*
X2138544D02*
X2127897D01*
X2117614Y1425504D01*
X2108394Y1420181D01*
X2100866Y1412653D01*
X2095543Y1403433D01*
X2092787Y1393150D01*
Y1382504D01*
X2095543Y1372220D01*
X2100866Y1363000D01*
X2108394Y1355472D01*
X2117614Y1350149D01*
X2127897Y1347394D01*
X2138544D01*
X2148827Y1350149D01*
X2158047Y1355472D01*
X2165575Y1363000D01*
X2170898Y1372220D01*
X2173653Y1382504D01*
Y1393150D01*
X2170898Y1403433D01*
X2165575Y1412653D01*
X2158047Y1420181D01*
X2148827Y1425504D01*
X2138544Y1428260D01*
D02*
G37*
G36*
X1653323D02*
X1642677D01*
X1632393Y1425504D01*
X1623174Y1420181D01*
X1615646Y1412653D01*
X1610322Y1403433D01*
X1607567Y1393150D01*
Y1382504D01*
X1610322Y1372220D01*
X1615646Y1363000D01*
X1623174Y1355472D01*
X1632393Y1350149D01*
X1642677Y1347394D01*
X1653323D01*
X1663607Y1350149D01*
X1672826Y1355472D01*
X1680354Y1363000D01*
X1685678Y1372220D01*
X1688433Y1382504D01*
Y1393150D01*
X1685678Y1403433D01*
X1680354Y1412653D01*
X1672826Y1420181D01*
X1663607Y1425504D01*
X1653323Y1428260D01*
D02*
G37*
G36*
X1553323D02*
X1542677D01*
X1532393Y1425504D01*
X1523174Y1420181D01*
X1515646Y1412653D01*
X1510322Y1403433D01*
X1507567Y1393150D01*
Y1382504D01*
X1510322Y1372220D01*
X1515646Y1363000D01*
X1523174Y1355472D01*
X1532393Y1350149D01*
X1542677Y1347394D01*
X1553323D01*
X1563607Y1350149D01*
X1572826Y1355472D01*
X1580354Y1363000D01*
X1585678Y1372220D01*
X1588433Y1382504D01*
Y1393150D01*
X1585678Y1403433D01*
X1580354Y1412653D01*
X1572826Y1420181D01*
X1563607Y1425504D01*
X1553323Y1428260D01*
D02*
G37*
G36*
X1056323D02*
X1045677D01*
X1035393Y1425504D01*
X1026174Y1420181D01*
X1018645Y1412653D01*
X1013322Y1403433D01*
X1010567Y1393150D01*
Y1382504D01*
X1013322Y1372220D01*
X1018645Y1363000D01*
X1026174Y1355472D01*
X1035393Y1350149D01*
X1045677Y1347394D01*
X1056323D01*
X1066607Y1350149D01*
X1075826Y1355472D01*
X1083354Y1363000D01*
X1088678Y1372220D01*
X1091433Y1382504D01*
Y1393150D01*
X1088678Y1403433D01*
X1083354Y1412653D01*
X1075826Y1420181D01*
X1066607Y1425504D01*
X1056323Y1428260D01*
D02*
G37*
G36*
X956323D02*
X945677D01*
X935393Y1425504D01*
X926174Y1420181D01*
X918645Y1412653D01*
X913322Y1403433D01*
X910567Y1393150D01*
Y1382504D01*
X913322Y1372220D01*
X918645Y1363000D01*
X926174Y1355472D01*
X935393Y1350149D01*
X945677Y1347394D01*
X956323D01*
X966607Y1350149D01*
X975826Y1355472D01*
X983355Y1363000D01*
X988678Y1372220D01*
X991433Y1382504D01*
Y1393150D01*
X988678Y1403433D01*
X983355Y1412653D01*
X975826Y1420181D01*
X966607Y1425504D01*
X956323Y1428260D01*
D02*
G37*
G36*
X3286797Y1373000D02*
X3278841D01*
X3271490Y1369955D01*
X3265864Y1364329D01*
X3262819Y1356978D01*
Y1349022D01*
X3265864Y1341671D01*
X3271490Y1336045D01*
X3278841Y1333000D01*
X3286797D01*
X3294148Y1336045D01*
X3299774Y1341671D01*
X3302819Y1349022D01*
Y1356978D01*
X3299774Y1364329D01*
X3294148Y1369955D01*
X3286797Y1373000D01*
D02*
G37*
G36*
X2239465Y1335260D02*
X2226976D01*
X2214912Y1332027D01*
X2204096Y1325783D01*
X2203216Y1324902D01*
X2233220Y1294898D01*
X2263225Y1324903D01*
X2262345Y1325783D01*
X2251529Y1332027D01*
X2239465Y1335260D01*
D02*
G37*
G36*
X1654245D02*
X1641755D01*
X1629691Y1332027D01*
X1618876Y1325783D01*
X1617995Y1324902D01*
X1648000Y1294898D01*
X1678005Y1324902D01*
X1677124Y1325783D01*
X1666309Y1332027D01*
X1654245Y1335260D01*
D02*
G37*
G36*
X2196145Y1317831D02*
X2195265Y1316951D01*
X2189020Y1306135D01*
X2185787Y1294072D01*
Y1281582D01*
X2189020Y1269518D01*
X2195265Y1258702D01*
X2196145Y1257822D01*
X2226149Y1287827D01*
X2196145Y1317831D01*
D02*
G37*
G36*
X1610924D02*
X1610044Y1316951D01*
X1603800Y1306135D01*
X1600567Y1294072D01*
Y1281582D01*
X1603800Y1269518D01*
X1610044Y1258702D01*
X1610924Y1257822D01*
X1640929Y1287827D01*
X1610924Y1317831D01*
D02*
G37*
G36*
X2270296Y1317832D02*
X2240291Y1287827D01*
X2270296Y1257822D01*
X2271176Y1258702D01*
X2277421Y1269518D01*
X2280653Y1281582D01*
Y1294072D01*
X2277421Y1306135D01*
X2271176Y1316951D01*
X2270296Y1317832D01*
D02*
G37*
G36*
X1685076Y1317832D02*
X1655071Y1287827D01*
X1685076Y1257822D01*
X1685956Y1258702D01*
X1692200Y1269518D01*
X1695433Y1281582D01*
Y1294072D01*
X1692200Y1306135D01*
X1685956Y1316951D01*
X1685076Y1317832D01*
D02*
G37*
G36*
X2771934Y1325480D02*
X2762066D01*
X2752533Y1322926D01*
X2743987Y1317992D01*
X2737008Y1311013D01*
X2732074Y1302467D01*
X2729520Y1292934D01*
Y1283066D01*
X2732074Y1273533D01*
X2737008Y1264987D01*
X2743987Y1258008D01*
X2752533Y1253074D01*
X2762066Y1250520D01*
X2771934D01*
X2781467Y1253074D01*
X2790013Y1258008D01*
X2796992Y1264987D01*
X2801926Y1273533D01*
X2804480Y1283066D01*
Y1292934D01*
X2801926Y1302467D01*
X2796992Y1311013D01*
X2790013Y1317992D01*
X2781467Y1322926D01*
X2771934Y1325480D01*
D02*
G37*
G36*
X3636570Y1285228D02*
X3629068D01*
X3622137Y1282357D01*
X3616832Y1277052D01*
X3613961Y1270121D01*
Y1262619D01*
X3616832Y1255688D01*
X3622137Y1250383D01*
X3629068Y1247512D01*
X3636570D01*
X3643501Y1250383D01*
X3648806Y1255688D01*
X3651677Y1262619D01*
Y1270121D01*
X3648806Y1277052D01*
X3643501Y1282357D01*
X3636570Y1285228D01*
D02*
G37*
G36*
X3582633D02*
X3575131D01*
X3568200Y1282357D01*
X3562895Y1277052D01*
X3560024Y1270121D01*
Y1262619D01*
X3562895Y1255688D01*
X3568200Y1250383D01*
X3575131Y1247512D01*
X3582633D01*
X3589564Y1250383D01*
X3594869Y1255688D01*
X3597740Y1262619D01*
Y1270121D01*
X3594869Y1277052D01*
X3589564Y1282357D01*
X3582633Y1285228D01*
D02*
G37*
G36*
X3527515D02*
X3520013D01*
X3513081Y1282357D01*
X3507777Y1277052D01*
X3504906Y1270121D01*
Y1262619D01*
X3507777Y1255688D01*
X3513081Y1250383D01*
X3520013Y1247512D01*
X3527515D01*
X3534446Y1250383D01*
X3539751Y1255688D01*
X3542622Y1262619D01*
Y1270121D01*
X3539751Y1277052D01*
X3534446Y1282357D01*
X3527515Y1285228D01*
D02*
G37*
G36*
X2173653Y1328260D02*
X2092787D01*
Y1247394D01*
X2173653D01*
Y1328260D01*
D02*
G37*
G36*
X1588433D02*
X1507567D01*
Y1247394D01*
X1588433D01*
Y1328260D01*
D02*
G37*
G36*
X1056323D02*
X1045677D01*
X1035393Y1325504D01*
X1026174Y1320181D01*
X1018645Y1312653D01*
X1013322Y1303433D01*
X1010567Y1293150D01*
Y1282504D01*
X1013322Y1272220D01*
X1018645Y1263000D01*
X1026174Y1255472D01*
X1035393Y1250149D01*
X1045677Y1247394D01*
X1056323D01*
X1066607Y1250149D01*
X1075826Y1255472D01*
X1083354Y1263000D01*
X1088678Y1272220D01*
X1091433Y1282504D01*
Y1293150D01*
X1088678Y1303433D01*
X1083354Y1312653D01*
X1075826Y1320181D01*
X1066607Y1325504D01*
X1056323Y1328260D01*
D02*
G37*
G36*
X956323D02*
X945677D01*
X935393Y1325504D01*
X926174Y1320181D01*
X918645Y1312653D01*
X913322Y1303433D01*
X910567Y1293150D01*
Y1282504D01*
X913322Y1272220D01*
X918645Y1263000D01*
X926174Y1255472D01*
X935393Y1250149D01*
X945677Y1247394D01*
X956323D01*
X966607Y1250149D01*
X975826Y1255472D01*
X983355Y1263000D01*
X988678Y1272220D01*
X991433Y1282504D01*
Y1293150D01*
X988678Y1303433D01*
X983355Y1312653D01*
X975826Y1320181D01*
X966607Y1325504D01*
X956323Y1328260D01*
D02*
G37*
G36*
X2233220Y1280756D02*
X2203216Y1250751D01*
X2204096Y1249871D01*
X2214912Y1243626D01*
X2226976Y1240394D01*
X2239465D01*
X2251529Y1243626D01*
X2262345Y1249871D01*
X2263225Y1250751D01*
X2233220Y1280756D01*
D02*
G37*
G36*
X1648000Y1280756D02*
X1617995Y1250751D01*
X1618876Y1249871D01*
X1629691Y1243626D01*
X1641755Y1240394D01*
X1654245D01*
X1666309Y1243626D01*
X1677124Y1249871D01*
X1678005Y1250751D01*
X1648000Y1280756D01*
D02*
G37*
G36*
X3677121Y1245858D02*
X3669619D01*
X3662688Y1242987D01*
X3657383Y1237682D01*
X3654512Y1230751D01*
Y1223249D01*
X3657383Y1216318D01*
X3662688Y1211013D01*
X3669619Y1208142D01*
X3677121D01*
X3684052Y1211013D01*
X3689357Y1216318D01*
X3692228Y1223249D01*
Y1230751D01*
X3689357Y1237682D01*
X3684052Y1242987D01*
X3677121Y1245858D01*
D02*
G37*
G36*
X3488145D02*
X3480643D01*
X3473711Y1242987D01*
X3468407Y1237682D01*
X3465535Y1230751D01*
Y1223249D01*
X3468407Y1216318D01*
X3473711Y1211013D01*
X3480643Y1208142D01*
X3488145D01*
X3495076Y1211013D01*
X3500381Y1216318D01*
X3503252Y1223249D01*
Y1230751D01*
X3500381Y1237682D01*
X3495076Y1242987D01*
X3488145Y1245858D01*
D02*
G37*
G36*
X3610192Y1218299D02*
X3602690D01*
X3595759Y1215428D01*
X3590454Y1210123D01*
X3587583Y1203192D01*
Y1195690D01*
X3590454Y1188759D01*
X3595759Y1183454D01*
X3602690Y1180583D01*
X3610192D01*
X3617123Y1183454D01*
X3622428Y1188759D01*
X3625299Y1195690D01*
Y1203192D01*
X3622428Y1210123D01*
X3617123Y1215428D01*
X3610192Y1218299D01*
D02*
G37*
G36*
X3555074D02*
X3547572D01*
X3540640Y1215428D01*
X3535336Y1210123D01*
X3532465Y1203192D01*
Y1195690D01*
X3535336Y1188759D01*
X3540640Y1183454D01*
X3547572Y1180583D01*
X3555074D01*
X3562005Y1183454D01*
X3567310Y1188759D01*
X3570181Y1195690D01*
Y1203192D01*
X3567310Y1210123D01*
X3562005Y1215428D01*
X3555074Y1218299D01*
D02*
G37*
G36*
X3677121Y1190740D02*
X3669619D01*
X3662688Y1187869D01*
X3657383Y1182564D01*
X3654512Y1175633D01*
Y1168131D01*
X3657383Y1161200D01*
X3662688Y1155895D01*
X3669619Y1153024D01*
X3677121D01*
X3684052Y1155895D01*
X3689357Y1161200D01*
X3692228Y1168131D01*
Y1175633D01*
X3689357Y1182564D01*
X3684052Y1187869D01*
X3677121Y1190740D01*
D02*
G37*
G36*
X3488145D02*
X3480643D01*
X3473711Y1187869D01*
X3468407Y1182564D01*
X3465535Y1175633D01*
Y1168131D01*
X3468407Y1161200D01*
X3473711Y1155895D01*
X3480643Y1153024D01*
X3488145D01*
X3495076Y1155895D01*
X3500381Y1161200D01*
X3503252Y1168131D01*
Y1175633D01*
X3500381Y1182564D01*
X3495076Y1187869D01*
X3488145Y1190740D01*
D02*
G37*
G36*
X2771934Y1225480D02*
X2762066D01*
X2752533Y1222926D01*
X2743987Y1217992D01*
X2737008Y1211013D01*
X2732074Y1202467D01*
X2729520Y1192934D01*
Y1183066D01*
X2732074Y1173533D01*
X2737008Y1164987D01*
X2743987Y1158008D01*
X2752533Y1153074D01*
X2762066Y1150520D01*
X2771934D01*
X2781467Y1153074D01*
X2790013Y1158008D01*
X2796992Y1164987D01*
X2801926Y1173533D01*
X2804480Y1183066D01*
Y1192934D01*
X2801926Y1202467D01*
X2796992Y1211013D01*
X2790013Y1217992D01*
X2781467Y1222926D01*
X2771934Y1225480D01*
D02*
G37*
G36*
X3610192Y1163181D02*
X3602690D01*
X3595759Y1160310D01*
X3590454Y1155005D01*
X3587583Y1148074D01*
Y1140572D01*
X3590454Y1133640D01*
X3595759Y1128336D01*
X3602690Y1125465D01*
X3610192D01*
X3617123Y1128336D01*
X3622428Y1133640D01*
X3625299Y1140572D01*
Y1148074D01*
X3622428Y1155005D01*
X3617123Y1160310D01*
X3610192Y1163181D01*
D02*
G37*
G36*
X3555074D02*
X3547572D01*
X3540640Y1160310D01*
X3535336Y1155005D01*
X3532465Y1148074D01*
Y1140572D01*
X3535336Y1133640D01*
X3540640Y1128336D01*
X3547572Y1125465D01*
X3555074D01*
X3562005Y1128336D01*
X3567310Y1133640D01*
X3570181Y1140572D01*
Y1148074D01*
X3567310Y1155005D01*
X3562005Y1160310D01*
X3555074Y1163181D01*
D02*
G37*
G36*
X3677121Y1135622D02*
X3669619D01*
X3662688Y1132751D01*
X3657383Y1127446D01*
X3654512Y1120515D01*
Y1113013D01*
X3657383Y1106082D01*
X3662688Y1100777D01*
X3669619Y1097906D01*
X3677121D01*
X3684052Y1100777D01*
X3689357Y1106082D01*
X3692228Y1113013D01*
Y1120515D01*
X3689357Y1127446D01*
X3684052Y1132751D01*
X3677121Y1135622D01*
D02*
G37*
G36*
X3488145D02*
X3480643D01*
X3473711Y1132751D01*
X3468407Y1127446D01*
X3465535Y1120515D01*
Y1113013D01*
X3468407Y1106082D01*
X3473711Y1100777D01*
X3480643Y1097906D01*
X3488145D01*
X3495076Y1100777D01*
X3500381Y1106082D01*
X3503252Y1113013D01*
Y1120515D01*
X3500381Y1127446D01*
X3495076Y1132751D01*
X3488145Y1135622D01*
D02*
G37*
G36*
X403978Y1108000D02*
X396022D01*
X388671Y1104955D01*
X383045Y1099329D01*
X380500Y1093185D01*
X378866Y1092922D01*
X374134D01*
X372500Y1093185D01*
X369955Y1099329D01*
X364329Y1104955D01*
X356978Y1108000D01*
X349022D01*
X341671Y1104955D01*
X336045Y1099329D01*
X333000Y1091978D01*
Y1084022D01*
X336045Y1076671D01*
X341671Y1071045D01*
X344605Y1069830D01*
Y1061170D01*
X341671Y1059955D01*
X336045Y1054329D01*
X333000Y1046978D01*
Y1039022D01*
X336045Y1031671D01*
X341671Y1026045D01*
X343873Y1025133D01*
Y1016474D01*
X341671Y1015562D01*
X336045Y1009935D01*
X333000Y1002585D01*
Y994628D01*
X336045Y987277D01*
X341671Y981651D01*
X349022Y978606D01*
X356978D01*
X364329Y981651D01*
X369955Y987277D01*
X372500Y993421D01*
X374134Y993684D01*
X378866D01*
X380500Y993421D01*
X383045Y987277D01*
X388671Y981651D01*
X396022Y978606D01*
X403978D01*
X411329Y981651D01*
X416955Y987277D01*
X420000Y994628D01*
Y1002585D01*
X416955Y1009935D01*
X411329Y1015562D01*
X409127Y1016474D01*
Y1025133D01*
X411329Y1026045D01*
X416955Y1031671D01*
X420000Y1039022D01*
Y1046978D01*
X416955Y1054329D01*
X411329Y1059955D01*
X408395Y1061170D01*
Y1069830D01*
X411329Y1071045D01*
X416955Y1076671D01*
X420000Y1084022D01*
Y1091978D01*
X416955Y1099329D01*
X411329Y1104955D01*
X403978Y1108000D01*
D02*
G37*
G36*
X238506D02*
X230549D01*
X223198Y1104955D01*
X217572Y1099329D01*
X214528Y1091978D01*
Y1084022D01*
X217572Y1076671D01*
X223198Y1071045D01*
X230549Y1068000D01*
X238506D01*
X245857Y1071045D01*
X251483Y1076671D01*
X254528Y1084022D01*
Y1091978D01*
X251483Y1099329D01*
X245857Y1104955D01*
X238506Y1108000D01*
D02*
G37*
G36*
X3637751Y1096252D02*
X3630249D01*
X3623318Y1093381D01*
X3618013Y1088076D01*
X3615142Y1081145D01*
Y1073643D01*
X3618013Y1066711D01*
X3623318Y1061407D01*
X3630249Y1058535D01*
X3637751D01*
X3644682Y1061407D01*
X3649987Y1066711D01*
X3652858Y1073643D01*
Y1081145D01*
X3649987Y1088076D01*
X3644682Y1093381D01*
X3637751Y1096252D01*
D02*
G37*
G36*
X3582633D02*
X3575131D01*
X3568200Y1093381D01*
X3562895Y1088076D01*
X3560024Y1081145D01*
Y1073643D01*
X3562895Y1066711D01*
X3568200Y1061407D01*
X3575131Y1058535D01*
X3582633D01*
X3589564Y1061407D01*
X3594869Y1066711D01*
X3597740Y1073643D01*
Y1081145D01*
X3594869Y1088076D01*
X3589564Y1093381D01*
X3582633Y1096252D01*
D02*
G37*
G36*
X3527515D02*
X3520013D01*
X3513081Y1093381D01*
X3507777Y1088076D01*
X3504906Y1081145D01*
Y1073643D01*
X3507777Y1066711D01*
X3513081Y1061407D01*
X3520013Y1058535D01*
X3527515D01*
X3534446Y1061407D01*
X3539751Y1066711D01*
X3542622Y1073643D01*
Y1081145D01*
X3539751Y1088076D01*
X3534446Y1093381D01*
X3527515Y1096252D01*
D02*
G37*
G36*
X306482Y1108000D02*
X298526D01*
X291175Y1104955D01*
X285549Y1099329D01*
X282504Y1091978D01*
Y1084022D01*
X285549Y1076671D01*
X291175Y1071045D01*
X294109Y1069830D01*
Y1061170D01*
X291175Y1059955D01*
X285549Y1054329D01*
X282504Y1046978D01*
Y1039022D01*
X285549Y1031671D01*
X291175Y1026045D01*
X298526Y1023000D01*
X306482D01*
X313833Y1026045D01*
X319459Y1031671D01*
X322504Y1039022D01*
Y1046978D01*
X319459Y1054329D01*
X313833Y1059955D01*
X310899Y1061170D01*
Y1069830D01*
X313833Y1071045D01*
X319459Y1076671D01*
X322504Y1084022D01*
Y1091978D01*
X319459Y1099329D01*
X313833Y1104955D01*
X306482Y1108000D01*
D02*
G37*
G36*
X3725411Y1041000D02*
X3717455D01*
X3710104Y1037955D01*
X3704478Y1032329D01*
X3701433Y1024978D01*
Y1017022D01*
X3704478Y1009671D01*
X3710104Y1004045D01*
X3717455Y1001000D01*
X3725411D01*
X3732762Y1004045D01*
X3738388Y1009671D01*
X3741433Y1017022D01*
Y1024978D01*
X3738388Y1032329D01*
X3732762Y1037955D01*
X3725411Y1041000D01*
D02*
G37*
G36*
X548978Y1108000D02*
X541022D01*
X533671Y1104955D01*
X528045Y1099329D01*
X525000Y1091978D01*
Y1084022D01*
X528045Y1076671D01*
X533671Y1071045D01*
X536605Y1069830D01*
Y1061170D01*
X533671Y1059955D01*
X528045Y1054329D01*
X525000Y1046978D01*
Y1039022D01*
X528045Y1031671D01*
X533671Y1026045D01*
X535873Y1025133D01*
Y1016474D01*
X533671Y1015562D01*
X528045Y1009935D01*
X525000Y1002585D01*
Y994628D01*
X528045Y987277D01*
X533671Y981651D01*
X541022Y978606D01*
X548978D01*
X556329Y981651D01*
X561955Y987277D01*
X565000Y994628D01*
Y1002585D01*
X561955Y1009935D01*
X556329Y1015562D01*
X554127Y1016474D01*
Y1025133D01*
X556329Y1026045D01*
X561955Y1031671D01*
X565000Y1039022D01*
Y1046978D01*
X561955Y1054329D01*
X556329Y1059955D01*
X553395Y1061170D01*
Y1069830D01*
X556329Y1071045D01*
X561955Y1076671D01*
X565000Y1084022D01*
Y1091978D01*
X561955Y1099329D01*
X556329Y1104955D01*
X548978Y1108000D01*
D02*
G37*
G36*
X3785415Y950178D02*
X3777459D01*
X3770108Y947133D01*
X3764482Y941507D01*
X3761437Y934156D01*
Y926199D01*
X3764482Y918849D01*
X3770108Y913222D01*
X3777459Y910178D01*
X3785415D01*
X3792766Y913222D01*
X3798392Y918849D01*
X3801437Y926199D01*
Y934156D01*
X3798392Y941507D01*
X3792766Y947133D01*
X3785415Y950178D01*
D02*
G37*
G36*
X3249774Y948796D02*
X3241818D01*
X3234467Y945751D01*
X3228841Y940125D01*
X3225796Y932774D01*
Y924818D01*
X3228841Y917467D01*
X3234467Y911841D01*
X3241818Y908796D01*
X3249774D01*
X3257125Y911841D01*
X3262751Y917467D01*
X3265796Y924818D01*
Y932774D01*
X3262751Y940125D01*
X3257125Y945751D01*
X3249774Y948796D01*
D02*
G37*
G36*
X3386797Y879796D02*
X3378841D01*
X3371490Y876751D01*
X3365864Y871125D01*
X3362819Y863774D01*
Y855818D01*
X3365864Y848467D01*
X3371490Y842841D01*
X3378841Y839796D01*
X3386797D01*
X3394148Y842841D01*
X3399774Y848467D01*
X3402819Y855818D01*
Y863774D01*
X3399774Y871125D01*
X3394148Y876751D01*
X3386797Y879796D01*
D02*
G37*
G36*
X305260Y851145D02*
X254079D01*
X246607Y850161D01*
X239644Y847277D01*
X233665Y842689D01*
X229737Y837569D01*
X165429D01*
X161500Y842689D01*
X155521Y847277D01*
X148559Y850161D01*
X141087Y851145D01*
X89906D01*
X82434Y850161D01*
X75471Y847277D01*
X69492Y842689D01*
X64904Y836710D01*
X62020Y829747D01*
X61036Y822276D01*
X62020Y814804D01*
X64904Y807841D01*
X69492Y801862D01*
X75471Y797274D01*
X82434Y794390D01*
X89906Y793407D01*
X100202D01*
Y510593D01*
X89906D01*
X82434Y509610D01*
X75471Y506726D01*
X69492Y502138D01*
X64904Y496159D01*
X62020Y489196D01*
X61036Y481724D01*
X62020Y474253D01*
X64904Y467290D01*
X69492Y461311D01*
X75471Y456723D01*
X82434Y453839D01*
X89906Y452855D01*
X141087D01*
X148559Y453839D01*
X155521Y456723D01*
X161500Y461311D01*
X165429Y466430D01*
X229737D01*
X233665Y461311D01*
X239644Y456723D01*
X246607Y453839D01*
X254079Y452855D01*
X305260D01*
X312732Y453839D01*
X319694Y456723D01*
X325673Y461311D01*
X330261Y467290D01*
X333145Y474253D01*
X334129Y481724D01*
X333145Y489196D01*
X330261Y496159D01*
X325673Y502138D01*
X319694Y506726D01*
X312732Y509610D01*
X305260Y510593D01*
X254079D01*
X246607Y509610D01*
X239644Y506726D01*
X233665Y502138D01*
X229737Y497018D01*
X165429D01*
X161500Y502138D01*
X155521Y506726D01*
X148559Y509610D01*
X141087Y510593D01*
X130790D01*
Y562048D01*
X132368Y563102D01*
X140325D01*
X147676Y566147D01*
X151947Y570418D01*
X156673Y571209D01*
X161400Y570418D01*
X165671Y566147D01*
X173022Y563102D01*
X180978D01*
X188329Y566147D01*
X192138Y569956D01*
X197000Y571073D01*
X201862Y569956D01*
X205671Y566147D01*
X213022Y563102D01*
X220978D01*
X228329Y566147D01*
X233955Y571773D01*
X237000Y579124D01*
Y587081D01*
X233955Y594432D01*
X230591Y597795D01*
X229129Y602787D01*
X230591Y607780D01*
X233955Y611143D01*
X237000Y618494D01*
Y626451D01*
X233955Y633802D01*
X230591Y637165D01*
X229129Y642158D01*
X230591Y647150D01*
X233955Y650513D01*
X237000Y657864D01*
Y665821D01*
X233955Y673172D01*
X230591Y676535D01*
X229129Y681528D01*
X230591Y686520D01*
X233955Y689884D01*
X237000Y697234D01*
Y705191D01*
X233955Y712542D01*
X228329Y718168D01*
X225063Y719521D01*
Y728180D01*
X228329Y729533D01*
X233955Y735159D01*
X237000Y742510D01*
Y750466D01*
X233955Y757817D01*
X228329Y763443D01*
X220978Y766488D01*
X213022D01*
X205671Y763443D01*
X201862Y759634D01*
X197000Y758517D01*
X192138Y759634D01*
X188329Y763443D01*
X180978Y766488D01*
X173022D01*
X165671Y763443D01*
X161400Y759172D01*
X156673Y758381D01*
X151947Y759172D01*
X147676Y763443D01*
X140325Y766488D01*
X132368D01*
X130790Y767543D01*
Y793407D01*
X141087D01*
X148559Y794390D01*
X155521Y797274D01*
X161500Y801862D01*
X165429Y806982D01*
X229737D01*
X233665Y801862D01*
X239644Y797274D01*
X246607Y794390D01*
X254079Y793407D01*
X305260D01*
X312732Y794390D01*
X319694Y797274D01*
X325673Y801862D01*
X330261Y807841D01*
X333145Y814804D01*
X334129Y822276D01*
X333145Y829747D01*
X330261Y836710D01*
X325673Y842689D01*
X319694Y847277D01*
X312732Y850161D01*
X305260Y851145D01*
D02*
G37*
G36*
X3336797Y851181D02*
X3328841D01*
X3321490Y848136D01*
X3315864Y842510D01*
X3312819Y835159D01*
Y827203D01*
X3315864Y819852D01*
X3321490Y814226D01*
X3328841Y811181D01*
X3336797D01*
X3344148Y814226D01*
X3349774Y819852D01*
X3352819Y827203D01*
Y835159D01*
X3349774Y842510D01*
X3344148Y848136D01*
X3336797Y851181D01*
D02*
G37*
G36*
X263722Y782591D02*
X257034D01*
X250855Y780031D01*
X246126Y775302D01*
X243567Y769123D01*
Y762436D01*
X246126Y756257D01*
X250855Y751528D01*
X257034Y748968D01*
X263722D01*
X269901Y751528D01*
X274630Y756257D01*
X277189Y762436D01*
Y769123D01*
X274630Y775302D01*
X269901Y780031D01*
X263722Y782591D01*
D02*
G37*
G36*
X3836797Y735000D02*
X3828841D01*
X3821490Y731955D01*
X3815864Y726329D01*
X3812819Y718978D01*
Y711022D01*
X3815864Y703671D01*
X3821490Y698045D01*
X3828841Y695000D01*
X3836797D01*
X3844148Y698045D01*
X3849774Y703671D01*
X3852819Y711022D01*
Y718978D01*
X3849774Y726329D01*
X3844148Y731955D01*
X3836797Y735000D01*
D02*
G37*
G36*
X3536797D02*
X3528841D01*
X3521490Y731955D01*
X3515864Y726329D01*
X3512819Y718978D01*
Y711022D01*
X3515864Y703671D01*
X3521490Y698045D01*
X3528841Y695000D01*
X3536797D01*
X3544148Y698045D01*
X3549774Y703671D01*
X3552819Y711022D01*
Y718978D01*
X3549774Y726329D01*
X3544148Y731955D01*
X3536797Y735000D01*
D02*
G37*
G36*
X3786797Y735000D02*
X3778841D01*
X3771490Y731955D01*
X3765864Y726329D01*
X3762819Y718978D01*
Y711022D01*
X3765864Y703671D01*
X3771490Y698045D01*
X3778841Y695000D01*
X3786797D01*
X3794148Y698045D01*
X3799774Y703671D01*
X3802819Y711022D01*
Y718978D01*
X3799774Y726329D01*
X3794148Y731955D01*
X3786797Y735000D01*
D02*
G37*
G36*
X3236797Y735000D02*
X3228841D01*
X3221490Y731955D01*
X3215864Y726329D01*
X3212819Y718978D01*
Y711022D01*
X3215864Y703671D01*
X3221490Y698045D01*
X3228841Y695000D01*
X3236797D01*
X3244148Y698045D01*
X3249774Y703671D01*
X3252819Y711022D01*
Y718978D01*
X3249774Y726329D01*
X3244148Y731955D01*
X3236797Y735000D01*
D02*
G37*
G36*
X3486797Y724465D02*
X3478841D01*
X3471490Y721420D01*
X3465864Y715794D01*
X3462819Y708443D01*
Y700486D01*
X3465864Y693135D01*
X3471490Y687509D01*
X3478841Y684465D01*
X3486797D01*
X3494148Y687509D01*
X3499774Y693135D01*
X3502819Y700486D01*
Y708443D01*
X3499774Y715794D01*
X3494148Y721420D01*
X3486797Y724465D01*
D02*
G37*
G36*
X3436797Y712323D02*
X3428841D01*
X3421490Y709278D01*
X3415864Y703652D01*
X3412819Y696301D01*
Y688345D01*
X3415864Y680994D01*
X3421490Y675368D01*
X3428841Y672323D01*
X3436797D01*
X3444148Y675368D01*
X3449774Y680994D01*
X3452819Y688345D01*
Y696301D01*
X3449774Y703652D01*
X3444148Y709278D01*
X3436797Y712323D01*
D02*
G37*
G36*
X3588142Y665433D02*
X3577496D01*
X3567212Y662678D01*
X3557992Y657355D01*
X3550464Y649826D01*
X3545141Y640607D01*
X3542386Y630323D01*
Y619677D01*
X3545141Y609393D01*
X3550464Y600174D01*
X3557992Y592645D01*
X3567212Y587322D01*
X3577496Y584567D01*
X3588142D01*
X3598425Y587322D01*
X3607645Y592645D01*
X3615173Y600174D01*
X3620497Y609393D01*
X3623252Y619677D01*
Y630323D01*
X3620497Y640607D01*
X3615173Y649826D01*
X3607645Y657355D01*
X3598425Y662678D01*
X3588142Y665433D01*
D02*
G37*
G36*
X3488142D02*
X3477496D01*
X3467212Y662678D01*
X3457992Y657355D01*
X3450464Y649826D01*
X3445141Y640607D01*
X3442386Y630323D01*
Y619677D01*
X3445141Y609393D01*
X3450464Y600174D01*
X3457992Y592645D01*
X3467212Y587322D01*
X3477496Y584567D01*
X3488142D01*
X3498425Y587322D01*
X3507645Y592645D01*
X3515173Y600174D01*
X3520497Y609393D01*
X3523252Y619677D01*
Y630323D01*
X3520497Y640607D01*
X3515173Y649826D01*
X3507645Y657355D01*
X3498425Y662678D01*
X3488142Y665433D01*
D02*
G37*
G36*
X3423252D02*
X3342386D01*
Y584567D01*
X3423252D01*
Y665433D01*
D02*
G37*
G36*
X3445743Y555005D02*
X3444863Y554125D01*
X3438618Y543308D01*
X3436960Y537119D01*
X3428678D01*
X3427019Y543308D01*
X3420775Y554125D01*
X3419895Y555005D01*
X3389890Y525000D01*
X3419895Y494995D01*
X3420775Y495875D01*
X3427019Y506692D01*
X3428678Y512881D01*
X3436960D01*
X3438618Y506692D01*
X3444863Y495875D01*
X3445743Y494995D01*
X3475748Y525000D01*
X3445743Y555005D01*
D02*
G37*
G36*
X3489064Y572433D02*
X3476574D01*
X3464510Y569201D01*
X3453694Y562956D01*
X3452814Y562076D01*
X3482819Y532071D01*
X3512824Y562076D01*
X3511943Y562956D01*
X3501127Y569201D01*
X3489064Y572433D01*
D02*
G37*
G36*
X3389064D02*
X3376574D01*
X3364510Y569201D01*
X3353694Y562956D01*
X3352814Y562076D01*
X3382819Y532071D01*
X3412824Y562076D01*
X3411943Y562956D01*
X3401127Y569201D01*
X3389064Y572433D01*
D02*
G37*
G36*
X263722Y555032D02*
X257034D01*
X250855Y552472D01*
X246126Y547743D01*
X243567Y541564D01*
Y534877D01*
X246126Y528698D01*
X250855Y523969D01*
X257034Y521409D01*
X263722D01*
X269901Y523969D01*
X274630Y528698D01*
X277189Y534877D01*
Y541564D01*
X274630Y547743D01*
X269901Y552472D01*
X263722Y555032D01*
D02*
G37*
G36*
X3519895Y555005D02*
X3489890Y525000D01*
X3519895Y494995D01*
X3520775Y495875D01*
X3527019Y506692D01*
X3530252Y518755D01*
Y531245D01*
X3527019Y543308D01*
X3520775Y554125D01*
X3519895Y555005D01*
D02*
G37*
G36*
X3345743Y555005D02*
X3344863Y554125D01*
X3338618Y543308D01*
X3335386Y531245D01*
Y518755D01*
X3338618Y506692D01*
X3344863Y495875D01*
X3345743Y494995D01*
X3375748Y525000D01*
X3345743Y555005D01*
D02*
G37*
G36*
X3588142Y565433D02*
X3577496D01*
X3567212Y562678D01*
X3557992Y557355D01*
X3550464Y549826D01*
X3545141Y540607D01*
X3542386Y530323D01*
Y519677D01*
X3545141Y509393D01*
X3550464Y500174D01*
X3557992Y492646D01*
X3567212Y487322D01*
X3577496Y484567D01*
X3588142D01*
X3598425Y487322D01*
X3607645Y492646D01*
X3615173Y500174D01*
X3620497Y509393D01*
X3623252Y519677D01*
Y530323D01*
X3620497Y540607D01*
X3615173Y549826D01*
X3607645Y557355D01*
X3598425Y562678D01*
X3588142Y565433D01*
D02*
G37*
G36*
X3482819Y517929D02*
X3452814Y487924D01*
X3453694Y487044D01*
X3464510Y480800D01*
X3476574Y477567D01*
X3489064D01*
X3501127Y480800D01*
X3511943Y487044D01*
X3512824Y487924D01*
X3482819Y517929D01*
D02*
G37*
G36*
X3382819D02*
X3352814Y487924D01*
X3353694Y487044D01*
X3364510Y480800D01*
X3376574Y477567D01*
X3389064D01*
X3401127Y480800D01*
X3411943Y487044D01*
X3412824Y487924D01*
X3382819Y517929D01*
D02*
G37*
G36*
X3746487Y497000D02*
X3738530D01*
X3731179Y493955D01*
X3725553Y488329D01*
X3722508Y480978D01*
Y473022D01*
X3725553Y465671D01*
X3731179Y460045D01*
X3738530Y457000D01*
X3746487D01*
X3753838Y460045D01*
X3759464Y465671D01*
X3762508Y473022D01*
Y480978D01*
X3759464Y488329D01*
X3753838Y493955D01*
X3746487Y497000D01*
D02*
G37*
G36*
X1054978Y474165D02*
X1047022D01*
X1039671Y471120D01*
X1034045Y465494D01*
X1031000Y458144D01*
Y450187D01*
X1034045Y442836D01*
X1039671Y437210D01*
X1047022Y434165D01*
X1054978D01*
X1062329Y437210D01*
X1067955Y442836D01*
X1071000Y450187D01*
Y458144D01*
X1067955Y465494D01*
X1062329Y471120D01*
X1054978Y474165D01*
D02*
G37*
G36*
X3025459Y349941D02*
X3017502D01*
X3010151Y346896D01*
X3004525Y341270D01*
X3001480Y333919D01*
Y325962D01*
X3004525Y318612D01*
X3010151Y312986D01*
X3017502Y309941D01*
X3025459D01*
X3032809Y312986D01*
X3038436Y318612D01*
X3041480Y325962D01*
Y333919D01*
X3038436Y341270D01*
X3032809Y346896D01*
X3025459Y349941D01*
D02*
G37*
G36*
X3617978Y266240D02*
X3610022D01*
X3602671Y263195D01*
X3597045Y257569D01*
X3594000Y250218D01*
Y242262D01*
X3597045Y234911D01*
X3602671Y229285D01*
X3610022Y226240D01*
X3617978D01*
X3625329Y229285D01*
X3630955Y234911D01*
X3634000Y242262D01*
Y250218D01*
X3630955Y257569D01*
X3625329Y263195D01*
X3617978Y266240D01*
D02*
G37*
G36*
X3606839Y195116D02*
X3598883D01*
X3591532Y192071D01*
X3585906Y186445D01*
X3582861Y179094D01*
Y171137D01*
X3585906Y163787D01*
X3591532Y158161D01*
X3598883Y155116D01*
X3606839D01*
X3614190Y158161D01*
X3619816Y163787D01*
X3622861Y171137D01*
Y179094D01*
X3619816Y186445D01*
X3614190Y192071D01*
X3606839Y195116D01*
D02*
G37*
G36*
X3799033Y155508D02*
X3791077D01*
X3783726Y152463D01*
X3778100Y146837D01*
X3775055Y139486D01*
Y131529D01*
X3778100Y124178D01*
X3783726Y118552D01*
X3791077Y115508D01*
X3799033D01*
X3806384Y118552D01*
X3812010Y124178D01*
X3815055Y131529D01*
Y139486D01*
X3812010Y146837D01*
X3806384Y152463D01*
X3799033Y155508D01*
D02*
G37*
G36*
X3725411D02*
X3717455D01*
X3710104Y152463D01*
X3704478Y146837D01*
X3701433Y139486D01*
Y131529D01*
X3704478Y124178D01*
X3710104Y118552D01*
X3717455Y115508D01*
X3725411D01*
X3732762Y118552D01*
X3738388Y124178D01*
X3741433Y131529D01*
Y139486D01*
X3738388Y146837D01*
X3732762Y152463D01*
X3725411Y155508D01*
D02*
G37*
G36*
X3649427D02*
X3641471D01*
X3634120Y152463D01*
X3628494Y146837D01*
X3625449Y139486D01*
Y131529D01*
X3628494Y124178D01*
X3634120Y118552D01*
X3641471Y115508D01*
X3649427D01*
X3656778Y118552D01*
X3662404Y124178D01*
X3665449Y131529D01*
Y139486D01*
X3662404Y146837D01*
X3656778Y152463D01*
X3649427Y155508D01*
D02*
G37*
%LPD*%
D30*
X115496Y481724D02*
X279669D01*
X115496D02*
Y822276D01*
X279669D01*
D33*
X1336134Y3784469D02*
D03*
X1186134D02*
D03*
X1036134D02*
D03*
X886134D02*
D03*
X3158087Y3782000D02*
D03*
X3008087D02*
D03*
X2858087D02*
D03*
X2708087D02*
D03*
X2228000Y3784000D02*
D03*
X2078000D02*
D03*
X1928000D02*
D03*
X1778000D02*
D03*
D34*
X260378Y765779D02*
D03*
Y538221D02*
D03*
D35*
X279669Y822276D02*
D03*
Y481724D02*
D03*
X115496D02*
D03*
Y822276D02*
D03*
D36*
X2767000Y1188000D02*
D03*
Y1288000D02*
D03*
Y1388000D02*
D03*
Y1488000D02*
D03*
D37*
X1648000Y1487827D02*
D03*
Y1387827D02*
D03*
Y1287827D02*
D03*
X1548000Y1487827D02*
D03*
Y1387827D02*
D03*
X951000Y1287827D02*
D03*
Y1387827D02*
D03*
Y1487827D02*
D03*
X1051000Y1287827D02*
D03*
Y1387827D02*
D03*
X3482819Y625000D02*
D03*
X3582819D02*
D03*
X3382819Y525000D02*
D03*
X3482819D02*
D03*
X3582819D02*
D03*
X2233220Y1487827D02*
D03*
Y1387827D02*
D03*
Y1287827D02*
D03*
X2133220Y1487827D02*
D03*
Y1387827D02*
D03*
D38*
X1548000Y1287827D02*
D03*
X1051000Y1487827D02*
D03*
X2133220Y1287827D02*
D03*
D39*
X329000Y3224000D02*
D03*
D40*
X565221D02*
D03*
D41*
X447110Y3038961D02*
D03*
D42*
X1952512Y2608469D02*
D03*
X2052512D02*
D03*
X2152512D02*
D03*
X1952512Y2308469D02*
D03*
X2052512D02*
D03*
X2152512D02*
D03*
X1251000Y2308938D02*
D03*
X1151000D02*
D03*
X1051000D02*
D03*
X1251000Y2608938D02*
D03*
X1151000D02*
D03*
X1051000D02*
D03*
X2868512Y2606469D02*
D03*
X2968512D02*
D03*
X3068512D02*
D03*
X2868512Y2306469D02*
D03*
X2968512D02*
D03*
X3068512D02*
D03*
D43*
X3382819Y625000D02*
D03*
D44*
X3578882Y1266370D02*
D03*
X3523764D02*
D03*
X3484394Y1227000D02*
D03*
Y1171882D02*
D03*
Y1116764D02*
D03*
X3523764Y1077394D02*
D03*
X3578882D02*
D03*
X3634000D02*
D03*
X3673370Y1116764D02*
D03*
Y1171882D02*
D03*
Y1227000D02*
D03*
X3632819Y1266370D02*
D03*
X3551323Y1199441D02*
D03*
Y1144323D02*
D03*
X3606441D02*
D03*
X3606441Y1199441D02*
D03*
D45*
X2061000Y895701D02*
D03*
Y1045000D02*
D03*
X1785173Y1170000D02*
D03*
Y1438000D02*
D03*
Y1317827D02*
D03*
X2465716Y681000D02*
D03*
X2465598Y613701D02*
D03*
X2465299Y542701D02*
D03*
X2465716Y466000D02*
D03*
X2465000Y752701D02*
D03*
X2465299Y389000D02*
D03*
X2785716Y681000D02*
D03*
X2785598Y613701D02*
D03*
X2785299Y542701D02*
D03*
X2785716Y466000D02*
D03*
X2785000Y752701D02*
D03*
X2785299Y389000D02*
D03*
X3085402D02*
D03*
X3085102Y752701D02*
D03*
X3085402Y542701D02*
D03*
X3085701Y613701D02*
D03*
X3085819Y681000D02*
D03*
X1612402Y800401D02*
D03*
X1612701Y716701D02*
D03*
X1422402Y714401D02*
D03*
X1519102Y714701D02*
D03*
X1519402Y894401D02*
D03*
X1519701Y800701D02*
D03*
X1422701D02*
D03*
X1422402Y998008D02*
D03*
X1422701Y895701D02*
D03*
X1314402Y894701D02*
D03*
Y1101401D02*
D03*
X1314701Y998307D02*
D03*
X1210402D02*
D03*
X1210701Y1101701D02*
D03*
X1211701Y1196701D02*
D03*
X1051000Y454165D02*
D03*
X3582819Y1505181D02*
D03*
X3074000Y1992000D02*
D03*
X3025000Y1898000D02*
D03*
X2817087Y1566000D02*
D03*
X3282819Y1353000D02*
D03*
X3721433Y1021000D02*
D03*
X3781437Y930178D02*
D03*
X3245796Y928796D02*
D03*
X3706480Y1520181D02*
D03*
X3832819Y715000D02*
D03*
X3532819D02*
D03*
X3482819Y704465D02*
D03*
X3432819Y692323D02*
D03*
X3382819Y859796D02*
D03*
X3332819Y831181D02*
D03*
X3232819Y715000D02*
D03*
X3782819Y715000D02*
D03*
X3021480Y329941D02*
D03*
X3742508Y477000D02*
D03*
X1298531Y3080622D02*
D03*
X2200512Y3080154D02*
D03*
X3119925Y3078154D02*
D03*
X3795055Y57240D02*
D03*
X3721433D02*
D03*
X3645449D02*
D03*
X3795055Y135508D02*
D03*
X3721433D02*
D03*
X3645449D02*
D03*
X3602861Y175116D02*
D03*
X3614000Y246240D02*
D03*
X217000Y746488D02*
D03*
X177000D02*
D03*
X136346D02*
D03*
Y701213D02*
D03*
X177000D02*
D03*
X217000D02*
D03*
Y661842D02*
D03*
X177000D02*
D03*
X136346D02*
D03*
Y622472D02*
D03*
X177000D02*
D03*
X217000D02*
D03*
Y583102D02*
D03*
X177000D02*
D03*
X136346D02*
D03*
X302504Y1088000D02*
D03*
Y1043000D02*
D03*
X234528Y1088000D02*
D03*
X353000D02*
D03*
Y1043000D02*
D03*
Y998606D02*
D03*
X400000D02*
D03*
Y1043000D02*
D03*
Y1088000D02*
D03*
X545000Y998606D02*
D03*
Y1043000D02*
D03*
Y1088000D02*
D03*
X3641480Y1671819D02*
D03*
X3665134Y367303D02*
D03*
Y327933D02*
D03*
X3641480Y1596000D02*
D03*
X3665134Y288563D02*
D03*
X3799008Y1780000D02*
D03*
Y1596000D02*
D03*
Y1688000D02*
D03*
X3744079Y2234772D02*
D03*
X3844008Y1596000D02*
D03*
Y1870000D02*
D03*
X3704504Y367303D02*
D03*
X3844008Y1780000D02*
D03*
X3743874Y367303D02*
D03*
X3704504Y327933D02*
D03*
Y288563D02*
D03*
X3742508Y327908D02*
D03*
X3844008Y1688000D02*
D03*
X3799008Y1870000D02*
D03*
X3743874Y288563D02*
D03*
X1858181Y3261452D02*
D03*
X1949512Y3225693D02*
D03*
X1914512Y3351965D02*
D03*
X1773668D02*
D03*
Y3261452D02*
D03*
X2170512Y3232469D02*
D03*
X657221Y2924083D02*
D03*
X1152260Y2735764D02*
D03*
X1048000Y3226162D02*
D03*
X817978Y3014426D02*
D03*
X1081260Y2735764D02*
D03*
X994000Y3137938D02*
D03*
X1423307Y3232938D02*
D03*
Y2960961D02*
D03*
X1124630Y3100308D02*
D03*
X1269000Y3232938D02*
D03*
X1340630D02*
D03*
X1464000Y3080623D02*
D03*
X872156Y3261921D02*
D03*
X956669D02*
D03*
X797978D02*
D03*
X814000Y2952764D02*
D03*
X1011945Y2657938D02*
D03*
X1203370Y3060938D02*
D03*
X1124630Y3021568D02*
D03*
X1164000D02*
D03*
X1203370D02*
D03*
X1124630Y3060938D02*
D03*
X1164000D02*
D03*
X817978Y3090809D02*
D03*
X1007804D02*
D03*
X872156Y3352434D02*
D03*
X1013000D02*
D03*
X797978D02*
D03*
X1405512Y2694426D02*
D03*
X1203370Y2902198D02*
D03*
X1164000Y3100308D02*
D03*
X1269000Y2977128D02*
D03*
X1308000Y3133938D02*
D03*
X1361406Y2816938D02*
D03*
X1203370Y3100308D02*
D03*
X1222630Y2735764D02*
D03*
X1340630Y3319922D02*
D03*
X1477000D02*
D03*
X1292000Y2657938D02*
D03*
X1116000D02*
D03*
X1189000D02*
D03*
X1699490Y3261452D02*
D03*
Y3351965D02*
D03*
X1895512Y3137469D02*
D03*
X1719490Y3090340D02*
D03*
X1715512Y2952296D02*
D03*
X2104882Y2901729D02*
D03*
X1719490Y3013957D02*
D03*
X1909316Y3090340D02*
D03*
X2170512Y2976659D02*
D03*
X2242142Y3319453D02*
D03*
Y3232469D02*
D03*
X2324819D02*
D03*
X2378512Y3319453D02*
D03*
X2262918Y2816469D02*
D03*
X2324819Y2960492D02*
D03*
X2209512Y3133469D02*
D03*
X2065512Y3021099D02*
D03*
X2104882Y3060469D02*
D03*
Y3021099D02*
D03*
X2065512Y3060469D02*
D03*
X2124142Y2735296D02*
D03*
X2090512Y2657469D02*
D03*
X2307024Y2693957D02*
D03*
X2017512Y2657469D02*
D03*
X2193512D02*
D03*
X1913457D02*
D03*
X2053772Y2735296D02*
D03*
X1982772D02*
D03*
X2026142Y3021099D02*
D03*
X2065512Y3099839D02*
D03*
X2365512Y3080154D02*
D03*
X2026142Y3060469D02*
D03*
Y3099839D02*
D03*
X2104882D02*
D03*
X2631512Y2950296D02*
D03*
X2635490Y3088340D02*
D03*
Y3011957D02*
D03*
X2942142Y3097839D02*
D03*
X2981512Y3058469D02*
D03*
X2829457Y2655469D02*
D03*
X2898772Y2733296D02*
D03*
X2865512Y3223693D02*
D03*
X2811512Y3135469D02*
D03*
X2825316Y3088340D02*
D03*
X2981512Y3019099D02*
D03*
X2933512Y2655469D02*
D03*
X2981512Y3097839D02*
D03*
X2942142Y3058469D02*
D03*
Y3019099D02*
D03*
X2969772Y2733296D02*
D03*
X3020882Y2899729D02*
D03*
X3109512Y2655469D02*
D03*
X3020882Y3097839D02*
D03*
X3086512Y2974659D02*
D03*
X3020882Y3058469D02*
D03*
Y3019099D02*
D03*
X3125512Y3131469D02*
D03*
X3040142Y2733296D02*
D03*
X3294512Y3317453D02*
D03*
X3240819Y3230469D02*
D03*
Y2958492D02*
D03*
X3158142Y3317453D02*
D03*
X3281512Y3078154D02*
D03*
X2774181Y3259452D02*
D03*
X3086512Y3230469D02*
D03*
X2689668Y3259452D02*
D03*
X2615490D02*
D03*
X3178918Y2814469D02*
D03*
X3158142Y3230469D02*
D03*
X3223024Y2691957D02*
D03*
X3006512Y2655469D02*
D03*
X2615490Y3349965D02*
D03*
X2830512D02*
D03*
X2689668D02*
D03*
%TF.MD5,c769bac21c8444d4788d2ce595515b35*%
M02*
