%TF.GenerationSoftware,Altium Limited,Altium Designer,22.11.1 (43)*%
G04 Layer_Color=32768*
%FSLAX26Y26*%
%MOIN*%
%TF.SameCoordinates,2A7337FD-AF25-45B1-AC32-E314E96981BF*%
%TF.FilePolarity,Positive*%
%TF.FileFunction,Other,Mechanical_3*%
%TF.Part,Single*%
G01*
G75*
%TA.AperFunction,NonConductor*%
%ADD53C,0.006000*%
%ADD55C,0.010000*%
%ADD56C,0.015000*%
%ADD96C,0.030000*%
%ADD97C,0.021000*%
%ADD98C,0.020000*%
D53*
X301772Y1551181D02*
X901772D01*
Y1838583D01*
X301772Y1551181D02*
Y1838583D01*
X901772D01*
X11812Y326371D02*
Y626371D01*
Y326371D02*
X299213D01*
X11812Y626371D02*
X299213D01*
Y326371D02*
Y626371D01*
X2165165Y287787D02*
X2560835D01*
X2165165Y-43709D02*
X2560835D01*
Y287787D01*
X2165165Y-43709D02*
Y287787D01*
X2407249Y1261413D02*
X2466304D01*
Y1138579D02*
Y1261413D01*
X2407249Y1138579D02*
X2466304D01*
X2407249D02*
Y1261413D01*
X2120371Y411678D02*
X2403835D01*
X2120371Y746323D02*
X2403835D01*
X2120371Y411678D02*
Y746323D01*
X2403835Y411678D02*
Y746323D01*
X3711999Y1173543D02*
Y1573543D01*
Y1173543D02*
X3811999D01*
Y1573543D01*
X3711999D02*
X3811999D01*
X2960118Y1152756D02*
Y1400787D01*
Y1152756D02*
X3208149D01*
Y1400787D01*
X2960118D02*
X3208149D01*
X2225000Y1620000D02*
X2425000D01*
X2225000Y1320000D02*
Y1620000D01*
Y1320000D02*
X2425000D01*
Y1620000D01*
X2500926Y849331D02*
X2745808D01*
Y1094213D01*
X2500926D02*
X2745808D01*
X2500926Y849331D02*
Y1094213D01*
X756469Y1425000D02*
X891469D01*
Y1355000D02*
Y1425000D01*
X756469Y1355000D02*
X891469D01*
X756469D02*
Y1425000D01*
X1051570Y1095085D02*
X1248420D01*
Y898235D02*
Y1095085D01*
X1051570Y898235D02*
X1248420D01*
X1051570D02*
Y1095085D01*
X3551819Y857992D02*
Y1037992D01*
X3631819D01*
Y857992D02*
Y1037992D01*
X3551819Y857992D02*
X3631819D01*
X3570000Y1743339D02*
Y1873339D01*
X3630000D01*
Y1743339D02*
Y1873339D01*
X3570000Y1743339D02*
X3630000D01*
X3453543Y1735000D02*
Y1785000D01*
X3553543D01*
X3453543Y1735000D02*
X3553543D01*
Y1785000D01*
X1224680Y1235645D02*
X1294680D01*
X1224680D02*
Y1275645D01*
X1294680Y1235645D02*
Y1275645D01*
X1224680D02*
X1294680D01*
X149900Y926487D02*
Y1056487D01*
X209900D01*
Y926487D02*
Y1056487D01*
X149900Y926487D02*
X209900D01*
X73561Y918487D02*
X203561D01*
Y858487D02*
Y918487D01*
X73561Y858487D02*
X203561D01*
X73561D02*
Y918487D01*
X221270Y678405D02*
Y808405D01*
X281270D01*
Y678405D02*
Y808405D01*
X221270Y678405D02*
X281270D01*
X617900Y1105999D02*
Y1235999D01*
X557900Y1105999D02*
X617900D01*
X557900D02*
Y1235999D01*
X617900D01*
X73001Y1099346D02*
Y1229346D01*
X13001Y1099346D02*
X73001D01*
X13001D02*
Y1229346D01*
X73001D01*
X96270Y1100164D02*
Y1230164D01*
X156270D01*
Y1100164D02*
Y1230164D01*
X96270Y1100164D02*
X156270D01*
X486270Y1105999D02*
Y1235999D01*
X546270D01*
Y1105999D02*
Y1235999D01*
X486270Y1105999D02*
X546270D01*
X265270Y1103826D02*
Y1233826D01*
X325270D01*
Y1103826D02*
Y1233826D01*
X265270Y1103826D02*
X325270D01*
X169900Y1100165D02*
Y1280165D01*
X249900D01*
Y1100165D02*
Y1280165D01*
X169900Y1100165D02*
X249900D01*
X629900Y1102652D02*
Y1282652D01*
X709900D01*
Y1102652D02*
Y1282652D01*
X629900Y1102652D02*
X709900D01*
X501325Y678405D02*
Y808405D01*
X561325D01*
Y678405D02*
Y808405D01*
X501325Y678405D02*
X561325D01*
X564239Y907487D02*
X694239D01*
X564239D02*
Y967487D01*
X694239D01*
Y907487D02*
Y967487D01*
X289585Y1279660D02*
X359585D01*
Y1239660D02*
Y1279660D01*
X289585Y1239660D02*
Y1279660D01*
Y1239660D02*
X359585D01*
X570325Y678405D02*
Y808405D01*
X630325D01*
Y678405D02*
Y808405D01*
X570325Y678405D02*
X630325D01*
X485955Y1235645D02*
X555955D01*
X485955D02*
Y1275645D01*
X555955Y1235645D02*
Y1275645D01*
X485955D02*
X555955D01*
X141270Y926487D02*
Y1056487D01*
X81270Y926487D02*
X141270D01*
X81270D02*
Y1056487D01*
X141270D01*
X564239Y1046345D02*
X694239D01*
Y986345D02*
Y1046345D01*
X564239Y986345D02*
X694239D01*
X564239D02*
Y1046345D01*
X290585Y678405D02*
Y808405D01*
X350585D01*
Y678405D02*
Y808405D01*
X290585Y678405D02*
X350585D01*
X361585D02*
Y808405D01*
X421585D01*
Y678405D02*
Y808405D01*
X361585Y678405D02*
X421585D01*
X431955D02*
Y808405D01*
X491955D01*
Y678405D02*
Y808405D01*
X431955Y678405D02*
X491955D01*
X312845Y1095085D02*
X509695D01*
Y898235D02*
Y1095085D01*
X312845Y898235D02*
X509695D01*
X312845D02*
Y1095085D01*
X1616481Y926487D02*
Y1056487D01*
X1676481D01*
Y926487D02*
Y1056487D01*
X1616481Y926487D02*
X1676481D01*
X1540142Y918487D02*
X1670142D01*
Y858487D02*
Y918487D01*
X1540142Y858487D02*
X1670142D01*
X1540142D02*
Y918487D01*
X1687851Y678405D02*
Y808405D01*
X1747851D01*
Y678405D02*
Y808405D01*
X1687851Y678405D02*
X1747851D01*
X2084481Y1105999D02*
Y1235999D01*
X2024481Y1105999D02*
X2084481D01*
X2024481D02*
Y1235999D01*
X2084481D01*
X1539000Y1105999D02*
Y1235999D01*
X1479000Y1105999D02*
X1539000D01*
X1479000D02*
Y1235999D01*
X1539000D01*
X1554000Y1105999D02*
Y1235999D01*
X1614000D01*
Y1105999D02*
Y1235999D01*
X1554000Y1105999D02*
X1614000D01*
X1952851D02*
Y1235999D01*
X2012851D01*
Y1105999D02*
Y1235999D01*
X1952851Y1105999D02*
X2012851D01*
X1731851Y1103826D02*
Y1233826D01*
X1791851D01*
Y1103826D02*
Y1233826D01*
X1731851Y1103826D02*
X1791851D01*
X1629457Y1100621D02*
Y1280621D01*
X1709457D01*
Y1100621D02*
Y1280621D01*
X1629457Y1100621D02*
X1709457D01*
X2096481Y1102652D02*
Y1282652D01*
X2176481D01*
Y1102652D02*
Y1282652D01*
X2096481Y1102652D02*
X2176481D01*
X1967906Y678405D02*
Y808405D01*
X2027906D01*
Y678405D02*
Y808405D01*
X1967906Y678405D02*
X2027906D01*
X2030819Y907487D02*
X2160819D01*
X2030819D02*
Y967487D01*
X2160819D01*
Y907487D02*
Y967487D01*
X1756166Y1279660D02*
X1826166D01*
Y1239660D02*
Y1279660D01*
X1756166Y1239660D02*
Y1279660D01*
Y1239660D02*
X1826166D01*
X2036906Y678405D02*
Y808405D01*
X2096906D01*
Y678405D02*
Y808405D01*
X2036906Y678405D02*
X2096906D01*
X1952536Y1235645D02*
X2022536D01*
X1952536D02*
Y1275645D01*
X2022536Y1235645D02*
Y1275645D01*
X1952536D02*
X2022536D01*
X1607851Y926487D02*
Y1056487D01*
X1547851Y926487D02*
X1607851D01*
X1547851D02*
Y1056487D01*
X1607851D01*
X2030819Y1046345D02*
X2160819D01*
Y986345D02*
Y1046345D01*
X2030819Y986345D02*
X2160819D01*
X2030819D02*
Y1046345D01*
X1757166Y678405D02*
Y808405D01*
X1817166D01*
Y678405D02*
Y808405D01*
X1757166Y678405D02*
X1817166D01*
X1828166D02*
Y808405D01*
X1888166D01*
Y678405D02*
Y808405D01*
X1828166Y678405D02*
X1888166D01*
X1898536D02*
Y808405D01*
X1958536D01*
Y678405D02*
Y808405D01*
X1898536Y678405D02*
X1958536D01*
X1779426Y1095085D02*
X1976276D01*
Y898235D02*
Y1095085D01*
X1779426Y898235D02*
X1976276D01*
X1779426D02*
Y1095085D01*
X888625Y926487D02*
Y1056487D01*
X948625D01*
Y926487D02*
Y1056487D01*
X888625Y926487D02*
X948625D01*
X812286Y918487D02*
X942286D01*
Y858487D02*
Y918487D01*
X812286Y858487D02*
X942286D01*
X812286D02*
Y918487D01*
X959995Y678405D02*
Y808405D01*
X1019995D01*
Y678405D02*
Y808405D01*
X959995Y678405D02*
X1019995D01*
X1356625Y1105999D02*
Y1235999D01*
X1296625Y1105999D02*
X1356625D01*
X1296625D02*
Y1235999D01*
X1356625D01*
X813969Y1105857D02*
Y1235857D01*
X753969Y1105857D02*
X813969D01*
X753969D02*
Y1235857D01*
X813969D01*
X828969Y1105857D02*
Y1235857D01*
X888969D01*
Y1105857D02*
Y1235857D01*
X828969Y1105857D02*
X888969D01*
X1224995Y1105999D02*
Y1235999D01*
X1284995D01*
Y1105999D02*
Y1235999D01*
X1224995Y1105999D02*
X1284995D01*
X1003995Y1103826D02*
Y1233826D01*
X1063995D01*
Y1103826D02*
Y1233826D01*
X1003995Y1103826D02*
X1063995D01*
X904426Y1100479D02*
Y1280479D01*
X984426D01*
Y1100479D02*
Y1280479D01*
X904426Y1100479D02*
X984426D01*
X1368625Y1102652D02*
Y1282652D01*
X1448625D01*
Y1102652D02*
Y1282652D01*
X1368625Y1102652D02*
X1448625D01*
X1240050Y678405D02*
Y808405D01*
X1300050D01*
Y678405D02*
Y808405D01*
X1240050Y678405D02*
X1300050D01*
X1302963Y907487D02*
X1432963D01*
X1302963D02*
Y967487D01*
X1432963D01*
Y907487D02*
Y967487D01*
X1028310Y1279660D02*
X1098310D01*
Y1239660D02*
Y1279660D01*
X1028310Y1239660D02*
Y1279660D01*
Y1239660D02*
X1098310D01*
X1309050Y678405D02*
Y808405D01*
X1369050D01*
Y678405D02*
Y808405D01*
X1309050Y678405D02*
X1369050D01*
X879995Y926487D02*
Y1056487D01*
X819995Y926487D02*
X879995D01*
X819995D02*
Y1056487D01*
X879995D01*
X1302963Y1046345D02*
X1432963D01*
Y986345D02*
Y1046345D01*
X1302963Y986345D02*
X1432963D01*
X1302963D02*
Y1046345D01*
X1029310Y678405D02*
Y808405D01*
X1089310D01*
Y678405D02*
Y808405D01*
X1029310Y678405D02*
X1089310D01*
X1100310D02*
Y808405D01*
X1160310D01*
Y678405D02*
Y808405D01*
X1100310Y678405D02*
X1160310D01*
X1170680D02*
Y808405D01*
X1230680D01*
Y678405D02*
Y808405D01*
X1170680Y678405D02*
X1230680D01*
X1499000Y593339D02*
Y723339D01*
X1559000D01*
Y593339D02*
Y723339D01*
X1499000Y593339D02*
X1559000D01*
X1600984Y1551181D02*
X2200984D01*
Y1838583D01*
X1600984Y1551181D02*
Y1838583D01*
X2200984D01*
X951378Y1551181D02*
X1551378D01*
Y1838583D01*
X951378Y1551181D02*
Y1838583D01*
X1551378D01*
X1570186Y593339D02*
Y723339D01*
X1630186D01*
Y593339D02*
Y723339D01*
X1570186Y593339D02*
X1630186D01*
X3736999Y892992D02*
Y1072992D01*
X3816999D01*
Y892992D02*
Y1072992D01*
X3736999Y892992D02*
X3816999D01*
X3645000D02*
Y1072992D01*
X3725000D01*
Y892992D02*
Y1072992D01*
X3645000Y892992D02*
X3725000D01*
X3459819Y857992D02*
Y1037992D01*
X3539819D01*
Y857992D02*
Y1037992D01*
X3459819Y857992D02*
X3539819D01*
X2678265Y754744D02*
X2808265D01*
X2678265D02*
Y814744D01*
X2808265D01*
Y754744D02*
Y814744D01*
X2750792Y958701D02*
X2880792D01*
X2750792D02*
Y1018701D01*
X2880792D01*
Y958701D02*
Y1018701D01*
X2750792Y942717D02*
X2880792D01*
Y882717D02*
Y942717D01*
X2750792Y882717D02*
X2880792D01*
X2750792D02*
Y942717D01*
Y1092323D02*
X2880792D01*
Y1032323D02*
Y1092323D01*
X2750792Y1032323D02*
X2880792D01*
X2750792D02*
Y1092323D01*
X3450000Y861339D02*
Y991339D01*
X3390000Y861339D02*
X3450000D01*
X3390000D02*
Y991339D01*
X3450000D01*
X2737312Y1138579D02*
X2796367D01*
X2737312D02*
Y1261413D01*
X2796367D01*
Y1138579D02*
Y1261413D01*
X3331339Y1170000D02*
X3461339D01*
X3331339D02*
Y1230000D01*
X3461339D01*
Y1170000D02*
Y1230000D01*
X3331339Y1383543D02*
X3461339D01*
Y1323543D02*
Y1383543D01*
X3331339Y1323543D02*
X3461339D01*
X3331339D02*
Y1383543D01*
X2539414Y1267398D02*
X2669414D01*
Y1207398D02*
Y1267398D01*
X2539414Y1207398D02*
X2669414D01*
X2539414D02*
Y1267398D01*
Y1132594D02*
X2669414D01*
X2539414D02*
Y1192594D01*
X2669414D01*
Y1132594D02*
Y1192594D01*
X2389102Y845749D02*
Y975749D01*
X2449102D01*
Y845749D02*
Y975749D01*
X2389102Y845749D02*
X2449102D01*
X2319843Y405000D02*
X2449843D01*
Y345000D02*
Y405000D01*
X2319843Y345000D02*
X2449843D01*
X2319843D02*
Y405000D01*
X2419102Y440182D02*
Y570182D01*
X2479102D01*
Y440182D02*
Y570182D01*
X2419102Y440182D02*
X2479102D01*
X2285764Y345000D02*
Y405000D01*
X2155764D02*
X2285764D01*
X2155764Y345000D02*
Y405000D01*
Y345000D02*
X2285764D01*
Y754744D02*
Y814744D01*
X2155764D02*
X2285764D01*
X2155764Y754744D02*
Y814744D01*
Y754744D02*
X2285764D01*
X2575000Y299339D02*
X2635000D01*
Y429339D01*
X2575000D02*
X2635000D01*
X2575000Y299339D02*
Y429339D01*
X2656999Y299339D02*
X2716999D01*
Y429339D01*
X2656999D02*
X2716999D01*
X2656999Y299339D02*
Y429339D01*
X1302963Y896321D02*
X1432963D01*
Y836321D02*
Y896321D01*
X1302963Y836321D02*
X1432963D01*
X1302963D02*
Y896321D01*
X564239Y896984D02*
X694239D01*
Y836984D02*
Y896984D01*
X564239Y836984D02*
X694239D01*
X564239D02*
Y896984D01*
X2030760Y898712D02*
X2160760D01*
Y838712D02*
Y898712D01*
X2030760Y838712D02*
X2160760D01*
X2030760D02*
Y898712D01*
X2705000Y1710000D02*
Y1910000D01*
Y1710000D02*
X3005000D01*
Y1910000D01*
X2705000D02*
X3005000D01*
X3140000Y1710000D02*
Y1910000D01*
Y1710000D02*
X3440000D01*
Y1910000D01*
X3140000D02*
X3440000D01*
X2454414Y1620000D02*
X2654414D01*
X2454414Y1320000D02*
Y1620000D01*
Y1320000D02*
X2654414D01*
Y1620000D01*
X3453543Y1800000D02*
Y1850000D01*
X3553543D01*
X3453543Y1800000D02*
X3553543D01*
Y1850000D01*
X2602500Y710000D02*
X2737500D01*
Y640000D02*
Y710000D01*
X2602500Y640000D02*
X2737500D01*
X2602500D02*
Y710000D01*
Y541063D02*
X2737500D01*
Y471063D02*
Y541063D01*
X2602500Y471063D02*
X2737500D01*
X2602500D02*
Y541063D01*
X122481Y1427500D02*
Y1562500D01*
X192481D01*
Y1427500D02*
Y1562500D01*
X122481Y1427500D02*
X192481D01*
X2742500Y330030D02*
X2877500D01*
X2742500D02*
Y400030D01*
X2877500D01*
Y330030D02*
Y400030D01*
X622598Y1705409D02*
Y1680417D01*
X610102D01*
X605937Y1684583D01*
Y1692913D01*
X610102Y1697079D01*
X622598D01*
X597606Y1684583D02*
X593441Y1680417D01*
X585110D01*
X580945Y1684583D01*
Y1688748D01*
X585110Y1692913D01*
X589276D01*
X585110D01*
X580945Y1697079D01*
Y1701244D01*
X585110Y1705409D01*
X593441D01*
X597606Y1701244D01*
X144985Y497197D02*
X169977D01*
Y484701D01*
X165811Y480536D01*
X157481D01*
X153315Y484701D01*
Y497197D01*
X169977Y455544D02*
Y472205D01*
X157481D01*
X161646Y463875D01*
Y459709D01*
X157481Y455544D01*
X149150D01*
X144985Y459709D01*
Y468040D01*
X149150Y472205D01*
X2426477Y1208098D02*
X2443139D01*
X2447304Y1212264D01*
Y1220594D01*
X2443139Y1224760D01*
X2426477D01*
X2422312Y1220594D01*
Y1212264D01*
X2430643Y1216429D02*
X2422312Y1208098D01*
Y1212264D02*
X2426477Y1208098D01*
X2422312Y1183106D02*
Y1199768D01*
X2438973Y1183106D01*
X2443139D01*
X2447304Y1187272D01*
Y1195602D01*
X2443139Y1199768D01*
X3084134Y1285102D02*
X3079969Y1289268D01*
X3071638D01*
X3067473Y1285102D01*
Y1280937D01*
X3071638Y1276772D01*
X3079969D01*
X3084134Y1272606D01*
Y1268441D01*
X3079969Y1264276D01*
X3071638D01*
X3067473Y1268441D01*
X3092465Y1264276D02*
X3100795D01*
X3096630D01*
Y1289268D01*
X3092465Y1285102D01*
X2314587Y1511653D02*
X2339579D01*
Y1499157D01*
X2335413Y1494992D01*
X2327083D01*
X2322917Y1499157D01*
Y1511653D01*
X2318752Y1486661D02*
X2314587Y1482496D01*
Y1474165D01*
X2318752Y1470000D01*
X2335413D01*
X2339579Y1474165D01*
Y1482496D01*
X2335413Y1486661D01*
X2331248D01*
X2327083Y1482496D01*
Y1470000D01*
X2310421Y1461669D02*
Y1445008D01*
X2314587Y1436677D02*
Y1428347D01*
Y1432512D01*
X2339579D01*
X2335413Y1436677D01*
X3304709Y451890D02*
X3283882D01*
X3279717Y447725D01*
Y439394D01*
X3283882Y435229D01*
X3304709D01*
X3279717Y410237D02*
Y426898D01*
X3296378Y410237D01*
X3300544D01*
X3304709Y414402D01*
Y422733D01*
X3300544Y426898D01*
X1419000Y187221D02*
X1394008D01*
Y199717D01*
X1398174Y203882D01*
X1406504D01*
X1410670Y199717D01*
Y187221D01*
X1419000Y212213D02*
Y220543D01*
Y216378D01*
X1394008D01*
X1398174Y212213D01*
X2610871Y950946D02*
X2631697D01*
X2635863Y955111D01*
Y963442D01*
X2631697Y967607D01*
X2610871D01*
X2615036Y975938D02*
X2610871Y980103D01*
Y988433D01*
X2615036Y992599D01*
X2619201D01*
X2623367Y988433D01*
Y984268D01*
Y988433D01*
X2627532Y992599D01*
X2631697D01*
X2635863Y988433D01*
Y980103D01*
X2631697Y975938D01*
X967294Y297414D02*
X963129Y301579D01*
X954798D01*
X950633Y297414D01*
Y293248D01*
X954798Y289083D01*
X963129D01*
X967294Y284918D01*
Y280752D01*
X963129Y276587D01*
X954798D01*
X950633Y280752D01*
X992286Y276587D02*
X975625D01*
X992286Y293248D01*
Y297414D01*
X988121Y301579D01*
X979790D01*
X975625Y297414D01*
X1000617Y272422D02*
X1017278D01*
X1025609Y276587D02*
X1033939D01*
X1029774D01*
Y301579D01*
X1025609Y297414D01*
X790646Y1402496D02*
X807308D01*
X798977D01*
Y1377504D01*
X815638D02*
Y1402496D01*
X828134D01*
X832300Y1398331D01*
Y1390000D01*
X828134Y1385835D01*
X815638D01*
X857292Y1402496D02*
X840630D01*
Y1390000D01*
X848961Y1394165D01*
X853126D01*
X857292Y1390000D01*
Y1381669D01*
X853126Y1377504D01*
X844796D01*
X840630Y1381669D01*
X1110424Y1011239D02*
Y990412D01*
X1114590Y986247D01*
X1122920D01*
X1127085Y990412D01*
Y1011239D01*
X1135416Y986247D02*
X1143747D01*
X1139581D01*
Y1011239D01*
X1135416Y1007074D01*
X1156243Y982082D02*
X1172904D01*
X1181235Y986247D02*
X1189565D01*
X1185400D01*
Y1011239D01*
X1181235Y1007074D01*
X3583488Y933413D02*
X3579323Y929248D01*
Y920918D01*
X3583488Y916752D01*
X3600150D01*
X3604315Y920918D01*
Y929248D01*
X3600150Y933413D01*
X3604315Y941744D02*
Y950075D01*
Y945909D01*
X3579323D01*
X3583488Y941744D01*
X3604315Y975067D02*
X3579323D01*
X3591819Y962571D01*
Y979232D01*
X3612496Y1777099D02*
X3587504D01*
Y1789595D01*
X3591669Y1793761D01*
X3600000D01*
X3604165Y1789595D01*
Y1777099D01*
Y1785430D02*
X3612496Y1793761D01*
Y1802091D02*
Y1810422D01*
Y1806256D01*
X3587504D01*
X3591669Y1802091D01*
Y1822918D02*
X3587504Y1827083D01*
Y1835414D01*
X3591669Y1839579D01*
X3595835D01*
X3600000Y1835414D01*
X3604165Y1839579D01*
X3608331D01*
X3612496Y1835414D01*
Y1827083D01*
X3608331Y1822918D01*
X3604165D01*
X3600000Y1827083D01*
X3595835Y1822918D01*
X3591669D01*
X3600000Y1827083D02*
Y1835414D01*
X3536866Y1772496D02*
Y1747504D01*
X3524370D01*
X3520204Y1751669D01*
Y1760000D01*
X3524370Y1764165D01*
X3536866D01*
X3528535D02*
X3520204Y1772496D01*
X3495213D02*
X3511874D01*
X3495213Y1755835D01*
Y1751669D01*
X3499378Y1747504D01*
X3507709D01*
X3511874Y1751669D01*
X3486882D02*
X3482717Y1747504D01*
X3474386D01*
X3470221Y1751669D01*
Y1768331D01*
X3474386Y1772496D01*
X3482717D01*
X3486882Y1768331D01*
Y1751669D01*
X1301333Y1266058D02*
Y1241066D01*
X1288837D01*
X1284672Y1245231D01*
Y1253562D01*
X1288837Y1257727D01*
X1301333D01*
X1293002D02*
X1284672Y1266058D01*
X1259680Y1241066D02*
X1276341D01*
Y1253562D01*
X1268010Y1249397D01*
X1263845D01*
X1259680Y1253562D01*
Y1261893D01*
X1263845Y1266058D01*
X1272176D01*
X1276341Y1261893D01*
X1251349Y1270223D02*
X1234688D01*
X1226357Y1266058D02*
X1218027D01*
X1222192D01*
Y1241066D01*
X1226357Y1245231D01*
X169486Y964412D02*
X165321Y960247D01*
Y951916D01*
X169486Y947751D01*
X186148D01*
X190313Y951916D01*
Y960247D01*
X186148Y964412D01*
X190313Y972743D02*
Y981074D01*
Y976908D01*
X165321D01*
X169486Y972743D01*
X194478Y993570D02*
Y1010231D01*
X190313Y1035223D02*
Y1018562D01*
X173652Y1035223D01*
X169486D01*
X165321Y1031057D01*
Y1022727D01*
X169486Y1018562D01*
X109404Y898900D02*
X105239Y903066D01*
X96908D01*
X92743Y898900D01*
Y882239D01*
X96908Y878074D01*
X105239D01*
X109404Y882239D01*
X134396Y878074D02*
X117735D01*
X134396Y894735D01*
Y898900D01*
X130231Y903066D01*
X121900D01*
X117735Y898900D01*
X142727Y873909D02*
X159388D01*
X184380Y878074D02*
X167719D01*
X184380Y894735D01*
Y898900D01*
X180214Y903066D01*
X171884D01*
X167719Y898900D01*
X240856Y714248D02*
X236691Y710083D01*
Y701752D01*
X240856Y697587D01*
X257518D01*
X261683Y701752D01*
Y710083D01*
X257518Y714248D01*
X240856Y722578D02*
X236691Y726744D01*
Y735074D01*
X240856Y739240D01*
X245022D01*
X249187Y735074D01*
Y730909D01*
Y735074D01*
X253352Y739240D01*
X257518D01*
X261683Y735074D01*
Y726744D01*
X257518Y722578D01*
X265848Y747570D02*
Y764232D01*
X261683Y789224D02*
Y772562D01*
X245022Y789224D01*
X240856D01*
X236691Y785058D01*
Y776728D01*
X240856Y772562D01*
X598313Y1200156D02*
X602479Y1204321D01*
Y1212652D01*
X598313Y1216817D01*
X581652D01*
X577487Y1212652D01*
Y1204321D01*
X581652Y1200156D01*
X577487Y1179329D02*
X602479D01*
X589983Y1191825D01*
Y1175164D01*
X573321Y1166833D02*
Y1150172D01*
X577487Y1125180D02*
Y1141841D01*
X594148Y1125180D01*
X598313D01*
X602479Y1129345D01*
Y1137676D01*
X598313Y1141841D01*
X53414Y1193503D02*
X57579Y1197668D01*
Y1205999D01*
X53414Y1210164D01*
X36753D01*
X32587Y1205999D01*
Y1197668D01*
X36753Y1193503D01*
X57579Y1168511D02*
Y1185172D01*
X45083D01*
X49249Y1176842D01*
Y1172676D01*
X45083Y1168511D01*
X36753D01*
X32587Y1172676D01*
Y1181007D01*
X36753Y1185172D01*
X28422Y1160180D02*
Y1143519D01*
X32587Y1118527D02*
Y1135188D01*
X49249Y1118527D01*
X53414D01*
X57579Y1122693D01*
Y1131023D01*
X53414Y1135188D01*
X115856Y1136007D02*
X111691Y1131842D01*
Y1123511D01*
X115856Y1119346D01*
X132518D01*
X136683Y1123511D01*
Y1131842D01*
X132518Y1136007D01*
X111691Y1160999D02*
X115856Y1152668D01*
X124187Y1144338D01*
X132518D01*
X136683Y1148503D01*
Y1156833D01*
X132518Y1160999D01*
X128352D01*
X124187Y1156833D01*
Y1144338D01*
X140848Y1169329D02*
Y1185991D01*
X136683Y1210983D02*
Y1194321D01*
X120022Y1210983D01*
X115856D01*
X111691Y1206817D01*
Y1198487D01*
X115856Y1194321D01*
X505856Y1141841D02*
X501691Y1137676D01*
Y1129345D01*
X505856Y1125180D01*
X522518D01*
X526683Y1129345D01*
Y1137676D01*
X522518Y1141841D01*
X501691Y1150172D02*
Y1166833D01*
X505856D01*
X522518Y1150172D01*
X526683D01*
X530848Y1175164D02*
Y1191825D01*
X526683Y1216817D02*
Y1200156D01*
X510022Y1216817D01*
X505856D01*
X501691Y1212652D01*
Y1204321D01*
X505856Y1200156D01*
X284856Y1139668D02*
X280691Y1135503D01*
Y1127172D01*
X284856Y1123007D01*
X301518D01*
X305683Y1127172D01*
Y1135503D01*
X301518Y1139668D01*
X284856Y1147999D02*
X280691Y1152164D01*
Y1160495D01*
X284856Y1164660D01*
X289022D01*
X293187Y1160495D01*
X297353Y1164660D01*
X301518D01*
X305683Y1160495D01*
Y1152164D01*
X301518Y1147999D01*
X297353D01*
X293187Y1152164D01*
X289022Y1147999D01*
X284856D01*
X293187Y1152164D02*
Y1160495D01*
X309848Y1172991D02*
Y1189652D01*
X305683Y1214644D02*
Y1197983D01*
X289022Y1214644D01*
X284856D01*
X280691Y1210479D01*
Y1202148D01*
X284856Y1197983D01*
X199487Y1161007D02*
X195321Y1156842D01*
Y1148511D01*
X199487Y1144346D01*
X216148D01*
X220313Y1148511D01*
Y1156842D01*
X216148Y1161007D01*
Y1169338D02*
X220313Y1173503D01*
Y1181834D01*
X216148Y1185999D01*
X199487D01*
X195321Y1181834D01*
Y1173503D01*
X199487Y1169338D01*
X203652D01*
X207817Y1173503D01*
Y1185999D01*
X224478Y1194330D02*
Y1210991D01*
X220313Y1235983D02*
Y1219322D01*
X203652Y1235983D01*
X199487D01*
X195321Y1231818D01*
Y1223487D01*
X199487Y1219322D01*
X659486Y1153082D02*
X655321Y1148917D01*
Y1140586D01*
X659486Y1136420D01*
X676148D01*
X680313Y1140586D01*
Y1148917D01*
X676148Y1153082D01*
X680313Y1161412D02*
Y1169743D01*
Y1165578D01*
X655321D01*
X659486Y1161412D01*
Y1182239D02*
X655321Y1186404D01*
Y1194735D01*
X659486Y1198900D01*
X676148D01*
X680313Y1194735D01*
Y1186404D01*
X676148Y1182239D01*
X659486D01*
X684478Y1207231D02*
Y1223892D01*
X680313Y1248884D02*
Y1232223D01*
X663652Y1248884D01*
X659486D01*
X655321Y1244719D01*
Y1236388D01*
X659486Y1232223D01*
X541738Y699669D02*
X516746D01*
Y712165D01*
X520912Y716331D01*
X529242D01*
X533408Y712165D01*
Y699669D01*
Y708000D02*
X541738Y716331D01*
Y724661D02*
Y732992D01*
Y728827D01*
X516746D01*
X520912Y724661D01*
X545904Y745488D02*
Y762149D01*
X541738Y787141D02*
Y770480D01*
X525077Y787141D01*
X520912D01*
X516746Y782976D01*
Y774645D01*
X520912Y770480D01*
X675057Y947900D02*
Y922908D01*
X662561D01*
X658395Y927074D01*
Y935404D01*
X662561Y939570D01*
X675057D01*
X666726D02*
X658395Y947900D01*
X633404D02*
X650065D01*
X633404Y931239D01*
Y927074D01*
X637569Y922908D01*
X645900D01*
X650065Y927074D01*
X625073Y952066D02*
X608412D01*
X583420Y947900D02*
X600081D01*
X583420Y931239D01*
Y927074D01*
X587585Y922908D01*
X595916D01*
X600081Y927074D01*
X278766Y1249247D02*
Y1274239D01*
X291262D01*
X295428Y1270074D01*
Y1261743D01*
X291262Y1257578D01*
X278766D01*
X287097D02*
X295428Y1249247D01*
X303758Y1270074D02*
X307924Y1274239D01*
X316254D01*
X320420Y1270074D01*
Y1265908D01*
X316254Y1261743D01*
X312089D01*
X316254D01*
X320420Y1257578D01*
Y1253412D01*
X316254Y1249247D01*
X307924D01*
X303758Y1253412D01*
X328750Y1245082D02*
X345411D01*
X370403Y1249247D02*
X353742D01*
X370403Y1265908D01*
Y1270074D01*
X366238Y1274239D01*
X357907D01*
X353742Y1270074D01*
X610738Y697587D02*
X585746D01*
Y710083D01*
X589912Y714248D01*
X598242D01*
X602408Y710083D01*
Y697587D01*
Y705917D02*
X610738Y714248D01*
Y735074D02*
X585746D01*
X598242Y722578D01*
Y739240D01*
X614904Y747570D02*
Y764232D01*
X610738Y789224D02*
Y772562D01*
X594077Y789224D01*
X589912D01*
X585746Y785058D01*
Y776728D01*
X589912Y772562D01*
X566773Y1266058D02*
Y1241066D01*
X554277D01*
X550112Y1245231D01*
Y1253562D01*
X554277Y1257727D01*
X566773D01*
X558443D02*
X550112Y1266058D01*
X525120Y1241066D02*
X541782D01*
Y1253562D01*
X533451Y1249397D01*
X529285D01*
X525120Y1253562D01*
Y1261893D01*
X529285Y1266058D01*
X537616D01*
X541782Y1261893D01*
X516790Y1270223D02*
X500128D01*
X475136Y1266058D02*
X491798D01*
X475136Y1249397D01*
Y1245231D01*
X479302Y1241066D01*
X487632D01*
X491798Y1245231D01*
X100857Y1037305D02*
X125849D01*
Y1024810D01*
X121683Y1020644D01*
X113353D01*
X109187Y1024810D01*
Y1037305D01*
Y1028975D02*
X100857Y1020644D01*
X125849Y995652D02*
X121683Y1003983D01*
X113353Y1012314D01*
X105022D01*
X100857Y1008148D01*
Y999818D01*
X105022Y995652D01*
X109187D01*
X113353Y999818D01*
Y1012314D01*
X96691Y987322D02*
Y970660D01*
X100857Y945668D02*
Y962330D01*
X117518Y945668D01*
X121683D01*
X125849Y949834D01*
Y958164D01*
X121683Y962330D01*
X583420Y1005932D02*
Y1030924D01*
X595916D01*
X600081Y1026759D01*
Y1018428D01*
X595916Y1014263D01*
X583420D01*
X591751D02*
X600081Y1005932D01*
X608412Y1030924D02*
X625073D01*
Y1026759D01*
X608412Y1010097D01*
Y1005932D01*
X633404Y1001767D02*
X650065D01*
X675057Y1005932D02*
X658396D01*
X675057Y1022593D01*
Y1026759D01*
X670892Y1030924D01*
X662561D01*
X658396Y1026759D01*
X330998Y687173D02*
X306006D01*
Y699669D01*
X310171Y703835D01*
X318502D01*
X322668Y699669D01*
Y687173D01*
Y695504D02*
X330998Y703835D01*
Y712165D02*
Y720496D01*
Y716330D01*
X306006D01*
X310171Y712165D01*
X330998Y745488D02*
X306006D01*
X318502Y732992D01*
Y749653D01*
X335163Y757984D02*
Y774645D01*
X330998Y799637D02*
Y782976D01*
X314337Y799637D01*
X310171D01*
X306006Y795471D01*
Y787141D01*
X310171Y782976D01*
X401998Y687173D02*
X377006D01*
Y699669D01*
X381171Y703835D01*
X389502D01*
X393668Y699669D01*
Y687173D01*
Y695504D02*
X401998Y703835D01*
Y712165D02*
Y720496D01*
Y716330D01*
X377006D01*
X381171Y712165D01*
X377006Y749653D02*
Y732992D01*
X389502D01*
X385337Y741322D01*
Y745488D01*
X389502Y749653D01*
X397833D01*
X401998Y745488D01*
Y737157D01*
X397833Y732992D01*
X406163Y757984D02*
Y774645D01*
X401998Y799637D02*
Y782976D01*
X385337Y799637D01*
X381171D01*
X377006Y795471D01*
Y787141D01*
X381171Y782976D01*
X472368Y687173D02*
X447376D01*
Y699669D01*
X451542Y703835D01*
X459872D01*
X464038Y699669D01*
Y687173D01*
Y695504D02*
X472368Y703835D01*
Y712165D02*
Y720496D01*
Y716331D01*
X447376D01*
X451542Y712165D01*
X447376Y749653D02*
X451542Y741322D01*
X459872Y732992D01*
X468203D01*
X472368Y737157D01*
Y745488D01*
X468203Y749653D01*
X464038D01*
X459872Y745488D01*
Y732992D01*
X476534Y757984D02*
Y774645D01*
X472368Y799637D02*
Y782976D01*
X455707Y799637D01*
X451542D01*
X447376Y795472D01*
Y787141D01*
X451542Y782976D01*
X484843Y297414D02*
X480678Y301579D01*
X472347D01*
X468182Y297414D01*
Y293248D01*
X472347Y289083D01*
X480678D01*
X484843Y284918D01*
Y280752D01*
X480678Y276587D01*
X472347D01*
X468182Y280752D01*
X509835Y276587D02*
X493174D01*
X509835Y293248D01*
Y297414D01*
X505670Y301579D01*
X497339D01*
X493174Y297414D01*
X518166Y272422D02*
X534827D01*
X559819Y276587D02*
X543158D01*
X559819Y293248D01*
Y297414D01*
X555654Y301579D01*
X547323D01*
X543158Y297414D01*
X367534Y1011239D02*
Y990412D01*
X371700Y986247D01*
X380030D01*
X384195Y990412D01*
Y1011239D01*
X392526Y986247D02*
X400857D01*
X396691D01*
Y1011239D01*
X392526Y1007074D01*
X413353Y982082D02*
X430014D01*
X455006Y986247D02*
X438345D01*
X455006Y1002908D01*
Y1007074D01*
X450841Y1011239D01*
X442510D01*
X438345Y1007074D01*
X1636067Y964412D02*
X1631902Y960247D01*
Y951916D01*
X1636067Y947751D01*
X1652729D01*
X1656894Y951916D01*
Y960247D01*
X1652729Y964412D01*
X1656894Y972743D02*
Y981074D01*
Y976908D01*
X1631902D01*
X1636067Y972743D01*
X1661059Y993570D02*
Y1010231D01*
X1636067Y1018562D02*
X1631902Y1022727D01*
Y1031057D01*
X1636067Y1035223D01*
X1640233D01*
X1644398Y1031057D01*
Y1026892D01*
Y1031057D01*
X1648563Y1035223D01*
X1652729D01*
X1656894Y1031057D01*
Y1022727D01*
X1652729Y1018562D01*
X1575985Y898900D02*
X1571820Y903066D01*
X1563489D01*
X1559324Y898900D01*
Y882239D01*
X1563489Y878074D01*
X1571820D01*
X1575985Y882239D01*
X1600977Y878074D02*
X1584316D01*
X1600977Y894735D01*
Y898900D01*
X1596812Y903066D01*
X1588481D01*
X1584316Y898900D01*
X1609307Y873909D02*
X1625969D01*
X1634299Y898900D02*
X1638465Y903066D01*
X1646795D01*
X1650961Y898900D01*
Y894735D01*
X1646795Y890570D01*
X1642630D01*
X1646795D01*
X1650961Y886404D01*
Y882239D01*
X1646795Y878074D01*
X1638465D01*
X1634299Y882239D01*
X1707437Y714248D02*
X1703272Y710083D01*
Y701752D01*
X1707437Y697587D01*
X1724099D01*
X1728264Y701752D01*
Y710083D01*
X1724099Y714248D01*
X1707437Y722579D02*
X1703272Y726744D01*
Y735075D01*
X1707437Y739240D01*
X1711603D01*
X1715768Y735075D01*
Y730909D01*
Y735075D01*
X1719933Y739240D01*
X1724099D01*
X1728264Y735075D01*
Y726744D01*
X1724099Y722579D01*
X1732429Y747571D02*
Y764232D01*
X1707437Y772562D02*
X1703272Y776728D01*
Y785058D01*
X1707437Y789224D01*
X1711603D01*
X1715768Y785058D01*
Y780893D01*
Y785058D01*
X1719933Y789224D01*
X1724099D01*
X1728264Y785058D01*
Y776728D01*
X1724099Y772562D01*
X2064894Y1200156D02*
X2069059Y1204321D01*
Y1212652D01*
X2064894Y1216817D01*
X2048233D01*
X2044067Y1212652D01*
Y1204321D01*
X2048233Y1200156D01*
X2044067Y1179329D02*
X2069059D01*
X2056563Y1191825D01*
Y1175164D01*
X2039902Y1166833D02*
Y1150172D01*
X2064894Y1141842D02*
X2069059Y1137676D01*
Y1129346D01*
X2064894Y1125180D01*
X2060729D01*
X2056563Y1129346D01*
Y1133511D01*
Y1129346D01*
X2052398Y1125180D01*
X2048233D01*
X2044067Y1129346D01*
Y1137676D01*
X2048233Y1141842D01*
X1519413Y1200156D02*
X1523579Y1204321D01*
Y1212652D01*
X1519413Y1216817D01*
X1502752D01*
X1498587Y1212652D01*
Y1204321D01*
X1502752Y1200156D01*
X1523579Y1175164D02*
Y1191825D01*
X1511083D01*
X1515248Y1183495D01*
Y1179329D01*
X1511083Y1175164D01*
X1502752D01*
X1498587Y1179329D01*
Y1187660D01*
X1502752Y1191825D01*
X1494421Y1166833D02*
Y1150172D01*
X1519413Y1141842D02*
X1523579Y1137676D01*
Y1129346D01*
X1519413Y1125180D01*
X1515248D01*
X1511083Y1129346D01*
Y1133511D01*
Y1129346D01*
X1506917Y1125180D01*
X1502752D01*
X1498587Y1129346D01*
Y1137676D01*
X1502752Y1141842D01*
X1573586Y1141841D02*
X1569421Y1137676D01*
Y1129345D01*
X1573586Y1125180D01*
X1590248D01*
X1594413Y1129345D01*
Y1137676D01*
X1590248Y1141841D01*
X1569421Y1166833D02*
X1573586Y1158503D01*
X1581917Y1150172D01*
X1590248D01*
X1594413Y1154337D01*
Y1162668D01*
X1590248Y1166833D01*
X1586082D01*
X1581917Y1162668D01*
Y1150172D01*
X1598578Y1175164D02*
Y1191825D01*
X1573586Y1200156D02*
X1569421Y1204321D01*
Y1212652D01*
X1573586Y1216817D01*
X1577752D01*
X1581917Y1212652D01*
Y1208486D01*
Y1212652D01*
X1586082Y1216817D01*
X1590248D01*
X1594413Y1212652D01*
Y1204321D01*
X1590248Y1200156D01*
X1972438Y1141842D02*
X1968272Y1137676D01*
Y1129346D01*
X1972438Y1125180D01*
X1989099D01*
X1993264Y1129346D01*
Y1137676D01*
X1989099Y1141842D01*
X1968272Y1150172D02*
Y1166833D01*
X1972438D01*
X1989099Y1150172D01*
X1993264D01*
X1997429Y1175164D02*
Y1191825D01*
X1972438Y1200156D02*
X1968272Y1204321D01*
Y1212652D01*
X1972438Y1216817D01*
X1976603D01*
X1980768Y1212652D01*
Y1208487D01*
Y1212652D01*
X1984934Y1216817D01*
X1989099D01*
X1993264Y1212652D01*
Y1204321D01*
X1989099Y1200156D01*
X1751438Y1139668D02*
X1747272Y1135503D01*
Y1127172D01*
X1751438Y1123007D01*
X1768099D01*
X1772264Y1127172D01*
Y1135503D01*
X1768099Y1139668D01*
X1751438Y1147999D02*
X1747272Y1152164D01*
Y1160495D01*
X1751438Y1164660D01*
X1755603D01*
X1759768Y1160495D01*
X1763934Y1164660D01*
X1768099D01*
X1772264Y1160495D01*
Y1152164D01*
X1768099Y1147999D01*
X1763934D01*
X1759768Y1152164D01*
X1755603Y1147999D01*
X1751438D01*
X1759768Y1152164D02*
Y1160495D01*
X1776429Y1172991D02*
Y1189652D01*
X1751438Y1197983D02*
X1747272Y1202148D01*
Y1210479D01*
X1751438Y1214644D01*
X1755603D01*
X1759768Y1210479D01*
Y1206313D01*
Y1210479D01*
X1763934Y1214644D01*
X1768099D01*
X1772264Y1210479D01*
Y1202148D01*
X1768099Y1197983D01*
X1659043Y1161464D02*
X1654878Y1157299D01*
Y1148968D01*
X1659043Y1144803D01*
X1675705D01*
X1679870Y1148968D01*
Y1157299D01*
X1675705Y1161464D01*
Y1169795D02*
X1679870Y1173960D01*
Y1182291D01*
X1675705Y1186456D01*
X1659043D01*
X1654878Y1182291D01*
Y1173960D01*
X1659043Y1169795D01*
X1663209D01*
X1667374Y1173960D01*
Y1186456D01*
X1684035Y1194786D02*
Y1211448D01*
X1659043Y1219778D02*
X1654878Y1223944D01*
Y1232274D01*
X1659043Y1236440D01*
X1663209D01*
X1667374Y1232274D01*
Y1228109D01*
Y1232274D01*
X1671539Y1236440D01*
X1675705D01*
X1679870Y1232274D01*
Y1223944D01*
X1675705Y1219778D01*
X2126067Y1153082D02*
X2121902Y1148916D01*
Y1140586D01*
X2126067Y1136420D01*
X2142729D01*
X2146894Y1140586D01*
Y1148916D01*
X2142729Y1153082D01*
X2146894Y1161412D02*
Y1169743D01*
Y1165578D01*
X2121902D01*
X2126067Y1161412D01*
Y1182239D02*
X2121902Y1186404D01*
Y1194735D01*
X2126067Y1198900D01*
X2142729D01*
X2146894Y1194735D01*
Y1186404D01*
X2142729Y1182239D01*
X2126067D01*
X2151059Y1207231D02*
Y1223892D01*
X2126067Y1232223D02*
X2121902Y1236388D01*
Y1244719D01*
X2126067Y1248884D01*
X2130233D01*
X2134398Y1244719D01*
Y1240553D01*
Y1244719D01*
X2138563Y1248884D01*
X2142729D01*
X2146894Y1244719D01*
Y1236388D01*
X2142729Y1232223D01*
X2008319Y699669D02*
X1983327D01*
Y712165D01*
X1987493Y716331D01*
X1995823D01*
X1999989Y712165D01*
Y699669D01*
Y708000D02*
X2008319Y716331D01*
Y724661D02*
Y732992D01*
Y728827D01*
X1983327D01*
X1987493Y724661D01*
X2012485Y745488D02*
Y762149D01*
X1987493Y770480D02*
X1983327Y774645D01*
Y782976D01*
X1987493Y787141D01*
X1991658D01*
X1995823Y782976D01*
Y778810D01*
Y782976D01*
X1999989Y787141D01*
X2004154D01*
X2008319Y782976D01*
Y774645D01*
X2004154Y770480D01*
X2141638Y947900D02*
Y922908D01*
X2129142D01*
X2124977Y927074D01*
Y935404D01*
X2129142Y939570D01*
X2141638D01*
X2133307D02*
X2124977Y947900D01*
X2099985D02*
X2116646D01*
X2099985Y931239D01*
Y927074D01*
X2104150Y922908D01*
X2112481D01*
X2116646Y927074D01*
X2091654Y952066D02*
X2074993D01*
X2066662Y927074D02*
X2062497Y922908D01*
X2054166D01*
X2050001Y927074D01*
Y931239D01*
X2054166Y935404D01*
X2058332D01*
X2054166D01*
X2050001Y939570D01*
Y943735D01*
X2054166Y947900D01*
X2062497D01*
X2066662Y943735D01*
X1745347Y1249247D02*
Y1274239D01*
X1757843D01*
X1762009Y1270074D01*
Y1261743D01*
X1757843Y1257578D01*
X1745347D01*
X1753678D02*
X1762009Y1249247D01*
X1770339Y1270074D02*
X1774505Y1274239D01*
X1782835D01*
X1787001Y1270074D01*
Y1265908D01*
X1782835Y1261743D01*
X1778670D01*
X1782835D01*
X1787001Y1257578D01*
Y1253412D01*
X1782835Y1249247D01*
X1774505D01*
X1770339Y1253412D01*
X1795331Y1245082D02*
X1811992D01*
X1820323Y1270074D02*
X1824488Y1274239D01*
X1832819D01*
X1836984Y1270074D01*
Y1265908D01*
X1832819Y1261743D01*
X1828654D01*
X1832819D01*
X1836984Y1257578D01*
Y1253412D01*
X1832819Y1249247D01*
X1824488D01*
X1820323Y1253412D01*
X2077319Y697587D02*
X2052327D01*
Y710083D01*
X2056493Y714248D01*
X2064823D01*
X2068989Y710083D01*
Y697587D01*
Y705917D02*
X2077319Y714248D01*
Y735075D02*
X2052327D01*
X2064823Y722579D01*
Y739240D01*
X2081485Y747571D02*
Y764232D01*
X2056493Y772562D02*
X2052327Y776728D01*
Y785058D01*
X2056493Y789224D01*
X2060658D01*
X2064823Y785058D01*
Y780893D01*
Y785058D01*
X2068989Y789224D01*
X2073154D01*
X2077319Y785058D01*
Y776728D01*
X2073154Y772562D01*
X2033354Y1266058D02*
Y1241066D01*
X2020859D01*
X2016693Y1245231D01*
Y1253562D01*
X2020859Y1257727D01*
X2033354D01*
X2025024D02*
X2016693Y1266058D01*
X1991701Y1241066D02*
X2008363D01*
Y1253562D01*
X2000032Y1249397D01*
X1995867D01*
X1991701Y1253562D01*
Y1261893D01*
X1995867Y1266058D01*
X2004197D01*
X2008363Y1261893D01*
X1983371Y1270223D02*
X1966709D01*
X1958379Y1245231D02*
X1954214Y1241066D01*
X1945883D01*
X1941717Y1245231D01*
Y1249397D01*
X1945883Y1253562D01*
X1950048D01*
X1945883D01*
X1941717Y1257727D01*
Y1261893D01*
X1945883Y1266058D01*
X1954214D01*
X1958379Y1261893D01*
X1567438Y1037305D02*
X1592429D01*
Y1024809D01*
X1588264Y1020644D01*
X1579934D01*
X1575768Y1024809D01*
Y1037305D01*
Y1028975D02*
X1567438Y1020644D01*
X1592429Y995652D02*
X1588264Y1003983D01*
X1579934Y1012313D01*
X1571603D01*
X1567438Y1008148D01*
Y999817D01*
X1571603Y995652D01*
X1575768D01*
X1579934Y999817D01*
Y1012313D01*
X1563272Y987322D02*
Y970660D01*
X1588264Y962330D02*
X1592429Y958164D01*
Y949834D01*
X1588264Y945668D01*
X1584099D01*
X1579934Y949834D01*
Y953999D01*
Y949834D01*
X1575768Y945668D01*
X1571603D01*
X1567438Y949834D01*
Y958164D01*
X1571603Y962330D01*
X2050001Y1005932D02*
Y1030924D01*
X2062497D01*
X2066662Y1026759D01*
Y1018428D01*
X2062497Y1014263D01*
X2050001D01*
X2058331D02*
X2066662Y1005932D01*
X2074993Y1030924D02*
X2091654D01*
Y1026759D01*
X2074993Y1010097D01*
Y1005932D01*
X2099985Y1001767D02*
X2116646D01*
X2124977Y1026759D02*
X2129142Y1030924D01*
X2137473D01*
X2141638Y1026759D01*
Y1022593D01*
X2137473Y1018428D01*
X2133307D01*
X2137473D01*
X2141638Y1014263D01*
Y1010097D01*
X2137473Y1005932D01*
X2129142D01*
X2124977Y1010097D01*
X1797579Y687173D02*
X1772587D01*
Y699669D01*
X1776753Y703835D01*
X1785083D01*
X1789248Y699669D01*
Y687173D01*
Y695504D02*
X1797579Y703835D01*
Y712165D02*
Y720496D01*
Y716331D01*
X1772587D01*
X1776753Y712165D01*
X1797579Y745488D02*
X1772587D01*
X1785083Y732992D01*
Y749653D01*
X1801744Y757984D02*
Y774645D01*
X1776753Y782976D02*
X1772587Y787141D01*
Y795472D01*
X1776753Y799637D01*
X1780918D01*
X1785083Y795472D01*
Y791306D01*
Y795472D01*
X1789248Y799637D01*
X1793414D01*
X1797579Y795472D01*
Y787141D01*
X1793414Y782976D01*
X1868579Y687173D02*
X1843587D01*
Y699669D01*
X1847753Y703835D01*
X1856083D01*
X1860248Y699669D01*
Y687173D01*
Y695504D02*
X1868579Y703835D01*
Y712165D02*
Y720496D01*
Y716331D01*
X1843587D01*
X1847753Y712165D01*
X1843587Y749653D02*
Y732992D01*
X1856083D01*
X1851918Y741322D01*
Y745488D01*
X1856083Y749653D01*
X1864414D01*
X1868579Y745488D01*
Y737157D01*
X1864414Y732992D01*
X1872744Y757984D02*
Y774645D01*
X1847753Y782976D02*
X1843587Y787141D01*
Y795472D01*
X1847753Y799637D01*
X1851918D01*
X1856083Y795472D01*
Y791306D01*
Y795472D01*
X1860248Y799637D01*
X1864414D01*
X1868579Y795472D01*
Y787141D01*
X1864414Y782976D01*
X1938949Y687173D02*
X1913957D01*
Y699669D01*
X1918122Y703835D01*
X1926453D01*
X1930619Y699669D01*
Y687173D01*
Y695504D02*
X1938949Y703835D01*
Y712165D02*
Y720496D01*
Y716330D01*
X1913957D01*
X1918122Y712165D01*
X1913957Y749653D02*
X1918122Y741322D01*
X1926453Y732992D01*
X1934784D01*
X1938949Y737157D01*
Y745488D01*
X1934784Y749653D01*
X1930619D01*
X1926453Y745488D01*
Y732992D01*
X1943114Y757984D02*
Y774645D01*
X1918122Y782976D02*
X1913957Y787141D01*
Y795471D01*
X1918122Y799637D01*
X1922288D01*
X1926453Y795471D01*
Y791306D01*
Y795471D01*
X1930619Y799637D01*
X1934784D01*
X1938949Y795471D01*
Y787141D01*
X1934784Y782976D01*
X1829009Y297414D02*
X1824843Y301579D01*
X1816513D01*
X1812347Y297414D01*
Y293248D01*
X1816513Y289083D01*
X1824843D01*
X1829009Y284918D01*
Y280752D01*
X1824843Y276587D01*
X1816513D01*
X1812347Y280752D01*
X1854001Y276587D02*
X1837339D01*
X1854001Y293248D01*
Y297414D01*
X1849835Y301579D01*
X1841505D01*
X1837339Y297414D01*
X1862331Y272422D02*
X1878993D01*
X1887323Y297414D02*
X1891488Y301579D01*
X1899819D01*
X1903984Y297414D01*
Y293248D01*
X1899819Y289083D01*
X1895654D01*
X1899819D01*
X1903984Y284918D01*
Y280752D01*
X1899819Y276587D01*
X1891488D01*
X1887323Y280752D01*
X1834115Y1011239D02*
Y990412D01*
X1838280Y986247D01*
X1846611D01*
X1850776Y990412D01*
Y1011239D01*
X1859107Y986247D02*
X1867438D01*
X1863272D01*
Y1011239D01*
X1859107Y1007074D01*
X1879934Y982082D02*
X1896595D01*
X1904926Y1007074D02*
X1909091Y1011239D01*
X1917421D01*
X1921587Y1007074D01*
Y1002908D01*
X1917421Y998743D01*
X1913256D01*
X1917421D01*
X1921587Y994578D01*
Y990412D01*
X1917421Y986247D01*
X1909091D01*
X1904926Y990412D01*
X908211Y968578D02*
X904046Y964412D01*
Y956082D01*
X908211Y951916D01*
X924872D01*
X929038Y956082D01*
Y964412D01*
X924872Y968578D01*
X929038Y976908D02*
Y985239D01*
Y981074D01*
X904046D01*
X908211Y976908D01*
X933203Y997735D02*
Y1014396D01*
X929038Y1022727D02*
Y1031057D01*
Y1026892D01*
X904046D01*
X908211Y1022727D01*
X852294Y898900D02*
X848129Y903066D01*
X839798D01*
X835633Y898900D01*
Y882239D01*
X839798Y878074D01*
X848129D01*
X852294Y882239D01*
X877286Y878074D02*
X860625D01*
X877286Y894735D01*
Y898900D01*
X873121Y903066D01*
X864790D01*
X860625Y898900D01*
X885617Y873909D02*
X902278D01*
X910609Y878074D02*
X918939D01*
X914774D01*
Y903066D01*
X910609Y898900D01*
X979581Y718413D02*
X975416Y714248D01*
Y705917D01*
X979581Y701752D01*
X996242D01*
X1000408Y705917D01*
Y714248D01*
X996242Y718413D01*
X979581Y726744D02*
X975416Y730909D01*
Y739240D01*
X979581Y743405D01*
X983746D01*
X987912Y739240D01*
Y735074D01*
Y739240D01*
X992077Y743405D01*
X996242D01*
X1000408Y739240D01*
Y730909D01*
X996242Y726744D01*
X1004573Y751736D02*
Y768397D01*
X1000408Y776728D02*
Y785058D01*
Y780893D01*
X975416D01*
X979581Y776728D01*
X1337038Y1195991D02*
X1341203Y1200156D01*
Y1208487D01*
X1337038Y1212652D01*
X1320377D01*
X1316211Y1208487D01*
Y1200156D01*
X1320377Y1195991D01*
X1316211Y1175164D02*
X1341203D01*
X1328707Y1187660D01*
Y1170999D01*
X1312046Y1162668D02*
Y1146007D01*
X1316211Y1137676D02*
Y1129346D01*
Y1133511D01*
X1341203D01*
X1337038Y1137676D01*
X794382Y1195849D02*
X798548Y1200014D01*
Y1208345D01*
X794382Y1212510D01*
X777721D01*
X773556Y1208345D01*
Y1200014D01*
X777721Y1195849D01*
X798548Y1170857D02*
Y1187518D01*
X786052D01*
X790217Y1179187D01*
Y1175022D01*
X786052Y1170857D01*
X777721D01*
X773556Y1175022D01*
Y1183353D01*
X777721Y1187518D01*
X769390Y1162526D02*
Y1145865D01*
X773556Y1137534D02*
Y1129204D01*
Y1133369D01*
X798548D01*
X794382Y1137534D01*
X848556Y1145865D02*
X844390Y1141699D01*
Y1133369D01*
X848556Y1129204D01*
X865217D01*
X869382Y1133369D01*
Y1141699D01*
X865217Y1145865D01*
X844390Y1170857D02*
X848556Y1162526D01*
X856886Y1154195D01*
X865217D01*
X869382Y1158361D01*
Y1166691D01*
X865217Y1170857D01*
X861052D01*
X856886Y1166691D01*
Y1154195D01*
X873547Y1179187D02*
Y1195849D01*
X869382Y1204179D02*
Y1212510D01*
Y1208344D01*
X844390D01*
X848556Y1204179D01*
X1244581Y1146007D02*
X1240416Y1141842D01*
Y1133511D01*
X1244581Y1129346D01*
X1261243D01*
X1265408Y1133511D01*
Y1141842D01*
X1261243Y1146007D01*
X1240416Y1154338D02*
Y1170999D01*
X1244581D01*
X1261243Y1154338D01*
X1265408D01*
X1269573Y1179330D02*
Y1195991D01*
X1265408Y1204321D02*
Y1212652D01*
Y1208487D01*
X1240416D01*
X1244581Y1204321D01*
X1023581Y1143834D02*
X1019416Y1139668D01*
Y1131338D01*
X1023581Y1127172D01*
X1040243D01*
X1044408Y1131338D01*
Y1139668D01*
X1040243Y1143834D01*
X1023581Y1152164D02*
X1019416Y1156330D01*
Y1164660D01*
X1023581Y1168826D01*
X1027747D01*
X1031912Y1164660D01*
X1036077Y1168826D01*
X1040243D01*
X1044408Y1164660D01*
Y1156330D01*
X1040243Y1152164D01*
X1036077D01*
X1031912Y1156330D01*
X1027747Y1152164D01*
X1023581D01*
X1031912Y1156330D02*
Y1164660D01*
X1048573Y1177156D02*
Y1193818D01*
X1044408Y1202148D02*
Y1210479D01*
Y1206313D01*
X1019416D01*
X1023581Y1202148D01*
X934012Y1165487D02*
X929847Y1161322D01*
Y1152991D01*
X934012Y1148826D01*
X950673D01*
X954839Y1152991D01*
Y1161322D01*
X950673Y1165487D01*
Y1173818D02*
X954839Y1177983D01*
Y1186314D01*
X950673Y1190479D01*
X934012D01*
X929847Y1186314D01*
Y1177983D01*
X934012Y1173818D01*
X938178D01*
X942343Y1177983D01*
Y1190479D01*
X959004Y1198810D02*
Y1215471D01*
X954839Y1223802D02*
Y1232132D01*
Y1227967D01*
X929847D01*
X934012Y1223802D01*
X1398211Y1157247D02*
X1394046Y1153082D01*
Y1144751D01*
X1398211Y1140586D01*
X1414872D01*
X1419038Y1144751D01*
Y1153082D01*
X1414872Y1157247D01*
X1419038Y1165578D02*
Y1173908D01*
Y1169743D01*
X1394046D01*
X1398211Y1165578D01*
Y1186404D02*
X1394046Y1190570D01*
Y1198900D01*
X1398211Y1203066D01*
X1414872D01*
X1419038Y1198900D01*
Y1190570D01*
X1414872Y1186404D01*
X1398211D01*
X1423203Y1211396D02*
Y1228058D01*
X1419038Y1236388D02*
Y1244719D01*
Y1240553D01*
X1394046D01*
X1398211Y1236388D01*
X1280463Y703835D02*
X1255471D01*
Y716331D01*
X1259636Y720496D01*
X1267967D01*
X1272132Y716331D01*
Y703835D01*
Y712165D02*
X1280463Y720496D01*
Y728827D02*
Y737157D01*
Y732992D01*
X1255471D01*
X1259636Y728827D01*
X1284628Y749653D02*
Y766314D01*
X1280463Y774645D02*
Y782976D01*
Y778810D01*
X1255471D01*
X1259636Y774645D01*
X1409616Y947900D02*
Y922908D01*
X1397120D01*
X1392955Y927074D01*
Y935404D01*
X1397120Y939570D01*
X1409616D01*
X1401286D02*
X1392955Y947900D01*
X1367963D02*
X1384624D01*
X1367963Y931239D01*
Y927074D01*
X1372128Y922908D01*
X1380459D01*
X1384624Y927074D01*
X1359632Y952066D02*
X1342971D01*
X1334641Y947900D02*
X1326310D01*
X1330475D01*
Y922908D01*
X1334641Y927074D01*
X1021657Y1249247D02*
Y1274239D01*
X1034152D01*
X1038318Y1270074D01*
Y1261743D01*
X1034152Y1257578D01*
X1021657D01*
X1029987D02*
X1038318Y1249247D01*
X1046648Y1270074D02*
X1050814Y1274239D01*
X1059144D01*
X1063310Y1270074D01*
Y1265908D01*
X1059144Y1261743D01*
X1054979D01*
X1059144D01*
X1063310Y1257578D01*
Y1253412D01*
X1059144Y1249247D01*
X1050814D01*
X1046648Y1253412D01*
X1071640Y1245082D02*
X1088302D01*
X1096632Y1249247D02*
X1104963D01*
X1100797D01*
Y1274239D01*
X1096632Y1270074D01*
X1349463Y701752D02*
X1324471D01*
Y714248D01*
X1328636Y718413D01*
X1336967D01*
X1341132Y714248D01*
Y701752D01*
Y710082D02*
X1349463Y718413D01*
Y739240D02*
X1324471D01*
X1336967Y726744D01*
Y743405D01*
X1353628Y751736D02*
Y768397D01*
X1349463Y776728D02*
Y785058D01*
Y780893D01*
X1324471D01*
X1328636Y776728D01*
X839582Y1033140D02*
X864573D01*
Y1020644D01*
X860408Y1016479D01*
X852077D01*
X847912Y1020644D01*
Y1033140D01*
Y1024810D02*
X839582Y1016479D01*
X864573Y991487D02*
X860408Y999818D01*
X852077Y1008148D01*
X843747D01*
X839582Y1003983D01*
Y995652D01*
X843747Y991487D01*
X847912D01*
X852077Y995652D01*
Y1008148D01*
X835416Y983156D02*
Y966495D01*
X839582Y958164D02*
Y949834D01*
Y953999D01*
X864573D01*
X860408Y958164D01*
X1326310Y1005932D02*
Y1030924D01*
X1338806D01*
X1342971Y1026759D01*
Y1018428D01*
X1338806Y1014263D01*
X1326310D01*
X1334641D02*
X1342971Y1005932D01*
X1351302Y1030924D02*
X1367963D01*
Y1026759D01*
X1351302Y1010097D01*
Y1005932D01*
X1376294Y1001767D02*
X1392955D01*
X1401286Y1005932D02*
X1409616D01*
X1405451D01*
Y1030924D01*
X1401286Y1026759D01*
X1069723Y691339D02*
X1044731D01*
Y703835D01*
X1048896Y708000D01*
X1057227D01*
X1061392Y703835D01*
Y691339D01*
Y699669D02*
X1069723Y708000D01*
Y716331D02*
Y724661D01*
Y720496D01*
X1044731D01*
X1048896Y716331D01*
X1069723Y749653D02*
X1044731D01*
X1057227Y737157D01*
Y753818D01*
X1073888Y762149D02*
Y778810D01*
X1069723Y787141D02*
Y795472D01*
Y791306D01*
X1044731D01*
X1048896Y787141D01*
X1140723Y691339D02*
X1115731D01*
Y703835D01*
X1119896Y708000D01*
X1128227D01*
X1132392Y703835D01*
Y691339D01*
Y699669D02*
X1140723Y708000D01*
Y716331D02*
Y724661D01*
Y720496D01*
X1115731D01*
X1119896Y716331D01*
X1115731Y753818D02*
Y737157D01*
X1128227D01*
X1124062Y745488D01*
Y749653D01*
X1128227Y753818D01*
X1136558D01*
X1140723Y749653D01*
Y741322D01*
X1136558Y737157D01*
X1144888Y762149D02*
Y778810D01*
X1140723Y787141D02*
Y795472D01*
Y791306D01*
X1115731D01*
X1119896Y787141D01*
X1211093Y691339D02*
X1186101D01*
Y703835D01*
X1190266Y708000D01*
X1198597D01*
X1202762Y703835D01*
Y691339D01*
Y699669D02*
X1211093Y708000D01*
Y716331D02*
Y724661D01*
Y720496D01*
X1186101D01*
X1190266Y716331D01*
X1186101Y753818D02*
X1190266Y745488D01*
X1198597Y737157D01*
X1206928D01*
X1211093Y741322D01*
Y749653D01*
X1206928Y753818D01*
X1202762D01*
X1198597Y749653D01*
Y737157D01*
X1215258Y762149D02*
Y778810D01*
X1211093Y787141D02*
Y795472D01*
Y791306D01*
X1186101D01*
X1190266Y787141D01*
X1516504Y641677D02*
X1541496D01*
Y654173D01*
X1537331Y658339D01*
X1520669D01*
X1516504Y654173D01*
Y641677D01*
X1541496Y666669D02*
Y675000D01*
Y670835D01*
X1516504D01*
X1520669Y666669D01*
X1921811Y1705409D02*
Y1680417D01*
X1909315D01*
X1905150Y1684583D01*
Y1692913D01*
X1909315Y1697079D01*
X1921811D01*
X1880158Y1705409D02*
X1896819D01*
X1880158Y1688748D01*
Y1684583D01*
X1884323Y1680417D01*
X1892654D01*
X1896819Y1684583D01*
X1272204Y1705409D02*
Y1680417D01*
X1259708D01*
X1255543Y1684583D01*
Y1692913D01*
X1259708Y1697079D01*
X1272204D01*
X1234716Y1705409D02*
Y1680417D01*
X1247213Y1692913D01*
X1230551D01*
X1612681Y637512D02*
X1587689D01*
Y650008D01*
X1591855Y654173D01*
X1600185D01*
X1604351Y650008D01*
Y637512D01*
Y645843D02*
X1612681Y654173D01*
X1591855Y662504D02*
X1587689Y666669D01*
Y675000D01*
X1591855Y679165D01*
X1596020D01*
X1600185Y675000D01*
X1604351Y679165D01*
X1608516D01*
X1612681Y675000D01*
Y666669D01*
X1608516Y662504D01*
X1604351D01*
X1600185Y666669D01*
X1596020Y662504D01*
X1591855D01*
X1600185Y666669D02*
Y675000D01*
X3768669Y972579D02*
X3764503Y968413D01*
Y960083D01*
X3768669Y955918D01*
X3785330D01*
X3789495Y960083D01*
Y968413D01*
X3785330Y972579D01*
X3789495Y980909D02*
Y989240D01*
Y985075D01*
X3764503D01*
X3768669Y980909D01*
X3789495Y1001736D02*
Y1010067D01*
Y1005901D01*
X3764503D01*
X3768669Y1001736D01*
X3676669Y968413D02*
X3672504Y964248D01*
Y955918D01*
X3676669Y951752D01*
X3693330D01*
X3697496Y955918D01*
Y964248D01*
X3693330Y968413D01*
X3697496Y976744D02*
Y985075D01*
Y980909D01*
X3672504D01*
X3676669Y976744D01*
X3697496Y1014232D02*
Y997571D01*
X3680834Y1014232D01*
X3676669D01*
X3672504Y1010067D01*
Y1001736D01*
X3676669Y997571D01*
X3491488Y933413D02*
X3487323Y929248D01*
Y920918D01*
X3491488Y916752D01*
X3508150D01*
X3512315Y920918D01*
Y929248D01*
X3508150Y933413D01*
X3512315Y941744D02*
Y950075D01*
Y945909D01*
X3487323D01*
X3491488Y941744D01*
Y962571D02*
X3487323Y966736D01*
Y975067D01*
X3491488Y979232D01*
X3495654D01*
X3499819Y975067D01*
Y970901D01*
Y975067D01*
X3503985Y979232D01*
X3508150D01*
X3512315Y975067D01*
Y966736D01*
X3508150Y962571D01*
X2757843Y776413D02*
X2762008Y772248D01*
X2770339D01*
X2774504Y776413D01*
Y793074D01*
X2770339Y797240D01*
X2762008D01*
X2757843Y793074D01*
X2749512Y797240D02*
X2741182D01*
X2745347D01*
Y772248D01*
X2749512Y776413D01*
X2712025Y772248D02*
X2728686D01*
Y784744D01*
X2720355Y780578D01*
X2716190D01*
X2712025Y784744D01*
Y793074D01*
X2716190Y797240D01*
X2724521D01*
X2728686Y793074D01*
X2830370Y980371D02*
X2834536Y976205D01*
X2842867D01*
X2847032Y980371D01*
Y997032D01*
X2842867Y1001197D01*
X2834536D01*
X2830370Y997032D01*
X2822040Y1001197D02*
X2813709D01*
X2817875D01*
Y976205D01*
X2822040Y980371D01*
X2784552Y976205D02*
X2792883Y980371D01*
X2801213Y988701D01*
Y997032D01*
X2797048Y1001197D01*
X2788717D01*
X2784552Y997032D01*
Y992867D01*
X2788717Y988701D01*
X2801213D01*
X2801213Y921048D02*
X2797048Y925213D01*
X2788718D01*
X2784552Y921048D01*
Y904387D01*
X2788718Y900221D01*
X2797048D01*
X2801213Y904387D01*
X2809544Y900221D02*
X2817875D01*
X2813709D01*
Y925213D01*
X2809544Y921048D01*
X2830371Y925213D02*
X2847032D01*
Y921048D01*
X2830371Y904387D01*
Y900221D01*
X2801213Y1070654D02*
X2797048Y1074820D01*
X2788718D01*
X2784552Y1070654D01*
Y1053993D01*
X2788718Y1049828D01*
X2797048D01*
X2801213Y1053993D01*
X2809544Y1049828D02*
X2817875D01*
X2813709D01*
Y1074820D01*
X2809544Y1070654D01*
X2830371D02*
X2834536Y1074820D01*
X2842867D01*
X2847032Y1070654D01*
Y1066489D01*
X2842867Y1062324D01*
X2847032Y1058158D01*
Y1053993D01*
X2842867Y1049828D01*
X2834536D01*
X2830371Y1053993D01*
Y1058158D01*
X2834536Y1062324D01*
X2830371Y1066489D01*
Y1070654D01*
X2834536Y1062324D02*
X2842867D01*
X3428331Y940917D02*
X3432496Y945082D01*
Y953413D01*
X3428331Y957578D01*
X3411669D01*
X3407504Y953413D01*
Y945082D01*
X3411669Y940917D01*
X3407504Y932587D02*
Y924256D01*
Y928421D01*
X3432496D01*
X3428331Y932587D01*
X3411669Y911760D02*
X3407504Y907595D01*
Y899264D01*
X3411669Y895099D01*
X3428331D01*
X3432496Y899264D01*
Y907595D01*
X3428331Y911760D01*
X3424165D01*
X3420000Y907595D01*
Y895099D01*
X2777138Y1196059D02*
X2760477D01*
X2756312Y1191894D01*
Y1183563D01*
X2760477Y1179398D01*
X2777138D01*
X2781304Y1183563D01*
Y1191894D01*
X2772973Y1187728D02*
X2781304Y1196059D01*
Y1191894D02*
X2777138Y1196059D01*
X2781304Y1204390D02*
Y1212720D01*
Y1208555D01*
X2756312D01*
X2760477Y1204390D01*
X3417165Y1212496D02*
Y1187504D01*
X3404669D01*
X3400504Y1191669D01*
Y1200000D01*
X3404669Y1204165D01*
X3417165D01*
X3408834D02*
X3400504Y1212496D01*
X3392173Y1208331D02*
X3388008Y1212496D01*
X3379677D01*
X3375512Y1208331D01*
Y1191669D01*
X3379677Y1187504D01*
X3388008D01*
X3392173Y1191669D01*
Y1195835D01*
X3388008Y1200000D01*
X3375512D01*
X3365099Y1341047D02*
Y1366039D01*
X3377595D01*
X3381760Y1361874D01*
Y1353543D01*
X3377595Y1349378D01*
X3365099D01*
X3373429D02*
X3381760Y1341047D01*
X3390091D02*
X3398421D01*
X3394256D01*
Y1366039D01*
X3390091Y1361874D01*
X3410917D02*
X3415082Y1366039D01*
X3423413D01*
X3427579Y1361874D01*
Y1345213D01*
X3423413Y1341047D01*
X3415082D01*
X3410917Y1345213D01*
Y1361874D01*
X2577340Y1224902D02*
Y1249893D01*
X2589836D01*
X2594001Y1245728D01*
Y1237398D01*
X2589836Y1233232D01*
X2577340D01*
X2585670D02*
X2594001Y1224902D01*
X2602331D02*
X2610662D01*
X2606497D01*
Y1249893D01*
X2602331Y1245728D01*
X2623158Y1224902D02*
X2631489D01*
X2627323D01*
Y1249893D01*
X2623158Y1245728D01*
X2635654Y1175090D02*
Y1150098D01*
X2623158D01*
X2618992Y1154264D01*
Y1162594D01*
X2623158Y1166760D01*
X2635654D01*
X2627323D02*
X2618992Y1175090D01*
X2610662D02*
X2602331D01*
X2606497D01*
Y1150098D01*
X2610662Y1154264D01*
X2573174Y1175090D02*
X2589835D01*
X2573174Y1158429D01*
Y1154264D01*
X2577339Y1150098D01*
X2585670D01*
X2589835Y1154264D01*
X2431598Y879509D02*
X2406606D01*
Y892005D01*
X2410772Y896170D01*
X2419102D01*
X2423268Y892005D01*
Y879509D01*
Y887839D02*
X2431598Y896170D01*
Y904501D02*
Y912831D01*
Y908666D01*
X2406606D01*
X2410772Y904501D01*
Y925327D02*
X2406606Y929493D01*
Y937823D01*
X2410772Y941989D01*
X2414937D01*
X2419102Y937823D01*
Y933658D01*
Y937823D01*
X2423268Y941989D01*
X2427433D01*
X2431598Y937823D01*
Y929493D01*
X2427433Y925327D01*
X2368181Y383331D02*
X2364016Y387496D01*
X2355685D01*
X2351520Y383331D01*
Y366669D01*
X2355685Y362504D01*
X2364016D01*
X2368181Y366669D01*
X2393173Y362504D02*
X2376512D01*
X2393173Y379165D01*
Y383331D01*
X2389008Y387496D01*
X2380677D01*
X2376512Y383331D01*
X2401504D02*
X2405669Y387496D01*
X2414000D01*
X2418165Y383331D01*
Y366669D01*
X2414000Y362504D01*
X2405669D01*
X2401504Y366669D01*
Y383331D01*
X2440771Y492686D02*
X2436606Y488520D01*
Y480190D01*
X2440771Y476024D01*
X2457433D01*
X2461598Y480190D01*
Y488520D01*
X2457433Y492686D01*
X2461598Y517678D02*
Y501016D01*
X2444937Y517678D01*
X2440771D01*
X2436606Y513512D01*
Y505182D01*
X2440771Y501016D01*
X2461598Y526008D02*
Y534339D01*
Y530173D01*
X2436606D01*
X2440771Y526008D01*
X2237426Y366669D02*
X2241591Y362504D01*
X2249922D01*
X2254087Y366669D01*
Y383330D01*
X2249922Y387496D01*
X2241591D01*
X2237426Y383330D01*
X2212434Y387496D02*
X2229095D01*
X2212434Y370834D01*
Y366669D01*
X2216599Y362504D01*
X2224930D01*
X2229095Y366669D01*
X2187442Y387496D02*
X2204103D01*
X2187442Y370834D01*
Y366669D01*
X2191607Y362504D01*
X2199938D01*
X2204103Y366669D01*
X2237426Y776413D02*
X2241591Y772248D01*
X2249922D01*
X2254087Y776413D01*
Y793074D01*
X2249922Y797240D01*
X2241591D01*
X2237426Y793074D01*
X2212434Y797240D02*
X2229095D01*
X2212434Y780578D01*
Y776413D01*
X2216599Y772248D01*
X2224930D01*
X2229095Y776413D01*
X2204103D02*
X2199938Y772248D01*
X2191607D01*
X2187442Y776413D01*
Y780578D01*
X2191607Y784744D01*
X2195773D01*
X2191607D01*
X2187442Y788909D01*
Y793074D01*
X2191607Y797240D01*
X2199938D01*
X2204103Y793074D01*
X2592504Y343512D02*
X2617496D01*
Y356009D01*
X2613331Y360174D01*
X2596669D01*
X2592504Y356009D01*
Y343512D01*
X2617496Y385166D02*
Y368504D01*
X2600835Y385166D01*
X2596669D01*
X2592504Y381000D01*
Y372670D01*
X2596669Y368504D01*
X2699495Y333099D02*
X2674503D01*
Y345595D01*
X2678669Y349761D01*
X2686999D01*
X2691165Y345595D01*
Y333099D01*
Y341430D02*
X2699495Y349761D01*
Y358091D02*
Y366422D01*
Y362257D01*
X2674503D01*
X2678669Y358091D01*
X2674503Y378918D02*
Y395579D01*
X2678669D01*
X2695330Y378918D01*
X2699495D01*
X1330475Y876735D02*
X1326310Y880900D01*
X1317979D01*
X1313814Y876735D01*
Y860073D01*
X1317979Y855908D01*
X1326310D01*
X1330475Y860073D01*
X1355467Y855908D02*
X1338806D01*
X1355467Y872569D01*
Y876735D01*
X1351302Y880900D01*
X1342971D01*
X1338806Y876735D01*
X1376294Y855908D02*
Y880900D01*
X1363798Y868404D01*
X1380459D01*
X1388790Y851743D02*
X1405451D01*
X1413782Y855908D02*
X1422112D01*
X1417947D01*
Y880900D01*
X1413782Y876735D01*
X587585Y877397D02*
X583420Y881563D01*
X575089D01*
X570924Y877397D01*
Y860736D01*
X575089Y856571D01*
X583420D01*
X587585Y860736D01*
X612577Y856571D02*
X595916D01*
X612577Y873232D01*
Y877397D01*
X608412Y881563D01*
X600081D01*
X595916Y877397D01*
X633404Y856571D02*
Y881563D01*
X620908Y869067D01*
X637569D01*
X645900Y852405D02*
X662561D01*
X687553Y856571D02*
X670892D01*
X687553Y873232D01*
Y877397D01*
X683388Y881563D01*
X675057D01*
X670892Y877397D01*
X2054107Y879126D02*
X2049942Y883291D01*
X2041611D01*
X2037446Y879126D01*
Y862464D01*
X2041611Y858299D01*
X2049942D01*
X2054107Y862464D01*
X2079099Y858299D02*
X2062438D01*
X2079099Y874960D01*
Y879126D01*
X2074934Y883291D01*
X2066603D01*
X2062438Y879126D01*
X2099926Y858299D02*
Y883291D01*
X2087430Y870795D01*
X2104091D01*
X2112422Y854134D02*
X2129083D01*
X2137414Y879126D02*
X2141579Y883291D01*
X2149910D01*
X2154075Y879126D01*
Y874960D01*
X2149910Y870795D01*
X2145744D01*
X2149910D01*
X2154075Y866630D01*
Y862464D01*
X2149910Y858299D01*
X2141579D01*
X2137414Y862464D01*
X2834173Y1797504D02*
Y1822496D01*
X2846669D01*
X2850835Y1818331D01*
Y1810000D01*
X2846669Y1805835D01*
X2834173D01*
X2859165Y1822496D02*
X2875827D01*
Y1818331D01*
X2859165Y1801669D01*
Y1797504D01*
X3269173D02*
Y1822496D01*
X3281669D01*
X3285835Y1818331D01*
Y1810000D01*
X3281669Y1805835D01*
X3269173D01*
X3294165Y1818331D02*
X3298331Y1822496D01*
X3306661D01*
X3310827Y1818331D01*
Y1814165D01*
X3306661Y1810000D01*
X3310827Y1805835D01*
Y1801669D01*
X3306661Y1797504D01*
X3298331D01*
X3294165Y1801669D01*
Y1805835D01*
X3298331Y1810000D01*
X3294165Y1814165D01*
Y1818331D01*
X3298331Y1810000D02*
X3306661D01*
X2544001Y1515818D02*
X2568993D01*
Y1503322D01*
X2564827Y1499157D01*
X2556497D01*
X2552331Y1503322D01*
Y1515818D01*
X2548166Y1490826D02*
X2544001Y1486661D01*
Y1478331D01*
X2548166Y1474165D01*
X2564827D01*
X2568993Y1478331D01*
Y1486661D01*
X2564827Y1490826D01*
X2560662D01*
X2556497Y1486661D01*
Y1474165D01*
X2539836Y1465835D02*
Y1449173D01*
X2544001Y1424181D02*
Y1440843D01*
X2560662Y1424181D01*
X2564827D01*
X2568993Y1428347D01*
Y1436677D01*
X2564827Y1440843D01*
X3534783Y1837496D02*
Y1812504D01*
X3522287D01*
X3518122Y1816669D01*
Y1825000D01*
X3522287Y1829165D01*
X3534783D01*
X3526452D02*
X3518122Y1837496D01*
X3509791D02*
X3501461D01*
X3505626D01*
Y1812504D01*
X3509791Y1816669D01*
X3488965Y1833331D02*
X3484799Y1837496D01*
X3476468D01*
X3472303Y1833331D01*
Y1816669D01*
X3476468Y1812504D01*
X3484799D01*
X3488965Y1816669D01*
Y1820835D01*
X3484799Y1825000D01*
X3472303D01*
X2640843Y687496D02*
X2657504D01*
X2649173D01*
Y662504D01*
X2665835D02*
Y687496D01*
X2678331D01*
X2682496Y683331D01*
Y675000D01*
X2678331Y670835D01*
X2665835D01*
X2690827Y662504D02*
X2699157D01*
X2694992D01*
Y687496D01*
X2690827Y683331D01*
X2636677Y518559D02*
X2653339D01*
X2645008D01*
Y493568D01*
X2661669D02*
Y518559D01*
X2674165D01*
X2678331Y514394D01*
Y506064D01*
X2674165Y501898D01*
X2661669D01*
X2703323Y493568D02*
X2686661D01*
X2703323Y510229D01*
Y514394D01*
X2699157Y518559D01*
X2690827D01*
X2686661Y514394D01*
X144985Y1461678D02*
Y1478339D01*
Y1470008D01*
X169977D01*
Y1486669D02*
X144985D01*
Y1499165D01*
X149150Y1503331D01*
X157481D01*
X161646Y1499165D01*
Y1486669D01*
X149150Y1511661D02*
X144985Y1515827D01*
Y1524157D01*
X149150Y1528323D01*
X153315D01*
X157481Y1524157D01*
Y1519992D01*
Y1524157D01*
X161646Y1528323D01*
X165811D01*
X169977Y1524157D01*
Y1515827D01*
X165811Y1511661D01*
X2843323Y352534D02*
X2826661D01*
X2834992D01*
Y377526D01*
X2818331D02*
Y352534D01*
X2805835D01*
X2801669Y356700D01*
Y365030D01*
X2805835Y369196D01*
X2818331D01*
X2780843Y377526D02*
Y352534D01*
X2793339Y365030D01*
X2776677D01*
D55*
X2240953Y255504D02*
G03*
X2240953Y255504I-3937J0D01*
G01*
X2477540Y1162594D02*
G03*
X2477540Y1162594I-1000J0D01*
G01*
X2569312Y878465D02*
G03*
X2569312Y878465I-5000J0D01*
G01*
X2728075Y1237398D02*
G03*
X2728075Y1237398I-1000J0D01*
G01*
X2942607Y785394D02*
X3693001D01*
X2942607Y76733D02*
Y785394D01*
Y76733D02*
X3693001D01*
Y785394D02*
X3936701D01*
X3693001Y76733D02*
X3936701D01*
Y785394D01*
X3693001Y76733D02*
Y785394D01*
X1215000Y6221D02*
Y566221D01*
X1590000D01*
Y6221D02*
Y566221D01*
X1215000Y6221D02*
X1590000D01*
X811577Y476371D02*
X1172995D01*
Y97630D02*
Y476371D01*
X811577Y97630D02*
X1172995D01*
X811577D02*
Y476371D01*
X333292D02*
X694709D01*
Y97630D02*
Y476371D01*
X333292Y97630D02*
X694709D01*
X333292D02*
Y476371D01*
X1677457D02*
X2038875D01*
Y97630D02*
Y476371D01*
X1677457Y97630D02*
X2038875D01*
X1677457D02*
Y476371D01*
D56*
X1075506Y1055715D02*
G03*
X1075506Y1055715I-5000J0D01*
G01*
X336782D02*
G03*
X336782Y1055715I-5000J0D01*
G01*
X1803363D02*
G03*
X1803363Y1055715I-5000J0D01*
G01*
D96*
X833843Y1692913D02*
G03*
X833843Y1692913I-7071J0D01*
G01*
X164552Y551370D02*
G03*
X164552Y551370I-7071J0D01*
G01*
X2133055Y1692913D02*
G03*
X2133055Y1692913I-7071J0D01*
G01*
X1483449D02*
G03*
X1483449Y1692913I-7071J0D01*
G01*
D97*
X3771999Y1523543D02*
G03*
X3771999Y1523543I-10000J0D01*
G01*
X2385000Y1570000D02*
G03*
X2385000Y1570000I-10000J0D01*
G01*
X2765000Y1860000D02*
G03*
X2765000Y1860000I-10000J0D01*
G01*
X3200000D02*
G03*
X3200000Y1860000I-10000J0D01*
G01*
X2614414Y1570000D02*
G03*
X2614414Y1570000I-10000J0D01*
G01*
D98*
X3650623Y724371D02*
G03*
X3650623Y724371I-8803J0D01*
G01*
%TF.MD5,fc828b26a02faadb1faf5732c7f881fb*%
M02*
