%TF.GenerationSoftware,Altium Limited,Altium Designer,22.11.1 (43)*%
G04 Layer_Color=65535*
%FSLAX26Y26*%
%MOIN*%
%TF.SameCoordinates,7A21CAC7-823E-4026-81AB-88AB86373CC7*%
%TF.FilePolarity,Positive*%
%TF.FileFunction,Legend,Top*%
%TF.Part,Single*%
G01*
G75*
%TA.AperFunction,NonConductor*%
%ADD46C,0.006000*%
%ADD47C,0.005000*%
%ADD48C,0.010000*%
D46*
X827866Y3642736D02*
Y3682107D01*
Y3890768D02*
Y3930138D01*
X1355031D02*
X1394401D01*
Y3890768D02*
Y3930138D01*
X827866D02*
X867236D01*
X827866Y3642736D02*
X1394401D01*
Y3721477D01*
X3218646Y231122D02*
Y268130D01*
Y316949D02*
Y353956D01*
X3163528Y231122D02*
X3218646D01*
X3120220Y353956D02*
X3218646D01*
X2717000Y1538000D02*
X2817000D01*
Y1488000D02*
Y1538000D01*
X2717000Y1488000D02*
Y1538000D01*
Y1138000D02*
X2817000D01*
X1678000Y1237827D02*
X1698000D01*
Y1257827D01*
Y1517827D02*
Y1537827D01*
X1678000D02*
X1698000D01*
X1498000D02*
X1518000D01*
X1498000Y1517827D02*
Y1537827D01*
Y1237827D02*
Y1287827D01*
Y1237827D02*
X1548000D01*
X1498000Y1287827D02*
Y1322827D01*
X1548000Y1237827D02*
X1583000D01*
X3606079Y229508D02*
Y253130D01*
Y229508D02*
X3629701D01*
X3779307D02*
X3802929D01*
Y253130D01*
Y402736D02*
Y426358D01*
X3779307D02*
X3802929D01*
X3606079D02*
X3629701D01*
X3606079Y402736D02*
Y426358D01*
X3582063Y402736D02*
X3606079D01*
X3755008Y1636000D02*
X3890008D01*
X3755008Y1556000D02*
X3890008D01*
X50008Y1249000D02*
X140008D01*
X50008Y1319000D02*
X140008D01*
X2155197Y3339453D02*
X2195197D01*
X2155197Y3299453D02*
X2195197D01*
X897630Y3010764D02*
Y3100764D01*
X967630Y3010764D02*
Y3100764D01*
X846291Y2987764D02*
X936291D01*
X846291Y2917764D02*
X936291D01*
X976945Y2690764D02*
Y2780764D01*
X1046945Y2690764D02*
Y2780764D01*
X1375630Y3190276D02*
Y3280276D01*
X1305630Y3190276D02*
Y3280276D01*
X832156Y3224819D02*
Y3314819D01*
X762156Y3224819D02*
Y3314819D01*
X837156Y3224819D02*
Y3314819D01*
X907156Y3224819D02*
Y3314819D01*
X1234000Y3190276D02*
Y3280276D01*
X1304000Y3190276D02*
Y3280276D01*
X1013000Y3188103D02*
Y3278103D01*
X1083000Y3188103D02*
Y3278103D01*
X997612Y3224442D02*
Y3359442D01*
X917612Y3224442D02*
Y3359442D01*
X1462630Y3191930D02*
Y3326930D01*
X1382630Y3191930D02*
Y3326930D01*
X1257000Y2690764D02*
Y2780764D01*
X1327000Y2690764D02*
Y2780764D01*
X1336968Y2966764D02*
X1426968D01*
X1336968Y3036764D02*
X1426968D01*
X1057315Y3343938D02*
X1097315D01*
X1057315Y3303938D02*
X1097315D01*
X1326000Y2690764D02*
Y2780764D01*
X1396000Y2690764D02*
Y2780764D01*
X1253685Y3299922D02*
X1293685D01*
X1253685Y3339922D02*
X1293685D01*
X899000Y3010764D02*
Y3100764D01*
X829000Y3010764D02*
Y3100764D01*
X1336968Y3115623D02*
X1426968D01*
X1336968Y3045623D02*
X1426968D01*
X1046260Y2690764D02*
Y2780764D01*
X1116260Y2690764D02*
Y2780764D01*
X1117260Y2690764D02*
Y2780764D01*
X1187260Y2690764D02*
Y2780764D01*
X1187630Y2690764D02*
Y2780764D01*
X1257630Y2690764D02*
Y2780764D01*
X2785142Y3008296D02*
Y3098296D01*
X2715142Y3008296D02*
Y3098296D01*
X2663803Y2915296D02*
X2753803D01*
X2663803Y2985296D02*
X2753803D01*
X2864457Y2688296D02*
Y2778296D01*
X2794457Y2688296D02*
Y2778296D01*
X3123142Y3187807D02*
Y3277807D01*
X3193142Y3187807D02*
Y3277807D01*
X2579668Y3222350D02*
Y3312350D01*
X2649668Y3222350D02*
Y3312350D01*
X2724668Y3222350D02*
Y3312350D01*
X2654668Y3222350D02*
Y3312350D01*
X3121512Y3187807D02*
Y3277807D01*
X3051512Y3187807D02*
Y3277807D01*
X2900512Y3185634D02*
Y3275634D01*
X2830512Y3185634D02*
Y3275634D01*
X2735124Y3221973D02*
Y3356973D01*
X2815124Y3221973D02*
Y3356973D01*
X3200142Y3189461D02*
Y3324461D01*
X3280142Y3189461D02*
Y3324461D01*
X3144512Y2688296D02*
Y2778296D01*
X3074512Y2688296D02*
Y2778296D01*
X3154480Y3034296D02*
X3244480D01*
X3154480Y2964296D02*
X3244480D01*
X2874827Y3301469D02*
X2914827D01*
X2874827Y3341469D02*
X2914827D01*
X3213512Y2688296D02*
Y2778296D01*
X3143512Y2688296D02*
Y2778296D01*
X3071197Y3337453D02*
X3111197D01*
X3071197Y3297453D02*
X3111197D01*
X2646512Y3008296D02*
Y3098296D01*
X2716512Y3008296D02*
Y3098296D01*
X3154480Y3043154D02*
X3244480D01*
X3154480Y3113154D02*
X3244480D01*
X2933772Y2688296D02*
Y2778296D01*
X2863772Y2688296D02*
Y2778296D01*
X3004772Y2688296D02*
Y2778296D01*
X2934772Y2688296D02*
Y2778296D01*
X3075142Y2688296D02*
Y2778296D01*
X3005142Y2688296D02*
Y2778296D01*
X1869142Y3010296D02*
Y3100296D01*
X1799142Y3010296D02*
Y3100296D01*
X1747803Y2917296D02*
X1837803D01*
X1747803Y2987296D02*
X1837803D01*
X1948457Y2690296D02*
Y2780296D01*
X1878457Y2690296D02*
Y2780296D01*
X2207142Y3189807D02*
Y3279807D01*
X2277142Y3189807D02*
Y3279807D01*
X1663668Y3224350D02*
Y3314350D01*
X1733668Y3224350D02*
Y3314350D01*
X1808668Y3224350D02*
Y3314350D01*
X1738668Y3224350D02*
Y3314350D01*
X2205512Y3189807D02*
Y3279807D01*
X2135512Y3189807D02*
Y3279807D01*
X1984512Y3187634D02*
Y3277634D01*
X1914512Y3187634D02*
Y3277634D01*
X1819124Y3223973D02*
Y3358973D01*
X1899124Y3223973D02*
Y3358973D01*
X2284142Y3191461D02*
Y3326461D01*
X2364142Y3191461D02*
Y3326461D01*
X2228512Y2690296D02*
Y2780296D01*
X2158512Y2690296D02*
Y2780296D01*
X2238480Y3036296D02*
X2328480D01*
X2238480Y2966296D02*
X2328480D01*
X1958827Y3303469D02*
X1998827D01*
X1958827Y3343469D02*
X1998827D01*
X2297512Y2690296D02*
Y2780296D01*
X2227512Y2690296D02*
Y2780296D01*
X1730512Y3010296D02*
Y3100296D01*
X1800512Y3010296D02*
Y3100296D01*
X2238480Y3045154D02*
X2328480D01*
X2238480Y3115154D02*
X2328480D01*
X2017772Y2690296D02*
Y2780296D01*
X1947772Y2690296D02*
Y2780296D01*
X2088772Y2690296D02*
Y2780296D01*
X2018772Y2690296D02*
Y2780296D01*
X2159142Y2690296D02*
Y2780296D01*
X2089142Y2690296D02*
Y2780296D01*
X531221Y2794933D02*
Y2884933D01*
X601221Y2794933D02*
Y2884933D01*
X2649819Y3640268D02*
Y3679638D01*
Y3888299D02*
Y3927669D01*
X3176984D02*
X3216354D01*
Y3888299D02*
Y3927669D01*
X2649819D02*
X2689189D01*
X2649819Y3640268D02*
X3216354D01*
Y3719008D01*
X1719732Y3642268D02*
Y3681638D01*
Y3890299D02*
Y3929669D01*
X2246898D02*
X2286268D01*
Y3890299D02*
Y3929669D01*
X1719732D02*
X1759102D01*
X1719732Y3642268D02*
X2286268D01*
Y3721008D01*
X622221Y2795933D02*
Y2885933D01*
X692221Y2795933D02*
Y2885933D01*
X3755008Y1910000D02*
X3890008D01*
X3755008Y1830000D02*
X3890008D01*
X3755008Y1820000D02*
X3890008D01*
X3755008Y1740000D02*
X3890008D01*
X3755008Y1728000D02*
X3890008D01*
X3755008Y1648000D02*
X3890008D01*
X3560764Y182539D02*
Y272539D01*
X3490764Y182539D02*
Y272539D01*
X3756433Y90508D02*
Y180508D01*
X3686433Y90508D02*
Y180508D01*
X3610449Y90508D02*
Y180508D01*
X3680449Y90508D02*
Y180508D01*
X3760055Y90508D02*
Y180508D01*
X3830055Y90508D02*
Y180508D01*
X3596480Y1636819D02*
X3686480D01*
X3596480Y1706819D02*
X3686480D01*
X2829528Y231122D02*
X2927953D01*
X2829528Y353956D02*
X2884646D01*
X2829528Y231122D02*
Y268130D01*
Y316949D02*
Y353956D01*
X3779874Y2199772D02*
X3869874D01*
X3779874Y2269772D02*
X3869874D01*
X3596480Y1561000D02*
X3686480D01*
X3596480Y1631000D02*
X3686480D01*
X2976480Y290137D02*
X3066480D01*
X2976480Y220137D02*
X3066480D01*
X2976480Y294941D02*
X3066480D01*
X2976480Y364941D02*
X3066480D01*
X3647819Y538661D02*
Y628661D01*
X3717819Y538661D02*
Y628661D01*
X50008Y963606D02*
X140008D01*
X50008Y1033606D02*
X140008D01*
X50008Y892268D02*
X140008D01*
X50008Y962268D02*
X140008D01*
X50008Y1107000D02*
X140008D01*
X50008Y1177000D02*
X140008D01*
X50008Y1034000D02*
X140008D01*
X50008Y1104000D02*
X140008D01*
X50008Y1180000D02*
X140008D01*
X50008Y1250000D02*
X140008D01*
X901000Y1537827D02*
X921000D01*
X901000Y1517827D02*
Y1537827D01*
Y1237827D02*
Y1257827D01*
Y1237827D02*
X921000D01*
X1081000D02*
X1101000D01*
Y1257827D01*
Y1487827D02*
Y1537827D01*
X1051000D02*
X1101000D01*
Y1452827D02*
Y1487827D01*
X1016000Y1537827D02*
X1051000D01*
X3332819Y590000D02*
Y625000D01*
X3382819Y675000D02*
X3417819D01*
X3332819Y625000D02*
Y675000D01*
X3382819D01*
X3612819D02*
X3632819D01*
Y655000D02*
Y675000D01*
Y475000D02*
Y495000D01*
X3612819Y475000D02*
X3632819D01*
X3332819D02*
X3352819D01*
X3332819D02*
Y495000D01*
X2263220Y1237827D02*
X2283220D01*
Y1257827D01*
Y1517827D02*
Y1537827D01*
X2263220D02*
X2283220D01*
X2083220D02*
X2103220D01*
X2083220Y1517827D02*
Y1537827D01*
Y1237827D02*
Y1287827D01*
Y1237827D02*
X2133220D01*
X2083220Y1287827D02*
Y1322827D01*
X2133220Y1237827D02*
X2168220D01*
X3242150Y358122D02*
X3258811D01*
X3262976Y362287D01*
Y370618D01*
X3258811Y374783D01*
X3242150D01*
X3237984Y370618D01*
Y362287D01*
X3246315Y366452D02*
X3237984Y358122D01*
Y362287D02*
X3242150Y358122D01*
X3237984Y333130D02*
Y349791D01*
X3254646Y333130D01*
X3258811D01*
X3262976Y337295D01*
Y345626D01*
X3258811Y349791D01*
X805173Y1074496D02*
Y1053669D01*
X809339Y1049504D01*
X817669D01*
X821835Y1053669D01*
Y1074496D01*
X842661Y1049504D02*
Y1074496D01*
X830165Y1062000D01*
X846827D01*
X3472661Y2234827D02*
X3468496Y2238992D01*
X3460165D01*
X3456000Y2234827D01*
Y2230661D01*
X3460165Y2226496D01*
X3468496D01*
X3472661Y2222331D01*
Y2218165D01*
X3468496Y2214000D01*
X3460165D01*
X3456000Y2218165D01*
X3480992Y2214000D02*
X3489323D01*
X3485157D01*
Y2238992D01*
X3480992Y2234827D01*
X3125504Y1421173D02*
X3146331D01*
X3150496Y1425339D01*
Y1433669D01*
X3146331Y1437835D01*
X3125504D01*
X3150496Y1462827D02*
Y1446165D01*
X3133835Y1462827D01*
X3129669D01*
X3125504Y1458661D01*
Y1450331D01*
X3129669Y1446165D01*
X3585000Y504232D02*
Y483405D01*
X3589165Y479240D01*
X3597496D01*
X3601661Y483405D01*
Y504232D01*
X3609992Y500067D02*
X3614157Y504232D01*
X3622488D01*
X3626653Y500067D01*
Y495901D01*
X3622488Y491736D01*
X3618323D01*
X3622488D01*
X3626653Y487570D01*
Y483405D01*
X3622488Y479240D01*
X3614157D01*
X3609992Y483405D01*
X1826099Y2561312D02*
X1821933Y2557146D01*
Y2548816D01*
X1826099Y2544650D01*
X1830264D01*
X1834429Y2548816D01*
Y2557146D01*
X1838594Y2561312D01*
X1842760D01*
X1846925Y2557146D01*
Y2548816D01*
X1842760Y2544650D01*
X1846925Y2586303D02*
Y2569642D01*
X1830264Y2586303D01*
X1826099D01*
X1821933Y2582138D01*
Y2573807D01*
X1826099Y2569642D01*
X1851090Y2594634D02*
Y2611295D01*
X1846925Y2619626D02*
Y2627957D01*
Y2623791D01*
X1821933D01*
X1826099Y2619626D01*
X1830776Y3175047D02*
Y3154221D01*
X1834941Y3150055D01*
X1843272D01*
X1847437Y3154221D01*
Y3175047D01*
X1855768Y3150055D02*
X1864099D01*
X1859933D01*
Y3175047D01*
X1855768Y3170882D01*
X1876594Y3145890D02*
X1893256D01*
X1901586Y3150055D02*
X1909917D01*
X1905752D01*
Y3175047D01*
X1901586Y3170882D01*
X3662661Y1804331D02*
X3658496Y1808496D01*
X3650165D01*
X3646000Y1804331D01*
Y1787669D01*
X3650165Y1783504D01*
X3658496D01*
X3662661Y1787669D01*
X3670992Y1783504D02*
X3679323D01*
X3675157D01*
Y1808496D01*
X3670992Y1804331D01*
X3704314Y1783504D02*
Y1808496D01*
X3691818Y1796000D01*
X3708480D01*
X603000Y1205504D02*
Y1230496D01*
X615496D01*
X619661Y1226331D01*
Y1218000D01*
X615496Y1213835D01*
X603000D01*
X611331D02*
X619661Y1205504D01*
X627992D02*
X636322D01*
X632157D01*
Y1230496D01*
X627992Y1226331D01*
X648818Y1230496D02*
X665480D01*
Y1226331D01*
X648818Y1209669D01*
Y1205504D01*
X2124693Y3364055D02*
Y3389047D01*
X2137189D01*
X2141355Y3384882D01*
Y3376552D01*
X2137189Y3372386D01*
X2124693D01*
X2133024D02*
X2141355Y3364055D01*
X2166347Y3389047D02*
X2149685D01*
Y3376552D01*
X2158016Y3380717D01*
X2162181D01*
X2166347Y3376552D01*
Y3368221D01*
X2162181Y3364055D01*
X2153851D01*
X2149685Y3368221D01*
X2174677Y3359890D02*
X2191338D01*
X2199669Y3364055D02*
X2208000D01*
X2203834D01*
Y3389047D01*
X2199669Y3384882D01*
X991587Y3030863D02*
X987421Y3026698D01*
Y3018367D01*
X991587Y3014202D01*
X1008248D01*
X1012413Y3018367D01*
Y3026698D01*
X1008248Y3030863D01*
X1012413Y3039194D02*
Y3047524D01*
Y3043359D01*
X987421D01*
X991587Y3039194D01*
X1016579Y3060020D02*
Y3076682D01*
X1012413Y3101673D02*
Y3085012D01*
X995752Y3101673D01*
X991587D01*
X987421Y3097508D01*
Y3089177D01*
X991587Y3085012D01*
X865843Y2888351D02*
X861678Y2892516D01*
X853347D01*
X849182Y2888351D01*
Y2871690D01*
X853347Y2867524D01*
X861678D01*
X865843Y2871690D01*
X890835Y2867524D02*
X874173D01*
X890835Y2884186D01*
Y2888351D01*
X886669Y2892516D01*
X878339D01*
X874173Y2888351D01*
X899165Y2863359D02*
X915827D01*
X940818Y2867524D02*
X924157D01*
X940818Y2884186D01*
Y2888351D01*
X936653Y2892516D01*
X928322D01*
X924157Y2888351D01*
X1002587Y2834599D02*
X998421Y2830434D01*
Y2822103D01*
X1002587Y2817938D01*
X1019248D01*
X1023413Y2822103D01*
Y2830434D01*
X1019248Y2834599D01*
X1002587Y2842930D02*
X998421Y2847095D01*
Y2855425D01*
X1002587Y2859591D01*
X1006752D01*
X1010917Y2855425D01*
Y2851260D01*
Y2855425D01*
X1015082Y2859591D01*
X1019248D01*
X1023413Y2855425D01*
Y2847095D01*
X1019248Y2842930D01*
X1027578Y2867921D02*
Y2884583D01*
X1023413Y2909575D02*
Y2892913D01*
X1006752Y2909575D01*
X1002587D01*
X998421Y2905409D01*
Y2897079D01*
X1002587Y2892913D01*
X1330217Y3423780D02*
X1326051Y3419615D01*
Y3411284D01*
X1330217Y3407119D01*
X1346878D01*
X1351043Y3411284D01*
Y3419615D01*
X1346878Y3423780D01*
X1351043Y3444607D02*
X1326051D01*
X1338547Y3432111D01*
Y3448772D01*
X1355208Y3457103D02*
Y3473764D01*
X1351043Y3498756D02*
Y3482095D01*
X1334382Y3498756D01*
X1330217D01*
X1326051Y3494591D01*
Y3486260D01*
X1330217Y3482095D01*
X786742Y3420780D02*
X782577Y3416615D01*
Y3408284D01*
X786742Y3404119D01*
X803404D01*
X807569Y3408284D01*
Y3416615D01*
X803404Y3420780D01*
X782577Y3445772D02*
Y3429111D01*
X795073D01*
X790908Y3437442D01*
Y3441607D01*
X795073Y3445772D01*
X803404D01*
X807569Y3441607D01*
Y3433276D01*
X803404Y3429111D01*
X811734Y3454103D02*
Y3470764D01*
X807569Y3495756D02*
Y3479095D01*
X790908Y3495756D01*
X786742D01*
X782577Y3491591D01*
Y3483260D01*
X786742Y3479095D01*
X861742Y3420780D02*
X857577Y3416615D01*
Y3408284D01*
X861742Y3404119D01*
X878404D01*
X882569Y3408284D01*
Y3416615D01*
X878404Y3420780D01*
X857577Y3445772D02*
X861742Y3437442D01*
X870073Y3429111D01*
X878404D01*
X882569Y3433276D01*
Y3441607D01*
X878404Y3445772D01*
X874238D01*
X870073Y3441607D01*
Y3429111D01*
X886734Y3454103D02*
Y3470764D01*
X882569Y3495756D02*
Y3479095D01*
X865908Y3495756D01*
X861742D01*
X857577Y3491591D01*
Y3483260D01*
X861742Y3479095D01*
X1258587Y3423780D02*
X1254421Y3419615D01*
Y3411284D01*
X1258587Y3407119D01*
X1275248D01*
X1279413Y3411284D01*
Y3419615D01*
X1275248Y3423780D01*
X1254421Y3432111D02*
Y3448772D01*
X1258587D01*
X1275248Y3432111D01*
X1279413D01*
X1283579Y3457103D02*
Y3473764D01*
X1279413Y3498756D02*
Y3482095D01*
X1262752Y3498756D01*
X1258587D01*
X1254421Y3494591D01*
Y3486260D01*
X1258587Y3482095D01*
X1037587Y3420780D02*
X1033421Y3416615D01*
Y3408284D01*
X1037587Y3404119D01*
X1054248D01*
X1058413Y3408284D01*
Y3416615D01*
X1054248Y3420780D01*
X1037587Y3429111D02*
X1033421Y3433276D01*
Y3441607D01*
X1037587Y3445772D01*
X1041752D01*
X1045917Y3441607D01*
X1050083Y3445772D01*
X1054248D01*
X1058413Y3441607D01*
Y3433276D01*
X1054248Y3429111D01*
X1050083D01*
X1045917Y3433276D01*
X1041752Y3429111D01*
X1037587D01*
X1045917Y3433276D02*
Y3441607D01*
X1062579Y3454103D02*
Y3470764D01*
X1058413Y3495756D02*
Y3479095D01*
X1041752Y3495756D01*
X1037587D01*
X1033421Y3491591D01*
Y3483260D01*
X1037587Y3479095D01*
X947199Y3420780D02*
X943034Y3416615D01*
Y3408284D01*
X947199Y3404119D01*
X963860D01*
X968026Y3408284D01*
Y3416615D01*
X963860Y3420780D01*
Y3429111D02*
X968026Y3433276D01*
Y3441607D01*
X963860Y3445772D01*
X947199D01*
X943034Y3441607D01*
Y3433276D01*
X947199Y3429111D01*
X951364D01*
X955530Y3433276D01*
Y3445772D01*
X972191Y3454103D02*
Y3470764D01*
X968026Y3495756D02*
Y3479095D01*
X951364Y3495756D01*
X947199D01*
X943034Y3491591D01*
Y3483260D01*
X947199Y3479095D01*
X1412216Y3413367D02*
X1408051Y3409202D01*
Y3400871D01*
X1412216Y3396706D01*
X1428878D01*
X1433043Y3400871D01*
Y3409202D01*
X1428878Y3413367D01*
X1433043Y3421698D02*
Y3430028D01*
Y3425863D01*
X1408051D01*
X1412216Y3421698D01*
Y3442524D02*
X1408051Y3446690D01*
Y3455020D01*
X1412216Y3459186D01*
X1428878D01*
X1433043Y3455020D01*
Y3446690D01*
X1428878Y3442524D01*
X1412216D01*
X1437208Y3467516D02*
Y3484178D01*
X1433043Y3509169D02*
Y3492508D01*
X1416382Y3509169D01*
X1412216D01*
X1408051Y3505004D01*
Y3496673D01*
X1412216Y3492508D01*
X1302413Y2817938D02*
X1277421D01*
Y2830434D01*
X1281587Y2834599D01*
X1289917D01*
X1294083Y2830434D01*
Y2817938D01*
Y2826268D02*
X1302413Y2834599D01*
Y2842930D02*
Y2851260D01*
Y2847095D01*
X1277421D01*
X1281587Y2842930D01*
X1306579Y2863756D02*
Y2880417D01*
X1302413Y2905409D02*
Y2888748D01*
X1285752Y2905409D01*
X1281587D01*
X1277421Y2901244D01*
Y2892913D01*
X1281587Y2888748D01*
X1335181Y2927524D02*
Y2952516D01*
X1347678D01*
X1351843Y2948351D01*
Y2940020D01*
X1347678Y2935855D01*
X1335181D01*
X1343512D02*
X1351843Y2927524D01*
X1376835D02*
X1360173D01*
X1376835Y2944186D01*
Y2948351D01*
X1372669Y2952516D01*
X1364339D01*
X1360173Y2948351D01*
X1385165Y2923359D02*
X1401827D01*
X1426819Y2927524D02*
X1410157D01*
X1426819Y2944186D01*
Y2948351D01*
X1422653Y2952516D01*
X1414322D01*
X1410157Y2948351D01*
X1051181Y3364524D02*
Y3389516D01*
X1063678D01*
X1067843Y3385351D01*
Y3377020D01*
X1063678Y3372855D01*
X1051181D01*
X1059512D02*
X1067843Y3364524D01*
X1076173Y3385351D02*
X1080339Y3389516D01*
X1088669D01*
X1092835Y3385351D01*
Y3381186D01*
X1088669Y3377020D01*
X1084504D01*
X1088669D01*
X1092835Y3372855D01*
Y3368690D01*
X1088669Y3364524D01*
X1080339D01*
X1076173Y3368690D01*
X1101165Y3360359D02*
X1117827D01*
X1142819Y3364524D02*
X1126157D01*
X1142819Y3381186D01*
Y3385351D01*
X1138653Y3389516D01*
X1130322D01*
X1126157Y3385351D01*
X1371413Y2817938D02*
X1346421D01*
Y2830434D01*
X1350586Y2834599D01*
X1358917D01*
X1363082Y2830434D01*
Y2817938D01*
Y2826268D02*
X1371413Y2834599D01*
Y2855425D02*
X1346421D01*
X1358917Y2842930D01*
Y2859591D01*
X1375578Y2867921D02*
Y2884583D01*
X1371413Y2909575D02*
Y2892913D01*
X1354752Y2909575D01*
X1350586D01*
X1346421Y2905409D01*
Y2897079D01*
X1350586Y2892913D01*
X1223181Y3364524D02*
Y3389516D01*
X1235678D01*
X1239843Y3385351D01*
Y3377020D01*
X1235678Y3372855D01*
X1223181D01*
X1231512D02*
X1239843Y3364524D01*
X1264835Y3389516D02*
X1248173D01*
Y3377020D01*
X1256504Y3381186D01*
X1260669D01*
X1264835Y3377020D01*
Y3368690D01*
X1260669Y3364524D01*
X1252339D01*
X1248173Y3368690D01*
X1273165Y3360359D02*
X1289827D01*
X1314819Y3364524D02*
X1298157D01*
X1314819Y3381186D01*
Y3385351D01*
X1310653Y3389516D01*
X1302322D01*
X1298157Y3385351D01*
X803413Y3007119D02*
X778421D01*
Y3019615D01*
X782587Y3023780D01*
X790917D01*
X795083Y3019615D01*
Y3007119D01*
Y3015450D02*
X803413Y3023780D01*
X778421Y3048772D02*
X782587Y3040441D01*
X790917Y3032111D01*
X799248D01*
X803413Y3036276D01*
Y3044607D01*
X799248Y3048772D01*
X795083D01*
X790917Y3044607D01*
Y3032111D01*
X807578Y3057103D02*
Y3073764D01*
X803413Y3098756D02*
Y3082095D01*
X786752Y3098756D01*
X782587D01*
X778421Y3094591D01*
Y3086260D01*
X782587Y3082095D01*
X1338181Y3131524D02*
Y3156516D01*
X1350678D01*
X1354843Y3152351D01*
Y3144020D01*
X1350678Y3139855D01*
X1338181D01*
X1346512D02*
X1354843Y3131524D01*
X1363173Y3156516D02*
X1379835D01*
Y3152351D01*
X1363173Y3135690D01*
Y3131524D01*
X1388165Y3127359D02*
X1404827D01*
X1429819Y3131524D02*
X1413157D01*
X1429819Y3148186D01*
Y3152351D01*
X1425653Y3156516D01*
X1417322D01*
X1413157Y3152351D01*
X1091673Y2817938D02*
X1066681D01*
Y2830434D01*
X1070846Y2834599D01*
X1079177D01*
X1083342Y2830434D01*
Y2817938D01*
Y2826268D02*
X1091673Y2834599D01*
Y2842930D02*
Y2851260D01*
Y2847095D01*
X1066681D01*
X1070846Y2842930D01*
X1091673Y2876252D02*
X1066681D01*
X1079177Y2863756D01*
Y2880417D01*
X1095838Y2888748D02*
Y2905409D01*
X1091673Y2930401D02*
Y2913740D01*
X1075012Y2930401D01*
X1070846D01*
X1066681Y2926236D01*
Y2917905D01*
X1070846Y2913740D01*
X1162673Y2817938D02*
X1137681D01*
Y2830434D01*
X1141846Y2834599D01*
X1150177D01*
X1154342Y2830434D01*
Y2817938D01*
Y2826268D02*
X1162673Y2834599D01*
Y2842930D02*
Y2851260D01*
Y2847095D01*
X1137681D01*
X1141846Y2842930D01*
X1137681Y2880417D02*
Y2863756D01*
X1150177D01*
X1146012Y2872087D01*
Y2876252D01*
X1150177Y2880417D01*
X1158508D01*
X1162673Y2876252D01*
Y2867921D01*
X1158508Y2863756D01*
X1166838Y2888748D02*
Y2905409D01*
X1162673Y2930401D02*
Y2913740D01*
X1146012Y2930401D01*
X1141846D01*
X1137681Y2926236D01*
Y2917905D01*
X1141846Y2913740D01*
X1233468Y2817938D02*
X1208476D01*
Y2830434D01*
X1212642Y2834599D01*
X1220972D01*
X1225138Y2830434D01*
Y2817938D01*
Y2826268D02*
X1233468Y2834599D01*
Y2842930D02*
Y2851260D01*
Y2847095D01*
X1208476D01*
X1212642Y2842930D01*
X1208476Y2880418D02*
X1212642Y2872087D01*
X1220972Y2863756D01*
X1229303D01*
X1233468Y2867921D01*
Y2876252D01*
X1229303Y2880418D01*
X1225138D01*
X1220972Y2876252D01*
Y2863756D01*
X1237634Y2888748D02*
Y2905409D01*
X1233468Y2930401D02*
Y2913740D01*
X1216807Y2930401D01*
X1212642D01*
X1208476Y2926236D01*
Y2917905D01*
X1212642Y2913740D01*
X924587Y2561780D02*
X920421Y2557615D01*
Y2549284D01*
X924587Y2545119D01*
X928752D01*
X932917Y2549284D01*
Y2557615D01*
X937083Y2561780D01*
X941248D01*
X945413Y2557615D01*
Y2549284D01*
X941248Y2545119D01*
X945413Y2586772D02*
Y2570111D01*
X928752Y2586772D01*
X924587D01*
X920421Y2582607D01*
Y2574276D01*
X924587Y2570111D01*
X949578Y2595103D02*
Y2611764D01*
X945413Y2636756D02*
Y2620095D01*
X928752Y2636756D01*
X924587D01*
X920421Y2632591D01*
Y2624260D01*
X924587Y2620095D01*
X929264Y3175516D02*
Y3154690D01*
X933429Y3150524D01*
X941760D01*
X945926Y3154690D01*
Y3175516D01*
X954256Y3150524D02*
X962587D01*
X958421D01*
Y3175516D01*
X954256Y3171351D01*
X975083Y3146359D02*
X991744D01*
X1016736Y3150524D02*
X1000075D01*
X1016736Y3167186D01*
Y3171351D01*
X1012571Y3175516D01*
X1004240D01*
X1000075Y3171351D01*
X2809099Y3028394D02*
X2804933Y3024229D01*
Y3015898D01*
X2809099Y3011733D01*
X2825760D01*
X2829925Y3015898D01*
Y3024229D01*
X2825760Y3028394D01*
X2829925Y3036725D02*
Y3045055D01*
Y3040890D01*
X2804933D01*
X2809099Y3036725D01*
X2834090Y3057552D02*
Y3074213D01*
X2809099Y3082543D02*
X2804933Y3086709D01*
Y3095039D01*
X2809099Y3099205D01*
X2813264D01*
X2817429Y3095039D01*
Y3090874D01*
Y3095039D01*
X2821595Y3099205D01*
X2825760D01*
X2829925Y3095039D01*
Y3086709D01*
X2825760Y3082543D01*
X2683355Y2885882D02*
X2679189Y2890047D01*
X2670859D01*
X2666693Y2885882D01*
Y2869221D01*
X2670859Y2865055D01*
X2679189D01*
X2683355Y2869221D01*
X2708347Y2865055D02*
X2691685D01*
X2708347Y2881717D01*
Y2885882D01*
X2704181Y2890047D01*
X2695851D01*
X2691685Y2885882D01*
X2716677Y2860890D02*
X2733338D01*
X2741669Y2885882D02*
X2745834Y2890047D01*
X2754165D01*
X2758330Y2885882D01*
Y2881717D01*
X2754165Y2877552D01*
X2750000D01*
X2754165D01*
X2758330Y2873386D01*
Y2869221D01*
X2754165Y2865055D01*
X2745834D01*
X2741669Y2869221D01*
X2820098Y2832130D02*
X2815933Y2827965D01*
Y2819634D01*
X2820098Y2815469D01*
X2836760D01*
X2840925Y2819634D01*
Y2827965D01*
X2836760Y2832130D01*
X2820098Y2840461D02*
X2815933Y2844626D01*
Y2852957D01*
X2820098Y2857122D01*
X2824264D01*
X2828429Y2852957D01*
Y2848791D01*
Y2852957D01*
X2832594Y2857122D01*
X2836760D01*
X2840925Y2852957D01*
Y2844626D01*
X2836760Y2840461D01*
X2845090Y2865453D02*
Y2882114D01*
X2820098Y2890445D02*
X2815933Y2894610D01*
Y2902941D01*
X2820098Y2907106D01*
X2824264D01*
X2828429Y2902941D01*
Y2898775D01*
Y2902941D01*
X2832594Y2907106D01*
X2836760D01*
X2840925Y2902941D01*
Y2894610D01*
X2836760Y2890445D01*
X3147728Y3421312D02*
X3143563Y3417146D01*
Y3408816D01*
X3147728Y3404650D01*
X3164390D01*
X3168555Y3408816D01*
Y3417146D01*
X3164390Y3421312D01*
X3168555Y3442138D02*
X3143563D01*
X3156059Y3429642D01*
Y3446303D01*
X3172720Y3454634D02*
Y3471295D01*
X3147728Y3479626D02*
X3143563Y3483791D01*
Y3492122D01*
X3147728Y3496287D01*
X3151894D01*
X3156059Y3492122D01*
Y3487957D01*
Y3492122D01*
X3160224Y3496287D01*
X3164390D01*
X3168555Y3492122D01*
Y3483791D01*
X3164390Y3479626D01*
X2604254Y3418312D02*
X2600089Y3414146D01*
Y3405816D01*
X2604254Y3401650D01*
X2620916D01*
X2625081Y3405816D01*
Y3414146D01*
X2620916Y3418312D01*
X2600089Y3443303D02*
Y3426642D01*
X2612585D01*
X2608419Y3434973D01*
Y3439138D01*
X2612585Y3443303D01*
X2620916D01*
X2625081Y3439138D01*
Y3430807D01*
X2620916Y3426642D01*
X2629246Y3451634D02*
Y3468295D01*
X2604254Y3476626D02*
X2600089Y3480791D01*
Y3489122D01*
X2604254Y3493287D01*
X2608419D01*
X2612585Y3489122D01*
Y3484957D01*
Y3489122D01*
X2616750Y3493287D01*
X2620916D01*
X2625081Y3489122D01*
Y3480791D01*
X2620916Y3476626D01*
X2679254Y3418312D02*
X2675089Y3414146D01*
Y3405816D01*
X2679254Y3401650D01*
X2695916D01*
X2700081Y3405816D01*
Y3414146D01*
X2695916Y3418312D01*
X2675089Y3443303D02*
X2679254Y3434973D01*
X2687585Y3426642D01*
X2695916D01*
X2700081Y3430807D01*
Y3439138D01*
X2695916Y3443303D01*
X2691750D01*
X2687585Y3439138D01*
Y3426642D01*
X2704246Y3451634D02*
Y3468295D01*
X2679254Y3476626D02*
X2675089Y3480791D01*
Y3489122D01*
X2679254Y3493287D01*
X2683419D01*
X2687585Y3489122D01*
Y3484957D01*
Y3489122D01*
X2691750Y3493287D01*
X2695916D01*
X2700081Y3489122D01*
Y3480791D01*
X2695916Y3476626D01*
X3076098Y3421311D02*
X3071933Y3417146D01*
Y3408816D01*
X3076098Y3404650D01*
X3092760D01*
X3096925Y3408816D01*
Y3417146D01*
X3092760Y3421311D01*
X3071933Y3429642D02*
Y3446303D01*
X3076098D01*
X3092760Y3429642D01*
X3096925D01*
X3101090Y3454634D02*
Y3471295D01*
X3076098Y3479626D02*
X3071933Y3483791D01*
Y3492122D01*
X3076098Y3496287D01*
X3080264D01*
X3084429Y3492122D01*
Y3487956D01*
Y3492122D01*
X3088594Y3496287D01*
X3092760D01*
X3096925Y3492122D01*
Y3483791D01*
X3092760Y3479626D01*
X2855098Y3418311D02*
X2850933Y3414146D01*
Y3405816D01*
X2855098Y3401650D01*
X2871760D01*
X2875925Y3405816D01*
Y3414146D01*
X2871760Y3418311D01*
X2855098Y3426642D02*
X2850933Y3430807D01*
Y3439138D01*
X2855098Y3443303D01*
X2859264D01*
X2863429Y3439138D01*
X2867594Y3443303D01*
X2871760D01*
X2875925Y3439138D01*
Y3430807D01*
X2871760Y3426642D01*
X2867594D01*
X2863429Y3430807D01*
X2859264Y3426642D01*
X2855098D01*
X2863429Y3430807D02*
Y3439138D01*
X2880090Y3451634D02*
Y3468295D01*
X2855098Y3476626D02*
X2850933Y3480791D01*
Y3489122D01*
X2855098Y3493287D01*
X2859264D01*
X2863429Y3489122D01*
Y3484956D01*
Y3489122D01*
X2867594Y3493287D01*
X2871760D01*
X2875925Y3489122D01*
Y3480791D01*
X2871760Y3476626D01*
X2764711Y3418311D02*
X2760546Y3414146D01*
Y3405816D01*
X2764711Y3401650D01*
X2781372D01*
X2785537Y3405816D01*
Y3414146D01*
X2781372Y3418311D01*
Y3426642D02*
X2785537Y3430807D01*
Y3439138D01*
X2781372Y3443303D01*
X2764711D01*
X2760546Y3439138D01*
Y3430807D01*
X2764711Y3426642D01*
X2768876D01*
X2773041Y3430807D01*
Y3443303D01*
X2789703Y3451634D02*
Y3468295D01*
X2764711Y3476626D02*
X2760546Y3480791D01*
Y3489122D01*
X2764711Y3493287D01*
X2768876D01*
X2773041Y3489122D01*
Y3484956D01*
Y3489122D01*
X2777207Y3493287D01*
X2781372D01*
X2785537Y3489122D01*
Y3480791D01*
X2781372Y3476626D01*
X3229728Y3410898D02*
X3225563Y3406733D01*
Y3398402D01*
X3229728Y3394237D01*
X3246390D01*
X3250555Y3398402D01*
Y3406733D01*
X3246390Y3410898D01*
X3250555Y3419229D02*
Y3427560D01*
Y3423394D01*
X3225563D01*
X3229728Y3419229D01*
Y3440056D02*
X3225563Y3444221D01*
Y3452552D01*
X3229728Y3456717D01*
X3246390D01*
X3250555Y3452552D01*
Y3444221D01*
X3246390Y3440056D01*
X3229728D01*
X3254720Y3465048D02*
Y3481709D01*
X3229728Y3490039D02*
X3225563Y3494205D01*
Y3502535D01*
X3229728Y3506701D01*
X3233894D01*
X3238059Y3502535D01*
Y3498370D01*
Y3502535D01*
X3242224Y3506701D01*
X3246390D01*
X3250555Y3502535D01*
Y3494205D01*
X3246390Y3490039D01*
X3119925Y2815469D02*
X3094933D01*
Y2827965D01*
X3099099Y2832130D01*
X3107429D01*
X3111595Y2827965D01*
Y2815469D01*
Y2823799D02*
X3119925Y2832130D01*
Y2840461D02*
Y2848791D01*
Y2844626D01*
X3094933D01*
X3099099Y2840461D01*
X3124090Y2861287D02*
Y2877949D01*
X3099099Y2886279D02*
X3094933Y2890445D01*
Y2898775D01*
X3099099Y2902941D01*
X3103264D01*
X3107429Y2898775D01*
Y2894610D01*
Y2898775D01*
X3111595Y2902941D01*
X3115760D01*
X3119925Y2898775D01*
Y2890445D01*
X3115760Y2886279D01*
X3152693Y2925055D02*
Y2950047D01*
X3165189D01*
X3169355Y2945882D01*
Y2937552D01*
X3165189Y2933386D01*
X3152693D01*
X3161024D02*
X3169355Y2925055D01*
X3194347D02*
X3177685D01*
X3194347Y2941717D01*
Y2945882D01*
X3190181Y2950047D01*
X3181851D01*
X3177685Y2945882D01*
X3202677Y2920890D02*
X3219338D01*
X3227669Y2945882D02*
X3231834Y2950047D01*
X3240165D01*
X3244330Y2945882D01*
Y2941717D01*
X3240165Y2937552D01*
X3236000D01*
X3240165D01*
X3244330Y2933386D01*
Y2929221D01*
X3240165Y2925055D01*
X3231834D01*
X3227669Y2929221D01*
X2868693Y3362055D02*
Y3387047D01*
X2881189D01*
X2885355Y3382882D01*
Y3374552D01*
X2881189Y3370386D01*
X2868693D01*
X2877024D02*
X2885355Y3362055D01*
X2893685Y3382882D02*
X2897851Y3387047D01*
X2906181D01*
X2910347Y3382882D01*
Y3378717D01*
X2906181Y3374552D01*
X2902016D01*
X2906181D01*
X2910347Y3370386D01*
Y3366221D01*
X2906181Y3362055D01*
X2897851D01*
X2893685Y3366221D01*
X2918677Y3357890D02*
X2935338D01*
X2943669Y3382882D02*
X2947834Y3387047D01*
X2956165D01*
X2960330Y3382882D01*
Y3378717D01*
X2956165Y3374552D01*
X2952000D01*
X2956165D01*
X2960330Y3370386D01*
Y3366221D01*
X2956165Y3362055D01*
X2947834D01*
X2943669Y3366221D01*
X3188925Y2815469D02*
X3163933D01*
Y2827965D01*
X3168098Y2832130D01*
X3176429D01*
X3180594Y2827965D01*
Y2815469D01*
Y2823799D02*
X3188925Y2832130D01*
Y2852957D02*
X3163933D01*
X3176429Y2840461D01*
Y2857122D01*
X3193090Y2865453D02*
Y2882114D01*
X3168098Y2890445D02*
X3163933Y2894610D01*
Y2902941D01*
X3168098Y2907106D01*
X3172264D01*
X3176429Y2902941D01*
Y2898775D01*
Y2902941D01*
X3180594Y2907106D01*
X3184760D01*
X3188925Y2902941D01*
Y2894610D01*
X3184760Y2890445D01*
X3040693Y3362055D02*
Y3387047D01*
X3053189D01*
X3057355Y3382882D01*
Y3374552D01*
X3053189Y3370386D01*
X3040693D01*
X3049024D02*
X3057355Y3362055D01*
X3082347Y3387047D02*
X3065685D01*
Y3374552D01*
X3074016Y3378717D01*
X3078181D01*
X3082347Y3374552D01*
Y3366221D01*
X3078181Y3362055D01*
X3069851D01*
X3065685Y3366221D01*
X3090677Y3357890D02*
X3107338D01*
X3115669Y3382882D02*
X3119834Y3387047D01*
X3128165D01*
X3132330Y3382882D01*
Y3378717D01*
X3128165Y3374552D01*
X3124000D01*
X3128165D01*
X3132330Y3370386D01*
Y3366221D01*
X3128165Y3362055D01*
X3119834D01*
X3115669Y3366221D01*
X2620925Y3004650D02*
X2595933D01*
Y3017146D01*
X2600098Y3021311D01*
X2608429D01*
X2612594Y3017146D01*
Y3004650D01*
Y3012981D02*
X2620925Y3021311D01*
X2595933Y3046303D02*
X2600098Y3037973D01*
X2608429Y3029642D01*
X2616760D01*
X2620925Y3033807D01*
Y3042138D01*
X2616760Y3046303D01*
X2612594D01*
X2608429Y3042138D01*
Y3029642D01*
X2625090Y3054634D02*
Y3071295D01*
X2600098Y3079626D02*
X2595933Y3083791D01*
Y3092122D01*
X2600098Y3096287D01*
X2604264D01*
X2608429Y3092122D01*
Y3087956D01*
Y3092122D01*
X2612594Y3096287D01*
X2616760D01*
X2620925Y3092122D01*
Y3083791D01*
X2616760Y3079626D01*
X3155693Y3129055D02*
Y3154047D01*
X3168189D01*
X3172355Y3149882D01*
Y3141552D01*
X3168189Y3137386D01*
X3155693D01*
X3164024D02*
X3172355Y3129055D01*
X3180685Y3154047D02*
X3197347D01*
Y3149882D01*
X3180685Y3133221D01*
Y3129055D01*
X3205677Y3124890D02*
X3222338D01*
X3230669Y3149882D02*
X3234834Y3154047D01*
X3243165D01*
X3247330Y3149882D01*
Y3145717D01*
X3243165Y3141552D01*
X3239000D01*
X3243165D01*
X3247330Y3137386D01*
Y3133221D01*
X3243165Y3129055D01*
X3234834D01*
X3230669Y3133221D01*
X2909185Y2815469D02*
X2884193D01*
Y2827965D01*
X2888358Y2832130D01*
X2896689D01*
X2900854Y2827965D01*
Y2815469D01*
Y2823799D02*
X2909185Y2832130D01*
Y2840461D02*
Y2848791D01*
Y2844626D01*
X2884193D01*
X2888358Y2840461D01*
X2909185Y2873783D02*
X2884193D01*
X2896689Y2861287D01*
Y2877949D01*
X2913350Y2886279D02*
Y2902941D01*
X2888358Y2911271D02*
X2884193Y2915436D01*
Y2923767D01*
X2888358Y2927932D01*
X2892523D01*
X2896689Y2923767D01*
Y2919602D01*
Y2923767D01*
X2900854Y2927932D01*
X2905019D01*
X2909185Y2923767D01*
Y2915436D01*
X2905019Y2911271D01*
X2980185Y2815469D02*
X2955193D01*
Y2827965D01*
X2959358Y2832130D01*
X2967689D01*
X2971854Y2827965D01*
Y2815469D01*
Y2823799D02*
X2980185Y2832130D01*
Y2840461D02*
Y2848791D01*
Y2844626D01*
X2955193D01*
X2959358Y2840461D01*
X2955193Y2877949D02*
Y2861287D01*
X2967689D01*
X2963523Y2869618D01*
Y2873783D01*
X2967689Y2877949D01*
X2976019D01*
X2980185Y2873783D01*
Y2865453D01*
X2976019Y2861287D01*
X2984350Y2886279D02*
Y2902941D01*
X2959358Y2911271D02*
X2955193Y2915436D01*
Y2923767D01*
X2959358Y2927932D01*
X2963523D01*
X2967689Y2923767D01*
Y2919602D01*
Y2923767D01*
X2971854Y2927932D01*
X2976019D01*
X2980185Y2923767D01*
Y2915436D01*
X2976019Y2911271D01*
X3050980Y2815469D02*
X3025988D01*
Y2827965D01*
X3030153Y2832130D01*
X3038484D01*
X3042649Y2827965D01*
Y2815469D01*
Y2823800D02*
X3050980Y2832130D01*
Y2840461D02*
Y2848791D01*
Y2844626D01*
X3025988D01*
X3030153Y2840461D01*
X3025988Y2877949D02*
X3030153Y2869618D01*
X3038484Y2861287D01*
X3046815D01*
X3050980Y2865453D01*
Y2873783D01*
X3046815Y2877949D01*
X3042649D01*
X3038484Y2873783D01*
Y2861287D01*
X3055145Y2886279D02*
Y2902941D01*
X3030153Y2911271D02*
X3025988Y2915436D01*
Y2923767D01*
X3030153Y2927932D01*
X3034319D01*
X3038484Y2923767D01*
Y2919602D01*
Y2923767D01*
X3042649Y2927932D01*
X3046815D01*
X3050980Y2923767D01*
Y2915436D01*
X3046815Y2911271D01*
X2742098Y2559311D02*
X2737933Y2555146D01*
Y2546816D01*
X2742098Y2542650D01*
X2746264D01*
X2750429Y2546816D01*
Y2555146D01*
X2754594Y2559311D01*
X2758760D01*
X2762925Y2555146D01*
Y2546816D01*
X2758760Y2542650D01*
X2762925Y2584303D02*
Y2567642D01*
X2746264Y2584303D01*
X2742098D01*
X2737933Y2580138D01*
Y2571807D01*
X2742098Y2567642D01*
X2767090Y2592634D02*
Y2609295D01*
X2742098Y2617626D02*
X2737933Y2621791D01*
Y2630122D01*
X2742098Y2634287D01*
X2746264D01*
X2750429Y2630122D01*
Y2625956D01*
Y2630122D01*
X2754594Y2634287D01*
X2758760D01*
X2762925Y2630122D01*
Y2621791D01*
X2758760Y2617626D01*
X2746776Y3173047D02*
Y3152221D01*
X2750941Y3148055D01*
X2759272D01*
X2763437Y3152221D01*
Y3173047D01*
X2771768Y3148055D02*
X2780099D01*
X2775933D01*
Y3173047D01*
X2771768Y3168882D01*
X2792595Y3143890D02*
X2809256D01*
X2817586Y3168882D02*
X2821752Y3173047D01*
X2830082D01*
X2834248Y3168882D01*
Y3164717D01*
X2830082Y3160552D01*
X2825917D01*
X2830082D01*
X2834248Y3156386D01*
Y3152221D01*
X2830082Y3148055D01*
X2821752D01*
X2817586Y3152221D01*
X1893098Y3030394D02*
X1888933Y3026229D01*
Y3017898D01*
X1893098Y3013733D01*
X1909760D01*
X1913925Y3017898D01*
Y3026229D01*
X1909760Y3030394D01*
X1913925Y3038725D02*
Y3047055D01*
Y3042890D01*
X1888933D01*
X1893098Y3038725D01*
X1918090Y3059552D02*
Y3076213D01*
X1913925Y3084543D02*
Y3092874D01*
Y3088709D01*
X1888933D01*
X1893098Y3084543D01*
X1767355Y2887882D02*
X1763189Y2892047D01*
X1754859D01*
X1750693Y2887882D01*
Y2871221D01*
X1754859Y2867055D01*
X1763189D01*
X1767355Y2871221D01*
X1792347Y2867055D02*
X1775685D01*
X1792347Y2883717D01*
Y2887882D01*
X1788181Y2892047D01*
X1779851D01*
X1775685Y2887882D01*
X1800677Y2862890D02*
X1817338D01*
X1825669Y2867055D02*
X1834000D01*
X1829834D01*
Y2892047D01*
X1825669Y2887882D01*
X1904098Y2834130D02*
X1899933Y2829965D01*
Y2821634D01*
X1904098Y2817469D01*
X1920760D01*
X1924925Y2821634D01*
Y2829965D01*
X1920760Y2834130D01*
X1904098Y2842461D02*
X1899933Y2846626D01*
Y2854957D01*
X1904098Y2859122D01*
X1908264D01*
X1912429Y2854957D01*
Y2850791D01*
Y2854957D01*
X1916594Y2859122D01*
X1920760D01*
X1924925Y2854957D01*
Y2846626D01*
X1920760Y2842461D01*
X1929090Y2867452D02*
Y2884114D01*
X1924925Y2892444D02*
Y2900775D01*
Y2896610D01*
X1899933D01*
X1904098Y2892444D01*
X2231728Y3423312D02*
X2227563Y3419146D01*
Y3410816D01*
X2231728Y3406650D01*
X2248390D01*
X2252555Y3410816D01*
Y3419146D01*
X2248390Y3423312D01*
X2252555Y3444138D02*
X2227563D01*
X2240059Y3431642D01*
Y3448303D01*
X2256720Y3456634D02*
Y3473295D01*
X2252555Y3481626D02*
Y3489957D01*
Y3485791D01*
X2227563D01*
X2231728Y3481626D01*
X1688254Y3420312D02*
X1684089Y3416146D01*
Y3407816D01*
X1688254Y3403650D01*
X1704916D01*
X1709081Y3407816D01*
Y3416146D01*
X1704916Y3420312D01*
X1684089Y3445303D02*
Y3428642D01*
X1696585D01*
X1692419Y3436973D01*
Y3441138D01*
X1696585Y3445303D01*
X1704916D01*
X1709081Y3441138D01*
Y3432807D01*
X1704916Y3428642D01*
X1713246Y3453634D02*
Y3470295D01*
X1709081Y3478626D02*
Y3486957D01*
Y3482791D01*
X1684089D01*
X1688254Y3478626D01*
X1763254Y3420312D02*
X1759089Y3416146D01*
Y3407816D01*
X1763254Y3403650D01*
X1779916D01*
X1784081Y3407816D01*
Y3416146D01*
X1779916Y3420312D01*
X1759089Y3445303D02*
X1763254Y3436973D01*
X1771585Y3428642D01*
X1779916D01*
X1784081Y3432807D01*
Y3441138D01*
X1779916Y3445303D01*
X1775750D01*
X1771585Y3441138D01*
Y3428642D01*
X1788246Y3453634D02*
Y3470295D01*
X1784081Y3478626D02*
Y3486957D01*
Y3482791D01*
X1759089D01*
X1763254Y3478626D01*
X2160099Y3423312D02*
X2155933Y3419146D01*
Y3410816D01*
X2160099Y3406650D01*
X2176760D01*
X2180925Y3410816D01*
Y3419146D01*
X2176760Y3423312D01*
X2155933Y3431642D02*
Y3448303D01*
X2160099D01*
X2176760Y3431642D01*
X2180925D01*
X2185090Y3456634D02*
Y3473295D01*
X2180925Y3481626D02*
Y3489957D01*
Y3485791D01*
X2155933D01*
X2160099Y3481626D01*
X1939099Y3420312D02*
X1934933Y3416146D01*
Y3407816D01*
X1939099Y3403650D01*
X1955760D01*
X1959925Y3407816D01*
Y3416146D01*
X1955760Y3420312D01*
X1939099Y3428642D02*
X1934933Y3432807D01*
Y3441138D01*
X1939099Y3445303D01*
X1943264D01*
X1947429Y3441138D01*
X1951594Y3445303D01*
X1955760D01*
X1959925Y3441138D01*
Y3432807D01*
X1955760Y3428642D01*
X1951594D01*
X1947429Y3432807D01*
X1943264Y3428642D01*
X1939099D01*
X1947429Y3432807D02*
Y3441138D01*
X1964090Y3453634D02*
Y3470295D01*
X1959925Y3478626D02*
Y3486957D01*
Y3482791D01*
X1934933D01*
X1939099Y3478626D01*
X1848711Y3420312D02*
X1844546Y3416146D01*
Y3407816D01*
X1848711Y3403650D01*
X1865372D01*
X1869537Y3407816D01*
Y3416146D01*
X1865372Y3420312D01*
Y3428642D02*
X1869537Y3432807D01*
Y3441138D01*
X1865372Y3445303D01*
X1848711D01*
X1844546Y3441138D01*
Y3432807D01*
X1848711Y3428642D01*
X1852876D01*
X1857042Y3432807D01*
Y3445303D01*
X1873703Y3453634D02*
Y3470295D01*
X1869537Y3478626D02*
Y3486957D01*
Y3482791D01*
X1844546D01*
X1848711Y3478626D01*
X2313728Y3412898D02*
X2309563Y3408733D01*
Y3400402D01*
X2313728Y3396237D01*
X2330390D01*
X2334555Y3400402D01*
Y3408733D01*
X2330390Y3412898D01*
X2334555Y3421229D02*
Y3429559D01*
Y3425394D01*
X2309563D01*
X2313728Y3421229D01*
Y3442055D02*
X2309563Y3446221D01*
Y3454551D01*
X2313728Y3458717D01*
X2330390D01*
X2334555Y3454551D01*
Y3446221D01*
X2330390Y3442055D01*
X2313728D01*
X2338720Y3467047D02*
Y3483709D01*
X2334555Y3492039D02*
Y3500370D01*
Y3496204D01*
X2309563D01*
X2313728Y3492039D01*
X2203925Y2817469D02*
X2178933D01*
Y2829965D01*
X2183098Y2834130D01*
X2191429D01*
X2195594Y2829965D01*
Y2817469D01*
Y2825799D02*
X2203925Y2834130D01*
Y2842461D02*
Y2850791D01*
Y2846626D01*
X2178933D01*
X2183098Y2842461D01*
X2208090Y2863287D02*
Y2879949D01*
X2203925Y2888279D02*
Y2896610D01*
Y2892445D01*
X2178933D01*
X2183098Y2888279D01*
X2236693Y2927055D02*
Y2952047D01*
X2249189D01*
X2253355Y2947882D01*
Y2939552D01*
X2249189Y2935386D01*
X2236693D01*
X2245024D02*
X2253355Y2927055D01*
X2278347D02*
X2261685D01*
X2278347Y2943717D01*
Y2947882D01*
X2274181Y2952047D01*
X2265851D01*
X2261685Y2947882D01*
X2286677Y2922890D02*
X2303338D01*
X2311669Y2927055D02*
X2320000D01*
X2315834D01*
Y2952047D01*
X2311669Y2947882D01*
X1952693Y3364055D02*
Y3389047D01*
X1965189D01*
X1969355Y3384882D01*
Y3376552D01*
X1965189Y3372386D01*
X1952693D01*
X1961024D02*
X1969355Y3364055D01*
X1977685Y3384882D02*
X1981851Y3389047D01*
X1990181D01*
X1994347Y3384882D01*
Y3380717D01*
X1990181Y3376552D01*
X1986016D01*
X1990181D01*
X1994347Y3372386D01*
Y3368221D01*
X1990181Y3364055D01*
X1981851D01*
X1977685Y3368221D01*
X2002677Y3359890D02*
X2019338D01*
X2027669Y3364055D02*
X2036000D01*
X2031834D01*
Y3389047D01*
X2027669Y3384882D01*
X2272925Y2817469D02*
X2247933D01*
Y2829965D01*
X2252098Y2834130D01*
X2260429D01*
X2264594Y2829965D01*
Y2817469D01*
Y2825799D02*
X2272925Y2834130D01*
Y2854957D02*
X2247933D01*
X2260429Y2842461D01*
Y2859122D01*
X2277090Y2867452D02*
Y2884114D01*
X2272925Y2892444D02*
Y2900775D01*
Y2896610D01*
X2247933D01*
X2252098Y2892444D01*
X1704925Y3006650D02*
X1679933D01*
Y3019146D01*
X1684099Y3023312D01*
X1692429D01*
X1696594Y3019146D01*
Y3006650D01*
Y3014981D02*
X1704925Y3023312D01*
X1679933Y3048303D02*
X1684099Y3039973D01*
X1692429Y3031642D01*
X1700760D01*
X1704925Y3035807D01*
Y3044138D01*
X1700760Y3048303D01*
X1696594D01*
X1692429Y3044138D01*
Y3031642D01*
X1709090Y3056634D02*
Y3073295D01*
X1704925Y3081626D02*
Y3089957D01*
Y3085791D01*
X1679933D01*
X1684099Y3081626D01*
X2239693Y3131055D02*
Y3156047D01*
X2252189D01*
X2256355Y3151882D01*
Y3143552D01*
X2252189Y3139386D01*
X2239693D01*
X2248024D02*
X2256355Y3131055D01*
X2264685Y3156047D02*
X2281347D01*
Y3151882D01*
X2264685Y3135221D01*
Y3131055D01*
X2289677Y3126890D02*
X2306338D01*
X2314669Y3131055D02*
X2323000D01*
X2318834D01*
Y3156047D01*
X2314669Y3151882D01*
X1993185Y2817469D02*
X1968193D01*
Y2829965D01*
X1972358Y2834130D01*
X1980689D01*
X1984854Y2829965D01*
Y2817469D01*
Y2825799D02*
X1993185Y2834130D01*
Y2842461D02*
Y2850791D01*
Y2846626D01*
X1968193D01*
X1972358Y2842461D01*
X1993185Y2875783D02*
X1968193D01*
X1980689Y2863287D01*
Y2879948D01*
X1997350Y2888279D02*
Y2904940D01*
X1993185Y2913271D02*
Y2921602D01*
Y2917436D01*
X1968193D01*
X1972358Y2913271D01*
X2064185Y2817469D02*
X2039193D01*
Y2829965D01*
X2043358Y2834130D01*
X2051689D01*
X2055854Y2829965D01*
Y2817469D01*
Y2825799D02*
X2064185Y2834130D01*
Y2842461D02*
Y2850791D01*
Y2846626D01*
X2039193D01*
X2043358Y2842461D01*
X2039193Y2879948D02*
Y2863287D01*
X2051689D01*
X2047524Y2871618D01*
Y2875783D01*
X2051689Y2879948D01*
X2060019D01*
X2064185Y2875783D01*
Y2867452D01*
X2060019Y2863287D01*
X2068350Y2888279D02*
Y2904940D01*
X2064185Y2913271D02*
Y2921602D01*
Y2917436D01*
X2039193D01*
X2043358Y2913271D01*
X2134980Y2817469D02*
X2109988D01*
Y2829965D01*
X2114153Y2834130D01*
X2122484D01*
X2126649Y2829965D01*
Y2817469D01*
Y2825799D02*
X2134980Y2834130D01*
Y2842461D02*
Y2850791D01*
Y2846626D01*
X2109988D01*
X2114153Y2842461D01*
X2109988Y2879948D02*
X2114153Y2871618D01*
X2122484Y2863287D01*
X2130815D01*
X2134980Y2867452D01*
Y2875783D01*
X2130815Y2879948D01*
X2126649D01*
X2122484Y2875783D01*
Y2863287D01*
X2139145Y2888279D02*
Y2904940D01*
X2134980Y2913271D02*
Y2921602D01*
Y2917436D01*
X2109988D01*
X2114153Y2913271D01*
X553504Y2704508D02*
X578496D01*
Y2717004D01*
X574331Y2721169D01*
X557669D01*
X553504Y2717004D01*
Y2704508D01*
X578496Y2729500D02*
Y2737830D01*
Y2733665D01*
X553504D01*
X557669Y2729500D01*
X669716Y2699343D02*
X644724D01*
Y2711838D01*
X648890Y2716004D01*
X657220D01*
X661386Y2711838D01*
Y2699343D01*
Y2707673D02*
X669716Y2716004D01*
X648890Y2724334D02*
X644724Y2728500D01*
Y2736830D01*
X648890Y2740996D01*
X653055D01*
X657220Y2736830D01*
X661386Y2740996D01*
X665551D01*
X669716Y2736830D01*
Y2728500D01*
X665551Y2724334D01*
X661386D01*
X657220Y2728500D01*
X653055Y2724334D01*
X648890D01*
X657220Y2728500D02*
Y2736830D01*
X3662661Y1896331D02*
X3658496Y1900496D01*
X3650165D01*
X3646000Y1896331D01*
Y1879669D01*
X3650165Y1875504D01*
X3658496D01*
X3662661Y1879669D01*
X3670992Y1875504D02*
X3679323D01*
X3675157D01*
Y1900496D01*
X3670992Y1896331D01*
X3691818Y1875504D02*
X3700149D01*
X3695984D01*
Y1900496D01*
X3691818Y1896331D01*
X3662661Y1848331D02*
X3658496Y1852496D01*
X3650165D01*
X3646000Y1848331D01*
Y1831669D01*
X3650165Y1827504D01*
X3658496D01*
X3662661Y1831669D01*
X3670992Y1827504D02*
X3679323D01*
X3675157D01*
Y1852496D01*
X3670992Y1848331D01*
X3708480Y1827504D02*
X3691818D01*
X3708480Y1844165D01*
Y1848331D01*
X3704314Y1852496D01*
X3695984D01*
X3691818Y1848331D01*
X3662661Y1759331D02*
X3658496Y1763496D01*
X3650165D01*
X3646000Y1759331D01*
Y1742669D01*
X3650165Y1738504D01*
X3658496D01*
X3662661Y1742669D01*
X3670992Y1738504D02*
X3679323D01*
X3675157D01*
Y1763496D01*
X3670992Y1759331D01*
X3691818D02*
X3695984Y1763496D01*
X3704314D01*
X3708480Y1759331D01*
Y1755165D01*
X3704314Y1751000D01*
X3700149D01*
X3704314D01*
X3708480Y1746835D01*
Y1742669D01*
X3704314Y1738504D01*
X3695984D01*
X3691818Y1742669D01*
X3521220Y100976D02*
X3517055Y96811D01*
Y88480D01*
X3521220Y84315D01*
X3537882D01*
X3542047Y88480D01*
Y96811D01*
X3537882Y100976D01*
X3542047Y109307D02*
Y117638D01*
Y113472D01*
X3517055D01*
X3521220Y109307D01*
X3517055Y146795D02*
Y130134D01*
X3529551D01*
X3525386Y138464D01*
Y142630D01*
X3529551Y146795D01*
X3537882D01*
X3542047Y142630D01*
Y134299D01*
X3537882Y130134D01*
X3711488Y22661D02*
X3707323Y18496D01*
Y10165D01*
X3711488Y6000D01*
X3728149D01*
X3732315Y10165D01*
Y18496D01*
X3728149Y22661D01*
X3732315Y30992D02*
Y39323D01*
Y35157D01*
X3707323D01*
X3711488Y30992D01*
X3707323Y68480D02*
X3711488Y60149D01*
X3719819Y51819D01*
X3728149D01*
X3732315Y55984D01*
Y64315D01*
X3728149Y68480D01*
X3723984D01*
X3719819Y64315D01*
Y51819D01*
X3633669Y22661D02*
X3629504Y18496D01*
Y10165D01*
X3633669Y6000D01*
X3650331D01*
X3654496Y10165D01*
Y18496D01*
X3650331Y22661D01*
X3654496Y30992D02*
Y39322D01*
Y35157D01*
X3629504D01*
X3633669Y30992D01*
X3629504Y51819D02*
Y68480D01*
X3633669D01*
X3650331Y51819D01*
X3654496D01*
X3794598Y22661D02*
X3790433Y18496D01*
Y10165D01*
X3794598Y6000D01*
X3811260D01*
X3815425Y10165D01*
Y18496D01*
X3811260Y22661D01*
X3815425Y30992D02*
Y39323D01*
Y35157D01*
X3790433D01*
X3794598Y30992D01*
Y51819D02*
X3790433Y55984D01*
Y64315D01*
X3794598Y68480D01*
X3798764D01*
X3802929Y64315D01*
X3807094Y68480D01*
X3811260D01*
X3815425Y64315D01*
Y55984D01*
X3811260Y51819D01*
X3807094D01*
X3802929Y55984D01*
X3798764Y51819D01*
X3794598D01*
X3802929Y55984D02*
Y64315D01*
X3500421Y1679331D02*
X3496256Y1683496D01*
X3487925D01*
X3483760Y1679331D01*
Y1662669D01*
X3487925Y1658504D01*
X3496256D01*
X3500421Y1662669D01*
X3508752Y1658504D02*
X3517083D01*
X3512917D01*
Y1683496D01*
X3508752Y1679331D01*
X3529579Y1662669D02*
X3533744Y1658504D01*
X3542075D01*
X3546240Y1662669D01*
Y1679331D01*
X3542075Y1683496D01*
X3533744D01*
X3529579Y1679331D01*
Y1675165D01*
X3533744Y1671000D01*
X3546240D01*
X2791488Y350137D02*
X2808150D01*
X2812315Y354303D01*
Y362634D01*
X2808150Y366799D01*
X2791488D01*
X2787323Y362634D01*
Y354303D01*
X2795654Y358468D02*
X2787323Y350137D01*
Y354303D02*
X2791488Y350137D01*
X2787323Y341807D02*
Y333476D01*
Y337642D01*
X2812315D01*
X2808150Y341807D01*
X3802173Y2294504D02*
Y2319496D01*
X3814669D01*
X3818835Y2315331D01*
Y2307000D01*
X3814669Y2302835D01*
X3802173D01*
X3810504D02*
X3818835Y2294504D01*
X3827165Y2298669D02*
X3831331Y2294504D01*
X3839661D01*
X3843827Y2298669D01*
Y2315331D01*
X3839661Y2319496D01*
X3831331D01*
X3827165Y2315331D01*
Y2311165D01*
X3831331Y2307000D01*
X3843827D01*
X3483760Y1583504D02*
Y1608496D01*
X3496256D01*
X3500421Y1604331D01*
Y1596000D01*
X3496256Y1591835D01*
X3483760D01*
X3492091D02*
X3500421Y1583504D01*
X3508752D02*
X3517083D01*
X3512917D01*
Y1608496D01*
X3508752Y1604331D01*
X3529579D02*
X3533744Y1608496D01*
X3542075D01*
X3546240Y1604331D01*
Y1587669D01*
X3542075Y1583504D01*
X3533744D01*
X3529579Y1587669D01*
Y1604331D01*
X2989744Y168642D02*
Y193633D01*
X3002240D01*
X3006406Y189468D01*
Y181138D01*
X3002240Y176972D01*
X2989744D01*
X2998075D02*
X3006406Y168642D01*
X3014736D02*
X3023067D01*
X3018902D01*
Y193633D01*
X3014736Y189468D01*
X3035563Y168642D02*
X3043894D01*
X3039728D01*
Y193633D01*
X3035563Y189468D01*
X2993579Y385642D02*
Y410634D01*
X3006075D01*
X3010240Y406468D01*
Y398138D01*
X3006075Y393972D01*
X2993579D01*
X3001910D02*
X3010240Y385642D01*
X3018571D02*
X3026901D01*
X3022736D01*
Y410634D01*
X3018571Y406468D01*
X3056059Y385642D02*
X3039398D01*
X3056059Y402303D01*
Y406468D01*
X3051894Y410634D01*
X3043563D01*
X3039398Y406468D01*
X3778496Y551760D02*
X3753504D01*
Y564256D01*
X3757669Y568422D01*
X3766000D01*
X3770165Y564256D01*
Y551760D01*
Y560091D02*
X3778496Y568422D01*
Y576752D02*
Y585083D01*
Y580917D01*
X3753504D01*
X3757669Y576752D01*
Y597579D02*
X3753504Y601744D01*
Y610075D01*
X3757669Y614240D01*
X3761834D01*
X3766000Y610075D01*
Y605909D01*
Y610075D01*
X3770165Y614240D01*
X3774331D01*
X3778496Y610075D01*
Y601744D01*
X3774331Y597579D01*
X619661Y982321D02*
X615496Y986486D01*
X607165D01*
X603000Y982321D01*
Y965660D01*
X607165Y961494D01*
X615496D01*
X619661Y965660D01*
X644653Y961494D02*
X627992D01*
X644653Y978156D01*
Y982321D01*
X640488Y986486D01*
X632157D01*
X627992Y982321D01*
X652984D02*
X657149Y986486D01*
X665480D01*
X669645Y982321D01*
Y965660D01*
X665480Y961494D01*
X657149D01*
X652984Y965660D01*
Y982321D01*
X619661Y919331D02*
X615496Y923496D01*
X607165D01*
X603000Y919331D01*
Y902669D01*
X607165Y898504D01*
X615496D01*
X619661Y902669D01*
X644653Y898504D02*
X627992D01*
X644653Y915165D01*
Y919331D01*
X640488Y923496D01*
X632157D01*
X627992Y919331D01*
X652984Y898504D02*
X661314D01*
X657149D01*
Y923496D01*
X652984Y919331D01*
X619661Y1105598D02*
X615496Y1109764D01*
X607165D01*
X603000Y1105598D01*
Y1088937D01*
X607165Y1084772D01*
X615496D01*
X619661Y1088937D01*
X644653Y1084772D02*
X627992D01*
X644653Y1101433D01*
Y1105598D01*
X640488Y1109764D01*
X632157D01*
X627992Y1105598D01*
X669645Y1084772D02*
X652984D01*
X669645Y1101433D01*
Y1105598D01*
X665480Y1109764D01*
X657149D01*
X652984Y1105598D01*
X619661Y1041331D02*
X615496Y1045496D01*
X607165D01*
X603000Y1041331D01*
Y1024669D01*
X607165Y1020504D01*
X615496D01*
X619661Y1024669D01*
X644653Y1020504D02*
X627992D01*
X644653Y1037165D01*
Y1041331D01*
X640488Y1045496D01*
X632157D01*
X627992Y1041331D01*
X652984D02*
X657149Y1045496D01*
X665480D01*
X669645Y1041331D01*
Y1037165D01*
X665480Y1033000D01*
X661314D01*
X665480D01*
X669645Y1028835D01*
Y1024669D01*
X665480Y1020504D01*
X657149D01*
X652984Y1024669D01*
X603000Y1172102D02*
Y1147110D01*
X615496D01*
X619661Y1151276D01*
Y1167937D01*
X615496Y1172102D01*
X603000D01*
X644653Y1147110D02*
X627992D01*
X644653Y1163772D01*
Y1167937D01*
X640488Y1172102D01*
X632157D01*
X627992Y1167937D01*
D47*
X161559Y476016D02*
X227701D01*
X13134D02*
X69433D01*
X161559Y827984D02*
X227701D01*
X13134D02*
X69433D01*
X13134Y476016D02*
Y827984D01*
D48*
X182362Y1163000D02*
Y1184732D01*
Y901268D02*
Y923000D01*
Y901268D02*
X204685D01*
X489685D02*
X517008D01*
Y928000D01*
Y1153000D02*
Y1184732D01*
X484685D02*
X517008D01*
X182362D02*
X289685D01*
X3454795Y1934756D02*
X3919362D01*
Y2135543D02*
Y2182787D01*
X3454795D02*
X3919362D01*
X3454795Y2135543D02*
Y2182787D01*
X4177701Y758496D02*
Y1467158D01*
X3934000D02*
X4177701D01*
X4118646Y758496D02*
X4177701D01*
X3183606D02*
Y817551D01*
Y1404165D02*
Y1467158D01*
Y758496D02*
X3203291D01*
X3183606Y1467158D02*
X3203291D01*
X535221Y3409000D02*
X585221D01*
Y3364000D02*
Y3409000D01*
Y3024000D02*
Y3064000D01*
X540221Y3024000D02*
X585221D01*
X25221D02*
X85221D01*
X25221D02*
Y3404000D01*
X80221D01*
X1871803Y2269099D02*
Y2308469D01*
Y2269099D02*
X1902512D01*
X2202512D02*
X2233220D01*
Y2308469D01*
Y2608469D02*
Y2647839D01*
X2202512D02*
X2233220D01*
X1871803Y2608469D02*
Y2647839D01*
X1992512D01*
X1967087Y2962044D02*
Y2978894D01*
Y2962044D02*
X1983937D01*
X2147087D02*
X2163937D01*
Y2978894D01*
Y3142044D02*
Y3158894D01*
X2147087D02*
X2163937D01*
X1967087Y3142044D02*
Y3158894D01*
X1983937D01*
X1942087Y3142044D02*
X1967087D01*
X970291Y2648308D02*
X1091000D01*
X970291Y2608938D02*
Y2648308D01*
X1301000D02*
X1331709D01*
Y2608938D02*
Y2648308D01*
Y2269568D02*
Y2308938D01*
X1301000Y2269568D02*
X1331709D01*
X970291D02*
X1001000D01*
X970291D02*
Y2308938D01*
X1040575Y3142512D02*
X1065575D01*
Y3159363D02*
X1082425D01*
X1065575Y3142512D02*
Y3159363D01*
X1245575D02*
X1262425D01*
Y3142512D02*
Y3159363D01*
Y2962512D02*
Y2979363D01*
X1245575Y2962512D02*
X1262425D01*
X1065575D02*
X1082425D01*
X1065575D02*
Y2979363D01*
X2787803Y2267099D02*
Y2306469D01*
Y2267099D02*
X2818512D01*
X3118512D02*
X3149220D01*
Y2306469D01*
Y2606469D02*
Y2645839D01*
X3118512D02*
X3149220D01*
X2787803Y2606469D02*
Y2645839D01*
X2908512D01*
X2883087Y2960044D02*
Y2976894D01*
Y2960044D02*
X2899937D01*
X3063087D02*
X3079937D01*
Y2976894D01*
Y3140044D02*
Y3156894D01*
X3063087D02*
X3079937D01*
X2883087Y3140044D02*
Y3156894D01*
X2899937D01*
X2858087Y3140044D02*
X2883087D01*
X986198Y3552081D02*
Y3612062D01*
X1006192Y3592068D01*
X1026186Y3612062D01*
Y3552081D01*
X1076169Y3612062D02*
X1056176D01*
X1046179Y3602065D01*
Y3562078D01*
X1056176Y3552081D01*
X1076169D01*
X1086166Y3562078D01*
Y3602065D01*
X1076169Y3612062D01*
X1106160D02*
X1146147D01*
X1126153D01*
Y3552081D01*
X1196130Y3612062D02*
X1176137D01*
X1166140Y3602065D01*
Y3562078D01*
X1176137Y3552081D01*
X1196130D01*
X1206127Y3562078D01*
Y3602065D01*
X1196130Y3612062D01*
X1226121Y3552081D02*
Y3612062D01*
X1256111D01*
X1266108Y3602065D01*
Y3582071D01*
X1256111Y3572075D01*
X1226121D01*
X1246114D02*
X1266108Y3552081D01*
X1346082Y3612062D02*
Y3602065D01*
X1366075Y3582071D01*
X1386069Y3602065D01*
Y3612062D01*
X1366075Y3582071D02*
Y3552081D01*
X836150D02*
Y3612062D01*
X866140D01*
X876137Y3602065D01*
Y3582071D01*
X866140Y3572075D01*
X836150D01*
X896130Y3602065D02*
X906127Y3612062D01*
X926121D01*
X936118Y3602065D01*
Y3592068D01*
X926121Y3582071D01*
X916124D01*
X926121D01*
X936118Y3572075D01*
Y3562078D01*
X926121Y3552081D01*
X906127D01*
X896130Y3562078D01*
X438990Y480024D02*
X379010D01*
Y510015D01*
X389007Y520011D01*
X409000D01*
X418997Y510015D01*
Y480024D01*
X438990Y540005D02*
Y559998D01*
Y550002D01*
X379010D01*
X389007Y540005D01*
Y589989D02*
X379010Y599986D01*
Y619979D01*
X389007Y629976D01*
X428993D01*
X438990Y619979D01*
Y599986D01*
X428993Y589989D01*
X389007D01*
X2724000Y1571000D02*
Y1630981D01*
X2753990D01*
X2763987Y1620984D01*
Y1600990D01*
X2753990Y1590994D01*
X2724000D01*
X2823968Y1630981D02*
X2803974Y1620984D01*
X2783981Y1600990D01*
Y1580997D01*
X2793977Y1571000D01*
X2813971D01*
X2823968Y1580997D01*
Y1590994D01*
X2813971Y1600990D01*
X2783981D01*
X1505000Y1581000D02*
Y1640981D01*
X1534990D01*
X1544987Y1630984D01*
Y1610990D01*
X1534990Y1600994D01*
X1505000D01*
X1564981Y1590997D02*
X1574977Y1581000D01*
X1594971D01*
X1604968Y1590997D01*
Y1630984D01*
X1594971Y1640981D01*
X1574977D01*
X1564981Y1630984D01*
Y1620987D01*
X1574977Y1610990D01*
X1604968D01*
X1624961Y1571003D02*
X1664948D01*
X1724929Y1581000D02*
X1684942D01*
X1724929Y1620987D01*
Y1630984D01*
X1714932Y1640981D01*
X1694939D01*
X1684942Y1630984D01*
X33013Y3463010D02*
Y3522990D01*
X63003D01*
X73000Y3512994D01*
Y3493000D01*
X63003Y3483003D01*
X33013D01*
X92994Y3463010D02*
X112987D01*
X102990D01*
Y3522990D01*
X92994Y3512994D01*
X2808151Y3549612D02*
Y3609593D01*
X2828145Y3589599D01*
X2848138Y3609593D01*
Y3549612D01*
X2898122Y3609593D02*
X2878129D01*
X2868132Y3599596D01*
Y3559609D01*
X2878129Y3549612D01*
X2898122D01*
X2908119Y3559609D01*
Y3599596D01*
X2898122Y3609593D01*
X2928113D02*
X2968100D01*
X2948106D01*
Y3549612D01*
X3018083Y3609593D02*
X2998090D01*
X2988093Y3599596D01*
Y3559609D01*
X2998090Y3549612D01*
X3018083D01*
X3028080Y3559609D01*
Y3599596D01*
X3018083Y3609593D01*
X3048074Y3549612D02*
Y3609593D01*
X3078064D01*
X3088061Y3599596D01*
Y3579602D01*
X3078064Y3569606D01*
X3048074D01*
X3068067D02*
X3088061Y3549612D01*
X3168035Y3609593D02*
X3208022D01*
Y3599596D01*
X3168035Y3559609D01*
Y3549612D01*
X3208022D01*
X2665158D02*
Y3609593D01*
X2695148D01*
X2705145Y3599596D01*
Y3579602D01*
X2695148Y3569606D01*
X2665158D01*
X2765126Y3549612D02*
X2725139D01*
X2765126Y3589599D01*
Y3599596D01*
X2755129Y3609593D01*
X2735135D01*
X2725139Y3599596D01*
X1878065Y3551010D02*
Y3610990D01*
X1898058Y3590997D01*
X1918052Y3610990D01*
Y3551010D01*
X1968036Y3610990D02*
X1948042D01*
X1938045Y3600994D01*
Y3561006D01*
X1948042Y3551010D01*
X1968036D01*
X1978032Y3561006D01*
Y3600994D01*
X1968036Y3610990D01*
X1998026D02*
X2038013D01*
X2018019D01*
Y3551010D01*
X2087997Y3610990D02*
X2068003D01*
X2058006Y3600994D01*
Y3561006D01*
X2068003Y3551010D01*
X2087997D01*
X2097994Y3561006D01*
Y3600994D01*
X2087997Y3610990D01*
X2117987Y3551010D02*
Y3610990D01*
X2147977D01*
X2157974Y3600994D01*
Y3581000D01*
X2147977Y3571003D01*
X2117987D01*
X2137981D02*
X2157974Y3551010D01*
X2237948Y3610990D02*
Y3551010D01*
X2257942Y3571003D01*
X2277935Y3551010D01*
Y3610990D01*
X1726016Y3549010D02*
Y3608990D01*
X1756006D01*
X1766003Y3598994D01*
Y3579000D01*
X1756006Y3569003D01*
X1726016D01*
X1815987Y3549010D02*
Y3608990D01*
X1785997Y3579000D01*
X1825984D01*
X908000Y1571000D02*
Y1630981D01*
X937990D01*
X947987Y1620984D01*
Y1600990D01*
X937990Y1590994D01*
X908000D01*
X967981Y1630981D02*
X1007968D01*
Y1620984D01*
X967981Y1580997D01*
Y1571000D01*
X3188001Y495010D02*
Y554990D01*
X3217991D01*
X3227988Y544994D01*
Y525000D01*
X3217991Y515003D01*
X3188001D01*
X3247981Y544994D02*
X3257978Y554990D01*
X3277971D01*
X3287968Y544994D01*
Y534997D01*
X3277971Y525000D01*
X3287968Y515003D01*
Y505007D01*
X3277971Y495010D01*
X3257978D01*
X3247981Y505007D01*
Y515003D01*
X3257978Y525000D01*
X3247981Y534997D01*
Y544994D01*
X3257978Y525000D02*
X3277971D01*
X2090000Y1581000D02*
Y1640981D01*
X2119990D01*
X2129987Y1630984D01*
Y1610990D01*
X2119990Y1600994D01*
X2090000D01*
X2149981Y1590997D02*
X2159977Y1581000D01*
X2179971D01*
X2189968Y1590997D01*
Y1630984D01*
X2179971Y1640981D01*
X2159977D01*
X2149981Y1630984D01*
Y1620987D01*
X2159977Y1610990D01*
X2189968D01*
X2209961Y1571003D02*
X2249948D01*
X2269942Y1581000D02*
X2289935D01*
X2279939D01*
Y1640981D01*
X2269942Y1630984D01*
%TF.MD5,758f9ed482e94ea52811e54461580e3d*%
M02*
