%TF.GenerationSoftware,Altium Limited,Altium Designer,23.4.1 (23)*%
G04 Layer_Color=65535*
%FSLAX26Y26*%
%MOIN*%
%TF.SameCoordinates,0D52CC54-54DB-4289-8DCE-8A3B8268AFE3*%
%TF.FilePolarity,Positive*%
%TF.FileFunction,Legend,Top*%
%TF.Part,Single*%
G01*
G75*
%TA.AperFunction,NonConductor*%
%ADD57C,0.006000*%
%ADD58C,0.005000*%
%ADD59C,0.010000*%
%ADD60C,0.015000*%
%ADD61C,0.008000*%
G36*
X3635200Y1499500D02*
X3638700D01*
Y1498800D01*
X3640100D01*
Y1498100D01*
X3641500D01*
Y1497400D01*
X3642900D01*
Y1496700D01*
X3644300D01*
Y1496000D01*
X3645000D01*
Y1495300D01*
X3645700D01*
Y1494600D01*
X3647100D01*
Y1493900D01*
X3647800D01*
Y1493200D01*
X3648500D01*
Y1492500D01*
X3649200D01*
Y1491800D01*
X3650600D01*
Y1491100D01*
X3651300D01*
Y1490400D01*
X3652000D01*
Y1489700D01*
X3652700D01*
Y1489000D01*
X3653400D01*
Y1488300D01*
X3654800D01*
Y1487600D01*
X3655500D01*
Y1486900D01*
X3656200D01*
Y1486200D01*
X3656900D01*
Y1485500D01*
X3657600D01*
Y1484800D01*
X3658300D01*
Y1484100D01*
X3659000D01*
Y1483400D01*
X3659700D01*
Y1482700D01*
X3660400D01*
Y1482000D01*
X3661100D01*
Y1481300D01*
X3661800D01*
Y1480600D01*
X3662500D01*
Y1479900D01*
X3663200D01*
Y1479200D01*
X3663900D01*
Y1478500D01*
X3664600D01*
Y1477800D01*
X3665300D01*
Y1477100D01*
X3666000D01*
Y1476400D01*
X3666700D01*
Y1475700D01*
X3667400D01*
Y1475000D01*
X3668100D01*
Y1474300D01*
X3668800D01*
Y1473600D01*
X3669500D01*
Y1472900D01*
X3670200D01*
Y1472200D01*
X3670900D01*
Y1471500D01*
X3671600D01*
Y1470800D01*
X3672300D01*
Y1470100D01*
X3673000D01*
Y1469400D01*
X3673700D01*
Y1468000D01*
X3674400D01*
Y1467300D01*
X3675100D01*
Y1466600D01*
X3675800D01*
Y1465900D01*
X3676500D01*
Y1465200D01*
X3677200D01*
Y1464500D01*
X3677900D01*
Y1463100D01*
X3678600D01*
Y1462400D01*
X3679300D01*
Y1461700D01*
X3680000D01*
Y1460300D01*
X3680700D01*
Y1459600D01*
X3681400D01*
Y1458900D01*
X3682100D01*
Y1457500D01*
X3682800D01*
Y1456800D01*
X3683500D01*
Y1456100D01*
X3684200D01*
Y1454700D01*
X3684900D01*
Y1454000D01*
X3685600D01*
Y1453300D01*
X3686300D01*
Y1451900D01*
X3687000D01*
Y1451200D01*
X3687700D01*
Y1449800D01*
X3688400D01*
Y1449100D01*
X3689100D01*
Y1447700D01*
X3689800D01*
Y1447000D01*
X3690500D01*
Y1445600D01*
X3691200D01*
Y1444200D01*
X3691900D01*
Y1443500D01*
X3692600D01*
Y1442100D01*
X3693300D01*
Y1441400D01*
X3694000D01*
Y1440000D01*
X3694700D01*
Y1438600D01*
X3695400D01*
Y1437200D01*
X3696100D01*
Y1436500D01*
X3696800D01*
Y1435100D01*
X3697500D01*
Y1433700D01*
X3698200D01*
Y1432300D01*
X3698900D01*
Y1430900D01*
X3699600D01*
Y1429500D01*
X3700300D01*
Y1428100D01*
X3701000D01*
Y1426700D01*
X3701700D01*
Y1425300D01*
X3702400D01*
Y1423900D01*
X3703100D01*
Y1421800D01*
X3703800D01*
Y1420400D01*
X3704500D01*
Y1419000D01*
X3705200D01*
Y1416900D01*
X3705900D01*
Y1415500D01*
X3706600D01*
Y1413400D01*
X3707300D01*
Y1412000D01*
X3708000D01*
Y1409900D01*
X3708700D01*
Y1407800D01*
X3709400D01*
Y1405700D01*
X3710100D01*
Y1403600D01*
X3710800D01*
Y1401500D01*
X3711500D01*
Y1399400D01*
X3712200D01*
Y1397300D01*
X3712900D01*
Y1394500D01*
X3713600D01*
Y1391700D01*
X3714300D01*
Y1388900D01*
X3715000D01*
Y1386100D01*
X3715700D01*
Y1382600D01*
X3716400D01*
Y1379100D01*
X3717100D01*
Y1374900D01*
X3717800D01*
Y1370700D01*
X3718500D01*
Y1364400D01*
X3719200D01*
Y1355300D01*
X3719900D01*
Y1330800D01*
X3719200D01*
Y1323800D01*
X3718500D01*
Y1317500D01*
X3717800D01*
Y1313300D01*
X3717100D01*
Y1309100D01*
X3716400D01*
Y1305600D01*
X3715700D01*
Y1302100D01*
X3715000D01*
Y1298600D01*
X3714300D01*
Y1296500D01*
X3713600D01*
Y1293700D01*
X3712900D01*
Y1290900D01*
X3712200D01*
Y1288800D01*
X3711500D01*
Y1286700D01*
X3710800D01*
Y1284600D01*
X3710100D01*
Y1282500D01*
X3709400D01*
Y1280400D01*
X3708700D01*
Y1278300D01*
X3708000D01*
Y1276200D01*
X3707300D01*
Y1274800D01*
X3706600D01*
Y1272700D01*
X3705900D01*
Y1271300D01*
X3705200D01*
Y1269200D01*
X3704500D01*
Y1267800D01*
X3703800D01*
Y1266400D01*
X3703100D01*
Y1264300D01*
X3702400D01*
Y1262900D01*
X3701700D01*
Y1261500D01*
X3701000D01*
Y1260100D01*
X3700300D01*
Y1258700D01*
X3699600D01*
Y1257300D01*
X3698900D01*
Y1255900D01*
X3698200D01*
Y1254500D01*
X3697500D01*
Y1253100D01*
X3696800D01*
Y1251700D01*
X3696100D01*
Y1251000D01*
X3695400D01*
Y1249600D01*
X3694700D01*
Y1248200D01*
X3694000D01*
Y1247500D01*
X3693300D01*
Y1246100D01*
X3692600D01*
Y1244700D01*
X3691900D01*
Y1244000D01*
X3691200D01*
Y1242600D01*
X3690500D01*
Y1241900D01*
X3689800D01*
Y1240500D01*
X3689100D01*
Y1239800D01*
X3688400D01*
Y1238400D01*
X3687700D01*
Y1237700D01*
X3687000D01*
Y1236300D01*
X3686300D01*
Y1235600D01*
X3685600D01*
Y1234200D01*
X3684900D01*
Y1233500D01*
X3684200D01*
Y1232100D01*
X3683500D01*
Y1231400D01*
X3682800D01*
Y1230700D01*
X3682100D01*
Y1229300D01*
X3681400D01*
Y1228600D01*
X3680700D01*
Y1227900D01*
X3680000D01*
Y1227200D01*
X3679300D01*
Y1225800D01*
X3678600D01*
Y1225100D01*
X3677900D01*
Y1224400D01*
X3677200D01*
Y1223000D01*
X3676500D01*
Y1222300D01*
X3675800D01*
Y1221600D01*
X3675100D01*
Y1220900D01*
X3674400D01*
Y1220200D01*
X3673700D01*
Y1219500D01*
X3673000D01*
Y1218800D01*
X3672300D01*
Y1217400D01*
X3671600D01*
Y1216700D01*
X3670900D01*
Y1216000D01*
X3670200D01*
Y1215300D01*
X3669500D01*
Y1214600D01*
X3668800D01*
Y1213900D01*
X3668100D01*
Y1213200D01*
X3667400D01*
Y1212500D01*
X3666700D01*
Y1211800D01*
X3666000D01*
Y1211100D01*
X3665300D01*
Y1210400D01*
X3664600D01*
Y1209700D01*
X3663900D01*
Y1209000D01*
X3663200D01*
Y1208300D01*
X3662500D01*
Y1207600D01*
X3661800D01*
Y1206900D01*
X3661100D01*
Y1206200D01*
X3660400D01*
Y1205500D01*
X3659700D01*
Y1204800D01*
X3659000D01*
Y1204100D01*
X3658300D01*
Y1203400D01*
X3657600D01*
Y1202700D01*
X3656900D01*
Y1202000D01*
X3655500D01*
Y1201300D01*
X3654800D01*
Y1200600D01*
X3654100D01*
Y1199900D01*
X3653400D01*
Y1199200D01*
X3652700D01*
Y1198500D01*
X3652000D01*
Y1197800D01*
X3650600D01*
Y1197100D01*
X3649900D01*
Y1196400D01*
X3649200D01*
Y1195700D01*
X3648500D01*
Y1195000D01*
X3647100D01*
Y1194300D01*
X3646400D01*
Y1193600D01*
X3645700D01*
Y1192900D01*
X3645000D01*
Y1192200D01*
X3643600D01*
Y1191500D01*
X3642900D01*
Y1190800D01*
X3641500D01*
Y1190100D01*
X3639400D01*
Y1189400D01*
X3637300D01*
Y1188700D01*
X3633100D01*
Y1188000D01*
X3631000D01*
Y1188700D01*
X3626800D01*
Y1189400D01*
X3624700D01*
Y1190100D01*
X3623300D01*
Y1190800D01*
X3621900D01*
Y1191500D01*
X3620500D01*
Y1192200D01*
X3619100D01*
Y1192900D01*
X3618400D01*
Y1193600D01*
X3617700D01*
Y1194300D01*
X3616300D01*
Y1195000D01*
X3615600D01*
Y1195700D01*
X3614900D01*
Y1196400D01*
X3613500D01*
Y1197100D01*
X3612800D01*
Y1197800D01*
X3612100D01*
Y1198500D01*
X3611400D01*
Y1199200D01*
X3610700D01*
Y1199900D01*
X3609300D01*
Y1200600D01*
X3608600D01*
Y1201300D01*
X3607900D01*
Y1202000D01*
X3607200D01*
Y1202700D01*
X3606500D01*
Y1203400D01*
X3605800D01*
Y1204100D01*
X3605100D01*
Y1204800D01*
X3604400D01*
Y1205500D01*
X3603700D01*
Y1206200D01*
X3603000D01*
Y1206900D01*
X3601600D01*
Y1208300D01*
X3600900D01*
Y1209000D01*
X3600200D01*
Y1209700D01*
X3599500D01*
Y1210400D01*
X3598800D01*
Y1211100D01*
X3598100D01*
Y1211800D01*
X3597400D01*
Y1212500D01*
X3596700D01*
Y1213200D01*
X3596000D01*
Y1213900D01*
X3595300D01*
Y1214600D01*
X3594600D01*
Y1215300D01*
X3593900D01*
Y1216000D01*
X3593200D01*
Y1216700D01*
X3592500D01*
Y1217400D01*
X3591800D01*
Y1218100D01*
X3591100D01*
Y1218800D01*
X3590400D01*
Y1220200D01*
X3589700D01*
Y1220900D01*
X3589000D01*
Y1221600D01*
X3588300D01*
Y1222300D01*
X3587600D01*
Y1223000D01*
X3586900D01*
Y1224400D01*
X3586200D01*
Y1225100D01*
X3585500D01*
Y1225800D01*
X3584800D01*
Y1226500D01*
X3584100D01*
Y1227200D01*
X3583400D01*
Y1228600D01*
X3582700D01*
Y1229300D01*
X3582000D01*
Y1230000D01*
X3581300D01*
Y1231400D01*
X3580600D01*
Y1232100D01*
X3579900D01*
Y1232800D01*
X3579200D01*
Y1234200D01*
X3578500D01*
Y1234900D01*
X3577800D01*
Y1236300D01*
X3577100D01*
Y1237000D01*
X3576400D01*
Y1238400D01*
X3575700D01*
Y1239100D01*
X3575000D01*
Y1240500D01*
X3574300D01*
Y1241200D01*
X3573600D01*
Y1242600D01*
X3572900D01*
Y1243300D01*
X3572200D01*
Y1244700D01*
X3571500D01*
Y1246100D01*
X3570800D01*
Y1246800D01*
X3570100D01*
Y1248200D01*
X3569400D01*
Y1249600D01*
X3568700D01*
Y1251000D01*
X3568000D01*
Y1251700D01*
X3567300D01*
Y1253100D01*
X3566600D01*
Y1254500D01*
X3565900D01*
Y1255900D01*
X3565200D01*
Y1257300D01*
X3564500D01*
Y1258700D01*
X3563800D01*
Y1260100D01*
X3563100D01*
Y1261500D01*
X3562400D01*
Y1262900D01*
X3561700D01*
Y1264300D01*
X3561000D01*
Y1265700D01*
X3560300D01*
Y1267800D01*
X3559600D01*
Y1269200D01*
X3558900D01*
Y1270600D01*
X3558200D01*
Y1272700D01*
X3557500D01*
Y1274100D01*
X3556800D01*
Y1276200D01*
X3556100D01*
Y1278300D01*
X3555400D01*
Y1279700D01*
X3554700D01*
Y1281800D01*
X3554000D01*
Y1283900D01*
X3553300D01*
Y1286000D01*
X3552600D01*
Y1288800D01*
X3551900D01*
Y1290900D01*
X3551200D01*
Y1293000D01*
X3550500D01*
Y1295800D01*
X3549800D01*
Y1298600D01*
X3549100D01*
Y1302100D01*
X3548400D01*
Y1304900D01*
X3547700D01*
Y1308400D01*
X3547000D01*
Y1311900D01*
X3546300D01*
Y1316800D01*
X3545600D01*
Y1321700D01*
X3544900D01*
Y1330100D01*
X3544200D01*
Y1358100D01*
X3544900D01*
Y1366500D01*
X3545600D01*
Y1372100D01*
X3546300D01*
Y1376300D01*
X3547000D01*
Y1379800D01*
X3547700D01*
Y1383300D01*
X3548400D01*
Y1386800D01*
X3549100D01*
Y1389600D01*
X3549800D01*
Y1392400D01*
X3550500D01*
Y1395200D01*
X3551200D01*
Y1397300D01*
X3551900D01*
Y1400100D01*
X3552600D01*
Y1402200D01*
X3553300D01*
Y1404300D01*
X3554000D01*
Y1406400D01*
X3554700D01*
Y1408500D01*
X3555400D01*
Y1410600D01*
X3556100D01*
Y1412000D01*
X3556800D01*
Y1414100D01*
X3557500D01*
Y1415500D01*
X3558200D01*
Y1417600D01*
X3558900D01*
Y1419000D01*
X3559600D01*
Y1420400D01*
X3560300D01*
Y1422500D01*
X3561000D01*
Y1423900D01*
X3561700D01*
Y1425300D01*
X3562400D01*
Y1426700D01*
X3563100D01*
Y1428100D01*
X3563800D01*
Y1429500D01*
X3564500D01*
Y1430900D01*
X3565200D01*
Y1432300D01*
X3565900D01*
Y1433700D01*
X3566600D01*
Y1435100D01*
X3567300D01*
Y1436500D01*
X3568000D01*
Y1437200D01*
X3568700D01*
Y1438600D01*
X3569400D01*
Y1440000D01*
X3570100D01*
Y1441400D01*
X3570800D01*
Y1442800D01*
X3571500D01*
Y1443500D01*
X3572200D01*
Y1444900D01*
X3572900D01*
Y1445600D01*
X3573600D01*
Y1447000D01*
X3574300D01*
Y1447700D01*
X3575000D01*
Y1449100D01*
X3575700D01*
Y1449800D01*
X3576400D01*
Y1451200D01*
X3577100D01*
Y1451900D01*
X3577800D01*
Y1453300D01*
X3578500D01*
Y1454000D01*
X3579200D01*
Y1455400D01*
X3579900D01*
Y1456100D01*
X3580600D01*
Y1456800D01*
X3581300D01*
Y1458200D01*
X3582000D01*
Y1458900D01*
X3582700D01*
Y1459600D01*
X3583400D01*
Y1461000D01*
X3584100D01*
Y1461700D01*
X3584800D01*
Y1462400D01*
X3585500D01*
Y1463100D01*
X3586200D01*
Y1463800D01*
X3586900D01*
Y1465200D01*
X3587600D01*
Y1465900D01*
X3588300D01*
Y1466600D01*
X3589000D01*
Y1467300D01*
X3589700D01*
Y1468000D01*
X3590400D01*
Y1469400D01*
X3591100D01*
Y1470100D01*
X3591800D01*
Y1470800D01*
X3592500D01*
Y1471500D01*
X3593200D01*
Y1472200D01*
X3593900D01*
Y1472900D01*
X3594600D01*
Y1473600D01*
X3595300D01*
Y1474300D01*
X3596000D01*
Y1475000D01*
X3596700D01*
Y1475700D01*
X3597400D01*
Y1476400D01*
X3598100D01*
Y1477100D01*
X3598800D01*
Y1477800D01*
X3599500D01*
Y1478500D01*
X3600200D01*
Y1479200D01*
X3600900D01*
Y1479900D01*
X3601600D01*
Y1480600D01*
X3602300D01*
Y1481300D01*
X3603000D01*
Y1482000D01*
X3603700D01*
Y1482700D01*
X3604400D01*
Y1483400D01*
X3605100D01*
Y1484100D01*
X3605800D01*
Y1484800D01*
X3606500D01*
Y1485500D01*
X3607200D01*
Y1486200D01*
X3607900D01*
Y1486900D01*
X3608600D01*
Y1487600D01*
X3610000D01*
Y1488300D01*
X3610700D01*
Y1489000D01*
X3611400D01*
Y1489700D01*
X3612100D01*
Y1490400D01*
X3612800D01*
Y1491100D01*
X3614200D01*
Y1491800D01*
X3614900D01*
Y1492500D01*
X3615600D01*
Y1493200D01*
X3616300D01*
Y1493900D01*
X3617700D01*
Y1494600D01*
X3618400D01*
Y1495300D01*
X3619100D01*
Y1496000D01*
X3619800D01*
Y1496700D01*
X3621200D01*
Y1497400D01*
X3622600D01*
Y1498100D01*
X3624000D01*
Y1498800D01*
X3626100D01*
Y1499500D01*
X3628900D01*
Y1500200D01*
X3635200D01*
Y1499500D01*
D02*
G37*
%LPC*%
G36*
X3632400Y1479200D02*
X3631700D01*
Y1478500D01*
X3630300D01*
Y1477800D01*
X3629600D01*
Y1477100D01*
X3628900D01*
Y1476400D01*
X3628200D01*
Y1475700D01*
X3626800D01*
Y1475000D01*
X3626100D01*
Y1474300D01*
X3625400D01*
Y1473600D01*
X3624700D01*
Y1472900D01*
X3623300D01*
Y1472200D01*
X3622600D01*
Y1471500D01*
X3621900D01*
Y1470800D01*
X3621200D01*
Y1470100D01*
X3620500D01*
Y1469400D01*
X3619800D01*
Y1468700D01*
X3619100D01*
Y1468000D01*
X3618400D01*
Y1467300D01*
X3617700D01*
Y1466600D01*
X3617000D01*
Y1465900D01*
X3616300D01*
Y1465200D01*
X3615600D01*
Y1464500D01*
X3614900D01*
Y1463800D01*
X3614200D01*
Y1463100D01*
X3613500D01*
Y1462400D01*
X3612800D01*
Y1461700D01*
X3612100D01*
Y1461000D01*
X3611400D01*
Y1460300D01*
X3610700D01*
Y1459600D01*
X3610000D01*
Y1458900D01*
X3609300D01*
Y1458200D01*
X3608600D01*
Y1457500D01*
X3607900D01*
Y1456800D01*
X3607200D01*
Y1456100D01*
X3606500D01*
Y1455400D01*
X3605800D01*
Y1454000D01*
X3605100D01*
Y1453300D01*
X3604400D01*
Y1452600D01*
X3603700D01*
Y1451900D01*
X3603000D01*
Y1451200D01*
X3602300D01*
Y1449800D01*
X3601600D01*
Y1449100D01*
X3600900D01*
Y1448400D01*
X3600200D01*
Y1447700D01*
X3599500D01*
Y1446300D01*
X3598800D01*
Y1445600D01*
X3598100D01*
Y1444900D01*
X3597400D01*
Y1444200D01*
X3596700D01*
Y1442800D01*
X3596000D01*
Y1442100D01*
X3595300D01*
Y1440700D01*
X3594600D01*
Y1440000D01*
X3593900D01*
Y1438600D01*
X3593200D01*
Y1437900D01*
X3592500D01*
Y1436500D01*
X3591800D01*
Y1435800D01*
X3591100D01*
Y1434400D01*
X3590400D01*
Y1433000D01*
X3589700D01*
Y1432300D01*
X3589000D01*
Y1430900D01*
X3588300D01*
Y1430200D01*
X3587600D01*
Y1428800D01*
X3586900D01*
Y1427400D01*
X3586200D01*
Y1426000D01*
X3585500D01*
Y1424600D01*
X3584800D01*
Y1423900D01*
X3584100D01*
Y1422500D01*
X3583400D01*
Y1421100D01*
X3582700D01*
Y1419700D01*
X3582000D01*
Y1418300D01*
X3581300D01*
Y1416900D01*
X3580600D01*
Y1414800D01*
X3579900D01*
Y1413400D01*
X3579200D01*
Y1412000D01*
X3578500D01*
Y1410600D01*
X3577800D01*
Y1408500D01*
X3577100D01*
Y1407100D01*
X3576400D01*
Y1405000D01*
X3575700D01*
Y1403600D01*
X3575000D01*
Y1401500D01*
X3574300D01*
Y1399400D01*
X3573600D01*
Y1397300D01*
X3572900D01*
Y1395200D01*
X3572200D01*
Y1392400D01*
X3571500D01*
Y1390300D01*
X3570800D01*
Y1387500D01*
X3570100D01*
Y1384700D01*
X3569400D01*
Y1381900D01*
X3568700D01*
Y1378400D01*
X3568000D01*
Y1374900D01*
X3567300D01*
Y1370700D01*
X3566600D01*
Y1366500D01*
X3565900D01*
Y1358800D01*
X3565200D01*
Y1329400D01*
X3565900D01*
Y1322400D01*
X3566600D01*
Y1318200D01*
X3567300D01*
Y1314000D01*
X3568000D01*
Y1310500D01*
X3568700D01*
Y1307000D01*
X3569400D01*
Y1303500D01*
X3570100D01*
Y1300700D01*
X3570800D01*
Y1298600D01*
X3571500D01*
Y1295800D01*
X3572200D01*
Y1293700D01*
X3572900D01*
Y1291600D01*
X3573600D01*
Y1289500D01*
X3574300D01*
Y1286700D01*
X3575000D01*
Y1285300D01*
X3575700D01*
Y1283200D01*
X3576400D01*
Y1281800D01*
X3577100D01*
Y1279700D01*
X3577800D01*
Y1277600D01*
X3578500D01*
Y1276200D01*
X3579200D01*
Y1274800D01*
X3579900D01*
Y1273400D01*
X3580600D01*
Y1272000D01*
X3581300D01*
Y1269900D01*
X3582000D01*
Y1268500D01*
X3582700D01*
Y1267100D01*
X3583400D01*
Y1266400D01*
X3584100D01*
Y1265000D01*
X3584800D01*
Y1263600D01*
X3585500D01*
Y1262200D01*
X3586200D01*
Y1260800D01*
X3586900D01*
Y1259400D01*
X3587600D01*
Y1258700D01*
X3588300D01*
Y1257300D01*
X3589000D01*
Y1255900D01*
X3589700D01*
Y1255200D01*
X3590400D01*
Y1253800D01*
X3591100D01*
Y1253100D01*
X3591800D01*
Y1251700D01*
X3592500D01*
Y1250300D01*
X3593200D01*
Y1249600D01*
X3593900D01*
Y1248900D01*
X3594600D01*
Y1247500D01*
X3595300D01*
Y1246800D01*
X3596000D01*
Y1245400D01*
X3596700D01*
Y1244700D01*
X3597400D01*
Y1243300D01*
X3598100D01*
Y1242600D01*
X3598800D01*
Y1241900D01*
X3599500D01*
Y1241200D01*
X3600200D01*
Y1239800D01*
X3600900D01*
Y1239100D01*
X3601600D01*
Y1238400D01*
X3602300D01*
Y1237700D01*
X3603000D01*
Y1236300D01*
X3603700D01*
Y1235600D01*
X3604400D01*
Y1234900D01*
X3605100D01*
Y1234200D01*
X3605800D01*
Y1233500D01*
X3606500D01*
Y1232800D01*
X3607200D01*
Y1231400D01*
X3607900D01*
Y1230700D01*
X3608600D01*
Y1230000D01*
X3609300D01*
Y1229300D01*
X3610000D01*
Y1228600D01*
X3610700D01*
Y1227900D01*
X3611400D01*
Y1227200D01*
X3612100D01*
Y1226500D01*
X3612800D01*
Y1225800D01*
X3613500D01*
Y1225100D01*
X3614200D01*
Y1224400D01*
X3614900D01*
Y1223700D01*
X3615600D01*
Y1223000D01*
X3616300D01*
Y1222300D01*
X3617000D01*
Y1221600D01*
X3617700D01*
Y1220900D01*
X3618400D01*
Y1220200D01*
X3619100D01*
Y1219500D01*
X3619800D01*
Y1218800D01*
X3620500D01*
Y1218100D01*
X3621200D01*
Y1217400D01*
X3621900D01*
Y1216700D01*
X3623300D01*
Y1216000D01*
X3624000D01*
Y1215300D01*
X3624700D01*
Y1214600D01*
X3625400D01*
Y1213900D01*
X3626100D01*
Y1213200D01*
X3627500D01*
Y1212500D01*
X3628200D01*
Y1211800D01*
X3628900D01*
Y1211100D01*
X3629600D01*
Y1210400D01*
X3631000D01*
Y1209700D01*
X3631700D01*
Y1209000D01*
X3632400D01*
Y1209700D01*
X3633100D01*
Y1210400D01*
X3634500D01*
Y1211100D01*
X3635200D01*
Y1211800D01*
X3635900D01*
Y1212500D01*
X3636600D01*
Y1213200D01*
X3638000D01*
Y1213900D01*
X3638700D01*
Y1214600D01*
X3639400D01*
Y1215300D01*
X3640100D01*
Y1216000D01*
X3640800D01*
Y1216700D01*
X3641500D01*
Y1217400D01*
X3642900D01*
Y1218100D01*
X3643600D01*
Y1218800D01*
X3644300D01*
Y1219500D01*
X3645000D01*
Y1220200D01*
X3645700D01*
Y1220900D01*
X3646400D01*
Y1221600D01*
X3647100D01*
Y1222300D01*
X3647800D01*
Y1223000D01*
X3648500D01*
Y1223700D01*
X3649200D01*
Y1224400D01*
X3649900D01*
Y1225100D01*
X3650600D01*
Y1225800D01*
X3651300D01*
Y1226500D01*
X3652000D01*
Y1227200D01*
X3652700D01*
Y1227900D01*
X3653400D01*
Y1228600D01*
X3654100D01*
Y1229300D01*
X3654800D01*
Y1230000D01*
X3655500D01*
Y1230700D01*
X3656200D01*
Y1231400D01*
X3656900D01*
Y1232800D01*
X3657600D01*
Y1233500D01*
X3658300D01*
Y1234200D01*
X3659000D01*
Y1234900D01*
X3659700D01*
Y1235600D01*
X3660400D01*
Y1236300D01*
X3661100D01*
Y1237700D01*
X3661800D01*
Y1238400D01*
X3662500D01*
Y1239100D01*
X3663200D01*
Y1239800D01*
X3663900D01*
Y1241200D01*
X3664600D01*
Y1241900D01*
X3665300D01*
Y1242600D01*
X3666000D01*
Y1244000D01*
X3666700D01*
Y1244700D01*
X3667400D01*
Y1245400D01*
X3668100D01*
Y1246800D01*
X3668800D01*
Y1247500D01*
X3669500D01*
Y1248900D01*
X3670200D01*
Y1249600D01*
X3670900D01*
Y1251000D01*
X3671600D01*
Y1251700D01*
X3672300D01*
Y1253100D01*
X3673000D01*
Y1253800D01*
X3673700D01*
Y1255200D01*
X3674400D01*
Y1256600D01*
X3675100D01*
Y1257300D01*
X3675800D01*
Y1258700D01*
X3676500D01*
Y1260100D01*
X3677200D01*
Y1261500D01*
X3677900D01*
Y1262200D01*
X3678600D01*
Y1263600D01*
X3679300D01*
Y1265000D01*
X3680000D01*
Y1266400D01*
X3680700D01*
Y1267800D01*
X3681400D01*
Y1269200D01*
X3682100D01*
Y1270600D01*
X3682800D01*
Y1272000D01*
X3683500D01*
Y1273400D01*
X3684200D01*
Y1275500D01*
X3684900D01*
Y1276900D01*
X3685600D01*
Y1278300D01*
X3686300D01*
Y1279700D01*
X3687000D01*
Y1281800D01*
X3687700D01*
Y1283200D01*
X3688400D01*
Y1285300D01*
X3689100D01*
Y1286700D01*
X3689800D01*
Y1288800D01*
X3690500D01*
Y1291600D01*
X3691200D01*
Y1293700D01*
X3691900D01*
Y1295800D01*
X3692600D01*
Y1298600D01*
X3693300D01*
Y1300700D01*
X3694000D01*
Y1303500D01*
X3694700D01*
Y1307000D01*
X3695400D01*
Y1310500D01*
X3696100D01*
Y1314000D01*
X3696800D01*
Y1318200D01*
X3697500D01*
Y1323100D01*
X3698200D01*
Y1330100D01*
X3698900D01*
Y1358100D01*
X3698200D01*
Y1365100D01*
X3697500D01*
Y1370000D01*
X3696800D01*
Y1374900D01*
X3696100D01*
Y1378400D01*
X3695400D01*
Y1381900D01*
X3694700D01*
Y1384700D01*
X3694000D01*
Y1387500D01*
X3693300D01*
Y1390300D01*
X3692600D01*
Y1392400D01*
X3691900D01*
Y1394500D01*
X3691200D01*
Y1396600D01*
X3690500D01*
Y1398700D01*
X3689800D01*
Y1400800D01*
X3689100D01*
Y1402900D01*
X3688400D01*
Y1404300D01*
X3687700D01*
Y1406400D01*
X3687000D01*
Y1408500D01*
X3686300D01*
Y1409900D01*
X3685600D01*
Y1412000D01*
X3684900D01*
Y1413400D01*
X3684200D01*
Y1414800D01*
X3683500D01*
Y1416200D01*
X3682800D01*
Y1417600D01*
X3682100D01*
Y1419000D01*
X3681400D01*
Y1420400D01*
X3680700D01*
Y1421800D01*
X3680000D01*
Y1423200D01*
X3679300D01*
Y1424600D01*
X3678600D01*
Y1426000D01*
X3677900D01*
Y1427400D01*
X3677200D01*
Y1428800D01*
X3676500D01*
Y1429500D01*
X3675800D01*
Y1430900D01*
X3675100D01*
Y1431600D01*
X3674400D01*
Y1433000D01*
X3673700D01*
Y1434400D01*
X3673000D01*
Y1435100D01*
X3672300D01*
Y1436500D01*
X3671600D01*
Y1437200D01*
X3670900D01*
Y1438600D01*
X3670200D01*
Y1439300D01*
X3669500D01*
Y1440700D01*
X3668800D01*
Y1441400D01*
X3668100D01*
Y1442800D01*
X3667400D01*
Y1443500D01*
X3666700D01*
Y1444900D01*
X3666000D01*
Y1445600D01*
X3665300D01*
Y1446300D01*
X3664600D01*
Y1447700D01*
X3663900D01*
Y1448400D01*
X3663200D01*
Y1449100D01*
X3662500D01*
Y1449800D01*
X3661800D01*
Y1451200D01*
X3661100D01*
Y1451900D01*
X3660400D01*
Y1452600D01*
X3659700D01*
Y1453300D01*
X3659000D01*
Y1454000D01*
X3658300D01*
Y1455400D01*
X3657600D01*
Y1456100D01*
X3656900D01*
Y1456800D01*
X3656200D01*
Y1457500D01*
X3655500D01*
Y1458200D01*
X3654800D01*
Y1458900D01*
X3654100D01*
Y1459600D01*
X3653400D01*
Y1460300D01*
X3652700D01*
Y1461000D01*
X3652000D01*
Y1461700D01*
X3651300D01*
Y1462400D01*
X3650600D01*
Y1463100D01*
X3649900D01*
Y1463800D01*
X3649200D01*
Y1464500D01*
X3648500D01*
Y1465200D01*
X3647800D01*
Y1465900D01*
X3647100D01*
Y1466600D01*
X3646400D01*
Y1467300D01*
X3645700D01*
Y1468000D01*
X3645000D01*
Y1468700D01*
X3644300D01*
Y1469400D01*
X3643600D01*
Y1470100D01*
X3642900D01*
Y1470800D01*
X3642200D01*
Y1471500D01*
X3641500D01*
Y1472200D01*
X3640100D01*
Y1472900D01*
X3639400D01*
Y1473600D01*
X3638700D01*
Y1474300D01*
X3638000D01*
Y1475000D01*
X3637300D01*
Y1475700D01*
X3635900D01*
Y1476400D01*
X3635200D01*
Y1477100D01*
X3634500D01*
Y1477800D01*
X3633800D01*
Y1478500D01*
X3632400D01*
Y1479200D01*
D02*
G37*
%LPD*%
G36*
X3639400Y1404300D02*
X3643600D01*
Y1403600D01*
X3647100D01*
Y1402900D01*
X3649200D01*
Y1402200D01*
X3651300D01*
Y1401500D01*
X3653400D01*
Y1400800D01*
X3655500D01*
Y1400100D01*
X3656900D01*
Y1399400D01*
X3658300D01*
Y1398700D01*
X3659700D01*
Y1398000D01*
X3661100D01*
Y1397300D01*
X3662500D01*
Y1396600D01*
X3663900D01*
Y1395900D01*
X3664600D01*
Y1395200D01*
X3666000D01*
Y1394500D01*
X3666700D01*
Y1393800D01*
X3667400D01*
Y1393100D01*
X3668800D01*
Y1392400D01*
X3669500D01*
Y1391700D01*
X3670200D01*
Y1391000D01*
X3671600D01*
Y1390300D01*
X3672300D01*
Y1389600D01*
X3673000D01*
Y1388900D01*
X3673700D01*
Y1388200D01*
X3674400D01*
Y1387500D01*
X3675100D01*
Y1386800D01*
X3675800D01*
Y1386100D01*
X3676500D01*
Y1385400D01*
X3677200D01*
Y1384700D01*
X3677900D01*
Y1384000D01*
X3678600D01*
Y1383300D01*
X3679300D01*
Y1381900D01*
X3680000D01*
Y1381200D01*
X3680700D01*
Y1380500D01*
X3681400D01*
Y1379100D01*
X3682100D01*
Y1378400D01*
X3682800D01*
Y1377000D01*
X3683500D01*
Y1376300D01*
X3684200D01*
Y1374900D01*
X3684900D01*
Y1373500D01*
X3685600D01*
Y1372100D01*
X3686300D01*
Y1371400D01*
X3687000D01*
Y1370000D01*
X3687700D01*
Y1367900D01*
X3688400D01*
Y1366500D01*
X3689100D01*
Y1364400D01*
X3689800D01*
Y1362300D01*
X3690500D01*
Y1360200D01*
X3691200D01*
Y1357400D01*
X3691900D01*
Y1353200D01*
X3692600D01*
Y1346900D01*
X3693300D01*
Y1341300D01*
X3692600D01*
Y1335000D01*
X3691900D01*
Y1330800D01*
X3691200D01*
Y1328000D01*
X3690500D01*
Y1325900D01*
X3689800D01*
Y1323800D01*
X3689100D01*
Y1321700D01*
X3688400D01*
Y1320300D01*
X3687700D01*
Y1318200D01*
X3687000D01*
Y1316800D01*
X3686300D01*
Y1316100D01*
X3685600D01*
Y1314700D01*
X3684900D01*
Y1313300D01*
X3684200D01*
Y1311900D01*
X3683500D01*
Y1311200D01*
X3682800D01*
Y1309800D01*
X3682100D01*
Y1309100D01*
X3681400D01*
Y1307700D01*
X3680700D01*
Y1307000D01*
X3680000D01*
Y1306300D01*
X3679300D01*
Y1305600D01*
X3678600D01*
Y1304200D01*
X3677900D01*
Y1303500D01*
X3677200D01*
Y1302800D01*
X3676500D01*
Y1302100D01*
X3675800D01*
Y1301400D01*
X3675100D01*
Y1300700D01*
X3674400D01*
Y1300000D01*
X3673700D01*
Y1299300D01*
X3673000D01*
Y1298600D01*
X3672300D01*
Y1297900D01*
X3670900D01*
Y1297200D01*
X3670200D01*
Y1296500D01*
X3669500D01*
Y1295800D01*
X3668800D01*
Y1295100D01*
X3667400D01*
Y1294400D01*
X3666700D01*
Y1293700D01*
X3665300D01*
Y1293000D01*
X3664600D01*
Y1292300D01*
X3663200D01*
Y1291600D01*
X3661800D01*
Y1290900D01*
X3661100D01*
Y1290200D01*
X3659700D01*
Y1289500D01*
X3658300D01*
Y1288800D01*
X3656200D01*
Y1288100D01*
X3654800D01*
Y1287400D01*
X3652700D01*
Y1286700D01*
X3651300D01*
Y1286000D01*
X3648500D01*
Y1285300D01*
X3645700D01*
Y1284600D01*
X3642200D01*
Y1283900D01*
X3636600D01*
Y1283200D01*
X3625400D01*
Y1283900D01*
X3620500D01*
Y1284600D01*
X3617700D01*
Y1285300D01*
X3614900D01*
Y1286000D01*
X3612800D01*
Y1286700D01*
X3610700D01*
Y1287400D01*
X3609300D01*
Y1288100D01*
X3607200D01*
Y1288800D01*
X3605800D01*
Y1289500D01*
X3604400D01*
Y1290200D01*
X3603000D01*
Y1290900D01*
X3601600D01*
Y1291600D01*
X3600900D01*
Y1292300D01*
X3599500D01*
Y1293000D01*
X3598100D01*
Y1293700D01*
X3597400D01*
Y1294400D01*
X3596700D01*
Y1295100D01*
X3595300D01*
Y1295800D01*
X3594600D01*
Y1296500D01*
X3593900D01*
Y1297200D01*
X3592500D01*
Y1297900D01*
X3591800D01*
Y1298600D01*
X3591100D01*
Y1299300D01*
X3590400D01*
Y1300000D01*
X3589700D01*
Y1300700D01*
X3589000D01*
Y1301400D01*
X3588300D01*
Y1302100D01*
X3587600D01*
Y1302800D01*
X3586900D01*
Y1303500D01*
X3586200D01*
Y1304200D01*
X3585500D01*
Y1305600D01*
X3584800D01*
Y1306300D01*
X3584100D01*
Y1307000D01*
X3583400D01*
Y1307700D01*
X3582700D01*
Y1309100D01*
X3582000D01*
Y1309800D01*
X3581300D01*
Y1311200D01*
X3580600D01*
Y1311900D01*
X3579900D01*
Y1313300D01*
X3579200D01*
Y1314700D01*
X3578500D01*
Y1315400D01*
X3577800D01*
Y1316800D01*
X3577100D01*
Y1318200D01*
X3576400D01*
Y1319600D01*
X3575700D01*
Y1321700D01*
X3575000D01*
Y1323100D01*
X3574300D01*
Y1325900D01*
X3573600D01*
Y1328000D01*
X3572900D01*
Y1330800D01*
X3572200D01*
Y1334300D01*
X3571500D01*
Y1339200D01*
X3570800D01*
Y1349000D01*
X3571500D01*
Y1354600D01*
X3572200D01*
Y1358100D01*
X3572900D01*
Y1360900D01*
X3573600D01*
Y1363000D01*
X3574300D01*
Y1365100D01*
X3575000D01*
Y1367200D01*
X3575700D01*
Y1368600D01*
X3576400D01*
Y1370000D01*
X3577100D01*
Y1371400D01*
X3577800D01*
Y1372800D01*
X3578500D01*
Y1374200D01*
X3579200D01*
Y1374900D01*
X3579900D01*
Y1376300D01*
X3580600D01*
Y1377000D01*
X3581300D01*
Y1378400D01*
X3582000D01*
Y1379800D01*
X3582700D01*
Y1380500D01*
X3583400D01*
Y1381200D01*
X3584100D01*
Y1381900D01*
X3584800D01*
Y1383300D01*
X3585500D01*
Y1384000D01*
X3586200D01*
Y1384700D01*
X3586900D01*
Y1385400D01*
X3587600D01*
Y1386100D01*
X3588300D01*
Y1386800D01*
X3589000D01*
Y1387500D01*
X3589700D01*
Y1388200D01*
X3590400D01*
Y1388900D01*
X3591100D01*
Y1389600D01*
X3591800D01*
Y1390300D01*
X3592500D01*
Y1391000D01*
X3593200D01*
Y1391700D01*
X3594600D01*
Y1392400D01*
X3595300D01*
Y1393100D01*
X3596000D01*
Y1393800D01*
X3597400D01*
Y1394500D01*
X3598100D01*
Y1395200D01*
X3599500D01*
Y1395900D01*
X3600900D01*
Y1396600D01*
X3601600D01*
Y1397300D01*
X3603000D01*
Y1398000D01*
X3604400D01*
Y1398700D01*
X3605800D01*
Y1399400D01*
X3607200D01*
Y1400100D01*
X3609300D01*
Y1400800D01*
X3610700D01*
Y1401500D01*
X3612800D01*
Y1402200D01*
X3614900D01*
Y1402900D01*
X3617700D01*
Y1403600D01*
X3621200D01*
Y1404300D01*
X3626100D01*
Y1405000D01*
X3639400D01*
Y1404300D01*
D02*
G37*
%LPC*%
G36*
X3638700Y1384000D02*
X3625400D01*
Y1383300D01*
X3621900D01*
Y1382600D01*
X3619800D01*
Y1381900D01*
X3617700D01*
Y1381200D01*
X3616300D01*
Y1380500D01*
X3614200D01*
Y1379800D01*
X3612800D01*
Y1379100D01*
X3612100D01*
Y1378400D01*
X3610700D01*
Y1377700D01*
X3609300D01*
Y1377000D01*
X3608600D01*
Y1376300D01*
X3607900D01*
Y1375600D01*
X3607200D01*
Y1374900D01*
X3605800D01*
Y1374200D01*
X3605100D01*
Y1373500D01*
X3604400D01*
Y1372800D01*
X3603700D01*
Y1372100D01*
X3603000D01*
Y1371400D01*
X3602300D01*
Y1370700D01*
X3601600D01*
Y1370000D01*
X3600900D01*
Y1369300D01*
X3600200D01*
Y1367900D01*
X3599500D01*
Y1367200D01*
X3598800D01*
Y1365800D01*
X3598100D01*
Y1365100D01*
X3597400D01*
Y1363700D01*
X3596700D01*
Y1362300D01*
X3596000D01*
Y1360900D01*
X3595300D01*
Y1359500D01*
X3594600D01*
Y1357400D01*
X3593900D01*
Y1355300D01*
X3593200D01*
Y1352500D01*
X3592500D01*
Y1348300D01*
X3591800D01*
Y1339900D01*
X3592500D01*
Y1336400D01*
X3593200D01*
Y1332900D01*
X3593900D01*
Y1330800D01*
X3594600D01*
Y1329400D01*
X3595300D01*
Y1327300D01*
X3596000D01*
Y1325900D01*
X3596700D01*
Y1324500D01*
X3597400D01*
Y1323800D01*
X3598100D01*
Y1322400D01*
X3598800D01*
Y1321000D01*
X3599500D01*
Y1320300D01*
X3600200D01*
Y1319600D01*
X3600900D01*
Y1318200D01*
X3601600D01*
Y1317500D01*
X3602300D01*
Y1316800D01*
X3603000D01*
Y1316100D01*
X3603700D01*
Y1315400D01*
X3604400D01*
Y1314700D01*
X3605100D01*
Y1314000D01*
X3606500D01*
Y1313300D01*
X3607200D01*
Y1312600D01*
X3607900D01*
Y1311900D01*
X3608600D01*
Y1311200D01*
X3610000D01*
Y1310500D01*
X3610700D01*
Y1309800D01*
X3612100D01*
Y1309100D01*
X3613500D01*
Y1308400D01*
X3614900D01*
Y1307700D01*
X3616300D01*
Y1307000D01*
X3617700D01*
Y1306300D01*
X3619800D01*
Y1305600D01*
X3622600D01*
Y1304900D01*
X3626100D01*
Y1304200D01*
X3637300D01*
Y1304900D01*
X3641500D01*
Y1305600D01*
X3643600D01*
Y1306300D01*
X3645700D01*
Y1307000D01*
X3647800D01*
Y1307700D01*
X3649200D01*
Y1308400D01*
X3650600D01*
Y1309100D01*
X3652000D01*
Y1309800D01*
X3653400D01*
Y1310500D01*
X3654100D01*
Y1311200D01*
X3655500D01*
Y1311900D01*
X3656200D01*
Y1312600D01*
X3656900D01*
Y1313300D01*
X3658300D01*
Y1314000D01*
X3659000D01*
Y1314700D01*
X3659700D01*
Y1315400D01*
X3660400D01*
Y1316100D01*
X3661100D01*
Y1316800D01*
X3661800D01*
Y1317500D01*
X3662500D01*
Y1318200D01*
X3663200D01*
Y1319600D01*
X3663900D01*
Y1320300D01*
X3664600D01*
Y1321000D01*
X3665300D01*
Y1322400D01*
X3666000D01*
Y1323100D01*
X3666700D01*
Y1324500D01*
X3667400D01*
Y1325900D01*
X3668100D01*
Y1327300D01*
X3668800D01*
Y1329400D01*
X3669500D01*
Y1330800D01*
X3670200D01*
Y1332900D01*
X3670900D01*
Y1335700D01*
X3671600D01*
Y1339900D01*
X3672300D01*
Y1348300D01*
X3671600D01*
Y1352500D01*
X3670900D01*
Y1355300D01*
X3670200D01*
Y1357400D01*
X3669500D01*
Y1359500D01*
X3668800D01*
Y1360900D01*
X3668100D01*
Y1362300D01*
X3667400D01*
Y1363700D01*
X3666700D01*
Y1365100D01*
X3666000D01*
Y1365800D01*
X3665300D01*
Y1367200D01*
X3664600D01*
Y1367900D01*
X3663900D01*
Y1368600D01*
X3663200D01*
Y1370000D01*
X3662500D01*
Y1370700D01*
X3661800D01*
Y1371400D01*
X3661100D01*
Y1372100D01*
X3660400D01*
Y1372800D01*
X3659700D01*
Y1373500D01*
X3659000D01*
Y1374200D01*
X3658300D01*
Y1374900D01*
X3657600D01*
Y1375600D01*
X3656200D01*
Y1376300D01*
X3655500D01*
Y1377000D01*
X3654800D01*
Y1377700D01*
X3653400D01*
Y1378400D01*
X3652000D01*
Y1379100D01*
X3651300D01*
Y1379800D01*
X3649900D01*
Y1380500D01*
X3648500D01*
Y1381200D01*
X3646400D01*
Y1381900D01*
X3644300D01*
Y1382600D01*
X3642200D01*
Y1383300D01*
X3638700D01*
Y1384000D01*
D02*
G37*
%LPD*%
D57*
X3710000Y1540000D02*
Y1630000D01*
X3640000Y1540000D02*
Y1630000D01*
X3478543Y1725000D02*
X3568543D01*
X3478543Y1795000D02*
X3568543D01*
X3478543Y1825000D02*
X3568543D01*
X3478543Y1895000D02*
X3568543D01*
X2407249Y1138579D02*
Y1175586D01*
Y1138579D02*
X2505674D01*
X2407249Y1224405D02*
Y1261413D01*
X2462367D01*
X3726999Y1118543D02*
X3826999D01*
X3726999Y1568543D02*
Y1618543D01*
X3826999D01*
Y1568543D02*
Y1618543D01*
X3006150Y934371D02*
X3360481D01*
X2978591Y1190276D02*
X3006150D01*
X2978591Y1154843D02*
Y1190276D01*
X3006150D02*
X3360481D01*
X2225000Y1320000D02*
X2245000D01*
X2225000D02*
Y1340000D01*
Y1600000D02*
Y1620000D01*
X2245000D01*
X2405000Y1320000D02*
X2425000D01*
Y1340000D01*
X2340000Y1620000D02*
X2375000D01*
X2425000Y1535000D02*
Y1570000D01*
X2375000Y1620000D02*
X2425000D01*
Y1570000D02*
Y1620000D01*
X2524942Y873347D02*
Y896969D01*
X2548564Y849331D02*
Y873347D01*
X2524942D02*
X2548564D01*
X2524942Y1046575D02*
Y1070197D01*
X2548564D01*
X2698170Y873347D02*
X2721792D01*
Y896969D01*
X2698170Y1070197D02*
X2721792D01*
Y1046575D02*
Y1070197D01*
X745229Y1342756D02*
Y1437244D01*
Y1342756D02*
X902709D01*
X745229Y1437244D02*
X902709D01*
Y1342756D02*
Y1437244D01*
X301772Y1551181D02*
Y1590551D01*
Y1551181D02*
X901772Y1551181D01*
X301772Y1799213D02*
Y1838583D01*
X341142D01*
X901772Y1551181D02*
Y1629921D01*
X862402Y1838583D02*
X901772D01*
Y1799213D02*
Y1838583D01*
X11812Y326371D02*
Y365741D01*
Y326371D02*
X51182D01*
X11812Y626371D02*
X51182D01*
X11812Y587000D02*
Y626371D01*
X259843Y326371D02*
X299213D01*
Y626371D01*
X220473D02*
X299213D01*
X3548819Y882992D02*
Y1017992D01*
X3634819Y882992D02*
Y1017992D01*
X584239Y972487D02*
X674239D01*
X584239Y902487D02*
X674239D01*
X144900Y946487D02*
Y1036487D01*
X214900Y946487D02*
Y1036487D01*
X93561Y853487D02*
X183561D01*
X93561Y923487D02*
X183561D01*
X201794Y698405D02*
Y788405D01*
X271794Y698405D02*
Y788405D01*
X552900Y1125999D02*
Y1215999D01*
X622900Y1125999D02*
Y1215999D01*
X20000Y1119346D02*
Y1209346D01*
X90000Y1119346D02*
Y1209346D01*
X91270Y1120164D02*
Y1210164D01*
X161270Y1120164D02*
Y1210164D01*
X481270Y1125999D02*
Y1215999D01*
X551270Y1125999D02*
Y1215999D01*
X252270Y1125165D02*
Y1260165D01*
X338270Y1125165D02*
Y1260165D01*
X166900Y1125165D02*
Y1260165D01*
X252900Y1125165D02*
Y1260165D01*
X626900Y1127652D02*
Y1262652D01*
X712900Y1127652D02*
Y1262652D01*
X503914Y698386D02*
Y788386D01*
X573914Y698386D02*
Y788386D01*
X208931Y1370000D02*
X298931D01*
X208931Y1300000D02*
X298931D01*
X579000Y698405D02*
Y788405D01*
X649000Y698405D02*
Y788405D01*
X512609Y1300000D02*
X602609D01*
X512609Y1370000D02*
X602609D01*
X62223Y946487D02*
Y1036487D01*
X132223Y946487D02*
Y1036487D01*
X584239Y981345D02*
X674239D01*
X584239Y1051345D02*
X674239D01*
X426955Y698405D02*
Y788405D01*
X496955Y698405D02*
Y788405D01*
X356585Y698405D02*
Y788405D01*
X426585Y698405D02*
Y788405D01*
X280585Y698405D02*
Y788405D01*
X350585Y698405D02*
Y788405D01*
X1611481Y946487D02*
Y1036487D01*
X1681481Y946487D02*
Y1036487D01*
X1560142Y853487D02*
X1650142D01*
X1560142Y923487D02*
X1650142D01*
X1638587Y698012D02*
Y788012D01*
X1708587Y698012D02*
Y788012D01*
X2019481Y1125999D02*
Y1215999D01*
X2089481Y1125999D02*
Y1215999D01*
X1474000Y1125999D02*
Y1215999D01*
X1544000Y1125999D02*
Y1215999D01*
X1549000Y1125999D02*
Y1215999D01*
X1619000Y1125999D02*
Y1215999D01*
X1947851Y1125999D02*
Y1215999D01*
X2017851Y1125999D02*
Y1215999D01*
X1718851Y1125621D02*
Y1260621D01*
X1804851Y1125621D02*
Y1260621D01*
X1626457Y1125621D02*
Y1260621D01*
X1712457Y1125621D02*
Y1260621D01*
X2093481Y1127652D02*
Y1262652D01*
X2179481Y1127652D02*
Y1262652D01*
X1952536Y698405D02*
Y788405D01*
X2022536Y698405D02*
Y788405D01*
X2050760Y983756D02*
X2140760D01*
X2050760Y913756D02*
X2140760D01*
X1675512Y1370000D02*
X1765512D01*
X1675512Y1300000D02*
X1765512D01*
X2031906Y698405D02*
Y788405D01*
X2101906Y698405D02*
Y788405D01*
X1979189Y1300000D02*
X2069189D01*
X1979189Y1370000D02*
X2069189D01*
X1534000Y946487D02*
Y1036487D01*
X1604000Y946487D02*
Y1036487D01*
X2050760Y995827D02*
X2140760D01*
X2050760Y1065827D02*
X2140760D01*
X1875000Y698012D02*
Y788012D01*
X1945000Y698012D02*
Y788012D01*
X1791166Y698012D02*
Y788012D01*
X1861166Y698012D02*
Y788012D01*
X1711851Y698012D02*
Y788012D01*
X1781851Y698012D02*
Y788012D01*
X883625Y946487D02*
Y1036487D01*
X953625Y946487D02*
Y1036487D01*
X832286Y853487D02*
X922286D01*
X832286Y923487D02*
X922286D01*
X940000Y698012D02*
Y788012D01*
X1010000Y698012D02*
Y788012D01*
X1291625Y1125999D02*
Y1215999D01*
X1361625Y1125999D02*
Y1215999D01*
X748969Y1125857D02*
Y1215857D01*
X818969Y1125857D02*
Y1215857D01*
X823969Y1125857D02*
Y1215857D01*
X893969Y1125857D02*
Y1215857D01*
X1219995Y1125999D02*
Y1215999D01*
X1289995Y1125999D02*
Y1215999D01*
X990995Y1125479D02*
Y1260479D01*
X1076995Y1125479D02*
Y1260479D01*
X901426Y1125479D02*
Y1260479D01*
X987426Y1125479D02*
Y1260479D01*
X1365625Y1127652D02*
Y1262652D01*
X1451625Y1127652D02*
Y1262652D01*
X1242740Y698387D02*
Y788387D01*
X1312740Y698387D02*
Y788387D01*
X1322963Y972605D02*
X1412963D01*
X1322963Y902605D02*
X1412963D01*
X947656Y1370000D02*
X1037656D01*
X947656Y1300000D02*
X1037656D01*
X1317963Y698012D02*
Y788012D01*
X1387963Y698012D02*
Y788012D01*
X1251333Y1300000D02*
X1341333D01*
X1251333Y1370000D02*
X1341333D01*
X803969Y946487D02*
Y1036487D01*
X873969Y946487D02*
Y1036487D01*
X1322963Y981345D02*
X1412963D01*
X1322963Y1051345D02*
X1412963D01*
X1165680Y698405D02*
Y788405D01*
X1235680Y698405D02*
Y788405D01*
X1090000Y698405D02*
Y788405D01*
X1160000Y698405D02*
Y788405D01*
X1016570Y698405D02*
Y788405D01*
X1086570Y698405D02*
Y788405D01*
X1494000Y613339D02*
Y703339D01*
X1564000Y613339D02*
Y703339D01*
X1600984Y1551181D02*
Y1590551D01*
Y1551181D02*
X2200984Y1551181D01*
X1600984Y1799213D02*
Y1838583D01*
X1640354D01*
X2200984Y1551181D02*
Y1629921D01*
X2161614Y1838583D02*
X2200984D01*
Y1799213D02*
Y1838583D01*
X951378Y1551181D02*
Y1590551D01*
Y1551181D02*
X1551378Y1551181D01*
X951378Y1799213D02*
Y1838583D01*
X990748D01*
X1551378Y1551181D02*
Y1629921D01*
X1512008Y1838583D02*
X1551378D01*
Y1799213D02*
Y1838583D01*
X1565186Y613339D02*
Y703339D01*
X1635186Y613339D02*
Y703339D01*
X3733999Y917992D02*
Y1052992D01*
X3819999Y917992D02*
Y1052992D01*
X3642000Y917992D02*
Y1052992D01*
X3728000Y917992D02*
Y1052992D01*
X3456819Y882992D02*
Y1017992D01*
X3542819Y882992D02*
Y1017992D01*
X2678761Y850123D02*
X2768761D01*
X2678761Y780123D02*
X2768761D01*
X2770792Y953701D02*
X2860792D01*
X2770792Y1023701D02*
X2860792D01*
X2770792Y877717D02*
X2860792D01*
X2770792Y947717D02*
X2860792D01*
X2770792Y1027323D02*
X2860792D01*
X2770792Y1097323D02*
X2860792D01*
X3455000Y881339D02*
Y971339D01*
X3385000Y881339D02*
Y971339D01*
X2697942Y1261413D02*
X2796367D01*
X2741249Y1138579D02*
X2796367D01*
Y1175586D01*
Y1224405D02*
Y1261413D01*
X3400863Y1378583D02*
X3490863D01*
X3400863Y1448583D02*
X3490863D01*
X3400863Y1271417D02*
X3490863D01*
X3400863Y1201417D02*
X3490863D01*
X2559414Y1272398D02*
X2649414D01*
X2559414Y1202398D02*
X2649414D01*
X2559414Y1197594D02*
X2649414D01*
X2559414Y1127594D02*
X2649414D01*
X2384102Y865749D02*
Y955749D01*
X2454102Y865749D02*
Y955749D01*
X3006150Y1199016D02*
X3360481D01*
X2978591Y1454921D02*
X3006150D01*
X2978591Y1419488D02*
Y1454921D01*
X3006150D02*
X3360481D01*
X2328154Y337646D02*
X2418154D01*
X2328154Y407646D02*
X2418154D01*
X2414102Y460182D02*
Y550182D01*
X2484102Y460182D02*
Y550182D01*
X2175764Y340000D02*
X2265764D01*
X2175764Y410000D02*
X2265764D01*
X2175764Y749744D02*
X2265764D01*
X2175764Y819744D02*
X2265764D01*
X2570000Y319339D02*
Y409339D01*
X2640000Y319339D02*
Y409339D01*
X2721999Y319339D02*
Y409339D01*
X2651999Y319339D02*
Y409339D01*
X1322963Y831321D02*
X1412963D01*
X1322963Y901321D02*
X1412963D01*
X584239Y831984D02*
X674239D01*
X584239Y901984D02*
X674239D01*
X2050760Y833712D02*
X2140760D01*
X2050760Y903712D02*
X2140760D01*
X2705000Y1710000D02*
X2725000D01*
X2705000D02*
Y1730000D01*
Y1825000D02*
Y1860000D01*
Y1910000D01*
X2755000D01*
X2985000Y1710000D02*
X3005000D01*
Y1730000D01*
X2755000Y1910000D02*
X2790000D01*
X2985000D02*
X3005000D01*
Y1890000D02*
Y1910000D01*
X3140000Y1710000D02*
X3160000D01*
X3140000D02*
Y1730000D01*
Y1825000D02*
Y1860000D01*
Y1910000D01*
X3190000D01*
X3420000Y1710000D02*
X3440000D01*
Y1730000D01*
X3190000Y1910000D02*
X3225000D01*
X3420000D02*
X3440000D01*
Y1890000D02*
Y1910000D01*
X2454414Y1320000D02*
X2474414D01*
X2454414D02*
Y1340000D01*
Y1600000D02*
Y1620000D01*
X2474414D01*
X2634414Y1320000D02*
X2654414D01*
Y1340000D01*
X2569414Y1620000D02*
X2604414D01*
X2654414Y1535000D02*
Y1570000D01*
X2604414Y1620000D02*
X2654414D01*
Y1570000D02*
Y1620000D01*
X2591260Y627756D02*
Y722244D01*
Y627756D02*
X2748740D01*
X2591260Y722244D02*
X2748740D01*
Y627756D02*
Y722244D01*
X2591260Y479276D02*
Y573764D01*
Y479276D02*
X2748740D01*
X2591260Y573764D02*
X2748740D01*
Y479276D02*
Y573764D01*
X110237Y1416260D02*
Y1573740D01*
Y1416260D02*
X204725D01*
X110237Y1573740D02*
X204725D01*
Y1416260D02*
Y1573740D01*
X2731260Y362786D02*
Y457274D01*
Y362786D02*
X2888740D01*
X2731260Y457274D02*
X2888740D01*
Y362786D02*
Y457274D01*
X2765000Y285106D02*
X2855000D01*
X2765000Y355106D02*
X2855000D01*
X3400863Y1113938D02*
X3490863D01*
X3400863Y1183938D02*
X3490863D01*
X2810000Y683661D02*
Y773661D01*
X2880000Y683661D02*
Y773661D01*
X2680000Y1865000D02*
Y1920000D01*
X2450000Y1865000D02*
X2680000D01*
X2450000D02*
Y1925000D01*
X2524942Y444397D02*
X2560000Y409339D01*
X2524942Y444397D02*
Y542623D01*
Y680000D01*
X2440000Y780000D02*
X2548564D01*
Y680000D02*
Y780000D01*
X2440000Y680000D02*
X2548564D01*
X2440000D02*
Y780000D01*
X189527Y626371D02*
Y665000D01*
X161270Y693257D02*
X189527Y665000D01*
X118914Y693257D02*
X161270D01*
X24002Y641810D02*
X119556D01*
X24002Y693257D02*
X118914D01*
X24002Y745216D02*
X119556D01*
Y641810D02*
Y745216D01*
X24002Y641810D02*
Y745216D01*
X705000Y505000D02*
Y649900D01*
X630325Y505000D02*
Y650000D01*
X560000Y505000D02*
Y650000D01*
X491325Y505000D02*
Y650000D01*
X415000Y505000D02*
Y650000D01*
X315585Y589110D02*
Y665000D01*
Y589110D02*
X327195Y577500D01*
X350000D01*
Y650000D02*
X770000D01*
Y505000D02*
Y650000D01*
X350000Y505000D02*
X770000D01*
X350000D02*
Y650000D01*
X594009Y1855647D02*
Y1944963D01*
X301772Y1945000D02*
X901772D01*
X301772Y1850000D02*
Y1945000D01*
X901772Y1850000D02*
Y1945000D01*
X951378Y1850000D02*
Y1945000D01*
X1243616Y1855647D02*
Y1944963D01*
X951378Y1945000D02*
X1551378D01*
X1600984Y1850000D02*
X2200984D01*
X1600984Y1945000D02*
X2200984D01*
X1893222Y1855647D02*
Y1944963D01*
X2200984Y1850000D02*
Y1945000D01*
X1600984Y1850000D02*
Y1945000D01*
X1551378Y1850000D02*
Y1945000D01*
X951378Y1850000D02*
X1551378D01*
X301772D02*
X901772D01*
X2604414Y1272398D02*
Y1290000D01*
X2614414Y1300000D01*
X2735000D01*
X2750684Y1315684D01*
Y1335000D01*
X2705000Y1440000D02*
X2796367D01*
Y1335000D02*
Y1440000D01*
X2705000Y1335000D02*
X2796367D01*
X2705000D02*
Y1440000D01*
X2172395Y937487D02*
X2267487D01*
X2278756Y948756D01*
Y972487D01*
X2200000Y1130000D02*
X2355000D01*
Y972487D02*
Y1130000D01*
X2200000Y972487D02*
X2355000D01*
X2200000D02*
Y1130000D01*
X1441708Y902487D02*
X1474000D01*
X1506250Y870237D01*
Y841321D02*
Y870237D01*
X1441708Y730000D02*
Y841321D01*
X1570792D01*
Y730000D02*
Y841321D01*
X1441708Y730000D02*
X1570792D01*
X1224995Y634995D02*
Y658339D01*
X1215000Y625000D02*
X1224995Y634995D01*
X1185000Y625000D02*
X1215000D01*
X1125000Y515000D02*
Y655000D01*
X1068995Y516795D02*
Y655000D01*
X1010000Y516967D02*
Y655000D01*
X953625Y515000D02*
Y655000D01*
X884995Y516370D02*
Y655000D01*
X835000D02*
X1185000D01*
Y515000D02*
Y655000D01*
X835000Y515000D02*
X1185000D01*
X835000D02*
Y655000D01*
X709900Y937487D02*
X727513D01*
X746604Y918396D01*
Y890380D02*
Y918396D01*
Y820000D02*
Y905380D01*
X675000Y705000D02*
X818969D01*
X675000Y765000D02*
X818969D01*
X674239Y820000D02*
X818969D01*
Y650000D02*
Y820000D01*
X674239Y650000D02*
X818969D01*
X674239D02*
Y820000D01*
X37001Y702201D02*
X45332D01*
X41166D01*
Y727193D01*
X37001Y723027D01*
X74489Y702201D02*
X57828D01*
X74489Y718862D01*
Y723027D01*
X70324Y727193D01*
X61993D01*
X57828Y723027D01*
X82820Y727193D02*
Y710531D01*
X91150Y702201D01*
X99481Y710531D01*
Y727193D01*
X53662Y678637D02*
X49497Y682802D01*
X41166D01*
X37001Y678637D01*
Y661976D01*
X41166Y657810D01*
X49497D01*
X53662Y661976D01*
Y670306D01*
X45332D01*
X61993Y657810D02*
Y682802D01*
X78654Y657810D01*
Y682802D01*
X86985D02*
Y657810D01*
X99481D01*
X103646Y661976D01*
Y678637D01*
X99481Y682802D01*
X86985D01*
X690238Y724587D02*
Y749579D01*
X702734D01*
X706899Y745413D01*
Y737083D01*
X702734Y732917D01*
X690238D01*
X698569D02*
X706899Y724587D01*
X731891D02*
X715230D01*
X731891Y741248D01*
Y745413D01*
X727726Y749579D01*
X719395D01*
X715230Y745413D01*
X740222Y720421D02*
X756883D01*
X781875Y724587D02*
X765214D01*
X781875Y741248D01*
Y745413D01*
X777710Y749579D01*
X769379D01*
X765214Y745413D01*
X2943238Y1162379D02*
X2939073Y1158214D01*
Y1149883D01*
X2943238Y1145718D01*
X2947403D01*
X2951568Y1149883D01*
Y1158214D01*
X2955734Y1162379D01*
X2959899D01*
X2964064Y1158214D01*
Y1149883D01*
X2959899Y1145718D01*
X2943238Y1170710D02*
X2939073Y1174875D01*
Y1183206D01*
X2943238Y1187371D01*
X2947403D01*
X2951568Y1183206D01*
Y1179040D01*
Y1183206D01*
X2955734Y1187371D01*
X2959899D01*
X2964064Y1183206D01*
Y1174875D01*
X2959899Y1170710D01*
X3005263Y1016505D02*
X3030255D01*
Y1029001D01*
X3026090Y1033166D01*
X3021924D01*
X3017759Y1029001D01*
Y1016505D01*
Y1029001D01*
X3013594Y1033166D01*
X3009428D01*
X3005263Y1029001D01*
Y1016505D01*
Y1053993D02*
Y1045662D01*
X3009428Y1041497D01*
X3026090D01*
X3030255Y1045662D01*
Y1053993D01*
X3026090Y1058158D01*
X3009428D01*
X3005263Y1053993D01*
Y1078985D02*
Y1070654D01*
X3009428Y1066489D01*
X3026090D01*
X3030255Y1070654D01*
Y1078985D01*
X3026090Y1083150D01*
X3009428D01*
X3005263Y1078985D01*
Y1091481D02*
Y1108142D01*
Y1099811D01*
X3030255D01*
X2855066Y585382D02*
X2830074D01*
Y597878D01*
X2834239Y602043D01*
X2842570D01*
X2846735Y597878D01*
Y585382D01*
Y593713D02*
X2855066Y602043D01*
Y627035D02*
Y610374D01*
X2838405Y627035D01*
X2834239D01*
X2830074Y622870D01*
Y614539D01*
X2834239Y610374D01*
Y635366D02*
X2830074Y639531D01*
Y647862D01*
X2834239Y652027D01*
X2838405D01*
X2842570Y647862D01*
Y643696D01*
Y647862D01*
X2846735Y652027D01*
X2850901D01*
X2855066Y647862D01*
Y639531D01*
X2850901Y635366D01*
X3532623Y1138477D02*
Y1163469D01*
X3545119D01*
X3549285Y1159303D01*
Y1150973D01*
X3545119Y1146807D01*
X3532623D01*
X3540954D02*
X3549285Y1138477D01*
X3574276D02*
X3557615D01*
X3574276Y1155138D01*
Y1159303D01*
X3570111Y1163469D01*
X3561780D01*
X3557615Y1159303D01*
X3599268Y1138477D02*
X3582607D01*
X3599268Y1155138D01*
Y1159303D01*
X3595103Y1163469D01*
X3586772D01*
X3582607Y1159303D01*
X2825843Y238138D02*
Y263130D01*
X2838339D01*
X2842504Y258964D01*
Y250634D01*
X2838339Y246468D01*
X2825843D01*
X2834173D02*
X2842504Y238138D01*
X2867496D02*
X2850835D01*
X2867496Y254799D01*
Y258964D01*
X2863331Y263130D01*
X2855000D01*
X2850835Y258964D01*
X2875827Y238138D02*
X2884157D01*
X2879992D01*
Y263130D01*
X2875827Y258964D01*
X295828Y75413D02*
X291662Y79579D01*
X283332D01*
X279166Y75413D01*
Y71248D01*
X283332Y67083D01*
X291662D01*
X295828Y62917D01*
Y58752D01*
X291662Y54587D01*
X283332D01*
X279166Y58752D01*
X320820Y54587D02*
X304158D01*
X320820Y71248D01*
Y75413D01*
X316654Y79579D01*
X308324D01*
X304158Y75413D01*
X329150Y50421D02*
X345811D01*
X370803Y54587D02*
X354142D01*
X370803Y71248D01*
Y75413D01*
X366638Y79579D01*
X358307D01*
X354142Y75413D01*
X778279Y100413D02*
X774113Y104579D01*
X765783D01*
X761617Y100413D01*
Y96248D01*
X765783Y92083D01*
X774113D01*
X778279Y87917D01*
Y83752D01*
X774113Y79587D01*
X765783D01*
X761617Y83752D01*
X803270Y79587D02*
X786609D01*
X803270Y96248D01*
Y100413D01*
X799105Y104579D01*
X790774D01*
X786609Y100413D01*
X811601Y75421D02*
X828262D01*
X836593Y79587D02*
X844923D01*
X840758D01*
Y104579D01*
X836593Y100413D01*
X1630843Y105413D02*
X1626678Y109579D01*
X1618347D01*
X1614181Y105413D01*
Y101248D01*
X1618347Y97083D01*
X1626678D01*
X1630843Y92917D01*
Y88752D01*
X1626678Y84587D01*
X1618347D01*
X1614181Y88752D01*
X1655835Y84587D02*
X1639173D01*
X1655835Y101248D01*
Y105413D01*
X1651669Y109579D01*
X1643339D01*
X1639173Y105413D01*
X1664165Y80421D02*
X1680827D01*
X1689157Y105413D02*
X1693322Y109579D01*
X1701653D01*
X1705819Y105413D01*
Y101248D01*
X1701653Y97083D01*
X1697488D01*
X1701653D01*
X1705819Y92917D01*
Y88752D01*
X1701653Y84587D01*
X1693322D01*
X1689157Y88752D01*
X245967Y274505D02*
Y299497D01*
X258463D01*
X262628Y295331D01*
Y287001D01*
X258463Y282835D01*
X245967D01*
X287620Y299497D02*
X270959D01*
Y287001D01*
X279290Y291166D01*
X283455D01*
X287620Y287001D01*
Y278670D01*
X283455Y274505D01*
X275124D01*
X270959Y278670D01*
X741678Y1477496D02*
X758339D01*
X750008D01*
Y1452504D01*
X766669D02*
Y1477496D01*
X779165D01*
X783331Y1473331D01*
Y1465000D01*
X779165Y1460835D01*
X766669D01*
X808323Y1477496D02*
X791661D01*
Y1465000D01*
X799992Y1469165D01*
X804157D01*
X808323Y1465000D01*
Y1456669D01*
X804157Y1452504D01*
X795827D01*
X791661Y1456669D01*
X857308Y1473331D02*
X853143Y1477496D01*
X844812D01*
X840646Y1473331D01*
Y1456669D01*
X844812Y1452504D01*
X853143D01*
X857308Y1456669D01*
Y1465000D01*
X848977D01*
X865638Y1452504D02*
Y1477496D01*
X882300Y1452504D01*
Y1477496D01*
X890630D02*
Y1452504D01*
X903126D01*
X907292Y1456669D01*
Y1473331D01*
X903126Y1477496D01*
X890630D01*
X2821677Y529174D02*
X2838339D01*
X2830008D01*
Y504182D01*
X2846669D02*
Y529174D01*
X2859165D01*
X2863331Y525008D01*
Y516678D01*
X2859165Y512512D01*
X2846669D01*
X2884157Y504182D02*
Y529174D01*
X2871661Y516678D01*
X2888323D01*
X2838339Y487607D02*
X2834173Y491772D01*
X2825843D01*
X2821677Y487607D01*
Y470945D01*
X2825843Y466780D01*
X2834173D01*
X2838339Y470945D01*
Y479276D01*
X2830008D01*
X2846669Y466780D02*
Y491772D01*
X2863331Y466780D01*
Y491772D01*
X2871661D02*
Y466780D01*
X2884157D01*
X2888323Y470945D01*
Y487607D01*
X2884157Y491772D01*
X2871661D01*
X72504Y1416678D02*
Y1433339D01*
Y1425008D01*
X97496D01*
Y1441669D02*
X72504D01*
Y1454165D01*
X76669Y1458331D01*
X85000D01*
X89165Y1454165D01*
Y1441669D01*
X76669Y1466661D02*
X72504Y1470827D01*
Y1479157D01*
X76669Y1483323D01*
X80835D01*
X85000Y1479157D01*
Y1474992D01*
Y1479157D01*
X89165Y1483323D01*
X93331D01*
X97496Y1479157D01*
Y1470827D01*
X93331Y1466661D01*
X2591018Y612001D02*
X2607680D01*
X2599349D01*
Y587010D01*
X2616010D02*
Y612001D01*
X2628506D01*
X2632672Y607836D01*
Y599505D01*
X2628506Y595340D01*
X2616010D01*
X2657664Y587010D02*
X2641002D01*
X2657664Y603671D01*
Y607836D01*
X2653498Y612001D01*
X2645168D01*
X2641002Y607836D01*
X2688470Y606685D02*
X2692635Y610850D01*
X2700966D01*
X2705131Y606685D01*
Y602519D01*
X2700966Y598354D01*
X2696800D01*
X2700966D01*
X2705131Y594189D01*
Y590023D01*
X2700966Y585858D01*
X2692635D01*
X2688470Y590023D01*
X2713461Y610850D02*
Y594189D01*
X2721792Y585858D01*
X2730123Y594189D01*
Y610850D01*
X2738453Y606685D02*
X2742619Y610850D01*
X2750949D01*
X2755115Y606685D01*
Y602519D01*
X2750949Y598354D01*
X2746784D01*
X2750949D01*
X2755115Y594189D01*
Y590023D01*
X2750949Y585858D01*
X2742619D01*
X2738453Y590023D01*
X2594032Y762240D02*
X2610693D01*
X2602362D01*
Y737248D01*
X2619023D02*
Y762240D01*
X2631519D01*
X2635685Y758074D01*
Y749744D01*
X2631519Y745578D01*
X2619023D01*
X2644015Y737248D02*
X2652346D01*
X2648181D01*
Y762240D01*
X2644015Y758074D01*
X2717627Y762240D02*
X2700965D01*
Y749744D01*
X2709296Y753909D01*
X2713461D01*
X2717627Y749744D01*
Y741413D01*
X2713461Y737248D01*
X2705131D01*
X2700965Y741413D01*
X2725957Y762240D02*
Y745578D01*
X2734288Y737248D01*
X2742619Y745578D01*
Y762240D01*
X3491677Y1682504D02*
Y1707496D01*
X3504173D01*
X3508339Y1703331D01*
Y1695000D01*
X3504173Y1690835D01*
X3491677D01*
X3500008D02*
X3508339Y1682504D01*
X3533331D02*
X3516669D01*
X3533331Y1699165D01*
Y1703331D01*
X3529165Y1707496D01*
X3520835D01*
X3516669Y1703331D01*
X3541661D02*
X3545827Y1707496D01*
X3554157D01*
X3558323Y1703331D01*
Y1686669D01*
X3554157Y1682504D01*
X3545827D01*
X3541661Y1686669D01*
Y1703331D01*
X3493760Y1912504D02*
Y1937496D01*
X3506256D01*
X3510421Y1933331D01*
Y1925000D01*
X3506256Y1920835D01*
X3493760D01*
X3502091D02*
X3510421Y1912504D01*
X3518752D02*
X3527083D01*
X3522917D01*
Y1937496D01*
X3518752Y1933331D01*
X3539579Y1916669D02*
X3543744Y1912504D01*
X3552075D01*
X3556240Y1916669D01*
Y1933331D01*
X3552075Y1937496D01*
X3543744D01*
X3539579Y1933331D01*
Y1929165D01*
X3543744Y1925000D01*
X3556240D01*
X3617496Y1558760D02*
X3592504D01*
Y1571256D01*
X3596669Y1575421D01*
X3605000D01*
X3609165Y1571256D01*
Y1558760D01*
Y1567091D02*
X3617496Y1575421D01*
Y1583752D02*
Y1592083D01*
Y1587917D01*
X3592504D01*
X3596669Y1583752D01*
Y1604579D02*
X3592504Y1608744D01*
Y1617075D01*
X3596669Y1621240D01*
X3600835D01*
X3605000Y1617075D01*
X3609165Y1621240D01*
X3613331D01*
X3617496Y1617075D01*
Y1608744D01*
X3613331Y1604579D01*
X3609165D01*
X3605000Y1608744D01*
X3600835Y1604579D01*
X3596669D01*
X3605000Y1608744D02*
Y1617075D01*
X2233347Y1015413D02*
X2229182Y1019579D01*
X2220851D01*
X2216686Y1015413D01*
Y998752D01*
X2220851Y994587D01*
X2229182D01*
X2233347Y998752D01*
X2258339Y994587D02*
X2241678D01*
X2258339Y1011248D01*
Y1015413D01*
X2254174Y1019579D01*
X2245843D01*
X2241678Y1015413D01*
X2279166Y994587D02*
Y1019579D01*
X2266670Y1007083D01*
X2283331D01*
X2291662Y990421D02*
X2308323D01*
X2316654Y1015413D02*
X2320819Y1019579D01*
X2329150D01*
X2333315Y1015413D01*
Y1011248D01*
X2329150Y1007083D01*
X2324984D01*
X2329150D01*
X2333315Y1002917D01*
Y998752D01*
X2329150Y994587D01*
X2320819D01*
X2316654Y998752D01*
X706900Y685413D02*
X702735Y689579D01*
X694404D01*
X690239Y685413D01*
Y668752D01*
X694404Y664587D01*
X702735D01*
X706900Y668752D01*
X731892Y664587D02*
X715230D01*
X731892Y681248D01*
Y685413D01*
X727726Y689579D01*
X719396D01*
X715230Y685413D01*
X752718Y664587D02*
Y689579D01*
X740222Y677083D01*
X756884D01*
X765214Y660421D02*
X781875D01*
X806867Y664587D02*
X790206D01*
X806867Y681248D01*
Y685413D01*
X802702Y689579D01*
X794371D01*
X790206Y685413D01*
X1468762Y820413D02*
X1464597Y824579D01*
X1456266D01*
X1452101Y820413D01*
Y803752D01*
X1456266Y799587D01*
X1464597D01*
X1468762Y803752D01*
X1493754Y799587D02*
X1477093D01*
X1493754Y816248D01*
Y820413D01*
X1489589Y824579D01*
X1481258D01*
X1477093Y820413D01*
X1514581Y799587D02*
Y824579D01*
X1502085Y812083D01*
X1518746D01*
X1527077Y795421D02*
X1543738D01*
X1552069Y799587D02*
X1560399D01*
X1556234D01*
Y824579D01*
X1552069Y820413D01*
X2890087Y734173D02*
X2910914D01*
X2915079Y738339D01*
Y746669D01*
X2910914Y750835D01*
X2890087D01*
X2915079Y775827D02*
Y759165D01*
X2898418Y775827D01*
X2894253D01*
X2890087Y771661D01*
Y763331D01*
X2894253Y759165D01*
X2527956Y697451D02*
X2502965D01*
Y709947D01*
X2507130Y714113D01*
X2515461D01*
X2519626Y709947D01*
Y697451D01*
Y705782D02*
X2527956Y714113D01*
Y722443D02*
Y730774D01*
Y726609D01*
X2502965D01*
X2507130Y722443D01*
X2502965Y743270D02*
Y759931D01*
X2507130D01*
X2523791Y743270D01*
X2527956D01*
X2457504Y698174D02*
X2482496D01*
Y710670D01*
X2478331Y714835D01*
X2461669D01*
X2457504Y710670D01*
Y698174D01*
X2482496Y739827D02*
Y723166D01*
X2465835Y739827D01*
X2461669D01*
X2457504Y735662D01*
Y727331D01*
X2461669Y723166D01*
X2203339Y868331D02*
X2199173Y872496D01*
X2190843D01*
X2186677Y868331D01*
Y851669D01*
X2190843Y847504D01*
X2199173D01*
X2203339Y851669D01*
X2228331Y847504D02*
X2211669D01*
X2228331Y864165D01*
Y868331D01*
X2224165Y872496D01*
X2215835D01*
X2211669Y868331D01*
X2236661D02*
X2240827Y872496D01*
X2249157D01*
X2253323Y868331D01*
Y864165D01*
X2249157Y860000D01*
X2244992D01*
X2249157D01*
X2253323Y855835D01*
Y851669D01*
X2249157Y847504D01*
X2240827D01*
X2236661Y851669D01*
X2093339Y383331D02*
X2089173Y387496D01*
X2080843D01*
X2076677Y383331D01*
Y366669D01*
X2080843Y362504D01*
X2089173D01*
X2093339Y366669D01*
X2118331Y362504D02*
X2101669D01*
X2118331Y379165D01*
Y383331D01*
X2114165Y387496D01*
X2105835D01*
X2101669Y383331D01*
X2143323Y362504D02*
X2126661D01*
X2143323Y379165D01*
Y383331D01*
X2139157Y387496D01*
X2130827D01*
X2126661Y383331D01*
X2433662Y620331D02*
X2429497Y624496D01*
X2421166D01*
X2417001Y620331D01*
Y603670D01*
X2421166Y599504D01*
X2429497D01*
X2433662Y603670D01*
X2458654Y599504D02*
X2441992D01*
X2458654Y616166D01*
Y620331D01*
X2454488Y624496D01*
X2446158D01*
X2441992Y620331D01*
X2466984Y599504D02*
X2475315D01*
X2471150D01*
Y624496D01*
X2466984Y620331D01*
X2471651Y380977D02*
X2467485Y385142D01*
X2459155D01*
X2454989Y380977D01*
Y364316D01*
X2459155Y360151D01*
X2467485D01*
X2471651Y364316D01*
X2496642Y360151D02*
X2479981D01*
X2496642Y376812D01*
Y380977D01*
X2492477Y385142D01*
X2484146D01*
X2479981Y380977D01*
X2504973D02*
X2509138Y385142D01*
X2517469D01*
X2521634Y380977D01*
Y364316D01*
X2517469Y360151D01*
X2509138D01*
X2504973Y364316D01*
Y380977D01*
X2943238Y1428432D02*
X2939073Y1424267D01*
Y1415936D01*
X2943238Y1411771D01*
X2947403D01*
X2951568Y1415936D01*
Y1424267D01*
X2955734Y1428432D01*
X2959899D01*
X2964064Y1424267D01*
Y1415936D01*
X2959899Y1411771D01*
X2964064Y1436763D02*
Y1445093D01*
Y1440928D01*
X2939073D01*
X2943238Y1436763D01*
X3028970Y1298983D02*
X3003978D01*
Y1311478D01*
X3008144Y1315644D01*
X3016474D01*
X3020640Y1311478D01*
Y1298983D01*
Y1307313D02*
X3028970Y1315644D01*
X3008144Y1340636D02*
X3003978Y1336470D01*
Y1328140D01*
X3008144Y1323974D01*
X3012309D01*
X3016474Y1328140D01*
Y1336470D01*
X3020640Y1340636D01*
X3024805D01*
X3028970Y1336470D01*
Y1328140D01*
X3024805Y1323974D01*
X3003978Y1348966D02*
Y1365628D01*
Y1357297D01*
X3028970D01*
X2471606Y1025749D02*
X2492433D01*
X2496598Y1029914D01*
Y1038245D01*
X2492433Y1042410D01*
X2471606D01*
X2475772Y1050741D02*
X2471606Y1054906D01*
Y1063237D01*
X2475772Y1067402D01*
X2479937D01*
X2484102Y1063237D01*
Y1059071D01*
Y1063237D01*
X2488268Y1067402D01*
X2492433D01*
X2496598Y1063237D01*
Y1054906D01*
X2492433Y1050741D01*
X2357496Y878760D02*
X2332504D01*
Y891256D01*
X2336669Y895422D01*
X2345000D01*
X2349165Y891256D01*
Y878760D01*
Y887091D02*
X2357496Y895422D01*
Y903752D02*
Y912083D01*
Y907917D01*
X2332504D01*
X2336669Y903752D01*
Y924579D02*
X2332504Y928744D01*
Y937075D01*
X2336669Y941240D01*
X2340834D01*
X2345000Y937075D01*
Y932909D01*
Y937075D01*
X2349165Y941240D01*
X2353331D01*
X2357496Y937075D01*
Y928744D01*
X2353331Y924579D01*
X2721000Y1352504D02*
Y1377496D01*
X2733496D01*
X2737661Y1373331D01*
Y1365000D01*
X2733496Y1360835D01*
X2721000D01*
X2729331D02*
X2737661Y1352504D01*
X2745992D02*
X2754323D01*
X2750157D01*
Y1377496D01*
X2745992Y1373331D01*
X2783480Y1352504D02*
X2766818D01*
X2783480Y1369165D01*
Y1373331D01*
X2779314Y1377496D01*
X2770984D01*
X2766818Y1373331D01*
X2721000Y1397504D02*
Y1422496D01*
X2733496D01*
X2737661Y1418331D01*
Y1410000D01*
X2733496Y1405835D01*
X2721000D01*
X2729331D02*
X2737661Y1397504D01*
X2745992D02*
X2754323D01*
X2750157D01*
Y1422496D01*
X2745992Y1418331D01*
X2766818Y1397504D02*
X2775149D01*
X2770984D01*
Y1422496D01*
X2766818Y1418331D01*
X3417348Y1286172D02*
Y1311164D01*
X3429844D01*
X3434009Y1306999D01*
Y1298668D01*
X3429844Y1294503D01*
X3417348D01*
X3425679D02*
X3434009Y1286172D01*
X3442340D02*
X3450671D01*
X3446505D01*
Y1311164D01*
X3442340Y1306999D01*
X3463167D02*
X3467332Y1311164D01*
X3475663D01*
X3479828Y1306999D01*
Y1290338D01*
X3475663Y1286172D01*
X3467332D01*
X3463167Y1290338D01*
Y1306999D01*
X3426000Y1332791D02*
Y1357783D01*
X3438496D01*
X3442661Y1353617D01*
Y1345287D01*
X3438496Y1341121D01*
X3426000D01*
X3434331D02*
X3442661Y1332791D01*
X3450992Y1336956D02*
X3455157Y1332791D01*
X3463488D01*
X3467653Y1336956D01*
Y1353617D01*
X3463488Y1357783D01*
X3455157D01*
X3450992Y1353617D01*
Y1349452D01*
X3455157Y1345287D01*
X3467653D01*
X2420835Y1281669D02*
Y1298331D01*
X2416669Y1302496D01*
X2408339D01*
X2404173Y1298331D01*
Y1281669D01*
X2408339Y1277504D01*
X2416669D01*
X2412504Y1285835D02*
X2420835Y1277504D01*
X2416669D02*
X2420835Y1281669D01*
X2445827Y1277504D02*
X2429165D01*
X2445827Y1294165D01*
Y1298331D01*
X2441661Y1302496D01*
X2433331D01*
X2429165Y1298331D01*
X2780000Y1281669D02*
Y1298331D01*
X2775835Y1302496D01*
X2767504D01*
X2763339Y1298331D01*
Y1281669D01*
X2767504Y1277504D01*
X2775835D01*
X2771669Y1285835D02*
X2780000Y1277504D01*
X2775835D02*
X2780000Y1281669D01*
X2788331Y1277504D02*
X2796661D01*
X2792496D01*
Y1302496D01*
X2788331Y1298331D01*
X3411669Y1040653D02*
X3407504Y1036488D01*
Y1028158D01*
X3411669Y1023992D01*
X3428331D01*
X3432496Y1028158D01*
Y1036488D01*
X3428331Y1040653D01*
X3432496Y1048984D02*
Y1057315D01*
Y1053149D01*
X3407504D01*
X3411669Y1048984D01*
X3428331Y1069811D02*
X3432496Y1073976D01*
Y1082307D01*
X3428331Y1086472D01*
X3411669D01*
X3407504Y1082307D01*
Y1073976D01*
X3411669Y1069811D01*
X3415834D01*
X3420000Y1073976D01*
Y1086472D01*
X2905421Y1078528D02*
X2901256Y1082694D01*
X2892925D01*
X2888760Y1078528D01*
Y1061867D01*
X2892925Y1057702D01*
X2901256D01*
X2905421Y1061867D01*
X2913752Y1057702D02*
X2922083D01*
X2917917D01*
Y1082694D01*
X2913752Y1078528D01*
X2934579D02*
X2938744Y1082694D01*
X2947075D01*
X2951240Y1078528D01*
Y1074363D01*
X2947075Y1070198D01*
X2951240Y1066032D01*
Y1061867D01*
X2947075Y1057702D01*
X2938744D01*
X2934579Y1061867D01*
Y1066032D01*
X2938744Y1070198D01*
X2934579Y1074363D01*
Y1078528D01*
X2938744Y1070198D02*
X2947075D01*
X2905421Y918331D02*
X2901256Y922496D01*
X2892925D01*
X2888760Y918331D01*
Y901669D01*
X2892925Y897504D01*
X2901256D01*
X2905421Y901669D01*
X2913752Y897504D02*
X2922083D01*
X2917917D01*
Y922496D01*
X2913752Y918331D01*
X2934579Y922496D02*
X2951240D01*
Y918331D01*
X2934579Y901669D01*
Y897504D01*
X2905421Y998331D02*
X2901256Y1002496D01*
X2892925D01*
X2888760Y998331D01*
Y981669D01*
X2892925Y977504D01*
X2901256D01*
X2905421Y981669D01*
X2913752Y977504D02*
X2922083D01*
X2917917D01*
Y1002496D01*
X2913752Y998331D01*
X2951240Y1002496D02*
X2942909Y998331D01*
X2934579Y990000D01*
Y981669D01*
X2938744Y977504D01*
X2947075D01*
X2951240Y981669D01*
Y985835D01*
X2947075Y990000D01*
X2934579D01*
X2827447Y822803D02*
X2823281Y826968D01*
X2814951D01*
X2810785Y822803D01*
Y806142D01*
X2814951Y801976D01*
X2823281D01*
X2827447Y806142D01*
X2835777Y801976D02*
X2844108D01*
X2839943D01*
Y826968D01*
X2835777Y822803D01*
X2873265Y826968D02*
X2856604D01*
Y814472D01*
X2864934Y818638D01*
X2869100D01*
X2873265Y814472D01*
Y806142D01*
X2869100Y801976D01*
X2860769D01*
X2856604Y806142D01*
X3581806Y1075653D02*
X3577641Y1071488D01*
Y1063157D01*
X3581806Y1058992D01*
X3598468D01*
X3602633Y1063157D01*
Y1071488D01*
X3598468Y1075653D01*
X3602633Y1083984D02*
Y1092315D01*
Y1088149D01*
X3577641D01*
X3581806Y1083984D01*
X3602633Y1117307D02*
X3577641D01*
X3590137Y1104811D01*
Y1121472D01*
X3526438Y1075653D02*
X3522273Y1071488D01*
Y1063158D01*
X3526438Y1058992D01*
X3543099D01*
X3547265Y1063158D01*
Y1071488D01*
X3543099Y1075653D01*
X3547265Y1083984D02*
Y1092315D01*
Y1088149D01*
X3522273D01*
X3526438Y1083984D01*
Y1104811D02*
X3522273Y1108976D01*
Y1117307D01*
X3526438Y1121472D01*
X3530603D01*
X3534769Y1117307D01*
Y1113141D01*
Y1117307D01*
X3538934Y1121472D01*
X3543099D01*
X3547265Y1117307D01*
Y1108976D01*
X3543099Y1104811D01*
X3675740Y1104733D02*
X3671575Y1100568D01*
Y1092237D01*
X3675740Y1088072D01*
X3692402D01*
X3696567Y1092237D01*
Y1100568D01*
X3692402Y1104733D01*
X3696567Y1113064D02*
Y1121394D01*
Y1117229D01*
X3671575D01*
X3675740Y1113064D01*
X3696567Y1150552D02*
Y1133890D01*
X3679906Y1150552D01*
X3675740D01*
X3671575Y1146386D01*
Y1138056D01*
X3675740Y1133890D01*
X3861669Y962661D02*
X3857504Y958496D01*
Y950165D01*
X3861669Y946000D01*
X3878331D01*
X3882496Y950165D01*
Y958496D01*
X3878331Y962661D01*
X3882496Y970992D02*
Y979322D01*
Y975157D01*
X3857504D01*
X3861669Y970992D01*
X3882496Y991818D02*
Y1000149D01*
Y995984D01*
X3857504D01*
X3861669Y991818D01*
X1647681Y539173D02*
X1622690D01*
Y551669D01*
X1626855Y555835D01*
X1635186D01*
X1639351Y551669D01*
Y539173D01*
Y547504D02*
X1647681Y555835D01*
X1626855Y564165D02*
X1622690Y568331D01*
Y576661D01*
X1626855Y580827D01*
X1631020D01*
X1635186Y576661D01*
X1639351Y580827D01*
X1643516D01*
X1647681Y576661D01*
Y568331D01*
X1643516Y564165D01*
X1639351D01*
X1635186Y568331D01*
X1631020Y564165D01*
X1626855D01*
X1635186Y568331D02*
Y576661D01*
X1429213Y638339D02*
X1454204D01*
Y650835D01*
X1450039Y655000D01*
X1433378D01*
X1429213Y650835D01*
Y638339D01*
X1454204Y663331D02*
Y671661D01*
Y667496D01*
X1429213D01*
X1433378Y663331D01*
X1105429Y1159579D02*
Y1138752D01*
X1109595Y1134587D01*
X1117926D01*
X1122091Y1138752D01*
Y1159579D01*
X1130421Y1134587D02*
X1138752D01*
X1134587D01*
Y1159579D01*
X1130421Y1155413D01*
X1151248Y1130421D02*
X1167909D01*
X1176240Y1134587D02*
X1184571D01*
X1180405D01*
Y1159579D01*
X1176240Y1155413D01*
X930413Y536000D02*
X905421D01*
Y548496D01*
X909587Y552661D01*
X917917D01*
X922083Y548496D01*
Y536000D01*
Y544331D02*
X930413Y552661D01*
Y560992D02*
Y569322D01*
Y565157D01*
X905421D01*
X909587Y560992D01*
X905421Y598480D02*
X909587Y590149D01*
X917917Y581818D01*
X926248D01*
X930413Y585984D01*
Y594314D01*
X926248Y598480D01*
X922083D01*
X917917Y594314D01*
Y581818D01*
X934579Y606810D02*
Y623472D01*
X930413Y631802D02*
Y640133D01*
Y635968D01*
X905421D01*
X909587Y631802D01*
X995327Y536000D02*
X970335D01*
Y548496D01*
X974501Y552661D01*
X982831D01*
X986997Y548496D01*
Y536000D01*
Y544331D02*
X995327Y552661D01*
Y560992D02*
Y569323D01*
Y565157D01*
X970335D01*
X974501Y560992D01*
X970335Y598480D02*
Y581819D01*
X982831D01*
X978666Y590149D01*
Y594315D01*
X982831Y598480D01*
X991162D01*
X995327Y594315D01*
Y585984D01*
X991162Y581819D01*
X999492Y606811D02*
Y623472D01*
X995327Y631802D02*
Y640133D01*
Y635968D01*
X970335D01*
X974501Y631802D01*
X1050413Y536000D02*
X1025421D01*
Y548496D01*
X1029587Y552661D01*
X1037917D01*
X1042083Y548496D01*
Y536000D01*
Y544331D02*
X1050413Y552661D01*
Y560992D02*
Y569322D01*
Y565157D01*
X1025421D01*
X1029587Y560992D01*
X1050413Y594314D02*
X1025421D01*
X1037917Y581818D01*
Y598480D01*
X1054579Y606810D02*
Y623472D01*
X1050413Y631802D02*
Y640133D01*
Y635967D01*
X1025421D01*
X1029587Y631802D01*
X1332397Y1067822D02*
Y1092814D01*
X1344893D01*
X1349058Y1088648D01*
Y1080318D01*
X1344893Y1076152D01*
X1332397D01*
X1340727D02*
X1349058Y1067822D01*
X1357389Y1092814D02*
X1374050D01*
Y1088648D01*
X1357389Y1071987D01*
Y1067822D01*
X1382381Y1063657D02*
X1399042D01*
X1407372Y1067822D02*
X1415703D01*
X1411538D01*
Y1092814D01*
X1407372Y1088648D01*
X778382Y942842D02*
X753390D01*
Y955338D01*
X757556Y959503D01*
X765886D01*
X770052Y955338D01*
Y942842D01*
Y951173D02*
X778382Y959503D01*
X753390Y984495D02*
X757556Y976164D01*
X765886Y967834D01*
X774217D01*
X778382Y971999D01*
Y980330D01*
X774217Y984495D01*
X770052D01*
X765886Y980330D01*
Y967834D01*
X782548Y992826D02*
Y1009487D01*
X778382Y1017818D02*
Y1026148D01*
Y1021983D01*
X753390D01*
X757556Y1017818D01*
X1248347Y1399587D02*
Y1424579D01*
X1260843D01*
X1265008Y1420413D01*
Y1412083D01*
X1260843Y1407917D01*
X1248347D01*
X1256678D02*
X1265008Y1399587D01*
X1290000Y1424579D02*
X1273339D01*
Y1412083D01*
X1281669Y1416248D01*
X1285835D01*
X1290000Y1412083D01*
Y1403752D01*
X1285835Y1399587D01*
X1277504D01*
X1273339Y1403752D01*
X1298331Y1395421D02*
X1314992D01*
X1323323Y1399587D02*
X1331653D01*
X1327488D01*
Y1424579D01*
X1323323Y1420413D01*
X1165413Y536000D02*
X1140421D01*
Y548496D01*
X1144587Y552661D01*
X1152917D01*
X1157083Y548496D01*
Y536000D01*
Y544331D02*
X1165413Y552661D01*
Y573488D02*
X1140421D01*
X1152917Y560992D01*
Y577653D01*
X1169579Y585984D02*
Y602645D01*
X1165413Y610976D02*
Y619306D01*
Y615141D01*
X1140421D01*
X1144587Y610976D01*
X949095Y1394587D02*
Y1419579D01*
X961591D01*
X965756Y1415413D01*
Y1407083D01*
X961591Y1402917D01*
X949095D01*
X957426D02*
X965756Y1394587D01*
X974087Y1415413D02*
X978252Y1419579D01*
X986583D01*
X990748Y1415413D01*
Y1411248D01*
X986583Y1407083D01*
X982418D01*
X986583D01*
X990748Y1402917D01*
Y1398752D01*
X986583Y1394587D01*
X978252D01*
X974087Y1398752D01*
X999079Y1390421D02*
X1015740D01*
X1024071Y1394587D02*
X1032401D01*
X1028236D01*
Y1419579D01*
X1024071Y1415413D01*
X1453347Y749587D02*
Y774579D01*
X1465843D01*
X1470008Y770413D01*
Y762083D01*
X1465843Y757917D01*
X1453347D01*
X1461678D02*
X1470008Y749587D01*
X1495000D02*
X1478339D01*
X1495000Y766248D01*
Y770413D01*
X1490835Y774579D01*
X1482504D01*
X1478339Y770413D01*
X1503331Y745421D02*
X1519992D01*
X1528323Y749587D02*
X1536653D01*
X1532488D01*
Y774579D01*
X1528323Y770413D01*
X1105413Y535999D02*
X1080421D01*
Y548495D01*
X1084587Y552661D01*
X1092917D01*
X1097083Y548495D01*
Y535999D01*
Y544330D02*
X1105413Y552661D01*
Y560991D02*
Y569322D01*
Y565157D01*
X1080421D01*
X1084587Y560991D01*
X1109579Y581818D02*
Y598479D01*
X1105413Y606810D02*
Y615140D01*
Y610975D01*
X1080421D01*
X1084587Y606810D01*
X1419587Y1312661D02*
X1415421Y1308496D01*
Y1300165D01*
X1419587Y1296000D01*
X1436248D01*
X1440413Y1300165D01*
Y1308496D01*
X1436248Y1312661D01*
X1440413Y1320992D02*
Y1329322D01*
Y1325157D01*
X1415421D01*
X1419587Y1320992D01*
Y1341818D02*
X1415421Y1345984D01*
Y1354314D01*
X1419587Y1358480D01*
X1436248D01*
X1440413Y1354314D01*
Y1345984D01*
X1436248Y1341818D01*
X1419587D01*
X1444579Y1366810D02*
Y1383472D01*
X1440413Y1391802D02*
Y1400133D01*
Y1395967D01*
X1415421D01*
X1419587Y1391802D01*
X1066581Y1322661D02*
X1062416Y1318496D01*
Y1310165D01*
X1066581Y1306000D01*
X1083243D01*
X1087408Y1310165D01*
Y1318496D01*
X1083243Y1322661D01*
Y1330992D02*
X1087408Y1335157D01*
Y1343488D01*
X1083243Y1347653D01*
X1066581D01*
X1062416Y1343488D01*
Y1335157D01*
X1066581Y1330992D01*
X1070747D01*
X1074912Y1335157D01*
Y1347653D01*
X1091573Y1355984D02*
Y1372645D01*
X1087408Y1380976D02*
Y1389306D01*
Y1385141D01*
X1062416D01*
X1066581Y1380976D01*
X1109587Y1222661D02*
X1105421Y1218496D01*
Y1210165D01*
X1109587Y1206000D01*
X1126248D01*
X1130413Y1210165D01*
Y1218496D01*
X1126248Y1222661D01*
X1109587Y1230992D02*
X1105421Y1235157D01*
Y1243488D01*
X1109587Y1247653D01*
X1113752D01*
X1117917Y1243488D01*
X1122083Y1247653D01*
X1126248D01*
X1130413Y1243488D01*
Y1235157D01*
X1126248Y1230992D01*
X1122083D01*
X1117917Y1235157D01*
X1113752Y1230992D01*
X1109587D01*
X1117917Y1235157D02*
Y1243488D01*
X1134579Y1255984D02*
Y1272645D01*
X1130413Y1280976D02*
Y1289306D01*
Y1285141D01*
X1105421D01*
X1109587Y1280976D01*
X1159587Y1222661D02*
X1155421Y1218496D01*
Y1210165D01*
X1159587Y1206000D01*
X1176248D01*
X1180413Y1210165D01*
Y1218496D01*
X1176248Y1222661D01*
X1155421Y1230992D02*
Y1247653D01*
X1159587D01*
X1176248Y1230992D01*
X1180413D01*
X1184579Y1255984D02*
Y1272645D01*
X1180413Y1280976D02*
Y1289306D01*
Y1285141D01*
X1155421D01*
X1159587Y1280976D01*
X848556Y1258518D02*
X844390Y1254353D01*
Y1246022D01*
X848556Y1241857D01*
X865217D01*
X869382Y1246022D01*
Y1254353D01*
X865217Y1258518D01*
X844390Y1283510D02*
X848556Y1275179D01*
X856886Y1266849D01*
X865217D01*
X869382Y1271014D01*
Y1279345D01*
X865217Y1283510D01*
X861052D01*
X856886Y1279345D01*
Y1266849D01*
X873548Y1291841D02*
Y1308502D01*
X869382Y1316833D02*
Y1325163D01*
Y1320998D01*
X844390D01*
X848556Y1316833D01*
X773556Y1258518D02*
X769390Y1254353D01*
Y1246022D01*
X773556Y1241857D01*
X790217D01*
X794382Y1246022D01*
Y1254353D01*
X790217Y1258518D01*
X769390Y1283510D02*
Y1266849D01*
X781886D01*
X777721Y1275179D01*
Y1279344D01*
X781886Y1283510D01*
X790217D01*
X794382Y1279344D01*
Y1271014D01*
X790217Y1266849D01*
X798547Y1291840D02*
Y1308502D01*
X794382Y1316832D02*
Y1325163D01*
Y1320998D01*
X769390D01*
X773556Y1316832D01*
X1374587Y1312661D02*
X1370421Y1308496D01*
Y1300165D01*
X1374587Y1296000D01*
X1391248D01*
X1395413Y1300165D01*
Y1308496D01*
X1391248Y1312661D01*
X1395413Y1333488D02*
X1370421D01*
X1382917Y1320992D01*
Y1337653D01*
X1399579Y1345984D02*
Y1362645D01*
X1395413Y1370976D02*
Y1379306D01*
Y1375141D01*
X1370421D01*
X1374587Y1370976D01*
X851873Y552661D02*
X847707Y548496D01*
Y540165D01*
X851873Y536000D01*
X868534D01*
X872699Y540165D01*
Y548496D01*
X868534Y552661D01*
X851873Y560992D02*
X847707Y565157D01*
Y573488D01*
X851873Y577653D01*
X856038D01*
X860203Y573488D01*
Y569323D01*
Y573488D01*
X864369Y577653D01*
X868534D01*
X872699Y573488D01*
Y565157D01*
X868534Y560992D01*
X876865Y585984D02*
Y602645D01*
X872699Y610976D02*
Y619306D01*
Y615141D01*
X847707D01*
X851873Y610976D01*
X851837Y824074D02*
X847672Y828239D01*
X839341D01*
X835176Y824074D01*
Y807412D01*
X839341Y803247D01*
X847672D01*
X851837Y807412D01*
X876829Y803247D02*
X860168D01*
X876829Y819908D01*
Y824074D01*
X872664Y828239D01*
X864333D01*
X860168Y824074D01*
X885160Y799082D02*
X901821D01*
X910152Y803247D02*
X918482D01*
X914317D01*
Y828239D01*
X910152Y824074D01*
X977581Y966587D02*
X973416Y962421D01*
Y954091D01*
X977581Y949925D01*
X994243D01*
X998408Y954091D01*
Y962421D01*
X994243Y966587D01*
X998408Y974917D02*
Y983248D01*
Y979082D01*
X973416D01*
X977581Y974917D01*
X1002573Y995744D02*
Y1012405D01*
X998408Y1020736D02*
Y1029066D01*
Y1024901D01*
X973416D01*
X977581Y1020736D01*
X1831264Y1169579D02*
Y1148752D01*
X1835429Y1144587D01*
X1843760D01*
X1847926Y1148752D01*
Y1169579D01*
X1856256Y1144587D02*
X1864587D01*
X1860421D01*
Y1169579D01*
X1856256Y1165413D01*
X1877083Y1140421D02*
X1893744D01*
X1902075Y1165413D02*
X1906240Y1169579D01*
X1914571D01*
X1918736Y1165413D01*
Y1161248D01*
X1914571Y1157083D01*
X1910405D01*
X1914571D01*
X1918736Y1152917D01*
Y1148752D01*
X1914571Y1144587D01*
X1906240D01*
X1902075Y1148752D01*
X1757264Y555606D02*
X1732272D01*
Y568102D01*
X1736438Y572267D01*
X1744768D01*
X1748934Y568102D01*
Y555606D01*
Y563937D02*
X1757264Y572267D01*
Y580598D02*
Y588929D01*
Y584763D01*
X1732272D01*
X1736438Y580598D01*
X1732272Y618086D02*
X1736438Y609755D01*
X1744768Y601425D01*
X1753099D01*
X1757264Y605590D01*
Y613921D01*
X1753099Y618086D01*
X1748934D01*
X1744768Y613921D01*
Y601425D01*
X1761429Y626417D02*
Y643078D01*
X1736438Y651408D02*
X1732272Y655574D01*
Y663904D01*
X1736438Y668070D01*
X1740603D01*
X1744768Y663904D01*
Y659739D01*
Y663904D01*
X1748934Y668070D01*
X1753099D01*
X1757264Y663904D01*
Y655574D01*
X1753099Y651408D01*
X1838414Y555607D02*
X1813422D01*
Y568103D01*
X1817587Y572268D01*
X1825918D01*
X1830083Y568103D01*
Y555607D01*
Y563938D02*
X1838414Y572268D01*
Y580599D02*
Y588929D01*
Y584764D01*
X1813422D01*
X1817587Y580599D01*
X1813422Y618087D02*
Y601426D01*
X1825918D01*
X1821752Y609756D01*
Y613922D01*
X1825918Y618087D01*
X1834248D01*
X1838414Y613922D01*
Y605591D01*
X1834248Y601426D01*
X1842579Y626417D02*
Y643079D01*
X1817587Y651409D02*
X1813422Y655575D01*
Y663905D01*
X1817587Y668071D01*
X1821752D01*
X1825918Y663905D01*
Y659740D01*
Y663905D01*
X1830083Y668071D01*
X1834248D01*
X1838414Y663905D01*
Y655575D01*
X1834248Y651409D01*
X1920414Y555607D02*
X1895422D01*
Y568103D01*
X1899587Y572268D01*
X1907918D01*
X1912083Y568103D01*
Y555607D01*
Y563937D02*
X1920414Y572268D01*
Y580599D02*
Y588929D01*
Y584764D01*
X1895422D01*
X1899587Y580599D01*
X1920414Y613921D02*
X1895422D01*
X1907918Y601425D01*
Y618087D01*
X1924579Y626417D02*
Y643078D01*
X1899587Y651409D02*
X1895422Y655574D01*
Y663905D01*
X1899587Y668070D01*
X1903752D01*
X1907918Y663905D01*
Y659740D01*
Y663905D01*
X1912083Y668070D01*
X1916248D01*
X1920414Y663905D01*
Y655574D01*
X1916248Y651409D01*
X2216000Y1084509D02*
Y1109501D01*
X2228496D01*
X2232661Y1105336D01*
Y1097005D01*
X2228496Y1092840D01*
X2216000D01*
X2224331D02*
X2232661Y1084509D01*
X2240992Y1109501D02*
X2257653D01*
Y1105336D01*
X2240992Y1088675D01*
Y1084509D01*
X2265984Y1080344D02*
X2282645D01*
X2290976Y1105336D02*
X2295141Y1109501D01*
X2303472D01*
X2307637Y1105336D01*
Y1101170D01*
X2303472Y1097005D01*
X2299306D01*
X2303472D01*
X2307637Y1092840D01*
Y1088675D01*
X2303472Y1084509D01*
X2295141D01*
X2290976Y1088675D01*
X1508413Y942841D02*
X1483421D01*
Y955337D01*
X1487587Y959502D01*
X1495917D01*
X1500083Y955337D01*
Y942841D01*
Y951172D02*
X1508413Y959502D01*
X1483421Y984494D02*
X1487587Y976164D01*
X1495917Y967833D01*
X1504248D01*
X1508413Y971998D01*
Y980329D01*
X1504248Y984494D01*
X1500083D01*
X1495917Y980329D01*
Y967833D01*
X1512579Y992825D02*
Y1009486D01*
X1487587Y1017817D02*
X1483421Y1021982D01*
Y1030313D01*
X1487587Y1034478D01*
X1491752D01*
X1495917Y1030313D01*
Y1026147D01*
Y1030313D01*
X1500083Y1034478D01*
X1504248D01*
X1508413Y1030313D01*
Y1021982D01*
X1504248Y1017817D01*
X1974181Y1389587D02*
Y1414579D01*
X1986678D01*
X1990843Y1410413D01*
Y1402083D01*
X1986678Y1397917D01*
X1974181D01*
X1982512D02*
X1990843Y1389587D01*
X2015835Y1414579D02*
X1999173D01*
Y1402083D01*
X2007504Y1406248D01*
X2011669D01*
X2015835Y1402083D01*
Y1393752D01*
X2011669Y1389587D01*
X2003339D01*
X1999173Y1393752D01*
X2024165Y1385421D02*
X2040827D01*
X2049157Y1410413D02*
X2053323Y1414579D01*
X2061653D01*
X2065818Y1410413D01*
Y1406248D01*
X2061653Y1402083D01*
X2057488D01*
X2061653D01*
X2065818Y1397917D01*
Y1393752D01*
X2061653Y1389587D01*
X2053323D01*
X2049157Y1393752D01*
X2075413Y555999D02*
X2050421D01*
Y568495D01*
X2054587Y572661D01*
X2062917D01*
X2067083Y568495D01*
Y555999D01*
Y564330D02*
X2075413Y572661D01*
Y593487D02*
X2050421D01*
X2062917Y580991D01*
Y597653D01*
X2079579Y605983D02*
Y622644D01*
X2054587Y630975D02*
X2050421Y635140D01*
Y643471D01*
X2054587Y647636D01*
X2058752D01*
X2062917Y643471D01*
Y639306D01*
Y643471D01*
X2067083Y647636D01*
X2071248D01*
X2075413Y643471D01*
Y635140D01*
X2071248Y630975D01*
X1674181Y1394587D02*
Y1419579D01*
X1686678D01*
X1690843Y1415413D01*
Y1407083D01*
X1686678Y1402917D01*
X1674181D01*
X1682512D02*
X1690843Y1394587D01*
X1699173Y1415413D02*
X1703339Y1419579D01*
X1711669D01*
X1715835Y1415413D01*
Y1411248D01*
X1711669Y1407083D01*
X1707504D01*
X1711669D01*
X1715835Y1402917D01*
Y1398752D01*
X1711669Y1394587D01*
X1703339D01*
X1699173Y1398752D01*
X1724165Y1390421D02*
X1740827D01*
X1749157Y1415413D02*
X1753322Y1419579D01*
X1761653D01*
X1765819Y1415413D01*
Y1411248D01*
X1761653Y1407083D01*
X1757488D01*
X1761653D01*
X1765819Y1402917D01*
Y1398752D01*
X1761653Y1394587D01*
X1753322D01*
X1749157Y1398752D01*
X2216000Y1039587D02*
Y1064579D01*
X2228496D01*
X2232661Y1060413D01*
Y1052083D01*
X2228496Y1047917D01*
X2216000D01*
X2224331D02*
X2232661Y1039587D01*
X2257653D02*
X2240992D01*
X2257653Y1056248D01*
Y1060413D01*
X2253488Y1064579D01*
X2245157D01*
X2240992Y1060413D01*
X2265984Y1035421D02*
X2282645D01*
X2290976Y1060413D02*
X2295141Y1064579D01*
X2303472D01*
X2307637Y1060413D01*
Y1056248D01*
X2303472Y1052083D01*
X2299306D01*
X2303472D01*
X2307637Y1047917D01*
Y1043752D01*
X2303472Y1039587D01*
X2295141D01*
X2290976Y1043752D01*
X2002543Y556000D02*
X1977552D01*
Y568496D01*
X1981717Y572661D01*
X1990047D01*
X1994213Y568496D01*
Y556000D01*
Y564331D02*
X2002543Y572661D01*
Y580992D02*
Y589323D01*
Y585157D01*
X1977552D01*
X1981717Y580992D01*
X2006709Y601819D02*
Y618480D01*
X1981717Y626811D02*
X1977552Y630976D01*
Y639307D01*
X1981717Y643472D01*
X1985882D01*
X1990047Y639307D01*
Y635141D01*
Y639307D01*
X1994213Y643472D01*
X1998378D01*
X2002543Y639307D01*
Y630976D01*
X1998378Y626811D01*
X2149587Y1312661D02*
X2145421Y1308496D01*
Y1300165D01*
X2149587Y1296000D01*
X2166248D01*
X2170413Y1300165D01*
Y1308496D01*
X2166248Y1312661D01*
X2170413Y1320992D02*
Y1329322D01*
Y1325157D01*
X2145421D01*
X2149587Y1320992D01*
Y1341818D02*
X2145421Y1345984D01*
Y1354314D01*
X2149587Y1358480D01*
X2166248D01*
X2170413Y1354314D01*
Y1345984D01*
X2166248Y1341818D01*
X2149587D01*
X2174579Y1366810D02*
Y1383472D01*
X2149587Y1391802D02*
X2145421Y1395967D01*
Y1404298D01*
X2149587Y1408464D01*
X2153752D01*
X2157917Y1404298D01*
Y1400133D01*
Y1404298D01*
X2162083Y1408464D01*
X2166248D01*
X2170413Y1404298D01*
Y1395967D01*
X2166248Y1391802D01*
X1616043Y1312661D02*
X1611878Y1308496D01*
Y1300165D01*
X1616043Y1296000D01*
X1632705D01*
X1636870Y1300165D01*
Y1308496D01*
X1632705Y1312661D01*
Y1320992D02*
X1636870Y1325157D01*
Y1333488D01*
X1632705Y1337653D01*
X1616043D01*
X1611878Y1333488D01*
Y1325157D01*
X1616043Y1320992D01*
X1620209D01*
X1624374Y1325157D01*
Y1337653D01*
X1641035Y1345984D02*
Y1362645D01*
X1616043Y1370976D02*
X1611878Y1375141D01*
Y1383472D01*
X1616043Y1387637D01*
X1620209D01*
X1624374Y1383472D01*
Y1379306D01*
Y1383472D01*
X1628539Y1387637D01*
X1632705D01*
X1636870Y1383472D01*
Y1375141D01*
X1632705Y1370976D01*
X1839587Y1217661D02*
X1835421Y1213496D01*
Y1205165D01*
X1839587Y1201000D01*
X1856248D01*
X1860413Y1205165D01*
Y1213496D01*
X1856248Y1217661D01*
X1839587Y1225992D02*
X1835421Y1230157D01*
Y1238488D01*
X1839587Y1242653D01*
X1843752D01*
X1847917Y1238488D01*
X1852083Y1242653D01*
X1856248D01*
X1860413Y1238488D01*
Y1230157D01*
X1856248Y1225992D01*
X1852083D01*
X1847917Y1230157D01*
X1843752Y1225992D01*
X1839587D01*
X1847917Y1230157D02*
Y1238488D01*
X1864579Y1250984D02*
Y1267645D01*
X1839587Y1275976D02*
X1835421Y1280141D01*
Y1288472D01*
X1839587Y1292637D01*
X1843752D01*
X1847917Y1288472D01*
Y1284306D01*
Y1288472D01*
X1852083Y1292637D01*
X1856248D01*
X1860413Y1288472D01*
Y1280141D01*
X1856248Y1275976D01*
X1892121Y1217661D02*
X1887956Y1213496D01*
Y1205165D01*
X1892121Y1201000D01*
X1908782D01*
X1912947Y1205165D01*
Y1213496D01*
X1908782Y1217661D01*
X1887956Y1225992D02*
Y1242653D01*
X1892121D01*
X1908782Y1225992D01*
X1912947D01*
X1917113Y1250984D02*
Y1267645D01*
X1892121Y1275976D02*
X1887956Y1280141D01*
Y1288472D01*
X1892121Y1292637D01*
X1896286D01*
X1900451Y1288472D01*
Y1284306D01*
Y1288472D01*
X1904617Y1292637D01*
X1908782D01*
X1912947Y1288472D01*
Y1280141D01*
X1908782Y1275976D01*
X1560378Y1267661D02*
X1556213Y1263496D01*
Y1255165D01*
X1560378Y1251000D01*
X1577040D01*
X1581205Y1255165D01*
Y1263496D01*
X1577040Y1267661D01*
X1556213Y1292653D02*
X1560378Y1284322D01*
X1568709Y1275992D01*
X1577040D01*
X1581205Y1280157D01*
Y1288488D01*
X1577040Y1292653D01*
X1572874D01*
X1568709Y1288488D01*
Y1275992D01*
X1585370Y1300984D02*
Y1317645D01*
X1560378Y1325976D02*
X1556213Y1330141D01*
Y1338472D01*
X1560378Y1342637D01*
X1564544D01*
X1568709Y1338472D01*
Y1334306D01*
Y1338472D01*
X1572874Y1342637D01*
X1577040D01*
X1581205Y1338472D01*
Y1330141D01*
X1577040Y1325976D01*
X1509587Y1267661D02*
X1505421Y1263496D01*
Y1255165D01*
X1509587Y1251000D01*
X1526248D01*
X1530413Y1255165D01*
Y1263496D01*
X1526248Y1267661D01*
X1505421Y1292653D02*
Y1275992D01*
X1517917D01*
X1513752Y1284322D01*
Y1288488D01*
X1517917Y1292653D01*
X1526248D01*
X1530413Y1288488D01*
Y1280157D01*
X1526248Y1275992D01*
X1534579Y1300984D02*
Y1317645D01*
X1509587Y1325976D02*
X1505421Y1330141D01*
Y1338472D01*
X1509587Y1342637D01*
X1513752D01*
X1517917Y1338472D01*
Y1334306D01*
Y1338472D01*
X1522083Y1342637D01*
X1526248D01*
X1530413Y1338472D01*
Y1330141D01*
X1526248Y1325976D01*
X2104587Y1312661D02*
X2100421Y1308496D01*
Y1300165D01*
X2104587Y1296000D01*
X2121248D01*
X2125413Y1300165D01*
Y1308496D01*
X2121248Y1312661D01*
X2125413Y1333488D02*
X2100421D01*
X2112917Y1320992D01*
Y1337653D01*
X2129579Y1345984D02*
Y1362645D01*
X2104587Y1370976D02*
X2100421Y1375141D01*
Y1383472D01*
X2104587Y1387637D01*
X2108752D01*
X2112917Y1383472D01*
Y1379306D01*
Y1383472D01*
X2117083Y1387637D01*
X2121248D01*
X2125413Y1383472D01*
Y1375141D01*
X2121248Y1370976D01*
X1675530Y572268D02*
X1671365Y568103D01*
Y559772D01*
X1675530Y555607D01*
X1692191D01*
X1696357Y559772D01*
Y568103D01*
X1692191Y572268D01*
X1675530Y580599D02*
X1671365Y584764D01*
Y593095D01*
X1675530Y597260D01*
X1679695D01*
X1683861Y593095D01*
Y588929D01*
Y593095D01*
X1688026Y597260D01*
X1692191D01*
X1696357Y593095D01*
Y584764D01*
X1692191Y580599D01*
X1700522Y605591D02*
Y622252D01*
X1675530Y630583D02*
X1671365Y634748D01*
Y643079D01*
X1675530Y647244D01*
X1679695D01*
X1683861Y643079D01*
Y638913D01*
Y643079D01*
X1688026Y647244D01*
X1692191D01*
X1696357Y643079D01*
Y634748D01*
X1692191Y630583D01*
X1715843Y860413D02*
X1711678Y864579D01*
X1703347D01*
X1699181Y860413D01*
Y843752D01*
X1703347Y839587D01*
X1711678D01*
X1715843Y843752D01*
X1740835Y839587D02*
X1724173D01*
X1740835Y856248D01*
Y860413D01*
X1736669Y864579D01*
X1728339D01*
X1724173Y860413D01*
X1749165Y835421D02*
X1765827D01*
X1774157Y860413D02*
X1778322Y864579D01*
X1786653D01*
X1790819Y860413D01*
Y856248D01*
X1786653Y852083D01*
X1782488D01*
X1786653D01*
X1790819Y847917D01*
Y843752D01*
X1786653Y839587D01*
X1778322D01*
X1774157Y843752D01*
X1705438Y966586D02*
X1701272Y962420D01*
Y954090D01*
X1705438Y949924D01*
X1722099D01*
X1726264Y954090D01*
Y962420D01*
X1722099Y966586D01*
X1726264Y974916D02*
Y983247D01*
Y979082D01*
X1701272D01*
X1705438Y974916D01*
X1730429Y995743D02*
Y1012404D01*
X1705438Y1020735D02*
X1701272Y1024900D01*
Y1033231D01*
X1705438Y1037396D01*
X1709603D01*
X1713768Y1033231D01*
Y1029065D01*
Y1033231D01*
X1717934Y1037396D01*
X1722099D01*
X1726264Y1033231D01*
Y1024900D01*
X1722099Y1020735D01*
X361264Y1169579D02*
Y1148752D01*
X365430Y1144587D01*
X373760D01*
X377925Y1148752D01*
Y1169579D01*
X386256Y1144587D02*
X394587D01*
X390421D01*
Y1169579D01*
X386256Y1165413D01*
X407083Y1140421D02*
X423744D01*
X448736Y1144587D02*
X432075D01*
X448736Y1161248D01*
Y1165413D01*
X444571Y1169579D01*
X436240D01*
X432075Y1165413D01*
X461237Y521000D02*
X436245D01*
Y533496D01*
X440410Y537661D01*
X448741D01*
X452906Y533496D01*
Y521000D01*
Y529330D02*
X461237Y537661D01*
Y545992D02*
Y554322D01*
Y550157D01*
X436245D01*
X440410Y545992D01*
X436245Y583480D02*
X440410Y575149D01*
X448741Y566818D01*
X457072D01*
X461237Y570984D01*
Y579314D01*
X457072Y583480D01*
X452906D01*
X448741Y579314D01*
Y566818D01*
X465402Y591810D02*
Y608471D01*
X461237Y633463D02*
Y616802D01*
X444575Y633463D01*
X440410D01*
X436245Y629298D01*
Y620967D01*
X440410Y616802D01*
X537607Y521000D02*
X512615D01*
Y533496D01*
X516781Y537661D01*
X525111D01*
X529277Y533496D01*
Y521000D01*
Y529331D02*
X537607Y537661D01*
Y545992D02*
Y554322D01*
Y550157D01*
X512615D01*
X516781Y545992D01*
X512615Y583480D02*
Y566818D01*
X525111D01*
X520946Y575149D01*
Y579314D01*
X525111Y583480D01*
X533442D01*
X537607Y579314D01*
Y570984D01*
X533442Y566818D01*
X541773Y591810D02*
Y608472D01*
X537607Y633464D02*
Y616802D01*
X520946Y633464D01*
X516781D01*
X512615Y629298D01*
Y620968D01*
X516781Y616802D01*
X608977Y521000D02*
X583985D01*
Y533496D01*
X588150Y537661D01*
X596481D01*
X600646Y533496D01*
Y521000D01*
Y529330D02*
X608977Y537661D01*
Y545992D02*
Y554322D01*
Y550157D01*
X583985D01*
X588150Y545992D01*
X608977Y579314D02*
X583985D01*
X596481Y566818D01*
Y583480D01*
X613142Y591810D02*
Y608471D01*
X608977Y633463D02*
Y616802D01*
X592316Y633463D01*
X588150D01*
X583985Y629298D01*
Y620967D01*
X588150Y616802D01*
X690239Y782992D02*
Y807984D01*
X702735D01*
X706900Y803818D01*
Y795488D01*
X702735Y791322D01*
X690239D01*
X698569D02*
X706900Y782992D01*
X715230Y807984D02*
X731892D01*
Y803818D01*
X715230Y787157D01*
Y782992D01*
X740222Y778827D02*
X756884D01*
X781875Y782992D02*
X765214D01*
X781875Y799653D01*
Y803818D01*
X777710Y807984D01*
X769380D01*
X765214Y803818D01*
X53414Y822894D02*
X28422D01*
Y835390D01*
X32587Y839556D01*
X40918D01*
X45083Y835390D01*
Y822894D01*
Y831225D02*
X53414Y839556D01*
X28422Y864548D02*
X32587Y856217D01*
X40918Y847886D01*
X49248D01*
X53414Y852052D01*
Y860382D01*
X49248Y864548D01*
X45083D01*
X40918Y860382D01*
Y847886D01*
X57579Y872878D02*
Y889539D01*
X53414Y914531D02*
Y897870D01*
X36752Y914531D01*
X32587D01*
X28422Y910366D01*
Y902035D01*
X32587Y897870D01*
X514182Y1389587D02*
Y1414579D01*
X526678D01*
X530843Y1410413D01*
Y1402083D01*
X526678Y1397917D01*
X514182D01*
X522512D02*
X530843Y1389587D01*
X555835Y1414579D02*
X539173D01*
Y1402083D01*
X547504Y1406248D01*
X551669D01*
X555835Y1402083D01*
Y1393752D01*
X551669Y1389587D01*
X543339D01*
X539173Y1393752D01*
X564165Y1385421D02*
X580827D01*
X605818Y1389587D02*
X589157D01*
X605818Y1406248D01*
Y1410413D01*
X601653Y1414579D01*
X593322D01*
X589157Y1410413D01*
X752017Y520999D02*
X727025D01*
Y533495D01*
X731190Y537661D01*
X739521D01*
X743686Y533495D01*
Y520999D01*
Y529330D02*
X752017Y537661D01*
Y558487D02*
X727025D01*
X739521Y545991D01*
Y562653D01*
X756182Y570983D02*
Y587644D01*
X752017Y612636D02*
Y595975D01*
X735356Y612636D01*
X731190D01*
X727025Y608471D01*
Y600140D01*
X731190Y595975D01*
X224181Y1389587D02*
Y1414579D01*
X236678D01*
X240843Y1410413D01*
Y1402083D01*
X236678Y1397917D01*
X224181D01*
X232512D02*
X240843Y1389587D01*
X249173Y1410413D02*
X253339Y1414579D01*
X261669D01*
X265835Y1410413D01*
Y1406248D01*
X261669Y1402083D01*
X257504D01*
X261669D01*
X265835Y1397917D01*
Y1393752D01*
X261669Y1389587D01*
X253339D01*
X249173Y1393752D01*
X274165Y1385421D02*
X290827D01*
X315818Y1389587D02*
X299157D01*
X315818Y1406248D01*
Y1410413D01*
X311653Y1414579D01*
X303322D01*
X299157Y1410413D01*
X680413Y521000D02*
X655422D01*
Y533496D01*
X659587Y537661D01*
X667917D01*
X672083Y533496D01*
Y521000D01*
Y529331D02*
X680413Y537661D01*
Y545992D02*
Y554323D01*
Y550157D01*
X655422D01*
X659587Y545992D01*
X684579Y566819D02*
Y583480D01*
X680413Y608472D02*
Y591811D01*
X663752Y608472D01*
X659587D01*
X655422Y604307D01*
Y595976D01*
X659587Y591811D01*
X694587Y1312661D02*
X690421Y1308496D01*
Y1300165D01*
X694587Y1296000D01*
X711248D01*
X715413Y1300165D01*
Y1308496D01*
X711248Y1312661D01*
X715413Y1320992D02*
Y1329322D01*
Y1325157D01*
X690421D01*
X694587Y1320992D01*
Y1341818D02*
X690421Y1345984D01*
Y1354314D01*
X694587Y1358480D01*
X711248D01*
X715413Y1354314D01*
Y1345984D01*
X711248Y1341818D01*
X694587D01*
X719578Y1366810D02*
Y1383472D01*
X715413Y1408464D02*
Y1391802D01*
X698752Y1408464D01*
X694587D01*
X690421Y1404298D01*
Y1395967D01*
X694587Y1391802D01*
X144587Y1317661D02*
X140421Y1313496D01*
Y1305165D01*
X144587Y1301000D01*
X161248D01*
X165413Y1305165D01*
Y1313496D01*
X161248Y1317661D01*
Y1325992D02*
X165413Y1330157D01*
Y1338488D01*
X161248Y1342653D01*
X144587D01*
X140421Y1338488D01*
Y1330157D01*
X144587Y1325992D01*
X148752D01*
X152917Y1330157D01*
Y1342653D01*
X169578Y1350984D02*
Y1367645D01*
X165413Y1392637D02*
Y1375976D01*
X148752Y1392637D01*
X144587D01*
X140421Y1388472D01*
Y1380141D01*
X144587Y1375976D01*
X364587Y1232826D02*
X360421Y1228660D01*
Y1220330D01*
X364587Y1216164D01*
X381248D01*
X385413Y1220330D01*
Y1228660D01*
X381248Y1232826D01*
X364587Y1241156D02*
X360421Y1245322D01*
Y1253652D01*
X364587Y1257818D01*
X368752D01*
X372917Y1253652D01*
X377083Y1257818D01*
X381248D01*
X385413Y1253652D01*
Y1245322D01*
X381248Y1241156D01*
X377083D01*
X372917Y1245322D01*
X368752Y1241156D01*
X364587D01*
X372917Y1245322D02*
Y1253652D01*
X389579Y1266148D02*
Y1282809D01*
X385413Y1307801D02*
Y1291140D01*
X368752Y1307801D01*
X364587D01*
X360421Y1303636D01*
Y1295305D01*
X364587Y1291140D01*
X421172Y1232007D02*
X417006Y1227842D01*
Y1219511D01*
X421172Y1215346D01*
X437833D01*
X441998Y1219511D01*
Y1227842D01*
X437833Y1232007D01*
X417006Y1240338D02*
Y1256999D01*
X421172D01*
X437833Y1240338D01*
X441998D01*
X446163Y1265330D02*
Y1281991D01*
X441998Y1306983D02*
Y1290321D01*
X425337Y1306983D01*
X421172D01*
X417006Y1302817D01*
Y1294487D01*
X421172Y1290321D01*
X94587Y1267661D02*
X90421Y1263496D01*
Y1255165D01*
X94587Y1251000D01*
X111248D01*
X115413Y1255165D01*
Y1263496D01*
X111248Y1267661D01*
X90421Y1292653D02*
X94587Y1284322D01*
X102917Y1275992D01*
X111248D01*
X115413Y1280157D01*
Y1288488D01*
X111248Y1292653D01*
X107083D01*
X102917Y1288488D01*
Y1275992D01*
X119579Y1300984D02*
Y1317645D01*
X115413Y1342637D02*
Y1325976D01*
X98752Y1342637D01*
X94587D01*
X90421Y1338472D01*
Y1330141D01*
X94587Y1325976D01*
X49587Y1267661D02*
X45421Y1263496D01*
Y1255165D01*
X49587Y1251000D01*
X66248D01*
X70413Y1255165D01*
Y1263496D01*
X66248Y1267661D01*
X45421Y1292653D02*
Y1275992D01*
X57917D01*
X53752Y1284322D01*
Y1288488D01*
X57917Y1292653D01*
X66248D01*
X70413Y1288488D01*
Y1280157D01*
X66248Y1275992D01*
X74579Y1300984D02*
Y1317645D01*
X70413Y1342637D02*
Y1325976D01*
X53752Y1342637D01*
X49587D01*
X45421Y1338472D01*
Y1330141D01*
X49587Y1325976D01*
X634587Y1312661D02*
X630421Y1308496D01*
Y1300165D01*
X634587Y1296000D01*
X651248D01*
X655413Y1300165D01*
Y1308496D01*
X651248Y1312661D01*
X655413Y1333488D02*
X630421D01*
X642917Y1320992D01*
Y1337653D01*
X659578Y1345984D02*
Y1362645D01*
X655413Y1387637D02*
Y1370976D01*
X638752Y1387637D01*
X634587D01*
X630421Y1383472D01*
Y1375141D01*
X634587Y1370976D01*
X372990Y537661D02*
X368825Y533495D01*
Y525165D01*
X372990Y521000D01*
X389652D01*
X393817Y525165D01*
Y533495D01*
X389652Y537661D01*
X372990Y545991D02*
X368825Y550157D01*
Y558487D01*
X372990Y562653D01*
X377156D01*
X381321Y558487D01*
Y554322D01*
Y558487D01*
X385486Y562653D01*
X389652D01*
X393817Y558487D01*
Y550157D01*
X389652Y545991D01*
X397982Y570983D02*
Y587645D01*
X393817Y612636D02*
Y595975D01*
X377156Y612636D01*
X372990D01*
X368825Y608471D01*
Y600140D01*
X372990Y595975D01*
X105843Y820413D02*
X101677Y824579D01*
X93347D01*
X89181Y820413D01*
Y803752D01*
X93347Y799587D01*
X101677D01*
X105843Y803752D01*
X130835Y799587D02*
X114173D01*
X130835Y816248D01*
Y820413D01*
X126669Y824579D01*
X118339D01*
X114173Y820413D01*
X139165Y795421D02*
X155827D01*
X180819Y799587D02*
X164157D01*
X180819Y816248D01*
Y820413D01*
X176653Y824579D01*
X168322D01*
X164157Y820413D01*
X244587Y962926D02*
X240421Y958760D01*
Y950429D01*
X244587Y946264D01*
X261248D01*
X265413Y950429D01*
Y958760D01*
X261248Y962926D01*
X265413Y971256D02*
Y979587D01*
Y975421D01*
X240421D01*
X244587Y971256D01*
X269579Y992083D02*
Y1008744D01*
X265413Y1033736D02*
Y1017075D01*
X248752Y1033736D01*
X244587D01*
X240421Y1029571D01*
Y1021240D01*
X244587Y1017075D01*
D58*
X2187016Y-33866D02*
Y22433D01*
Y114559D02*
Y180701D01*
Y-33866D02*
X2538984D01*
Y114559D02*
Y180701D01*
Y-33866D02*
Y22433D01*
X2491939Y1849994D02*
Y1834998D01*
X2501936D01*
X2509433Y1844995D02*
X2514432D01*
X2516931Y1842496D01*
Y1834998D01*
X2509433D01*
X2506934Y1837498D01*
X2509433Y1839997D01*
X2516931D01*
X2521929Y1844995D02*
Y1837498D01*
X2524428Y1834998D01*
X2531926D01*
Y1832499D01*
X2529427Y1830000D01*
X2526928D01*
X2531926Y1834998D02*
Y1844995D01*
X2544422Y1834998D02*
X2539424D01*
X2536925Y1837498D01*
Y1842496D01*
X2539424Y1844995D01*
X2544422D01*
X2546921Y1842496D01*
Y1839997D01*
X2536925D01*
X2551920Y1844995D02*
Y1834998D01*
Y1839997D01*
X2554419Y1842496D01*
X2556918Y1844995D01*
X2559417D01*
X2591907Y1847494D02*
X2589408Y1849994D01*
X2584409D01*
X2581910Y1847494D01*
Y1844995D01*
X2584409Y1842496D01*
X2589408D01*
X2591907Y1839997D01*
Y1837498D01*
X2589408Y1834998D01*
X2584409D01*
X2581910Y1837498D01*
X2599405Y1847494D02*
Y1844995D01*
X2596905D01*
X2601904D01*
X2599405D01*
Y1837498D01*
X2601904Y1834998D01*
X2611901Y1844995D02*
X2616899D01*
X2619398Y1842496D01*
Y1834998D01*
X2611901D01*
X2609401Y1837498D01*
X2611901Y1839997D01*
X2619398D01*
X2634393Y1844995D02*
X2626896D01*
X2624396Y1842496D01*
Y1837498D01*
X2626896Y1834998D01*
X2634393D01*
X2639392D02*
Y1849994D01*
Y1839997D02*
X2646889Y1844995D01*
X2639392Y1839997D02*
X2646889Y1834998D01*
X1472520Y621737D02*
Y638399D01*
X1464189Y630068D02*
X1480850D01*
X1472520Y671721D02*
Y688382D01*
X2548564Y326737D02*
Y343399D01*
X2540233Y335068D02*
X2556894D01*
X2548564Y376721D02*
Y393382D01*
X2356276Y792496D02*
Y771669D01*
X2360442Y767504D01*
X2368772D01*
X2372938Y771669D01*
Y792496D01*
X2393764Y767504D02*
Y792496D01*
X2381268Y780000D01*
X2397930D01*
X97496Y1503760D02*
Y1512091D01*
Y1507925D01*
X72504D01*
X76669Y1503760D01*
X97496Y1541248D02*
Y1524587D01*
X80835Y1541248D01*
X76669D01*
X72504Y1537083D01*
Y1528752D01*
X76669Y1524587D01*
X72504Y1549579D02*
X89165D01*
X97496Y1557909D01*
X89165Y1566240D01*
X72504D01*
D59*
X2120371Y496678D02*
X2130371D01*
X2120371D02*
Y556678D01*
Y639000D02*
Y659000D01*
X2140371D01*
X2383835D02*
X2403835D01*
Y639000D02*
Y659000D01*
Y496678D02*
Y516678D01*
X2393835Y496678D02*
X2403835D01*
X324985Y128161D02*
Y175012D01*
Y128161D02*
X363961D01*
X324985Y380400D02*
Y427250D01*
X363961D01*
X664040Y128161D02*
X703016D01*
Y175012D01*
Y379750D02*
Y427250D01*
X664040D02*
X703016D01*
X2942607Y76733D02*
Y135788D01*
Y76733D02*
X2962292D01*
X2942607Y722402D02*
Y785394D01*
X2962292D01*
X3877646Y76733D02*
X3936701D01*
Y785394D01*
X3693001D02*
X3936701D01*
X1215000Y6221D02*
Y61221D01*
Y6221D02*
X1595000D01*
X1210000Y566221D02*
X1255000D01*
X1210000Y516221D02*
Y566221D01*
X1595000Y6221D02*
Y66221D01*
X1555000Y566221D02*
X1595000D01*
Y521221D02*
Y566221D01*
X1051570Y898235D02*
Y915086D01*
Y898235D02*
X1068420D01*
X1026570Y1078235D02*
X1051570D01*
Y1095085D01*
X1068420D01*
X1248420Y898235D02*
Y915086D01*
X1231570Y898235D02*
X1248420D01*
Y1078235D02*
Y1095085D01*
X1231570D02*
X1248420D01*
X312845Y898235D02*
Y915086D01*
Y898235D02*
X329695D01*
X287845Y1078235D02*
X312845D01*
Y1095085D01*
X329695D01*
X509695Y898235D02*
Y915086D01*
X492845Y898235D02*
X509695D01*
Y1078235D02*
Y1095085D01*
X492845D02*
X509695D01*
X1779426Y898235D02*
Y915086D01*
Y898235D02*
X1796276D01*
X1754426Y1078235D02*
X1779426D01*
Y1095085D01*
X1796276D01*
X1976276Y898235D02*
Y915086D01*
X1959426Y898235D02*
X1976276D01*
Y1078235D02*
Y1095085D01*
X1959426D02*
X1976276D01*
X1669150Y128161D02*
Y175012D01*
Y128161D02*
X1708127D01*
X1669150Y380400D02*
Y427250D01*
X1708127D01*
X2008205Y128161D02*
X2047182D01*
Y175012D01*
Y379750D02*
Y427250D01*
X2008205D02*
X2047182D01*
X803270Y128161D02*
Y175012D01*
Y128161D02*
X842247D01*
X803270Y380400D02*
Y427250D01*
X842247D01*
X1142325Y128161D02*
X1181302D01*
Y175012D01*
Y379750D02*
Y427250D01*
X1142325D02*
X1181302D01*
X2765000Y1519987D02*
X2778329D01*
X2771664D01*
Y1480000D01*
X2765000D01*
X2778329D01*
X2804987Y1506658D02*
X2818316D01*
X2824981Y1499994D01*
Y1480000D01*
X2804987D01*
X2798323Y1486665D01*
X2804987Y1493329D01*
X2824981D01*
X2838310Y1480000D02*
Y1506658D01*
X2858303D01*
X2864968Y1499994D01*
Y1480000D01*
X2944942Y1513323D02*
X2938277Y1519987D01*
X2924948D01*
X2918284Y1513323D01*
Y1486665D01*
X2924948Y1480000D01*
X2938277D01*
X2944942Y1486665D01*
X2958271Y1480000D02*
Y1486665D01*
X2964936D01*
Y1480000D01*
X2958271D01*
X3031581Y1519987D02*
Y1480000D01*
X3051574D01*
X3058239Y1486665D01*
Y1513323D01*
X3051574Y1519987D01*
X3031581D01*
X3071568Y1480000D02*
X3084897D01*
X3078232D01*
Y1506658D01*
X3071568D01*
X3111555D02*
X3124884D01*
X3131548Y1499994D01*
Y1480000D01*
X3111555D01*
X3104890Y1486665D01*
X3111555Y1493329D01*
X3131548D01*
X3144878Y1506658D02*
X3171535D01*
X3144878Y1480000D01*
X3171535D01*
X2765000Y1594987D02*
Y1555000D01*
X2791658D01*
X2824981D02*
X2811652D01*
X2804987Y1561665D01*
Y1574994D01*
X2811652Y1581658D01*
X2824981D01*
X2831645Y1574994D01*
Y1568329D01*
X2804987D01*
X2844974Y1555000D02*
Y1581658D01*
X2864968D01*
X2871632Y1574994D01*
Y1555000D01*
X2884961D02*
X2904955D01*
X2911619Y1561665D01*
X2904955Y1568329D01*
X2891626D01*
X2884961Y1574994D01*
X2891626Y1581658D01*
X2911619D01*
X2924948Y1574994D02*
X2951606D01*
X2964936Y1555000D02*
Y1594987D01*
X2978265Y1581658D01*
X2991593Y1594987D01*
Y1555000D01*
X3011587Y1581658D02*
X3024916D01*
X3031581Y1574994D01*
Y1555000D01*
X3011587D01*
X3004923Y1561665D01*
X3011587Y1568329D01*
X3031581D01*
X3044910Y1555000D02*
Y1594987D01*
Y1568329D02*
X3064903Y1581658D01*
X3044910Y1568329D02*
X3064903Y1555000D01*
X3104890D02*
X3091561D01*
X3084897Y1561665D01*
Y1574994D01*
X3091561Y1581658D01*
X3104890D01*
X3111555Y1574994D01*
Y1568329D01*
X3084897D01*
X3124884Y1581658D02*
Y1555000D01*
Y1568329D01*
X3131548Y1574994D01*
X3138213Y1581658D01*
X3144877D01*
X3204858Y1555000D02*
Y1594987D01*
X3224852D01*
X3231516Y1588323D01*
Y1574994D01*
X3224852Y1568329D01*
X3204858D01*
X3218187D02*
X3231516Y1555000D01*
X3264839D02*
X3251510D01*
X3244845Y1561665D01*
Y1574994D01*
X3251510Y1581658D01*
X3264839D01*
X3271503Y1574994D01*
Y1568329D01*
X3244845D01*
X3284832Y1581658D02*
X3298161Y1555000D01*
X3311490Y1581658D01*
X3324819Y1555000D02*
Y1581658D01*
X3338148Y1594987D01*
X3351477Y1581658D01*
Y1555000D01*
Y1574994D01*
X3324819D01*
X3364807Y1555000D02*
Y1561665D01*
X3371471D01*
Y1555000D01*
X3364807D01*
X3398129Y1588323D02*
X3404794Y1594987D01*
X3418123D01*
X3424787Y1588323D01*
Y1561665D01*
X3418123Y1555000D01*
X3404794D01*
X3398129Y1561665D01*
Y1588323D01*
X3438116D02*
X3444781Y1594987D01*
X3458110D01*
X3464774Y1588323D01*
Y1561665D01*
X3458110Y1555000D01*
X3444781D01*
X3438116Y1561665D01*
Y1588323D01*
X388342Y1915000D02*
X415000D01*
X388342Y1888342D01*
Y1881677D01*
X395007Y1875013D01*
X408336D01*
X415000Y1881677D01*
X375013Y1875013D02*
Y1915000D01*
X355019D01*
X348355Y1908335D01*
Y1901671D01*
X355019Y1895006D01*
X375013D01*
X355019D01*
X348355Y1888342D01*
Y1881677D01*
X355019Y1875013D01*
X375013D01*
X855000Y1915000D02*
X841671D01*
X848335D01*
Y1875013D01*
X855000Y1881677D01*
X821677Y1915000D02*
Y1888342D01*
X808348Y1875013D01*
X795019Y1888342D01*
Y1915000D01*
Y1895006D01*
X821677D01*
X1037948Y1915000D02*
X1064606D01*
X1037948Y1888342D01*
Y1881677D01*
X1044613Y1875013D01*
X1057942D01*
X1064606Y1881677D01*
X1024619Y1875013D02*
Y1915000D01*
X1004626D01*
X997961Y1908335D01*
Y1901671D01*
X1004626Y1895006D01*
X1024619D01*
X1004626D01*
X997961Y1888342D01*
Y1881677D01*
X1004626Y1875013D01*
X1024619D01*
X1177948Y1915000D02*
X1204606D01*
X1177948Y1888342D01*
Y1881677D01*
X1184613Y1875013D01*
X1197942D01*
X1204606Y1881677D01*
X1164619Y1915000D02*
Y1888342D01*
X1151290Y1875013D01*
X1137961Y1888342D01*
Y1915000D01*
Y1895006D01*
X1164619D01*
X1351378Y1915000D02*
X1338049D01*
X1344713D01*
Y1875013D01*
X1351378Y1881677D01*
X1318055Y1875013D02*
Y1915000D01*
X1298062D01*
X1291397Y1908335D01*
Y1901671D01*
X1298062Y1895006D01*
X1318055D01*
X1298062D01*
X1291397Y1888342D01*
Y1881677D01*
X1298062Y1875013D01*
X1318055D01*
X701772Y1915000D02*
X688443D01*
X695107D01*
Y1875013D01*
X701772Y1881677D01*
X668449Y1875013D02*
Y1915000D01*
X648456D01*
X641791Y1908335D01*
Y1901671D01*
X648456Y1895006D01*
X668449D01*
X648456D01*
X641791Y1888342D01*
Y1881677D01*
X648456Y1875013D01*
X668449D01*
X528342Y1915000D02*
X555000D01*
X528342Y1888342D01*
Y1881677D01*
X535006Y1875013D01*
X548336D01*
X555000Y1881677D01*
X515013Y1915000D02*
Y1888342D01*
X501684Y1875013D01*
X488355Y1888342D01*
Y1915000D01*
Y1895006D01*
X515013D01*
X1504606Y1915000D02*
X1491277D01*
X1497942D01*
Y1875013D01*
X1504606Y1881677D01*
X1471284Y1915000D02*
Y1888342D01*
X1457955Y1875013D01*
X1444626Y1888342D01*
Y1915000D01*
Y1895006D01*
X1471284D01*
X1687555Y1915000D02*
X1714213D01*
X1687555Y1888342D01*
Y1881677D01*
X1694219Y1875013D01*
X1707548D01*
X1714213Y1881677D01*
X1674226Y1875013D02*
Y1915000D01*
X1654232D01*
X1647568Y1908335D01*
Y1901671D01*
X1654232Y1895006D01*
X1674226D01*
X1654232D01*
X1647568Y1888342D01*
Y1881677D01*
X1654232Y1875013D01*
X1674226D01*
X1827555Y1915000D02*
X1854213D01*
X1827555Y1888342D01*
Y1881677D01*
X1834219Y1875013D01*
X1847548D01*
X1854213Y1881677D01*
X1814226Y1915000D02*
Y1888342D01*
X1800897Y1875013D01*
X1787568Y1888342D01*
Y1915000D01*
Y1895006D01*
X1814226D01*
X2000984Y1915000D02*
X1987655D01*
X1994320D01*
Y1875013D01*
X2000984Y1881677D01*
X1967662Y1875013D02*
Y1915000D01*
X1947668D01*
X1941004Y1908335D01*
Y1901671D01*
X1947668Y1895006D01*
X1967662D01*
X1947668D01*
X1941004Y1888342D01*
Y1881677D01*
X1947668Y1875013D01*
X1967662D01*
X2154212Y1915000D02*
X2140883D01*
X2147548D01*
Y1875013D01*
X2154212Y1881677D01*
X2120890Y1915000D02*
Y1888342D01*
X2107561Y1875013D01*
X2094232Y1888342D01*
Y1915000D01*
Y1895006D01*
X2120890D01*
X2200000Y1229173D02*
Y1279157D01*
X2224992D01*
X2233323Y1270827D01*
Y1254165D01*
X2224992Y1245835D01*
X2200000D01*
X2249984Y1237504D02*
X2258314Y1229173D01*
X2274976D01*
X2283306Y1237504D01*
Y1270827D01*
X2274976Y1279157D01*
X2258314D01*
X2249984Y1270827D01*
Y1262496D01*
X2258314Y1254165D01*
X2283306D01*
X2299968Y1220843D02*
X2333290D01*
X2349951Y1229173D02*
X2366613D01*
X2358282D01*
Y1279157D01*
X2349951Y1270827D01*
X2484414Y1649173D02*
Y1699157D01*
X2509406D01*
X2517737Y1690827D01*
Y1674165D01*
X2509406Y1665835D01*
X2484414D01*
X2534398Y1657504D02*
X2542729Y1649173D01*
X2559390D01*
X2567720Y1657504D01*
Y1690827D01*
X2559390Y1699157D01*
X2542729D01*
X2534398Y1690827D01*
Y1682496D01*
X2542729Y1674165D01*
X2567720D01*
X2584382Y1640843D02*
X2617704D01*
X2667688Y1649173D02*
X2634365D01*
X2667688Y1682496D01*
Y1690827D01*
X2659357Y1699157D01*
X2642696D01*
X2634365Y1690827D01*
X3109992Y1818347D02*
X3060008D01*
Y1843339D01*
X3068339Y1851669D01*
X3085000D01*
X3093331Y1843339D01*
Y1818347D01*
X3068339Y1868331D02*
X3060008Y1876661D01*
Y1893322D01*
X3068339Y1901653D01*
X3076669D01*
X3085000Y1893322D01*
X3093331Y1901653D01*
X3101661D01*
X3109992Y1893322D01*
Y1876661D01*
X3101661Y1868331D01*
X3093331D01*
X3085000Y1876661D01*
X3076669Y1868331D01*
X3068339D01*
X3085000Y1876661D02*
Y1893322D01*
X2592761Y1735008D02*
Y1784992D01*
X2617753D01*
X2626084Y1776661D01*
Y1760000D01*
X2617753Y1751669D01*
X2592761D01*
X2642745Y1784992D02*
X2676067D01*
Y1776661D01*
X2642745Y1743339D01*
Y1735008D01*
X3904992Y1126890D02*
X3855008D01*
Y1151882D01*
X3863339Y1160213D01*
X3880000D01*
X3888331Y1151882D01*
Y1126890D01*
X3855008Y1210197D02*
X3863339Y1193535D01*
X3880000Y1176874D01*
X3896661D01*
X3904992Y1185205D01*
Y1201866D01*
X3896661Y1210197D01*
X3888331D01*
X3880000Y1201866D01*
Y1176874D01*
X2017520Y30008D02*
Y79992D01*
X2042512D01*
X2050843Y71661D01*
Y55000D01*
X2042512Y46669D01*
X2017520D01*
X2067504Y30008D02*
X2084165D01*
X2075835D01*
Y79992D01*
X2067504Y71661D01*
X2109157D02*
X2117488Y79992D01*
X2134149D01*
X2142480Y71661D01*
Y38339D01*
X2134149Y30008D01*
X2117488D01*
X2109157Y38339D01*
Y71661D01*
X304871Y1470010D02*
Y1529990D01*
X334861D01*
X344858Y1519994D01*
Y1500000D01*
X334861Y1490003D01*
X304871D01*
X364852Y1519994D02*
X374849Y1529990D01*
X394842D01*
X404839Y1519994D01*
Y1509997D01*
X394842Y1500000D01*
X384845D01*
X394842D01*
X404839Y1490003D01*
Y1480006D01*
X394842Y1470010D01*
X374849D01*
X364852Y1480006D01*
X955286Y1470010D02*
Y1529990D01*
X985277D01*
X995273Y1519994D01*
Y1500000D01*
X985277Y1490003D01*
X955286D01*
X1045257Y1470010D02*
Y1529990D01*
X1015267Y1500000D01*
X1055254D01*
X1604743Y1470010D02*
Y1529990D01*
X1634733D01*
X1644730Y1519994D01*
Y1500000D01*
X1634733Y1490003D01*
X1604743D01*
X1704711Y1470010D02*
X1664724D01*
X1704711Y1509997D01*
Y1519994D01*
X1694714Y1529990D01*
X1674720D01*
X1664724Y1519994D01*
X1266634Y612507D02*
Y657493D01*
X1289127D01*
X1296625Y649995D01*
Y635000D01*
X1289127Y627503D01*
X1266634D01*
X1311620Y612507D02*
X1326615D01*
X1319117D01*
Y657493D01*
X1311620Y649995D01*
D60*
X2770000Y1631661D02*
Y1664984D01*
X2786661Y1681645D01*
X2803323Y1664984D01*
Y1631661D01*
Y1656653D01*
X2770000D01*
X2819984Y1631661D02*
X2836645D01*
X2828314D01*
Y1681645D01*
X2819984D01*
X2861637Y1631661D02*
X2878298D01*
X2869968D01*
Y1681645D01*
X2861637D01*
X2903290Y1631661D02*
X2919952D01*
X2911621D01*
Y1664984D01*
X2903290D01*
X2944943Y1631661D02*
Y1664984D01*
X2969935D01*
X2978266Y1656653D01*
Y1631661D01*
X3044911D02*
Y1681645D01*
X3069903D01*
X3078234Y1673314D01*
Y1656653D01*
X3069903Y1648323D01*
X3044911D01*
X3061572D02*
X3078234Y1631661D01*
X3094895D02*
X3111556D01*
X3103225D01*
Y1664984D01*
X3094895D01*
X3136548Y1631661D02*
Y1681645D01*
Y1648323D02*
X3161540Y1664984D01*
X3136548Y1648323D02*
X3161540Y1631661D01*
X3186532Y1664984D02*
Y1639992D01*
X3194862Y1631661D01*
X3219854D01*
Y1664984D01*
X3236516D02*
Y1639992D01*
X3244846Y1631661D01*
X3269838D01*
Y1623331D01*
X3261508Y1615000D01*
X3253177D01*
X3269838Y1631661D02*
Y1664984D01*
D61*
X705032Y1500005D02*
Y1529995D01*
X715029Y1519998D01*
X725026Y1529995D01*
Y1500005D01*
X750018Y1529995D02*
X740021D01*
X735023Y1524997D01*
Y1505003D01*
X740021Y1500005D01*
X750018D01*
X755016Y1505003D01*
Y1524997D01*
X750018Y1529995D01*
X765013D02*
X785006D01*
X775010D01*
Y1500005D01*
X809999Y1529995D02*
X800002D01*
X795003Y1524997D01*
Y1505003D01*
X800002Y1500005D01*
X809999D01*
X814997Y1505003D01*
Y1524997D01*
X809999Y1529995D01*
X824994Y1500005D02*
Y1529995D01*
X839989D01*
X844987Y1524997D01*
Y1515000D01*
X839989Y1510002D01*
X824994D01*
X834990D02*
X844987Y1500005D01*
X884974Y1529995D02*
Y1524997D01*
X894971Y1515000D01*
X904968Y1524997D01*
Y1529995D01*
X894971Y1515000D02*
Y1500005D01*
X1345032D02*
Y1529995D01*
X1355029Y1519998D01*
X1365026Y1529995D01*
Y1500005D01*
X1390018Y1529995D02*
X1380021D01*
X1375023Y1524997D01*
Y1505003D01*
X1380021Y1500005D01*
X1390018D01*
X1395016Y1505003D01*
Y1524997D01*
X1390018Y1529995D01*
X1405013D02*
X1425006D01*
X1415010D01*
Y1500005D01*
X1449998Y1529995D02*
X1440002D01*
X1435003Y1524997D01*
Y1505003D01*
X1440002Y1500005D01*
X1449998D01*
X1454997Y1505003D01*
Y1524997D01*
X1449998Y1529995D01*
X1464994Y1500005D02*
Y1529995D01*
X1479989D01*
X1484987Y1524997D01*
Y1515000D01*
X1479989Y1510002D01*
X1464994D01*
X1474990D02*
X1484987Y1500005D01*
X1524974Y1529995D02*
Y1500005D01*
X1534971Y1510002D01*
X1544968Y1500005D01*
Y1529995D01*
X2000032Y1500005D02*
Y1529995D01*
X2010029Y1519998D01*
X2020026Y1529995D01*
Y1500005D01*
X2045018Y1529995D02*
X2035021D01*
X2030023Y1524997D01*
Y1505003D01*
X2035021Y1500005D01*
X2045018D01*
X2050016Y1505003D01*
Y1524997D01*
X2045018Y1529995D01*
X2060013D02*
X2080006D01*
X2070010D01*
Y1500005D01*
X2104999Y1529995D02*
X2095002D01*
X2090003Y1524997D01*
Y1505003D01*
X2095002Y1500005D01*
X2104999D01*
X2109997Y1505003D01*
Y1524997D01*
X2104999Y1529995D01*
X2119994Y1500005D02*
Y1529995D01*
X2134989D01*
X2139987Y1524997D01*
Y1515000D01*
X2134989Y1510002D01*
X2119994D01*
X2129990D02*
X2139987Y1500005D01*
X2179974Y1529995D02*
X2199968D01*
Y1524997D01*
X2179974Y1505003D01*
Y1500005D01*
X2199968D01*
%TF.MD5,d62c64f5189cdc3ec24083cdba54db01*%
M02*
