%TF.GenerationSoftware,Altium Limited,Altium Designer,22.11.1 (43)*%
G04 Layer_Physical_Order=5*
G04 Layer_Color=16737945*
%FSLAX26Y26*%
%MOIN*%
%TF.SameCoordinates,2A7337FD-AF25-45B1-AC32-E314E96981BF*%
%TF.FilePolarity,Positive*%
%TF.FileFunction,Copper,L5,Inr,Signal*%
%TF.Part,Single*%
G01*
G75*
%TA.AperFunction,Conductor*%
%ADD32C,0.012000*%
%TA.AperFunction,ComponentPad*%
%ADD36R,0.078740X0.078740*%
%ADD37C,0.078740*%
%ADD38R,0.078740X0.078740*%
%ADD39O,0.047244X0.098425*%
%ADD40C,0.023622*%
%ADD41R,0.064961X0.064961*%
%ADD42C,0.064961*%
%ADD43C,0.236220*%
%ADD44C,0.070866*%
%ADD45R,0.070866X0.070866*%
%ADD46R,0.157480X0.078740*%
%ADD47R,0.173228X0.086614*%
%ADD48R,0.078740X0.157480*%
%ADD49C,0.062992*%
%ADD50R,0.062992X0.062992*%
%ADD51R,0.070866X0.070866*%
%TA.AperFunction,ViaPad*%
%ADD52C,0.017716*%
G36*
X2158218Y1739284D02*
X2079614D01*
Y1646543D01*
X2158218D01*
Y1308908D01*
X2152163Y1306905D01*
X2150218Y1306773D01*
X2146141Y1310850D01*
X2140312Y1313264D01*
X2134004D01*
X2128175Y1310850D01*
X2123714Y1306389D01*
X2121300Y1300560D01*
Y1294251D01*
X2123714Y1288423D01*
X2128175Y1283962D01*
X2134004Y1281547D01*
X2140312D01*
X2146141Y1283962D01*
X2150218Y1288039D01*
X2152163Y1287906D01*
X2158218Y1285904D01*
Y942137D01*
X2050000D01*
X2047269Y941594D01*
X2044953Y940047D01*
X2043406Y937731D01*
X2042863Y935000D01*
Y838674D01*
X2043406Y835943D01*
X2044953Y833628D01*
X2047269Y832081D01*
X2051500Y830328D01*
X2051048Y829237D01*
Y822928D01*
X2051500Y821837D01*
X2047269Y820084D01*
X2044953Y818537D01*
X2043406Y816222D01*
X2042863Y813490D01*
Y239739D01*
X827137D01*
Y950000D01*
X826594Y952731D01*
X825047Y955047D01*
X822731Y956594D01*
X820000Y957137D01*
X562183D01*
Y960445D01*
X559769Y966273D01*
X555308Y970734D01*
X549480Y973148D01*
X543171D01*
X537342Y970734D01*
X532881Y966273D01*
X530467Y960445D01*
Y957137D01*
X16056D01*
Y1952448D01*
X2158218D01*
Y1739284D01*
D02*
G37*
G36*
X3920952Y882198D02*
X3681103D01*
X3674959Y880976D01*
X3669750Y877495D01*
X3666269Y872286D01*
X3665047Y866142D01*
Y16056D01*
X2556801D01*
X2555104Y21056D01*
X2555115Y21066D01*
X2560024Y27462D01*
X2563109Y34912D01*
X2564162Y42906D01*
Y94087D01*
X2563109Y102081D01*
X2560024Y109530D01*
X2555115Y115927D01*
X2548719Y120835D01*
X2541269Y123921D01*
X2533276Y124973D01*
X2525282Y123921D01*
X2517832Y120835D01*
X2511436Y115927D01*
X2506527Y109530D01*
X2503442Y102081D01*
X2502389Y94087D01*
Y42906D01*
X2503442Y34912D01*
X2506527Y27462D01*
X2511436Y21066D01*
X2511448Y21056D01*
X2509750Y16056D01*
X2216250D01*
X2214552Y21056D01*
X2214564Y21066D01*
X2219473Y27462D01*
X2222558Y34912D01*
X2223611Y42906D01*
Y94087D01*
X2222558Y102081D01*
X2219473Y109530D01*
X2214564Y115927D01*
X2208168Y120835D01*
X2200718Y123921D01*
X2192724Y124973D01*
X2184731Y123921D01*
X2177281Y120835D01*
X2170885Y115927D01*
X2165976Y109530D01*
X2162891Y102081D01*
X2161838Y94087D01*
Y42906D01*
X2162891Y34912D01*
X2165976Y27462D01*
X2170885Y21066D01*
X2170896Y21056D01*
X2169199Y16056D01*
X16056D01*
Y950000D01*
X532180D01*
X532881Y948307D01*
X537342Y943846D01*
X543171Y941432D01*
X549480D01*
X555308Y943846D01*
X559769Y948307D01*
X560470Y950000D01*
X820000D01*
Y232602D01*
X2050000D01*
Y813490D01*
X2055000Y815562D01*
X2057923Y812639D01*
X2063752Y810224D01*
X2070061D01*
X2075889Y812639D01*
X2080350Y817099D01*
X2082764Y822928D01*
Y829237D01*
X2080350Y835065D01*
X2075889Y839526D01*
X2070061Y841941D01*
X2063752D01*
X2057923Y839526D01*
X2055000Y836603D01*
X2050000Y838674D01*
Y935000D01*
X2165355D01*
Y1646543D01*
X2172354D01*
Y1739284D01*
X2165355D01*
Y1952448D01*
X3920952D01*
Y882198D01*
D02*
G37*
%LPC*%
G36*
X167327Y1896764D02*
X147634D01*
X128184Y1893684D01*
X109455Y1887598D01*
X91909Y1878658D01*
X75977Y1867083D01*
X62052Y1853158D01*
X50477Y1837226D01*
X41537Y1819680D01*
X35451Y1800951D01*
X32371Y1781500D01*
Y1761808D01*
X35451Y1742357D01*
X41537Y1723628D01*
X50477Y1706082D01*
X62052Y1690150D01*
X75977Y1676225D01*
X91909Y1664650D01*
X109455Y1655710D01*
X128184Y1649624D01*
X147634Y1646544D01*
X167327D01*
X186778Y1649624D01*
X205506Y1655710D01*
X223053Y1664650D01*
X238985Y1676225D01*
X252910Y1690150D01*
X264485Y1706082D01*
X273425Y1723628D01*
X279510Y1742357D01*
X282591Y1761808D01*
Y1781500D01*
X279510Y1800951D01*
X273425Y1819680D01*
X264485Y1837226D01*
X252910Y1853158D01*
X238985Y1867083D01*
X223053Y1878658D01*
X205506Y1887598D01*
X186778Y1893684D01*
X167327Y1896764D01*
D02*
G37*
G36*
X1982089Y1739284D02*
X1969880D01*
X1958086Y1736123D01*
X1947512Y1730019D01*
X1938879Y1721385D01*
X1932774Y1710812D01*
X1929614Y1699018D01*
Y1686809D01*
X1932774Y1675015D01*
X1938879Y1664441D01*
X1947512Y1655808D01*
X1958086Y1649703D01*
X1969880Y1646543D01*
X1982089D01*
X1993882Y1649703D01*
X2004456Y1655808D01*
X2013090Y1664441D01*
X2019194Y1675015D01*
X2022354Y1686809D01*
Y1699018D01*
X2019194Y1710812D01*
X2013090Y1721385D01*
X2004456Y1730019D01*
X1993882Y1736123D01*
X1982089Y1739284D01*
D02*
G37*
G36*
X1832089D02*
X1819880D01*
X1808086Y1736123D01*
X1797512Y1730019D01*
X1788879Y1721385D01*
X1782774Y1710812D01*
X1779614Y1699018D01*
Y1686809D01*
X1782774Y1675015D01*
X1788879Y1664441D01*
X1797512Y1655808D01*
X1808086Y1649703D01*
X1819880Y1646543D01*
X1832089D01*
X1843882Y1649703D01*
X1854456Y1655808D01*
X1863090Y1664441D01*
X1869194Y1675015D01*
X1872354Y1686809D01*
Y1699018D01*
X1869194Y1710812D01*
X1863090Y1721385D01*
X1854456Y1730019D01*
X1843882Y1736123D01*
X1832089Y1739284D01*
D02*
G37*
G36*
X1682089D02*
X1669880D01*
X1658086Y1736123D01*
X1647512Y1730019D01*
X1638879Y1721385D01*
X1632774Y1710812D01*
X1629614Y1699018D01*
Y1686809D01*
X1632774Y1675015D01*
X1638879Y1664441D01*
X1647512Y1655808D01*
X1658086Y1649703D01*
X1669880Y1646543D01*
X1682089D01*
X1693882Y1649703D01*
X1704456Y1655808D01*
X1713090Y1664441D01*
X1719194Y1675015D01*
X1722354Y1686809D01*
Y1699018D01*
X1719194Y1710812D01*
X1713090Y1721385D01*
X1704456Y1730019D01*
X1693882Y1736123D01*
X1682089Y1739284D01*
D02*
G37*
G36*
X1522748D02*
X1430008D01*
Y1646543D01*
X1522748D01*
Y1739284D01*
D02*
G37*
G36*
X1332483D02*
X1320273D01*
X1308480Y1736123D01*
X1297906Y1730019D01*
X1289273Y1721385D01*
X1283168Y1710812D01*
X1280008Y1699018D01*
Y1686809D01*
X1283168Y1675015D01*
X1289273Y1664441D01*
X1297906Y1655808D01*
X1308480Y1649703D01*
X1320273Y1646543D01*
X1332483D01*
X1344276Y1649703D01*
X1354850Y1655808D01*
X1363483Y1664441D01*
X1369588Y1675015D01*
X1372748Y1686809D01*
Y1699018D01*
X1369588Y1710812D01*
X1363483Y1721385D01*
X1354850Y1730019D01*
X1344276Y1736123D01*
X1332483Y1739284D01*
D02*
G37*
G36*
X1182483D02*
X1170273D01*
X1158480Y1736123D01*
X1147906Y1730019D01*
X1139273Y1721385D01*
X1133168Y1710812D01*
X1130008Y1699018D01*
Y1686809D01*
X1133168Y1675015D01*
X1139273Y1664441D01*
X1147906Y1655808D01*
X1158480Y1649703D01*
X1170273Y1646543D01*
X1182483D01*
X1194276Y1649703D01*
X1204850Y1655808D01*
X1213483Y1664441D01*
X1219588Y1675015D01*
X1222748Y1686809D01*
Y1699018D01*
X1219588Y1710812D01*
X1213483Y1721385D01*
X1204850Y1730019D01*
X1194276Y1736123D01*
X1182483Y1739284D01*
D02*
G37*
G36*
X1032483D02*
X1020273D01*
X1008480Y1736123D01*
X997906Y1730019D01*
X989273Y1721385D01*
X983168Y1710812D01*
X980008Y1699018D01*
Y1686809D01*
X983168Y1675015D01*
X989273Y1664441D01*
X997906Y1655808D01*
X1008480Y1649703D01*
X1020273Y1646543D01*
X1032483D01*
X1044276Y1649703D01*
X1054850Y1655808D01*
X1063483Y1664441D01*
X1069588Y1675015D01*
X1072748Y1686809D01*
Y1699018D01*
X1069588Y1710812D01*
X1063483Y1721385D01*
X1054850Y1730019D01*
X1044276Y1736123D01*
X1032483Y1739284D01*
D02*
G37*
G36*
X873142D02*
X780402D01*
Y1646543D01*
X873142D01*
Y1739284D01*
D02*
G37*
G36*
X682876D02*
X670667D01*
X658874Y1736123D01*
X648300Y1730019D01*
X639666Y1721385D01*
X633562Y1710812D01*
X630402Y1699018D01*
Y1686809D01*
X633562Y1675015D01*
X639666Y1664441D01*
X648300Y1655808D01*
X658874Y1649703D01*
X670667Y1646543D01*
X682876D01*
X694670Y1649703D01*
X705244Y1655808D01*
X713877Y1664441D01*
X719982Y1675015D01*
X723142Y1686809D01*
Y1699018D01*
X719982Y1710812D01*
X713877Y1721385D01*
X705244Y1730019D01*
X694670Y1736123D01*
X682876Y1739284D01*
D02*
G37*
G36*
X532876D02*
X520667D01*
X508873Y1736123D01*
X498300Y1730019D01*
X489666Y1721385D01*
X483562Y1710812D01*
X480402Y1699018D01*
Y1686809D01*
X483562Y1675015D01*
X489666Y1664441D01*
X498300Y1655808D01*
X508873Y1649703D01*
X520667Y1646543D01*
X532876D01*
X544670Y1649703D01*
X555244Y1655808D01*
X563877Y1664441D01*
X569982Y1675015D01*
X573142Y1686809D01*
Y1699018D01*
X569982Y1710812D01*
X563877Y1721385D01*
X555244Y1730019D01*
X544670Y1736123D01*
X532876Y1739284D01*
D02*
G37*
G36*
X382876D02*
X370667D01*
X358873Y1736123D01*
X348300Y1730019D01*
X339666Y1721385D01*
X333562Y1710812D01*
X330402Y1699018D01*
Y1686809D01*
X333562Y1675015D01*
X339666Y1664441D01*
X348300Y1655808D01*
X358873Y1649703D01*
X370667Y1646543D01*
X382876D01*
X394670Y1649703D01*
X405244Y1655808D01*
X413877Y1664441D01*
X419982Y1675015D01*
X423142Y1686809D01*
Y1699018D01*
X419982Y1710812D01*
X413877Y1721385D01*
X405244Y1730019D01*
X394670Y1736123D01*
X382876Y1739284D01*
D02*
G37*
G36*
X673054Y1314858D02*
X666745D01*
X660917Y1312444D01*
X656456Y1307983D01*
X654042Y1302154D01*
Y1295846D01*
X656456Y1290017D01*
X660917Y1285556D01*
X666745Y1283142D01*
X673054D01*
X678883Y1285556D01*
X683344Y1290017D01*
X685758Y1295846D01*
Y1302154D01*
X683344Y1307983D01*
X678883Y1312444D01*
X673054Y1314858D01*
D02*
G37*
G36*
X213054D02*
X206745D01*
X200917Y1312444D01*
X196456Y1307983D01*
X194042Y1302154D01*
Y1295846D01*
X196456Y1290017D01*
X200917Y1285556D01*
X206745Y1283142D01*
X213054D01*
X218883Y1285556D01*
X223344Y1290017D01*
X225758Y1295846D01*
Y1302154D01*
X223344Y1307983D01*
X218883Y1312444D01*
X213054Y1314858D01*
D02*
G37*
G36*
X1007149Y1275518D02*
X1000840D01*
X995012Y1273104D01*
X990551Y1268643D01*
X988136Y1262815D01*
Y1256506D01*
X990551Y1250677D01*
X995012Y1246216D01*
X1000840Y1243802D01*
X1007149D01*
X1012978Y1246216D01*
X1017439Y1250677D01*
X1019853Y1256506D01*
Y1262815D01*
X1017439Y1268643D01*
X1012978Y1273104D01*
X1007149Y1275518D01*
D02*
G37*
G36*
X276154D02*
X269846D01*
X264017Y1273104D01*
X259556Y1268643D01*
X257142Y1262815D01*
Y1256506D01*
X259556Y1250677D01*
X264017Y1246216D01*
X269846Y1243802D01*
X276154D01*
X281983Y1246216D01*
X286444Y1250677D01*
X288858Y1256506D01*
Y1262815D01*
X286444Y1268643D01*
X281983Y1273104D01*
X276154Y1275518D01*
D02*
G37*
G36*
X2057635Y1271503D02*
X2051326D01*
X2045498Y1269089D01*
X2041037Y1264628D01*
X2038623Y1258799D01*
Y1252490D01*
X2041037Y1246662D01*
X2045498Y1242201D01*
X2051326Y1239786D01*
X2057635D01*
X2063464Y1242201D01*
X2067925Y1246662D01*
X2070339Y1252490D01*
Y1258799D01*
X2067925Y1264628D01*
X2063464Y1269089D01*
X2057635Y1271503D01*
D02*
G37*
G36*
X1735005D02*
X1728697D01*
X1722868Y1269089D01*
X1718407Y1264628D01*
X1715993Y1258799D01*
Y1252490D01*
X1718407Y1246662D01*
X1722868Y1242201D01*
X1728697Y1239786D01*
X1735005D01*
X1740834Y1242201D01*
X1745295Y1246662D01*
X1747709Y1252490D01*
Y1258799D01*
X1745295Y1264628D01*
X1740834Y1269089D01*
X1735005Y1271503D01*
D02*
G37*
G36*
X1512154D02*
X1505846D01*
X1500017Y1269089D01*
X1495556Y1264628D01*
X1493142Y1258799D01*
Y1252490D01*
X1495556Y1246662D01*
X1500017Y1242201D01*
X1505846Y1239786D01*
X1512154D01*
X1517983Y1242201D01*
X1522444Y1246662D01*
X1524858Y1252490D01*
Y1258799D01*
X1522444Y1264628D01*
X1517983Y1269089D01*
X1512154Y1271503D01*
D02*
G37*
G36*
X1329779D02*
X1323470D01*
X1317642Y1269089D01*
X1313181Y1264628D01*
X1310766Y1258799D01*
Y1252490D01*
X1313181Y1246662D01*
X1317642Y1242201D01*
X1323470Y1239786D01*
X1329779D01*
X1335608Y1242201D01*
X1340069Y1246662D01*
X1342483Y1252490D01*
Y1258799D01*
X1340069Y1264628D01*
X1335608Y1269089D01*
X1329779Y1271503D01*
D02*
G37*
G36*
X787123D02*
X780815D01*
X774986Y1269089D01*
X770525Y1264628D01*
X768111Y1258799D01*
Y1252490D01*
X770525Y1246662D01*
X774986Y1242201D01*
X780815Y1239786D01*
X787123D01*
X792952Y1242201D01*
X797413Y1246662D01*
X799827Y1252490D01*
Y1258799D01*
X797413Y1264628D01*
X792952Y1269089D01*
X787123Y1271503D01*
D02*
G37*
G36*
X591054D02*
X584745D01*
X578917Y1269089D01*
X574456Y1264628D01*
X572042Y1258799D01*
Y1252490D01*
X574456Y1246662D01*
X578917Y1242201D01*
X584745Y1239786D01*
X591054D01*
X596883Y1242201D01*
X601344Y1246662D01*
X603758Y1252490D01*
Y1258799D01*
X601344Y1264628D01*
X596883Y1269089D01*
X591054Y1271503D01*
D02*
G37*
G36*
X1587154Y1269472D02*
X1580846D01*
X1575017Y1267057D01*
X1570556Y1262597D01*
X1568142Y1256768D01*
Y1250459D01*
X1570556Y1244630D01*
X1575017Y1240170D01*
X1580846Y1237755D01*
X1587154D01*
X1592983Y1240170D01*
X1597444Y1244630D01*
X1599858Y1250459D01*
Y1256768D01*
X1597444Y1262597D01*
X1592983Y1267057D01*
X1587154Y1269472D01*
D02*
G37*
G36*
X862123Y1269330D02*
X855815D01*
X849986Y1266915D01*
X845525Y1262454D01*
X843111Y1256626D01*
Y1250317D01*
X845525Y1244488D01*
X849986Y1240027D01*
X855815Y1237613D01*
X862123D01*
X867952Y1240027D01*
X872413Y1244488D01*
X874827Y1250317D01*
Y1256626D01*
X872413Y1262454D01*
X867952Y1266915D01*
X862123Y1269330D01*
D02*
G37*
G36*
X129424Y1269015D02*
X123116D01*
X117287Y1266601D01*
X112826Y1262140D01*
X110412Y1256311D01*
Y1250003D01*
X112826Y1244174D01*
X117287Y1239713D01*
X123116Y1237299D01*
X129424D01*
X135253Y1239713D01*
X139714Y1244174D01*
X142128Y1250003D01*
Y1256311D01*
X139714Y1262140D01*
X135253Y1266601D01*
X129424Y1269015D01*
D02*
G37*
G36*
X46155D02*
X39846D01*
X34017Y1266601D01*
X29557Y1262140D01*
X27142Y1256311D01*
Y1250003D01*
X29557Y1244174D01*
X34017Y1239713D01*
X39846Y1237299D01*
X46155D01*
X51983Y1239713D01*
X56444Y1244174D01*
X58859Y1250003D01*
Y1256311D01*
X56444Y1262140D01*
X51983Y1266601D01*
X46155Y1269015D01*
D02*
G37*
G36*
X1468154Y1154437D02*
X1461846D01*
X1456017Y1152022D01*
X1451556Y1147561D01*
X1449142Y1141733D01*
Y1135424D01*
X1451556Y1129595D01*
X1456017Y1125134D01*
X1461846Y1122720D01*
X1468154D01*
X1473983Y1125134D01*
X1478444Y1129595D01*
X1480858Y1135424D01*
Y1141733D01*
X1478444Y1147561D01*
X1473983Y1152022D01*
X1468154Y1154437D01*
D02*
G37*
G36*
X1309155Y1093859D02*
X1302846D01*
X1297017Y1091444D01*
X1292557Y1086984D01*
X1290142Y1081155D01*
Y1074846D01*
X1292557Y1069017D01*
X1297017Y1064557D01*
X1302846Y1062142D01*
X1309155D01*
X1314984Y1064557D01*
X1319444Y1069017D01*
X1321859Y1074846D01*
Y1081155D01*
X1319444Y1086984D01*
X1314984Y1091444D01*
X1309155Y1093859D01*
D02*
G37*
G36*
X2033974Y1088182D02*
X2027665D01*
X2021836Y1085767D01*
X2017376Y1081306D01*
X2014961Y1075478D01*
Y1069169D01*
X2017376Y1063341D01*
X2021836Y1058880D01*
X2027665Y1056465D01*
X2033974D01*
X2039802Y1058880D01*
X2044263Y1063341D01*
X2046678Y1069169D01*
Y1075478D01*
X2044263Y1081306D01*
X2039802Y1085767D01*
X2033974Y1088182D01*
D02*
G37*
G36*
X1735005Y1083859D02*
X1728697D01*
X1722868Y1081444D01*
X1718407Y1076984D01*
X1715993Y1071155D01*
Y1064846D01*
X1718407Y1059017D01*
X1722868Y1054557D01*
X1728697Y1052142D01*
X1735005D01*
X1740834Y1054557D01*
X1745295Y1059017D01*
X1747709Y1064846D01*
Y1071155D01*
X1745295Y1076984D01*
X1740834Y1081444D01*
X1735005Y1083859D01*
D02*
G37*
G36*
X1007149D02*
X1000840D01*
X995012Y1081444D01*
X990551Y1076984D01*
X988136Y1071155D01*
Y1064846D01*
X990551Y1059017D01*
X995012Y1054557D01*
X1000840Y1052142D01*
X1007149D01*
X1012978Y1054557D01*
X1017439Y1059017D01*
X1019853Y1064846D01*
Y1071155D01*
X1017439Y1076984D01*
X1012978Y1081444D01*
X1007149Y1083859D01*
D02*
G37*
G36*
X576054D02*
X569745D01*
X563917Y1081444D01*
X559456Y1076984D01*
X557042Y1071155D01*
Y1064846D01*
X559456Y1059017D01*
X563917Y1054557D01*
X569745Y1052142D01*
X576054D01*
X581883Y1054557D01*
X586344Y1059017D01*
X588758Y1064846D01*
Y1071155D01*
X586344Y1076984D01*
X581883Y1081444D01*
X576054Y1083859D01*
D02*
G37*
G36*
X262155Y1080859D02*
X255846D01*
X250018Y1078444D01*
X245557Y1073984D01*
X243142Y1068155D01*
Y1061846D01*
X245557Y1056017D01*
X250018Y1051557D01*
X255846Y1049142D01*
X262155D01*
X267983Y1051557D01*
X272444Y1056017D01*
X274859Y1061846D01*
Y1068155D01*
X272444Y1073984D01*
X267983Y1078444D01*
X262155Y1080859D01*
D02*
G37*
G36*
X2017366Y1032204D02*
X2011057D01*
X2005228Y1029789D01*
X2000767Y1025328D01*
X1998353Y1019500D01*
Y1013191D01*
X2000767Y1007362D01*
X2005228Y1002901D01*
X2011057Y1000487D01*
X2017366D01*
X2023194Y1002901D01*
X2027655Y1007362D01*
X2030070Y1013191D01*
Y1019500D01*
X2027655Y1025328D01*
X2023194Y1029789D01*
X2017366Y1032204D01*
D02*
G37*
G36*
X1288204D02*
X1281896D01*
X1276067Y1029789D01*
X1271606Y1025328D01*
X1269192Y1019500D01*
Y1013191D01*
X1271606Y1007362D01*
X1276067Y1002901D01*
X1281896Y1000487D01*
X1288204D01*
X1294033Y1002901D01*
X1298494Y1007362D01*
X1300908Y1013191D01*
Y1019500D01*
X1298494Y1025328D01*
X1294033Y1029789D01*
X1288204Y1032204D01*
D02*
G37*
G36*
X549480D02*
X543171D01*
X537342Y1029789D01*
X532881Y1025328D01*
X530467Y1019500D01*
Y1013191D01*
X532881Y1007362D01*
X537342Y1002901D01*
X543171Y1000487D01*
X549480D01*
X555308Y1002901D01*
X559769Y1007362D01*
X562183Y1013191D01*
Y1019500D01*
X559769Y1025328D01*
X555308Y1029789D01*
X549480Y1032204D01*
D02*
G37*
G36*
X2017366Y973148D02*
X2011057D01*
X2005228Y970734D01*
X2000767Y966273D01*
X1998353Y960445D01*
Y954136D01*
X2000767Y948307D01*
X2005228Y943846D01*
X2011057Y941432D01*
X2017366D01*
X2023194Y943846D01*
X2027655Y948307D01*
X2030070Y954136D01*
Y960445D01*
X2027655Y966273D01*
X2023194Y970734D01*
X2017366Y973148D01*
D02*
G37*
G36*
X1288204D02*
X1281896D01*
X1276067Y970734D01*
X1271606Y966273D01*
X1269192Y960445D01*
Y954136D01*
X1271606Y948307D01*
X1276067Y943846D01*
X1281896Y941432D01*
X1288204D01*
X1294033Y943846D01*
X1298494Y948307D01*
X1300908Y954136D01*
Y960445D01*
X1298494Y966273D01*
X1294033Y970734D01*
X1288204Y973148D01*
D02*
G37*
G36*
X1468154D02*
X1461846D01*
X1456017Y970734D01*
X1451556Y966273D01*
X1449142Y960445D01*
Y954136D01*
X1451556Y948307D01*
X1455491Y944372D01*
X1455770Y939889D01*
X1455491Y935405D01*
X1451556Y931470D01*
X1449142Y925641D01*
Y919333D01*
X1451556Y913504D01*
X1456017Y909043D01*
X1461846Y906629D01*
X1468154D01*
X1473983Y909043D01*
X1478444Y913504D01*
X1480858Y919333D01*
Y925641D01*
X1478444Y931470D01*
X1474509Y935405D01*
X1474230Y939889D01*
X1474509Y944372D01*
X1478444Y948307D01*
X1480858Y954136D01*
Y960445D01*
X1478444Y966273D01*
X1473983Y970734D01*
X1468154Y973148D01*
D02*
G37*
G36*
X1527154Y904345D02*
X1520846D01*
X1515017Y901931D01*
X1510556Y897470D01*
X1508142Y891641D01*
Y885333D01*
X1510556Y879504D01*
X1515017Y875043D01*
X1520846Y872629D01*
X1527154D01*
X1532983Y875043D01*
X1537444Y879504D01*
X1539858Y885333D01*
Y891641D01*
X1537444Y897470D01*
X1532983Y901931D01*
X1527154Y904345D01*
D02*
G37*
G36*
X1468154Y882179D02*
X1461846D01*
X1456017Y879765D01*
X1451556Y875304D01*
X1449142Y869476D01*
Y863167D01*
X1451556Y857338D01*
X1456017Y852877D01*
X1461846Y850463D01*
X1468154D01*
X1473983Y852877D01*
X1478444Y857338D01*
X1480858Y863167D01*
Y869476D01*
X1478444Y875304D01*
X1473983Y879765D01*
X1468154Y882179D01*
D02*
G37*
G36*
X1371118D02*
X1364809D01*
X1358980Y879765D01*
X1354519Y875304D01*
X1352105Y869476D01*
Y863167D01*
X1354519Y857338D01*
X1358980Y852877D01*
X1364809Y850463D01*
X1371118D01*
X1376946Y852877D01*
X1381407Y857338D01*
X1383821Y863167D01*
Y869476D01*
X1381407Y875304D01*
X1376946Y879765D01*
X1371118Y882179D01*
D02*
G37*
G36*
X1961690Y841941D02*
X1955382D01*
X1949553Y839526D01*
X1945092Y835065D01*
X1942678Y829237D01*
Y822928D01*
X1945092Y817099D01*
X1949553Y812639D01*
X1955382Y810224D01*
X1961690D01*
X1967519Y812639D01*
X1971980Y817099D01*
X1974394Y822928D01*
Y829237D01*
X1971980Y835065D01*
X1967519Y839526D01*
X1961690Y841941D01*
D02*
G37*
G36*
X1342204D02*
X1335896D01*
X1330067Y839526D01*
X1325606Y835065D01*
X1323192Y829237D01*
Y822928D01*
X1325606Y817099D01*
X1330067Y812639D01*
X1335896Y810224D01*
X1342204D01*
X1348033Y812639D01*
X1352494Y817099D01*
X1354908Y822928D01*
Y829237D01*
X1352494Y835065D01*
X1348033Y839526D01*
X1342204Y841941D01*
D02*
G37*
G36*
X1233834D02*
X1227525D01*
X1221697Y839526D01*
X1217236Y835065D01*
X1214822Y829237D01*
Y822928D01*
X1217236Y817099D01*
X1221697Y812639D01*
X1227525Y810224D01*
X1233834D01*
X1239663Y812639D01*
X1244124Y817099D01*
X1246538Y822928D01*
Y829237D01*
X1244124Y835065D01*
X1239663Y839526D01*
X1233834Y841941D01*
D02*
G37*
G36*
X1931690Y759263D02*
X1925382D01*
X1919553Y756849D01*
X1915092Y752388D01*
X1912678Y746560D01*
Y740251D01*
X1915092Y734422D01*
X1919553Y729961D01*
X1925382Y727547D01*
X1931690D01*
X1937519Y729961D01*
X1941980Y734422D01*
X1944394Y740251D01*
Y746560D01*
X1941980Y752388D01*
X1937519Y756849D01*
X1931690Y759263D01*
D02*
G37*
G36*
X1861320D02*
X1855012D01*
X1849183Y756849D01*
X1844722Y752388D01*
X1842308Y746560D01*
Y740251D01*
X1844722Y734422D01*
X1849183Y729961D01*
X1855012Y727547D01*
X1861320D01*
X1867149Y729961D01*
X1871610Y734422D01*
X1874024Y740251D01*
Y746560D01*
X1871610Y752388D01*
X1867149Y756849D01*
X1861320Y759263D01*
D02*
G37*
G36*
X1790320D02*
X1784012D01*
X1778183Y756849D01*
X1773722Y752388D01*
X1771308Y746560D01*
Y740251D01*
X1773722Y734422D01*
X1778183Y729961D01*
X1784012Y727547D01*
X1790320D01*
X1796149Y729961D01*
X1800610Y734422D01*
X1803024Y740251D01*
Y746560D01*
X1800610Y752388D01*
X1796149Y756849D01*
X1790320Y759263D01*
D02*
G37*
G36*
X1342204D02*
X1335896D01*
X1330067Y756849D01*
X1325606Y752388D01*
X1323192Y746560D01*
Y740251D01*
X1325606Y734422D01*
X1330067Y729961D01*
X1335896Y727547D01*
X1342204D01*
X1348033Y729961D01*
X1352494Y734422D01*
X1354908Y740251D01*
Y746560D01*
X1352494Y752388D01*
X1348033Y756849D01*
X1342204Y759263D01*
D02*
G37*
G36*
X1273204D02*
X1266896D01*
X1261067Y756849D01*
X1256606Y752388D01*
X1254192Y746560D01*
Y740251D01*
X1256606Y734422D01*
X1261067Y729961D01*
X1266896Y727547D01*
X1273204D01*
X1279033Y729961D01*
X1283494Y734422D01*
X1285908Y740251D01*
Y746560D01*
X1283494Y752388D01*
X1279033Y756849D01*
X1273204Y759263D01*
D02*
G37*
G36*
X1203834D02*
X1197525D01*
X1191697Y756849D01*
X1187236Y752388D01*
X1184822Y746560D01*
Y740251D01*
X1187236Y734422D01*
X1191697Y729961D01*
X1197525Y727547D01*
X1203834D01*
X1209663Y729961D01*
X1214124Y734422D01*
X1216538Y740251D01*
Y746560D01*
X1214124Y752388D01*
X1209663Y756849D01*
X1203834Y759263D01*
D02*
G37*
G36*
X1133464D02*
X1127155D01*
X1121327Y756849D01*
X1116866Y752388D01*
X1114451Y746560D01*
Y740251D01*
X1116866Y734422D01*
X1121327Y729961D01*
X1127155Y727547D01*
X1133464D01*
X1139293Y729961D01*
X1143754Y734422D01*
X1146168Y740251D01*
Y746560D01*
X1143754Y752388D01*
X1139293Y756849D01*
X1133464Y759263D01*
D02*
G37*
G36*
X1062464D02*
X1056155D01*
X1050327Y756849D01*
X1045866Y752388D01*
X1043451Y746560D01*
Y740251D01*
X1045866Y734422D01*
X1050327Y729961D01*
X1056155Y727547D01*
X1062464D01*
X1068293Y729961D01*
X1072754Y734422D01*
X1075168Y740251D01*
Y746560D01*
X1072754Y752388D01*
X1068293Y756849D01*
X1062464Y759263D01*
D02*
G37*
G36*
X945440Y717925D02*
X939132D01*
X933303Y715510D01*
X928842Y711050D01*
X926428Y705221D01*
Y698912D01*
X928842Y693084D01*
X933303Y688623D01*
X939132Y686208D01*
X945440D01*
X951269Y688623D01*
X955730Y693084D01*
X958144Y698912D01*
Y705221D01*
X955730Y711050D01*
X951269Y715510D01*
X945440Y717925D01*
D02*
G37*
G36*
X1243204Y689197D02*
X1236896D01*
X1231067Y686783D01*
X1226606Y682322D01*
X1224192Y676493D01*
Y670184D01*
X1226606Y664356D01*
X1231067Y659895D01*
X1236896Y657480D01*
X1243204D01*
X1249033Y659895D01*
X1253494Y664356D01*
X1255908Y670184D01*
Y676493D01*
X1253494Y682322D01*
X1249033Y686783D01*
X1243204Y689197D01*
D02*
G37*
G36*
X1172834D02*
X1166525D01*
X1160697Y686783D01*
X1156236Y682322D01*
X1153822Y676493D01*
Y670184D01*
X1156236Y664356D01*
X1160697Y659895D01*
X1166525Y657480D01*
X1172834D01*
X1178663Y659895D01*
X1183124Y664356D01*
X1185538Y670184D01*
Y676493D01*
X1183124Y682322D01*
X1178663Y686783D01*
X1172834Y689197D01*
D02*
G37*
G36*
X1095440D02*
X1089132D01*
X1083303Y686783D01*
X1078842Y682322D01*
X1076428Y676493D01*
Y670184D01*
X1078842Y664356D01*
X1083303Y659895D01*
X1089132Y657480D01*
X1095440D01*
X1101269Y659895D01*
X1105730Y664356D01*
X1108144Y670184D01*
Y676493D01*
X1105730Y682322D01*
X1101269Y686783D01*
X1095440Y689197D01*
D02*
G37*
G36*
X1493614Y594456D02*
X1445378Y546221D01*
X1493614Y497985D01*
Y594456D01*
D02*
G37*
G36*
X1296386Y594457D02*
Y497984D01*
X1344622Y546221D01*
X1296386Y594457D01*
D02*
G37*
G36*
X1486543Y601528D02*
X1303457D01*
X1355229Y549756D01*
X1351693Y546221D01*
X1355229Y542685D01*
X1303457Y490913D01*
X1486543D01*
X1434772Y542685D01*
X1438307Y546221D01*
X1434772Y549756D01*
X1486543Y601528D01*
D02*
G37*
G36*
X1963234Y475497D02*
X1953098D01*
X1943307Y472873D01*
X1934529Y467805D01*
X1927361Y460638D01*
X1922293Y451859D01*
X1919670Y442069D01*
Y431932D01*
X1922293Y422142D01*
X1927361Y413363D01*
X1934529Y406196D01*
X1943307Y401128D01*
X1953098Y398505D01*
X1963234D01*
X1973025Y401128D01*
X1981803Y406196D01*
X1988970Y413363D01*
X1994039Y422142D01*
X1996662Y431932D01*
Y442069D01*
X1994039Y451859D01*
X1988970Y460638D01*
X1981803Y467805D01*
X1973025Y472873D01*
X1963234Y475497D01*
D02*
G37*
G36*
X1863234D02*
X1853098D01*
X1843307Y472873D01*
X1834529Y467805D01*
X1827361Y460638D01*
X1822293Y451859D01*
X1819670Y442069D01*
Y431932D01*
X1822293Y422142D01*
X1827361Y413363D01*
X1834529Y406196D01*
X1843307Y401128D01*
X1853098Y398505D01*
X1863234D01*
X1873025Y401128D01*
X1881803Y406196D01*
X1888970Y413363D01*
X1894039Y422142D01*
X1896662Y431932D01*
Y442069D01*
X1894039Y451859D01*
X1888970Y460638D01*
X1881803Y467805D01*
X1873025Y472873D01*
X1863234Y475497D01*
D02*
G37*
G36*
X1796662D02*
X1719670D01*
Y398505D01*
X1796662D01*
Y475497D01*
D02*
G37*
G36*
X1097354D02*
X1087218D01*
X1077427Y472873D01*
X1068649Y467805D01*
X1061482Y460638D01*
X1056413Y451859D01*
X1053790Y442069D01*
Y431932D01*
X1056413Y422142D01*
X1061482Y413363D01*
X1068649Y406196D01*
X1077427Y401128D01*
X1087218Y398505D01*
X1097354D01*
X1107145Y401128D01*
X1115923Y406196D01*
X1123091Y413363D01*
X1128159Y422142D01*
X1130782Y431932D01*
Y442069D01*
X1128159Y451859D01*
X1123091Y460638D01*
X1115923Y467805D01*
X1107145Y472873D01*
X1097354Y475497D01*
D02*
G37*
G36*
X997354D02*
X987218D01*
X977427Y472873D01*
X968649Y467805D01*
X961481Y460638D01*
X956413Y451859D01*
X953790Y442069D01*
Y431932D01*
X956413Y422142D01*
X961481Y413363D01*
X968649Y406196D01*
X977427Y401128D01*
X987218Y398505D01*
X997354D01*
X1007145Y401128D01*
X1015923Y406196D01*
X1023091Y413363D01*
X1028159Y422142D01*
X1030782Y431932D01*
Y442069D01*
X1028159Y451859D01*
X1023091Y460638D01*
X1015923Y467805D01*
X1007145Y472873D01*
X997354Y475497D01*
D02*
G37*
G36*
X930782D02*
X853790D01*
Y398505D01*
X930782D01*
Y475497D01*
D02*
G37*
G36*
X1626409Y513850D02*
X1533669D01*
Y342370D01*
X1626409D01*
Y513850D01*
D02*
G37*
G36*
X1480740Y356370D02*
X1309260D01*
Y263630D01*
X1480740D01*
Y356370D01*
D02*
G37*
G36*
X3296245Y1907433D02*
X3283755D01*
X3271691Y1904200D01*
X3260876Y1897956D01*
X3259995Y1897076D01*
X3290000Y1867071D01*
X3320005Y1897076D01*
X3319124Y1897956D01*
X3308309Y1904200D01*
X3296245Y1907433D01*
D02*
G37*
G36*
X3230362D02*
X3149638D01*
X3190000Y1867071D01*
X3230362Y1907433D01*
D02*
G37*
G36*
X2795362D02*
X2714638D01*
X2755000Y1867071D01*
X2795362Y1907433D01*
D02*
G37*
G36*
X3327076Y1890005D02*
X3297071Y1860000D01*
X3327076Y1829995D01*
X3327956Y1830876D01*
X3334200Y1841691D01*
X3337433Y1853755D01*
Y1866245D01*
X3334200Y1878309D01*
X3327956Y1889124D01*
X3327076Y1890005D01*
D02*
G37*
G36*
X3252924Y1890005D02*
X3252044Y1889124D01*
X3245800Y1878309D01*
X3242567Y1866245D01*
Y1853755D01*
X3245800Y1841691D01*
X3252044Y1830876D01*
X3252924Y1829995D01*
X3282929Y1860000D01*
X3252924Y1890005D01*
D02*
G37*
G36*
X3237433Y1900362D02*
X3197071Y1860000D01*
X3237433Y1819638D01*
Y1900362D01*
D02*
G37*
G36*
X2802433D02*
X2762071Y1860000D01*
X2802433Y1819638D01*
Y1900362D01*
D02*
G37*
G36*
X3142567Y1900362D02*
Y1819638D01*
X3182929Y1860000D01*
X3142567Y1900362D01*
D02*
G37*
G36*
X2707567D02*
Y1819638D01*
X2747929Y1860000D01*
X2707567Y1900362D01*
D02*
G37*
G36*
X3395586Y1902433D02*
X3384414D01*
X3373622Y1899541D01*
X3363945Y1893955D01*
X3356045Y1886054D01*
X3350459Y1876379D01*
X3347567Y1865586D01*
Y1854414D01*
X3350459Y1843621D01*
X3356045Y1833946D01*
X3363945Y1826045D01*
X3373622Y1820459D01*
X3384414Y1817567D01*
X3395586D01*
X3406378Y1820459D01*
X3416055Y1826045D01*
X3423955Y1833946D01*
X3429541Y1843621D01*
X3432433Y1854414D01*
Y1865586D01*
X3429541Y1876379D01*
X3423955Y1886054D01*
X3416055Y1893955D01*
X3406378Y1899541D01*
X3395586Y1902433D01*
D02*
G37*
G36*
X2960586D02*
X2949414D01*
X2938622Y1899541D01*
X2928945Y1893955D01*
X2921045Y1886054D01*
X2915459Y1876379D01*
X2912567Y1865586D01*
Y1854414D01*
X2915459Y1843621D01*
X2921045Y1833946D01*
X2928945Y1826045D01*
X2938622Y1820459D01*
X2949414Y1817567D01*
X2960586D01*
X2971378Y1820459D01*
X2981055Y1826045D01*
X2988955Y1833946D01*
X2994541Y1843621D01*
X2997433Y1854414D01*
Y1865586D01*
X2994541Y1876379D01*
X2988955Y1886054D01*
X2981055Y1893955D01*
X2971378Y1899541D01*
X2960586Y1902433D01*
D02*
G37*
G36*
X2860586D02*
X2849414D01*
X2838622Y1899541D01*
X2828945Y1893955D01*
X2821045Y1886054D01*
X2815459Y1876379D01*
X2812567Y1865586D01*
Y1854414D01*
X2815459Y1843621D01*
X2821045Y1833946D01*
X2828945Y1826045D01*
X2838622Y1820459D01*
X2849414Y1817567D01*
X2860586D01*
X2871378Y1820459D01*
X2881055Y1826045D01*
X2888955Y1833946D01*
X2894541Y1843621D01*
X2897433Y1854414D01*
Y1865586D01*
X2894541Y1876379D01*
X2888955Y1886054D01*
X2881055Y1893955D01*
X2871378Y1899541D01*
X2860586Y1902433D01*
D02*
G37*
G36*
X3290000Y1852929D02*
X3259995Y1822924D01*
X3260876Y1822044D01*
X3271691Y1815800D01*
X3283755Y1812567D01*
X3296245D01*
X3308309Y1815800D01*
X3319124Y1822044D01*
X3320005Y1822924D01*
X3290000Y1852929D01*
D02*
G37*
G36*
X3190000D02*
X3149638Y1812567D01*
X3230362D01*
X3190000Y1852929D01*
D02*
G37*
G36*
X2755000D02*
X2714638Y1812567D01*
X2795362D01*
X2755000Y1852929D01*
D02*
G37*
G36*
X3395586Y1802433D02*
X3384414D01*
X3373622Y1799541D01*
X3363945Y1793955D01*
X3356045Y1786054D01*
X3350459Y1776379D01*
X3347567Y1765586D01*
Y1754414D01*
X3350459Y1743621D01*
X3356045Y1733946D01*
X3363945Y1726045D01*
X3373622Y1720459D01*
X3384414Y1717567D01*
X3395586D01*
X3406378Y1720459D01*
X3416055Y1726045D01*
X3423955Y1733946D01*
X3429541Y1743621D01*
X3432433Y1754414D01*
Y1765586D01*
X3429541Y1776379D01*
X3423955Y1786054D01*
X3416055Y1793955D01*
X3406378Y1799541D01*
X3395586Y1802433D01*
D02*
G37*
G36*
X3295586D02*
X3284414D01*
X3273622Y1799541D01*
X3263945Y1793955D01*
X3256045Y1786054D01*
X3250459Y1776379D01*
X3247567Y1765586D01*
Y1754414D01*
X3250459Y1743621D01*
X3256045Y1733946D01*
X3263945Y1726045D01*
X3273622Y1720459D01*
X3284414Y1717567D01*
X3295586D01*
X3306378Y1720459D01*
X3316055Y1726045D01*
X3323955Y1733946D01*
X3329541Y1743621D01*
X3332433Y1754414D01*
Y1765586D01*
X3329541Y1776379D01*
X3323955Y1786054D01*
X3316055Y1793955D01*
X3306378Y1799541D01*
X3295586Y1802433D01*
D02*
G37*
G36*
X3195586D02*
X3184414D01*
X3173622Y1799541D01*
X3163945Y1793955D01*
X3156045Y1786054D01*
X3150459Y1776379D01*
X3147567Y1765586D01*
Y1754414D01*
X3150459Y1743621D01*
X3156045Y1733946D01*
X3163945Y1726045D01*
X3173622Y1720459D01*
X3184414Y1717567D01*
X3195586D01*
X3206378Y1720459D01*
X3216055Y1726045D01*
X3223955Y1733946D01*
X3229541Y1743621D01*
X3232433Y1754414D01*
Y1765586D01*
X3229541Y1776379D01*
X3223955Y1786054D01*
X3216055Y1793955D01*
X3206378Y1799541D01*
X3195586Y1802433D01*
D02*
G37*
G36*
X2960586D02*
X2949414D01*
X2938622Y1799541D01*
X2928945Y1793955D01*
X2921045Y1786054D01*
X2915459Y1776379D01*
X2912567Y1765586D01*
Y1754414D01*
X2915459Y1743621D01*
X2921045Y1733946D01*
X2928945Y1726045D01*
X2938622Y1720459D01*
X2949414Y1717567D01*
X2960586D01*
X2971378Y1720459D01*
X2981055Y1726045D01*
X2988955Y1733946D01*
X2994541Y1743621D01*
X2997433Y1754414D01*
Y1765586D01*
X2994541Y1776379D01*
X2988955Y1786054D01*
X2981055Y1793955D01*
X2971378Y1799541D01*
X2960586Y1802433D01*
D02*
G37*
G36*
X2860586D02*
X2849414D01*
X2838622Y1799541D01*
X2828945Y1793955D01*
X2821045Y1786054D01*
X2815459Y1776379D01*
X2812567Y1765586D01*
Y1754414D01*
X2815459Y1743621D01*
X2821045Y1733946D01*
X2828945Y1726045D01*
X2838622Y1720459D01*
X2849414Y1717567D01*
X2860586D01*
X2871378Y1720459D01*
X2881055Y1726045D01*
X2888955Y1733946D01*
X2894541Y1743621D01*
X2897433Y1754414D01*
Y1765586D01*
X2894541Y1776379D01*
X2888955Y1786054D01*
X2881055Y1793955D01*
X2871378Y1799541D01*
X2860586Y1802433D01*
D02*
G37*
G36*
X2760586D02*
X2749414D01*
X2738622Y1799541D01*
X2728945Y1793955D01*
X2721045Y1786054D01*
X2715459Y1776379D01*
X2712567Y1765586D01*
Y1754414D01*
X2715459Y1743621D01*
X2721045Y1733946D01*
X2728945Y1726045D01*
X2738622Y1720459D01*
X2749414Y1717567D01*
X2760586D01*
X2771378Y1720459D01*
X2781055Y1726045D01*
X2788955Y1733946D01*
X2794541Y1743621D01*
X2797433Y1754414D01*
Y1765586D01*
X2794541Y1776379D01*
X2788955Y1786054D01*
X2781055Y1793955D01*
X2771378Y1799541D01*
X2760586Y1802433D01*
D02*
G37*
G36*
X2993154Y1685858D02*
X2986846D01*
X2981017Y1683444D01*
X2976556Y1678983D01*
X2974142Y1673154D01*
Y1666846D01*
X2976556Y1661017D01*
X2981017Y1656556D01*
X2986846Y1654142D01*
X2993154D01*
X2998983Y1656556D01*
X3003444Y1661017D01*
X3005858Y1666846D01*
Y1673154D01*
X3003444Y1678983D01*
X2998983Y1683444D01*
X2993154Y1685858D01*
D02*
G37*
G36*
X2372051Y1896764D02*
X2352358D01*
X2332908Y1893684D01*
X2314179Y1887598D01*
X2296633Y1878658D01*
X2280701Y1867083D01*
X2266776Y1853158D01*
X2255201Y1837226D01*
X2246260Y1819680D01*
X2240175Y1800951D01*
X2237095Y1781500D01*
Y1761808D01*
X2240175Y1742357D01*
X2246260Y1723628D01*
X2255201Y1706082D01*
X2266776Y1690150D01*
X2280701Y1676225D01*
X2296633Y1664650D01*
X2314179Y1655710D01*
X2332908Y1649624D01*
X2352358Y1646544D01*
X2372051D01*
X2391501Y1649624D01*
X2410230Y1655710D01*
X2427777Y1664650D01*
X2443709Y1676225D01*
X2457633Y1690150D01*
X2469209Y1706082D01*
X2478149Y1723628D01*
X2484234Y1742357D01*
X2487315Y1761808D01*
Y1781500D01*
X2484234Y1800951D01*
X2478149Y1819680D01*
X2469209Y1837226D01*
X2457633Y1853158D01*
X2443709Y1867083D01*
X2427777Y1878658D01*
X2410230Y1887598D01*
X2391501Y1893684D01*
X2372051Y1896764D01*
D02*
G37*
G36*
X3779847Y1892111D02*
X3760154D01*
X3740704Y1889030D01*
X3721975Y1882945D01*
X3704428Y1874004D01*
X3688497Y1862429D01*
X3674572Y1848504D01*
X3662997Y1832573D01*
X3654056Y1815026D01*
X3647971Y1796297D01*
X3644890Y1776847D01*
Y1757154D01*
X3647971Y1737704D01*
X3654056Y1718975D01*
X3662997Y1701428D01*
X3674572Y1685497D01*
X3688497Y1671572D01*
X3704428Y1659997D01*
X3721975Y1651056D01*
X3740704Y1644971D01*
X3760154Y1641890D01*
X3779847D01*
X3799297Y1644971D01*
X3818026Y1651056D01*
X3835573Y1659997D01*
X3851504Y1671572D01*
X3865429Y1685497D01*
X3877004Y1701428D01*
X3885945Y1718975D01*
X3892030Y1737704D01*
X3895111Y1757154D01*
Y1776847D01*
X3892030Y1796297D01*
X3885945Y1815026D01*
X3877004Y1832573D01*
X3865429Y1848504D01*
X3851504Y1862429D01*
X3835573Y1874004D01*
X3818026Y1882945D01*
X3799297Y1889030D01*
X3779847Y1892111D01*
D02*
G37*
G36*
X3618832Y1665180D02*
X3612523D01*
X3606695Y1662766D01*
X3602234Y1658305D01*
X3599820Y1652477D01*
Y1646168D01*
X3602234Y1640339D01*
X3606695Y1635878D01*
X3612523Y1633464D01*
X3618832D01*
X3624661Y1635878D01*
X3629122Y1640339D01*
X3631536Y1646168D01*
Y1652477D01*
X3629122Y1658305D01*
X3624661Y1662766D01*
X3618832Y1665180D01*
D02*
G37*
G36*
X2994974Y1630858D02*
X2988665D01*
X2982836Y1628444D01*
X2978376Y1623983D01*
X2975961Y1618154D01*
Y1611846D01*
X2978376Y1606017D01*
X2982836Y1601556D01*
X2988665Y1599142D01*
X2994974D01*
X3000802Y1601556D01*
X3005263Y1606017D01*
X3007678Y1611846D01*
Y1618154D01*
X3005263Y1623983D01*
X3000802Y1628444D01*
X2994974Y1630858D01*
D02*
G37*
G36*
X3553154Y1615858D02*
X3546846D01*
X3541017Y1613444D01*
X3536556Y1608983D01*
X3534142Y1603154D01*
Y1596846D01*
X3536556Y1591017D01*
X3541017Y1586556D01*
X3546846Y1584142D01*
X3553154D01*
X3558983Y1586556D01*
X3563444Y1591017D01*
X3565858Y1596846D01*
Y1603154D01*
X3563444Y1608983D01*
X3558983Y1613444D01*
X3553154Y1615858D01*
D02*
G37*
G36*
X2415362Y1617433D02*
X2334638D01*
X2375000Y1577071D01*
X2415362Y1617433D01*
D02*
G37*
G36*
X2644776D02*
X2564052D01*
X2604414Y1577071D01*
X2644776Y1617433D01*
D02*
G37*
G36*
X3394974Y1599039D02*
X3388665D01*
X3382836Y1596624D01*
X3378376Y1592164D01*
X3375961Y1586335D01*
Y1580026D01*
X3378376Y1574198D01*
X3382836Y1569737D01*
X3388665Y1567322D01*
X3394974D01*
X3400802Y1569737D01*
X3405263Y1574198D01*
X3407678Y1580026D01*
Y1586335D01*
X3405263Y1592164D01*
X3400802Y1596624D01*
X3394974Y1599039D01*
D02*
G37*
G36*
X3183154Y1595858D02*
X3176846D01*
X3171017Y1593444D01*
X3166556Y1588983D01*
X3164142Y1583154D01*
Y1576846D01*
X3166556Y1571017D01*
X3171017Y1566556D01*
X3176846Y1564142D01*
X3183154D01*
X3188983Y1566556D01*
X3193444Y1571017D01*
X3195858Y1576846D01*
Y1583154D01*
X3193444Y1588983D01*
X3188983Y1593444D01*
X3183154Y1595858D01*
D02*
G37*
G36*
X2422433Y1610362D02*
X2382071Y1570000D01*
X2422433Y1529638D01*
Y1610362D01*
D02*
G37*
G36*
X2651847D02*
X2611485Y1570000D01*
X2651847Y1529638D01*
Y1610362D01*
D02*
G37*
G36*
X2556981Y1610362D02*
Y1529638D01*
X2597343Y1570000D01*
X2556981Y1610362D01*
D02*
G37*
G36*
X2327567Y1610362D02*
Y1529638D01*
X2367929Y1570000D01*
X2327567Y1610362D01*
D02*
G37*
G36*
X2510001Y1612433D02*
X2498828D01*
X2488036Y1609541D01*
X2478360Y1603955D01*
X2470459Y1596054D01*
X2464873Y1586379D01*
X2461981Y1575586D01*
Y1564414D01*
X2464873Y1553621D01*
X2470459Y1543946D01*
X2478360Y1536045D01*
X2488036Y1530459D01*
X2498828Y1527567D01*
X2510001D01*
X2520793Y1530459D01*
X2530469Y1536045D01*
X2538369Y1543946D01*
X2543955Y1553621D01*
X2546847Y1564414D01*
Y1575586D01*
X2543955Y1586379D01*
X2538369Y1596054D01*
X2530469Y1603955D01*
X2520793Y1609541D01*
X2510001Y1612433D01*
D02*
G37*
G36*
X2280586D02*
X2269414D01*
X2258622Y1609541D01*
X2248945Y1603955D01*
X2241045Y1596054D01*
X2235459Y1586379D01*
X2232567Y1575586D01*
Y1564414D01*
X2235459Y1553621D01*
X2241045Y1543946D01*
X2248945Y1536045D01*
X2258622Y1530459D01*
X2269414Y1527567D01*
X2280586D01*
X2291378Y1530459D01*
X2301055Y1536045D01*
X2308955Y1543946D01*
X2314541Y1553621D01*
X2317433Y1564414D01*
Y1575586D01*
X2314541Y1586379D01*
X2308955Y1596054D01*
X2301055Y1603955D01*
X2291378Y1609541D01*
X2280586Y1612433D01*
D02*
G37*
G36*
X2604414Y1562929D02*
X2564052Y1522567D01*
X2644776D01*
X2604414Y1562929D01*
D02*
G37*
G36*
X2375000Y1562929D02*
X2334638Y1522567D01*
X2415362D01*
X2375000Y1562929D01*
D02*
G37*
G36*
X3218154Y1545858D02*
X3211846D01*
X3206017Y1543444D01*
X3201556Y1538983D01*
X3199142Y1533154D01*
Y1526846D01*
X3201556Y1521017D01*
X3206017Y1516556D01*
X3211846Y1514142D01*
X3218154D01*
X3223983Y1516556D01*
X3228444Y1521017D01*
X3230858Y1526846D01*
Y1533154D01*
X3228444Y1538983D01*
X3223983Y1543444D01*
X3218154Y1545858D01*
D02*
G37*
G36*
X3801480Y1563024D02*
X3722519D01*
Y1484063D01*
X3801480D01*
Y1563024D01*
D02*
G37*
G36*
X3094974Y1485858D02*
X3088665D01*
X3082836Y1483444D01*
X3078375Y1478983D01*
X3075961Y1473154D01*
Y1466846D01*
X3078375Y1461017D01*
X3082836Y1456556D01*
X3088665Y1454142D01*
X3094974D01*
X3100802Y1456556D01*
X3105263Y1461017D01*
X3107677Y1466846D01*
Y1473154D01*
X3105263Y1478983D01*
X3100802Y1483444D01*
X3094974Y1485858D01*
D02*
G37*
G36*
X2610001Y1512433D02*
X2598828D01*
X2588036Y1509541D01*
X2578360Y1503955D01*
X2570459Y1496054D01*
X2564873Y1486379D01*
X2561981Y1475586D01*
Y1464414D01*
X2564873Y1453621D01*
X2570459Y1443946D01*
X2578360Y1436045D01*
X2588036Y1430459D01*
X2598828Y1427567D01*
X2610001D01*
X2620793Y1430459D01*
X2630469Y1436045D01*
X2638369Y1443946D01*
X2643955Y1453621D01*
X2646847Y1464414D01*
Y1475586D01*
X2643955Y1486379D01*
X2638369Y1496054D01*
X2630469Y1503955D01*
X2620793Y1509541D01*
X2610001Y1512433D01*
D02*
G37*
G36*
X2510001D02*
X2498828D01*
X2488036Y1509541D01*
X2478360Y1503955D01*
X2470459Y1496054D01*
X2464873Y1486379D01*
X2461981Y1475586D01*
Y1464414D01*
X2464873Y1453621D01*
X2470459Y1443946D01*
X2478360Y1436045D01*
X2488036Y1430459D01*
X2498828Y1427567D01*
X2510001D01*
X2520793Y1430459D01*
X2530469Y1436045D01*
X2538369Y1443946D01*
X2543955Y1453621D01*
X2546847Y1464414D01*
Y1475586D01*
X2543955Y1486379D01*
X2538369Y1496054D01*
X2530469Y1503955D01*
X2520793Y1509541D01*
X2510001Y1512433D01*
D02*
G37*
G36*
X2380586D02*
X2369414D01*
X2358622Y1509541D01*
X2348945Y1503955D01*
X2341045Y1496054D01*
X2335459Y1486379D01*
X2332567Y1475586D01*
Y1464414D01*
X2335459Y1453621D01*
X2341045Y1443946D01*
X2348945Y1436045D01*
X2358622Y1430459D01*
X2369414Y1427567D01*
X2380586D01*
X2391378Y1430459D01*
X2401055Y1436045D01*
X2408955Y1443946D01*
X2414541Y1453621D01*
X2417433Y1464414D01*
Y1475586D01*
X2414541Y1486379D01*
X2408955Y1496054D01*
X2401055Y1503955D01*
X2391378Y1509541D01*
X2380586Y1512433D01*
D02*
G37*
G36*
X2280586D02*
X2269414D01*
X2258622Y1509541D01*
X2248945Y1503955D01*
X2241045Y1496054D01*
X2235459Y1486379D01*
X2232567Y1475586D01*
Y1464414D01*
X2235459Y1453621D01*
X2241045Y1443946D01*
X2248945Y1436045D01*
X2258622Y1430459D01*
X2269414Y1427567D01*
X2280586D01*
X2291378Y1430459D01*
X2301055Y1436045D01*
X2308955Y1443946D01*
X2314541Y1453621D01*
X2317433Y1464414D01*
Y1475586D01*
X2314541Y1486379D01*
X2308955Y1496054D01*
X2301055Y1503955D01*
X2291378Y1509541D01*
X2280586Y1512433D01*
D02*
G37*
G36*
X3278154Y1439401D02*
X3271846D01*
X3266017Y1436987D01*
X3261556Y1432526D01*
X3259142Y1426698D01*
Y1420389D01*
X3261556Y1414560D01*
X3266017Y1410099D01*
X3271846Y1407685D01*
X3278154D01*
X3283983Y1410099D01*
X3288444Y1414560D01*
X3290858Y1420389D01*
Y1426698D01*
X3288444Y1432526D01*
X3283983Y1436987D01*
X3278154Y1439401D01*
D02*
G37*
G36*
X3767197Y1463024D02*
X3756802D01*
X3746761Y1460333D01*
X3737758Y1455135D01*
X3730407Y1447785D01*
X3725210Y1438782D01*
X3722519Y1428741D01*
Y1418346D01*
X3725210Y1408304D01*
X3730407Y1399302D01*
X3737758Y1391951D01*
X3746761Y1386754D01*
X3756802Y1384063D01*
X3767197D01*
X3777238Y1386754D01*
X3786241Y1391951D01*
X3793592Y1399302D01*
X3798789Y1408304D01*
X3801480Y1418346D01*
Y1428741D01*
X3798789Y1438782D01*
X3793592Y1447785D01*
X3786241Y1455135D01*
X3777238Y1460333D01*
X3767197Y1463024D01*
D02*
G37*
G36*
X2610001Y1412433D02*
X2598828D01*
X2588036Y1409541D01*
X2578360Y1403955D01*
X2570459Y1396054D01*
X2564873Y1386379D01*
X2561981Y1375586D01*
Y1364414D01*
X2564873Y1353621D01*
X2570459Y1343946D01*
X2578360Y1336045D01*
X2588036Y1330459D01*
X2598828Y1327567D01*
X2610001D01*
X2620793Y1330459D01*
X2630469Y1336045D01*
X2638369Y1343946D01*
X2643955Y1353621D01*
X2646847Y1364414D01*
Y1375586D01*
X2643955Y1386379D01*
X2638369Y1396054D01*
X2630469Y1403955D01*
X2620793Y1409541D01*
X2610001Y1412433D01*
D02*
G37*
G36*
X2510001D02*
X2498828D01*
X2488036Y1409541D01*
X2478360Y1403955D01*
X2470459Y1396054D01*
X2464873Y1386379D01*
X2461981Y1375586D01*
Y1364414D01*
X2464873Y1353621D01*
X2470459Y1343946D01*
X2478360Y1336045D01*
X2488036Y1330459D01*
X2498828Y1327567D01*
X2510001D01*
X2520793Y1330459D01*
X2530469Y1336045D01*
X2538369Y1343946D01*
X2543955Y1353621D01*
X2546847Y1364414D01*
Y1375586D01*
X2543955Y1386379D01*
X2538369Y1396054D01*
X2530469Y1403955D01*
X2520793Y1409541D01*
X2510001Y1412433D01*
D02*
G37*
G36*
X2380586D02*
X2369414D01*
X2358622Y1409541D01*
X2348945Y1403955D01*
X2341045Y1396054D01*
X2335459Y1386379D01*
X2332567Y1375586D01*
Y1364414D01*
X2335459Y1353621D01*
X2341045Y1343946D01*
X2348945Y1336045D01*
X2358622Y1330459D01*
X2369414Y1327567D01*
X2380586D01*
X2391378Y1330459D01*
X2401055Y1336045D01*
X2408955Y1343946D01*
X2414541Y1353621D01*
X2417433Y1364414D01*
Y1375586D01*
X2414541Y1386379D01*
X2408955Y1396054D01*
X2401055Y1403955D01*
X2391378Y1409541D01*
X2380586Y1412433D01*
D02*
G37*
G36*
X2280586D02*
X2269414D01*
X2258622Y1409541D01*
X2248945Y1403955D01*
X2241045Y1396054D01*
X2235459Y1386379D01*
X2232567Y1375586D01*
Y1364414D01*
X2235459Y1353621D01*
X2241045Y1343946D01*
X2248945Y1336045D01*
X2258622Y1330459D01*
X2269414Y1327567D01*
X2280586D01*
X2291378Y1330459D01*
X2301055Y1336045D01*
X2308955Y1343946D01*
X2314541Y1353621D01*
X2317433Y1364414D01*
Y1375586D01*
X2314541Y1386379D01*
X2308955Y1396054D01*
X2301055Y1403955D01*
X2291378Y1409541D01*
X2280586Y1412433D01*
D02*
G37*
G36*
X2768154Y1345858D02*
X2761846D01*
X2756017Y1343444D01*
X2751556Y1338983D01*
X2749142Y1333154D01*
Y1326846D01*
X2751556Y1321017D01*
X2756017Y1316556D01*
X2761846Y1314142D01*
X2768154D01*
X2773983Y1316556D01*
X2778444Y1321017D01*
X2780858Y1326846D01*
Y1333154D01*
X2778444Y1338983D01*
X2773983Y1343444D01*
X2768154Y1345858D01*
D02*
G37*
G36*
X3767197Y1363024D02*
X3756802D01*
X3746761Y1360333D01*
X3737758Y1355135D01*
X3730407Y1347785D01*
X3725210Y1338782D01*
X3722519Y1328741D01*
Y1318346D01*
X3725210Y1308304D01*
X3730407Y1299302D01*
X3737758Y1291951D01*
X3746761Y1286754D01*
X3756802Y1284063D01*
X3767197D01*
X3777238Y1286754D01*
X3786241Y1291951D01*
X3793592Y1299302D01*
X3798789Y1308304D01*
X3801480Y1318346D01*
Y1328741D01*
X3798789Y1338782D01*
X3793592Y1347785D01*
X3786241Y1355135D01*
X3777238Y1360333D01*
X3767197Y1363024D01*
D02*
G37*
G36*
X2863154Y1305858D02*
X2856846D01*
X2851017Y1303444D01*
X2846556Y1298983D01*
X2844142Y1293154D01*
Y1286846D01*
X2846556Y1281017D01*
X2851017Y1276556D01*
X2856846Y1274142D01*
X2863154D01*
X2868983Y1276556D01*
X2873444Y1281017D01*
X2875858Y1286846D01*
Y1293154D01*
X2873444Y1298983D01*
X2868983Y1303444D01*
X2863154Y1305858D01*
D02*
G37*
G36*
X2480695Y1286503D02*
X2474386D01*
X2468557Y1284089D01*
X2464096Y1279628D01*
X2461682Y1273799D01*
Y1267490D01*
X2464096Y1261662D01*
X2468557Y1257201D01*
X2474386Y1254786D01*
X2480695D01*
X2486523Y1257201D01*
X2490984Y1261662D01*
X2493398Y1267490D01*
Y1273799D01*
X2490984Y1279628D01*
X2486523Y1284089D01*
X2480695Y1286503D01*
D02*
G37*
G36*
X3044974Y1239039D02*
X3038665D01*
X3032836Y1236624D01*
X3028376Y1232164D01*
X3025961Y1226335D01*
Y1220026D01*
X3028376Y1214198D01*
X3032836Y1209737D01*
X3038665Y1207322D01*
X3044974D01*
X3050802Y1209737D01*
X3055263Y1214198D01*
X3057678Y1220026D01*
Y1226335D01*
X3055263Y1232164D01*
X3050802Y1236624D01*
X3044974Y1239039D01*
D02*
G37*
G36*
X2338159Y1215854D02*
X2331850D01*
X2326021Y1213440D01*
X2321560Y1208979D01*
X2319146Y1203150D01*
Y1196841D01*
X2321560Y1191013D01*
X2326021Y1186552D01*
X2331850Y1184138D01*
X2338159D01*
X2343987Y1186552D01*
X2348448Y1191013D01*
X2350862Y1196841D01*
Y1203150D01*
X2348448Y1208979D01*
X2343987Y1213440D01*
X2338159Y1215854D01*
D02*
G37*
G36*
X3767197Y1263024D02*
X3756802D01*
X3746761Y1260333D01*
X3737758Y1255135D01*
X3730407Y1247785D01*
X3725210Y1238782D01*
X3722519Y1228741D01*
Y1218346D01*
X3725210Y1208304D01*
X3730407Y1199302D01*
X3737758Y1191951D01*
X3746761Y1186754D01*
X3756802Y1184063D01*
X3767197D01*
X3777238Y1186754D01*
X3786241Y1191951D01*
X3793592Y1199302D01*
X3798789Y1208304D01*
X3801480Y1218346D01*
Y1228741D01*
X3798789Y1238782D01*
X3793592Y1247785D01*
X3786241Y1255135D01*
X3777238Y1260333D01*
X3767197Y1263024D01*
D02*
G37*
G36*
X2994974Y1185858D02*
X2988665D01*
X2982836Y1183444D01*
X2978376Y1178983D01*
X2975961Y1173154D01*
Y1166846D01*
X2978376Y1161017D01*
X2982836Y1156556D01*
X2988665Y1154142D01*
X2994974D01*
X3000802Y1156556D01*
X3005263Y1161017D01*
X3007678Y1166846D01*
Y1173154D01*
X3005263Y1178983D01*
X3000802Y1183444D01*
X2994974Y1185858D01*
D02*
G37*
G36*
X3294974Y1154437D02*
X3288665D01*
X3282836Y1152023D01*
X3278376Y1147562D01*
X3275961Y1141733D01*
Y1135424D01*
X3278376Y1129596D01*
X3282836Y1125135D01*
X3288665Y1122720D01*
X3294974D01*
X3300802Y1125135D01*
X3305263Y1129596D01*
X3307678Y1135424D01*
Y1141733D01*
X3305263Y1147562D01*
X3300802Y1152023D01*
X3294974Y1154437D01*
D02*
G37*
G36*
X2437257Y1110944D02*
X2430948D01*
X2425119Y1108529D01*
X2420659Y1104069D01*
X2418244Y1098240D01*
Y1091931D01*
X2420659Y1086102D01*
X2425119Y1081642D01*
X2430948Y1079227D01*
X2437257D01*
X2443085Y1081642D01*
X2447546Y1086102D01*
X2449961Y1091931D01*
Y1098240D01*
X2447546Y1104069D01*
X2443085Y1108529D01*
X2437257Y1110944D01*
D02*
G37*
G36*
X3780154Y1110858D02*
X3773845D01*
X3768017Y1108444D01*
X3763556Y1103983D01*
X3761141Y1098154D01*
Y1091846D01*
X3763556Y1086017D01*
X3768017Y1081556D01*
X3773845Y1079142D01*
X3780154D01*
X3785983Y1081556D01*
X3790443Y1086017D01*
X3792858Y1091846D01*
Y1098154D01*
X3790443Y1103983D01*
X3785983Y1108444D01*
X3780154Y1110858D01*
D02*
G37*
G36*
X3688154D02*
X3681846D01*
X3676017Y1108444D01*
X3671556Y1103983D01*
X3669142Y1098154D01*
Y1091846D01*
X3671556Y1086017D01*
X3676017Y1081556D01*
X3681846Y1079142D01*
X3688154D01*
X3693983Y1081556D01*
X3698444Y1086017D01*
X3700858Y1091846D01*
Y1098154D01*
X3698444Y1103983D01*
X3693983Y1108444D01*
X3688154Y1110858D01*
D02*
G37*
G36*
X3464733Y1110618D02*
X3458425D01*
X3452596Y1108204D01*
X3448135Y1103743D01*
X3445721Y1097914D01*
Y1091605D01*
X3448135Y1085777D01*
X3452596Y1081316D01*
X3458425Y1078901D01*
X3464733D01*
X3470562Y1081316D01*
X3475023Y1085777D01*
X3477437Y1091605D01*
Y1097914D01*
X3475023Y1103743D01*
X3470562Y1108204D01*
X3464733Y1110618D01*
D02*
G37*
G36*
X3594974Y1075858D02*
X3588665D01*
X3582836Y1073444D01*
X3578376Y1068983D01*
X3575961Y1063154D01*
Y1056846D01*
X3578376Y1051017D01*
X3582836Y1046556D01*
X3588665Y1044142D01*
X3594974D01*
X3600802Y1046556D01*
X3605263Y1051017D01*
X3607678Y1056846D01*
Y1063154D01*
X3605263Y1068983D01*
X3600802Y1073444D01*
X3594974Y1075858D01*
D02*
G37*
G36*
X3502974D02*
X3496665D01*
X3490836Y1073444D01*
X3486376Y1068983D01*
X3483961Y1063154D01*
Y1056846D01*
X3486376Y1051017D01*
X3490836Y1046556D01*
X3496665Y1044142D01*
X3502974D01*
X3508802Y1046556D01*
X3513263Y1051017D01*
X3515678Y1056846D01*
Y1063154D01*
X3513263Y1068983D01*
X3508802Y1073444D01*
X3502974Y1075858D01*
D02*
G37*
G36*
X2893154D02*
X2886846D01*
X2881017Y1073444D01*
X2876556Y1068983D01*
X2874142Y1063154D01*
Y1056846D01*
X2876556Y1051017D01*
X2881017Y1046556D01*
X2886846Y1044142D01*
X2893154D01*
X2898983Y1046556D01*
X2903444Y1051017D01*
X2905858Y1056846D01*
Y1063154D01*
X2903444Y1068983D01*
X2898983Y1073444D01*
X2893154Y1075858D01*
D02*
G37*
G36*
X3218154Y1065858D02*
X3211846D01*
X3206017Y1063444D01*
X3201556Y1058983D01*
X3199142Y1053154D01*
Y1046846D01*
X3201556Y1041017D01*
X3206017Y1036556D01*
X3211846Y1034142D01*
X3218154D01*
X3223983Y1036556D01*
X3228444Y1041017D01*
X3230858Y1046846D01*
Y1053154D01*
X3228444Y1058983D01*
X3223983Y1063444D01*
X3218154Y1065858D01*
D02*
G37*
G36*
X3323154Y1034560D02*
X3316846D01*
X3311017Y1032145D01*
X3306556Y1027684D01*
X3304142Y1021856D01*
Y1015547D01*
X3306556Y1009718D01*
X3311017Y1005258D01*
X3316846Y1002843D01*
X3323154D01*
X3328983Y1005258D01*
X3333444Y1009718D01*
X3335858Y1015547D01*
Y1021856D01*
X3333444Y1027684D01*
X3328983Y1032145D01*
X3323154Y1034560D01*
D02*
G37*
G36*
X3423154Y1026842D02*
X3416846D01*
X3411017Y1024428D01*
X3406556Y1019967D01*
X3404142Y1014139D01*
Y1007830D01*
X3406556Y1002001D01*
X3411017Y997540D01*
X3416846Y995126D01*
X3423154D01*
X3428983Y997540D01*
X3433444Y1002001D01*
X3435858Y1007830D01*
Y1014139D01*
X3433444Y1019967D01*
X3428983Y1024428D01*
X3423154Y1026842D01*
D02*
G37*
G36*
X2622568Y1004560D02*
X2616260D01*
X2610431Y1002145D01*
X2605970Y997684D01*
X2604412Y993921D01*
X2598999D01*
X2597441Y997684D01*
X2592980Y1002145D01*
X2587151Y1004560D01*
X2580842D01*
X2575014Y1002145D01*
X2570553Y997684D01*
X2568139Y991856D01*
Y985547D01*
X2570553Y979718D01*
X2575014Y975258D01*
X2580842Y972843D01*
X2587151D01*
X2592980Y975258D01*
X2597441Y979718D01*
X2598999Y983481D01*
X2604412D01*
X2605970Y979718D01*
X2610431Y975258D01*
X2616260Y972843D01*
X2622568D01*
X2628397Y975258D01*
X2632858Y979718D01*
X2635272Y985547D01*
Y991856D01*
X2632858Y997684D01*
X2628397Y1002145D01*
X2622568Y1004560D01*
D02*
G37*
G36*
X2660154D02*
X2653845D01*
X2648017Y1002145D01*
X2643556Y997684D01*
X2641141Y991856D01*
Y985547D01*
X2643556Y979718D01*
X2648017Y975258D01*
X2653845Y972843D01*
X2660154D01*
X2665983Y975258D01*
X2670443Y979718D01*
X2672858Y985547D01*
Y991856D01*
X2670443Y997684D01*
X2665983Y1002145D01*
X2660154Y1004560D01*
D02*
G37*
G36*
X2964978Y1002630D02*
X2958669D01*
X2952840Y1000216D01*
X2948380Y995755D01*
X2945965Y989927D01*
Y983618D01*
X2948380Y977789D01*
X2952840Y973328D01*
X2958669Y970914D01*
X2964978D01*
X2970807Y973328D01*
X2975267Y977789D01*
X2977682Y983618D01*
Y989927D01*
X2975267Y995755D01*
X2970807Y1000216D01*
X2964978Y1002630D01*
D02*
G37*
G36*
X2893154D02*
X2886846D01*
X2881017Y1000216D01*
X2876556Y995755D01*
X2874142Y989927D01*
Y983618D01*
X2876556Y977789D01*
X2881017Y973328D01*
X2886846Y970914D01*
X2893154D01*
X2898983Y973328D01*
X2903444Y977789D01*
X2905858Y983618D01*
Y989927D01*
X2903444Y995755D01*
X2898983Y1000216D01*
X2893154Y1002630D01*
D02*
G37*
G36*
X2622568Y938345D02*
X2616260D01*
X2610431Y935931D01*
X2605970Y931470D01*
X2604412Y927707D01*
X2598999D01*
X2597441Y931470D01*
X2592980Y935931D01*
X2587151Y938345D01*
X2580842D01*
X2575014Y935931D01*
X2570553Y931470D01*
X2568139Y925641D01*
Y919333D01*
X2570553Y913504D01*
X2575014Y909043D01*
X2580842Y906629D01*
X2587151D01*
X2592980Y909043D01*
X2597441Y913504D01*
X2598999Y917267D01*
X2604412D01*
X2605970Y913504D01*
X2610431Y909043D01*
X2616260Y906629D01*
X2622568D01*
X2628397Y909043D01*
X2632858Y913504D01*
X2635272Y919333D01*
Y925641D01*
X2632858Y931470D01*
X2628397Y935931D01*
X2622568Y938345D01*
D02*
G37*
G36*
X2660154D02*
X2653845D01*
X2648017Y935931D01*
X2643556Y931470D01*
X2641141Y925641D01*
Y919333D01*
X2643556Y913504D01*
X2648017Y909043D01*
X2653845Y906629D01*
X2660154D01*
X2665983Y909043D01*
X2670443Y913504D01*
X2672858Y919333D01*
Y925641D01*
X2670443Y931470D01*
X2665983Y935931D01*
X2660154Y938345D01*
D02*
G37*
G36*
X2479695Y905858D02*
X2473386D01*
X2467557Y903444D01*
X2463096Y898983D01*
X2460682Y893154D01*
Y886846D01*
X2463096Y881017D01*
X2467557Y876556D01*
X2473386Y874142D01*
X2479695D01*
X2485523Y876556D01*
X2489984Y881017D01*
X2492398Y886846D01*
Y893154D01*
X2489984Y898983D01*
X2485523Y903444D01*
X2479695Y905858D01*
D02*
G37*
G36*
X3233154Y900858D02*
X3226846D01*
X3221017Y898444D01*
X3216556Y893983D01*
X3214142Y888154D01*
Y881846D01*
X3216556Y876017D01*
X3221017Y871556D01*
X3226846Y869142D01*
X3233154D01*
X3238983Y871556D01*
X3243444Y876017D01*
X3245858Y881846D01*
Y888154D01*
X3243444Y893983D01*
X3238983Y898444D01*
X3233154Y900858D01*
D02*
G37*
G36*
X2964978D02*
X2958669D01*
X2952840Y898444D01*
X2948380Y893983D01*
X2945965Y888154D01*
Y881846D01*
X2948380Y876017D01*
X2952840Y871556D01*
X2958669Y869142D01*
X2964978D01*
X2970807Y871556D01*
X2975267Y876017D01*
X2977682Y881846D01*
Y888154D01*
X2975267Y893983D01*
X2970807Y898444D01*
X2964978Y900858D01*
D02*
G37*
G36*
X2308154Y884571D02*
X2301846D01*
X2296017Y882156D01*
X2291556Y877695D01*
X2289142Y871867D01*
Y865558D01*
X2291556Y859729D01*
X2296017Y855269D01*
X2301846Y852854D01*
X2308154D01*
X2313983Y855269D01*
X2318444Y859729D01*
X2320858Y865558D01*
Y871867D01*
X2318444Y877695D01*
X2313983Y882156D01*
X2308154Y884571D01*
D02*
G37*
G36*
X2182580D02*
X2176271D01*
X2170443Y882156D01*
X2165982Y877695D01*
X2163568Y871867D01*
Y865558D01*
X2165982Y859729D01*
X2170443Y855269D01*
X2176271Y852854D01*
X2182580D01*
X2188409Y855269D01*
X2192870Y859729D01*
X2195284Y865558D01*
Y871867D01*
X2192870Y877695D01*
X2188409Y882156D01*
X2182580Y884571D01*
D02*
G37*
G36*
X713054Y882179D02*
X706745D01*
X700917Y879765D01*
X696456Y875304D01*
X694042Y869476D01*
Y863167D01*
X696456Y857338D01*
X700917Y852877D01*
X706745Y850463D01*
X713054D01*
X718883Y852877D01*
X723344Y857338D01*
X725758Y863167D01*
Y869476D01*
X723344Y875304D01*
X718883Y879765D01*
X713054Y882179D01*
D02*
G37*
G36*
X3394974Y845377D02*
X3388665D01*
X3382836Y842963D01*
X3378376Y838502D01*
X3375961Y832674D01*
Y826365D01*
X3378376Y820536D01*
X3382836Y816075D01*
X3388665Y813661D01*
X3394974D01*
X3400802Y816075D01*
X3405263Y820536D01*
X3407678Y826365D01*
Y832674D01*
X3405263Y838502D01*
X3400802Y842963D01*
X3394974Y845377D01*
D02*
G37*
G36*
X603480Y841941D02*
X597171D01*
X591342Y839526D01*
X586881Y835065D01*
X584467Y829237D01*
Y822928D01*
X586881Y817099D01*
X591342Y812639D01*
X597171Y810224D01*
X603480D01*
X609308Y812639D01*
X613769Y817099D01*
X616183Y822928D01*
Y829237D01*
X613769Y835065D01*
X609308Y839526D01*
X603480Y841941D01*
D02*
G37*
G36*
X495110D02*
X488801D01*
X482972Y839526D01*
X478511Y835065D01*
X476097Y829237D01*
Y822928D01*
X478511Y817099D01*
X482972Y812639D01*
X488801Y810224D01*
X495110D01*
X500938Y812639D01*
X505399Y817099D01*
X507813Y822928D01*
Y829237D01*
X505399Y835065D01*
X500938Y839526D01*
X495110Y841941D01*
D02*
G37*
G36*
X2143154Y800602D02*
X2136846D01*
X2131017Y798188D01*
X2126556Y793727D01*
X2124142Y787898D01*
Y781589D01*
X2126556Y775761D01*
X2131017Y771300D01*
X2136846Y768886D01*
X2143154D01*
X2148983Y771300D01*
X2153444Y775761D01*
X2155858Y781589D01*
Y787898D01*
X2153444Y793727D01*
X2148983Y798188D01*
X2143154Y800602D01*
D02*
G37*
G36*
X2488154Y770858D02*
X2481846D01*
X2476017Y768444D01*
X2471556Y763983D01*
X2469142Y758154D01*
Y751846D01*
X2471556Y746017D01*
X2476017Y741556D01*
X2481846Y739142D01*
X2488154D01*
X2493983Y741556D01*
X2498444Y746017D01*
X2500858Y751846D01*
Y758154D01*
X2498444Y763983D01*
X2493983Y768444D01*
X2488154Y770858D01*
D02*
G37*
G36*
X465110Y759263D02*
X458801D01*
X452972Y756849D01*
X448511Y752388D01*
X446097Y746560D01*
Y740251D01*
X448511Y734422D01*
X452972Y729961D01*
X458801Y727547D01*
X465110D01*
X470938Y729961D01*
X475399Y734422D01*
X477813Y740251D01*
Y746560D01*
X475399Y752388D01*
X470938Y756849D01*
X465110Y759263D01*
D02*
G37*
G36*
X394739D02*
X388431D01*
X382602Y756849D01*
X378141Y752388D01*
X375727Y746560D01*
Y740251D01*
X378141Y734422D01*
X382602Y729961D01*
X388431Y727547D01*
X394739D01*
X400568Y729961D01*
X405029Y734422D01*
X407443Y740251D01*
Y746560D01*
X405029Y752388D01*
X400568Y756849D01*
X394739Y759263D01*
D02*
G37*
G36*
X323739D02*
X317431D01*
X311602Y756849D01*
X307141Y752388D01*
X304727Y746560D01*
Y740251D01*
X307141Y734422D01*
X311602Y729961D01*
X317431Y727547D01*
X323739D01*
X329568Y729961D01*
X334029Y734422D01*
X336443Y740251D01*
Y746560D01*
X334029Y752388D01*
X329568Y756849D01*
X323739Y759263D01*
D02*
G37*
G36*
X3522367Y711646D02*
X3516058D01*
X3510230Y709231D01*
X3505769Y704770D01*
X3503354Y698942D01*
Y692633D01*
X3505769Y686804D01*
X3510230Y682343D01*
X3516058Y679929D01*
X3522367D01*
X3528196Y682343D01*
X3532657Y686804D01*
X3535071Y692633D01*
Y698942D01*
X3532657Y704770D01*
X3528196Y709231D01*
X3522367Y711646D01*
D02*
G37*
G36*
X3382534D02*
X3376225D01*
X3370396Y709231D01*
X3365935Y704770D01*
X3363521Y698942D01*
Y692633D01*
X3365935Y686804D01*
X3370396Y682343D01*
X3376225Y679929D01*
X3382534D01*
X3388362Y682343D01*
X3392823Y686804D01*
X3395237Y692633D01*
Y698942D01*
X3392823Y704770D01*
X3388362Y709231D01*
X3382534Y711646D01*
D02*
G37*
G36*
X3246549Y710858D02*
X3240240D01*
X3234411Y708444D01*
X3229950Y703983D01*
X3227536Y698154D01*
Y691846D01*
X3229950Y686017D01*
X3234411Y681556D01*
X3240240Y679142D01*
X3246549D01*
X3252377Y681556D01*
X3256838Y686017D01*
X3259252Y691846D01*
Y698154D01*
X3256838Y703983D01*
X3252377Y708444D01*
X3246549Y710858D01*
D02*
G37*
G36*
X588154Y665858D02*
X581846D01*
X576017Y663444D01*
X571556Y658983D01*
X569142Y653154D01*
Y646846D01*
X571556Y641017D01*
X576017Y636556D01*
X581846Y634142D01*
X588154D01*
X593983Y636556D01*
X598444Y641017D01*
X600858Y646846D01*
Y653154D01*
X598444Y658983D01*
X593983Y663444D01*
X588154Y665858D01*
D02*
G37*
G36*
X3462974Y645858D02*
X3456665D01*
X3450836Y643444D01*
X3446376Y638983D01*
X3443961Y633154D01*
Y626846D01*
X3446376Y621017D01*
X3450836Y616556D01*
X3456665Y614142D01*
X3462974D01*
X3468802Y616556D01*
X3473263Y621017D01*
X3475678Y626846D01*
Y633154D01*
X3473263Y638983D01*
X3468802Y643444D01*
X3462974Y645858D01*
D02*
G37*
G36*
X2452257D02*
X2445948D01*
X2440119Y643444D01*
X2435659Y638983D01*
X2433244Y633154D01*
Y626846D01*
X2435659Y621017D01*
X2440119Y616556D01*
X2445948Y614142D01*
X2452257D01*
X2458085Y616556D01*
X2462546Y621017D01*
X2464961Y626846D01*
Y633154D01*
X2462546Y638983D01*
X2458085Y643444D01*
X2452257Y645858D01*
D02*
G37*
G36*
X549480Y630858D02*
X543171D01*
X537342Y628444D01*
X532881Y623983D01*
X530467Y618154D01*
Y611846D01*
X532881Y606017D01*
X537342Y601556D01*
X543171Y599142D01*
X549480D01*
X555308Y601556D01*
X559769Y606017D01*
X562183Y611846D01*
Y618154D01*
X559769Y623983D01*
X555308Y628444D01*
X549480Y630858D01*
D02*
G37*
G36*
X2793154Y620858D02*
X2786846D01*
X2781017Y618444D01*
X2776556Y613983D01*
X2774142Y608154D01*
Y601846D01*
X2776556Y596017D01*
X2781017Y591556D01*
X2786846Y589142D01*
X2793154D01*
X2798983Y591556D01*
X2803444Y596017D01*
X2805858Y601846D01*
Y608154D01*
X2803444Y613983D01*
X2798983Y618444D01*
X2793154Y620858D01*
D02*
G37*
G36*
X3394974Y600465D02*
X3388665D01*
X3382836Y598051D01*
X3378376Y593590D01*
X3375961Y587761D01*
Y581452D01*
X3378376Y575624D01*
X3382836Y571163D01*
X3388665Y568749D01*
X3394974D01*
X3400802Y571163D01*
X3405263Y575624D01*
X3407678Y581452D01*
Y587761D01*
X3405263Y593590D01*
X3400802Y598051D01*
X3394974Y600465D01*
D02*
G37*
G36*
X3341037D02*
X3334728D01*
X3328899Y598051D01*
X3324439Y593590D01*
X3322024Y587761D01*
Y581452D01*
X3324439Y575624D01*
X3328899Y571163D01*
X3334728Y568749D01*
X3341037D01*
X3346865Y571163D01*
X3351326Y575624D01*
X3353741Y581452D01*
Y587761D01*
X3351326Y593590D01*
X3346865Y598051D01*
X3341037Y600465D01*
D02*
G37*
G36*
X3285919D02*
X3279610D01*
X3273781Y598051D01*
X3269320Y593590D01*
X3266906Y587761D01*
Y581452D01*
X3269320Y575624D01*
X3273781Y571163D01*
X3279610Y568749D01*
X3285919D01*
X3291747Y571163D01*
X3296208Y575624D01*
X3298622Y581452D01*
Y587761D01*
X3296208Y593590D01*
X3291747Y598051D01*
X3285919Y600465D01*
D02*
G37*
G36*
X3144974Y590858D02*
X3138665D01*
X3132836Y588444D01*
X3128376Y583983D01*
X3125961Y578154D01*
Y571846D01*
X3128376Y566017D01*
X3132836Y561556D01*
X3138665Y559142D01*
X3144974D01*
X3150802Y561556D01*
X3155263Y566017D01*
X3157678Y571846D01*
Y578154D01*
X3155263Y583983D01*
X3150802Y588444D01*
X3144974Y590858D01*
D02*
G37*
G36*
X3435525Y561095D02*
X3429216D01*
X3423388Y558681D01*
X3418927Y554220D01*
X3416512Y548391D01*
Y542082D01*
X3418927Y536254D01*
X3423388Y531793D01*
X3429216Y529379D01*
X3435525D01*
X3441354Y531793D01*
X3445814Y536254D01*
X3448229Y542082D01*
Y548391D01*
X3445814Y554220D01*
X3441354Y558681D01*
X3435525Y561095D01*
D02*
G37*
G36*
X3246549D02*
X3240240D01*
X3234411Y558681D01*
X3229950Y554220D01*
X3227536Y548391D01*
Y542082D01*
X3229950Y536254D01*
X3234411Y531793D01*
X3240240Y529379D01*
X3246549D01*
X3252377Y531793D01*
X3256838Y536254D01*
X3259252Y542082D01*
Y548391D01*
X3256838Y554220D01*
X3252377Y558681D01*
X3246549Y561095D01*
D02*
G37*
G36*
X203851Y597741D02*
X111111D01*
Y505000D01*
X203851D01*
Y597741D01*
D02*
G37*
G36*
X3368596Y533536D02*
X3362287D01*
X3356458Y531121D01*
X3351997Y526661D01*
X3349583Y520832D01*
Y514523D01*
X3351997Y508695D01*
X3356458Y504234D01*
X3362287Y501819D01*
X3368596D01*
X3374424Y504234D01*
X3378885Y508695D01*
X3381300Y514523D01*
Y520832D01*
X3378885Y526661D01*
X3374424Y531121D01*
X3368596Y533536D01*
D02*
G37*
G36*
X3313478D02*
X3307169D01*
X3301340Y531121D01*
X3296879Y526661D01*
X3294465Y520832D01*
Y514523D01*
X3296879Y508695D01*
X3301340Y504234D01*
X3307169Y501819D01*
X3313478D01*
X3319306Y504234D01*
X3323767Y508695D01*
X3326182Y514523D01*
Y520832D01*
X3323767Y526661D01*
X3319306Y531121D01*
X3313478Y533536D01*
D02*
G37*
G36*
X3194974D02*
X3188665D01*
X3182836Y531121D01*
X3178376Y526661D01*
X3175961Y520832D01*
Y514523D01*
X3178376Y508695D01*
X3182836Y504234D01*
X3188665Y501819D01*
X3194974D01*
X3200802Y504234D01*
X3205263Y508695D01*
X3207678Y514523D01*
Y520832D01*
X3205263Y526661D01*
X3200802Y531121D01*
X3194974Y533536D01*
D02*
G37*
G36*
X2813154Y1078182D02*
X2806846D01*
X2801017Y1075767D01*
X2796556Y1071306D01*
X2794142Y1065478D01*
Y1059169D01*
X2796556Y1053341D01*
X2796745Y1053151D01*
Y997874D01*
X2796556Y997684D01*
X2794142Y991856D01*
Y985547D01*
X2796556Y979718D01*
X2796745Y979529D01*
Y921889D01*
X2796556Y921700D01*
X2794142Y915872D01*
Y915604D01*
X2760628Y882090D01*
X2757754Y877790D01*
X2756745Y872717D01*
Y684172D01*
X2756556Y683983D01*
X2754142Y678154D01*
Y671846D01*
X2756556Y666017D01*
X2756745Y665828D01*
Y665490D01*
X2589510Y498255D01*
X2409172D01*
X2408983Y498444D01*
X2403154Y500858D01*
X2396846D01*
X2391017Y498444D01*
X2386556Y493983D01*
X2384142Y488154D01*
Y481846D01*
X2386556Y476017D01*
X2386745Y475828D01*
Y454172D01*
X2386556Y453983D01*
X2384142Y448154D01*
Y441846D01*
X2386556Y436017D01*
X2391017Y431556D01*
X2396846Y429142D01*
X2403154D01*
X2408983Y431556D01*
X2413444Y436017D01*
X2415858Y441846D01*
Y448154D01*
X2413444Y453983D01*
X2413255Y454172D01*
Y471745D01*
X2595000D01*
X2600072Y472754D01*
X2604372Y475627D01*
X2779372Y650628D01*
X2782246Y654928D01*
X2783255Y660000D01*
Y665828D01*
X2783444Y666017D01*
X2785858Y671846D01*
Y678154D01*
X2783444Y683983D01*
X2783255Y684172D01*
Y867227D01*
X2812887Y896859D01*
X2813154D01*
X2818983Y899273D01*
X2823444Y903734D01*
X2825858Y909563D01*
Y915872D01*
X2823444Y921700D01*
X2823255Y921889D01*
Y979529D01*
X2823444Y979718D01*
X2825858Y985547D01*
Y991856D01*
X2823444Y997684D01*
X2823255Y997874D01*
Y1053151D01*
X2823444Y1053341D01*
X2825858Y1059169D01*
Y1065478D01*
X2823444Y1071306D01*
X2818983Y1075767D01*
X2813154Y1078182D01*
D02*
G37*
G36*
X3435525Y505977D02*
X3429216D01*
X3423388Y503562D01*
X3418927Y499102D01*
X3416512Y493273D01*
Y486964D01*
X3418927Y481136D01*
X3423388Y476675D01*
X3429216Y474260D01*
X3435525D01*
X3441354Y476675D01*
X3445814Y481136D01*
X3448229Y486964D01*
Y493273D01*
X3445814Y499102D01*
X3441354Y503562D01*
X3435525Y505977D01*
D02*
G37*
G36*
X3246549D02*
X3240240D01*
X3234411Y503562D01*
X3229950Y499102D01*
X3227536Y493273D01*
Y486964D01*
X3229950Y481136D01*
X3234411Y476675D01*
X3240240Y474260D01*
X3246549D01*
X3252377Y476675D01*
X3256838Y481136D01*
X3259252Y486964D01*
Y493273D01*
X3256838Y499102D01*
X3252377Y503562D01*
X3246549Y505977D01*
D02*
G37*
G36*
X2140312Y479701D02*
X2134004D01*
X2128175Y477287D01*
X2123714Y472826D01*
X2121300Y466997D01*
Y460689D01*
X2123714Y454860D01*
X2128175Y450399D01*
X2134004Y447985D01*
X2140312D01*
X2146141Y450399D01*
X2150602Y454860D01*
X2153016Y460689D01*
Y466997D01*
X2150602Y472826D01*
X2146141Y477287D01*
X2140312Y479701D01*
D02*
G37*
G36*
X3368596Y478418D02*
X3362287D01*
X3356459Y476003D01*
X3351998Y471543D01*
X3349583Y465714D01*
Y459405D01*
X3351998Y453577D01*
X3356459Y449116D01*
X3362287Y446701D01*
X3368596D01*
X3374425Y449116D01*
X3378885Y453577D01*
X3381300Y459405D01*
Y465714D01*
X3378885Y471543D01*
X3374425Y476003D01*
X3368596Y478418D01*
D02*
G37*
G36*
X3313478D02*
X3307169D01*
X3301340Y476003D01*
X3296879Y471543D01*
X3294465Y465714D01*
Y459405D01*
X3296879Y453577D01*
X3301340Y449116D01*
X3307169Y446701D01*
X3313478D01*
X3319306Y449116D01*
X3323767Y453577D01*
X3326182Y459405D01*
Y465714D01*
X3323767Y471543D01*
X3319306Y476003D01*
X3313478Y478418D01*
D02*
G37*
G36*
X3435525Y450859D02*
X3429216D01*
X3423388Y448444D01*
X3418927Y443983D01*
X3416512Y438155D01*
Y431846D01*
X3418927Y426017D01*
X3423388Y421557D01*
X3429216Y419142D01*
X3435525D01*
X3441354Y421557D01*
X3445814Y426017D01*
X3448229Y431846D01*
Y438155D01*
X3445814Y443983D01*
X3441354Y448444D01*
X3435525Y450859D01*
D02*
G37*
G36*
X3246549D02*
X3240240D01*
X3234411Y448444D01*
X3229950Y443983D01*
X3227536Y438155D01*
Y431846D01*
X3229950Y426017D01*
X3234411Y421557D01*
X3240240Y419142D01*
X3246549D01*
X3252377Y421557D01*
X3256838Y426017D01*
X3259252Y431846D01*
Y438155D01*
X3256838Y443983D01*
X3252377Y448444D01*
X3246549Y450859D01*
D02*
G37*
G36*
X619069Y475497D02*
X608932D01*
X599142Y472873D01*
X590363Y467805D01*
X583196Y460638D01*
X578128Y451859D01*
X575505Y442069D01*
Y431932D01*
X578128Y422142D01*
X583196Y413363D01*
X590363Y406196D01*
X599142Y401128D01*
X608932Y398505D01*
X619069D01*
X628859Y401128D01*
X637638Y406196D01*
X644805Y413363D01*
X649873Y422142D01*
X652496Y431932D01*
Y442069D01*
X649873Y451859D01*
X644805Y460638D01*
X637638Y467805D01*
X628859Y472873D01*
X619069Y475497D01*
D02*
G37*
G36*
X519069D02*
X508932D01*
X499142Y472873D01*
X490363Y467805D01*
X483196Y460638D01*
X478128Y451859D01*
X475505Y442069D01*
Y431932D01*
X478128Y422142D01*
X483196Y413363D01*
X490363Y406196D01*
X499142Y401128D01*
X508932Y398505D01*
X519069D01*
X528859Y401128D01*
X537638Y406196D01*
X544805Y413363D01*
X549873Y422142D01*
X552496Y431932D01*
Y442069D01*
X549873Y451859D01*
X544805Y460638D01*
X537638Y467805D01*
X528859Y472873D01*
X519069Y475497D01*
D02*
G37*
G36*
X452497D02*
X375505D01*
Y398505D01*
X452497D01*
Y475497D01*
D02*
G37*
G36*
X3568154Y411489D02*
X3561846D01*
X3556017Y409074D01*
X3551556Y404613D01*
X3549142Y398785D01*
Y392476D01*
X3551556Y386647D01*
X3556017Y382187D01*
X3561846Y379772D01*
X3568154D01*
X3573983Y382187D01*
X3578444Y386647D01*
X3580858Y392476D01*
Y398785D01*
X3578444Y404613D01*
X3573983Y409074D01*
X3568154Y411489D01*
D02*
G37*
G36*
X3396155D02*
X3389846D01*
X3384017Y409074D01*
X3379557Y404613D01*
X3377142Y398785D01*
Y392476D01*
X3379557Y386647D01*
X3384017Y382187D01*
X3389846Y379772D01*
X3396155D01*
X3401983Y382187D01*
X3406444Y386647D01*
X3408859Y392476D01*
Y398785D01*
X3406444Y404613D01*
X3401983Y409074D01*
X3396155Y411489D01*
D02*
G37*
G36*
X3341037D02*
X3334728D01*
X3328899Y409074D01*
X3324439Y404613D01*
X3322024Y398785D01*
Y392476D01*
X3324439Y386647D01*
X3328899Y382187D01*
X3334728Y379772D01*
X3341037D01*
X3346865Y382187D01*
X3351326Y386647D01*
X3353741Y392476D01*
Y398785D01*
X3351326Y404613D01*
X3346865Y409074D01*
X3341037Y411489D01*
D02*
G37*
G36*
X3285919D02*
X3279610D01*
X3273781Y409074D01*
X3269320Y404613D01*
X3266906Y398785D01*
Y392476D01*
X3269320Y386647D01*
X3273781Y382187D01*
X3279610Y379772D01*
X3285919D01*
X3291747Y382187D01*
X3296208Y386647D01*
X3298622Y392476D01*
Y398785D01*
X3296208Y404613D01*
X3291747Y409074D01*
X3285919Y411489D01*
D02*
G37*
G36*
X2473184Y390858D02*
X2466875D01*
X2461046Y388444D01*
X2456586Y383983D01*
X2454171Y378154D01*
Y371846D01*
X2456586Y366017D01*
X2461046Y361556D01*
X2466875Y359142D01*
X2473184D01*
X2479012Y361556D01*
X2483473Y366017D01*
X2485888Y371846D01*
Y378154D01*
X2483473Y383983D01*
X2479012Y388444D01*
X2473184Y390858D01*
D02*
G37*
G36*
X2402997D02*
X2396688D01*
X2390860Y388444D01*
X2386399Y383983D01*
X2383984Y378154D01*
Y371846D01*
X2386399Y366017D01*
X2390860Y361556D01*
X2396688Y359142D01*
X2402997D01*
X2408825Y361556D01*
X2413286Y366017D01*
X2415701Y371846D01*
Y378154D01*
X2413286Y383983D01*
X2408825Y388444D01*
X2402997Y390858D01*
D02*
G37*
G36*
X2143154D02*
X2136846D01*
X2131017Y388444D01*
X2126556Y383983D01*
X2124142Y378154D01*
Y371846D01*
X2126556Y366017D01*
X2131017Y361556D01*
X2136846Y359142D01*
X2143154D01*
X2148983Y361556D01*
X2153444Y366017D01*
X2155858Y371846D01*
Y378154D01*
X2153444Y383983D01*
X2148983Y388444D01*
X2143154Y390858D01*
D02*
G37*
G36*
X163586Y447741D02*
X151376D01*
X139583Y444580D01*
X129009Y438476D01*
X120376Y429842D01*
X114271Y419269D01*
X111111Y407475D01*
Y395266D01*
X114271Y383472D01*
X120376Y372899D01*
X129009Y364265D01*
X139583Y358161D01*
X151376Y355000D01*
X163586D01*
X175379Y358161D01*
X185953Y364265D01*
X194586Y372899D01*
X200691Y383472D01*
X203851Y395266D01*
Y407475D01*
X200691Y419269D01*
X194586Y429842D01*
X185953Y438476D01*
X175379Y444580D01*
X163586Y447741D01*
D02*
G37*
G36*
X2168320Y338859D02*
X2162011D01*
X2156182Y336444D01*
X2151722Y331983D01*
X2149307Y326155D01*
Y319846D01*
X2151722Y314017D01*
X2156182Y309557D01*
X2162011Y307142D01*
X2168320D01*
X2174148Y309557D01*
X2178609Y314017D01*
X2181024Y319846D01*
Y326155D01*
X2178609Y331983D01*
X2174148Y336444D01*
X2168320Y338859D01*
D02*
G37*
G36*
X3394974Y321922D02*
X3388665D01*
X3382836Y319507D01*
X3378376Y315046D01*
X3375961Y309218D01*
Y302909D01*
X3378376Y297080D01*
X3382836Y292620D01*
X3388665Y290205D01*
X3394974D01*
X3400802Y292620D01*
X3405263Y297080D01*
X3407678Y302909D01*
Y309218D01*
X3405263Y315046D01*
X3400802Y319507D01*
X3394974Y321922D01*
D02*
G37*
G36*
X2240170Y309701D02*
X2233861D01*
X2228033Y307286D01*
X2223572Y302825D01*
X2221157Y296997D01*
Y290688D01*
X2223572Y284860D01*
X2228033Y280399D01*
X2233861Y277984D01*
X2240170D01*
X2245999Y280399D01*
X2250460Y284860D01*
X2252874Y290688D01*
Y296997D01*
X2250460Y302825D01*
X2245999Y307286D01*
X2240170Y309701D01*
D02*
G37*
G36*
X3245761Y271922D02*
X3239452D01*
X3233624Y269507D01*
X3229163Y265046D01*
X3226749Y259218D01*
Y252909D01*
X3229163Y247081D01*
X3233624Y242620D01*
X3239452Y240205D01*
X3245761D01*
X3251590Y242620D01*
X3256051Y247081D01*
X3258465Y252909D01*
Y259218D01*
X3256051Y265046D01*
X3251590Y269507D01*
X3245761Y271922D01*
D02*
G37*
G36*
X3044974D02*
X3038665D01*
X3032836Y269507D01*
X3028376Y265046D01*
X3025961Y259218D01*
Y252909D01*
X3028376Y247081D01*
X3032836Y242620D01*
X3038665Y240205D01*
X3044974D01*
X3050802Y242620D01*
X3055263Y247081D01*
X3057678Y252909D01*
Y259218D01*
X3055263Y265046D01*
X3050802Y269507D01*
X3044974Y271922D01*
D02*
G37*
G36*
X3628154Y255858D02*
X3621846D01*
X3616017Y253444D01*
X3611556Y248983D01*
X3609142Y243154D01*
Y236846D01*
X3611556Y231017D01*
X3616017Y226556D01*
X3621846Y224142D01*
X3628154D01*
X3633983Y226556D01*
X3638444Y231017D01*
X3640858Y236846D01*
Y243154D01*
X3638444Y248983D01*
X3633983Y253444D01*
X3628154Y255858D01*
D02*
G37*
G36*
X2863154Y250858D02*
X2856846D01*
X2851017Y248444D01*
X2846556Y243983D01*
X2844142Y238154D01*
Y231846D01*
X2846556Y226017D01*
X2851017Y221556D01*
X2856846Y219142D01*
X2863154D01*
X2868983Y221556D01*
X2873444Y226017D01*
X2875858Y231846D01*
Y238154D01*
X2873444Y243983D01*
X2868983Y248444D01*
X2863154Y250858D01*
D02*
G37*
G36*
X2480521Y232189D02*
X2473038D01*
X2466124Y229325D01*
X2460832Y224034D01*
X2457968Y217120D01*
Y209636D01*
X2460832Y202722D01*
X2466124Y197431D01*
X2473038Y194567D01*
X2480521D01*
X2487435Y197431D01*
X2492727Y202722D01*
X2495590Y209636D01*
Y217120D01*
X2492727Y224034D01*
X2487435Y229325D01*
X2480521Y232189D01*
D02*
G37*
G36*
X2252962D02*
X2245479D01*
X2238565Y229325D01*
X2233273Y224034D01*
X2230410Y217120D01*
Y209636D01*
X2233273Y202722D01*
X2238565Y197431D01*
X2245479Y194567D01*
X2252962D01*
X2259876Y197431D01*
X2265168Y202722D01*
X2268032Y209636D01*
Y217120D01*
X2265168Y224034D01*
X2259876Y229325D01*
X2252962Y232189D01*
D02*
G37*
G36*
X3494974Y225858D02*
X3488665D01*
X3482836Y223444D01*
X3478376Y218983D01*
X3475961Y213154D01*
Y206846D01*
X3478376Y201017D01*
X3482836Y196556D01*
X3488665Y194142D01*
X3494974D01*
X3500802Y196556D01*
X3505263Y201017D01*
X3507678Y206846D01*
Y213154D01*
X3505263Y218983D01*
X3500802Y223444D01*
X3494974Y225858D01*
D02*
G37*
G36*
X2503154Y306986D02*
X2496846D01*
X2491017Y304572D01*
X2486556Y300111D01*
X2484142Y294282D01*
Y287974D01*
X2486556Y282145D01*
X2491017Y277684D01*
X2496846Y275270D01*
X2501764D01*
X2504605Y272217D01*
X2505303Y270748D01*
X2503442Y266254D01*
X2502389Y258260D01*
Y207079D01*
X2503442Y199085D01*
X2506527Y191636D01*
X2511436Y185239D01*
X2517832Y180331D01*
X2525282Y177245D01*
X2533276Y176192D01*
X2541269Y177245D01*
X2548719Y180331D01*
X2555115Y185239D01*
X2560024Y191636D01*
X2563109Y199085D01*
X2564162Y207079D01*
Y258260D01*
X2563109Y266254D01*
X2560024Y273703D01*
X2555115Y280100D01*
X2548719Y285008D01*
X2541269Y288094D01*
X2533276Y289146D01*
X2525282Y288094D01*
X2520478Y286104D01*
X2519188Y286626D01*
X2515858Y289567D01*
Y294282D01*
X2513444Y300111D01*
X2508983Y304572D01*
X2503154Y306986D01*
D02*
G37*
G36*
X2192724Y289146D02*
X2184731Y288094D01*
X2177281Y285008D01*
X2170885Y280100D01*
X2165976Y273703D01*
X2162891Y266254D01*
X2161838Y258260D01*
Y207079D01*
X2162891Y199085D01*
X2165976Y191636D01*
X2170885Y185239D01*
X2177281Y180331D01*
X2184731Y177245D01*
X2192724Y176192D01*
X2200718Y177245D01*
X2208168Y180331D01*
X2214564Y185239D01*
X2219473Y191636D01*
X2222558Y199085D01*
X2223611Y207079D01*
Y258260D01*
X2222558Y266254D01*
X2219473Y273703D01*
X2214564Y280100D01*
X2208168Y285008D01*
X2200718Y288094D01*
X2192724Y289146D01*
D02*
G37*
G36*
X3323154Y205858D02*
X3316846D01*
X3311017Y203444D01*
X3306556Y198983D01*
X3304142Y193154D01*
Y186846D01*
X3306556Y181017D01*
X3311017Y176556D01*
X3316846Y174142D01*
X3323154D01*
X3328983Y176556D01*
X3333444Y181017D01*
X3335858Y186846D01*
Y193154D01*
X3333444Y198983D01*
X3328983Y203444D01*
X3323154Y205858D01*
D02*
G37*
G36*
X3194974Y199039D02*
X3188665D01*
X3182836Y196625D01*
X3178376Y192164D01*
X3175961Y186335D01*
Y180026D01*
X3178376Y174198D01*
X3182836Y169737D01*
X3188665Y167322D01*
X3194974D01*
X3200802Y169737D01*
X3205263Y174198D01*
X3207678Y180026D01*
Y186335D01*
X3205263Y192164D01*
X3200802Y196625D01*
X3194974Y199039D01*
D02*
G37*
G36*
X3094974D02*
X3088665D01*
X3082836Y196625D01*
X3078376Y192164D01*
X3075961Y186335D01*
Y180026D01*
X3078376Y174198D01*
X3082836Y169737D01*
X3088665Y167322D01*
X3094974D01*
X3100802Y169737D01*
X3105263Y174198D01*
X3107678Y180026D01*
Y186335D01*
X3105263Y192164D01*
X3100802Y196625D01*
X3094974Y199039D01*
D02*
G37*
G36*
X1963892Y180496D02*
X1952439D01*
X1941377Y177532D01*
X1931459Y171806D01*
X1930945Y171292D01*
X1958166Y144071D01*
X1985387Y171292D01*
X1984873Y171806D01*
X1974955Y177532D01*
X1963892Y180496D01*
D02*
G37*
G36*
X1863892D02*
X1852439D01*
X1841377Y177532D01*
X1831459Y171806D01*
X1830945Y171292D01*
X1858166Y144071D01*
X1885387Y171292D01*
X1884873Y171806D01*
X1874955Y177532D01*
X1863892Y180496D01*
D02*
G37*
G36*
X1763892D02*
X1752439D01*
X1741377Y177532D01*
X1731459Y171806D01*
X1730945Y171292D01*
X1758166Y144071D01*
X1785387Y171292D01*
X1784873Y171806D01*
X1774955Y177532D01*
X1763892Y180496D01*
D02*
G37*
G36*
X1098012D02*
X1086560D01*
X1075497Y177532D01*
X1065579Y171806D01*
X1065065Y171292D01*
X1092286Y144071D01*
X1119507Y171292D01*
X1118993Y171806D01*
X1109075Y177532D01*
X1098012Y180496D01*
D02*
G37*
G36*
X998012D02*
X986560D01*
X975497Y177532D01*
X965579Y171806D01*
X965065Y171292D01*
X992286Y144071D01*
X1019507Y171292D01*
X1018993Y171806D01*
X1009075Y177532D01*
X998012Y180496D01*
D02*
G37*
G36*
X898012D02*
X886560D01*
X875497Y177532D01*
X865579Y171806D01*
X865065Y171292D01*
X892286Y144071D01*
X919507Y171292D01*
X918993Y171806D01*
X909075Y177532D01*
X898012Y180496D01*
D02*
G37*
G36*
X619727D02*
X608274D01*
X597212Y177532D01*
X587293Y171806D01*
X586780Y171292D01*
X614000Y144071D01*
X641221Y171292D01*
X640708Y171806D01*
X630789Y177532D01*
X619727Y180496D01*
D02*
G37*
G36*
X519727D02*
X508274D01*
X497212Y177532D01*
X487293Y171806D01*
X486780Y171292D01*
X514000Y144071D01*
X541221Y171292D01*
X540708Y171806D01*
X530789Y177532D01*
X519727Y180496D01*
D02*
G37*
G36*
X419727D02*
X408274D01*
X397212Y177532D01*
X387293Y171806D01*
X386780Y171292D01*
X414000Y144071D01*
X441221Y171292D01*
X440708Y171806D01*
X430789Y177532D01*
X419727Y180496D01*
D02*
G37*
G36*
X3044974Y174039D02*
X3038665D01*
X3032836Y171625D01*
X3028376Y167164D01*
X3025961Y161335D01*
Y155026D01*
X3028376Y149198D01*
X3032836Y144737D01*
X3038665Y142322D01*
X3044974D01*
X3050802Y144737D01*
X3055263Y149198D01*
X3057678Y155026D01*
Y161335D01*
X3055263Y167164D01*
X3050802Y171625D01*
X3044974Y174039D01*
D02*
G37*
G36*
X3144974Y155858D02*
X3138665D01*
X3132836Y153444D01*
X3128376Y148983D01*
X3125961Y143154D01*
Y136846D01*
X3128376Y131017D01*
X3132836Y126556D01*
X3138665Y124142D01*
X3144974D01*
X3150802Y126556D01*
X3155263Y131017D01*
X3157678Y136846D01*
Y143154D01*
X3155263Y148983D01*
X3150802Y153444D01*
X3144974Y155858D01*
D02*
G37*
G36*
X2994974D02*
X2988665D01*
X2982836Y153444D01*
X2978376Y148983D01*
X2975961Y143154D01*
Y136846D01*
X2978376Y131017D01*
X2982836Y126556D01*
X2988665Y124142D01*
X2994974D01*
X3000802Y126556D01*
X3005263Y131017D01*
X3007678Y136846D01*
Y143154D01*
X3005263Y148983D01*
X3000802Y153444D01*
X2994974Y155858D01*
D02*
G37*
G36*
X1992458Y164221D02*
X1965237Y137000D01*
X1992458Y109780D01*
X1992971Y110293D01*
X1998698Y120212D01*
X2001662Y131274D01*
Y142727D01*
X1998698Y153789D01*
X1992971Y163708D01*
X1992458Y164221D01*
D02*
G37*
G36*
X1892458D02*
X1865237Y137000D01*
X1892458Y109780D01*
X1892971Y110293D01*
X1898698Y120212D01*
X1901662Y131274D01*
Y142727D01*
X1898698Y153789D01*
X1892971Y163708D01*
X1892458Y164221D01*
D02*
G37*
G36*
X1792458D02*
X1765237Y137000D01*
X1792458Y109780D01*
X1792971Y110293D01*
X1798698Y120212D01*
X1801662Y131274D01*
Y142727D01*
X1798698Y153789D01*
X1792971Y163708D01*
X1792458Y164221D01*
D02*
G37*
G36*
X1126578D02*
X1099357Y137000D01*
X1126578Y109780D01*
X1127091Y110293D01*
X1132818Y120212D01*
X1135782Y131274D01*
Y142727D01*
X1132818Y153789D01*
X1127091Y163708D01*
X1126578Y164221D01*
D02*
G37*
G36*
X1026578D02*
X999357Y137000D01*
X1026578Y109780D01*
X1027091Y110293D01*
X1032818Y120212D01*
X1035782Y131274D01*
Y142727D01*
X1032818Y153789D01*
X1027091Y163708D01*
X1026578Y164221D01*
D02*
G37*
G36*
X926578D02*
X899357Y137000D01*
X926578Y109780D01*
X927091Y110293D01*
X932818Y120212D01*
X935782Y131274D01*
Y142727D01*
X932818Y153789D01*
X927091Y163708D01*
X926578Y164221D01*
D02*
G37*
G36*
X648292D02*
X621072Y137000D01*
X648292Y109780D01*
X648806Y110293D01*
X654532Y120212D01*
X657496Y131274D01*
Y142727D01*
X654532Y153789D01*
X648806Y163708D01*
X648292Y164221D01*
D02*
G37*
G36*
X548292D02*
X521072Y137000D01*
X548292Y109780D01*
X548806Y110293D01*
X554532Y120212D01*
X557496Y131274D01*
Y142727D01*
X554532Y153789D01*
X548806Y163708D01*
X548292Y164221D01*
D02*
G37*
G36*
X448292D02*
X421072Y137000D01*
X448292Y109780D01*
X448806Y110293D01*
X454532Y120212D01*
X457497Y131274D01*
Y142727D01*
X454532Y153789D01*
X448806Y163708D01*
X448292Y164221D01*
D02*
G37*
G36*
X1923874D02*
X1923361Y163708D01*
X1917634Y153789D01*
X1914670Y142727D01*
Y131274D01*
X1917634Y120212D01*
X1923361Y110293D01*
X1923874Y109780D01*
X1951095Y137000D01*
X1923874Y164221D01*
D02*
G37*
G36*
X1823874D02*
X1823361Y163708D01*
X1817634Y153789D01*
X1814670Y142727D01*
Y131274D01*
X1817634Y120212D01*
X1823361Y110293D01*
X1823874Y109780D01*
X1851095Y137000D01*
X1823874Y164221D01*
D02*
G37*
G36*
X1723874D02*
X1723361Y163708D01*
X1717634Y153789D01*
X1714670Y142727D01*
Y131274D01*
X1717634Y120212D01*
X1723361Y110293D01*
X1723874Y109780D01*
X1751095Y137000D01*
X1723874Y164221D01*
D02*
G37*
G36*
X1057994D02*
X1057481Y163708D01*
X1051754Y153789D01*
X1048790Y142727D01*
Y131274D01*
X1051754Y120212D01*
X1057481Y110293D01*
X1057994Y109780D01*
X1085215Y137000D01*
X1057994Y164221D01*
D02*
G37*
G36*
X957994D02*
X957481Y163708D01*
X951754Y153789D01*
X948790Y142727D01*
Y131274D01*
X951754Y120212D01*
X957481Y110293D01*
X957994Y109780D01*
X985215Y137000D01*
X957994Y164221D01*
D02*
G37*
G36*
X857994D02*
X857481Y163708D01*
X851754Y153789D01*
X848790Y142727D01*
Y131274D01*
X851754Y120212D01*
X857481Y110293D01*
X857994Y109780D01*
X885215Y137000D01*
X857994Y164221D01*
D02*
G37*
G36*
X579709D02*
X579195Y163708D01*
X573469Y153789D01*
X570505Y142727D01*
Y131274D01*
X573469Y120212D01*
X579195Y110293D01*
X579709Y109780D01*
X606929Y137000D01*
X579709Y164221D01*
D02*
G37*
G36*
X479709D02*
X479195Y163708D01*
X473469Y153789D01*
X470505Y142727D01*
Y131274D01*
X473469Y120212D01*
X479195Y110293D01*
X479709Y109780D01*
X506930Y137000D01*
X479709Y164221D01*
D02*
G37*
G36*
X379709D02*
X379195Y163708D01*
X373469Y153789D01*
X370505Y142727D01*
Y131274D01*
X373469Y120212D01*
X379195Y110293D01*
X379709Y109780D01*
X406930Y137000D01*
X379709Y164221D01*
D02*
G37*
G36*
X1958166Y129929D02*
X1930945Y102709D01*
X1931459Y102195D01*
X1941377Y96469D01*
X1952439Y93504D01*
X1963892D01*
X1974955Y96469D01*
X1984873Y102195D01*
X1985387Y102709D01*
X1958166Y129929D01*
D02*
G37*
G36*
X1858166D02*
X1830945Y102709D01*
X1831459Y102195D01*
X1841377Y96469D01*
X1852439Y93504D01*
X1863892D01*
X1874955Y96469D01*
X1884873Y102195D01*
X1885387Y102709D01*
X1858166Y129929D01*
D02*
G37*
G36*
X1758166D02*
X1730945Y102709D01*
X1731459Y102195D01*
X1741377Y96469D01*
X1752439Y93504D01*
X1763892D01*
X1774955Y96469D01*
X1784873Y102195D01*
X1785387Y102709D01*
X1758166Y129929D01*
D02*
G37*
G36*
X1092286D02*
X1065065Y102709D01*
X1065579Y102195D01*
X1075497Y96469D01*
X1086560Y93504D01*
X1098012D01*
X1109075Y96469D01*
X1118993Y102195D01*
X1119507Y102709D01*
X1092286Y129929D01*
D02*
G37*
G36*
X992286D02*
X965065Y102709D01*
X965579Y102195D01*
X975497Y96469D01*
X986560Y93504D01*
X998012D01*
X1009075Y96469D01*
X1018993Y102195D01*
X1019507Y102709D01*
X992286Y129929D01*
D02*
G37*
G36*
X892286D02*
X865065Y102709D01*
X865579Y102195D01*
X875497Y96469D01*
X886560Y93504D01*
X898012D01*
X909075Y96469D01*
X918993Y102195D01*
X919507Y102709D01*
X892286Y129929D01*
D02*
G37*
G36*
X614000D02*
X586780Y102709D01*
X587293Y102195D01*
X597212Y96469D01*
X608274Y93504D01*
X619727D01*
X630789Y96469D01*
X640708Y102195D01*
X641221Y102709D01*
X614000Y129929D01*
D02*
G37*
G36*
X514000D02*
X486780Y102709D01*
X487293Y102195D01*
X497212Y96469D01*
X508274Y93504D01*
X519727D01*
X530789Y96469D01*
X540708Y102195D01*
X541221Y102709D01*
X514000Y129929D01*
D02*
G37*
G36*
X414000D02*
X386780Y102709D01*
X387293Y102195D01*
X397212Y96469D01*
X408274Y93504D01*
X419727D01*
X430789Y96469D01*
X440708Y102195D01*
X441221Y102709D01*
X414000Y129929D01*
D02*
G37*
G36*
X167327Y282591D02*
X147634D01*
X128184Y279510D01*
X109455Y273425D01*
X91909Y264485D01*
X75977Y252910D01*
X62052Y238985D01*
X50477Y223053D01*
X41537Y205506D01*
X35451Y186778D01*
X32371Y167327D01*
Y147634D01*
X35451Y128184D01*
X41537Y109455D01*
X50477Y91909D01*
X62052Y75977D01*
X75977Y62052D01*
X91909Y50477D01*
X109455Y41537D01*
X128184Y35451D01*
X147634Y32371D01*
X167327D01*
X186778Y35451D01*
X205506Y41537D01*
X223053Y50477D01*
X238985Y62052D01*
X252910Y75977D01*
X264485Y91909D01*
X273425Y109455D01*
X279510Y128184D01*
X282591Y147634D01*
Y167327D01*
X279510Y186778D01*
X273425Y205506D01*
X264485Y223053D01*
X252910Y238985D01*
X238985Y252910D01*
X223053Y264485D01*
X205506Y273425D01*
X186778Y279510D01*
X167327Y282591D01*
D02*
G37*
G36*
X2736847Y275111D02*
X2717154D01*
X2697704Y272030D01*
X2678975Y265945D01*
X2661428Y257004D01*
X2645497Y245429D01*
X2631572Y231504D01*
X2619997Y215573D01*
X2611056Y198026D01*
X2604971Y179297D01*
X2601890Y159847D01*
Y140154D01*
X2604971Y120704D01*
X2611056Y101975D01*
X2619997Y84428D01*
X2631572Y68497D01*
X2645497Y54572D01*
X2661428Y42997D01*
X2678975Y34056D01*
X2697704Y27971D01*
X2717154Y24890D01*
X2736847D01*
X2756297Y27971D01*
X2775026Y34056D01*
X2792573Y42997D01*
X2808504Y54572D01*
X2822429Y68497D01*
X2834004Y84428D01*
X2842945Y101975D01*
X2849030Y120704D01*
X2852111Y140154D01*
Y159847D01*
X2849030Y179297D01*
X2842945Y198026D01*
X2834004Y215573D01*
X2822429Y231504D01*
X2808504Y245429D01*
X2792573Y257004D01*
X2775026Y265945D01*
X2756297Y272030D01*
X2736847Y275111D01*
D02*
G37*
%LPD*%
D32*
X2770000Y872717D02*
X2810000Y912717D01*
X2770000Y660000D02*
Y872717D01*
X2595000Y485000D02*
X2770000Y660000D01*
X2400000Y485000D02*
X2595000D01*
X2810000Y988701D02*
Y1062323D01*
Y912717D02*
Y988701D01*
X2400000Y445000D02*
Y485000D01*
D36*
X826772Y1692913D02*
D03*
X2125984D02*
D03*
X1476378D02*
D03*
D37*
X676772D02*
D03*
X526772D02*
D03*
X376772D02*
D03*
X157481Y401370D02*
D03*
X1975984Y1692913D02*
D03*
X1825984D02*
D03*
X1675984D02*
D03*
X1326378D02*
D03*
X1176378D02*
D03*
X1026378D02*
D03*
D38*
X157481Y551370D02*
D03*
D39*
X2192724Y68496D02*
D03*
X2533276D02*
D03*
Y232669D02*
D03*
X2192724D02*
D03*
D40*
X2476780Y213378D02*
D03*
X2249220D02*
D03*
D41*
X3761999Y1523543D02*
D03*
D42*
Y1423543D02*
D03*
Y1323543D02*
D03*
Y1223543D02*
D03*
D43*
X2727001Y150000D02*
D03*
X157481Y157481D02*
D03*
X3770001Y1767001D02*
D03*
X2362205Y1771654D02*
D03*
X157481D02*
D03*
D44*
X2275000Y1370000D02*
D03*
Y1470000D02*
D03*
Y1570000D02*
D03*
X2375000Y1370000D02*
D03*
Y1470000D02*
D03*
X2955000Y1760000D02*
D03*
X2855000D02*
D03*
X2755000D02*
D03*
X2955000Y1860000D02*
D03*
X2855000D02*
D03*
X3390000Y1760000D02*
D03*
X3290000D02*
D03*
X3190000D02*
D03*
X3390000Y1860000D02*
D03*
X3290000D02*
D03*
X2504414Y1370000D02*
D03*
Y1470000D02*
D03*
Y1570000D02*
D03*
X2604414Y1370000D02*
D03*
Y1470000D02*
D03*
D45*
X2375000Y1570000D02*
D03*
X2604414D02*
D03*
D46*
X1395000Y310000D02*
D03*
D47*
Y546221D02*
D03*
D48*
X1580039Y428110D02*
D03*
D49*
X1092286Y137000D02*
D03*
X992286D02*
D03*
X892286D02*
D03*
X1092286Y437000D02*
D03*
X992286D02*
D03*
X614000Y137000D02*
D03*
X514000D02*
D03*
X414000D02*
D03*
X614000Y437000D02*
D03*
X514000D02*
D03*
X1958166Y137000D02*
D03*
X1858166D02*
D03*
X1758166D02*
D03*
X1958166Y437000D02*
D03*
X1858166D02*
D03*
D50*
X892286D02*
D03*
X414000D02*
D03*
X1758166D02*
D03*
D51*
X2755000Y1860000D02*
D03*
X3190000D02*
D03*
D52*
X3337882Y584607D02*
D03*
X3282764D02*
D03*
X3243394Y545237D02*
D03*
Y490119D02*
D03*
Y435000D02*
D03*
X3282764Y395630D02*
D03*
X3337882D02*
D03*
X3393001D02*
D03*
X3432371Y435000D02*
D03*
Y490119D02*
D03*
Y545237D02*
D03*
X3391819Y584607D02*
D03*
X3310323Y517678D02*
D03*
Y462560D02*
D03*
X3365441D02*
D03*
X3365441Y517678D02*
D03*
X2770000Y675000D02*
D03*
X2583997Y506063D02*
D03*
X3275000Y1423543D02*
D03*
X3230000Y885000D02*
D03*
X2961823D02*
D03*
X2990000Y1670000D02*
D03*
X2961823Y986772D02*
D03*
X2305000Y868712D02*
D03*
X3519213Y695787D02*
D03*
X2485000Y755000D02*
D03*
X3379379Y695787D02*
D03*
X3215000Y1530000D02*
D03*
Y1050000D02*
D03*
X2765000Y1330000D02*
D03*
X2790000Y605000D02*
D03*
X3180000Y1580000D02*
D03*
X3242607Y256063D02*
D03*
X3320000Y190000D02*
D03*
X3391819Y1583181D02*
D03*
Y306063D02*
D03*
X3550000Y1600000D02*
D03*
X3532087Y1870000D02*
D03*
Y1720000D02*
D03*
X3565000Y395630D02*
D03*
X3625000Y240000D02*
D03*
X3615678Y1649322D02*
D03*
X2991819Y1615000D02*
D03*
X3191819Y183181D02*
D03*
X3141819Y140000D02*
D03*
X1270050Y743405D02*
D03*
X3041819Y1223181D02*
D03*
Y256063D02*
D03*
X2860000Y1290000D02*
D03*
Y235000D02*
D03*
X3091819Y1470000D02*
D03*
X2165165Y323000D02*
D03*
X3091819Y183181D02*
D03*
X3041819Y158181D02*
D03*
X1524000Y888487D02*
D03*
X2179426Y868712D02*
D03*
X2095760D02*
D03*
X1465000Y866321D02*
D03*
X1367963D02*
D03*
X709900D02*
D03*
X670577Y815669D02*
D03*
X2200000Y910000D02*
D03*
X2399843Y375000D02*
D03*
X942286Y702067D02*
D03*
X1092286Y673339D02*
D03*
X1169680D02*
D03*
X1240050D02*
D03*
X1339050Y743405D02*
D03*
X96270Y845000D02*
D03*
X644239Y702067D02*
D03*
X798969Y888487D02*
D03*
X1465000Y922487D02*
D03*
X709900Y937487D02*
D03*
X2890000Y986772D02*
D03*
Y1060000D02*
D03*
X2583997Y988701D02*
D03*
X2619414D02*
D03*
X2656999D02*
D03*
Y922487D02*
D03*
X2619414D02*
D03*
X2583997D02*
D03*
X2140000Y784744D02*
D03*
X2137158Y463843D02*
D03*
X2140000Y375000D02*
D03*
X2470030D02*
D03*
X2500000Y291128D02*
D03*
X2237016Y293842D02*
D03*
X3141819Y575000D02*
D03*
X585000Y650000D02*
D03*
X546325Y615000D02*
D03*
X3191819Y517678D02*
D03*
X546325Y957290D02*
D03*
Y1016345D02*
D03*
X3243394Y695000D02*
D03*
X1465000Y957290D02*
D03*
Y1138578D02*
D03*
X3291819Y1138579D02*
D03*
X2810000Y1062323D02*
D03*
X2991819Y1170000D02*
D03*
X2477540Y1270645D02*
D03*
X3320000Y1018701D02*
D03*
X2434102Y1095085D02*
D03*
X1285050Y957290D02*
D03*
Y1016345D02*
D03*
X3391819Y829519D02*
D03*
X2014211Y957290D02*
D03*
Y1016345D02*
D03*
X3491819Y210000D02*
D03*
X3461579Y1094760D02*
D03*
X3459819Y630000D02*
D03*
X2449102D02*
D03*
X2991819Y140000D02*
D03*
X2335004Y1199996D02*
D03*
X2476540Y890000D02*
D03*
X3776999Y1095000D02*
D03*
X3685000D02*
D03*
X3591819Y1060000D02*
D03*
X3499819D02*
D03*
X3420000Y1010984D02*
D03*
X3776999Y967992D02*
D03*
X3685000D02*
D03*
X3591819Y932992D02*
D03*
X3499819D02*
D03*
X3480000Y1353543D02*
D03*
X2810000Y912717D02*
D03*
Y988701D02*
D03*
X2400000Y445000D02*
D03*
Y485000D02*
D03*
X2605000Y280000D02*
D03*
X2210000Y560000D02*
D03*
X2262103D02*
D03*
X2315000D02*
D03*
Y630000D02*
D03*
X2262103D02*
D03*
X2210000D02*
D03*
X2137158Y1297406D02*
D03*
X2054481Y1255645D02*
D03*
X2136481Y1164203D02*
D03*
X2054481D02*
D03*
X1982851D02*
D03*
X1731851Y1255645D02*
D03*
X1584000Y1253613D02*
D03*
X1509000Y1255645D02*
D03*
X1761851Y1164203D02*
D03*
X1669457D02*
D03*
X1584000D02*
D03*
X1509000D02*
D03*
X1326625Y1255645D02*
D03*
X1003995Y1259660D02*
D03*
X858969Y1253471D02*
D03*
X783969Y1255645D02*
D03*
X669900Y1299000D02*
D03*
X587900Y1255645D02*
D03*
X1409302Y1164346D02*
D03*
X1326625Y1162172D02*
D03*
X1254995D02*
D03*
X1033995Y1164203D02*
D03*
X944426Y1164346D02*
D03*
X858969D02*
D03*
X783969D02*
D03*
X669900D02*
D03*
X587900D02*
D03*
X516270Y1165164D02*
D03*
X273000Y1259660D02*
D03*
X209900Y1299000D02*
D03*
X126270Y1253157D02*
D03*
X43001D02*
D03*
X295270Y1164346D02*
D03*
X209900Y1165164D02*
D03*
X126270D02*
D03*
X43001Y1164346D02*
D03*
X2030819Y1072323D02*
D03*
X1731851Y1068001D02*
D03*
X1306001Y1078001D02*
D03*
X1003995Y1068001D02*
D03*
X572900D02*
D03*
X259000Y1065001D02*
D03*
X1787166Y743405D02*
D03*
X1858166D02*
D03*
X1928536D02*
D03*
X2066906Y826082D02*
D03*
X1958536D02*
D03*
X1230680D02*
D03*
X1339050D02*
D03*
X1200680Y743405D02*
D03*
X1130310D02*
D03*
X1059310D02*
D03*
X320585D02*
D03*
X391585D02*
D03*
X461955D02*
D03*
X600325Y826082D02*
D03*
X491955D02*
D03*
%TF.MD5,e656be34579445a5ef4ba60f60e3c2ab*%
M02*
