%TF.GenerationSoftware,Altium Limited,Altium Designer,22.11.1 (43)*%
G04 Layer_Color=16711935*
%FSLAX26Y26*%
%MOIN*%
%TF.SameCoordinates,2A7337FD-AF25-45B1-AC32-E314E96981BF*%
%TF.FilePolarity,Negative*%
%TF.FileFunction,Soldermask,Bot*%
%TF.Part,Single*%
G01*
G75*
%TA.AperFunction,ComponentPad*%
%ADD79R,0.082677X0.082677*%
%ADD80C,0.082677*%
%ADD81R,0.082677X0.082677*%
%ADD82C,0.027559*%
%ADD83R,0.068898X0.068898*%
%ADD84C,0.068898*%
%ADD85C,0.240157*%
%ADD86C,0.074803*%
%ADD87R,0.074803X0.074803*%
%ADD88R,0.161417X0.082677*%
%ADD89R,0.177165X0.090551*%
%ADD90R,0.082677X0.161417*%
%ADD91C,0.066929*%
%ADD92R,0.066929X0.066929*%
%ADD93R,0.074803X0.074803*%
%TA.AperFunction,ViaPad*%
%ADD94C,0.021654*%
D79*
X826772Y1692913D02*
D03*
X2125984D02*
D03*
X1476378D02*
D03*
D80*
X676772D02*
D03*
X526772D02*
D03*
X376772D02*
D03*
X157481Y401370D02*
D03*
X1975984Y1692913D02*
D03*
X1825984D02*
D03*
X1675984D02*
D03*
X1326378D02*
D03*
X1176378D02*
D03*
X1026378D02*
D03*
D81*
X157481Y551370D02*
D03*
D82*
X2476780Y213378D02*
D03*
X2249220D02*
D03*
D83*
X3761999Y1523543D02*
D03*
D84*
Y1423543D02*
D03*
Y1323543D02*
D03*
Y1223543D02*
D03*
D85*
X2727001Y150000D02*
D03*
X157481Y157481D02*
D03*
X3770001Y1767001D02*
D03*
X2362205Y1771654D02*
D03*
X157481D02*
D03*
D86*
X2275000Y1370000D02*
D03*
Y1470000D02*
D03*
Y1570000D02*
D03*
X2375000Y1370000D02*
D03*
Y1470000D02*
D03*
X2955000Y1760000D02*
D03*
X2855000D02*
D03*
X2755000D02*
D03*
X2955000Y1860000D02*
D03*
X2855000D02*
D03*
X3390000Y1760000D02*
D03*
X3290000D02*
D03*
X3190000D02*
D03*
X3390000Y1860000D02*
D03*
X3290000D02*
D03*
X2504414Y1370000D02*
D03*
Y1470000D02*
D03*
Y1570000D02*
D03*
X2604414Y1370000D02*
D03*
Y1470000D02*
D03*
D87*
X2375000Y1570000D02*
D03*
X2604414D02*
D03*
D88*
X1395000Y310000D02*
D03*
D89*
Y546221D02*
D03*
D90*
X1580039Y428110D02*
D03*
D91*
X1092286Y137000D02*
D03*
X992286D02*
D03*
X892286D02*
D03*
X1092286Y437000D02*
D03*
X992286D02*
D03*
X614000Y137000D02*
D03*
X514000D02*
D03*
X414000D02*
D03*
X614000Y437000D02*
D03*
X514000D02*
D03*
X1958166Y137000D02*
D03*
X1858166D02*
D03*
X1758166D02*
D03*
X1958166Y437000D02*
D03*
X1858166D02*
D03*
D92*
X892286D02*
D03*
X414000D02*
D03*
X1758166D02*
D03*
D93*
X2755000Y1860000D02*
D03*
X3190000D02*
D03*
D94*
X3337882Y584607D02*
D03*
X3282764D02*
D03*
X3243394Y545237D02*
D03*
Y490119D02*
D03*
Y435000D02*
D03*
X3282764Y395630D02*
D03*
X3337882D02*
D03*
X3393001D02*
D03*
X3432371Y435000D02*
D03*
Y490119D02*
D03*
Y545237D02*
D03*
X3391819Y584607D02*
D03*
X3310323Y517678D02*
D03*
Y462560D02*
D03*
X3365441D02*
D03*
X3365441Y517678D02*
D03*
%TF.MD5,4afdd62545a0f24d795a3e7852650a7a*%
M02*
