%TF.GenerationSoftware,Altium Limited,Altium Designer,22.11.1 (43)*%
G04 Layer_Color=255*
%FSLAX26Y26*%
%MOIN*%
%TF.SameCoordinates,2A7337FD-AF25-45B1-AC32-E314E96981BF*%
%TF.FilePolarity,Positive*%
%TF.FileFunction,Pads,Bot*%
%TF.Part,Single*%
G01*
G75*
%TA.AperFunction,ComponentPad*%
%ADD36R,0.078740X0.078740*%
%ADD37C,0.078740*%
%ADD38R,0.078740X0.078740*%
%ADD39O,0.047244X0.098425*%
%ADD40C,0.023622*%
%ADD41R,0.064961X0.064961*%
%ADD42C,0.064961*%
%ADD43C,0.236220*%
%ADD44C,0.070866*%
%ADD45R,0.070866X0.070866*%
%ADD46R,0.157480X0.078740*%
%ADD47R,0.173228X0.086614*%
%ADD48R,0.078740X0.157480*%
%ADD49C,0.062992*%
%ADD50R,0.062992X0.062992*%
%ADD51R,0.070866X0.070866*%
D36*
X826772Y1692913D02*
D03*
X2125984D02*
D03*
X1476378D02*
D03*
D37*
X676772D02*
D03*
X526772D02*
D03*
X376772D02*
D03*
X157481Y401370D02*
D03*
X1975984Y1692913D02*
D03*
X1825984D02*
D03*
X1675984D02*
D03*
X1326378D02*
D03*
X1176378D02*
D03*
X1026378D02*
D03*
D38*
X157481Y551370D02*
D03*
D39*
X2192724Y68496D02*
D03*
X2533276D02*
D03*
Y232669D02*
D03*
X2192724D02*
D03*
D40*
X2476780Y213378D02*
D03*
X2249220D02*
D03*
D41*
X3761999Y1523543D02*
D03*
D42*
Y1423543D02*
D03*
Y1323543D02*
D03*
Y1223543D02*
D03*
D43*
X2727001Y150000D02*
D03*
X157481Y157481D02*
D03*
X3770001Y1767001D02*
D03*
X2362205Y1771654D02*
D03*
X157481D02*
D03*
D44*
X2275000Y1370000D02*
D03*
Y1470000D02*
D03*
Y1570000D02*
D03*
X2375000Y1370000D02*
D03*
Y1470000D02*
D03*
X2955000Y1760000D02*
D03*
X2855000D02*
D03*
X2755000D02*
D03*
X2955000Y1860000D02*
D03*
X2855000D02*
D03*
X3390000Y1760000D02*
D03*
X3290000D02*
D03*
X3190000D02*
D03*
X3390000Y1860000D02*
D03*
X3290000D02*
D03*
X2504414Y1370000D02*
D03*
Y1470000D02*
D03*
Y1570000D02*
D03*
X2604414Y1370000D02*
D03*
Y1470000D02*
D03*
D45*
X2375000Y1570000D02*
D03*
X2604414D02*
D03*
D46*
X1395000Y310000D02*
D03*
D47*
Y546221D02*
D03*
D48*
X1580039Y428110D02*
D03*
D49*
X1092286Y137000D02*
D03*
X992286D02*
D03*
X892286D02*
D03*
X1092286Y437000D02*
D03*
X992286D02*
D03*
X614000Y137000D02*
D03*
X514000D02*
D03*
X414000D02*
D03*
X614000Y437000D02*
D03*
X514000D02*
D03*
X1958166Y137000D02*
D03*
X1858166D02*
D03*
X1758166D02*
D03*
X1958166Y437000D02*
D03*
X1858166D02*
D03*
D50*
X892286D02*
D03*
X414000D02*
D03*
X1758166D02*
D03*
D51*
X2755000Y1860000D02*
D03*
X3190000D02*
D03*
%TF.MD5,2f2d2bf6cf7b36822a9de60a8610b77a*%
M02*
