%TF.GenerationSoftware,Altium Limited,Altium Designer,23.4.1 (23)*%
G04 Layer_Color=8388736*
%FSLAX26Y26*%
%MOIN*%
%TF.SameCoordinates,CA55AB83-A8E7-406C-AA52-5D1E9B100620*%
%TF.FilePolarity,Negative*%
%TF.FileFunction,Soldermask,Top*%
%TF.Part,Single*%
G01*
G75*
%TA.AperFunction,SMDPad,CuDef*%
%ADD60R,0.027559X0.048819*%
%ADD61R,0.015748X0.048819*%
G04:AMPARAMS|DCode=62|XSize=52.362mil|YSize=27.165mil|CornerRadius=7.776mil|HoleSize=0mil|Usage=FLASHONLY|Rotation=180.000|XOffset=0mil|YOffset=0mil|HoleType=Round|Shape=RoundedRectangle|*
%AMROUNDEDRECTD62*
21,1,0.052362,0.011614,0,0,180.0*
21,1,0.036811,0.027165,0,0,180.0*
1,1,0.015551,-0.018406,0.005807*
1,1,0.015551,0.018406,0.005807*
1,1,0.015551,0.018406,-0.005807*
1,1,0.015551,-0.018406,-0.005807*
%
%ADD62ROUNDEDRECTD62*%
%ADD63R,0.039370X0.088583*%
%ADD64R,0.129921X0.088583*%
%ADD65R,0.078740X0.043307*%
G04:AMPARAMS|DCode=66|XSize=39.37mil|YSize=62.992mil|CornerRadius=6.398mil|HoleSize=0mil|Usage=FLASHONLY|Rotation=270.000|XOffset=0mil|YOffset=0mil|HoleType=Round|Shape=RoundedRectangle|*
%AMROUNDEDRECTD66*
21,1,0.039370,0.050197,0,0,270.0*
21,1,0.026575,0.062992,0,0,270.0*
1,1,0.012795,-0.025099,-0.013287*
1,1,0.012795,-0.025099,0.013287*
1,1,0.012795,0.025099,0.013287*
1,1,0.012795,0.025099,-0.013287*
%
%ADD66ROUNDEDRECTD66*%
G04:AMPARAMS|DCode=67|XSize=62.992mil|YSize=39.37mil|CornerRadius=6.398mil|HoleSize=0mil|Usage=FLASHONLY|Rotation=270.000|XOffset=0mil|YOffset=0mil|HoleType=Round|Shape=RoundedRectangle|*
%AMROUNDEDRECTD67*
21,1,0.062992,0.026575,0,0,270.0*
21,1,0.050197,0.039370,0,0,270.0*
1,1,0.012795,-0.013287,-0.025099*
1,1,0.012795,-0.013287,0.025099*
1,1,0.012795,0.013287,0.025099*
1,1,0.012795,0.013287,-0.025099*
%
%ADD67ROUNDEDRECTD67*%
G04:AMPARAMS|DCode=68|XSize=39.37mil|YSize=39.37mil|CornerRadius=6.398mil|HoleSize=0mil|Usage=FLASHONLY|Rotation=270.000|XOffset=0mil|YOffset=0mil|HoleType=Round|Shape=RoundedRectangle|*
%AMROUNDEDRECTD68*
21,1,0.039370,0.026575,0,0,270.0*
21,1,0.026575,0.039370,0,0,270.0*
1,1,0.012795,-0.013287,-0.013287*
1,1,0.012795,-0.013287,0.013287*
1,1,0.012795,0.013287,0.013287*
1,1,0.012795,0.013287,-0.013287*
%
%ADD68ROUNDEDRECTD68*%
G04:AMPARAMS|DCode=69|XSize=14.173mil|YSize=42.126mil|CornerRadius=4.527mil|HoleSize=0mil|Usage=FLASHONLY|Rotation=90.000|XOffset=0mil|YOffset=0mil|HoleType=Round|Shape=RoundedRectangle|*
%AMROUNDEDRECTD69*
21,1,0.014173,0.033071,0,0,90.0*
21,1,0.005118,0.042126,0,0,90.0*
1,1,0.009055,0.016535,0.002559*
1,1,0.009055,0.016535,-0.002559*
1,1,0.009055,-0.016535,-0.002559*
1,1,0.009055,-0.016535,0.002559*
%
%ADD69ROUNDEDRECTD69*%
G04:AMPARAMS|DCode=70|XSize=14.173mil|YSize=42.126mil|CornerRadius=4.527mil|HoleSize=0mil|Usage=FLASHONLY|Rotation=0.000|XOffset=0mil|YOffset=0mil|HoleType=Round|Shape=RoundedRectangle|*
%AMROUNDEDRECTD70*
21,1,0.014173,0.033071,0,0,0.0*
21,1,0.005118,0.042126,0,0,0.0*
1,1,0.009055,0.002559,-0.016535*
1,1,0.009055,-0.002559,-0.016535*
1,1,0.009055,-0.002559,0.016535*
1,1,0.009055,0.002559,0.016535*
%
%ADD70ROUNDEDRECTD70*%
%ADD71R,0.127953X0.127953*%
%ADD72R,0.138937X0.073937*%
%ADD73R,0.061024X0.027559*%
%ADD74R,0.027559X0.061024*%
%ADD75R,0.139764X0.139764*%
%ADD76R,0.066929X0.043307*%
%ADD77R,0.055118X0.039370*%
%ADD78R,0.029528X0.039370*%
%ADD79R,0.023622X0.027559*%
%ADD80R,0.039370X0.055118*%
%ADD81R,0.073937X0.138937*%
%TA.AperFunction,ComponentPad*%
%ADD82C,0.082677*%
%ADD83R,0.082677X0.082677*%
%ADD84R,0.082677X0.082677*%
%ADD85C,0.027559*%
%ADD86C,0.068898*%
%ADD87R,0.068898X0.068898*%
%ADD88C,0.240157*%
%ADD89C,0.074803*%
%ADD90R,0.074803X0.074803*%
%ADD91C,0.021654*%
%ADD92R,0.177165X0.090551*%
%ADD93R,0.161417X0.082677*%
%ADD94R,0.082677X0.161417*%
%ADD95C,0.066929*%
%ADD96R,0.066929X0.066929*%
%ADD97R,0.074803X0.074803*%
D60*
X2237016Y255504D02*
D03*
X2268512D02*
D03*
X2457488D02*
D03*
X2488984D02*
D03*
D61*
X2294102D02*
D03*
X2313787D02*
D03*
X2372843D02*
D03*
X2392528D02*
D03*
X2333472D02*
D03*
X2353157D02*
D03*
X2412213D02*
D03*
X2431898D02*
D03*
D62*
X2393075Y1199996D02*
D03*
X2476540Y1162594D02*
D03*
Y1237398D02*
D03*
X2727075Y1162594D02*
D03*
Y1237398D02*
D03*
X2810540Y1199996D02*
D03*
D63*
X2171552Y463843D02*
D03*
X2352654D02*
D03*
X2262103D02*
D03*
D64*
Y694158D02*
D03*
D65*
X2905000Y1200000D02*
D03*
Y1353543D02*
D03*
X3263268Y1200000D02*
D03*
Y1353543D02*
D03*
D66*
X2942607Y206063D02*
D03*
Y356063D02*
D03*
Y406063D02*
D03*
Y306063D02*
D03*
Y256063D02*
D03*
Y606063D02*
D03*
Y656063D02*
D03*
Y456063D02*
D03*
Y556063D02*
D03*
Y506063D02*
D03*
D67*
X3041819Y86575D02*
D03*
X2991819D02*
D03*
X3091819D02*
D03*
X3241819D02*
D03*
X3141819D02*
D03*
X3191819D02*
D03*
X3091819Y775552D02*
D03*
X2991819D02*
D03*
X3041819D02*
D03*
X3191819D02*
D03*
X3141819D02*
D03*
X3241819D02*
D03*
X3291819D02*
D03*
X3341819Y86575D02*
D03*
X3291819D02*
D03*
X3391819D02*
D03*
X3591819D02*
D03*
X3541819D02*
D03*
X3641819D02*
D03*
X3491819D02*
D03*
X3441819D02*
D03*
X3341819Y775552D02*
D03*
X3391819D02*
D03*
X3541819D02*
D03*
X3441819D02*
D03*
X3491819D02*
D03*
X3641819D02*
D03*
X3591819D02*
D03*
D68*
X3282764Y435000D02*
D03*
Y545237D02*
D03*
Y490118D02*
D03*
X3337882Y435000D02*
D03*
X3393000D02*
D03*
X3337882Y490118D02*
D03*
X3393000Y545237D02*
D03*
X3337882D02*
D03*
X3393000Y490118D02*
D03*
D69*
X2530060Y912717D02*
D03*
Y991457D02*
D03*
Y952087D02*
D03*
Y971772D02*
D03*
Y1030827D02*
D03*
Y1011142D02*
D03*
Y932402D02*
D03*
X2716674Y912717D02*
D03*
Y932402D02*
D03*
Y952087D02*
D03*
Y1011142D02*
D03*
Y971772D02*
D03*
Y991457D02*
D03*
Y1030827D02*
D03*
D70*
X2583997Y878465D02*
D03*
X2564312D02*
D03*
X2583997Y1065079D02*
D03*
X2564312D02*
D03*
X2643052Y878465D02*
D03*
X2682422D02*
D03*
X2662737D02*
D03*
X2603682D02*
D03*
X2623367D02*
D03*
X2662737Y1065079D02*
D03*
X2603682D02*
D03*
X2643052D02*
D03*
X2623367D02*
D03*
X2682422D02*
D03*
D71*
X2623367Y971772D02*
D03*
D72*
X823969Y1390000D02*
D03*
X2670000Y675000D02*
D03*
Y506063D02*
D03*
X2810000Y365030D02*
D03*
D73*
X1055506Y976975D02*
D03*
Y957290D02*
D03*
Y937605D02*
D03*
Y1055715D02*
D03*
Y1036030D02*
D03*
Y996660D02*
D03*
Y1016345D02*
D03*
X1244483Y937605D02*
D03*
Y976975D02*
D03*
Y957290D02*
D03*
Y1036030D02*
D03*
Y996660D02*
D03*
Y1016345D02*
D03*
Y1055715D02*
D03*
X316782Y976975D02*
D03*
Y957290D02*
D03*
Y937605D02*
D03*
Y1055715D02*
D03*
Y1036030D02*
D03*
Y996660D02*
D03*
Y1016345D02*
D03*
X505758Y937605D02*
D03*
Y976975D02*
D03*
Y957290D02*
D03*
Y1036030D02*
D03*
Y996660D02*
D03*
Y1016345D02*
D03*
Y1055715D02*
D03*
X1783363Y976975D02*
D03*
Y957290D02*
D03*
Y937605D02*
D03*
Y1055715D02*
D03*
Y1036030D02*
D03*
Y996660D02*
D03*
Y1016345D02*
D03*
X1972339Y937605D02*
D03*
Y976975D02*
D03*
Y957290D02*
D03*
Y1036030D02*
D03*
Y996660D02*
D03*
Y1016345D02*
D03*
Y1055715D02*
D03*
D74*
X1110625Y902172D02*
D03*
X1090940D02*
D03*
X1110625Y1091149D02*
D03*
X1090940D02*
D03*
X1169680Y902172D02*
D03*
X1209050D02*
D03*
X1189365D02*
D03*
X1130310D02*
D03*
X1149995D02*
D03*
X1209050Y1091149D02*
D03*
X1189365D02*
D03*
X1130310D02*
D03*
X1169680D02*
D03*
X1149995D02*
D03*
X371900Y902172D02*
D03*
X352215D02*
D03*
X371900Y1091149D02*
D03*
X352215D02*
D03*
X430955Y902172D02*
D03*
X470325D02*
D03*
X450640D02*
D03*
X391585D02*
D03*
X411270D02*
D03*
X470325Y1091149D02*
D03*
X450640D02*
D03*
X391585D02*
D03*
X430955D02*
D03*
X411270D02*
D03*
X1838481Y902172D02*
D03*
X1818796D02*
D03*
X1838481Y1091149D02*
D03*
X1818796D02*
D03*
X1897536Y902172D02*
D03*
X1936906D02*
D03*
X1917221D02*
D03*
X1858166D02*
D03*
X1877851D02*
D03*
X1936906Y1091149D02*
D03*
X1917221D02*
D03*
X1858166D02*
D03*
X1897536D02*
D03*
X1877851D02*
D03*
D75*
X1149995Y996660D02*
D03*
X411270D02*
D03*
X1877851D02*
D03*
D76*
X3591819Y885000D02*
D03*
Y1010984D02*
D03*
X209900Y1127173D02*
D03*
Y1253157D02*
D03*
X669900Y1129660D02*
D03*
Y1255645D02*
D03*
X1669457Y1127629D02*
D03*
Y1253613D02*
D03*
X2136481Y1129660D02*
D03*
Y1255645D02*
D03*
X944426Y1127487D02*
D03*
Y1253471D02*
D03*
X1408625Y1129660D02*
D03*
Y1255645D02*
D03*
X3776999Y920000D02*
D03*
Y1045984D02*
D03*
X3685000Y920000D02*
D03*
Y1045984D02*
D03*
X3499819Y885000D02*
D03*
Y1010984D02*
D03*
D77*
X3600000Y1767001D02*
D03*
Y1849678D02*
D03*
X179900Y950149D02*
D03*
Y1032826D02*
D03*
X236794Y702067D02*
D03*
Y784744D02*
D03*
X587900Y1129660D02*
D03*
Y1212338D02*
D03*
X55000Y1123007D02*
D03*
Y1205684D02*
D03*
X126270Y1123826D02*
D03*
Y1206503D02*
D03*
X516270Y1129660D02*
D03*
Y1212338D02*
D03*
X295270Y1127487D02*
D03*
Y1210164D02*
D03*
X538914Y702047D02*
D03*
Y784724D02*
D03*
X614000Y702067D02*
D03*
Y784744D02*
D03*
X97223Y950149D02*
D03*
Y1032826D02*
D03*
X320585Y702067D02*
D03*
Y784744D02*
D03*
X391585Y702067D02*
D03*
Y784744D02*
D03*
X461955Y702067D02*
D03*
Y784744D02*
D03*
X1646481Y950149D02*
D03*
Y1032826D02*
D03*
X1673587Y701674D02*
D03*
Y784351D02*
D03*
X2054481Y1129660D02*
D03*
Y1212338D02*
D03*
X1509000Y1129660D02*
D03*
Y1212338D02*
D03*
X1584000Y1129660D02*
D03*
Y1212338D02*
D03*
X1982851Y1129660D02*
D03*
Y1212338D02*
D03*
X1761851Y1127487D02*
D03*
Y1210164D02*
D03*
X1987536Y702067D02*
D03*
Y784744D02*
D03*
X2066906Y702067D02*
D03*
Y784744D02*
D03*
X1569000Y950149D02*
D03*
Y1032826D02*
D03*
X1746851Y701674D02*
D03*
Y784351D02*
D03*
X1826166Y701674D02*
D03*
Y784351D02*
D03*
X1910000Y701674D02*
D03*
Y784351D02*
D03*
X918625Y950149D02*
D03*
Y1032826D02*
D03*
X975000Y701674D02*
D03*
Y784351D02*
D03*
X1326625Y1129660D02*
D03*
Y1212338D02*
D03*
X783969Y1129518D02*
D03*
Y1212195D02*
D03*
X858969Y1129518D02*
D03*
Y1212195D02*
D03*
X1254995Y1129660D02*
D03*
Y1212338D02*
D03*
X1033995Y1127487D02*
D03*
Y1210164D02*
D03*
X1277740Y702048D02*
D03*
Y784725D02*
D03*
X1352963Y701674D02*
D03*
Y784351D02*
D03*
X838969Y950149D02*
D03*
Y1032826D02*
D03*
X1051570Y702067D02*
D03*
Y784744D02*
D03*
X1125000Y702067D02*
D03*
Y784744D02*
D03*
X1200680Y702067D02*
D03*
Y784744D02*
D03*
X1529000Y617000D02*
D03*
Y699677D02*
D03*
X1600186Y617000D02*
D03*
Y699677D02*
D03*
X3420000Y885000D02*
D03*
Y967677D02*
D03*
X2419102Y869410D02*
D03*
Y952087D02*
D03*
X2449102Y463843D02*
D03*
Y546520D02*
D03*
X2605000Y323000D02*
D03*
Y405678D02*
D03*
X2686999Y323000D02*
D03*
Y405678D02*
D03*
D78*
X3475000Y1760000D02*
D03*
X3532087D02*
D03*
X3475000Y1825000D02*
D03*
X3532087D02*
D03*
D79*
X1234474Y1267898D02*
D03*
X1273844D02*
D03*
X304900Y1270655D02*
D03*
X344270D02*
D03*
X496585D02*
D03*
X535955D02*
D03*
X1771481Y1270145D02*
D03*
X1810851D02*
D03*
X1963166D02*
D03*
X2002536D02*
D03*
X1043625Y1267898D02*
D03*
X1082995D02*
D03*
D80*
X97223Y888487D02*
D03*
X179900D02*
D03*
X587900Y937487D02*
D03*
X670577D02*
D03*
X587900Y1016345D02*
D03*
X670577D02*
D03*
X1563804Y888487D02*
D03*
X1646481D02*
D03*
X2054422Y948756D02*
D03*
X2137099D02*
D03*
X2054422Y1030827D02*
D03*
X2137099D02*
D03*
X835947Y888487D02*
D03*
X918625D02*
D03*
X1326625Y937487D02*
D03*
X1409302D02*
D03*
X1326625Y1016345D02*
D03*
X1409302D02*
D03*
X2701926Y784744D02*
D03*
X2784603D02*
D03*
X2774454Y988701D02*
D03*
X2857131D02*
D03*
X2774454Y912717D02*
D03*
X2857131D02*
D03*
X2774454Y1062323D02*
D03*
X2857131D02*
D03*
X3355000Y1200000D02*
D03*
X3437677D02*
D03*
X3355000Y1353543D02*
D03*
X3437677D02*
D03*
X2563075Y1237398D02*
D03*
X2645753D02*
D03*
X2563075Y1162594D02*
D03*
X2645753D02*
D03*
X2343504Y375000D02*
D03*
X2426181D02*
D03*
X2179426D02*
D03*
X2262103D02*
D03*
X2179426Y784744D02*
D03*
X2262103D02*
D03*
X1326625Y866321D02*
D03*
X1409302D02*
D03*
X587900Y866984D02*
D03*
X670577D02*
D03*
X2054422Y868712D02*
D03*
X2137099D02*
D03*
D81*
X157481Y1495000D02*
D03*
D82*
X526772Y1692913D02*
D03*
X376772D02*
D03*
X676772D02*
D03*
X157481Y401370D02*
D03*
X1825984Y1692913D02*
D03*
X1675984D02*
D03*
X1975984D02*
D03*
X1176378D02*
D03*
X1026378D02*
D03*
X1326378D02*
D03*
D83*
X826772D02*
D03*
X2125984D02*
D03*
X1476378D02*
D03*
D84*
X157481Y551370D02*
D03*
D85*
X2249220Y213378D02*
D03*
X2476780D02*
D03*
D86*
X3776999Y1268543D02*
D03*
Y1368543D02*
D03*
Y1468543D02*
D03*
Y1168543D02*
D03*
D87*
Y1568543D02*
D03*
D88*
X2727001Y150000D02*
D03*
X157481Y157481D02*
D03*
X3770001Y1767001D02*
D03*
X2362205Y1771654D02*
D03*
X157481D02*
D03*
D89*
X2275000Y1370000D02*
D03*
Y1570000D02*
D03*
Y1470000D02*
D03*
X2375000Y1370000D02*
D03*
Y1470000D02*
D03*
X2755000Y1760000D02*
D03*
X2955000D02*
D03*
X2855000D02*
D03*
Y1860000D02*
D03*
X2955000D02*
D03*
X3190000Y1760000D02*
D03*
X3390000D02*
D03*
X3290000D02*
D03*
Y1860000D02*
D03*
X3390000D02*
D03*
X2504414Y1370000D02*
D03*
Y1570000D02*
D03*
Y1470000D02*
D03*
X2604414Y1370000D02*
D03*
Y1470000D02*
D03*
D90*
X2375000Y1570000D02*
D03*
X2604414D02*
D03*
D91*
X3243394Y435000D02*
D03*
X3282764Y395630D02*
D03*
X3243394Y490118D02*
D03*
Y545237D02*
D03*
X3282764Y584607D02*
D03*
X3337882Y395630D02*
D03*
X3393000D02*
D03*
X3365441Y462559D02*
D03*
X3432370Y435000D02*
D03*
X3310323Y462559D02*
D03*
Y517678D02*
D03*
X3365441D02*
D03*
X3391819Y584607D02*
D03*
X3336424Y585243D02*
D03*
X3432370Y545237D02*
D03*
Y490118D02*
D03*
D92*
X1395000Y546221D02*
D03*
D93*
Y310000D02*
D03*
D94*
X1580039Y428110D02*
D03*
D95*
X892286Y137000D02*
D03*
X992286Y437000D02*
D03*
Y137000D02*
D03*
X1092286D02*
D03*
Y437000D02*
D03*
X414000Y137000D02*
D03*
X514000Y437000D02*
D03*
Y137000D02*
D03*
X614000D02*
D03*
Y437000D02*
D03*
X1758166Y137000D02*
D03*
X1858166Y437000D02*
D03*
Y137000D02*
D03*
X1958166D02*
D03*
Y437000D02*
D03*
D96*
X892286D02*
D03*
X414000D02*
D03*
X1758166D02*
D03*
D97*
X2755000Y1860000D02*
D03*
X3190000D02*
D03*
%TF.MD5,b104a0e461129932e3174fc090f4c84f*%
M02*
