%TF.GenerationSoftware,Altium Limited,Altium Designer,23.4.1 (23)*%
G04 Layer_Physical_Order=1*
G04 Layer_Color=255*
%FSLAX26Y26*%
%MOIN*%
%TF.SameCoordinates,C984E364-D40C-4CF4-8751-E295BDF5E6C2*%
%TF.FilePolarity,Positive*%
%TF.FileFunction,Copper,L1,Top,Signal*%
%TF.Part,Single*%
G01*
G75*
%TA.AperFunction,Conductor*%
%ADD10C,0.010000*%
%ADD11C,0.006220*%
%TA.AperFunction,SMDPad,CuDef*%
%ADD12R,0.051181X0.035433*%
%ADD13R,0.035433X0.051181*%
%ADD14R,0.023622X0.044882*%
%ADD15R,0.011811X0.044882*%
G04:AMPARAMS|DCode=16|XSize=48.425mil|YSize=23.228mil|CornerRadius=5.807mil|HoleSize=0mil|Usage=FLASHONLY|Rotation=180.000|XOffset=0mil|YOffset=0mil|HoleType=Round|Shape=RoundedRectangle|*
%AMROUNDEDRECTD16*
21,1,0.048425,0.011614,0,0,180.0*
21,1,0.036811,0.023228,0,0,180.0*
1,1,0.011614,-0.018406,0.005807*
1,1,0.011614,0.018406,0.005807*
1,1,0.011614,0.018406,-0.005807*
1,1,0.011614,-0.018406,-0.005807*
%
%ADD16ROUNDEDRECTD16*%
%ADD17R,0.051181X0.084646*%
%ADD18R,0.141732X0.084646*%
%ADD19R,0.059000X0.084500*%
%ADD20R,0.061024X0.051181*%
G04:AMPARAMS|DCode=21|XSize=35.433mil|YSize=59.055mil|CornerRadius=4.429mil|HoleSize=0mil|Usage=FLASHONLY|Rotation=270.000|XOffset=0mil|YOffset=0mil|HoleType=Round|Shape=RoundedRectangle|*
%AMROUNDEDRECTD21*
21,1,0.035433,0.050197,0,0,270.0*
21,1,0.026575,0.059055,0,0,270.0*
1,1,0.008858,-0.025099,-0.013287*
1,1,0.008858,-0.025099,0.013287*
1,1,0.008858,0.025099,0.013287*
1,1,0.008858,0.025099,-0.013287*
%
%ADD21ROUNDEDRECTD21*%
G04:AMPARAMS|DCode=22|XSize=59.055mil|YSize=35.433mil|CornerRadius=4.429mil|HoleSize=0mil|Usage=FLASHONLY|Rotation=270.000|XOffset=0mil|YOffset=0mil|HoleType=Round|Shape=RoundedRectangle|*
%AMROUNDEDRECTD22*
21,1,0.059055,0.026575,0,0,270.0*
21,1,0.050197,0.035433,0,0,270.0*
1,1,0.008858,-0.013287,-0.025099*
1,1,0.008858,-0.013287,0.025099*
1,1,0.008858,0.013287,0.025099*
1,1,0.008858,0.013287,-0.025099*
%
%ADD22ROUNDEDRECTD22*%
G04:AMPARAMS|DCode=23|XSize=35.433mil|YSize=35.433mil|CornerRadius=4.429mil|HoleSize=0mil|Usage=FLASHONLY|Rotation=270.000|XOffset=0mil|YOffset=0mil|HoleType=Round|Shape=RoundedRectangle|*
%AMROUNDEDRECTD23*
21,1,0.035433,0.026575,0,0,270.0*
21,1,0.026575,0.035433,0,0,270.0*
1,1,0.008858,-0.013287,-0.013287*
1,1,0.008858,-0.013287,0.013287*
1,1,0.008858,0.013287,0.013287*
1,1,0.008858,0.013287,-0.013287*
%
%ADD23ROUNDEDRECTD23*%
G04:AMPARAMS|DCode=24|XSize=10.236mil|YSize=38.189mil|CornerRadius=2.559mil|HoleSize=0mil|Usage=FLASHONLY|Rotation=90.000|XOffset=0mil|YOffset=0mil|HoleType=Round|Shape=RoundedRectangle|*
%AMROUNDEDRECTD24*
21,1,0.010236,0.033071,0,0,90.0*
21,1,0.005118,0.038189,0,0,90.0*
1,1,0.005118,0.016535,0.002559*
1,1,0.005118,0.016535,-0.002559*
1,1,0.005118,-0.016535,-0.002559*
1,1,0.005118,-0.016535,0.002559*
%
%ADD24ROUNDEDRECTD24*%
G04:AMPARAMS|DCode=25|XSize=10.236mil|YSize=38.189mil|CornerRadius=2.559mil|HoleSize=0mil|Usage=FLASHONLY|Rotation=0.000|XOffset=0mil|YOffset=0mil|HoleType=Round|Shape=RoundedRectangle|*
%AMROUNDEDRECTD25*
21,1,0.010236,0.033071,0,0,0.0*
21,1,0.005118,0.038189,0,0,0.0*
1,1,0.005118,0.002559,-0.016535*
1,1,0.005118,-0.002559,-0.016535*
1,1,0.005118,-0.002559,0.016535*
1,1,0.005118,0.002559,0.016535*
%
%ADD25ROUNDEDRECTD25*%
%ADD26R,0.124016X0.124016*%
%TA.AperFunction,TestPad*%
%ADD27R,0.135000X0.070000*%
%TA.AperFunction,SMDPad,CuDef*%
%ADD28R,0.045276X0.011811*%
%ADD29R,0.011811X0.045276*%
%ADD30R,0.124016X0.124016*%
%ADD31R,0.062992X0.039370*%
%TA.AperFunction,TestPad*%
%ADD32R,0.070000X0.135000*%
%TA.AperFunction,Conductor*%
%ADD33C,0.007550*%
%ADD34C,0.012000*%
%TA.AperFunction,NonConductor*%
%ADD35R,0.060586X0.130000*%
%TA.AperFunction,ComponentPad*%
%ADD36O,0.047244X0.098425*%
%ADD37C,0.023622*%
%ADD38R,0.064961X0.064961*%
%ADD39C,0.064961*%
%ADD40C,0.236220*%
%ADD41C,0.070866*%
%ADD42R,0.070866X0.070866*%
%ADD43C,0.017716*%
%ADD44R,0.157480X0.078740*%
%ADD45R,0.078740X0.157480*%
%ADD46R,0.173228X0.086614*%
%ADD47C,0.078740*%
%ADD48R,0.078740X0.078740*%
%ADD49R,0.078740X0.078740*%
%ADD50R,0.070866X0.070866*%
%TA.AperFunction,ViaPad*%
%ADD51C,0.017716*%
G36*
X3920952Y882198D02*
X3844737D01*
X3837137Y885000D01*
Y982992D01*
X3836594Y985723D01*
X3835047Y988039D01*
X3832731Y989586D01*
X3830000Y990129D01*
X3650623D01*
X3647892Y989586D01*
X3645576Y988039D01*
X3627666Y970129D01*
X3452590Y970129D01*
X3449859Y969586D01*
X3447544Y968039D01*
X3445997Y965723D01*
X3445453Y962992D01*
Y943027D01*
X3445440Y942961D01*
Y917677D01*
X3443858Y917121D01*
X3435858Y922792D01*
Y923154D01*
X3433444Y928983D01*
X3428983Y933444D01*
X3423154Y935858D01*
X3416846D01*
X3411017Y933444D01*
X3406556Y928983D01*
X3404142Y923154D01*
Y916846D01*
X3398436Y909716D01*
X3387410D01*
X3387409Y860284D01*
X3380077Y858673D01*
X3365192D01*
X3363983Y859882D01*
X3358154Y862296D01*
X3351846D01*
X3346017Y859882D01*
X3341556Y855421D01*
X3339142Y849592D01*
Y843283D01*
X3341556Y837455D01*
X3346017Y832994D01*
X3351846Y830580D01*
X3358154D01*
X3363983Y832994D01*
X3365192Y834203D01*
X3399456D01*
X3416768Y816890D01*
X3416553Y816370D01*
X3409566Y811416D01*
X3405107Y812303D01*
X3378532D01*
X3374073Y811416D01*
X3370292Y808890D01*
X3363347D01*
X3359566Y811416D01*
X3355107Y812303D01*
X3328532D01*
X3324073Y811416D01*
X3320292Y808890D01*
X3313347D01*
X3309566Y811416D01*
X3305107Y812303D01*
X3304055D01*
Y939182D01*
X3327765D01*
Y910192D01*
X3326556Y908983D01*
X3324142Y903154D01*
Y896846D01*
X3326556Y891017D01*
X3331017Y886556D01*
X3336846Y884142D01*
X3343154D01*
X3348983Y886556D01*
X3353444Y891017D01*
X3355858Y896846D01*
Y903154D01*
X3353444Y908983D01*
X3352235Y910192D01*
Y939182D01*
X3377323D01*
Y1004363D01*
X3357980D01*
X3354666Y1012363D01*
X3413175Y1070872D01*
X3415828Y1074842D01*
X3416759Y1079524D01*
Y1116347D01*
X3429240D01*
Y1181528D01*
X3379808D01*
Y1181528D01*
X3377323D01*
Y1181528D01*
X3302300D01*
Y1177235D01*
X3207882D01*
X3203200Y1176304D01*
X3199230Y1173651D01*
X3186751Y1161173D01*
X3064331D01*
Y1181528D01*
X2989308D01*
Y1161173D01*
X2961823D01*
X2957141Y1160242D01*
X2953172Y1157589D01*
X2921349Y1125766D01*
X2918696Y1121796D01*
X2917765Y1117114D01*
Y975115D01*
X2909765Y970191D01*
X2908154Y970858D01*
X2901846D01*
X2896017Y968444D01*
X2891556Y963983D01*
X2889142Y958154D01*
Y951846D01*
X2891556Y946017D01*
X2896017Y941556D01*
X2901846Y939142D01*
X2908154D01*
X2909765Y939809D01*
X2917765Y934885D01*
Y920072D01*
X2884242Y886549D01*
X2881590Y882580D01*
X2880659Y877898D01*
Y856630D01*
X2879450Y855421D01*
X2877035Y849592D01*
Y843283D01*
X2879450Y837455D01*
X2883911Y832994D01*
X2889739Y830580D01*
X2896048D01*
X2901877Y832994D01*
X2906338Y837455D01*
X2908752Y843283D01*
Y849592D01*
X2906338Y855421D01*
X2905129Y856630D01*
Y872830D01*
X2938651Y906353D01*
X2941304Y910322D01*
X2942235Y915004D01*
Y942776D01*
X2950235Y943564D01*
X2950520Y942133D01*
X2953172Y938164D01*
X3029584Y861751D01*
Y812303D01*
X3028532D01*
X3024073Y811416D01*
X3020292Y808890D01*
X3013347D01*
X3009566Y811416D01*
X3005107Y812303D01*
X3004055D01*
Y855004D01*
X3003123Y859686D01*
X3000471Y863656D01*
X2977682Y886445D01*
Y888154D01*
X2975267Y893983D01*
X2970807Y898444D01*
X2964978Y900858D01*
X2958669D01*
X2952840Y898444D01*
X2948380Y893983D01*
X2945965Y888154D01*
Y881846D01*
X2948380Y876017D01*
X2952840Y871556D01*
X2958669Y869142D01*
X2960379D01*
X2979584Y849936D01*
Y812303D01*
X2978532D01*
X2974073Y811416D01*
X2970292Y808890D01*
X2967766Y805110D01*
X2966879Y800650D01*
Y750453D01*
X2967766Y745994D01*
X2970292Y742213D01*
X2974073Y739687D01*
X2978532Y738800D01*
X3005107D01*
X3009566Y739687D01*
X3013347Y742213D01*
X3020292D01*
X3024073Y739687D01*
X3028532Y738800D01*
X3055107D01*
X3059566Y739687D01*
X3063347Y742213D01*
X3070292D01*
X3074073Y739687D01*
X3078532Y738800D01*
X3105107D01*
X3109566Y739687D01*
X3113347Y742213D01*
X3120292D01*
X3124073Y739687D01*
X3128532Y738800D01*
X3129584D01*
Y585192D01*
X3128376Y583983D01*
X3125961Y578154D01*
Y571846D01*
X3128376Y566017D01*
X3132836Y561556D01*
X3138665Y559142D01*
X3144974D01*
X3150802Y561556D01*
X3155263Y566017D01*
X3157678Y571846D01*
Y578154D01*
X3155263Y583983D01*
X3154055Y585192D01*
Y738800D01*
X3155107D01*
X3159566Y739687D01*
X3163347Y742213D01*
X3170292D01*
X3174073Y739687D01*
X3178532Y738800D01*
X3179584D01*
Y527869D01*
X3178376Y526661D01*
X3175961Y520832D01*
Y514523D01*
X3178376Y508695D01*
X3182836Y504234D01*
X3188665Y501819D01*
X3194974D01*
X3200802Y504234D01*
X3205263Y508695D01*
X3207678Y514523D01*
Y520832D01*
X3205263Y526661D01*
X3204055Y527869D01*
Y738800D01*
X3205107D01*
X3209566Y739687D01*
X3213347Y742213D01*
X3220292D01*
X3224073Y739687D01*
X3228532Y738800D01*
X3230372D01*
Y704404D01*
X3229950Y703983D01*
X3227536Y698154D01*
Y691846D01*
X3229950Y686017D01*
X3234411Y681556D01*
X3240240Y679142D01*
X3246549D01*
X3252377Y681556D01*
X3256838Y686017D01*
X3259252Y691846D01*
Y698154D01*
X3256838Y703983D01*
X3254842Y705979D01*
Y738800D01*
X3255107D01*
X3259566Y739687D01*
X3263347Y742213D01*
X3270292D01*
X3274073Y739687D01*
X3278532Y738800D01*
X3305107D01*
X3309566Y739687D01*
X3313347Y742213D01*
X3320292D01*
X3324073Y739687D01*
X3328532Y738800D01*
X3329584D01*
Y711131D01*
X3240375Y621922D01*
X3240240D01*
X3234411Y619507D01*
X3229950Y615047D01*
X3227536Y609218D01*
Y602909D01*
X3229950Y597081D01*
X3234411Y592620D01*
X3240240Y590205D01*
X3246549D01*
X3252377Y592620D01*
X3256838Y597081D01*
X3259252Y602909D01*
Y606193D01*
X3350471Y697412D01*
X3353123Y701381D01*
X3354055Y706063D01*
Y738800D01*
X3355107D01*
X3359566Y739687D01*
X3363347Y742213D01*
X3370292D01*
X3374073Y739687D01*
X3378532Y738800D01*
X3379584D01*
Y696887D01*
X3363555Y680858D01*
X3361846D01*
X3356017Y678444D01*
X3351556Y673983D01*
X3349142Y668154D01*
Y661846D01*
X3351556Y656017D01*
X3356017Y651556D01*
X3361846Y649142D01*
X3368154D01*
X3373983Y651556D01*
X3378444Y656017D01*
X3380858Y661846D01*
Y663555D01*
X3400471Y683168D01*
X3403123Y687137D01*
X3404055Y691819D01*
Y738800D01*
X3405107D01*
X3409566Y739687D01*
X3413347Y742213D01*
X3420292D01*
X3424073Y739687D01*
X3428532Y738800D01*
X3455107D01*
X3459566Y739687D01*
X3463347Y742213D01*
X3470292D01*
X3474073Y739687D01*
X3478532Y738800D01*
X3479584D01*
Y732371D01*
X3480516Y727688D01*
X3483168Y723719D01*
X3509475Y697412D01*
X3513444Y694760D01*
X3518126Y693828D01*
X3519808D01*
X3521017Y692620D01*
X3526846Y690205D01*
X3533154D01*
X3538983Y692620D01*
X3543444Y697081D01*
X3545858Y702909D01*
Y709218D01*
X3543444Y715047D01*
X3538983Y719507D01*
X3533154Y721922D01*
X3526846D01*
X3521702Y719791D01*
X3509897Y731596D01*
X3509808Y733779D01*
X3511696Y741111D01*
X3513347Y742213D01*
X3520292D01*
X3524073Y739687D01*
X3528532Y738800D01*
X3555107D01*
X3559566Y739687D01*
X3563347Y742213D01*
X3570292D01*
X3574073Y739687D01*
X3578532Y738800D01*
X3605107D01*
X3609566Y739687D01*
X3613347Y742213D01*
X3613781Y742863D01*
X3616507D01*
X3616854Y742932D01*
X3617206Y742897D01*
X3618209Y743202D01*
X3619238Y743406D01*
X3619533Y743603D01*
X3619871Y743706D01*
X3620682Y744371D01*
X3621554Y744953D01*
X3621750Y745248D01*
X3622024Y745472D01*
X3622396Y745926D01*
X3622890Y746850D01*
X3623473Y747722D01*
X3623542Y748069D01*
X3623709Y748381D01*
X3623811Y749425D01*
X3624016Y750453D01*
Y799947D01*
X3624489Y802325D01*
X3625934Y804488D01*
X3626203Y805137D01*
X3626594Y805722D01*
X3626731Y806411D01*
X3627000Y807061D01*
Y807763D01*
X3627137Y808453D01*
Y842044D01*
X3658294Y873201D01*
X3665667Y869260D01*
X3665047Y866142D01*
Y16056D01*
X2561221D01*
X2557410Y24056D01*
X2560024Y27462D01*
X2563109Y34912D01*
X2564162Y42906D01*
Y94087D01*
X2563109Y102081D01*
X2560024Y109530D01*
X2555115Y115927D01*
X2548719Y120835D01*
X2541269Y123921D01*
X2533276Y124973D01*
X2525282Y123921D01*
X2517832Y120835D01*
X2511436Y115927D01*
X2506527Y109530D01*
X2503442Y102081D01*
X2502389Y94087D01*
Y42906D01*
X2503442Y34912D01*
X2506527Y27462D01*
X2509141Y24056D01*
X2505330Y16056D01*
X2220670D01*
X2216859Y24056D01*
X2219473Y27462D01*
X2222558Y34912D01*
X2223611Y42906D01*
Y94087D01*
X2222558Y102081D01*
X2219473Y109530D01*
X2214564Y115927D01*
X2208168Y120835D01*
X2200718Y123921D01*
X2192724Y124973D01*
X2184731Y123921D01*
X2177281Y120835D01*
X2170885Y115927D01*
X2165976Y109530D01*
X2162891Y102081D01*
X2161838Y94087D01*
Y42906D01*
X2162891Y34912D01*
X2165976Y27462D01*
X2168590Y24056D01*
X2164779Y16056D01*
X16056D01*
Y1062863D01*
X58836D01*
X64632Y1057542D01*
Y1008109D01*
X129813D01*
Y1055765D01*
X147309D01*
Y1008109D01*
X212490D01*
Y1008109D01*
X219581Y1011046D01*
X238667Y991961D01*
X242166Y987201D01*
X238702Y981005D01*
X220490Y962793D01*
X212490Y963373D01*
Y974865D01*
X147309D01*
Y925432D01*
X148987D01*
X155183Y921077D01*
Y855897D01*
X204616D01*
Y894219D01*
X206454D01*
X211136Y895150D01*
X215105Y897802D01*
X262358Y945055D01*
X287144D01*
Y924700D01*
X339309D01*
Y914407D01*
X323297D01*
X318615Y913476D01*
X314645Y910824D01*
X228142Y824321D01*
X225490Y820351D01*
X224559Y815669D01*
Y809460D01*
X204203D01*
Y760027D01*
X269384D01*
Y809460D01*
X259202D01*
X255888Y817460D01*
X328365Y889937D01*
X339309D01*
Y872534D01*
X348833D01*
X352147Y864534D01*
X311933Y824321D01*
X309281Y820351D01*
X308350Y815669D01*
Y809460D01*
X282995D01*
Y760027D01*
X299490D01*
X304835Y752027D01*
X304727Y751766D01*
Y745457D01*
X307141Y739629D01*
X311602Y735168D01*
X317431Y732754D01*
X323739D01*
X329568Y735168D01*
X334029Y739629D01*
X336443Y745457D01*
Y751766D01*
X336335Y752027D01*
X341680Y760027D01*
X348175D01*
Y809460D01*
X342993D01*
X339679Y817460D01*
X371959Y849740D01*
X379350Y846678D01*
Y809460D01*
X358995D01*
Y760027D01*
X375560D01*
X378141Y752388D01*
X375727Y746560D01*
Y740251D01*
X378141Y734422D01*
X382602Y729961D01*
X388431Y727547D01*
X394739D01*
X400568Y729961D01*
X405029Y734422D01*
X407443Y740251D01*
Y746560D01*
X405029Y752388D01*
X407610Y760027D01*
X424175D01*
X424175Y760027D01*
X429365D01*
Y760027D01*
X432175Y760027D01*
X445930D01*
X448511Y752388D01*
X446097Y746560D01*
Y740251D01*
X448511Y734422D01*
X452972Y729961D01*
X458801Y727547D01*
X465110D01*
X470938Y729961D01*
X475399Y734422D01*
X477813Y740251D01*
Y746560D01*
X475399Y752388D01*
X477980Y760027D01*
X494546D01*
X494546Y806103D01*
X498972Y808434D01*
X506324Y803495D01*
Y760008D01*
X571505D01*
Y799013D01*
X579475Y805291D01*
X581410Y804815D01*
Y760027D01*
X646591D01*
Y802693D01*
X647896Y804214D01*
X654591Y808261D01*
X656042Y807972D01*
X669601D01*
X671017Y806556D01*
X676846Y804142D01*
X683154D01*
X688983Y806556D01*
X693444Y811017D01*
X695858Y816846D01*
Y823154D01*
X693444Y828983D01*
X688983Y833444D01*
X683154Y835858D01*
X676846D01*
X671017Y833444D01*
X667518Y829945D01*
X660592D01*
X620287Y870250D01*
X616723Y872631D01*
X612616Y873448D01*
Y899574D01*
X612617D01*
Y904897D01*
X612616D01*
Y970078D01*
X600896D01*
Y983755D01*
X612616D01*
Y1048936D01*
X587576D01*
X584262Y1056936D01*
X586344Y1059017D01*
X588758Y1064846D01*
Y1071155D01*
X589899Y1072863D01*
X822078D01*
X823923Y1070869D01*
X826944Y1065455D01*
X824617Y1057542D01*
X806379D01*
Y1008109D01*
X871559D01*
Y1055765D01*
X886034D01*
Y1008109D01*
X951215D01*
Y1020591D01*
X962877D01*
X987171Y996297D01*
X983271Y988884D01*
X980232Y988279D01*
X976262Y985627D01*
X959215Y968580D01*
X951215Y971893D01*
Y974865D01*
X886034D01*
Y925432D01*
X887712D01*
X893908Y921077D01*
Y855897D01*
X943341D01*
Y893248D01*
X945483D01*
X950165Y894179D01*
X954135Y896832D01*
X1002358Y945055D01*
X1025869D01*
Y924700D01*
X1078034D01*
Y914275D01*
X1061370D01*
X1056688Y913343D01*
X1052719Y910691D01*
X966348Y824321D01*
X963696Y820351D01*
X962765Y815669D01*
Y809067D01*
X942409D01*
Y759634D01*
X1007591D01*
Y809067D01*
X997015D01*
X993701Y817067D01*
X1066438Y889805D01*
X1078034D01*
Y872534D01*
X1085266D01*
X1088327Y865143D01*
X1043438Y820254D01*
X1040786Y816285D01*
X1039854Y811602D01*
Y809460D01*
X1018980D01*
Y760027D01*
X1035544D01*
X1038126Y752388D01*
X1035711Y746560D01*
Y740251D01*
X1038126Y734422D01*
X1042586Y729961D01*
X1048415Y727547D01*
X1054724D01*
X1060553Y729961D01*
X1065013Y734422D01*
X1067428Y740251D01*
Y746560D01*
X1065013Y752388D01*
X1067595Y760027D01*
X1084160D01*
Y809460D01*
X1077703D01*
X1074641Y816851D01*
X1105374Y847584D01*
X1112765Y844522D01*
Y809460D01*
X1092409D01*
Y760027D01*
X1108975D01*
X1111556Y752388D01*
X1109142Y746560D01*
Y740251D01*
X1111556Y734422D01*
X1116017Y729961D01*
X1121846Y727547D01*
X1128154D01*
X1133983Y729961D01*
X1138444Y734422D01*
X1140858Y740251D01*
Y746560D01*
X1138444Y752388D01*
X1141025Y760027D01*
X1157591D01*
Y809460D01*
X1137235D01*
Y843233D01*
X1145235Y846547D01*
X1174931Y816851D01*
X1171869Y809460D01*
X1168090D01*
Y760027D01*
X1184655D01*
X1187236Y752388D01*
X1184822Y746560D01*
Y740251D01*
X1187236Y734422D01*
X1191697Y729961D01*
X1197525Y727547D01*
X1203834D01*
X1209663Y729961D01*
X1214124Y734422D01*
X1216538Y740251D01*
Y746560D01*
X1214124Y752388D01*
X1216705Y760027D01*
X1233271D01*
X1233271Y806332D01*
X1237927Y808788D01*
X1245149Y803903D01*
Y760009D01*
X1252913D01*
X1256606Y752388D01*
X1254192Y746560D01*
Y740251D01*
X1256606Y734422D01*
X1261067Y729961D01*
X1266896Y727547D01*
X1273204D01*
X1279033Y729961D01*
X1283494Y734422D01*
X1285908Y740251D01*
Y746560D01*
X1283494Y752388D01*
X1287187Y760009D01*
X1310330D01*
Y794618D01*
X1318279Y800797D01*
X1320373Y800247D01*
Y759634D01*
X1335845D01*
X1339519Y751995D01*
X1337105Y746167D01*
Y739858D01*
X1339519Y734029D01*
X1335845Y726390D01*
X1320373D01*
Y676957D01*
X1385554D01*
Y726390D01*
X1370082D01*
X1366407Y734029D01*
X1368821Y739858D01*
Y746167D01*
X1366407Y751995D01*
X1370082Y759634D01*
X1385554D01*
Y794535D01*
X1393554Y799881D01*
X1393722Y799811D01*
X1400031D01*
X1405860Y802225D01*
X1410320Y806686D01*
X1412735Y812515D01*
Y818824D01*
X1410320Y824652D01*
X1405860Y829113D01*
X1400031Y831527D01*
X1393722D01*
X1387893Y829113D01*
X1386685Y827904D01*
X1356589D01*
X1351341Y833731D01*
Y849203D01*
X1358980Y852877D01*
X1364809Y850463D01*
X1371118D01*
X1376946Y852877D01*
X1381407Y857338D01*
X1383821Y863167D01*
Y869476D01*
X1381407Y875304D01*
X1376946Y879765D01*
X1371118Y882179D01*
X1364809D01*
X1358980Y879765D01*
X1351341Y883440D01*
Y898912D01*
X1351341D01*
Y905015D01*
X1351341D01*
Y970196D01*
X1338860D01*
Y983755D01*
X1351341D01*
Y1048936D01*
X1306995D01*
X1303999Y1056167D01*
X1308927Y1062142D01*
X1309155D01*
X1314984Y1064557D01*
X1319444Y1069017D01*
X1321100Y1073014D01*
X1321859Y1072863D01*
X1552901D01*
X1557299Y1066238D01*
X1557474Y1065249D01*
X1557151Y1062897D01*
X1556765Y1060957D01*
Y1060085D01*
X1556416Y1057542D01*
X1536409D01*
Y1008109D01*
X1601591D01*
Y1054580D01*
X1613890D01*
Y1008109D01*
X1679071D01*
Y1020591D01*
X1690734D01*
X1715027Y996297D01*
X1711127Y988884D01*
X1708088Y988279D01*
X1704119Y985627D01*
X1687071Y968580D01*
X1679071Y971893D01*
Y974865D01*
X1613890D01*
Y925432D01*
X1615568D01*
X1621764Y921077D01*
Y855897D01*
X1671197D01*
Y895009D01*
X1672244D01*
X1676926Y895940D01*
X1680896Y898593D01*
X1727358Y945055D01*
X1753725D01*
Y924700D01*
X1805890D01*
Y913502D01*
X1761374D01*
X1756692Y912570D01*
X1752723Y909918D01*
X1664935Y822131D01*
X1662283Y818161D01*
X1661352Y813479D01*
Y809067D01*
X1640996D01*
Y759634D01*
X1706177D01*
Y809067D01*
X1696931D01*
X1693869Y816458D01*
X1766442Y889032D01*
X1805890D01*
Y872534D01*
X1813800D01*
X1817114Y864534D01*
X1794617Y842038D01*
X1758146D01*
X1753464Y841106D01*
X1749494Y838454D01*
X1738199Y827159D01*
X1735547Y823190D01*
X1734616Y818508D01*
Y809067D01*
X1714261D01*
Y759634D01*
X1730826D01*
X1733407Y751995D01*
X1730993Y746167D01*
Y739858D01*
X1733407Y734029D01*
X1737868Y729568D01*
X1743697Y727154D01*
X1750005D01*
X1755834Y729568D01*
X1760295Y734029D01*
X1762709Y739858D01*
Y746167D01*
X1760295Y751995D01*
X1762876Y759634D01*
X1779441D01*
Y809067D01*
X1775107D01*
X1770831Y817067D01*
X1771166Y817567D01*
X1799685D01*
X1804367Y818499D01*
X1808336Y821151D01*
X1809097Y821912D01*
X1815311Y816812D01*
X1814862Y816140D01*
X1813931Y811458D01*
Y809067D01*
X1793575D01*
Y759634D01*
X1810141D01*
X1812722Y751995D01*
X1810308Y746167D01*
Y739858D01*
X1812722Y734029D01*
X1817183Y729568D01*
X1823011Y727154D01*
X1829320D01*
X1835149Y729568D01*
X1839610Y734029D01*
X1842024Y739858D01*
Y746167D01*
X1839610Y751995D01*
X1842191Y759634D01*
X1858756D01*
Y809067D01*
X1851531D01*
X1848469Y816458D01*
X1866817Y834807D01*
X1867769Y836231D01*
X1875613Y838077D01*
X1877446Y837868D01*
X1897765Y817549D01*
Y809067D01*
X1877409D01*
Y759634D01*
X1893975D01*
X1896556Y751995D01*
X1894142Y746167D01*
Y739858D01*
X1896556Y734029D01*
X1901017Y729568D01*
X1906846Y727154D01*
X1913154D01*
X1918983Y729568D01*
X1923444Y734029D01*
X1925858Y739858D01*
Y746167D01*
X1923444Y751995D01*
X1926025Y759634D01*
X1942591D01*
X1942591Y808424D01*
X1948463Y813124D01*
X1949923Y812247D01*
X1954945Y806516D01*
X1954946D01*
Y760027D01*
X2020127D01*
Y807620D01*
X2026212Y814083D01*
X2027399Y813847D01*
X2028133D01*
X2034316Y809460D01*
Y760027D01*
X2099497D01*
Y809460D01*
X2082931D01*
X2080350Y817100D01*
X2082764Y822928D01*
Y829237D01*
X2080350Y835065D01*
X2079138Y836277D01*
Y852688D01*
X2086778Y855269D01*
X2092606Y852854D01*
X2098915D01*
X2104743Y855269D01*
X2109204Y859729D01*
X2111619Y865558D01*
Y871867D01*
X2109204Y877695D01*
X2104743Y882156D01*
X2098915Y884571D01*
X2092606D01*
X2086778Y882156D01*
X2079138Y884737D01*
Y901303D01*
X2035668D01*
X2031083Y908166D01*
X2033355Y916166D01*
X2079138D01*
Y981347D01*
X2066657D01*
Y998237D01*
X2079138D01*
Y1063418D01*
X2057854D01*
X2053059Y1071418D01*
X2053831Y1072863D01*
X2185000D01*
X2187731Y1073406D01*
X2190047Y1074953D01*
X2191594Y1077269D01*
X2192137Y1080000D01*
Y1180000D01*
X2191594Y1182731D01*
X2190047Y1185047D01*
X2187731Y1186594D01*
X2185000Y1187137D01*
X1960000D01*
X1957269Y1186594D01*
X1956810Y1186287D01*
X1948810Y1189157D01*
Y1225523D01*
X1991502Y1268215D01*
X1994155Y1272184D01*
X1995086Y1276867D01*
Y1302409D01*
X2007567D01*
Y1360960D01*
X2007752Y1360997D01*
X2010068Y1362544D01*
X2059528Y1412003D01*
X2061075Y1414319D01*
X2061618Y1417050D01*
Y1770000D01*
X2061075Y1772731D01*
X2059528Y1775047D01*
X2057212Y1776594D01*
X2054481Y1777137D01*
X1905000D01*
X1902269Y1776594D01*
X1901431Y1776034D01*
X1900594Y1776594D01*
X1897863Y1777137D01*
X1750000D01*
X1747269Y1776594D01*
X1744953Y1775047D01*
X1743406Y1772731D01*
X1742863Y1770000D01*
X1742863Y1367591D01*
X1737134D01*
Y1302409D01*
X1786567D01*
Y1316545D01*
X1794567Y1319802D01*
X1798616Y1316016D01*
Y1187137D01*
X1220954D01*
Y1234542D01*
X1263646Y1277234D01*
X1266299Y1281204D01*
X1267230Y1285886D01*
Y1302409D01*
X1279711D01*
Y1351706D01*
X1282455Y1359317D01*
X1285186Y1359860D01*
X1287501Y1361408D01*
X1410047Y1483953D01*
X1411594Y1486268D01*
X1412137Y1488999D01*
X1412137Y1765000D01*
X1411594Y1767731D01*
X1410047Y1770047D01*
X1407731Y1771594D01*
X1405000Y1772137D01*
X1255000D01*
X1252269Y1771594D01*
X1251431Y1771034D01*
X1250594Y1771594D01*
X1247863Y1772137D01*
X1045000D01*
X1042269Y1771594D01*
X1039953Y1770047D01*
X1038406Y1767731D01*
X1037863Y1765000D01*
Y1743412D01*
X1032483Y1739284D01*
X1020273D01*
X1008480Y1736123D01*
X997906Y1730019D01*
X989273Y1721385D01*
X983168Y1710812D01*
X980008Y1699018D01*
Y1686809D01*
X983168Y1675015D01*
X989273Y1664441D01*
X997906Y1655808D01*
X1008480Y1649703D01*
X1020273Y1646543D01*
X1032483D01*
X1037863Y1642415D01*
Y1367591D01*
X1009278D01*
Y1302409D01*
X1058711D01*
Y1314576D01*
X1066711Y1318033D01*
X1070760Y1314735D01*
Y1187137D01*
X484603D01*
Y1233445D01*
X524922Y1273764D01*
X527574Y1277733D01*
X528505Y1282415D01*
Y1302409D01*
X540986D01*
Y1331008D01*
X548378Y1336241D01*
X551109Y1336784D01*
X553424Y1338331D01*
X755047Y1539953D01*
X756594Y1542269D01*
X757137Y1545000D01*
Y1755000D01*
X756594Y1757731D01*
X755047Y1760047D01*
X752731Y1761594D01*
X750000Y1762137D01*
X605000D01*
X602269Y1761594D01*
X601432Y1761034D01*
X600594Y1761594D01*
X597863Y1762137D01*
X305000D01*
X302269Y1761594D01*
X299953Y1760047D01*
X298406Y1757731D01*
X297863Y1755000D01*
X297863Y1367591D01*
X270553D01*
Y1302409D01*
X319986D01*
Y1310083D01*
X327957Y1313682D01*
X332035Y1310521D01*
Y1182137D01*
X16056D01*
Y1952448D01*
X2457863D01*
Y1880000D01*
X2458406Y1877269D01*
X2459953Y1874953D01*
X2462269Y1873406D01*
X2465000Y1872863D01*
X2665000D01*
X2667731Y1873406D01*
X2670047Y1874953D01*
X2671594Y1877269D01*
X2672137Y1880000D01*
Y1952448D01*
X3920952D01*
Y882198D01*
D02*
G37*
G36*
X1405000Y1488999D02*
X1282455Y1366454D01*
X1279711Y1367591D01*
Y1367591D01*
X1230278D01*
Y1302409D01*
X1242760D01*
Y1290954D01*
X1200067Y1248262D01*
X1197415Y1244292D01*
X1196484Y1239610D01*
Y1167240D01*
X1180713Y1151470D01*
X1178061Y1147500D01*
X1177130Y1142818D01*
Y1120786D01*
X1176459D01*
Y1091149D01*
X1162900D01*
Y1120786D01*
X1151841D01*
Y1481841D01*
X1255000Y1585000D01*
X1255000Y1765000D01*
X1405000D01*
X1405000Y1488999D01*
D02*
G37*
G36*
X750000Y1545000D02*
X548378Y1343378D01*
X540986Y1346439D01*
Y1367591D01*
X491553D01*
Y1302409D01*
X504035D01*
Y1287483D01*
X463717Y1247165D01*
X461065Y1243196D01*
X460133Y1238513D01*
Y1164791D01*
X441989Y1146647D01*
X439336Y1142677D01*
X438405Y1137995D01*
Y1120786D01*
X437735D01*
Y1091149D01*
X424175D01*
Y1120786D01*
X415436D01*
Y1415436D01*
X605000Y1605000D01*
Y1755000D01*
X750000D01*
Y1545000D01*
D02*
G37*
G36*
X3286026Y1144765D02*
X3282836Y1143444D01*
X3278376Y1138983D01*
X3275961Y1133154D01*
Y1126846D01*
X3278376Y1121017D01*
X3279584Y1119808D01*
Y812303D01*
X3278532D01*
X3274073Y811416D01*
X3270292Y808890D01*
X3263347D01*
X3259566Y811416D01*
X3255107Y812303D01*
X3228532D01*
X3224073Y811416D01*
X3220292Y808890D01*
X3213347D01*
X3209566Y811416D01*
X3205107Y812303D01*
X3178532D01*
X3174073Y811416D01*
X3170292Y808890D01*
X3163347D01*
X3159566Y811416D01*
X3155107Y812303D01*
X3128532D01*
X3124073Y811416D01*
X3120292Y808890D01*
X3113347D01*
X3109566Y811416D01*
X3105107Y812303D01*
X3104055D01*
Y911751D01*
X3131445Y939142D01*
X3133154D01*
X3138983Y941556D01*
X3143444Y946017D01*
X3145858Y951846D01*
Y958154D01*
X3143444Y963983D01*
X3138983Y968444D01*
X3133154Y970858D01*
X3126846D01*
X3121017Y968444D01*
X3116556Y963983D01*
X3114142Y958154D01*
Y956445D01*
X3083168Y925471D01*
X3080516Y921502D01*
X3079584Y916819D01*
Y812303D01*
X3078532D01*
X3074073Y811416D01*
X3070292Y808890D01*
X3063347D01*
X3059566Y811416D01*
X3055107Y812303D01*
X3054055D01*
Y866819D01*
X3053123Y871502D01*
X3050471Y875471D01*
X2994760Y931182D01*
X2998074Y939182D01*
X3064331D01*
Y959537D01*
X3071772D01*
X3076454Y960468D01*
X3080424Y963121D01*
X3119879Y1002576D01*
X3209808D01*
X3211017Y1001368D01*
X3216846Y998953D01*
X3223154D01*
X3228983Y1001368D01*
X3233444Y1005828D01*
X3235858Y1011657D01*
Y1017966D01*
X3233444Y1023794D01*
X3228983Y1028255D01*
X3223154Y1030670D01*
X3216846D01*
X3211017Y1028255D01*
X3209808Y1027047D01*
X3114811D01*
X3110129Y1026115D01*
X3106160Y1023463D01*
X3072331Y989634D01*
X3064331Y992948D01*
Y1004363D01*
X2989308D01*
Y947948D01*
X2981308Y944634D01*
X2974059Y951883D01*
Y976581D01*
X2975267Y977789D01*
X2977682Y983618D01*
Y989927D01*
X2975267Y995755D01*
X2970807Y1000216D01*
X2964978Y1002630D01*
X2958669D01*
X2952840Y1000216D01*
X2950235Y997611D01*
X2942235Y1000235D01*
Y1112046D01*
X2966891Y1136703D01*
X2989308D01*
Y1116347D01*
X3064331D01*
Y1136703D01*
X3191819D01*
X3196502Y1137634D01*
X3200471Y1140286D01*
X3212950Y1152765D01*
X3284434D01*
X3286026Y1144765D01*
D02*
G37*
G36*
X3392289Y1084592D02*
X3331160Y1023463D01*
X3328508Y1019494D01*
X3327576Y1014812D01*
Y1004363D01*
X3304055D01*
Y1116347D01*
X3377323D01*
Y1116347D01*
X3379808D01*
Y1116347D01*
X3392289D01*
Y1084592D01*
D02*
G37*
G36*
X2054481Y1417050D02*
X2005021Y1367591D01*
X1958134D01*
Y1302409D01*
X1970616D01*
Y1281935D01*
X1927924Y1239242D01*
X1925271Y1235273D01*
X1924340Y1230591D01*
Y1167240D01*
X1908570Y1151470D01*
X1905917Y1147500D01*
X1904986Y1142818D01*
Y1120786D01*
X1904315D01*
Y1091149D01*
X1890756D01*
Y1120786D01*
X1880695D01*
Y1430695D01*
X1905000Y1455000D01*
Y1770000D01*
X2054481D01*
Y1417050D01*
D02*
G37*
G36*
X1897863Y1457956D02*
X1875648Y1435742D01*
X1874101Y1433426D01*
X1873558Y1430695D01*
Y1120786D01*
X1864945D01*
Y1091149D01*
X1851386D01*
Y1120786D01*
X1850716D01*
Y1132093D01*
X1849785Y1136776D01*
X1847132Y1140745D01*
X1823086Y1164791D01*
Y1323256D01*
X1822155Y1327938D01*
X1819502Y1331908D01*
X1807758Y1343651D01*
X1803789Y1346304D01*
X1799107Y1347235D01*
X1786567D01*
Y1367591D01*
X1750000D01*
X1750000Y1770000D01*
X1897863D01*
Y1457956D01*
D02*
G37*
G36*
X1247863Y1587956D02*
X1146794Y1486888D01*
X1145247Y1484572D01*
X1144704Y1481841D01*
Y1120786D01*
X1137089D01*
Y1091149D01*
X1123530D01*
Y1120786D01*
X1122860D01*
Y1132093D01*
X1121928Y1136776D01*
X1119276Y1140745D01*
X1095230Y1164791D01*
Y1322005D01*
X1094299Y1326688D01*
X1091646Y1330657D01*
X1078651Y1343651D01*
X1074682Y1346304D01*
X1070000Y1347235D01*
X1058711D01*
Y1367591D01*
X1045000D01*
Y1650121D01*
X1054850Y1655808D01*
X1063483Y1664441D01*
X1069588Y1675015D01*
X1072748Y1686809D01*
Y1699018D01*
X1069588Y1710812D01*
X1063483Y1721385D01*
X1054850Y1730019D01*
X1045000Y1735706D01*
Y1765000D01*
X1247863D01*
X1247863Y1587956D01*
D02*
G37*
G36*
X597863Y1607956D02*
X410389Y1420483D01*
X408842Y1418168D01*
X408299Y1415436D01*
Y1120786D01*
X398365D01*
Y1091149D01*
X384805D01*
Y1120786D01*
X384135D01*
Y1150397D01*
X383204Y1155079D01*
X380551Y1159048D01*
X356505Y1183094D01*
Y1317945D01*
X355574Y1322627D01*
X354512Y1324217D01*
X352922Y1326596D01*
X335866Y1343651D01*
X331897Y1346304D01*
X327215Y1347235D01*
X319986D01*
Y1367591D01*
X305000D01*
X305000Y1755000D01*
X597863D01*
Y1607956D01*
D02*
G37*
G36*
X2185000Y1080000D02*
X2044804D01*
X2044263Y1081306D01*
X2039802Y1085767D01*
X2033974Y1088182D01*
X2027665D01*
X2021836Y1085767D01*
X2017376Y1081306D01*
X2014961Y1075478D01*
Y1075210D01*
X2008721Y1068970D01*
X1972339D01*
X1970584Y1068621D01*
X1942701D01*
X1942701Y1068621D01*
Y1068621D01*
X1935000Y1069342D01*
Y1125000D01*
X1936906D01*
Y1145200D01*
X1945227Y1153521D01*
X1947879Y1157490D01*
X1948810Y1162172D01*
Y1168810D01*
X1960000Y1180000D01*
X2185000D01*
Y1080000D01*
D02*
G37*
G36*
X332966Y1173344D02*
X335618Y1169375D01*
X359665Y1145329D01*
Y1120786D01*
X358994D01*
Y1070000D01*
X274094D01*
X272444Y1073984D01*
X267983Y1078444D01*
X262155Y1080859D01*
X255846D01*
X250018Y1078444D01*
X245557Y1073984D01*
X243907Y1070000D01*
X234603D01*
X227951Y1076652D01*
X223982Y1079304D01*
X219300Y1080236D01*
X103997D01*
X99315Y1079304D01*
X95346Y1076652D01*
X88694Y1070000D01*
X16056D01*
Y1175000D01*
X332637D01*
X332966Y1173344D01*
D02*
G37*
G36*
X1798616Y1159723D02*
X1799547Y1155041D01*
X1802199Y1151072D01*
X1818796Y1134476D01*
Y1073944D01*
X1813000Y1068621D01*
X1785118D01*
X1783363Y1068970D01*
X1749626D01*
X1747709Y1070887D01*
Y1071155D01*
X1745295Y1076984D01*
X1740834Y1081444D01*
X1735005Y1083859D01*
X1728697D01*
X1722868Y1081444D01*
X1721424Y1080000D01*
X1321859D01*
Y1081155D01*
X1319444Y1086984D01*
X1314984Y1091444D01*
X1309155Y1093859D01*
X1302846D01*
X1297017Y1091444D01*
X1292557Y1086984D01*
X1290142Y1081155D01*
Y1080887D01*
X1278225Y1068970D01*
X1244483D01*
X1242727Y1068621D01*
X1214845D01*
Y1068001D01*
X1205000D01*
Y1085000D01*
X1202270D01*
Y1120786D01*
X1201600D01*
Y1137750D01*
X1217370Y1153521D01*
X1220023Y1157490D01*
X1220954Y1162172D01*
Y1180000D01*
X1798616D01*
Y1159723D01*
D02*
G37*
G36*
X1070760D02*
X1071691Y1155041D01*
X1074343Y1151072D01*
X1090940Y1134476D01*
Y1073944D01*
X1085144Y1068621D01*
X1057262D01*
X1055506Y1068970D01*
X1021770D01*
X1019853Y1070887D01*
Y1071155D01*
X1017439Y1076984D01*
X1012978Y1081444D01*
X1007149Y1083859D01*
X1000840D01*
X995012Y1081444D01*
X993567Y1080000D01*
X974209D01*
X973025Y1080236D01*
X844827D01*
X843642Y1080000D01*
X583327D01*
X581883Y1081444D01*
X576054Y1083859D01*
X569745D01*
X563917Y1081444D01*
X559456Y1076984D01*
X557042Y1071155D01*
Y1070887D01*
X556154Y1070000D01*
X470000D01*
Y1119660D01*
X470325Y1119902D01*
X470325D01*
Y1140377D01*
X481020Y1151072D01*
X483672Y1155041D01*
X484603Y1159723D01*
Y1180000D01*
X1070760D01*
Y1159723D01*
D02*
G37*
G36*
X1942701Y1061484D02*
Y1042810D01*
Y1003440D01*
X2001977D01*
X2001977Y1003440D01*
X2004283Y1003183D01*
X2007910Y994730D01*
X2007750Y994512D01*
X2001977Y989881D01*
X2001977Y989881D01*
X2001977Y989881D01*
X1942701D01*
Y964070D01*
Y931810D01*
X1813001D01*
Y964070D01*
Y1009566D01*
X1753725D01*
Y1008895D01*
X1737035D01*
X1729656Y1016274D01*
X1732269Y1022425D01*
X1733449Y1023795D01*
X1753725D01*
Y1023125D01*
X1813001D01*
Y1061484D01*
X1813136Y1061511D01*
X1942566D01*
X1942701Y1061484D01*
D02*
G37*
G36*
X1202269Y1061407D02*
X1205000Y1060863D01*
X1214845D01*
Y1042810D01*
Y1003440D01*
X1274121D01*
Y1003440D01*
X1281044Y1000840D01*
X1281896Y1000487D01*
X1288204D01*
X1294033Y1002901D01*
X1301908Y999463D01*
Y989210D01*
X1274121D01*
Y989881D01*
X1214845D01*
Y964070D01*
Y931810D01*
X1085144D01*
Y964070D01*
Y1009566D01*
X1025869D01*
Y1008895D01*
X1009179D01*
X1001800Y1016274D01*
X1004413Y1022425D01*
X1005592Y1023795D01*
X1025869D01*
Y1023125D01*
X1085144D01*
Y1061484D01*
X1085279Y1061511D01*
X1202113D01*
X1202269Y1061407D01*
D02*
G37*
G36*
X476120Y1042810D02*
Y1003440D01*
X535396D01*
X535396Y1003440D01*
X542319Y1000840D01*
X543171Y1000487D01*
X549480D01*
X555308Y1002901D01*
X563183Y999463D01*
Y989210D01*
X535396D01*
Y989881D01*
X476120D01*
Y964070D01*
Y931810D01*
X346420D01*
Y964070D01*
Y1009566D01*
X287144D01*
Y1008895D01*
X256338D01*
X249179Y1016054D01*
X250311Y1020245D01*
X252752Y1023795D01*
X287144D01*
Y1023125D01*
X346420D01*
Y1061511D01*
X476120D01*
Y1042810D01*
D02*
G37*
G36*
X3830000Y885000D02*
X3660000D01*
X3620000Y845000D01*
Y808453D01*
X3617766Y805110D01*
X3616879Y800650D01*
Y750453D01*
X3616507Y750000D01*
X3570000D01*
Y790962D01*
X3566760Y794202D01*
Y800650D01*
X3565873Y805110D01*
X3563347Y808890D01*
X3559566Y811416D01*
X3555107Y812303D01*
X3548658D01*
X3544050Y816911D01*
X3544032Y817005D01*
X3541379Y820974D01*
X3535521Y826832D01*
X3531552Y829484D01*
X3531458Y829503D01*
X3530961Y830000D01*
X3528960D01*
X3526870Y830416D01*
X3476707D01*
X3454180Y852942D01*
X3452591Y860284D01*
X3452591Y860284D01*
X3452590Y860284D01*
Y909716D01*
X3452577D01*
Y942961D01*
X3452590D01*
Y962992D01*
X3630623Y962992D01*
X3650623Y982992D01*
X3830000D01*
Y885000D01*
D02*
G37*
%LPC*%
G36*
X3568036Y1925858D02*
X3561727D01*
X3555899Y1923444D01*
X3551438Y1918983D01*
X3549024Y1913154D01*
Y1906846D01*
X3551438Y1901017D01*
X3551865Y1900591D01*
X3550758Y1892591D01*
X3540165D01*
Y1827409D01*
X3589598D01*
Y1892591D01*
X3579006D01*
X3577899Y1900591D01*
X3578326Y1901017D01*
X3580740Y1906846D01*
Y1913154D01*
X3578326Y1918983D01*
X3573865Y1923444D01*
X3568036Y1925858D01*
D02*
G37*
G36*
X3395586Y1902433D02*
X3384414D01*
X3373622Y1899541D01*
X3363945Y1893955D01*
X3356045Y1886054D01*
X3350459Y1876379D01*
X3347567Y1865586D01*
Y1854414D01*
X3350459Y1843621D01*
X3356045Y1833946D01*
X3363945Y1826045D01*
X3373622Y1820459D01*
X3384414Y1817567D01*
X3395586D01*
X3406378Y1820459D01*
X3416055Y1826045D01*
X3423955Y1833946D01*
X3429541Y1843621D01*
X3430651Y1847765D01*
X3457488D01*
Y1827409D01*
X3506921D01*
Y1892591D01*
X3457488D01*
Y1872235D01*
X3430651D01*
X3429541Y1876379D01*
X3423955Y1886054D01*
X3416055Y1893955D01*
X3406378Y1899541D01*
X3395586Y1902433D01*
D02*
G37*
G36*
X3295586D02*
X3284414D01*
X3273622Y1899541D01*
X3263945Y1893955D01*
X3256045Y1886054D01*
X3250459Y1876379D01*
X3247567Y1865586D01*
Y1854414D01*
X3250459Y1843621D01*
X3256045Y1833946D01*
X3263945Y1826045D01*
X3273622Y1820459D01*
X3284414Y1817567D01*
X3295586D01*
X3306378Y1820459D01*
X3316055Y1826045D01*
X3323955Y1833946D01*
X3329541Y1843621D01*
X3332433Y1854414D01*
Y1865586D01*
X3329541Y1876379D01*
X3323955Y1886054D01*
X3316055Y1893955D01*
X3306378Y1899541D01*
X3295586Y1902433D01*
D02*
G37*
G36*
X3232433D02*
X3147567D01*
Y1817567D01*
X3232433D01*
Y1902433D01*
D02*
G37*
G36*
X2860586D02*
X2849414D01*
X2838622Y1899541D01*
X2828945Y1893955D01*
X2821045Y1886054D01*
X2815459Y1876379D01*
X2812567Y1865586D01*
Y1854414D01*
X2815459Y1843621D01*
X2821045Y1833946D01*
X2828945Y1826045D01*
X2838622Y1820459D01*
X2849414Y1817567D01*
X2860586D01*
X2871378Y1820459D01*
X2881055Y1826045D01*
X2888955Y1833946D01*
X2894541Y1843621D01*
X2897433Y1854414D01*
Y1865586D01*
X2894541Y1876379D01*
X2888955Y1886054D01*
X2881055Y1893955D01*
X2871378Y1899541D01*
X2860586Y1902433D01*
D02*
G37*
G36*
X2797433D02*
X2712567D01*
Y1817567D01*
X2797433D01*
Y1902433D01*
D02*
G37*
G36*
X3252924Y1790005D02*
X3252044Y1789124D01*
X3245800Y1778309D01*
X3244141Y1772119D01*
X3235859D01*
X3234200Y1778309D01*
X3227956Y1789124D01*
X3227076Y1790005D01*
X3197071Y1760000D01*
X3227076Y1729995D01*
X3227956Y1730876D01*
X3234200Y1741691D01*
X3235859Y1747881D01*
X3244141D01*
X3245800Y1741691D01*
X3252044Y1730876D01*
X3252924Y1729995D01*
X3282929Y1760000D01*
X3252924Y1790005D01*
D02*
G37*
G36*
X3296245Y1807433D02*
X3283755D01*
X3271691Y1804200D01*
X3260876Y1797956D01*
X3259995Y1797076D01*
X3290000Y1767071D01*
X3320005Y1797076D01*
X3319124Y1797956D01*
X3308309Y1804200D01*
X3296245Y1807433D01*
D02*
G37*
G36*
X3196245D02*
X3183755D01*
X3171691Y1804200D01*
X3160876Y1797956D01*
X3159995Y1797076D01*
X3190000Y1767071D01*
X3220005Y1797076D01*
X3219124Y1797956D01*
X3208309Y1804200D01*
X3196245Y1807433D01*
D02*
G37*
G36*
X2761245D02*
X2748755D01*
X2736691Y1804200D01*
X2725876Y1797956D01*
X2724995Y1797076D01*
X2755000Y1767071D01*
X2785005Y1797076D01*
X2784124Y1797956D01*
X2773309Y1804200D01*
X2761245Y1807433D01*
D02*
G37*
G36*
X3327076Y1790005D02*
X3297071Y1760000D01*
X3327076Y1729995D01*
X3327956Y1730876D01*
X3334200Y1741691D01*
X3337433Y1753755D01*
Y1766245D01*
X3334200Y1778309D01*
X3327956Y1789124D01*
X3327076Y1790005D01*
D02*
G37*
G36*
X2792076D02*
X2762071Y1760000D01*
X2792076Y1729995D01*
X2792956Y1730876D01*
X2799200Y1741691D01*
X2802433Y1753755D01*
Y1766245D01*
X2799200Y1778309D01*
X2792956Y1789124D01*
X2792076Y1790005D01*
D02*
G37*
G36*
X3152924Y1790005D02*
X3152044Y1789124D01*
X3145800Y1778309D01*
X3142567Y1766245D01*
Y1753755D01*
X3145800Y1741691D01*
X3152044Y1730876D01*
X3152924Y1729995D01*
X3182929Y1760000D01*
X3152924Y1790005D01*
D02*
G37*
G36*
X2717924D02*
X2717044Y1789124D01*
X2710800Y1778309D01*
X2707567Y1766245D01*
Y1753755D01*
X2710800Y1741691D01*
X2717044Y1730876D01*
X2717924Y1729995D01*
X2747929Y1760000D01*
X2717924Y1790005D01*
D02*
G37*
G36*
X3395586Y1802433D02*
X3384414D01*
X3373622Y1799541D01*
X3363945Y1793955D01*
X3356045Y1786054D01*
X3350459Y1776379D01*
X3347567Y1765586D01*
Y1754414D01*
X3350459Y1743621D01*
X3356045Y1733946D01*
X3363945Y1726045D01*
X3373622Y1720459D01*
X3384414Y1717567D01*
X3395586D01*
X3406378Y1720459D01*
X3416055Y1726045D01*
X3423955Y1733946D01*
X3429541Y1743621D01*
X3430651Y1747765D01*
X3457488D01*
Y1727409D01*
X3506921D01*
Y1792591D01*
X3457488D01*
Y1772235D01*
X3430651D01*
X3429541Y1776379D01*
X3423955Y1786054D01*
X3416055Y1793955D01*
X3406378Y1799541D01*
X3395586Y1802433D01*
D02*
G37*
G36*
X2960586D02*
X2949414D01*
X2938622Y1799541D01*
X2928945Y1793955D01*
X2921045Y1786054D01*
X2915459Y1776379D01*
X2912567Y1765586D01*
Y1754414D01*
X2915459Y1743621D01*
X2921045Y1733946D01*
X2928945Y1726045D01*
X2938622Y1720459D01*
X2949414Y1717567D01*
X2960586D01*
X2971378Y1720459D01*
X2981055Y1726045D01*
X2988955Y1733946D01*
X2994541Y1743621D01*
X2997433Y1754414D01*
Y1765586D01*
X2994541Y1776379D01*
X2988955Y1786054D01*
X2981055Y1793955D01*
X2971378Y1799541D01*
X2960586Y1802433D01*
D02*
G37*
G36*
X2860586D02*
X2849414D01*
X2838622Y1799541D01*
X2828945Y1793955D01*
X2821045Y1786054D01*
X2815459Y1776379D01*
X2812567Y1765586D01*
Y1754414D01*
X2815459Y1743621D01*
X2821045Y1733946D01*
X2828945Y1726045D01*
X2838622Y1720459D01*
X2849414Y1717567D01*
X2860586D01*
X2871378Y1720459D01*
X2881055Y1726045D01*
X2888955Y1733946D01*
X2894541Y1743621D01*
X2897433Y1754414D01*
Y1765586D01*
X2894541Y1776379D01*
X2888955Y1786054D01*
X2881055Y1793955D01*
X2871378Y1799541D01*
X2860586Y1802433D01*
D02*
G37*
G36*
X3290000Y1752929D02*
X3259995Y1722924D01*
X3260876Y1722044D01*
X3271691Y1715800D01*
X3283755Y1712567D01*
X3296245D01*
X3308309Y1715800D01*
X3319124Y1722044D01*
X3320005Y1722924D01*
X3290000Y1752929D01*
D02*
G37*
G36*
X3190000D02*
X3159995Y1722924D01*
X3160876Y1722044D01*
X3171691Y1715800D01*
X3183755Y1712567D01*
X3196245D01*
X3208309Y1715800D01*
X3219124Y1722044D01*
X3220005Y1722924D01*
X3190000Y1752929D01*
D02*
G37*
G36*
X2755000D02*
X2724995Y1722924D01*
X2725876Y1722044D01*
X2736691Y1715800D01*
X2748755Y1712567D01*
X2761245D01*
X2773309Y1715800D01*
X2784124Y1722044D01*
X2785005Y1722924D01*
X2755000Y1752929D01*
D02*
G37*
G36*
X3589598Y1792591D02*
X3540165D01*
Y1727409D01*
X3544294D01*
X3549495Y1719409D01*
X3549024Y1718273D01*
Y1711964D01*
X3551438Y1706135D01*
X3555899Y1701674D01*
X3561727Y1699260D01*
X3568036D01*
X3573865Y1701674D01*
X3578326Y1706135D01*
X3580740Y1711964D01*
Y1718273D01*
X3580269Y1719409D01*
X3585470Y1727409D01*
X3589598D01*
Y1792591D01*
D02*
G37*
G36*
X2993154Y1685858D02*
X2986846D01*
X2981017Y1683444D01*
X2976556Y1678983D01*
X2974142Y1673154D01*
Y1666846D01*
X2976556Y1661017D01*
X2981017Y1656556D01*
X2986846Y1654142D01*
X2993154D01*
X2998983Y1656556D01*
X3003444Y1661017D01*
X3005858Y1666846D01*
Y1673154D01*
X3003444Y1678983D01*
X2998983Y1683444D01*
X2993154Y1685858D01*
D02*
G37*
G36*
X2372051Y1896764D02*
X2352358D01*
X2332908Y1893684D01*
X2314179Y1887598D01*
X2296633Y1878658D01*
X2280701Y1867083D01*
X2266776Y1853158D01*
X2255201Y1837226D01*
X2246260Y1819680D01*
X2240175Y1800951D01*
X2237095Y1781500D01*
Y1761808D01*
X2240175Y1742357D01*
X2246260Y1723628D01*
X2255201Y1706082D01*
X2266776Y1690150D01*
X2280701Y1676225D01*
X2296633Y1664650D01*
X2314179Y1655710D01*
X2332908Y1649624D01*
X2352358Y1646544D01*
X2372051D01*
X2391501Y1649624D01*
X2410230Y1655710D01*
X2427777Y1664650D01*
X2443709Y1676225D01*
X2457633Y1690150D01*
X2469209Y1706082D01*
X2478149Y1723628D01*
X2484234Y1742357D01*
X2487315Y1761808D01*
Y1781500D01*
X2484234Y1800951D01*
X2478149Y1819680D01*
X2469209Y1837226D01*
X2457633Y1853158D01*
X2443709Y1867083D01*
X2427777Y1878658D01*
X2410230Y1887598D01*
X2391501Y1893684D01*
X2372051Y1896764D01*
D02*
G37*
G36*
X167327D02*
X147634D01*
X128184Y1893684D01*
X109455Y1887598D01*
X91909Y1878658D01*
X75977Y1867083D01*
X62052Y1853158D01*
X50477Y1837226D01*
X41537Y1819680D01*
X35451Y1800951D01*
X32371Y1781500D01*
Y1761808D01*
X35451Y1742357D01*
X41537Y1723628D01*
X50477Y1706082D01*
X62052Y1690150D01*
X75977Y1676225D01*
X91909Y1664650D01*
X109455Y1655710D01*
X128184Y1649624D01*
X147634Y1646544D01*
X167327D01*
X186778Y1649624D01*
X205506Y1655710D01*
X223053Y1664650D01*
X238985Y1676225D01*
X252910Y1690150D01*
X264485Y1706082D01*
X273425Y1723628D01*
X279510Y1742357D01*
X282591Y1761808D01*
Y1781500D01*
X279510Y1800951D01*
X273425Y1819680D01*
X264485Y1837226D01*
X252910Y1853158D01*
X238985Y1867083D01*
X223053Y1878658D01*
X205506Y1887598D01*
X186778Y1893684D01*
X167327Y1896764D01*
D02*
G37*
G36*
X3789374Y1896764D02*
X3769681D01*
X3750231Y1893683D01*
X3731502Y1887598D01*
X3713956Y1878657D01*
X3698024Y1867082D01*
X3684099Y1853157D01*
X3672524Y1837226D01*
X3663583Y1819679D01*
X3657498Y1800950D01*
X3654417Y1781500D01*
Y1761807D01*
X3657498Y1742357D01*
X3663583Y1723628D01*
X3672524Y1706081D01*
X3680626Y1694929D01*
X3666349Y1680651D01*
X3663696Y1676682D01*
X3662765Y1672000D01*
Y1651055D01*
X3642410D01*
Y1601622D01*
X3707590D01*
Y1651055D01*
X3687235D01*
Y1666932D01*
X3697276Y1676973D01*
X3698024Y1676225D01*
X3713956Y1664650D01*
X3731502Y1655709D01*
X3750231Y1649624D01*
X3769681Y1646543D01*
X3789374D01*
X3808824Y1649624D01*
X3827553Y1655709D01*
X3845100Y1664650D01*
X3861031Y1676225D01*
X3874956Y1690150D01*
X3886532Y1706081D01*
X3895472Y1723628D01*
X3901557Y1742357D01*
X3904638Y1761807D01*
Y1781500D01*
X3901557Y1800950D01*
X3895472Y1819679D01*
X3886532Y1837226D01*
X3874956Y1853157D01*
X3861031Y1867082D01*
X3845100Y1878657D01*
X3827553Y1887598D01*
X3808824Y1893683D01*
X3789374Y1896764D01*
D02*
G37*
G36*
X2172354Y1739284D02*
X2079614D01*
Y1646543D01*
X2172354D01*
Y1739284D01*
D02*
G37*
G36*
X1682089D02*
X1669880D01*
X1658086Y1736123D01*
X1647512Y1730019D01*
X1638879Y1721385D01*
X1632774Y1710812D01*
X1629614Y1699018D01*
Y1686809D01*
X1632774Y1675015D01*
X1638879Y1664441D01*
X1647512Y1655808D01*
X1658086Y1649703D01*
X1669880Y1646543D01*
X1682089D01*
X1693882Y1649703D01*
X1704456Y1655808D01*
X1713090Y1664441D01*
X1719194Y1675015D01*
X1722354Y1686809D01*
Y1699018D01*
X1719194Y1710812D01*
X1713090Y1721385D01*
X1704456Y1730019D01*
X1693882Y1736123D01*
X1682089Y1739284D01*
D02*
G37*
G36*
X1522748D02*
X1430008D01*
Y1646543D01*
X1522748D01*
Y1739284D01*
D02*
G37*
G36*
X873142D02*
X780402D01*
Y1646543D01*
X873142D01*
Y1739284D01*
D02*
G37*
G36*
X2960586Y1902433D02*
X2949414D01*
X2938622Y1899541D01*
X2928945Y1893955D01*
X2921045Y1886054D01*
X2915459Y1876379D01*
X2912567Y1865586D01*
Y1854414D01*
X2915459Y1843621D01*
X2921045Y1833946D01*
X2928945Y1826045D01*
X2938622Y1820459D01*
X2949414Y1817567D01*
X2960586D01*
X2971378Y1820459D01*
X2975093Y1822603D01*
X3157026Y1640671D01*
X3160995Y1638018D01*
X3165678Y1637087D01*
X3605486D01*
X3606695Y1635878D01*
X3612523Y1633464D01*
X3618832D01*
X3624661Y1635878D01*
X3629122Y1640339D01*
X3631536Y1646168D01*
Y1652477D01*
X3629122Y1658305D01*
X3624661Y1662766D01*
X3618832Y1665180D01*
X3612523D01*
X3606695Y1662766D01*
X3605486Y1661557D01*
X3170746D01*
X2992396Y1839907D01*
X2994541Y1843621D01*
X2997433Y1854414D01*
Y1865586D01*
X2994541Y1876379D01*
X2988955Y1886054D01*
X2981055Y1893955D01*
X2971378Y1899541D01*
X2960586Y1902433D01*
D02*
G37*
G36*
X3553154Y1615858D02*
X3546846D01*
X3541017Y1613444D01*
X3536556Y1608983D01*
X3534142Y1603154D01*
Y1596846D01*
X3536556Y1591017D01*
X3541017Y1586556D01*
X3546846Y1584142D01*
X3553154D01*
X3558983Y1586556D01*
X3563444Y1591017D01*
X3565858Y1596846D01*
Y1603154D01*
X3563444Y1608983D01*
X3558983Y1613444D01*
X3553154Y1615858D01*
D02*
G37*
G36*
X2281245Y1617433D02*
X2268755D01*
X2256691Y1614200D01*
X2245876Y1607956D01*
X2244995Y1607076D01*
X2275000Y1577071D01*
X2305005Y1607076D01*
X2304124Y1607956D01*
X2293309Y1614200D01*
X2281245Y1617433D01*
D02*
G37*
G36*
X2510659D02*
X2498169D01*
X2486106Y1614200D01*
X2475290Y1607956D01*
X2474409Y1607076D01*
X2504414Y1577071D01*
X2534419Y1607076D01*
X2533539Y1607956D01*
X2522723Y1614200D01*
X2510659Y1617433D01*
D02*
G37*
G36*
X3394974Y1599039D02*
X3388665D01*
X3382836Y1596624D01*
X3378376Y1592164D01*
X3375961Y1586335D01*
Y1580026D01*
X3378376Y1574198D01*
X3382836Y1569737D01*
X3388665Y1567322D01*
X3394974D01*
X3400802Y1569737D01*
X3405263Y1574198D01*
X3407678Y1580026D01*
Y1586335D01*
X3405263Y1592164D01*
X3400802Y1596624D01*
X3394974Y1599039D01*
D02*
G37*
G36*
X3183154Y1595858D02*
X3176846D01*
X3171017Y1593444D01*
X3166556Y1588983D01*
X3164142Y1583154D01*
Y1576846D01*
X3166556Y1571017D01*
X3171017Y1566556D01*
X3176846Y1564142D01*
X3183154D01*
X3188983Y1566556D01*
X3193444Y1571017D01*
X3195858Y1576846D01*
Y1583154D01*
X3193444Y1588983D01*
X3188983Y1593444D01*
X3183154Y1595858D01*
D02*
G37*
G36*
X2312076Y1600005D02*
X2282071Y1570000D01*
X2312076Y1539995D01*
X2312956Y1540876D01*
X2319200Y1551691D01*
X2322433Y1563755D01*
Y1576245D01*
X2319200Y1588309D01*
X2312956Y1599124D01*
X2312076Y1600005D01*
D02*
G37*
G36*
X2541490D02*
X2511485Y1570000D01*
X2541490Y1539995D01*
X2542370Y1540876D01*
X2548615Y1551691D01*
X2551847Y1563755D01*
Y1576245D01*
X2548615Y1588309D01*
X2542370Y1599124D01*
X2541490Y1600005D01*
D02*
G37*
G36*
X2467338D02*
X2466458Y1599124D01*
X2460214Y1588309D01*
X2456981Y1576245D01*
Y1563755D01*
X2460214Y1551691D01*
X2466458Y1540876D01*
X2467338Y1539995D01*
X2497343Y1570000D01*
X2467338Y1600005D01*
D02*
G37*
G36*
X2237924Y1600005D02*
X2237044Y1599124D01*
X2230800Y1588309D01*
X2227567Y1576245D01*
Y1563755D01*
X2230800Y1551691D01*
X2237044Y1540876D01*
X2237924Y1539995D01*
X2267929Y1570000D01*
X2237924Y1600005D01*
D02*
G37*
G36*
X3816480Y1608024D02*
X3737519D01*
Y1529063D01*
X3816480D01*
Y1608024D01*
D02*
G37*
G36*
X2646847Y1612433D02*
X2561981D01*
Y1527567D01*
X2646847D01*
Y1612433D01*
D02*
G37*
G36*
X2417433D02*
X2332567D01*
Y1527567D01*
X2417433D01*
Y1612433D01*
D02*
G37*
G36*
X3123154Y1555858D02*
X3116846D01*
X3111017Y1553444D01*
X3106556Y1548983D01*
X3104142Y1543154D01*
Y1536846D01*
X3106556Y1531017D01*
X3111017Y1526556D01*
X3116846Y1524142D01*
X3123154D01*
X3128983Y1526556D01*
X3133444Y1531017D01*
X3135858Y1536846D01*
Y1543154D01*
X3133444Y1548983D01*
X3128983Y1553444D01*
X3123154Y1555858D01*
D02*
G37*
G36*
X2504414Y1562929D02*
X2474410Y1532924D01*
X2475290Y1532044D01*
X2486106Y1525800D01*
X2498169Y1522567D01*
X2510659D01*
X2522723Y1525800D01*
X2533539Y1532044D01*
X2534419Y1532924D01*
X2504414Y1562929D01*
D02*
G37*
G36*
X2275000Y1562929D02*
X2244995Y1532924D01*
X2245876Y1532044D01*
X2256691Y1525800D01*
X2268755Y1522567D01*
X2281245D01*
X2293309Y1525800D01*
X2304124Y1532044D01*
X2305005Y1532925D01*
X2275000Y1562929D01*
D02*
G37*
G36*
X3318154Y1515858D02*
X3311846D01*
X3306017Y1513444D01*
X3301556Y1508983D01*
X3299142Y1503154D01*
Y1496846D01*
X3301556Y1491017D01*
X3302338Y1490235D01*
X3299024Y1482235D01*
X3260192D01*
X3258983Y1483444D01*
X3253154Y1485858D01*
X3246846D01*
X3241017Y1483444D01*
X3236556Y1478983D01*
X3234142Y1473154D01*
Y1466846D01*
X3236556Y1461017D01*
X3241017Y1456556D01*
X3246846Y1454142D01*
X3253154D01*
X3258983Y1456556D01*
X3260192Y1457765D01*
X3333097D01*
X3335888Y1454325D01*
X3335819Y1452598D01*
X3335016Y1450111D01*
X3331704Y1446173D01*
X3302300D01*
Y1425818D01*
X3064331D01*
Y1446173D01*
X2989308D01*
Y1425818D01*
X2908583D01*
X2903901Y1424887D01*
X2899931Y1422234D01*
X2801889Y1324192D01*
X2799236Y1320222D01*
X2798305Y1315540D01*
Y1218861D01*
X2792135D01*
X2787137Y1217867D01*
X2782901Y1215036D01*
X2780071Y1210800D01*
X2779077Y1205803D01*
Y1194189D01*
X2780071Y1189192D01*
X2782901Y1184956D01*
X2787137Y1182125D01*
X2792135Y1181131D01*
X2828946D01*
X2833943Y1182125D01*
X2838179Y1184956D01*
X2841010Y1189192D01*
X2842004Y1194189D01*
Y1205803D01*
X2841010Y1210800D01*
X2838179Y1215036D01*
X2833943Y1217867D01*
X2828946Y1218861D01*
X2822775D01*
Y1310472D01*
X2913651Y1401348D01*
X2989308D01*
Y1380992D01*
X3064331D01*
Y1401348D01*
X3302300D01*
Y1380992D01*
X3377323D01*
Y1380992D01*
X3379808D01*
Y1380992D01*
X3411937D01*
X3430792Y1362138D01*
X3429142Y1358154D01*
Y1351846D01*
X3431556Y1346017D01*
X3436017Y1341556D01*
X3441846Y1339142D01*
X3448154D01*
X3453983Y1341556D01*
X3458444Y1346017D01*
X3460858Y1351846D01*
Y1358154D01*
X3458444Y1363983D01*
X3455759Y1366668D01*
Y1366709D01*
X3454827Y1371391D01*
X3452175Y1375361D01*
X3436084Y1391452D01*
X3440615Y1398234D01*
X3441846Y1397725D01*
X3448154D01*
X3453983Y1400139D01*
X3454485Y1400640D01*
X3462485Y1399640D01*
Y1380992D01*
X3511918D01*
Y1446173D01*
X3462485D01*
Y1427525D01*
X3454485Y1426525D01*
X3453983Y1427027D01*
X3448154Y1429441D01*
X3441846D01*
X3437240Y1427533D01*
X3432391Y1429455D01*
X3429240Y1431564D01*
Y1446173D01*
X3379807D01*
Y1446173D01*
X3377323D01*
X3371381Y1451142D01*
X3369751Y1454173D01*
X3370858Y1456846D01*
Y1463154D01*
X3374512Y1468623D01*
X3538124D01*
X3546128Y1460620D01*
X3550097Y1457968D01*
X3554779Y1457036D01*
X3739210D01*
X3740210Y1453304D01*
X3745407Y1444302D01*
X3752758Y1436951D01*
X3761761Y1431754D01*
X3771802Y1429063D01*
X3782197D01*
X3792238Y1431754D01*
X3801241Y1436951D01*
X3808592Y1444302D01*
X3813789Y1453304D01*
X3816480Y1463346D01*
Y1473741D01*
X3813789Y1483782D01*
X3808592Y1492785D01*
X3801241Y1500135D01*
X3792238Y1505333D01*
X3782197Y1508024D01*
X3771802D01*
X3761761Y1505333D01*
X3752758Y1500135D01*
X3745407Y1492785D01*
X3740210Y1483782D01*
X3739600Y1481507D01*
X3559847D01*
X3551844Y1489510D01*
X3547874Y1492162D01*
X3543192Y1493093D01*
X3346360D01*
X3341678Y1492162D01*
X3337709Y1489510D01*
X3334484Y1486285D01*
X3328444Y1491017D01*
X3330858Y1496846D01*
Y1503154D01*
X3328444Y1508983D01*
X3323983Y1513444D01*
X3318154Y1515858D01*
D02*
G37*
G36*
X3094974Y1485858D02*
X3088665D01*
X3082836Y1483444D01*
X3078375Y1478983D01*
X3075961Y1473154D01*
Y1466846D01*
X3078375Y1461017D01*
X3082836Y1456556D01*
X3088665Y1454142D01*
X3094974D01*
X3100802Y1456556D01*
X3105263Y1461017D01*
X3107677Y1466846D01*
Y1473154D01*
X3105263Y1478983D01*
X3100802Y1483444D01*
X3094974Y1485858D01*
D02*
G37*
G36*
X2610001Y1512433D02*
X2598828D01*
X2588036Y1509541D01*
X2578360Y1503955D01*
X2570459Y1496054D01*
X2564873Y1486379D01*
X2561981Y1475586D01*
Y1464414D01*
X2564873Y1453621D01*
X2570459Y1443946D01*
X2578360Y1436045D01*
X2588036Y1430459D01*
X2598828Y1427567D01*
X2610001D01*
X2620793Y1430459D01*
X2630469Y1436045D01*
X2638369Y1443946D01*
X2643955Y1453621D01*
X2646847Y1464414D01*
Y1475586D01*
X2643955Y1486379D01*
X2638369Y1496054D01*
X2630469Y1503955D01*
X2620793Y1509541D01*
X2610001Y1512433D01*
D02*
G37*
G36*
X2510001D02*
X2498828D01*
X2488036Y1509541D01*
X2478360Y1503955D01*
X2470459Y1496054D01*
X2464873Y1486379D01*
X2461981Y1475586D01*
Y1464414D01*
X2464873Y1453621D01*
X2470459Y1443946D01*
X2478360Y1436045D01*
X2488036Y1430459D01*
X2498828Y1427567D01*
X2510001D01*
X2520793Y1430459D01*
X2530469Y1436045D01*
X2538369Y1443946D01*
X2543955Y1453621D01*
X2546847Y1464414D01*
Y1475586D01*
X2543955Y1486379D01*
X2538369Y1496054D01*
X2530469Y1503955D01*
X2520793Y1509541D01*
X2510001Y1512433D01*
D02*
G37*
G36*
X2380586D02*
X2369414D01*
X2358622Y1509541D01*
X2348945Y1503955D01*
X2341045Y1496054D01*
X2335459Y1486379D01*
X2332567Y1475586D01*
Y1464414D01*
X2335459Y1453621D01*
X2341045Y1443946D01*
X2348945Y1436045D01*
X2358622Y1430459D01*
X2369414Y1427567D01*
X2380586D01*
X2391378Y1430459D01*
X2401055Y1436045D01*
X2408955Y1443946D01*
X2414541Y1453621D01*
X2417433Y1464414D01*
Y1475586D01*
X2414541Y1486379D01*
X2408955Y1496054D01*
X2401055Y1503955D01*
X2391378Y1509541D01*
X2380586Y1512433D01*
D02*
G37*
G36*
X2280586D02*
X2269414D01*
X2258622Y1509541D01*
X2248945Y1503955D01*
X2241045Y1496054D01*
X2235459Y1486379D01*
X2232567Y1475586D01*
Y1464414D01*
X2235459Y1453621D01*
X2241045Y1443946D01*
X2248945Y1436045D01*
X2258622Y1430459D01*
X2269414Y1427567D01*
X2280586D01*
X2291378Y1430459D01*
X2301055Y1436045D01*
X2308955Y1443946D01*
X2314541Y1453621D01*
X2317433Y1464414D01*
Y1475586D01*
X2314541Y1486379D01*
X2308955Y1496054D01*
X2301055Y1503955D01*
X2291378Y1509541D01*
X2280586Y1512433D01*
D02*
G37*
G36*
X199481Y1569500D02*
X115481D01*
Y1420500D01*
X145246D01*
Y1400192D01*
X144037Y1398983D01*
X141623Y1393154D01*
Y1386846D01*
X144037Y1381017D01*
X148498Y1376556D01*
X154326Y1374142D01*
X160635D01*
X166464Y1376556D01*
X170925Y1381017D01*
X173339Y1386846D01*
Y1393154D01*
X170925Y1398983D01*
X169716Y1400192D01*
Y1420500D01*
X199481D01*
Y1569500D01*
D02*
G37*
G36*
X3782197Y1408024D02*
X3771802D01*
X3761761Y1405333D01*
X3752758Y1400135D01*
X3745407Y1392785D01*
X3740210Y1383782D01*
X3737519Y1373741D01*
Y1363346D01*
X3740210Y1353304D01*
X3745407Y1344302D01*
X3752758Y1336951D01*
X3761761Y1331754D01*
X3771802Y1329063D01*
X3782197D01*
X3792238Y1331754D01*
X3801241Y1336951D01*
X3808592Y1344302D01*
X3813789Y1353304D01*
X3816480Y1363346D01*
Y1373741D01*
X3813789Y1383782D01*
X3808592Y1392785D01*
X3801241Y1400135D01*
X3792238Y1405333D01*
X3782197Y1408024D01*
D02*
G37*
G36*
X2610001Y1412433D02*
X2598828D01*
X2588036Y1409541D01*
X2578360Y1403955D01*
X2570459Y1396054D01*
X2564873Y1386379D01*
X2561981Y1375586D01*
Y1364414D01*
X2564873Y1353621D01*
X2570459Y1343946D01*
X2578360Y1336045D01*
X2588036Y1330459D01*
X2598828Y1327567D01*
X2610001D01*
X2620793Y1330459D01*
X2630469Y1336045D01*
X2638369Y1343946D01*
X2643955Y1353621D01*
X2646847Y1364414D01*
Y1375586D01*
X2643955Y1386379D01*
X2638369Y1396054D01*
X2630469Y1403955D01*
X2620793Y1409541D01*
X2610001Y1412433D01*
D02*
G37*
G36*
X2510001D02*
X2498828D01*
X2488036Y1409541D01*
X2478360Y1403955D01*
X2470459Y1396054D01*
X2464873Y1386379D01*
X2461981Y1375586D01*
Y1364414D01*
X2464873Y1353621D01*
X2470459Y1343946D01*
X2478360Y1336045D01*
X2488036Y1330459D01*
X2498828Y1327567D01*
X2510001D01*
X2520793Y1330459D01*
X2530469Y1336045D01*
X2538369Y1343946D01*
X2543955Y1353621D01*
X2546847Y1364414D01*
Y1375586D01*
X2543955Y1386379D01*
X2538369Y1396054D01*
X2530469Y1403955D01*
X2520793Y1409541D01*
X2510001Y1412433D01*
D02*
G37*
G36*
X2380586D02*
X2369414D01*
X2358622Y1409541D01*
X2348945Y1403955D01*
X2341045Y1396054D01*
X2335459Y1386379D01*
X2332567Y1375586D01*
Y1364414D01*
X2335459Y1353621D01*
X2341045Y1343946D01*
X2348945Y1336045D01*
X2358622Y1330459D01*
X2369414Y1327567D01*
X2380586D01*
X2391378Y1330459D01*
X2401055Y1336045D01*
X2408955Y1343946D01*
X2414541Y1353621D01*
X2417433Y1364414D01*
Y1375586D01*
X2414541Y1386379D01*
X2408955Y1396054D01*
X2401055Y1403955D01*
X2391378Y1409541D01*
X2380586Y1412433D01*
D02*
G37*
G36*
X2280586D02*
X2269414D01*
X2258622Y1409541D01*
X2248945Y1403955D01*
X2241045Y1396054D01*
X2235459Y1386379D01*
X2232567Y1375586D01*
Y1364414D01*
X2235459Y1353621D01*
X2241045Y1343946D01*
X2248945Y1336045D01*
X2258622Y1330459D01*
X2269414Y1327567D01*
X2280586D01*
X2291378Y1330459D01*
X2301055Y1336045D01*
X2308955Y1343946D01*
X2314541Y1353621D01*
X2317433Y1364414D01*
Y1375586D01*
X2314541Y1386379D01*
X2308955Y1396054D01*
X2301055Y1403955D01*
X2291378Y1409541D01*
X2280586Y1412433D01*
D02*
G37*
G36*
X2768154Y1339401D02*
X2761846D01*
X2756017Y1336987D01*
X2751556Y1332526D01*
X2749142Y1326698D01*
Y1320389D01*
X2751556Y1314560D01*
X2756017Y1310099D01*
X2761846Y1307685D01*
X2768154D01*
X2773983Y1310099D01*
X2778444Y1314560D01*
X2780858Y1320389D01*
Y1326698D01*
X2778444Y1332526D01*
X2773983Y1336987D01*
X2768154Y1339401D01*
D02*
G37*
G36*
X2862842Y1296418D02*
X2856533D01*
X2850704Y1294004D01*
X2846243Y1289543D01*
X2843829Y1283714D01*
Y1277405D01*
X2846243Y1271577D01*
X2850704Y1267116D01*
X2856533Y1264702D01*
X2862842D01*
X2868670Y1267116D01*
X2873131Y1271577D01*
X2875546Y1277405D01*
Y1283714D01*
X2873131Y1289543D01*
X2868670Y1294004D01*
X2862842Y1296418D01*
D02*
G37*
G36*
X3782197Y1308024D02*
X3771802D01*
X3761761Y1305333D01*
X3752758Y1300135D01*
X3745407Y1292785D01*
X3740210Y1283782D01*
X3737519Y1273741D01*
Y1263346D01*
X3740210Y1253304D01*
X3745407Y1244302D01*
X3752758Y1236951D01*
X3761761Y1231754D01*
X3771802Y1229063D01*
X3782197D01*
X3792238Y1231754D01*
X3801241Y1236951D01*
X3808592Y1244302D01*
X3813789Y1253304D01*
X3816480Y1263346D01*
Y1273741D01*
X3813789Y1283782D01*
X3808592Y1292785D01*
X3801241Y1300135D01*
X3792238Y1305333D01*
X3782197Y1308024D01*
D02*
G37*
G36*
X2670469Y1269988D02*
X2621036D01*
Y1204807D01*
X2670469D01*
Y1225162D01*
X2697562D01*
X2699437Y1222357D01*
X2703673Y1219526D01*
X2708670Y1218533D01*
X2745481D01*
X2750478Y1219526D01*
X2754714Y1222357D01*
X2757545Y1226593D01*
X2758539Y1231590D01*
Y1243205D01*
X2757545Y1248202D01*
X2754714Y1252438D01*
X2750478Y1255268D01*
X2745481Y1256263D01*
X2708670D01*
X2703673Y1255268D01*
X2699437Y1252438D01*
X2697562Y1249633D01*
X2670469D01*
Y1269988D01*
D02*
G37*
G36*
X2480695Y1286503D02*
X2474386D01*
X2468557Y1284089D01*
X2464096Y1279628D01*
X2461682Y1273799D01*
Y1267490D01*
X2463019Y1264263D01*
X2459662Y1257507D01*
X2458332Y1256263D01*
X2458135D01*
X2453137Y1255268D01*
X2448901Y1252438D01*
X2446071Y1248202D01*
X2445077Y1243205D01*
Y1231590D01*
X2446071Y1226593D01*
X2448901Y1222357D01*
X2453137Y1219526D01*
X2458135Y1218533D01*
X2494946D01*
X2499943Y1219526D01*
X2504179Y1222357D01*
X2506053Y1225162D01*
X2538359D01*
Y1204807D01*
X2587792D01*
Y1269988D01*
X2538359D01*
Y1249633D01*
X2506053D01*
X2504179Y1252438D01*
X2499943Y1255268D01*
X2496575Y1255938D01*
X2494916Y1257637D01*
X2493763Y1259543D01*
X2492061Y1264263D01*
X2493398Y1267490D01*
Y1273799D01*
X2490984Y1279628D01*
X2486523Y1284089D01*
X2480695Y1286503D01*
D02*
G37*
G36*
X3052910Y1297665D02*
X3046601D01*
X3040773Y1295250D01*
X3036312Y1290789D01*
X3033898Y1284961D01*
Y1278652D01*
X3034579Y1277008D01*
X3029675Y1269008D01*
X2989308D01*
Y1203827D01*
X3064331D01*
Y1224182D01*
X3302300D01*
Y1203827D01*
X3377323D01*
Y1203827D01*
X3379808D01*
Y1203827D01*
X3429240D01*
Y1269008D01*
X3379808D01*
Y1269008D01*
X3377323D01*
Y1269008D01*
X3302300D01*
Y1248652D01*
X3064331D01*
Y1269008D01*
X3064331Y1269008D01*
X3064845Y1276795D01*
X3065614Y1278652D01*
Y1284961D01*
X3063200Y1290789D01*
X3058739Y1295250D01*
X3052910Y1297665D01*
D02*
G37*
G36*
X3782855Y1213024D02*
X3771144D01*
X3759831Y1209992D01*
X3749688Y1204136D01*
X3749083Y1203531D01*
X3777000Y1175614D01*
X3804916Y1203531D01*
X3804311Y1204136D01*
X3794168Y1209992D01*
X3782855Y1213024D01*
D02*
G37*
G36*
X2411481Y1218861D02*
X2374670D01*
X2369673Y1217867D01*
X2365437Y1215036D01*
X2363562Y1212231D01*
X2340000D01*
X2335318Y1211300D01*
X2331349Y1208647D01*
X2307786Y1185085D01*
X2305134Y1181116D01*
X2304203Y1176434D01*
Y856630D01*
X2302994Y855421D01*
X2300579Y849592D01*
Y843283D01*
X2301883Y840137D01*
X2298426Y833265D01*
X2297196Y832137D01*
X2225000D01*
X2222269Y831594D01*
X2219953Y830047D01*
X2204953Y815047D01*
X2203406Y812731D01*
X2202863Y810000D01*
Y752137D01*
X2155000D01*
X2152269Y751594D01*
X2149953Y750047D01*
X2124953Y725047D01*
X2123406Y722731D01*
X2122863Y720000D01*
Y714302D01*
X2099497D01*
Y726783D01*
X2034316D01*
Y677350D01*
X2099497D01*
Y689832D01*
X2122863D01*
Y520000D01*
X2123406Y517269D01*
X2124953Y514953D01*
X2127269Y513406D01*
X2130000Y512863D01*
X2192044D01*
X2196787Y508119D01*
X2198171Y507195D01*
X2199095Y505811D01*
X2217863Y487044D01*
Y340000D01*
X2218406Y337269D01*
X2219953Y334953D01*
X2222269Y333406D01*
X2225000Y332863D01*
X2262317D01*
X2265378Y325472D01*
X2254953Y315047D01*
X2253406Y312731D01*
X2252863Y310000D01*
Y284945D01*
X2249701D01*
Y232189D01*
X2245479D01*
X2238565Y229325D01*
X2233273Y224034D01*
X2231611Y220019D01*
X2223611Y221611D01*
Y258260D01*
X2222558Y266254D01*
X2219473Y273703D01*
X2214564Y280100D01*
X2208168Y285008D01*
X2200718Y288094D01*
X2192724Y289146D01*
X2184731Y288094D01*
X2177281Y285008D01*
X2170885Y280100D01*
X2165976Y273703D01*
X2162891Y266254D01*
X2161838Y258260D01*
Y207079D01*
X2162891Y199085D01*
X2165976Y191636D01*
X2170885Y185239D01*
X2177281Y180331D01*
X2184731Y177245D01*
X2192724Y176192D01*
X2200718Y177245D01*
X2208168Y180331D01*
X2214564Y185239D01*
X2219473Y191636D01*
X2222558Y199085D01*
X2223417Y205612D01*
X2227031Y207005D01*
X2231540Y206908D01*
X2233273Y202722D01*
X2238565Y197431D01*
X2245479Y194567D01*
X2252962D01*
X2259876Y197431D01*
X2265168Y202722D01*
X2266196Y205206D01*
X2275423Y207293D01*
X2278711Y204006D01*
X2283011Y201132D01*
X2288083Y200123D01*
X2437917D01*
X2442989Y201132D01*
X2447289Y204006D01*
X2450577Y207293D01*
X2459804Y205206D01*
X2460832Y202722D01*
X2466124Y197431D01*
X2473038Y194567D01*
X2480521D01*
X2487435Y197431D01*
X2492727Y202722D01*
X2494460Y206908D01*
X2498969Y207005D01*
X2502583Y205612D01*
X2503442Y199085D01*
X2506527Y191636D01*
X2511436Y185239D01*
X2517832Y180331D01*
X2525282Y177245D01*
X2533276Y176192D01*
X2541269Y177245D01*
X2548719Y180331D01*
X2555115Y185239D01*
X2560024Y191636D01*
X2563109Y199085D01*
X2564162Y207079D01*
Y258260D01*
X2563109Y266254D01*
X2560024Y273703D01*
X2555115Y280100D01*
X2548719Y285008D01*
X2541269Y288094D01*
X2533276Y289146D01*
X2525282Y288094D01*
X2517832Y285008D01*
X2511436Y280100D01*
X2506527Y273703D01*
X2503442Y266254D01*
X2502389Y258260D01*
Y221611D01*
X2494389Y220019D01*
X2492727Y224034D01*
X2487435Y229325D01*
X2480521Y232189D01*
X2476299D01*
Y284945D01*
X2417017D01*
X2412741Y292945D01*
X2412744Y292950D01*
X2474164D01*
Y292892D01*
X2486663Y294537D01*
X2498310Y299362D01*
X2508260Y306997D01*
X2508239Y307017D01*
X2508242Y307049D01*
X2538612Y337419D01*
X2538612Y337419D01*
X2538674Y337425D01*
X2538676Y337424D01*
X2546273Y347325D01*
X2551098Y358972D01*
X2552743Y371471D01*
X2552685D01*
Y706461D01*
X2641979Y795755D01*
X2642041Y795762D01*
X2642043Y795760D01*
X2649640Y805661D01*
X2649784Y806009D01*
X2656982Y803994D01*
X2657706Y803788D01*
Y782532D01*
X2689836D01*
X2711019Y761348D01*
X2714989Y758696D01*
X2719671Y757765D01*
X2812410D01*
Y745284D01*
X2812852D01*
X2816556Y737674D01*
X2814142Y731846D01*
Y725537D01*
X2816556Y719708D01*
X2814047Y712039D01*
X2812410D01*
Y662606D01*
X2877590D01*
Y712039D01*
X2845953D01*
X2843444Y719708D01*
X2845858Y725537D01*
Y731846D01*
X2843444Y737674D01*
X2847148Y745284D01*
X2877590D01*
Y794716D01*
X2812410D01*
Y782235D01*
X2724739D01*
X2707139Y799835D01*
Y847713D01*
X2695310D01*
X2693103Y852417D01*
X2692324Y855713D01*
X2693985Y858200D01*
X2694727Y861930D01*
Y865211D01*
X2705139D01*
X2710212Y866220D01*
X2714512Y869093D01*
X2725026Y879607D01*
X2726468Y879679D01*
X2729175Y879200D01*
X2733406Y877269D01*
X2734953Y874953D01*
X2737269Y873406D01*
X2740000Y872863D01*
X2830000D01*
X2832731Y873406D01*
X2835047Y874953D01*
X2836594Y877269D01*
X2837137Y880000D01*
Y1095000D01*
X2836594Y1097731D01*
X2835047Y1100047D01*
X2832731Y1101594D01*
X2830000Y1102137D01*
X2740000D01*
X2737269Y1101594D01*
X2734953Y1100047D01*
X2733406Y1097731D01*
X2732863Y1095000D01*
Y1043133D01*
X2701751D01*
X2697784Y1046189D01*
X2694727Y1050157D01*
Y1081615D01*
X2693985Y1085345D01*
X2691873Y1088507D01*
X2688711Y1090619D01*
X2684981Y1091361D01*
X2679863D01*
X2676133Y1090619D01*
X2672971Y1088507D01*
X2672188D01*
X2669026Y1090619D01*
X2665296Y1091361D01*
X2660178D01*
X2656448Y1090619D01*
X2652894Y1088716D01*
X2649341Y1090619D01*
X2645611Y1091361D01*
X2640493D01*
X2636763Y1090619D01*
X2633601Y1088507D01*
X2632818D01*
X2629656Y1090619D01*
X2625926Y1091361D01*
X2620808D01*
X2617078Y1090619D01*
X2613916Y1088507D01*
X2613133D01*
X2609971Y1090619D01*
X2606241Y1091361D01*
X2601123D01*
X2597393Y1090619D01*
X2593839Y1088716D01*
X2590285Y1090619D01*
X2586556Y1091361D01*
X2581438D01*
X2577708Y1090619D01*
X2574546Y1088507D01*
X2573762D01*
X2570601Y1090619D01*
X2566871Y1091361D01*
X2561753D01*
X2558023Y1090619D01*
X2554861Y1088507D01*
X2552748Y1085345D01*
X2552006Y1081615D01*
Y1050157D01*
X2548950Y1046189D01*
X2544983Y1043133D01*
X2513524D01*
X2508512Y1046481D01*
X2507567Y1055264D01*
X2555068Y1102765D01*
X2639895D01*
X2644577Y1103696D01*
X2648546Y1106349D01*
X2654404Y1112206D01*
X2657057Y1116176D01*
X2657988Y1120858D01*
Y1130004D01*
X2670469D01*
Y1150359D01*
X2697562D01*
X2699437Y1147554D01*
X2703673Y1144723D01*
X2708670Y1143729D01*
X2745481D01*
X2750478Y1144723D01*
X2754714Y1147554D01*
X2757545Y1151790D01*
X2758539Y1156787D01*
Y1168401D01*
X2757545Y1173398D01*
X2754714Y1177635D01*
X2750478Y1180465D01*
X2745481Y1181459D01*
X2708670D01*
X2703673Y1180465D01*
X2699437Y1177635D01*
X2697562Y1174829D01*
X2670469D01*
Y1195185D01*
X2621036D01*
Y1130004D01*
X2614183Y1127235D01*
X2594645D01*
X2587792Y1130004D01*
X2587792Y1135235D01*
Y1195185D01*
X2538359D01*
Y1174829D01*
X2506053D01*
X2504179Y1177635D01*
X2499943Y1180465D01*
X2494946Y1181459D01*
X2458135D01*
X2453137Y1180465D01*
X2448901Y1177635D01*
X2446071Y1173398D01*
X2445077Y1168401D01*
Y1156787D01*
X2446071Y1151790D01*
X2448901Y1147554D01*
X2453137Y1144723D01*
X2458135Y1143729D01*
X2494946D01*
X2499943Y1144723D01*
X2504179Y1147554D01*
X2506053Y1150359D01*
X2538359D01*
X2538359Y1130004D01*
X2539701Y1122004D01*
X2484675Y1066978D01*
X2482023Y1063009D01*
X2481092Y1058327D01*
Y999461D01*
X2477836Y994801D01*
X2474065Y991751D01*
X2470652Y991896D01*
X2450065Y1012482D01*
X2450065Y1012523D01*
X2446818Y1019181D01*
X2446358Y1021498D01*
X2446338D01*
Y1084894D01*
X2447546Y1086102D01*
X2449961Y1091931D01*
Y1098240D01*
X2447546Y1104069D01*
X2443085Y1108529D01*
X2437257Y1110944D01*
X2430948D01*
X2425119Y1108529D01*
X2420659Y1104069D01*
X2418244Y1098240D01*
Y1091931D01*
X2420659Y1086102D01*
X2421867Y1084894D01*
Y1021498D01*
X2421783D01*
X2423055Y1011839D01*
X2426783Y1002838D01*
X2432634Y995213D01*
X2432657Y995236D01*
X2432712Y995230D01*
X2443747Y984195D01*
X2440685Y976804D01*
X2386512D01*
Y927371D01*
X2451693D01*
Y939852D01*
X2496594D01*
X2501107Y936780D01*
X2501282Y927931D01*
X2496741Y924452D01*
X2494575Y924021D01*
X2490606Y921369D01*
X2475095Y905858D01*
X2473386D01*
X2467557Y903444D01*
X2463096Y898983D01*
X2460682Y893154D01*
Y886846D01*
X2463096Y881017D01*
X2467557Y876556D01*
X2473386Y874142D01*
X2479695D01*
X2485523Y876556D01*
X2489984Y881017D01*
X2492398Y886846D01*
Y888555D01*
X2504325Y900482D01*
X2513171D01*
X2513524Y900412D01*
X2544983D01*
X2548950Y897355D01*
X2552006Y893388D01*
Y861930D01*
X2552748Y858200D01*
X2554861Y855038D01*
X2558023Y852925D01*
X2561753Y852183D01*
X2566871D01*
X2570601Y852925D01*
X2573762Y855038D01*
X2574546D01*
X2577708Y852925D01*
X2581438Y852183D01*
X2586556D01*
X2590286Y852925D01*
X2593448Y855038D01*
X2595506Y858119D01*
X2595902Y858192D01*
X2603682Y858023D01*
X2604268Y855078D01*
X2604902Y854129D01*
Y831015D01*
X2515635Y741748D01*
X2515603Y741745D01*
X2515582Y741765D01*
X2507947Y731815D01*
X2503122Y720168D01*
X2501477Y707669D01*
X2501535D01*
Y372679D01*
X2472956Y344100D01*
X2403746D01*
Y344158D01*
X2391247Y342512D01*
X2379599Y337688D01*
X2369699Y330091D01*
X2369698Y330091D01*
Y330091D01*
X2364089Y324422D01*
X2351525Y311858D01*
X2351525Y311858D01*
X2351493Y311855D01*
X2351472Y311875D01*
X2343837Y301925D01*
X2340117Y292945D01*
X2332252D01*
Y284945D01*
X2284313D01*
X2283038Y292945D01*
X2330149Y340056D01*
X2356532D01*
Y342202D01*
X2363000D01*
X2365731Y342745D01*
X2368047Y344292D01*
X2369594Y346608D01*
X2370137Y349339D01*
Y407863D01*
X2480000D01*
X2482731Y408406D01*
X2485046Y409953D01*
X2486593Y412269D01*
X2487137Y415000D01*
X2487137Y510000D01*
X2486594Y512731D01*
X2485047Y515047D01*
X2482731Y516594D01*
X2480000Y517137D01*
X2347683D01*
X2344622Y524528D01*
X2405047Y584953D01*
X2406594Y587269D01*
X2407137Y590000D01*
Y751259D01*
X2407092Y751485D01*
X2407123Y751713D01*
X2406822Y752843D01*
X2406594Y753990D01*
X2406466Y754182D01*
X2406407Y754404D01*
X2405697Y755333D01*
X2405047Y756306D01*
X2404856Y756434D01*
X2404716Y756616D01*
X2402706Y758386D01*
X2402705Y758386D01*
X2401438Y759169D01*
X2400929Y759533D01*
X2400629Y759668D01*
X2398444Y761017D01*
X2400858Y766846D01*
Y773154D01*
X2398444Y778983D01*
X2400629Y780332D01*
X2400929Y780467D01*
X2401438Y780831D01*
X2402705Y781614D01*
X2402706Y781614D01*
X2404716Y783384D01*
X2404856Y783566D01*
X2405047Y783694D01*
X2405696Y784666D01*
X2406407Y785596D01*
X2406466Y785818D01*
X2406594Y786010D01*
X2406822Y787157D01*
X2407123Y788287D01*
X2407092Y788515D01*
X2407137Y788741D01*
Y805000D01*
X2406594Y807731D01*
X2405047Y810047D01*
X2385047Y830047D01*
X2382731Y831594D01*
X2380000Y832137D01*
X2335679D01*
X2334449Y833265D01*
X2330993Y840137D01*
X2332296Y843283D01*
Y849592D01*
X2329882Y855421D01*
X2328673Y856630D01*
Y1171366D01*
X2345068Y1187761D01*
X2363562D01*
X2365437Y1184956D01*
X2369673Y1182125D01*
X2374670Y1181131D01*
X2411481D01*
X2416478Y1182125D01*
X2420714Y1184956D01*
X2423545Y1189192D01*
X2424539Y1194189D01*
Y1205803D01*
X2423545Y1210800D01*
X2420714Y1215036D01*
X2416478Y1217867D01*
X2411481Y1218861D01*
D02*
G37*
G36*
X3811987Y1196460D02*
X3784071Y1168543D01*
X3811988Y1140627D01*
X3812593Y1141232D01*
X3818448Y1151375D01*
X3821480Y1162687D01*
Y1174399D01*
X3818448Y1185712D01*
X3812593Y1195855D01*
X3811987Y1196460D01*
D02*
G37*
G36*
X3742012Y1196460D02*
X3741406Y1195855D01*
X3735550Y1185712D01*
X3732519Y1174399D01*
Y1162687D01*
X3735550Y1151375D01*
X3741406Y1141232D01*
X3742012Y1140626D01*
X3769929Y1168543D01*
X3742012Y1196460D01*
D02*
G37*
G36*
X3777000Y1161472D02*
X3749083Y1133555D01*
X3749688Y1132950D01*
X3759831Y1127094D01*
X3771144Y1124063D01*
X3782855D01*
X3794168Y1127094D01*
X3804311Y1132950D01*
X3804916Y1133556D01*
X3777000Y1161472D01*
D02*
G37*
G36*
X3464733Y1110618D02*
X3458425D01*
X3452596Y1108204D01*
X3448135Y1103743D01*
X3445721Y1097914D01*
Y1091605D01*
X3448135Y1085777D01*
X3452596Y1081316D01*
X3458425Y1078901D01*
X3464733D01*
X3470562Y1081316D01*
X3475023Y1085777D01*
X3477437Y1091605D01*
Y1097914D01*
X3475023Y1103743D01*
X3470562Y1108204D01*
X3464733Y1110618D01*
D02*
G37*
G36*
X1468154Y973148D02*
X1461846D01*
X1456017Y970734D01*
X1451556Y966273D01*
X1449142Y960445D01*
Y954136D01*
X1442828Y948473D01*
X1434018D01*
Y970196D01*
X1384585D01*
Y905015D01*
X1434018D01*
Y926501D01*
X1445449D01*
X1449142Y922809D01*
Y919333D01*
X1451556Y913504D01*
X1456017Y909043D01*
X1461846Y906629D01*
X1468154D01*
X1473983Y909043D01*
X1478444Y913504D01*
X1480858Y919333D01*
Y925641D01*
X1478444Y931470D01*
X1474509Y935405D01*
X1474230Y939889D01*
X1474509Y944372D01*
X1478444Y948307D01*
X1480858Y954136D01*
Y960445D01*
X1478444Y966273D01*
X1473983Y970734D01*
X1468154Y973148D01*
D02*
G37*
G36*
X695294Y970078D02*
X645861D01*
Y904897D01*
X695294D01*
Y925370D01*
X709808D01*
X711017Y924161D01*
X716846Y921747D01*
X723154D01*
X728983Y924161D01*
X733444Y928622D01*
X735858Y934451D01*
Y940760D01*
X733444Y946588D01*
X728983Y951049D01*
X723154Y953463D01*
X716846D01*
X711017Y951049D01*
X709808Y949840D01*
X695294D01*
Y970078D01*
D02*
G37*
G36*
X860664Y921078D02*
X811231D01*
Y909105D01*
X803231Y903887D01*
X802123Y904345D01*
X795815D01*
X789986Y901931D01*
X785525Y897470D01*
X783111Y891641D01*
Y885333D01*
X785525Y879504D01*
X789986Y875043D01*
X795815Y872629D01*
X802123D01*
X803231Y873088D01*
X811231Y867870D01*
Y855897D01*
X860664D01*
Y921078D01*
D02*
G37*
G36*
X1588520D02*
X1539087D01*
Y907141D01*
X1536977Y905340D01*
X1531087Y902716D01*
X1527154Y904345D01*
X1520846D01*
X1515017Y901931D01*
X1510556Y897470D01*
X1508142Y891641D01*
Y885333D01*
X1510556Y879504D01*
X1515017Y875043D01*
X1520846Y872629D01*
X1527154D01*
X1531087Y874258D01*
X1536977Y871635D01*
X1539087Y869833D01*
Y855897D01*
X1588520D01*
Y921078D01*
D02*
G37*
G36*
X2161816Y981347D02*
X2112383D01*
Y916166D01*
X2161816D01*
Y919568D01*
X2169816Y922881D01*
X2184142Y908555D01*
Y906846D01*
X2186556Y901017D01*
X2191017Y896556D01*
X2196846Y894142D01*
X2203154D01*
X2208983Y896556D01*
X2213444Y901017D01*
X2215858Y906846D01*
Y913154D01*
X2213444Y918983D01*
X2208983Y923444D01*
X2203154Y925858D01*
X2201445D01*
X2181046Y946257D01*
X2177077Y948909D01*
X2172395Y949840D01*
X2161816D01*
Y981347D01*
D02*
G37*
G36*
X121939Y921078D02*
X72506D01*
Y855897D01*
X74960D01*
X80412Y848154D01*
Y841846D01*
X82826Y836017D01*
X87287Y831556D01*
X93116Y829142D01*
X99424D01*
X105253Y831556D01*
X109714Y836017D01*
X112128Y841846D01*
Y848154D01*
X117581Y855897D01*
X121939D01*
Y921078D01*
D02*
G37*
G36*
X646591Y726783D02*
X581410D01*
Y677350D01*
X646591D01*
Y680933D01*
X654591Y686278D01*
X654759Y686208D01*
X661068D01*
X666897Y688623D01*
X671358Y693084D01*
X673772Y698912D01*
Y705221D01*
X671358Y711050D01*
X666897Y715510D01*
X661068Y717925D01*
X654759D01*
X654591Y717855D01*
X646591Y723201D01*
Y726783D01*
D02*
G37*
G36*
X1561590Y724394D02*
Y724394D01*
X1559827Y724394D01*
X1496409D01*
Y674961D01*
X1561590D01*
Y674961D01*
X1567595D01*
Y674961D01*
X1632776D01*
Y724394D01*
X1569358D01*
X1567595Y724394D01*
Y724394D01*
X1561590D01*
D02*
G37*
G36*
X2744500Y717000D02*
X2595500D01*
Y633000D01*
X2744500D01*
Y655441D01*
X2746398Y656227D01*
X2754142Y656846D01*
X2756556Y651017D01*
X2761017Y646556D01*
X2766846Y644142D01*
X2773154D01*
X2778983Y646556D01*
X2783444Y651017D01*
X2785858Y656846D01*
Y663154D01*
X2783444Y668983D01*
X2778983Y673444D01*
X2773154Y675858D01*
X2772887D01*
X2764372Y684372D01*
X2760072Y687246D01*
X2755000Y688255D01*
X2744500D01*
Y717000D01*
D02*
G37*
G36*
X588154Y665858D02*
X581846D01*
X576017Y663444D01*
X571556Y658983D01*
X569142Y653154D01*
Y646846D01*
X571556Y641017D01*
X576017Y636556D01*
X581846Y634142D01*
X588154D01*
X593983Y636556D01*
X598444Y641017D01*
X600858Y646846D01*
Y653154D01*
X598444Y658983D01*
X593983Y663444D01*
X588154Y665858D01*
D02*
G37*
G36*
X2967705Y631004D02*
X2917508D01*
X2913049Y630117D01*
X2909269Y627591D01*
X2906742Y623810D01*
X2905855Y619351D01*
Y619086D01*
X2807346D01*
X2805350Y621082D01*
X2799521Y623496D01*
X2793213D01*
X2787384Y621082D01*
X2782923Y616621D01*
X2780509Y610793D01*
Y604484D01*
X2782923Y598655D01*
X2787384Y594194D01*
X2793213Y591780D01*
X2799521D01*
X2805350Y594194D01*
X2805771Y594616D01*
X2905855D01*
Y592776D01*
X2906742Y588317D01*
X2909268Y584536D01*
Y577591D01*
X2906742Y573810D01*
X2905855Y569351D01*
Y542776D01*
X2906742Y538317D01*
X2909268Y534536D01*
Y527591D01*
X2906742Y523810D01*
X2905855Y519351D01*
Y492776D01*
X2906742Y488317D01*
X2909268Y484536D01*
Y477591D01*
X2906742Y473810D01*
X2905855Y469351D01*
Y442776D01*
X2906742Y438317D01*
X2909268Y434536D01*
Y427591D01*
X2906742Y423810D01*
X2905855Y419351D01*
Y392776D01*
X2906742Y388317D01*
X2909268Y384536D01*
Y377591D01*
X2906742Y373810D01*
X2905855Y369351D01*
Y342776D01*
X2906742Y338317D01*
X2904870Y334574D01*
X2898710Y332578D01*
X2897738Y333550D01*
X2891910Y335964D01*
X2885601D01*
X2884055Y335324D01*
X2876055Y340285D01*
Y352697D01*
X2826622D01*
Y337225D01*
X2818983Y333550D01*
X2813154Y335964D01*
X2806846D01*
X2801017Y333550D01*
X2793378Y336131D01*
Y352697D01*
X2743945D01*
Y294488D01*
X2743945Y294481D01*
Y294481D01*
X2743945Y287909D01*
X2743614Y285627D01*
X2737174Y280881D01*
X2726382Y282591D01*
X2706689D01*
X2687239Y279510D01*
X2668510Y273425D01*
X2650963Y264484D01*
X2635032Y252909D01*
X2621107Y238984D01*
X2609532Y223052D01*
X2600591Y205506D01*
X2594506Y186777D01*
X2591425Y167327D01*
Y147634D01*
X2594506Y128184D01*
X2600591Y109455D01*
X2609532Y91908D01*
X2621107Y75977D01*
X2635032Y62052D01*
X2650963Y50476D01*
X2668510Y41536D01*
X2687239Y35451D01*
X2706689Y32370D01*
X2726382D01*
X2745832Y35451D01*
X2764561Y41536D01*
X2782108Y50476D01*
X2798039Y62052D01*
X2811964Y75977D01*
X2823539Y91908D01*
X2832480Y109455D01*
X2838565Y128184D01*
X2841646Y147634D01*
Y167327D01*
X2838565Y186777D01*
X2832480Y205506D01*
X2823539Y223052D01*
X2811964Y238984D01*
X2798039Y252909D01*
X2782108Y264484D01*
X2764561Y273425D01*
X2747466Y278979D01*
X2745959Y281579D01*
X2746334Y286345D01*
X2750761Y287515D01*
X2751670Y287515D01*
X2751671Y287515D01*
X2751782Y287515D01*
X2793378D01*
Y304081D01*
X2801017Y306662D01*
X2806846Y304248D01*
X2813154D01*
X2818983Y306662D01*
X2826622Y302987D01*
Y287515D01*
X2876055D01*
Y299927D01*
X2884055Y304888D01*
X2885601Y304248D01*
X2891910D01*
X2897738Y306662D01*
X2897855Y306779D01*
X2905855Y303465D01*
Y292776D01*
X2906742Y288317D01*
X2909268Y284536D01*
Y277591D01*
X2906742Y273810D01*
X2905855Y269351D01*
Y242776D01*
X2906742Y238317D01*
X2909268Y234536D01*
Y227591D01*
X2906742Y223810D01*
X2905855Y219351D01*
Y218299D01*
X2893823D01*
X2860858Y251264D01*
Y252973D01*
X2858444Y258802D01*
X2853983Y263263D01*
X2848154Y265677D01*
X2841846D01*
X2836017Y263263D01*
X2831556Y258802D01*
X2829142Y252973D01*
Y246665D01*
X2831556Y240836D01*
X2836017Y236375D01*
X2841846Y233961D01*
X2843555D01*
X2880104Y197412D01*
X2884073Y194760D01*
X2888755Y193828D01*
X2905855D01*
Y192776D01*
X2906742Y188317D01*
X2909269Y184536D01*
X2913049Y182010D01*
X2917508Y181123D01*
X2967705D01*
X2972165Y182010D01*
X2975945Y184536D01*
X2978471Y188317D01*
X2979358Y192776D01*
Y219351D01*
X2978471Y223810D01*
X2975945Y227591D01*
Y234536D01*
X2978471Y238317D01*
X2979358Y242776D01*
Y243828D01*
X3031628D01*
X3032836Y242620D01*
X3038665Y240205D01*
X3044974D01*
X3050802Y242620D01*
X3055263Y247081D01*
X3057678Y252909D01*
Y259218D01*
X3055263Y265046D01*
X3050802Y269507D01*
X3044974Y271922D01*
X3038665D01*
X3032836Y269507D01*
X3031628Y268299D01*
X2979358D01*
Y269351D01*
X2978471Y273810D01*
X2975945Y277591D01*
Y284536D01*
X2978471Y288317D01*
X2979358Y292776D01*
Y319351D01*
X2978471Y323810D01*
X2975945Y327591D01*
Y334536D01*
X2978471Y338317D01*
X2979358Y342776D01*
Y369351D01*
X2978471Y373810D01*
X2975945Y377591D01*
Y384536D01*
X2978471Y388317D01*
X2979358Y392776D01*
Y419351D01*
X2978471Y423810D01*
X2975945Y427591D01*
Y434536D01*
X2978471Y438317D01*
X2979358Y442776D01*
Y469351D01*
X2978471Y473810D01*
X2975945Y477591D01*
Y484536D01*
X2978471Y488317D01*
X2979358Y492776D01*
Y519351D01*
X2978471Y523810D01*
X2975945Y527591D01*
Y534536D01*
X2978471Y538317D01*
X2979358Y542776D01*
Y569351D01*
X2978471Y573810D01*
X2975945Y577591D01*
Y584536D01*
X2978471Y588317D01*
X2979358Y592776D01*
Y619351D01*
X2978471Y623810D01*
X2975945Y627591D01*
X2972165Y630117D01*
X2967705Y631004D01*
D02*
G37*
G36*
X2451693Y894127D02*
X2386512D01*
Y844694D01*
X2400580D01*
X2406783Y840355D01*
X2408055Y830696D01*
X2411783Y821696D01*
X2417680Y814011D01*
X2417724Y814055D01*
X2417747Y814052D01*
X2433129Y798670D01*
X2433129Y798635D01*
X2436383Y791981D01*
X2436847Y789645D01*
X2436867D01*
Y640192D01*
X2435659Y638983D01*
X2433244Y633154D01*
Y626846D01*
X2435659Y621017D01*
X2440119Y616556D01*
X2445948Y614142D01*
X2452257D01*
X2458085Y616556D01*
X2462546Y621017D01*
X2464961Y626846D01*
Y633154D01*
X2462546Y638983D01*
X2461338Y640192D01*
Y789645D01*
X2461422D01*
X2460150Y799304D01*
X2456422Y808304D01*
X2450537Y815973D01*
X2450499Y815935D01*
X2450467Y815938D01*
X2435063Y831342D01*
X2435080Y831359D01*
X2432328Y835478D01*
X2432086Y836693D01*
X2437167Y844418D01*
X2437561Y844694D01*
X2451693D01*
Y894127D01*
D02*
G37*
G36*
X549480Y630858D02*
X543171D01*
X537342Y628444D01*
X532881Y623983D01*
X530467Y618154D01*
Y611846D01*
X532881Y606017D01*
X537342Y601556D01*
X543171Y599142D01*
X549480D01*
X555308Y601556D01*
X559769Y606017D01*
X562183Y611846D01*
Y618154D01*
X559769Y623983D01*
X555308Y628444D01*
X549480Y630858D01*
D02*
G37*
G36*
X203851Y597741D02*
X111111D01*
Y505000D01*
X203851D01*
Y597741D01*
D02*
G37*
G36*
X1561591Y641716D02*
X1496409D01*
Y600284D01*
X1496409Y597022D01*
X1488614Y596528D01*
X1482577Y596528D01*
X1301386D01*
Y495913D01*
X1488614D01*
Y533985D01*
X1506007D01*
X1510689Y534917D01*
X1514658Y537569D01*
X1537651Y560562D01*
X1540304Y564532D01*
X1541235Y569214D01*
Y592284D01*
X1561591D01*
Y641716D01*
D02*
G37*
G36*
X1624338Y518850D02*
X1535740D01*
X1580039Y474551D01*
X1624338Y518850D01*
D02*
G37*
G36*
X1631409Y511780D02*
X1583575Y463945D01*
X1580039Y467480D01*
X1576504Y463945D01*
X1528669Y511779D01*
Y344441D01*
X1576504Y392276D01*
X1580039Y388740D01*
X1583575Y392276D01*
X1631409Y344441D01*
Y511780D01*
D02*
G37*
G36*
X2744500Y568520D02*
X2595500D01*
Y484520D01*
X2657765D01*
Y474035D01*
X2656556Y472826D01*
X2654142Y466997D01*
Y460689D01*
X2656556Y454860D01*
X2661017Y450399D01*
X2666846Y447985D01*
X2673154D01*
X2678983Y450399D01*
X2683444Y454860D01*
X2685858Y460689D01*
Y466997D01*
X2683444Y472826D01*
X2682235Y474035D01*
Y484520D01*
X2744500D01*
Y568520D01*
D02*
G37*
G36*
X2719590Y430394D02*
X2654409D01*
Y418932D01*
X2637590D01*
Y430394D01*
X2572410D01*
Y380961D01*
X2637590D01*
Y392423D01*
X2654409D01*
Y380961D01*
X2719590D01*
Y430394D01*
D02*
G37*
G36*
X164244Y452741D02*
X150718D01*
X137653Y449240D01*
X125939Y442477D01*
X124692Y441230D01*
X157481Y408442D01*
X190270Y441230D01*
X189023Y442477D01*
X177309Y449240D01*
X164244Y452741D01*
D02*
G37*
G36*
X1961320Y520670D02*
X1955012D01*
X1949183Y518255D01*
X1944722Y513794D01*
X1942308Y507966D01*
Y501657D01*
X1944722Y495829D01*
X1945931Y494620D01*
Y486250D01*
X1921666D01*
Y387750D01*
X1994666D01*
Y486250D01*
X1970401D01*
Y494620D01*
X1971610Y495829D01*
X1974024Y501657D01*
Y507966D01*
X1971610Y513794D01*
X1967149Y518255D01*
X1961320Y520670D01*
D02*
G37*
G36*
X1861320Y520858D02*
X1855012D01*
X1849183Y518444D01*
X1844722Y513983D01*
X1842308Y508154D01*
Y501846D01*
X1844722Y496017D01*
X1845931Y494808D01*
Y486250D01*
X1821666D01*
Y387750D01*
X1894666D01*
Y486250D01*
X1870401D01*
Y494808D01*
X1871610Y496017D01*
X1874024Y501846D01*
Y508154D01*
X1871610Y513983D01*
X1867149Y518444D01*
X1861320Y520858D01*
D02*
G37*
G36*
X1761320D02*
X1755012D01*
X1749183Y518444D01*
X1744722Y513983D01*
X1742308Y508154D01*
Y501846D01*
X1744722Y496017D01*
X1745931Y494808D01*
Y486250D01*
X1721666D01*
Y387750D01*
X1794666D01*
Y486250D01*
X1770401D01*
Y494808D01*
X1771610Y496017D01*
X1774024Y501846D01*
Y508154D01*
X1771610Y513983D01*
X1767149Y518444D01*
X1761320Y520858D01*
D02*
G37*
G36*
X1095440Y519859D02*
X1089132D01*
X1083303Y517444D01*
X1078842Y512984D01*
X1076428Y507155D01*
Y500846D01*
X1078842Y495017D01*
X1079609Y494250D01*
X1078984Y486250D01*
X1055786D01*
Y387750D01*
X1128786D01*
Y486250D01*
X1105588D01*
X1104963Y494250D01*
X1105730Y495017D01*
X1108144Y500846D01*
Y507155D01*
X1105730Y512984D01*
X1101269Y517444D01*
X1095440Y519859D01*
D02*
G37*
G36*
X995440D02*
X989132D01*
X983303Y517444D01*
X978842Y512984D01*
X976428Y507155D01*
Y500846D01*
X978842Y495017D01*
X979609Y494250D01*
X978984Y486250D01*
X955786D01*
Y387750D01*
X1028786D01*
Y486250D01*
X1005588D01*
X1004963Y494250D01*
X1005730Y495017D01*
X1008144Y500846D01*
Y507155D01*
X1005730Y512984D01*
X1001269Y517444D01*
X995440Y519859D01*
D02*
G37*
G36*
X895440D02*
X889132D01*
X883303Y517444D01*
X878842Y512984D01*
X876428Y507155D01*
Y500846D01*
X878842Y495017D01*
X879609Y494250D01*
X878984Y486250D01*
X855786D01*
Y387750D01*
X928786D01*
Y486250D01*
X905588D01*
X904963Y494250D01*
X905730Y495017D01*
X908144Y500846D01*
Y507155D01*
X905730Y512984D01*
X901269Y517444D01*
X895440Y519859D01*
D02*
G37*
G36*
X617155Y520858D02*
X610846D01*
X605018Y518444D01*
X600557Y513983D01*
X598142Y508154D01*
Y501846D01*
X600557Y496017D01*
X601765Y494808D01*
Y486250D01*
X577500D01*
Y387750D01*
X650500D01*
Y486250D01*
X626236D01*
Y494808D01*
X627444Y496017D01*
X629859Y501846D01*
Y508154D01*
X627444Y513983D01*
X622984Y518444D01*
X617155Y520858D01*
D02*
G37*
G36*
X517155D02*
X510846D01*
X505017Y518444D01*
X500557Y513983D01*
X498142Y508154D01*
Y501846D01*
X500557Y496017D01*
X501765Y494808D01*
Y486250D01*
X477500D01*
Y387750D01*
X550500D01*
Y486250D01*
X526236D01*
Y494808D01*
X527444Y496017D01*
X529859Y501846D01*
Y508154D01*
X527444Y513983D01*
X522984Y518444D01*
X517155Y520858D01*
D02*
G37*
G36*
X417155Y519859D02*
X410846D01*
X405017Y517444D01*
X400557Y512984D01*
X398142Y507155D01*
Y500846D01*
X400557Y495017D01*
X401324Y494250D01*
X400699Y486250D01*
X377500D01*
Y387750D01*
X450500D01*
Y486250D01*
X427302D01*
X426677Y494250D01*
X427444Y495017D01*
X429859Y500846D01*
Y507155D01*
X427444Y512984D01*
X422983Y517444D01*
X417155Y519859D01*
D02*
G37*
G36*
X197341Y434159D02*
X164552Y401370D01*
X197341Y368582D01*
X198587Y369829D01*
X205350Y381542D01*
X208851Y394608D01*
Y408134D01*
X205350Y421199D01*
X198587Y432913D01*
X197341Y434159D01*
D02*
G37*
G36*
X117621D02*
X116375Y432913D01*
X109612Y421199D01*
X106111Y408134D01*
Y394608D01*
X109612Y381542D01*
X116375Y369829D01*
X117621Y368582D01*
X150410Y401370D01*
X117621Y434159D01*
D02*
G37*
G36*
X3462974Y645858D02*
X3456665D01*
X3450836Y643444D01*
X3446376Y638983D01*
X3443961Y633154D01*
Y626846D01*
X3446376Y621017D01*
X3450836Y616556D01*
X3456665Y614142D01*
X3458371D01*
X3464023Y608481D01*
X3464023Y608460D01*
X3467279Y601805D01*
X3467745Y599464D01*
X3467765D01*
Y395355D01*
X3467745D01*
X3466775Y390478D01*
X3464023Y386359D01*
X3464039Y386343D01*
X3440464Y362767D01*
X3440440Y362765D01*
X3440396Y362808D01*
X3434500Y355124D01*
X3430772Y346123D01*
X3429500Y336464D01*
X3429584D01*
Y123327D01*
X3428532D01*
X3424073Y122440D01*
X3420292Y119914D01*
X3413347D01*
X3409566Y122440D01*
X3405107Y123327D01*
X3402805D01*
Y294623D01*
X3405263Y297080D01*
X3407678Y302909D01*
Y309218D01*
X3405263Y315046D01*
X3400802Y319507D01*
X3394974Y321922D01*
X3388665D01*
X3382836Y319507D01*
X3378376Y315046D01*
X3375961Y309218D01*
Y302909D01*
X3378376Y297080D01*
X3380833Y294623D01*
Y123327D01*
X3378532D01*
X3374073Y122440D01*
X3370292Y119914D01*
X3363347D01*
X3359566Y122440D01*
X3355107Y123327D01*
X3328532D01*
X3324073Y122440D01*
X3320292Y119914D01*
X3313347D01*
X3309566Y122440D01*
X3305107Y123327D01*
X3304055D01*
Y156751D01*
X3321445Y174142D01*
X3323154D01*
X3328983Y176556D01*
X3333444Y181017D01*
X3335858Y186846D01*
Y193154D01*
X3333444Y198983D01*
X3328983Y203444D01*
X3323154Y205858D01*
X3316846D01*
X3311017Y203444D01*
X3306556Y198983D01*
X3304142Y193154D01*
Y191445D01*
X3283168Y170471D01*
X3280516Y166502D01*
X3279584Y161819D01*
Y123327D01*
X3278532D01*
X3274073Y122440D01*
X3270292Y119914D01*
X3263347D01*
X3259566Y122440D01*
X3255107Y123327D01*
X3254448D01*
Y245478D01*
X3256051Y247081D01*
X3258465Y252909D01*
Y259218D01*
X3256051Y265046D01*
X3251590Y269507D01*
X3245761Y271922D01*
X3239452D01*
X3233624Y269507D01*
X3229163Y265046D01*
X3226749Y259218D01*
Y252909D01*
X3229163Y247081D01*
X3229978Y246265D01*
Y123327D01*
X3228532D01*
X3224073Y122440D01*
X3220292Y119914D01*
X3213347D01*
X3209566Y122440D01*
X3205107Y123327D01*
X3204055D01*
Y172989D01*
X3205263Y174198D01*
X3207678Y180026D01*
Y186335D01*
X3205263Y192164D01*
X3200802Y196625D01*
X3194974Y199039D01*
X3188665D01*
X3182836Y196625D01*
X3178376Y192164D01*
X3175961Y186335D01*
Y180026D01*
X3178376Y174198D01*
X3179584Y172989D01*
Y123327D01*
X3178532D01*
X3174073Y122440D01*
X3170292Y119914D01*
X3163347D01*
X3159566Y122440D01*
X3156873Y122975D01*
X3155248Y130245D01*
X3155263Y131017D01*
X3157678Y136846D01*
Y143154D01*
X3155263Y148983D01*
X3150802Y153444D01*
X3144974Y155858D01*
X3138665D01*
X3132836Y153444D01*
X3128376Y148983D01*
X3125961Y143154D01*
Y136846D01*
X3128376Y131017D01*
X3128391Y130245D01*
X3126766Y122975D01*
X3124073Y122440D01*
X3120292Y119914D01*
X3113347D01*
X3109566Y122440D01*
X3105107Y123327D01*
X3104055D01*
Y172989D01*
X3105263Y174198D01*
X3107678Y180026D01*
Y186335D01*
X3105263Y192164D01*
X3100802Y196625D01*
X3094974Y199039D01*
X3088665D01*
X3082836Y196625D01*
X3078376Y192164D01*
X3075961Y186335D01*
Y180026D01*
X3078376Y174198D01*
X3079584Y172989D01*
Y123327D01*
X3078532D01*
X3074073Y122440D01*
X3070292Y119914D01*
X3063347D01*
X3059566Y122440D01*
X3055107Y123327D01*
X3054055D01*
Y138181D01*
X3053123Y142863D01*
X3050471Y146832D01*
X3038651Y158651D01*
X3034682Y161304D01*
X3030000Y162235D01*
X2990192D01*
X2988983Y163444D01*
X2983154Y165858D01*
X2976846D01*
X2971017Y163444D01*
X2966556Y158983D01*
X2964142Y153154D01*
Y146846D01*
X2966556Y141017D01*
X2971017Y136556D01*
X2976846Y134142D01*
X2983154D01*
X2988983Y136556D01*
X2990192Y137765D01*
X3024932D01*
X3029584Y133113D01*
Y123327D01*
X3028532D01*
X3024073Y122440D01*
X3020292Y119914D01*
X3013347D01*
X3009566Y122440D01*
X3005107Y123327D01*
X2978532D01*
X2974073Y122440D01*
X2970292Y119914D01*
X2967766Y116133D01*
X2966879Y111674D01*
Y98810D01*
X2915192D01*
X2913983Y100019D01*
X2908154Y102433D01*
X2901846D01*
X2896017Y100019D01*
X2891556Y95558D01*
X2889142Y89730D01*
Y83421D01*
X2891556Y77592D01*
X2896017Y73131D01*
X2901846Y70717D01*
X2908154D01*
X2913983Y73131D01*
X2915192Y74340D01*
X2966879D01*
Y61477D01*
X2967766Y57017D01*
X2970292Y53237D01*
X2974073Y50711D01*
X2978532Y49824D01*
X3005107D01*
X3009566Y50711D01*
X3013347Y53237D01*
X3020292D01*
X3024073Y50711D01*
X3028532Y49824D01*
X3055107D01*
X3059566Y50711D01*
X3063347Y53237D01*
X3070292D01*
X3074073Y50711D01*
X3078532Y49824D01*
X3105107D01*
X3109566Y50711D01*
X3113347Y53237D01*
X3120292D01*
X3124073Y50711D01*
X3128532Y49824D01*
X3155107D01*
X3159566Y50711D01*
X3163347Y53237D01*
X3170292D01*
X3174073Y50711D01*
X3178532Y49824D01*
X3205107D01*
X3209566Y50711D01*
X3213347Y53237D01*
X3220292D01*
X3224073Y50711D01*
X3228532Y49824D01*
X3255107D01*
X3259566Y50711D01*
X3263347Y53237D01*
X3270292D01*
X3274073Y50711D01*
X3278532Y49824D01*
X3305107D01*
X3309566Y50711D01*
X3313347Y53237D01*
X3320292D01*
X3324073Y50711D01*
X3328532Y49824D01*
X3355107D01*
X3359566Y50711D01*
X3363347Y53237D01*
X3370292D01*
X3374073Y50711D01*
X3378532Y49824D01*
X3405107D01*
X3409566Y50711D01*
X3413347Y53237D01*
X3420292D01*
X3424073Y50711D01*
X3428532Y49824D01*
X3455107D01*
X3459566Y50711D01*
X3463347Y53237D01*
X3470292D01*
X3474073Y50711D01*
X3478532Y49824D01*
X3505107D01*
X3509566Y50711D01*
X3513347Y53237D01*
X3520292D01*
X3524073Y50711D01*
X3528532Y49824D01*
X3555107D01*
X3559566Y50711D01*
X3563347Y53237D01*
X3570292D01*
X3574073Y50711D01*
X3578532Y49824D01*
X3605107D01*
X3609566Y50711D01*
X3613347Y53237D01*
X3615873Y57017D01*
X3616760Y61477D01*
Y111674D01*
X3615873Y116133D01*
X3613347Y119914D01*
X3609566Y122440D01*
X3605107Y123327D01*
X3604055D01*
Y201751D01*
X3626445Y224142D01*
X3628154D01*
X3633983Y226556D01*
X3638444Y231017D01*
X3640858Y236846D01*
Y243154D01*
X3638444Y248983D01*
X3633983Y253444D01*
X3628154Y255858D01*
X3621846D01*
X3616017Y253444D01*
X3611556Y248983D01*
X3609142Y243154D01*
Y241445D01*
X3583168Y215471D01*
X3580516Y211502D01*
X3579584Y206819D01*
Y123327D01*
X3578532D01*
X3574073Y122440D01*
X3570292Y119914D01*
X3563347D01*
X3559566Y122440D01*
X3555107Y123327D01*
X3552805D01*
Y367899D01*
X3564678Y379772D01*
X3568154D01*
X3573983Y382187D01*
X3578444Y386647D01*
X3580858Y392476D01*
Y398785D01*
X3578444Y404613D01*
X3573983Y409074D01*
X3568154Y411489D01*
X3561846D01*
X3556017Y409074D01*
X3551556Y404613D01*
X3549142Y398785D01*
Y395309D01*
X3534051Y380218D01*
X3531670Y376654D01*
X3530833Y372450D01*
Y123327D01*
X3528532D01*
X3524073Y122440D01*
X3520292Y119914D01*
X3513347D01*
X3509566Y122440D01*
X3505107Y123327D01*
X3504055D01*
Y199808D01*
X3505263Y201017D01*
X3507678Y206846D01*
Y213154D01*
X3505263Y218983D01*
X3500802Y223444D01*
X3494974Y225858D01*
X3488665D01*
X3482836Y223444D01*
X3478376Y218983D01*
X3475961Y213154D01*
Y206846D01*
X3478376Y201017D01*
X3479584Y199808D01*
Y123327D01*
X3478532D01*
X3474073Y122440D01*
X3470292Y119914D01*
X3463347D01*
X3459566Y122440D01*
X3455107Y123327D01*
X3454055D01*
Y336464D01*
X3454075D01*
X3454540Y338807D01*
X3457797Y345460D01*
X3457797Y345494D01*
X3481355Y369052D01*
X3481379Y369055D01*
X3481423Y369011D01*
X3487320Y376696D01*
X3491048Y385696D01*
X3492319Y395355D01*
X3492235D01*
Y599464D01*
X3492319D01*
X3491048Y609123D01*
X3487320Y618124D01*
X3481423Y625808D01*
X3481379Y625765D01*
X3481356Y625767D01*
X3475678Y631445D01*
Y633154D01*
X3473263Y638983D01*
X3468802Y643444D01*
X3462974Y645858D01*
D02*
G37*
G36*
X157481Y394300D02*
X124692Y361511D01*
X125939Y360264D01*
X137653Y353501D01*
X150718Y350000D01*
X164244D01*
X177309Y353501D01*
X189023Y360264D01*
X190270Y361511D01*
X157481Y394300D01*
D02*
G37*
G36*
X1580039Y381669D02*
X1535740Y337370D01*
X1624339D01*
X1580039Y381669D01*
D02*
G37*
G36*
X1485740Y354299D02*
X1441441Y310000D01*
X1485740Y265701D01*
Y354299D01*
D02*
G37*
G36*
X1304260Y354299D02*
Y265701D01*
X1348559Y310000D01*
X1304260Y354299D01*
D02*
G37*
G36*
X2637590Y347717D02*
X2572410D01*
Y298284D01*
X2591745D01*
Y289172D01*
X2591556Y288983D01*
X2589142Y283154D01*
Y276846D01*
X2591556Y271017D01*
X2596017Y266556D01*
X2601846Y264142D01*
X2608154D01*
X2613983Y266556D01*
X2618444Y271017D01*
X2620858Y276846D01*
Y283154D01*
X2618444Y288983D01*
X2618255Y289172D01*
Y298284D01*
X2637590D01*
Y347717D01*
D02*
G37*
G36*
X1478669Y361370D02*
X1311331D01*
X1359166Y313536D01*
X1355630Y310000D01*
X1359166Y306464D01*
X1311331Y258630D01*
X1478669D01*
X1430835Y306464D01*
X1434370Y310000D01*
X1430835Y313536D01*
X1478669Y361370D01*
D02*
G37*
G36*
X1961320Y229236D02*
X1955012D01*
X1949183Y226822D01*
X1944722Y222361D01*
X1942308Y216532D01*
Y210224D01*
X1944722Y204395D01*
X1945931Y203186D01*
Y161750D01*
X1921666D01*
Y63251D01*
X1994666D01*
Y161750D01*
X1970401D01*
Y203186D01*
X1971610Y204395D01*
X1974024Y210224D01*
Y216532D01*
X1971610Y222361D01*
X1967149Y226822D01*
X1961320Y229236D01*
D02*
G37*
G36*
X1861320D02*
X1855012D01*
X1849183Y226822D01*
X1844722Y222361D01*
X1842308Y216532D01*
Y210224D01*
X1844722Y204395D01*
X1845931Y203186D01*
Y161750D01*
X1821666D01*
Y63251D01*
X1894666D01*
Y161750D01*
X1870401D01*
Y203186D01*
X1871610Y204395D01*
X1874024Y210224D01*
Y216532D01*
X1871610Y222361D01*
X1867149Y226822D01*
X1861320Y229236D01*
D02*
G37*
G36*
X1761320D02*
X1755012D01*
X1749183Y226822D01*
X1744722Y222361D01*
X1742308Y216532D01*
Y210224D01*
X1744722Y204395D01*
X1745931Y203186D01*
Y161750D01*
X1721666D01*
Y63251D01*
X1794666D01*
Y161750D01*
X1770401D01*
Y203186D01*
X1771610Y204395D01*
X1774024Y210224D01*
Y216532D01*
X1771610Y222361D01*
X1767149Y226822D01*
X1761320Y229236D01*
D02*
G37*
G36*
X1095440Y220858D02*
X1089132D01*
X1083303Y218444D01*
X1078842Y213983D01*
X1076428Y208154D01*
Y201846D01*
X1078842Y196017D01*
X1080051Y194808D01*
Y161750D01*
X1055786D01*
Y63251D01*
X1128786D01*
Y161750D01*
X1104521D01*
Y194808D01*
X1105730Y196017D01*
X1108144Y201846D01*
Y208154D01*
X1105730Y213983D01*
X1101269Y218444D01*
X1095440Y220858D01*
D02*
G37*
G36*
X995440D02*
X989132D01*
X983303Y218444D01*
X978842Y213983D01*
X976428Y208154D01*
Y201846D01*
X978842Y196017D01*
X980051Y194808D01*
Y161750D01*
X955786D01*
Y63251D01*
X1028786D01*
Y161750D01*
X1004521D01*
Y194808D01*
X1005730Y196017D01*
X1008144Y201846D01*
Y208154D01*
X1005730Y213983D01*
X1001269Y218444D01*
X995440Y220858D01*
D02*
G37*
G36*
X895440D02*
X889132D01*
X883303Y218444D01*
X878842Y213983D01*
X876428Y208154D01*
Y201846D01*
X878842Y196017D01*
X880051Y194808D01*
Y161750D01*
X855786D01*
Y63251D01*
X928786D01*
Y161750D01*
X904521D01*
Y194808D01*
X905730Y196017D01*
X908144Y201846D01*
Y208154D01*
X905730Y213983D01*
X901269Y218444D01*
X895440Y220858D01*
D02*
G37*
G36*
X617155D02*
X610846D01*
X605018Y218444D01*
X600557Y213983D01*
X598142Y208154D01*
Y201846D01*
X600557Y196017D01*
X601765Y194808D01*
Y161750D01*
X577500D01*
Y63251D01*
X650500D01*
Y161750D01*
X626236D01*
Y194808D01*
X627444Y196017D01*
X629859Y201846D01*
Y208154D01*
X627444Y213983D01*
X622984Y218444D01*
X617155Y220858D01*
D02*
G37*
G36*
X517155D02*
X510846D01*
X505017Y218444D01*
X500557Y213983D01*
X498142Y208154D01*
Y201846D01*
X500557Y196017D01*
X501765Y194808D01*
Y161750D01*
X477500D01*
Y63251D01*
X550500D01*
Y161750D01*
X526236D01*
Y194808D01*
X527444Y196017D01*
X529859Y201846D01*
Y208154D01*
X527444Y213983D01*
X522984Y218444D01*
X517155Y220858D01*
D02*
G37*
G36*
X417155D02*
X410846D01*
X405017Y218444D01*
X400557Y213983D01*
X398142Y208154D01*
Y201846D01*
X400557Y196017D01*
X401765Y194808D01*
Y161750D01*
X377500D01*
Y63251D01*
X450500D01*
Y161750D01*
X426236D01*
Y194808D01*
X427444Y196017D01*
X429859Y201846D01*
Y208154D01*
X427444Y213983D01*
X422983Y218444D01*
X417155Y220858D01*
D02*
G37*
G36*
X167327Y282591D02*
X147634D01*
X128184Y279510D01*
X109455Y273425D01*
X91909Y264485D01*
X75977Y252910D01*
X62052Y238985D01*
X50477Y223053D01*
X41537Y205506D01*
X35451Y186778D01*
X32371Y167327D01*
Y147634D01*
X35451Y128184D01*
X41537Y109455D01*
X50477Y91909D01*
X62052Y75977D01*
X75977Y62052D01*
X91909Y50477D01*
X109455Y41537D01*
X128184Y35451D01*
X147634Y32371D01*
X167327D01*
X186778Y35451D01*
X205506Y41537D01*
X223053Y50477D01*
X238985Y62052D01*
X252910Y75977D01*
X264485Y91909D01*
X273425Y109455D01*
X279510Y128184D01*
X282591Y147634D01*
Y167327D01*
X279510Y186778D01*
X273425Y205506D01*
X264485Y223053D01*
X252910Y238985D01*
X238985Y252910D01*
X223053Y264485D01*
X205506Y273425D01*
X186778Y279510D01*
X167327Y282591D01*
D02*
G37*
%LPD*%
G36*
X2676133Y1039540D02*
X2679863Y1038798D01*
X2683368D01*
X2687336Y1035741D01*
X2690392Y1031774D01*
Y1028268D01*
X2691134Y1024539D01*
X2693247Y1021377D01*
Y1020593D01*
X2691134Y1017431D01*
X2690392Y1013702D01*
Y1008583D01*
X2691134Y1004854D01*
X2693037Y1001300D01*
X2691134Y997746D01*
X2690392Y994016D01*
Y988898D01*
X2691134Y985168D01*
X2693247Y982007D01*
Y981223D01*
X2691134Y978061D01*
X2690392Y974331D01*
Y969213D01*
X2691134Y965484D01*
X2693247Y962322D01*
Y961538D01*
X2691134Y958376D01*
X2690392Y954646D01*
Y949528D01*
X2691134Y945798D01*
X2693037Y942245D01*
X2691134Y938691D01*
X2690392Y934961D01*
Y929843D01*
X2691134Y926113D01*
X2693247Y922952D01*
Y922168D01*
X2691134Y919006D01*
X2690392Y915276D01*
Y911771D01*
X2687336Y907803D01*
X2683368Y904747D01*
X2679863D01*
X2676133Y904005D01*
X2672971Y901892D01*
X2672188D01*
X2669026Y904005D01*
X2665296Y904747D01*
X2660217D01*
X2658270Y907660D01*
X2652462Y911541D01*
X2645611Y912904D01*
X2640493D01*
X2633642Y911541D01*
X2633209Y911252D01*
X2632777Y911541D01*
X2625926Y912904D01*
X2620808D01*
X2613957Y911541D01*
X2608148Y907660D01*
X2604268Y901852D01*
X2603682Y898907D01*
X2595902Y898738D01*
X2595506Y898812D01*
X2593448Y901892D01*
X2590286Y904005D01*
X2586556Y904747D01*
X2581438D01*
X2577708Y904005D01*
X2574546Y901892D01*
X2573762D01*
X2570601Y904005D01*
X2566871Y904747D01*
X2563365D01*
X2559398Y907803D01*
X2556342Y911771D01*
Y915276D01*
X2555600Y919006D01*
X2553487Y922168D01*
Y922952D01*
X2555600Y926113D01*
X2556342Y929843D01*
Y934961D01*
X2555600Y938691D01*
X2553697Y942245D01*
X2555600Y945799D01*
X2556342Y949528D01*
Y954646D01*
X2555600Y958376D01*
X2553487Y961538D01*
Y962322D01*
X2555600Y965484D01*
X2556342Y969213D01*
Y974331D01*
X2555600Y978061D01*
X2553487Y981223D01*
Y982007D01*
X2555600Y985168D01*
X2556342Y988898D01*
Y994016D01*
X2555600Y997746D01*
X2553697Y1001300D01*
X2555600Y1004854D01*
X2556342Y1008583D01*
Y1013702D01*
X2555600Y1017431D01*
X2553487Y1020593D01*
Y1021377D01*
X2555600Y1024539D01*
X2556342Y1028268D01*
Y1031774D01*
X2559398Y1035741D01*
X2563365Y1038798D01*
X2566871D01*
X2570601Y1039540D01*
X2573762Y1041652D01*
X2574546D01*
X2577708Y1039540D01*
X2581438Y1038798D01*
X2586556D01*
X2590286Y1039540D01*
X2593839Y1041442D01*
X2597393Y1039539D01*
X2601123Y1038798D01*
X2606241D01*
X2609971Y1039540D01*
X2613133Y1041652D01*
X2613916D01*
X2617078Y1039540D01*
X2620808Y1038798D01*
X2625926D01*
X2629656Y1039540D01*
X2632818Y1041652D01*
X2633601D01*
X2636763Y1039540D01*
X2640493Y1038798D01*
X2645611D01*
X2649341Y1039540D01*
X2652894Y1041442D01*
X2656448Y1039539D01*
X2660178Y1038798D01*
X2665296D01*
X2669026Y1039540D01*
X2672188Y1041652D01*
X2672971D01*
X2676133Y1039540D01*
D02*
G37*
G36*
X2830000Y880000D02*
X2740000D01*
Y922884D01*
X2740101Y922951D01*
X2742214Y926113D01*
X2742956Y929843D01*
Y934961D01*
X2742214Y938691D01*
X2740101Y941853D01*
Y942637D01*
X2742214Y945798D01*
X2742956Y949528D01*
Y954646D01*
X2742214Y958376D01*
X2740101Y961538D01*
Y962322D01*
X2742214Y965484D01*
X2742956Y969213D01*
Y974331D01*
X2742214Y978061D01*
X2740101Y981223D01*
Y982007D01*
X2742214Y985168D01*
X2742956Y988898D01*
Y994016D01*
X2742214Y997746D01*
X2740101Y1000908D01*
Y1001692D01*
X2742214Y1004854D01*
X2742956Y1008583D01*
Y1013702D01*
X2742214Y1017431D01*
X2740101Y1020593D01*
Y1021377D01*
X2742214Y1024539D01*
X2742956Y1028268D01*
Y1033387D01*
X2742214Y1037116D01*
X2740101Y1040278D01*
X2740000Y1040346D01*
Y1095000D01*
X2830000D01*
Y880000D01*
D02*
G37*
G36*
X2400000Y805000D02*
Y788741D01*
X2397990Y786971D01*
X2392000Y784265D01*
X2388154Y785858D01*
X2381846D01*
X2376017Y783444D01*
X2371556Y778983D01*
X2369142Y773154D01*
Y766846D01*
X2371556Y761017D01*
X2376017Y756556D01*
X2381846Y754142D01*
X2388154D01*
X2392000Y755735D01*
X2397990Y753029D01*
X2400000Y751259D01*
Y590000D01*
X2323166Y513166D01*
X2320064D01*
Y510064D01*
X2285000Y475000D01*
Y419598D01*
X2284953Y419567D01*
X2283406Y417251D01*
X2282863Y414520D01*
X2282863Y342956D01*
X2279907Y340000D01*
X2225000D01*
Y490000D01*
X2204142Y510858D01*
Y513166D01*
X2201834D01*
X2195000Y520000D01*
X2130000D01*
Y720000D01*
X2155000Y745000D01*
X2210000D01*
Y810000D01*
X2225000Y825000D01*
X2380000D01*
X2400000Y805000D01*
D02*
G37*
G36*
X2480000Y415000D02*
X2363000D01*
Y349339D01*
X2329339D01*
X2275000Y295000D01*
Y255000D01*
X2260000D01*
Y310000D01*
X2290000Y340000D01*
X2290000Y414520D01*
X2294693D01*
Y469693D01*
X2335000Y510000D01*
X2480000D01*
X2480000Y415000D01*
D02*
G37*
%LPC*%
G36*
X1333141Y1744284D02*
X1319615D01*
X1306550Y1740783D01*
X1294836Y1734020D01*
X1293589Y1732773D01*
X1326378Y1699984D01*
X1359167Y1732773D01*
X1357920Y1734020D01*
X1346206Y1740783D01*
X1333141Y1744284D01*
D02*
G37*
G36*
X1366238Y1725702D02*
X1333449Y1692913D01*
X1366238Y1660125D01*
X1367484Y1661371D01*
X1374247Y1673085D01*
X1377748Y1686150D01*
Y1699676D01*
X1374247Y1712742D01*
X1367484Y1724455D01*
X1366238Y1725702D01*
D02*
G37*
G36*
X1286518Y1725702D02*
X1285272Y1724455D01*
X1278509Y1712742D01*
X1275008Y1699676D01*
Y1686150D01*
X1278509Y1673085D01*
X1285272Y1661371D01*
X1286518Y1660125D01*
X1319307Y1692913D01*
X1286518Y1725702D01*
D02*
G37*
G36*
X1326378Y1685842D02*
X1293590Y1653054D01*
X1294836Y1651807D01*
X1306550Y1645044D01*
X1319615Y1641543D01*
X1333141D01*
X1346206Y1645044D01*
X1357920Y1651807D01*
X1359167Y1653054D01*
X1326378Y1685842D01*
D02*
G37*
G36*
X683535Y1744284D02*
X670009D01*
X656944Y1740783D01*
X645230Y1734020D01*
X643983Y1732773D01*
X676772Y1699984D01*
X709560Y1732773D01*
X708314Y1734020D01*
X696600Y1740783D01*
X683535Y1744284D01*
D02*
G37*
G36*
X636912Y1725702D02*
X635665Y1724455D01*
X628902Y1712742D01*
X625402Y1699676D01*
Y1686150D01*
X628902Y1673085D01*
X635665Y1661371D01*
X636912Y1660125D01*
X669701Y1692913D01*
X636912Y1725702D01*
D02*
G37*
G36*
X716631Y1725702D02*
X683843Y1692913D01*
X716631Y1660125D01*
X717878Y1661371D01*
X724641Y1673085D01*
X728142Y1686150D01*
Y1699676D01*
X724641Y1712742D01*
X717878Y1724455D01*
X716631Y1725702D01*
D02*
G37*
G36*
X676772Y1685842D02*
X643983Y1653054D01*
X645230Y1651807D01*
X656944Y1645044D01*
X670009Y1641543D01*
X683535D01*
X696600Y1645044D01*
X708314Y1651807D01*
X709560Y1653054D01*
X676772Y1685842D01*
D02*
G37*
G36*
X3233154Y900858D02*
X3226846D01*
X3221017Y898444D01*
X3216556Y893983D01*
X3214142Y888154D01*
Y881846D01*
X3216556Y876017D01*
X3221017Y871556D01*
X3226846Y869142D01*
X3233154D01*
X3238983Y871556D01*
X3243444Y876017D01*
X3245858Y881846D01*
Y888154D01*
X3243444Y893983D01*
X3238983Y898444D01*
X3233154Y900858D01*
D02*
G37*
G36*
X1982747Y1744284D02*
X1969221D01*
X1956156Y1740783D01*
X1944442Y1734020D01*
X1943196Y1732773D01*
X1975984Y1699984D01*
X2008773Y1732773D01*
X2007526Y1734020D01*
X1995812Y1740783D01*
X1982747Y1744284D01*
D02*
G37*
G36*
X1936125Y1725702D02*
X1934878Y1724455D01*
X1928115Y1712742D01*
X1924614Y1699676D01*
Y1686150D01*
X1928115Y1673085D01*
X1934878Y1661371D01*
X1936125Y1660125D01*
X1968913Y1692913D01*
X1936125Y1725702D01*
D02*
G37*
G36*
X2015844Y1725702D02*
X1983055Y1692913D01*
X2015844Y1660125D01*
X2017091Y1661371D01*
X2023854Y1673085D01*
X2027354Y1686150D01*
Y1699676D01*
X2023854Y1712742D01*
X2017091Y1724455D01*
X2015844Y1725702D01*
D02*
G37*
G36*
X1975984Y1685842D02*
X1943196Y1653054D01*
X1944442Y1651807D01*
X1956156Y1645044D01*
X1969221Y1641543D01*
X1982747D01*
X1995812Y1645044D01*
X2007526Y1651807D01*
X2008773Y1653054D01*
X1975984Y1685842D01*
D02*
G37*
G36*
X1832747Y1744284D02*
X1819221D01*
X1806156Y1740783D01*
X1794442Y1734020D01*
X1793196Y1732773D01*
X1825984Y1699984D01*
X1858773Y1732773D01*
X1857526Y1734020D01*
X1845812Y1740783D01*
X1832747Y1744284D01*
D02*
G37*
G36*
X1786125Y1725702D02*
X1784878Y1724455D01*
X1778115Y1712742D01*
X1774614Y1699676D01*
Y1686150D01*
X1778115Y1673085D01*
X1784878Y1661371D01*
X1786125Y1660125D01*
X1818913Y1692913D01*
X1786125Y1725702D01*
D02*
G37*
G36*
X1865844Y1725702D02*
X1833055Y1692913D01*
X1865844Y1660125D01*
X1867091Y1661371D01*
X1873854Y1673085D01*
X1877354Y1686150D01*
Y1699676D01*
X1873854Y1712742D01*
X1867091Y1724455D01*
X1865844Y1725702D01*
D02*
G37*
G36*
X1825984Y1685842D02*
X1793196Y1653054D01*
X1794442Y1651807D01*
X1806156Y1645044D01*
X1819221Y1641543D01*
X1832747D01*
X1845812Y1645044D01*
X1857526Y1651807D01*
X1858773Y1653054D01*
X1825984Y1685842D01*
D02*
G37*
G36*
X1183141Y1744284D02*
X1169615D01*
X1156550Y1740783D01*
X1144836Y1734020D01*
X1143589Y1732773D01*
X1176378Y1699984D01*
X1209167Y1732773D01*
X1207920Y1734020D01*
X1196206Y1740783D01*
X1183141Y1744284D01*
D02*
G37*
G36*
X1216238Y1725702D02*
X1183449Y1692913D01*
X1216238Y1660125D01*
X1217484Y1661371D01*
X1224247Y1673085D01*
X1227748Y1686150D01*
Y1699676D01*
X1224247Y1712742D01*
X1217484Y1724455D01*
X1216238Y1725702D01*
D02*
G37*
G36*
X1136518Y1725702D02*
X1135272Y1724455D01*
X1128509Y1712742D01*
X1125008Y1699676D01*
Y1686150D01*
X1128509Y1673085D01*
X1135272Y1661371D01*
X1136518Y1660125D01*
X1169307Y1692913D01*
X1136518Y1725702D01*
D02*
G37*
G36*
X1176378Y1685842D02*
X1143590Y1653054D01*
X1144836Y1651807D01*
X1156550Y1645044D01*
X1169615Y1641543D01*
X1183141D01*
X1196206Y1645044D01*
X1207920Y1651807D01*
X1209167Y1653054D01*
X1176378Y1685842D01*
D02*
G37*
G36*
X533535Y1744284D02*
X520009D01*
X506944Y1740783D01*
X495230Y1734020D01*
X493983Y1732773D01*
X526772Y1699984D01*
X559560Y1732773D01*
X558314Y1734020D01*
X546600Y1740783D01*
X533535Y1744284D01*
D02*
G37*
G36*
X486912Y1725702D02*
X485665Y1724455D01*
X478902Y1712742D01*
X475402Y1699676D01*
Y1686150D01*
X478902Y1673085D01*
X485665Y1661371D01*
X486912Y1660125D01*
X519701Y1692913D01*
X486912Y1725702D01*
D02*
G37*
G36*
X566631Y1725702D02*
X533843Y1692913D01*
X566631Y1660125D01*
X567878Y1661371D01*
X574641Y1673085D01*
X578142Y1686150D01*
Y1699676D01*
X574641Y1712742D01*
X567878Y1724455D01*
X566631Y1725702D01*
D02*
G37*
G36*
X382876Y1739284D02*
X370667D01*
X358873Y1736123D01*
X348300Y1730019D01*
X339666Y1721385D01*
X333562Y1710812D01*
X330402Y1699018D01*
Y1686809D01*
X333562Y1675015D01*
X339666Y1664441D01*
X348300Y1655808D01*
X358873Y1649703D01*
X370667Y1646543D01*
X382876D01*
X394670Y1649703D01*
X405244Y1655808D01*
X413877Y1664441D01*
X419982Y1675015D01*
X423142Y1686809D01*
Y1699018D01*
X419982Y1710812D01*
X413877Y1721385D01*
X405244Y1730019D01*
X394670Y1736123D01*
X382876Y1739284D01*
D02*
G37*
G36*
X526772Y1685842D02*
X493983Y1653054D01*
X495230Y1651807D01*
X506944Y1645044D01*
X520009Y1641543D01*
X533535D01*
X546600Y1645044D01*
X558314Y1651807D01*
X559560Y1653054D01*
X526772Y1685842D01*
D02*
G37*
G36*
X1468154Y1154437D02*
X1461846D01*
X1456017Y1152022D01*
X1451556Y1147561D01*
X1449142Y1141733D01*
Y1135424D01*
X1451556Y1129595D01*
X1456017Y1125134D01*
X1461846Y1122720D01*
X1468154D01*
X1473983Y1125134D01*
X1478444Y1129595D01*
X1480858Y1135424D01*
Y1141733D01*
X1478444Y1147561D01*
X1473983Y1152022D01*
X1468154Y1154437D01*
D02*
G37*
%LPD*%
D10*
X3449115Y354115D02*
G03*
X3441819Y336464I17704J-17651D01*
G01*
X3472704Y377704D02*
G03*
X3480000Y395355I-17704J17651D01*
G01*
Y599464D02*
G03*
X3472704Y617115I-25000J0D01*
G01*
X2419102Y840355D02*
G03*
X2426398Y822704I25000J0D01*
G01*
X2449102Y789645D02*
G03*
X2441816Y807287I-25000J0D01*
G01*
X2466212Y979033D02*
G03*
X2483828Y971772I17616J17739D01*
G01*
X2434102Y1021498D02*
G03*
X2441363Y1003882I25000J0D01*
G01*
X3564882Y1715118D02*
Y1760000D01*
Y1860000D02*
Y1910000D01*
X3390000Y1860000D02*
X3482205D01*
X3675000Y1626339D02*
Y1672000D01*
X3770001Y1767001D01*
X1810851Y1159723D02*
Y1323256D01*
X1761851Y1335000D02*
X1799107D01*
X1810851Y1323256D01*
X1082995Y1159723D02*
Y1322005D01*
X1033995Y1335000D02*
X1070000D01*
X1082995Y1322005D01*
X344270Y1178026D02*
Y1317945D01*
X327215Y1335000D02*
X344270Y1317945D01*
X295270Y1335000D02*
X327215D01*
X670577Y937487D02*
X670695Y937605D01*
X720000D01*
X588661Y976595D02*
Y1015584D01*
Y937605D02*
Y976595D01*
X505758Y976975D02*
X588281D01*
X588661Y976595D01*
X587900Y1016345D02*
X588661Y1015584D01*
X2025615Y989792D02*
X2054422D01*
X2012799Y976975D02*
X2025615Y989792D01*
X2054422D02*
Y1030827D01*
Y948756D02*
Y989792D01*
X1972339Y976975D02*
X2012799D01*
X1326625Y976975D02*
Y1016345D01*
Y937605D02*
Y976975D01*
X1244483Y976975D02*
X1326624D01*
X1326625Y976975D01*
X844827Y1068001D02*
X973025D01*
X838969Y1032826D02*
Y1062143D01*
X844827Y1068001D01*
X1936575Y1162172D02*
Y1230591D01*
X1982851Y1276867D02*
Y1335000D01*
X1936575Y1230591D02*
X1982851Y1276867D01*
X1208719Y1162172D02*
Y1239610D01*
X1254995Y1285886D02*
Y1335000D01*
X1208719Y1239610D02*
X1254995Y1285886D01*
X472368Y1159723D02*
Y1238513D01*
X516270Y1282415D02*
Y1335000D01*
X472368Y1238513D02*
X516270Y1282415D01*
X2670000Y463843D02*
Y526520D01*
X3431678Y858141D02*
Y873322D01*
X3420000Y885000D02*
X3431678Y873322D01*
Y858141D02*
X3471639Y818181D01*
X2768661Y320106D02*
X2810000D01*
X2851339D02*
X2888755D01*
X2845000Y249819D02*
X2888755Y206064D01*
X2942607D01*
X3443523Y1356476D02*
Y1366709D01*
Y1356476D02*
X3445000Y1355000D01*
X3404524Y1405709D02*
X3443523Y1366709D01*
X3404524Y1405709D02*
Y1413583D01*
X3420000Y885000D02*
Y920000D01*
X3471639Y818181D02*
X3526870D01*
X3532728Y784643D02*
Y812323D01*
Y784643D02*
X3541819Y775552D01*
X3526870Y818181D02*
X3532728Y812323D01*
X3441820Y775552D02*
Y809142D01*
X3441819Y775552D02*
X3441820Y775552D01*
X3355000Y846438D02*
X3404524D01*
X3441820Y809142D01*
X2842717Y687323D02*
X2845000D01*
X2830000Y700039D02*
X2842717Y687323D01*
X2830000Y700039D02*
Y728691D01*
X2682422Y815123D02*
Y822997D01*
Y807249D02*
Y815123D01*
X2719671Y770000D02*
X2845000D01*
X2682422Y807249D02*
X2719671Y770000D01*
X2662737Y842682D02*
Y878465D01*
Y842682D02*
X2682422Y822997D01*
X2908583Y1413583D02*
X3026819D01*
X2810540Y1315540D02*
X2908583Y1413583D01*
X3026819D02*
X3339811D01*
X3404524D01*
X3339811Y1236417D02*
X3404524D01*
X3026819D02*
X3339811D01*
X3250000Y1470000D02*
X3335502D01*
X3346360Y1480858D02*
X3543192D01*
X3335502Y1470000D02*
X3346360Y1480858D01*
X3554779Y1469272D02*
X3776271D01*
X3543192Y1480858D02*
X3554779Y1469272D01*
X2892894Y846438D02*
Y877898D01*
X2930000Y915004D02*
Y1117114D01*
X2892894Y877898D02*
X2930000Y915004D01*
X3339811Y971772D02*
X3340000Y971584D01*
Y900000D02*
Y971584D01*
X3071772Y971772D02*
X3114811Y1014812D01*
X3220000D01*
X3026819Y971772D02*
X3071772D01*
X2930000Y1117114D02*
X2961823Y1148938D01*
X3026819D01*
X3339811Y971772D02*
Y1014812D01*
X3404524Y1079524D02*
Y1148938D01*
X3339811Y1014812D02*
X3404524Y1079524D01*
X3323749Y1165000D02*
X3339811Y1148938D01*
X3207882Y1165000D02*
X3323749D01*
X3191819Y1148938D02*
X3207882Y1165000D01*
X3026819Y1148938D02*
X3191819D01*
X3445000Y1413583D02*
X3487201D01*
X2810540Y1199996D02*
Y1315540D01*
X2961823Y946815D02*
Y986772D01*
X3041819Y775552D02*
Y866819D01*
X2961823Y946815D02*
X3041819Y866819D01*
X2603682Y839429D02*
Y878465D01*
X2590729Y826476D02*
X2603682Y839429D01*
X2576477Y826476D02*
X2590729D01*
X2575000Y825000D02*
X2576477Y826476D01*
X2550000Y1115000D02*
X2639895D01*
X2645753Y1120858D01*
Y1162594D01*
X2493327Y1058327D02*
X2550000Y1115000D01*
X3291819Y775552D02*
Y1130000D01*
X1352963Y784351D02*
Y815669D01*
X1352963Y815669D01*
X1313696D02*
X1355286D01*
X1396877D01*
X179900Y950149D02*
X225149D01*
X251975Y976975D02*
X316782D01*
X225149Y950149D02*
X251975Y976975D01*
X257290Y957290D02*
X316782D01*
X192617Y906454D02*
X206454D01*
X179900Y888487D02*
Y893737D01*
X192617Y906454D01*
X206454D02*
X257290Y957290D01*
X997290D02*
X1055506D01*
X918625Y888487D02*
Y892767D01*
X931341Y905483D02*
X945483D01*
X918625Y892767D02*
X931341Y905483D01*
X945483D02*
X997290Y957290D01*
X1722290D02*
X1783363D01*
X1646481Y888487D02*
Y894528D01*
X1659197Y907244D02*
X1672244D01*
X1646481Y894528D02*
X1659197Y907244D01*
X1672244D02*
X1722290Y957290D01*
X2419102Y840355D02*
Y869410D01*
X2449102Y630000D02*
Y789645D01*
X2426398Y822704D02*
X2441816Y807287D01*
X2493327Y997433D02*
Y1058327D01*
X1673587Y813479D02*
X1761374Y901267D01*
X1817890D01*
X1818796Y902172D01*
X236794Y815669D02*
X323297Y902172D01*
X352215D01*
X975000Y815669D02*
X1061370Y902040D01*
X1090807D01*
X1958166Y437000D02*
Y504812D01*
X1858166Y437000D02*
Y505000D01*
X1758166Y437000D02*
Y505000D01*
X1092286Y437000D02*
Y504000D01*
X992286Y437000D02*
Y504000D01*
X892286Y437000D02*
Y504000D01*
X1958166Y112501D02*
Y213378D01*
X1858166Y112501D02*
Y213378D01*
X1758166Y112501D02*
Y213378D01*
X1092286Y112501D02*
Y205000D01*
X992286Y112501D02*
Y205000D01*
X892286Y112501D02*
Y205000D01*
X414000Y112501D02*
Y205000D01*
X514000Y112501D02*
Y205000D01*
X614000Y112501D02*
Y205000D01*
X320585Y784744D02*
Y815669D01*
Y748612D02*
Y784744D01*
X614000Y437000D02*
Y505000D01*
X514000Y437000D02*
Y505000D01*
X414000Y437000D02*
Y504000D01*
X3776271Y1469272D02*
X3776999Y1468543D01*
X1082995Y1159723D02*
X1110625Y1132093D01*
X1858166Y843458D02*
Y902172D01*
X1826166Y784351D02*
Y811458D01*
X1858166Y843458D01*
X1963704Y855575D02*
X1987536Y831743D01*
Y784744D02*
Y831743D01*
X1877851Y854766D02*
X1910000Y822617D01*
Y743012D02*
Y822617D01*
X1877851Y854766D02*
Y902172D01*
X1897536Y866321D02*
X1937775Y826082D01*
X1958536D01*
X1897536Y866321D02*
Y902172D01*
X1799685Y829802D02*
X1836701Y866819D01*
X1746851Y818508D02*
X1758146Y829802D01*
X1799685D01*
X1746851Y743012D02*
Y818508D01*
X1837575Y901267D02*
X1838481Y902172D01*
X1836701Y866819D02*
Y878920D01*
X1837575Y879794D01*
Y901267D01*
X1673587Y784351D02*
Y813479D01*
X2066906Y784744D02*
Y826082D01*
X508109Y855575D02*
X538914Y824770D01*
Y784724D02*
Y824770D01*
X236794Y784744D02*
Y815669D01*
X1052090Y785264D02*
Y811602D01*
X1051570Y784744D02*
X1052090Y785264D01*
Y811602D02*
X1110625Y870138D01*
X975000Y784351D02*
Y815669D01*
X1227193Y902172D02*
X1313696Y815669D01*
X1125000Y871034D02*
X1128530Y874564D01*
Y878920D01*
X1129404Y879794D01*
Y901267D01*
X1130310Y902172D01*
X1125000Y743405D02*
Y871034D01*
X1110625Y870138D02*
Y902172D01*
X2007431Y957290D02*
X2014572Y950149D01*
Y912717D02*
Y950149D01*
X1972339Y957290D02*
X2007431D01*
X1574858Y1066815D02*
X1702066D01*
X1732851Y1036030D01*
X1569000Y1032826D02*
Y1060957D01*
X1574858Y1066815D01*
X97223Y1032826D02*
Y1061226D01*
X103997Y1068001D01*
X219300D01*
X251270Y1036030D01*
X973025Y1068001D02*
X1004995Y1036030D01*
X540467Y957290D02*
X546325Y951432D01*
Y937487D02*
Y951432D01*
Y937487D02*
X546325Y937487D01*
X505758Y957290D02*
X540467D01*
X2941819Y606851D02*
X2942607Y606063D01*
X2797154Y606851D02*
X2941819D01*
X2796367Y607638D02*
X2797154Y606851D01*
X1244483Y957290D02*
X1280356D01*
X1287498Y950149D01*
X1289586D01*
X494043Y902172D02*
X533586Y862629D01*
Y861020D02*
X574606Y820000D01*
X614000D01*
Y784744D02*
Y820000D01*
X533586Y861020D02*
Y862629D01*
X1209050Y902172D02*
X1227193D01*
X157481Y1390000D02*
Y1495000D01*
X3441819Y86575D02*
Y336464D01*
X3459819Y630000D02*
X3472704Y617115D01*
X3480000Y395355D02*
Y599464D01*
X3518126Y706063D02*
X3530000D01*
X3491819Y732371D02*
Y775552D01*
Y732371D02*
X3518126Y706063D01*
X3391819Y691819D02*
Y775552D01*
X3365000Y665000D02*
X3391819Y691819D01*
X3243394Y606063D02*
Y607638D01*
X3341819Y706063D01*
Y775552D01*
X3091819D02*
Y916819D01*
X3130000Y955000D01*
X2980000Y150000D02*
X3030000D01*
X3041819Y86575D02*
Y138181D01*
X3030000Y150000D02*
X3041819Y138181D01*
X1972339Y1016345D02*
X2017851D01*
X2340000Y1199996D02*
X2393075D01*
X2316438Y1176434D02*
X2340000Y1199996D01*
X2316438Y846438D02*
Y1176434D01*
X2905000Y86575D02*
X2991819D01*
Y775552D02*
Y855004D01*
X2961823Y885000D02*
X2991819Y855004D01*
X2499185Y991575D02*
X2529942D01*
X2493327Y997433D02*
X2499185Y991575D01*
X3241819Y86575D02*
X3242213Y86969D01*
Y255670D02*
X3242607Y256063D01*
X3242213Y86969D02*
Y255670D01*
X3291819Y161819D02*
X3320000Y190000D01*
X3291819Y86575D02*
Y161819D01*
X3390000Y1760000D02*
X3482205D01*
X3591819Y206819D02*
X3625000Y240000D01*
X3591819Y86575D02*
Y206819D01*
X3165678Y1649322D02*
X3615678D01*
X2955000Y1860000D02*
X3165678Y1649322D01*
X3191819Y86575D02*
Y183181D01*
X3141819Y86575D02*
Y140000D01*
X2942607Y256063D02*
X3041819D01*
X3091819Y86575D02*
Y183181D01*
X2054422Y868712D02*
X2095760D01*
X2014572D02*
X2054422D01*
X1972339Y910946D02*
Y937605D01*
Y910946D02*
X2014572Y868712D01*
X2137276Y937605D02*
X2172395D01*
X2200000Y910000D01*
X2137158Y937487D02*
X2137276Y937605D01*
X470325Y902172D02*
X494043D01*
X1951954Y901528D02*
X2027399Y826082D01*
X1937551Y901528D02*
X1951954D01*
X1936906Y902172D02*
X1937551Y901528D01*
X2027399Y826082D02*
X2066906D01*
X1936575Y855575D02*
X1963704D01*
X3141819Y575000D02*
Y775552D01*
X3191819Y517678D02*
Y775552D01*
X3241819D02*
X3242607Y774764D01*
Y695787D02*
Y774764D01*
Y695787D02*
X3243394Y695000D01*
X2254194Y702067D02*
X2262103Y694158D01*
X2066906Y702067D02*
X2254194D01*
X2476540Y1237398D02*
X2477540Y1238398D01*
Y1270645D01*
X2434102Y1021498D02*
Y1095085D01*
X2441363Y1003881D02*
X2466212Y979033D01*
X1244483Y1016345D02*
X1285050D01*
X3491819Y86575D02*
Y210000D01*
X2483828Y971772D02*
X2530060D01*
X3449115Y354115D02*
X3472704Y377704D01*
X2529942Y991575D02*
X2530060Y991457D01*
X2499257Y912717D02*
X2530060D01*
X2476540Y890000D02*
X2499257Y912717D01*
X2645753Y1237398D02*
X2727075D01*
X2645753Y1162594D02*
X2727075D01*
X2476540D02*
X2563075D01*
X2476540Y1237398D02*
X2563075D01*
X2716674Y912717D02*
X2774454D01*
X2419102Y952087D02*
X2530060D01*
X1529000Y699677D02*
X1600186D01*
X1506007Y546221D02*
X1529000Y569214D01*
Y617000D01*
X1395000Y546221D02*
X1506007D01*
X450640Y1137995D02*
X472368Y1159723D01*
X1810851D02*
X1838481Y1132093D01*
Y1091149D02*
Y1132093D01*
X1917221Y1091149D02*
Y1142818D01*
X1936575Y1162172D01*
X1646481Y950149D02*
X1685943D01*
X1712770Y976975D02*
X1783363D01*
X1685943Y950149D02*
X1712770Y976975D01*
X1646481Y1032826D02*
X1695802D01*
X1731967Y996660D01*
X1783363D01*
X1732851Y1036030D02*
X1783363D01*
X1826166Y743012D02*
Y784351D01*
X1917221Y902172D02*
X1918001Y901393D01*
Y874150D02*
Y901393D01*
Y874150D02*
X1936575Y855575D01*
X450640Y1091149D02*
Y1137995D01*
X1189365Y1142818D02*
X1208719Y1162172D01*
X1189365Y1091149D02*
Y1142818D01*
X1110625Y1091149D02*
Y1132093D01*
X1004995Y1036030D02*
X1055506D01*
X1004111Y996660D02*
X1055506D01*
X967945Y1032826D02*
X1004111Y996660D01*
X918625Y1032826D02*
X967945D01*
X958087Y950149D02*
X984914Y976975D01*
X1055506D01*
X918625Y950149D02*
X958087D01*
X1169680Y866321D02*
X1209919Y826082D01*
X1230680D01*
X1169680Y866321D02*
Y902172D01*
X1149995Y859090D02*
X1200680Y808405D01*
Y743405D02*
Y808405D01*
X1149995Y859090D02*
Y902172D01*
X430955Y856355D02*
X460823Y826486D01*
X430955Y856355D02*
Y902172D01*
X460823Y826486D02*
X491551D01*
X411270Y827555D02*
Y902172D01*
X454081Y784744D02*
X461955D01*
X411270Y827555D02*
X454081Y784744D01*
X491551Y826486D02*
X491955Y826082D01*
X1270050Y784744D02*
Y832359D01*
X1190144Y874150D02*
X1208719Y855575D01*
X1190144Y874150D02*
Y901393D01*
X1189365Y902172D02*
X1190144Y901393D01*
X1246833Y855575D02*
X1270050Y832359D01*
X1208719Y855575D02*
X1246833D01*
X1051570Y743405D02*
Y784744D01*
X391585Y743405D02*
Y784744D01*
X461955Y743405D02*
Y784744D01*
X469994Y855575D02*
X508109D01*
X450640Y902172D02*
X451420Y901393D01*
Y874150D02*
Y901393D01*
Y874150D02*
X469994Y855575D01*
X320585Y815669D02*
X371900Y866984D01*
Y902172D01*
X391585Y784744D02*
Y902172D01*
X251270Y996660D02*
X316782D01*
X179900Y1032826D02*
X215105D01*
X251270Y996660D01*
Y1036030D02*
X316782D01*
X344270Y1178026D02*
X371900Y1150397D01*
Y1091149D02*
Y1150397D01*
D11*
X2618827Y818827D02*
G03*
X2621356Y822159I-11011J10980D01*
G01*
X2622562Y824295D02*
G03*
X2623367Y827354I-5415J3060D01*
G01*
X2403746Y311415D02*
G03*
X2392766Y306875I0J-15550D01*
G01*
X2364581Y298801D02*
G03*
X2355890Y277779I21079J-21022D01*
G01*
X2634970Y817347D02*
G03*
X2637494Y825406I-17823J10007D01*
G01*
X2403746Y325635D02*
G03*
X2382750Y316970I0J-29770D01*
G01*
X2528691Y728691D02*
G03*
X2520000Y707669I21079J-21022D01*
G01*
X2474164Y311415D02*
G03*
X2495186Y320106I0J29770D01*
G01*
X2525555Y350476D02*
G03*
X2534220Y371471I-21105J20996D01*
G01*
X2538758Y718648D02*
G03*
X2534220Y707669I11012J-10979D01*
G01*
X2474164Y325635D02*
G03*
X2485144Y330174I0J15550D01*
G01*
X2515461Y360491D02*
G03*
X2520000Y371471I-11011J10980D01*
G01*
X2374648Y288758D02*
G03*
X2370110Y277779I11012J-10979D01*
G01*
X2628922Y808812D02*
G03*
X2633713Y815123I-21105J20996D01*
G01*
X2403746Y325635D02*
X2474164D01*
X2370110Y274835D02*
Y277779D01*
X2374648Y288758D02*
X2392766Y306875D01*
X2534220Y371471D02*
Y707669D01*
X2403746Y311415D02*
X2474164D01*
X2538758Y718648D02*
X2628922Y808812D01*
X2621356Y822159D02*
X2622562Y824295D01*
X2528691Y728691D02*
X2618827Y818827D01*
X2485144Y330174D02*
X2515461Y360491D01*
X2520000Y371471D02*
Y707669D01*
X2353157Y255504D02*
X2355890Y274835D01*
X2364581Y298801D02*
X2382750Y316970D01*
X2495186Y320106D02*
X2525555Y350476D01*
X2641044Y862481D02*
X2643052Y878465D01*
X2355890Y274835D02*
Y277779D01*
X2637494Y825406D02*
X2641044Y862481D01*
X2370110Y274835D02*
X2372843Y255504D01*
X2623367Y827354D02*
Y878465D01*
X2633713Y815123D02*
X2634970Y817347D01*
D12*
X3675000Y1626339D02*
D03*
Y1543661D02*
D03*
X179900Y950149D02*
D03*
Y1032826D02*
D03*
X236794Y702067D02*
D03*
Y784744D02*
D03*
X587900Y1129660D02*
D03*
Y1212338D02*
D03*
X55000Y1123007D02*
D03*
Y1205684D02*
D03*
X126270Y1123826D02*
D03*
Y1206503D02*
D03*
X516270Y1129660D02*
D03*
Y1212338D02*
D03*
X538914Y702047D02*
D03*
Y784724D02*
D03*
X614000Y702067D02*
D03*
Y784744D02*
D03*
X97223Y950149D02*
D03*
Y1032826D02*
D03*
X461955Y702067D02*
D03*
Y784744D02*
D03*
X391585Y702067D02*
D03*
Y784744D02*
D03*
X315585Y702067D02*
D03*
Y784744D02*
D03*
X1646481Y950149D02*
D03*
Y1032826D02*
D03*
X1673587Y701674D02*
D03*
Y784351D02*
D03*
X2054481Y1129660D02*
D03*
Y1212338D02*
D03*
X1509000Y1129660D02*
D03*
Y1212338D02*
D03*
X1584000Y1129660D02*
D03*
Y1212338D02*
D03*
X1982851Y1129660D02*
D03*
Y1212338D02*
D03*
X1987536Y702067D02*
D03*
Y784744D02*
D03*
X2066906Y702067D02*
D03*
Y784744D02*
D03*
X1569000Y950149D02*
D03*
Y1032826D02*
D03*
X1910000Y701674D02*
D03*
Y784351D02*
D03*
X1826166Y701674D02*
D03*
Y784351D02*
D03*
X1746851Y701673D02*
D03*
Y784351D02*
D03*
X918625Y950149D02*
D03*
Y1032826D02*
D03*
X975000Y701674D02*
D03*
Y784351D02*
D03*
X1326625Y1129660D02*
D03*
Y1212338D02*
D03*
X783969Y1129518D02*
D03*
Y1212195D02*
D03*
X858969Y1129518D02*
D03*
Y1212195D02*
D03*
X1254995Y1129660D02*
D03*
Y1212338D02*
D03*
X1277740Y702048D02*
D03*
Y784725D02*
D03*
X1352963Y701674D02*
D03*
Y784351D02*
D03*
X838969Y950149D02*
D03*
Y1032826D02*
D03*
X1200680Y702067D02*
D03*
Y784744D02*
D03*
X1125000Y702067D02*
D03*
Y784744D02*
D03*
X1051570Y702066D02*
D03*
Y784744D02*
D03*
X1529000Y617000D02*
D03*
Y699677D02*
D03*
X1600186Y617000D02*
D03*
Y699677D02*
D03*
X3420000Y967677D02*
D03*
Y885000D02*
D03*
X2419102Y869410D02*
D03*
Y952087D02*
D03*
X2449102Y463843D02*
D03*
Y546520D02*
D03*
X2605000Y323000D02*
D03*
Y405678D02*
D03*
X2686999D02*
D03*
Y323000D02*
D03*
X2845000Y687323D02*
D03*
Y770000D02*
D03*
D13*
X3564882Y1760000D02*
D03*
X3482205D02*
D03*
X3564882Y1860000D02*
D03*
X3482205D02*
D03*
X587900Y937487D02*
D03*
X670577D02*
D03*
X97223Y888487D02*
D03*
X179900D02*
D03*
X212593Y1335000D02*
D03*
X295270D02*
D03*
X516270D02*
D03*
X598947D02*
D03*
X587900Y1016345D02*
D03*
X670577D02*
D03*
X1563804Y888487D02*
D03*
X1646481D02*
D03*
X2137099Y948756D02*
D03*
X2054422D02*
D03*
X1679174Y1335000D02*
D03*
X1761851D02*
D03*
X1982851D02*
D03*
X2065528D02*
D03*
X2054422Y1030827D02*
D03*
X2137099D02*
D03*
X835947Y888487D02*
D03*
X918625D02*
D03*
X1409302Y937605D02*
D03*
X1326625D02*
D03*
X951317Y1335000D02*
D03*
X1033995D02*
D03*
X1254995D02*
D03*
X1337672D02*
D03*
X1326625Y1016345D02*
D03*
X1409302D02*
D03*
X2765099Y815123D02*
D03*
X2682422D02*
D03*
X2774454Y988701D02*
D03*
X2857131D02*
D03*
X2774454Y912717D02*
D03*
X2857131D02*
D03*
X2774454Y1062323D02*
D03*
X2857131D02*
D03*
X3404524Y1413583D02*
D03*
X3487201D02*
D03*
X3404524Y1236417D02*
D03*
X3487201D02*
D03*
X2645753Y1237398D02*
D03*
X2563075D02*
D03*
X2645753Y1162594D02*
D03*
X2563075D02*
D03*
X2331816Y372646D02*
D03*
X2414493D02*
D03*
X2179426Y375000D02*
D03*
X2262103D02*
D03*
X2179426Y784744D02*
D03*
X2262103D02*
D03*
X1326625Y866321D02*
D03*
X1409302D02*
D03*
X587900Y866984D02*
D03*
X670577D02*
D03*
X2054422Y868712D02*
D03*
X2137099D02*
D03*
X2768661Y320106D02*
D03*
X2851339D02*
D03*
X3404524Y1148938D02*
D03*
X3487201D02*
D03*
D14*
X2237016Y255504D02*
D03*
X2268512D02*
D03*
X2457488D02*
D03*
X2488984D02*
D03*
D15*
X2294102D02*
D03*
X2313787D02*
D03*
X2372843D02*
D03*
X2392528D02*
D03*
X2333472D02*
D03*
X2353157D02*
D03*
X2412213D02*
D03*
X2431898D02*
D03*
D16*
X2393075Y1199996D02*
D03*
X2476540Y1162594D02*
D03*
Y1237398D02*
D03*
X2727075Y1162594D02*
D03*
Y1237398D02*
D03*
X2810540Y1199996D02*
D03*
D17*
X2262103Y463843D02*
D03*
X2171552D02*
D03*
X2352654D02*
D03*
D18*
X2262103Y694158D02*
D03*
D19*
X414000Y112501D02*
D03*
Y437000D02*
D03*
X614000Y112501D02*
D03*
X514000D02*
D03*
Y437000D02*
D03*
X614000D02*
D03*
X1758166Y112501D02*
D03*
Y437000D02*
D03*
X1958166Y112501D02*
D03*
X1858166D02*
D03*
Y437000D02*
D03*
X1958166D02*
D03*
X892286Y112501D02*
D03*
Y437000D02*
D03*
X1092286Y112501D02*
D03*
X992286D02*
D03*
Y437000D02*
D03*
X1092286D02*
D03*
D20*
X3026819Y971772D02*
D03*
Y1148938D02*
D03*
X3339811Y971772D02*
D03*
Y1148938D02*
D03*
X3026819Y1236417D02*
D03*
Y1413583D02*
D03*
X3339811Y1236417D02*
D03*
Y1413583D02*
D03*
D21*
X2942607Y206064D02*
D03*
Y356063D02*
D03*
Y406063D02*
D03*
Y306063D02*
D03*
Y256063D02*
D03*
Y606063D02*
D03*
Y656063D02*
D03*
Y456063D02*
D03*
Y556063D02*
D03*
Y506063D02*
D03*
D22*
X3041819Y86575D02*
D03*
X2991819D02*
D03*
X3141819D02*
D03*
X3291819D02*
D03*
X3191819D02*
D03*
X3241819D02*
D03*
X3091819D02*
D03*
Y775552D02*
D03*
X2991819D02*
D03*
X3041819D02*
D03*
X3191819D02*
D03*
X3141819D02*
D03*
X3241819D02*
D03*
X3291819D02*
D03*
X3341819Y86575D02*
D03*
X3391819D02*
D03*
X3591819D02*
D03*
X3541819D02*
D03*
X3641819D02*
D03*
X3491819D02*
D03*
X3441819D02*
D03*
X3341819Y775552D02*
D03*
X3391819D02*
D03*
X3541819D02*
D03*
X3441819D02*
D03*
X3491819D02*
D03*
X3641819D02*
D03*
X3591819D02*
D03*
D23*
X3282764Y435000D02*
D03*
Y545237D02*
D03*
Y490119D02*
D03*
X3337882Y435000D02*
D03*
X3393001D02*
D03*
X3337882Y490119D02*
D03*
X3393001Y545237D02*
D03*
X3337882D02*
D03*
X3393001Y490119D02*
D03*
D24*
X2530060Y912717D02*
D03*
Y991457D02*
D03*
Y952087D02*
D03*
Y971772D02*
D03*
Y1030827D02*
D03*
Y1011142D02*
D03*
Y932402D02*
D03*
X2716674Y912717D02*
D03*
Y932402D02*
D03*
Y952087D02*
D03*
Y1011142D02*
D03*
Y971772D02*
D03*
Y991457D02*
D03*
Y1030827D02*
D03*
D25*
X2583997Y878465D02*
D03*
X2564312D02*
D03*
Y1065079D02*
D03*
X2643052Y878465D02*
D03*
X2682422D02*
D03*
X2662737D02*
D03*
X2603682D02*
D03*
X2623367D02*
D03*
X2662737Y1065079D02*
D03*
X2643052D02*
D03*
X2583997D02*
D03*
X2623367D02*
D03*
X2603682D02*
D03*
X2682422D02*
D03*
D26*
X2623367Y971772D02*
D03*
D27*
X823969Y1390000D02*
D03*
X2670000Y675000D02*
D03*
Y526520D02*
D03*
X2810000Y410030D02*
D03*
D28*
X1055506Y976975D02*
D03*
Y957290D02*
D03*
Y937605D02*
D03*
Y1055715D02*
D03*
Y1036030D02*
D03*
Y996660D02*
D03*
Y1016345D02*
D03*
X1244483Y937605D02*
D03*
Y976975D02*
D03*
Y957290D02*
D03*
Y1036030D02*
D03*
Y996660D02*
D03*
Y1016345D02*
D03*
Y1055715D02*
D03*
X316782Y976975D02*
D03*
Y957290D02*
D03*
Y937605D02*
D03*
Y1055715D02*
D03*
Y1036030D02*
D03*
Y996660D02*
D03*
Y1016345D02*
D03*
X505758Y937605D02*
D03*
Y976975D02*
D03*
Y957290D02*
D03*
Y1036030D02*
D03*
Y996660D02*
D03*
Y1016345D02*
D03*
Y1055715D02*
D03*
X1783363Y976975D02*
D03*
Y957290D02*
D03*
Y937605D02*
D03*
Y1055715D02*
D03*
Y1036030D02*
D03*
Y996660D02*
D03*
Y1016345D02*
D03*
X1972339Y937605D02*
D03*
Y976975D02*
D03*
Y957290D02*
D03*
Y1036030D02*
D03*
Y996660D02*
D03*
Y1016345D02*
D03*
Y1055715D02*
D03*
D29*
X1110625Y902172D02*
D03*
X1090940D02*
D03*
X1110625Y1091149D02*
D03*
X1090940D02*
D03*
X1169680Y902172D02*
D03*
X1209050D02*
D03*
X1189365D02*
D03*
X1130310D02*
D03*
X1149995D02*
D03*
X1209050Y1091149D02*
D03*
X1189365D02*
D03*
X1130310D02*
D03*
X1169680D02*
D03*
X1149995D02*
D03*
X371900Y902172D02*
D03*
X352215D02*
D03*
X371900Y1091149D02*
D03*
X352215D02*
D03*
X430955Y902172D02*
D03*
X470325D02*
D03*
X450640D02*
D03*
X391585D02*
D03*
X411270D02*
D03*
X470325Y1091149D02*
D03*
X450640D02*
D03*
X391585D02*
D03*
X430955D02*
D03*
X411270D02*
D03*
X1838481Y902172D02*
D03*
X1818796D02*
D03*
X1838481Y1091149D02*
D03*
X1818796D02*
D03*
X1897536Y902172D02*
D03*
X1936906D02*
D03*
X1917221D02*
D03*
X1858166D02*
D03*
X1877851D02*
D03*
X1936906Y1091149D02*
D03*
X1917221D02*
D03*
X1858166D02*
D03*
X1897536D02*
D03*
X1877851D02*
D03*
D30*
X1149995Y996660D02*
D03*
X411270D02*
D03*
X1877851D02*
D03*
D31*
X3591819Y885000D02*
D03*
Y1010984D02*
D03*
X295270Y1127173D02*
D03*
Y1253157D02*
D03*
X209900Y1127173D02*
D03*
Y1253157D02*
D03*
X669900Y1129660D02*
D03*
Y1255645D02*
D03*
X1761851Y1127629D02*
D03*
Y1253613D02*
D03*
X1669457Y1127629D02*
D03*
Y1253613D02*
D03*
X2136481Y1129660D02*
D03*
Y1255645D02*
D03*
X1033995Y1127487D02*
D03*
Y1253471D02*
D03*
X944426Y1127487D02*
D03*
Y1253471D02*
D03*
X1408625Y1129660D02*
D03*
Y1255645D02*
D03*
X3776999Y920000D02*
D03*
Y1045984D02*
D03*
X3685000Y920000D02*
D03*
Y1045984D02*
D03*
X3499819Y885000D02*
D03*
Y1010984D02*
D03*
D32*
X157481Y1495000D02*
D03*
D33*
X1409302Y937487D02*
X1450000D01*
X592403Y862481D02*
X612519D01*
X587900Y866984D02*
X592403Y862481D01*
X612519D02*
X656042Y818959D01*
X678959D02*
X680000Y820000D01*
X656042Y818959D02*
X678959D01*
X557458Y866984D02*
X587900D01*
X1352963Y701674D02*
Y743012D01*
X3391819Y86575D02*
Y306063D01*
X3541819Y372450D02*
X3565000Y395630D01*
X3541819Y86575D02*
Y372450D01*
X1524000Y888487D02*
X1563804D01*
X1326625Y866321D02*
X1367963D01*
X1244483Y911424D02*
X1289586Y866321D01*
X1244483Y911424D02*
Y937605D01*
X1289586Y866321D02*
X1326625D01*
X505758Y918684D02*
Y937605D01*
Y918684D02*
X557458Y866984D01*
X96270Y845000D02*
Y887534D01*
X97223Y888487D01*
X614000Y702067D02*
X657914D01*
X798969Y888487D02*
X835947D01*
X1450000Y937487D02*
X1465000Y922487D01*
X505758Y1016345D02*
X546325D01*
D34*
X2670000Y675000D02*
X2755000D01*
X2770000Y660000D01*
X2716674Y890000D02*
Y912717D01*
X2682422Y878465D02*
X2705139D01*
X2716674Y890000D01*
X2605000Y405678D02*
X2686999D01*
X2605000Y280000D02*
Y323000D01*
X2288083Y213378D02*
X2437917D01*
X2451803Y227264D01*
Y249819D01*
X2457488Y255504D01*
X2274197Y227264D02*
Y249819D01*
X2268512Y255504D02*
X2274197Y249819D01*
Y227264D02*
X2288083Y213378D01*
X2014211Y1055715D02*
X2030819Y1072323D01*
X1972339Y1055715D02*
X2014211D01*
X1744136D02*
X1783363D01*
X1731851Y1068001D02*
X1744136Y1055715D01*
X1244483D02*
X1283715D01*
X1306001Y1078001D01*
X1003995Y1068001D02*
X1016280Y1055715D01*
X1055506D01*
X505758D02*
X560615D01*
X572900Y1068001D01*
X268286Y1055715D02*
X316782D01*
X259000Y1065001D02*
X268286Y1055715D01*
D35*
X2504707Y1955000D02*
D03*
D36*
X2192724Y68496D02*
D03*
Y232669D02*
D03*
X2533276Y68496D02*
D03*
Y232669D02*
D03*
D37*
X2249220Y213378D02*
D03*
X2476780D02*
D03*
D38*
X3776999Y1568543D02*
D03*
D39*
Y1468543D02*
D03*
Y1268543D02*
D03*
Y1168543D02*
D03*
Y1368543D02*
D03*
D40*
X2716535Y157480D02*
D03*
X157481Y157481D02*
D03*
X3779528Y1771653D02*
D03*
X2362205Y1771654D02*
D03*
X157481D02*
D03*
D41*
X2275000Y1370000D02*
D03*
Y1570000D02*
D03*
Y1470000D02*
D03*
X2375000Y1370000D02*
D03*
Y1470000D02*
D03*
X2755000Y1760000D02*
D03*
X2955000D02*
D03*
X2855000D02*
D03*
Y1860000D02*
D03*
X2955000D02*
D03*
X3190000Y1760000D02*
D03*
X3390000D02*
D03*
X3290000D02*
D03*
Y1860000D02*
D03*
X3390000D02*
D03*
X2504414Y1370000D02*
D03*
Y1570000D02*
D03*
Y1470000D02*
D03*
X2604414Y1370000D02*
D03*
Y1470000D02*
D03*
D42*
X2375000Y1570000D02*
D03*
X2604414D02*
D03*
D43*
X3243394Y490119D02*
D03*
Y545237D02*
D03*
Y435000D02*
D03*
X3282764Y584607D02*
D03*
Y395630D02*
D03*
X3337882D02*
D03*
X3393001D02*
D03*
X3365441Y462560D02*
D03*
X3432371Y435000D02*
D03*
X3310323Y462560D02*
D03*
Y517678D02*
D03*
X3365441D02*
D03*
X3391819Y584607D02*
D03*
X3336424Y585243D02*
D03*
X3432371Y545237D02*
D03*
Y490119D02*
D03*
D44*
X1395000Y310000D02*
D03*
D45*
X1580039Y428110D02*
D03*
D46*
X1395000Y546221D02*
D03*
D47*
X526772Y1692913D02*
D03*
X376772D02*
D03*
X676772D02*
D03*
X157481Y401370D02*
D03*
X1825984Y1692913D02*
D03*
X1675984D02*
D03*
X1975984D02*
D03*
X1176378D02*
D03*
X1026378D02*
D03*
X1326378D02*
D03*
D48*
X826772D02*
D03*
X2125984D02*
D03*
X1476378D02*
D03*
D49*
X157481Y551370D02*
D03*
D50*
X2755000Y1860000D02*
D03*
X3190000D02*
D03*
D51*
X3564882Y1910000D02*
D03*
Y1715118D02*
D03*
X295270Y1212338D02*
D03*
X669900Y1299000D02*
D03*
X1035000Y1220000D02*
D03*
X1761374Y1212338D02*
D03*
X720000Y937605D02*
D03*
X2905000Y955000D02*
D03*
X2859687Y1280560D02*
D03*
X3049756Y1281806D02*
D03*
X2670000Y463843D02*
D03*
X2810000Y320106D02*
D03*
X2888755D02*
D03*
X2845000Y249819D02*
D03*
X3445000Y1355000D02*
D03*
X3420000Y920000D02*
D03*
X2830000Y728691D02*
D03*
X3355000Y1460000D02*
D03*
X2980000Y1045000D02*
D03*
X3340000Y900000D02*
D03*
X3220000Y1014812D02*
D03*
X3341819Y1062323D02*
D03*
X3125000Y1185000D02*
D03*
X3445000Y1236417D02*
D03*
Y1413583D02*
D03*
X43001Y1253157D02*
D03*
X126270D02*
D03*
X587900Y1255645D02*
D03*
X783969D02*
D03*
X858969Y1253471D02*
D03*
X1326625Y1255645D02*
D03*
X1509000D02*
D03*
X1584000Y1253613D02*
D03*
X2054481Y1255645D02*
D03*
X2137158Y1297406D02*
D03*
X3499819Y1060000D02*
D03*
X3591819D02*
D03*
X3685000Y1095000D02*
D03*
X3776999D02*
D03*
X2237016Y293842D02*
D03*
X2510000Y295000D02*
D03*
X2470030Y375000D02*
D03*
X2140000D02*
D03*
X2127158Y458843D02*
D03*
X2140000Y784744D02*
D03*
X2583997Y922487D02*
D03*
X2619414D02*
D03*
X2656999D02*
D03*
Y988701D02*
D03*
X2619414D02*
D03*
X2583997D02*
D03*
X2890000Y1060000D02*
D03*
Y986772D02*
D03*
X1240050Y673339D02*
D03*
X1169680D02*
D03*
X1092286D02*
D03*
X942286Y702067D02*
D03*
X709900Y866321D02*
D03*
X1465000D02*
D03*
X2179426Y868712D02*
D03*
X2991819Y1615000D02*
D03*
X1110625Y1036030D02*
D03*
X1149995D02*
D03*
X1189365Y1036487D02*
D03*
X1110625Y957290D02*
D03*
X1149995D02*
D03*
X1190144D02*
D03*
X1189365Y996660D02*
D03*
X1149995D02*
D03*
X1110625D02*
D03*
X450640Y1036487D02*
D03*
X411270D02*
D03*
X371900D02*
D03*
X450640Y996660D02*
D03*
X411270D02*
D03*
X371900D02*
D03*
Y957290D02*
D03*
X411270D02*
D03*
X450640D02*
D03*
X1838481Y1036030D02*
D03*
X1877851D02*
D03*
X1917221D02*
D03*
Y996660D02*
D03*
X1877851D02*
D03*
X1838481D02*
D03*
Y957290D02*
D03*
X1877851D02*
D03*
X1917221D02*
D03*
X2382103Y375000D02*
D03*
X2370000Y80000D02*
D03*
X2179426Y323000D02*
D03*
X2140000Y340000D02*
D03*
X2105000Y375000D02*
D03*
Y340000D02*
D03*
X2127099Y427000D02*
D03*
Y491063D02*
D03*
X2206006Y436833D02*
D03*
Y475000D02*
D03*
X2095000Y426833D02*
D03*
Y458843D02*
D03*
Y491063D02*
D03*
X2575000Y825000D02*
D03*
X3291819Y1130000D02*
D03*
X680000Y820000D02*
D03*
X2170000Y1164203D02*
D03*
X730000Y1095000D02*
D03*
Y1130000D02*
D03*
Y1164203D02*
D03*
X1958166Y504812D02*
D03*
X1858166Y505000D02*
D03*
X1758166D02*
D03*
X1092286Y504000D02*
D03*
X992286D02*
D03*
X892286D02*
D03*
Y205000D02*
D03*
X992286D02*
D03*
X1092286D02*
D03*
X1758166Y213378D02*
D03*
X1858166D02*
D03*
X1958166D02*
D03*
X414000Y205000D02*
D03*
X514000D02*
D03*
X614000D02*
D03*
Y505000D02*
D03*
X514000D02*
D03*
X414000Y504000D02*
D03*
X3250000Y1470000D02*
D03*
X1910000Y743012D02*
D03*
X2066906Y826082D02*
D03*
X1746851Y743012D02*
D03*
X1396877Y815669D02*
D03*
X1352963Y743012D02*
D03*
X546325Y937487D02*
D03*
X2770000Y660000D02*
D03*
X2796367Y607638D02*
D03*
X1289586Y950149D02*
D03*
X614000Y820000D02*
D03*
X157481Y1390000D02*
D03*
X2385000Y770000D02*
D03*
X3530000Y706063D02*
D03*
X3355000Y846438D02*
D03*
X2765000Y1323543D02*
D03*
X3315000Y1500000D02*
D03*
X3365000Y665000D02*
D03*
X3120000Y1540000D02*
D03*
X3243394Y606063D02*
D03*
X3130000Y955000D02*
D03*
X2014572Y912717D02*
D03*
X2980000Y150000D02*
D03*
X2017851Y1016345D02*
D03*
X2316438Y846438D02*
D03*
X2892894D02*
D03*
X2905000Y86575D02*
D03*
X3230000Y885000D02*
D03*
X2961823D02*
D03*
X2990000Y1670000D02*
D03*
X2961823Y986772D02*
D03*
X3180000Y1580000D02*
D03*
X3242607Y256063D02*
D03*
X3320000Y190000D02*
D03*
X3391819Y1583181D02*
D03*
Y306063D02*
D03*
X3550000Y1600000D02*
D03*
X3565000Y395630D02*
D03*
X3625000Y240000D02*
D03*
X3615678Y1649322D02*
D03*
X3191819Y183181D02*
D03*
X3141819Y140000D02*
D03*
X1270050Y743405D02*
D03*
X3041819Y256063D02*
D03*
X3091819Y1470000D02*
D03*
X3091819Y183181D02*
D03*
X1524000Y888487D02*
D03*
X2095760Y868712D02*
D03*
X1367963Y866321D02*
D03*
X2200000Y910000D02*
D03*
X96270Y845000D02*
D03*
X657914Y702067D02*
D03*
X798969Y888487D02*
D03*
X1465000Y922487D02*
D03*
X3141819Y575000D02*
D03*
X585000Y650000D02*
D03*
X546325Y615000D02*
D03*
X3191819Y517678D02*
D03*
X546325Y1016345D02*
D03*
X3243394Y695000D02*
D03*
X1465000Y957290D02*
D03*
Y1138578D02*
D03*
X2810000Y1062323D02*
D03*
X2477540Y1270645D02*
D03*
X2434102Y1095085D02*
D03*
X1285050Y1016345D02*
D03*
X3491819Y210000D02*
D03*
X3461579Y1094760D02*
D03*
X3459819Y630000D02*
D03*
X2449102D02*
D03*
X2476540Y890000D02*
D03*
X3776999Y967992D02*
D03*
X3685000D02*
D03*
X3591819Y932992D02*
D03*
X3499819D02*
D03*
X2810000Y912717D02*
D03*
Y988701D02*
D03*
X2400000Y445000D02*
D03*
Y485000D02*
D03*
X2605000Y280000D02*
D03*
X2210000Y560000D02*
D03*
X2262103D02*
D03*
X2315000D02*
D03*
Y630000D02*
D03*
X2262103D02*
D03*
X2210000D02*
D03*
X2136481Y1164203D02*
D03*
X2054481D02*
D03*
X1982851D02*
D03*
X1761851D02*
D03*
X1669457D02*
D03*
X1584000D02*
D03*
X1509000D02*
D03*
X1409302Y1164346D02*
D03*
X1326625Y1162172D02*
D03*
X1254995D02*
D03*
X1033995Y1164203D02*
D03*
X944426Y1164346D02*
D03*
X858969D02*
D03*
X783969D02*
D03*
X669900D02*
D03*
X587900D02*
D03*
X516270Y1165164D02*
D03*
X295270Y1164346D02*
D03*
X209900Y1165164D02*
D03*
X126270D02*
D03*
X43001Y1164346D02*
D03*
X2030819Y1072323D02*
D03*
X1731851Y1068001D02*
D03*
X1306001Y1078001D02*
D03*
X1003995Y1068001D02*
D03*
X572900D02*
D03*
X259000Y1065001D02*
D03*
X1826166Y743012D02*
D03*
X1958536Y826082D02*
D03*
X1230680D02*
D03*
X1200680Y743405D02*
D03*
X1125000D02*
D03*
X1051570D02*
D03*
X320585Y748612D02*
D03*
X391585Y743405D02*
D03*
X461955D02*
D03*
X491955Y826082D02*
D03*
%TF.MD5,d8e42710775bbf550a40fc75eebe59cc*%
M02*
