%TF.GenerationSoftware,Altium Limited,Altium Designer,22.11.1 (43)*%
G04 Layer_Color=16711935*
%FSLAX26Y26*%
%MOIN*%
%TF.SameCoordinates,7A21CAC7-823E-4026-81AB-88AB86373CC7*%
%TF.FilePolarity,Negative*%
%TF.FileFunction,Soldermask,Bot*%
%TF.Part,Single*%
G01*
G75*
%TA.AperFunction,ComponentPad*%
%ADD70C,0.086740*%
%ADD71C,0.031622*%
%ADD72C,0.072961*%
%ADD73C,0.078866*%
%ADD74R,0.078866X0.078866*%
%ADD75R,0.086740X0.165480*%
%ADD76R,0.094614X0.181228*%
%ADD77R,0.165480X0.086740*%
%ADD78C,0.070992*%
%ADD79R,0.078866X0.078866*%
%TA.AperFunction,ViaPad*%
%ADD80C,0.025716*%
D70*
X1336134Y3784469D02*
D03*
X1186134D02*
D03*
X1036134D02*
D03*
X886134D02*
D03*
X3158087Y3782000D02*
D03*
X3008087D02*
D03*
X2858087D02*
D03*
X2708087D02*
D03*
X2228000Y3784000D02*
D03*
X2078000D02*
D03*
X1928000D02*
D03*
X1778000D02*
D03*
D71*
X260378Y765779D02*
D03*
Y538221D02*
D03*
D72*
X2767000Y1188000D02*
D03*
Y1288000D02*
D03*
Y1388000D02*
D03*
Y1488000D02*
D03*
D73*
X1648000Y1487827D02*
D03*
Y1387827D02*
D03*
Y1287827D02*
D03*
X1548000Y1487827D02*
D03*
Y1387827D02*
D03*
X951000Y1287827D02*
D03*
Y1387827D02*
D03*
Y1487827D02*
D03*
X1051000Y1287827D02*
D03*
Y1387827D02*
D03*
X3482819Y625000D02*
D03*
X3582819D02*
D03*
X3382819Y525000D02*
D03*
X3482819D02*
D03*
X3582819D02*
D03*
X2233220Y1487827D02*
D03*
Y1387827D02*
D03*
Y1287827D02*
D03*
X2133220Y1487827D02*
D03*
Y1387827D02*
D03*
D74*
X1548000Y1287827D02*
D03*
X1051000Y1487827D02*
D03*
X2133220Y1287827D02*
D03*
D75*
X329000Y3224000D02*
D03*
D76*
X565221D02*
D03*
D77*
X447110Y3038961D02*
D03*
D78*
X1952512Y2608469D02*
D03*
X2052512D02*
D03*
X2152512D02*
D03*
X1952512Y2308469D02*
D03*
X2052512D02*
D03*
X2152512D02*
D03*
X1251000Y2308938D02*
D03*
X1151000D02*
D03*
X1051000D02*
D03*
X1251000Y2608938D02*
D03*
X1151000D02*
D03*
X1051000D02*
D03*
X2868512Y2606469D02*
D03*
X2968512D02*
D03*
X3068512D02*
D03*
X2868512Y2306469D02*
D03*
X2968512D02*
D03*
X3068512D02*
D03*
D79*
X3382819Y625000D02*
D03*
D80*
X3578882Y1266370D02*
D03*
X3523764D02*
D03*
X3484394Y1227000D02*
D03*
Y1171882D02*
D03*
Y1116764D02*
D03*
X3523764Y1077394D02*
D03*
X3578882D02*
D03*
X3634000D02*
D03*
X3673370Y1116764D02*
D03*
Y1171882D02*
D03*
Y1227000D02*
D03*
X3632819Y1266370D02*
D03*
X3551323Y1199441D02*
D03*
Y1144323D02*
D03*
X3606441D02*
D03*
X3606441Y1199441D02*
D03*
%TF.MD5,3cec9ac78b87526402dbf86f3bccfd75*%
M02*
