%TF.GenerationSoftware,Altium Limited,Altium Designer,23.4.1 (23)*%
G04 Layer_Physical_Order=5*
G04 Layer_Color=16737945*
%FSLAX26Y26*%
%MOIN*%
%TF.SameCoordinates,1A73CDA2-CD66-4AEC-B2A4-79F9F1676FB0*%
%TF.FilePolarity,Positive*%
%TF.FileFunction,Copper,L5,Inr,Signal*%
%TF.Part,Single*%
G01*
G75*
%TA.AperFunction,ComponentPad*%
%ADD36O,0.047244X0.098425*%
%ADD37C,0.023622*%
%ADD38R,0.064961X0.064961*%
%ADD39C,0.064961*%
%ADD40C,0.236220*%
%ADD41C,0.070866*%
%ADD42R,0.070866X0.070866*%
%ADD43C,0.017716*%
%ADD44R,0.157480X0.078740*%
%ADD45R,0.078740X0.157480*%
%ADD46R,0.173228X0.086614*%
%ADD47C,0.078740*%
%ADD48R,0.078740X0.078740*%
%ADD49R,0.078740X0.078740*%
%ADD50R,0.070866X0.070866*%
%TA.AperFunction,ViaPad*%
%ADD51C,0.017716*%
%TA.AperFunction,NonConductor*%
%ADD55R,0.157172X0.130000*%
G36*
X3920952Y882198D02*
X3681103D01*
X3674959Y880976D01*
X3669750Y877495D01*
X3666269Y872286D01*
X3665047Y866142D01*
Y16056D01*
X2561221D01*
X2557410Y24056D01*
X2560024Y27462D01*
X2563109Y34912D01*
X2564162Y42906D01*
Y94087D01*
X2563109Y102081D01*
X2560024Y109530D01*
X2555115Y115927D01*
X2548719Y120835D01*
X2541269Y123921D01*
X2533276Y124973D01*
X2525282Y123921D01*
X2517832Y120835D01*
X2511436Y115927D01*
X2506527Y109530D01*
X2503442Y102081D01*
X2502389Y94087D01*
Y42906D01*
X2503442Y34912D01*
X2506527Y27462D01*
X2509141Y24056D01*
X2505330Y16056D01*
X2220670D01*
X2216859Y24056D01*
X2219473Y27462D01*
X2222558Y34912D01*
X2223611Y42906D01*
Y94087D01*
X2222558Y102081D01*
X2219473Y109530D01*
X2214564Y115927D01*
X2208168Y120835D01*
X2200718Y123921D01*
X2192724Y124973D01*
X2184731Y123921D01*
X2177281Y120835D01*
X2170885Y115927D01*
X2165976Y109530D01*
X2162891Y102081D01*
X2161838Y94087D01*
Y42906D01*
X2162891Y34912D01*
X2165976Y27462D01*
X2168590Y24056D01*
X2164779Y16056D01*
X16056D01*
Y950000D01*
X357755D01*
X358456Y948307D01*
X362917Y943846D01*
X368745Y941432D01*
X375054D01*
X380883Y943846D01*
X385344Y948307D01*
X386045Y950000D01*
X397125D01*
X397826Y948307D01*
X402287Y943846D01*
X408116Y941432D01*
X414424D01*
X420253Y943846D01*
X424714Y948307D01*
X425415Y950000D01*
X436495D01*
X437196Y948307D01*
X441657Y943846D01*
X447486Y941432D01*
X453795D01*
X459623Y943846D01*
X464084Y948307D01*
X464785Y950000D01*
X525959D01*
X531030Y942000D01*
X530467Y940641D01*
Y934333D01*
X532881Y928504D01*
X537342Y924043D01*
X543171Y921629D01*
X549480D01*
X555308Y924043D01*
X559769Y928504D01*
X562183Y934333D01*
Y940641D01*
X561621Y942000D01*
X566692Y950000D01*
X820000D01*
Y232602D01*
X2050000D01*
Y809248D01*
X2057923Y812639D01*
X2063752Y810224D01*
X2070061D01*
X2075889Y812639D01*
X2080350Y817099D01*
X2082764Y822928D01*
Y829237D01*
X2080350Y835065D01*
X2075889Y839526D01*
X2070061Y841941D01*
X2063752D01*
X2057923Y839526D01*
X2050000Y842917D01*
Y935000D01*
X2165355D01*
Y1147349D01*
X2166846Y1148345D01*
X2173154D01*
X2178983Y1150759D01*
X2183444Y1155220D01*
X2185858Y1161049D01*
Y1167358D01*
X2183444Y1173186D01*
X2178983Y1177647D01*
X2173154Y1180062D01*
X2166846D01*
X2165355Y1181058D01*
Y1646543D01*
X2172354D01*
Y1739284D01*
X2165355D01*
Y1952448D01*
X2457863D01*
Y1880000D01*
X2458406Y1877269D01*
X2459953Y1874953D01*
X2462269Y1873406D01*
X2465000Y1872863D01*
X2665000D01*
X2667731Y1873406D01*
X2670047Y1874953D01*
X2671594Y1877269D01*
X2672137Y1880000D01*
Y1952448D01*
X3920952D01*
Y882198D01*
D02*
G37*
G36*
X2158218Y1739284D02*
X2079614D01*
Y1646543D01*
X2158218D01*
Y1306294D01*
X2151218Y1304902D01*
X2150602Y1306389D01*
X2146141Y1310850D01*
X2140312Y1313264D01*
X2134004D01*
X2128175Y1310850D01*
X2123714Y1306389D01*
X2121300Y1300560D01*
Y1294251D01*
X2123714Y1288423D01*
X2128175Y1283962D01*
X2134004Y1281547D01*
X2140312D01*
X2146141Y1283962D01*
X2150602Y1288423D01*
X2151218Y1289909D01*
X2158218Y1288517D01*
Y1181058D01*
X2158355Y1180368D01*
Y1179665D01*
X2158624Y1179016D01*
X2158761Y1178326D01*
X2159151Y1177742D01*
X2159421Y1177093D01*
X2159918Y1176595D01*
X2160308Y1176011D01*
X2160892Y1175621D01*
X2161390Y1175123D01*
X2162881Y1174127D01*
X2163530Y1173858D01*
X2164115Y1173468D01*
X2164804Y1173331D01*
X2165355Y1173102D01*
Y1155304D01*
X2164804Y1155076D01*
X2164115Y1154939D01*
X2163530Y1154549D01*
X2162881Y1154279D01*
X2161390Y1153283D01*
X2160892Y1152786D01*
X2160308Y1152396D01*
X2159918Y1151811D01*
X2159421Y1151314D01*
X2159151Y1150665D01*
X2158761Y1150080D01*
X2158624Y1149391D01*
X2158355Y1148741D01*
Y1148038D01*
X2158218Y1147349D01*
Y942137D01*
X2050000D01*
X2047269Y941594D01*
X2044953Y940047D01*
X2043406Y937731D01*
X2042863Y935000D01*
Y842917D01*
X2043128Y841587D01*
X2043375Y840263D01*
X2043398Y840227D01*
X2043406Y840186D01*
X2044158Y839060D01*
X2044895Y837929D01*
X2044930Y837906D01*
X2044953Y837870D01*
X2046080Y837118D01*
X2047192Y836356D01*
X2052972Y833882D01*
X2051048Y829237D01*
Y822928D01*
X2052972Y818283D01*
X2047192Y815809D01*
X2046076Y815044D01*
X2044953Y814294D01*
X2044930Y814259D01*
X2044895Y814235D01*
X2044156Y813102D01*
X2043406Y811979D01*
X2043398Y811938D01*
X2043375Y811902D01*
X2043127Y810574D01*
X2042863Y809248D01*
Y239739D01*
X827137D01*
Y950000D01*
X826594Y952731D01*
X825047Y955047D01*
X822731Y956594D01*
X820000Y957137D01*
X566692D01*
X565919Y956983D01*
X565131Y956964D01*
X564566Y956714D01*
X563961Y956594D01*
X563306Y956156D01*
X562585Y955837D01*
X562159Y955390D01*
X561645Y955047D01*
X561424Y954715D01*
X561006Y954274D01*
X555308Y950931D01*
X549480Y953345D01*
X543171D01*
X537342Y950931D01*
X531643Y954274D01*
X531227Y954715D01*
X531005Y955047D01*
X530492Y955390D01*
X530066Y955837D01*
X529345Y956156D01*
X528690Y956594D01*
X528084Y956714D01*
X527519Y956964D01*
X526731Y956983D01*
X525959Y957137D01*
X466498D01*
Y960445D01*
X464084Y966273D01*
X459623Y970734D01*
X453795Y973148D01*
X447486D01*
X441657Y970734D01*
X437196Y966273D01*
X434782Y960445D01*
Y957137D01*
X427128D01*
Y960445D01*
X424714Y966273D01*
X420253Y970734D01*
X414424Y973148D01*
X408116D01*
X402287Y970734D01*
X397826Y966273D01*
X395412Y960445D01*
Y957137D01*
X387758D01*
Y960445D01*
X385344Y966273D01*
X380883Y970734D01*
X375054Y973148D01*
X368745D01*
X362917Y970734D01*
X358456Y966273D01*
X356042Y960445D01*
Y957137D01*
X16056D01*
Y1952448D01*
X2158218D01*
Y1739284D01*
D02*
G37*
%LPC*%
G36*
X3296245Y1907433D02*
X3283755D01*
X3271691Y1904200D01*
X3260876Y1897956D01*
X3259995Y1897076D01*
X3290000Y1867071D01*
X3320005Y1897076D01*
X3319124Y1897956D01*
X3308309Y1904200D01*
X3296245Y1907433D01*
D02*
G37*
G36*
X3230362D02*
X3149638D01*
X3190000Y1867071D01*
X3230362Y1907433D01*
D02*
G37*
G36*
X2795362D02*
X2714638D01*
X2755000Y1867071D01*
X2795362Y1907433D01*
D02*
G37*
G36*
X3327076Y1890005D02*
X3297071Y1860000D01*
X3327076Y1829995D01*
X3327956Y1830876D01*
X3334200Y1841691D01*
X3337433Y1853755D01*
Y1866245D01*
X3334200Y1878309D01*
X3327956Y1889124D01*
X3327076Y1890005D01*
D02*
G37*
G36*
X3237433Y1900362D02*
X3197071Y1860000D01*
X3237433Y1819638D01*
Y1842006D01*
X3245433Y1843059D01*
X3245800Y1841691D01*
X3252044Y1830876D01*
X3252924Y1829995D01*
X3282929Y1860000D01*
X3252924Y1890005D01*
X3252044Y1889124D01*
X3245800Y1878309D01*
X3245433Y1876941D01*
X3237433Y1877994D01*
Y1900362D01*
D02*
G37*
G36*
X2802433D02*
X2762071Y1860000D01*
X2802433Y1819638D01*
Y1900362D01*
D02*
G37*
G36*
X3142567Y1900362D02*
Y1819638D01*
X3182929Y1860000D01*
X3142567Y1900362D01*
D02*
G37*
G36*
X2707567D02*
Y1819638D01*
X2747929Y1860000D01*
X2707567Y1900362D01*
D02*
G37*
G36*
X3395586Y1902433D02*
X3384414D01*
X3373622Y1899541D01*
X3363945Y1893955D01*
X3356045Y1886054D01*
X3350459Y1876379D01*
X3347567Y1865586D01*
Y1854414D01*
X3350459Y1843621D01*
X3356045Y1833946D01*
X3363945Y1826045D01*
X3373622Y1820459D01*
X3384414Y1817567D01*
X3395586D01*
X3406378Y1820459D01*
X3416055Y1826045D01*
X3423955Y1833946D01*
X3429541Y1843621D01*
X3432433Y1854414D01*
Y1865586D01*
X3429541Y1876379D01*
X3423955Y1886054D01*
X3416055Y1893955D01*
X3406378Y1899541D01*
X3395586Y1902433D01*
D02*
G37*
G36*
X2960586D02*
X2949414D01*
X2938622Y1899541D01*
X2928945Y1893955D01*
X2921045Y1886054D01*
X2915459Y1876379D01*
X2912567Y1865586D01*
Y1854414D01*
X2915459Y1843621D01*
X2921045Y1833946D01*
X2928945Y1826045D01*
X2938622Y1820459D01*
X2949414Y1817567D01*
X2960586D01*
X2971378Y1820459D01*
X2981055Y1826045D01*
X2988955Y1833946D01*
X2994541Y1843621D01*
X2997433Y1854414D01*
Y1865586D01*
X2994541Y1876379D01*
X2988955Y1886054D01*
X2981055Y1893955D01*
X2971378Y1899541D01*
X2960586Y1902433D01*
D02*
G37*
G36*
X2860586D02*
X2849414D01*
X2838622Y1899541D01*
X2828945Y1893955D01*
X2821045Y1886054D01*
X2815459Y1876379D01*
X2812567Y1865586D01*
Y1854414D01*
X2815459Y1843621D01*
X2821045Y1833946D01*
X2828945Y1826045D01*
X2838622Y1820459D01*
X2849414Y1817567D01*
X2860586D01*
X2871378Y1820459D01*
X2881055Y1826045D01*
X2888955Y1833946D01*
X2894541Y1843621D01*
X2897433Y1854414D01*
Y1865586D01*
X2894541Y1876379D01*
X2888955Y1886054D01*
X2881055Y1893955D01*
X2871378Y1899541D01*
X2860586Y1902433D01*
D02*
G37*
G36*
X3290000Y1852929D02*
X3259995Y1822924D01*
X3260876Y1822044D01*
X3271691Y1815800D01*
X3283755Y1812567D01*
X3296245D01*
X3308309Y1815800D01*
X3319124Y1822044D01*
X3320005Y1822924D01*
X3290000Y1852929D01*
D02*
G37*
G36*
X3190000D02*
X3149638Y1812567D01*
X3230362D01*
X3190000Y1852929D01*
D02*
G37*
G36*
X2755000D02*
X2714638Y1812567D01*
X2795362D01*
X2755000Y1852929D01*
D02*
G37*
G36*
X3395586Y1802433D02*
X3384414D01*
X3373622Y1799541D01*
X3363945Y1793955D01*
X3356045Y1786054D01*
X3350459Y1776379D01*
X3347567Y1765586D01*
Y1754414D01*
X3350459Y1743621D01*
X3356045Y1733946D01*
X3363945Y1726045D01*
X3373622Y1720459D01*
X3384414Y1717567D01*
X3395586D01*
X3406378Y1720459D01*
X3416055Y1726045D01*
X3423955Y1733946D01*
X3429541Y1743621D01*
X3432433Y1754414D01*
Y1765586D01*
X3429541Y1776379D01*
X3423955Y1786054D01*
X3416055Y1793955D01*
X3406378Y1799541D01*
X3395586Y1802433D01*
D02*
G37*
G36*
X3295586D02*
X3284414D01*
X3273622Y1799541D01*
X3263945Y1793955D01*
X3256045Y1786054D01*
X3250459Y1776379D01*
X3247567Y1765586D01*
Y1754414D01*
X3250459Y1743621D01*
X3256045Y1733946D01*
X3263945Y1726045D01*
X3273622Y1720459D01*
X3284414Y1717567D01*
X3295586D01*
X3306378Y1720459D01*
X3316055Y1726045D01*
X3323955Y1733946D01*
X3329541Y1743621D01*
X3332433Y1754414D01*
Y1765586D01*
X3329541Y1776379D01*
X3323955Y1786054D01*
X3316055Y1793955D01*
X3306378Y1799541D01*
X3295586Y1802433D01*
D02*
G37*
G36*
X3195586D02*
X3184414D01*
X3173622Y1799541D01*
X3163945Y1793955D01*
X3156045Y1786054D01*
X3150459Y1776379D01*
X3147567Y1765586D01*
Y1754414D01*
X3150459Y1743621D01*
X3156045Y1733946D01*
X3163945Y1726045D01*
X3173622Y1720459D01*
X3184414Y1717567D01*
X3195586D01*
X3206378Y1720459D01*
X3216055Y1726045D01*
X3223955Y1733946D01*
X3229541Y1743621D01*
X3232433Y1754414D01*
Y1765586D01*
X3229541Y1776379D01*
X3223955Y1786054D01*
X3216055Y1793955D01*
X3206378Y1799541D01*
X3195586Y1802433D01*
D02*
G37*
G36*
X2960586D02*
X2949414D01*
X2938622Y1799541D01*
X2928945Y1793955D01*
X2921045Y1786054D01*
X2915459Y1776379D01*
X2912567Y1765586D01*
Y1754414D01*
X2915459Y1743621D01*
X2921045Y1733946D01*
X2928945Y1726045D01*
X2938622Y1720459D01*
X2949414Y1717567D01*
X2960586D01*
X2971378Y1720459D01*
X2981055Y1726045D01*
X2988955Y1733946D01*
X2994541Y1743621D01*
X2997433Y1754414D01*
Y1765586D01*
X2994541Y1776379D01*
X2988955Y1786054D01*
X2981055Y1793955D01*
X2971378Y1799541D01*
X2960586Y1802433D01*
D02*
G37*
G36*
X2860586D02*
X2849414D01*
X2838622Y1799541D01*
X2828945Y1793955D01*
X2821045Y1786054D01*
X2815459Y1776379D01*
X2812567Y1765586D01*
Y1754414D01*
X2815459Y1743621D01*
X2821045Y1733946D01*
X2828945Y1726045D01*
X2838622Y1720459D01*
X2849414Y1717567D01*
X2860586D01*
X2871378Y1720459D01*
X2881055Y1726045D01*
X2888955Y1733946D01*
X2894541Y1743621D01*
X2897433Y1754414D01*
Y1765586D01*
X2894541Y1776379D01*
X2888955Y1786054D01*
X2881055Y1793955D01*
X2871378Y1799541D01*
X2860586Y1802433D01*
D02*
G37*
G36*
X2760586D02*
X2749414D01*
X2738622Y1799541D01*
X2728945Y1793955D01*
X2721045Y1786054D01*
X2715459Y1776379D01*
X2712567Y1765586D01*
Y1754414D01*
X2715459Y1743621D01*
X2721045Y1733946D01*
X2728945Y1726045D01*
X2738622Y1720459D01*
X2749414Y1717567D01*
X2760586D01*
X2771378Y1720459D01*
X2781055Y1726045D01*
X2788955Y1733946D01*
X2794541Y1743621D01*
X2797433Y1754414D01*
Y1765586D01*
X2794541Y1776379D01*
X2788955Y1786054D01*
X2781055Y1793955D01*
X2771378Y1799541D01*
X2760586Y1802433D01*
D02*
G37*
G36*
X2993154Y1685858D02*
X2986846D01*
X2981017Y1683444D01*
X2976556Y1678983D01*
X2974142Y1673154D01*
Y1666846D01*
X2976556Y1661017D01*
X2981017Y1656556D01*
X2986846Y1654142D01*
X2993154D01*
X2998983Y1656556D01*
X3003444Y1661017D01*
X3005858Y1666846D01*
Y1673154D01*
X3003444Y1678983D01*
X2998983Y1683444D01*
X2993154Y1685858D01*
D02*
G37*
G36*
X2372051Y1896764D02*
X2352358D01*
X2332908Y1893684D01*
X2314179Y1887598D01*
X2296633Y1878658D01*
X2280701Y1867083D01*
X2266776Y1853158D01*
X2255201Y1837226D01*
X2246260Y1819680D01*
X2240175Y1800951D01*
X2237095Y1781500D01*
Y1761808D01*
X2240175Y1742357D01*
X2246260Y1723628D01*
X2255201Y1706082D01*
X2266776Y1690150D01*
X2280701Y1676225D01*
X2296633Y1664650D01*
X2314179Y1655710D01*
X2332908Y1649624D01*
X2352358Y1646544D01*
X2372051D01*
X2391501Y1649624D01*
X2410230Y1655710D01*
X2427777Y1664650D01*
X2443709Y1676225D01*
X2457633Y1690150D01*
X2469209Y1706082D01*
X2478149Y1723628D01*
X2484234Y1742357D01*
X2487315Y1761808D01*
Y1781500D01*
X2484234Y1800951D01*
X2478149Y1819680D01*
X2469209Y1837226D01*
X2457633Y1853158D01*
X2443709Y1867083D01*
X2427777Y1878658D01*
X2410230Y1887598D01*
X2391501Y1893684D01*
X2372051Y1896764D01*
D02*
G37*
G36*
X3779847Y1892111D02*
X3760154D01*
X3740704Y1889030D01*
X3721975Y1882945D01*
X3704428Y1874004D01*
X3688497Y1862429D01*
X3674572Y1848504D01*
X3662997Y1832573D01*
X3654056Y1815026D01*
X3647971Y1796297D01*
X3644890Y1776847D01*
Y1757154D01*
X3647971Y1737704D01*
X3654056Y1718975D01*
X3662997Y1701428D01*
X3674572Y1685497D01*
X3688497Y1671572D01*
X3704428Y1659997D01*
X3721975Y1651056D01*
X3740704Y1644971D01*
X3760154Y1641890D01*
X3779847D01*
X3799297Y1644971D01*
X3818026Y1651056D01*
X3835573Y1659997D01*
X3851504Y1671572D01*
X3865429Y1685497D01*
X3877004Y1701428D01*
X3885945Y1718975D01*
X3892030Y1737704D01*
X3895111Y1757154D01*
Y1776847D01*
X3892030Y1796297D01*
X3885945Y1815026D01*
X3877004Y1832573D01*
X3865429Y1848504D01*
X3851504Y1862429D01*
X3835573Y1874004D01*
X3818026Y1882945D01*
X3799297Y1889030D01*
X3779847Y1892111D01*
D02*
G37*
G36*
X3618832Y1665180D02*
X3612523D01*
X3606695Y1662766D01*
X3602234Y1658305D01*
X3599820Y1652477D01*
Y1646168D01*
X3602234Y1640339D01*
X3606695Y1635878D01*
X3612523Y1633464D01*
X3618832D01*
X3624661Y1635878D01*
X3629122Y1640339D01*
X3631536Y1646168D01*
Y1652477D01*
X3629122Y1658305D01*
X3624661Y1662766D01*
X3618832Y1665180D01*
D02*
G37*
G36*
X2994974Y1630858D02*
X2988665D01*
X2982836Y1628444D01*
X2978376Y1623983D01*
X2975961Y1618154D01*
Y1611846D01*
X2978376Y1606017D01*
X2982836Y1601556D01*
X2988665Y1599142D01*
X2994974D01*
X3000802Y1601556D01*
X3005263Y1606017D01*
X3007678Y1611846D01*
Y1618154D01*
X3005263Y1623983D01*
X3000802Y1628444D01*
X2994974Y1630858D01*
D02*
G37*
G36*
X3553154Y1615858D02*
X3546846D01*
X3541017Y1613444D01*
X3536556Y1608983D01*
X3534142Y1603154D01*
Y1596846D01*
X3536556Y1591017D01*
X3541017Y1586556D01*
X3546846Y1584142D01*
X3553154D01*
X3558983Y1586556D01*
X3563444Y1591017D01*
X3565858Y1596846D01*
Y1603154D01*
X3563444Y1608983D01*
X3558983Y1613444D01*
X3553154Y1615858D01*
D02*
G37*
G36*
X2415362Y1617433D02*
X2334638D01*
X2375000Y1577071D01*
X2415362Y1617433D01*
D02*
G37*
G36*
X2644776D02*
X2564052D01*
X2604414Y1577071D01*
X2644776Y1617433D01*
D02*
G37*
G36*
X3394974Y1599039D02*
X3388665D01*
X3382836Y1596624D01*
X3378376Y1592164D01*
X3375961Y1586335D01*
Y1580026D01*
X3378376Y1574198D01*
X3382836Y1569737D01*
X3388665Y1567322D01*
X3394974D01*
X3400802Y1569737D01*
X3405263Y1574198D01*
X3407678Y1580026D01*
Y1586335D01*
X3405263Y1592164D01*
X3400802Y1596624D01*
X3394974Y1599039D01*
D02*
G37*
G36*
X3183154Y1595858D02*
X3176846D01*
X3171017Y1593444D01*
X3166556Y1588983D01*
X3164142Y1583154D01*
Y1576846D01*
X3166556Y1571017D01*
X3171017Y1566556D01*
X3176846Y1564142D01*
X3183154D01*
X3188983Y1566556D01*
X3193444Y1571017D01*
X3195858Y1576846D01*
Y1583154D01*
X3193444Y1588983D01*
X3188983Y1593444D01*
X3183154Y1595858D01*
D02*
G37*
G36*
X2422433Y1610362D02*
X2382071Y1570000D01*
X2422433Y1529638D01*
Y1610362D01*
D02*
G37*
G36*
X2651847D02*
X2611485Y1570000D01*
X2651847Y1529638D01*
Y1610362D01*
D02*
G37*
G36*
X2556981Y1610362D02*
Y1529638D01*
X2597343Y1570000D01*
X2556981Y1610362D01*
D02*
G37*
G36*
X2327567Y1610362D02*
Y1529638D01*
X2367929Y1570000D01*
X2327567Y1610362D01*
D02*
G37*
G36*
X3816480Y1608024D02*
X3737519D01*
Y1529063D01*
X3816480D01*
Y1608024D01*
D02*
G37*
G36*
X2510001Y1612433D02*
X2498828D01*
X2488036Y1609541D01*
X2478360Y1603955D01*
X2470459Y1596054D01*
X2464873Y1586379D01*
X2461981Y1575586D01*
Y1564414D01*
X2464873Y1553621D01*
X2470459Y1543946D01*
X2478360Y1536045D01*
X2488036Y1530459D01*
X2498828Y1527567D01*
X2510001D01*
X2520793Y1530459D01*
X2530469Y1536045D01*
X2538369Y1543946D01*
X2543955Y1553621D01*
X2546847Y1564414D01*
Y1575586D01*
X2543955Y1586379D01*
X2538369Y1596054D01*
X2530469Y1603955D01*
X2520793Y1609541D01*
X2510001Y1612433D01*
D02*
G37*
G36*
X2280586D02*
X2269414D01*
X2258622Y1609541D01*
X2248945Y1603955D01*
X2241045Y1596054D01*
X2235459Y1586379D01*
X2232567Y1575586D01*
Y1564414D01*
X2235459Y1553621D01*
X2241045Y1543946D01*
X2248945Y1536045D01*
X2258622Y1530459D01*
X2269414Y1527567D01*
X2280586D01*
X2291378Y1530459D01*
X2301055Y1536045D01*
X2308955Y1543946D01*
X2314541Y1553621D01*
X2317433Y1564414D01*
Y1575586D01*
X2314541Y1586379D01*
X2308955Y1596054D01*
X2301055Y1603955D01*
X2291378Y1609541D01*
X2280586Y1612433D01*
D02*
G37*
G36*
X3123154Y1555858D02*
X3116846D01*
X3111017Y1553444D01*
X3106556Y1548983D01*
X3104142Y1543154D01*
Y1536846D01*
X3106556Y1531017D01*
X3111017Y1526556D01*
X3116846Y1524142D01*
X3123154D01*
X3128983Y1526556D01*
X3133444Y1531017D01*
X3135858Y1536846D01*
Y1543154D01*
X3133444Y1548983D01*
X3128983Y1553444D01*
X3123154Y1555858D01*
D02*
G37*
G36*
X2604414Y1562929D02*
X2564052Y1522567D01*
X2644776D01*
X2604414Y1562929D01*
D02*
G37*
G36*
X2375000Y1562929D02*
X2334638Y1522567D01*
X2415362D01*
X2375000Y1562929D01*
D02*
G37*
G36*
X3318154Y1515858D02*
X3311846D01*
X3306017Y1513444D01*
X3301556Y1508983D01*
X3299142Y1503154D01*
Y1496846D01*
X3301556Y1491017D01*
X3306017Y1486556D01*
X3311846Y1484142D01*
X3318154D01*
X3323983Y1486556D01*
X3328444Y1491017D01*
X3330858Y1496846D01*
Y1503154D01*
X3328444Y1508983D01*
X3323983Y1513444D01*
X3318154Y1515858D01*
D02*
G37*
G36*
X3253154Y1485858D02*
X3246846D01*
X3241017Y1483444D01*
X3236556Y1478983D01*
X3234142Y1473154D01*
Y1466846D01*
X3236556Y1461017D01*
X3241017Y1456556D01*
X3246846Y1454142D01*
X3253154D01*
X3258983Y1456556D01*
X3263444Y1461017D01*
X3265858Y1466846D01*
Y1473154D01*
X3263444Y1478983D01*
X3258983Y1483444D01*
X3253154Y1485858D01*
D02*
G37*
G36*
X3094974D02*
X3088665D01*
X3082836Y1483444D01*
X3078375Y1478983D01*
X3075961Y1473154D01*
Y1466846D01*
X3078375Y1461017D01*
X3082836Y1456556D01*
X3088665Y1454142D01*
X3094974D01*
X3100802Y1456556D01*
X3105263Y1461017D01*
X3107677Y1466846D01*
Y1473154D01*
X3105263Y1478983D01*
X3100802Y1483444D01*
X3094974Y1485858D01*
D02*
G37*
G36*
X3358154Y1475858D02*
X3351846D01*
X3346017Y1473444D01*
X3341556Y1468983D01*
X3339142Y1463154D01*
Y1456846D01*
X3341556Y1451017D01*
X3346017Y1446556D01*
X3351846Y1444142D01*
X3358154D01*
X3363983Y1446556D01*
X3368444Y1451017D01*
X3370858Y1456846D01*
Y1463154D01*
X3368444Y1468983D01*
X3363983Y1473444D01*
X3358154Y1475858D01*
D02*
G37*
G36*
X3782197Y1508024D02*
X3771802D01*
X3761761Y1505333D01*
X3752758Y1500135D01*
X3745407Y1492785D01*
X3740210Y1483782D01*
X3737519Y1473741D01*
Y1463346D01*
X3740210Y1453304D01*
X3745407Y1444302D01*
X3752758Y1436951D01*
X3761761Y1431754D01*
X3771802Y1429063D01*
X3782197D01*
X3792238Y1431754D01*
X3801241Y1436951D01*
X3808592Y1444302D01*
X3813789Y1453304D01*
X3816480Y1463346D01*
Y1473741D01*
X3813789Y1483782D01*
X3808592Y1492785D01*
X3801241Y1500135D01*
X3792238Y1505333D01*
X3782197Y1508024D01*
D02*
G37*
G36*
X2610001Y1512433D02*
X2598828D01*
X2588036Y1509541D01*
X2578360Y1503955D01*
X2570459Y1496054D01*
X2564873Y1486379D01*
X2561981Y1475586D01*
Y1464414D01*
X2564873Y1453621D01*
X2570459Y1443946D01*
X2578360Y1436045D01*
X2588036Y1430459D01*
X2598828Y1427567D01*
X2610001D01*
X2620793Y1430459D01*
X2630469Y1436045D01*
X2638369Y1443946D01*
X2643955Y1453621D01*
X2646847Y1464414D01*
Y1475586D01*
X2643955Y1486379D01*
X2638369Y1496054D01*
X2630469Y1503955D01*
X2620793Y1509541D01*
X2610001Y1512433D01*
D02*
G37*
G36*
X2510001D02*
X2498828D01*
X2488036Y1509541D01*
X2478360Y1503955D01*
X2470459Y1496054D01*
X2464873Y1486379D01*
X2461981Y1475586D01*
Y1464414D01*
X2464873Y1453621D01*
X2470459Y1443946D01*
X2478360Y1436045D01*
X2488036Y1430459D01*
X2498828Y1427567D01*
X2510001D01*
X2520793Y1430459D01*
X2530469Y1436045D01*
X2538369Y1443946D01*
X2543955Y1453621D01*
X2546847Y1464414D01*
Y1475586D01*
X2543955Y1486379D01*
X2538369Y1496054D01*
X2530469Y1503955D01*
X2520793Y1509541D01*
X2510001Y1512433D01*
D02*
G37*
G36*
X2380586D02*
X2369414D01*
X2358622Y1509541D01*
X2348945Y1503955D01*
X2341045Y1496054D01*
X2335459Y1486379D01*
X2332567Y1475586D01*
Y1464414D01*
X2335459Y1453621D01*
X2341045Y1443946D01*
X2348945Y1436045D01*
X2358622Y1430459D01*
X2369414Y1427567D01*
X2380586D01*
X2391378Y1430459D01*
X2401055Y1436045D01*
X2408955Y1443946D01*
X2414541Y1453621D01*
X2417433Y1464414D01*
Y1475586D01*
X2414541Y1486379D01*
X2408955Y1496054D01*
X2401055Y1503955D01*
X2391378Y1509541D01*
X2380586Y1512433D01*
D02*
G37*
G36*
X2280586D02*
X2269414D01*
X2258622Y1509541D01*
X2248945Y1503955D01*
X2241045Y1496054D01*
X2235459Y1486379D01*
X2232567Y1475586D01*
Y1464414D01*
X2235459Y1453621D01*
X2241045Y1443946D01*
X2248945Y1436045D01*
X2258622Y1430459D01*
X2269414Y1427567D01*
X2280586D01*
X2291378Y1430459D01*
X2301055Y1436045D01*
X2308955Y1443946D01*
X2314541Y1453621D01*
X2317433Y1464414D01*
Y1475586D01*
X2314541Y1486379D01*
X2308955Y1496054D01*
X2301055Y1503955D01*
X2291378Y1509541D01*
X2280586Y1512433D01*
D02*
G37*
G36*
X3448154Y1370858D02*
X3441846D01*
X3436017Y1368444D01*
X3431556Y1363983D01*
X3429142Y1358154D01*
Y1351846D01*
X3431556Y1346017D01*
X3436017Y1341556D01*
X3441846Y1339142D01*
X3448154D01*
X3453983Y1341556D01*
X3458444Y1346017D01*
X3460858Y1351846D01*
Y1358154D01*
X3458444Y1363983D01*
X3453983Y1368444D01*
X3448154Y1370858D01*
D02*
G37*
G36*
X3782197Y1408024D02*
X3771802D01*
X3761761Y1405333D01*
X3752758Y1400135D01*
X3745407Y1392785D01*
X3740210Y1383782D01*
X3737519Y1373741D01*
Y1363346D01*
X3740210Y1353304D01*
X3745407Y1344302D01*
X3752758Y1336951D01*
X3761761Y1331754D01*
X3771802Y1329063D01*
X3782197D01*
X3792238Y1331754D01*
X3801241Y1336951D01*
X3808592Y1344302D01*
X3813789Y1353304D01*
X3816480Y1363346D01*
Y1373741D01*
X3813789Y1383782D01*
X3808592Y1392785D01*
X3801241Y1400135D01*
X3792238Y1405333D01*
X3782197Y1408024D01*
D02*
G37*
G36*
X2610001Y1412433D02*
X2598828D01*
X2588036Y1409541D01*
X2578360Y1403955D01*
X2570459Y1396054D01*
X2564873Y1386379D01*
X2561981Y1375586D01*
Y1364414D01*
X2564873Y1353621D01*
X2570459Y1343946D01*
X2578360Y1336045D01*
X2588036Y1330459D01*
X2598828Y1327567D01*
X2610001D01*
X2620793Y1330459D01*
X2630469Y1336045D01*
X2638369Y1343946D01*
X2643955Y1353621D01*
X2646847Y1364414D01*
Y1375586D01*
X2643955Y1386379D01*
X2638369Y1396054D01*
X2630469Y1403955D01*
X2620793Y1409541D01*
X2610001Y1412433D01*
D02*
G37*
G36*
X2510001D02*
X2498828D01*
X2488036Y1409541D01*
X2478360Y1403955D01*
X2470459Y1396054D01*
X2464873Y1386379D01*
X2461981Y1375586D01*
Y1364414D01*
X2464873Y1353621D01*
X2470459Y1343946D01*
X2478360Y1336045D01*
X2488036Y1330459D01*
X2498828Y1327567D01*
X2510001D01*
X2520793Y1330459D01*
X2530469Y1336045D01*
X2538369Y1343946D01*
X2543955Y1353621D01*
X2546847Y1364414D01*
Y1375586D01*
X2543955Y1386379D01*
X2538369Y1396054D01*
X2530469Y1403955D01*
X2520793Y1409541D01*
X2510001Y1412433D01*
D02*
G37*
G36*
X2380586D02*
X2369414D01*
X2358622Y1409541D01*
X2348945Y1403955D01*
X2341045Y1396054D01*
X2335459Y1386379D01*
X2332567Y1375586D01*
Y1364414D01*
X2335459Y1353621D01*
X2341045Y1343946D01*
X2348945Y1336045D01*
X2358622Y1330459D01*
X2369414Y1327567D01*
X2380586D01*
X2391378Y1330459D01*
X2401055Y1336045D01*
X2408955Y1343946D01*
X2414541Y1353621D01*
X2417433Y1364414D01*
Y1375586D01*
X2414541Y1386379D01*
X2408955Y1396054D01*
X2401055Y1403955D01*
X2391378Y1409541D01*
X2380586Y1412433D01*
D02*
G37*
G36*
X2280586D02*
X2269414D01*
X2258622Y1409541D01*
X2248945Y1403955D01*
X2241045Y1396054D01*
X2235459Y1386379D01*
X2232567Y1375586D01*
Y1364414D01*
X2235459Y1353621D01*
X2241045Y1343946D01*
X2248945Y1336045D01*
X2258622Y1330459D01*
X2269414Y1327567D01*
X2280586D01*
X2291378Y1330459D01*
X2301055Y1336045D01*
X2308955Y1343946D01*
X2314541Y1353621D01*
X2317433Y1364414D01*
Y1375586D01*
X2314541Y1386379D01*
X2308955Y1396054D01*
X2301055Y1403955D01*
X2291378Y1409541D01*
X2280586Y1412433D01*
D02*
G37*
G36*
X2768154Y1339401D02*
X2761846D01*
X2756017Y1336987D01*
X2751556Y1332526D01*
X2749142Y1326698D01*
Y1320389D01*
X2751556Y1314560D01*
X2756017Y1310099D01*
X2761846Y1307685D01*
X2768154D01*
X2773983Y1310099D01*
X2778444Y1314560D01*
X2780858Y1320389D01*
Y1326698D01*
X2778444Y1332526D01*
X2773983Y1336987D01*
X2768154Y1339401D01*
D02*
G37*
G36*
X3052910Y1297665D02*
X3046601D01*
X3040773Y1295250D01*
X3036312Y1290789D01*
X3033898Y1284961D01*
Y1278652D01*
X3036312Y1272823D01*
X3040773Y1268362D01*
X3046601Y1265948D01*
X3052910D01*
X3058739Y1268362D01*
X3063200Y1272823D01*
X3065614Y1278652D01*
Y1284961D01*
X3063200Y1290789D01*
X3058739Y1295250D01*
X3052910Y1297665D01*
D02*
G37*
G36*
X2862842Y1296418D02*
X2856533D01*
X2850704Y1294004D01*
X2846243Y1289543D01*
X2843829Y1283714D01*
Y1277405D01*
X2846243Y1271577D01*
X2850704Y1267116D01*
X2856533Y1264702D01*
X2862842D01*
X2868670Y1267116D01*
X2873131Y1271577D01*
X2875546Y1277405D01*
Y1283714D01*
X2873131Y1289543D01*
X2868670Y1294004D01*
X2862842Y1296418D01*
D02*
G37*
G36*
X2480695Y1286503D02*
X2474386D01*
X2468557Y1284089D01*
X2464096Y1279628D01*
X2461682Y1273799D01*
Y1267490D01*
X2464096Y1261662D01*
X2468557Y1257201D01*
X2474386Y1254786D01*
X2480695D01*
X2486523Y1257201D01*
X2490984Y1261662D01*
X2493398Y1267490D01*
Y1273799D01*
X2490984Y1279628D01*
X2486523Y1284089D01*
X2480695Y1286503D01*
D02*
G37*
G36*
X3782197Y1308024D02*
X3771802D01*
X3761761Y1305333D01*
X3752758Y1300135D01*
X3745407Y1292785D01*
X3740210Y1283782D01*
X3737519Y1273741D01*
Y1263346D01*
X3740210Y1253304D01*
X3745407Y1244302D01*
X3752758Y1236951D01*
X3761761Y1231754D01*
X3771802Y1229063D01*
X3782197D01*
X3792238Y1231754D01*
X3801241Y1236951D01*
X3808592Y1244302D01*
X3813789Y1253304D01*
X3816480Y1263346D01*
Y1273741D01*
X3813789Y1283782D01*
X3808592Y1292785D01*
X3801241Y1300135D01*
X3792238Y1305333D01*
X3782197Y1308024D01*
D02*
G37*
G36*
X3448154Y1252275D02*
X3441846D01*
X3436017Y1249861D01*
X3431556Y1245400D01*
X3429142Y1239572D01*
Y1233263D01*
X3431556Y1227434D01*
X3436017Y1222973D01*
X3441846Y1220559D01*
X3448154D01*
X3453983Y1222973D01*
X3458444Y1227434D01*
X3460858Y1233263D01*
Y1239572D01*
X3458444Y1245400D01*
X3453983Y1249861D01*
X3448154Y1252275D01*
D02*
G37*
G36*
X3128154Y1200858D02*
X3121846D01*
X3116017Y1198444D01*
X3111556Y1193983D01*
X3109142Y1188154D01*
Y1181846D01*
X3111556Y1176017D01*
X3116017Y1171556D01*
X3121846Y1169142D01*
X3128154D01*
X3133983Y1171556D01*
X3138444Y1176017D01*
X3140858Y1181846D01*
Y1188154D01*
X3138444Y1193983D01*
X3133983Y1198444D01*
X3128154Y1200858D01*
D02*
G37*
G36*
X3782197Y1208024D02*
X3771802D01*
X3761761Y1205333D01*
X3752758Y1200135D01*
X3745407Y1192785D01*
X3740210Y1183782D01*
X3737519Y1173741D01*
Y1163346D01*
X3740210Y1153304D01*
X3745407Y1144302D01*
X3752758Y1136951D01*
X3761761Y1131754D01*
X3771802Y1129063D01*
X3782197D01*
X3792238Y1131754D01*
X3801241Y1136951D01*
X3808592Y1144302D01*
X3813789Y1153304D01*
X3816480Y1163346D01*
Y1173741D01*
X3813789Y1183782D01*
X3808592Y1192785D01*
X3801241Y1200135D01*
X3792238Y1205333D01*
X3782197Y1208024D01*
D02*
G37*
G36*
X3294974Y1145858D02*
X3288665D01*
X3282836Y1143444D01*
X3278376Y1138983D01*
X3275961Y1133154D01*
Y1126846D01*
X3278376Y1121017D01*
X3282836Y1116556D01*
X3288665Y1114142D01*
X3294974D01*
X3300802Y1116556D01*
X3305263Y1121017D01*
X3307678Y1126846D01*
Y1133154D01*
X3305263Y1138983D01*
X3300802Y1143444D01*
X3294974Y1145858D01*
D02*
G37*
G36*
X2437257Y1110944D02*
X2430948D01*
X2425119Y1108529D01*
X2420659Y1104069D01*
X2418244Y1098240D01*
Y1091931D01*
X2420659Y1086102D01*
X2425119Y1081642D01*
X2430948Y1079227D01*
X2437257D01*
X2443085Y1081642D01*
X2447546Y1086102D01*
X2449961Y1091931D01*
Y1098240D01*
X2447546Y1104069D01*
X2443085Y1108529D01*
X2437257Y1110944D01*
D02*
G37*
G36*
X3780154Y1110858D02*
X3773845D01*
X3768017Y1108444D01*
X3763556Y1103983D01*
X3761141Y1098154D01*
Y1091846D01*
X3763556Y1086017D01*
X3768017Y1081556D01*
X3773845Y1079142D01*
X3780154D01*
X3785983Y1081556D01*
X3790443Y1086017D01*
X3792858Y1091846D01*
Y1098154D01*
X3790443Y1103983D01*
X3785983Y1108444D01*
X3780154Y1110858D01*
D02*
G37*
G36*
X3688154D02*
X3681846D01*
X3676017Y1108444D01*
X3671556Y1103983D01*
X3669142Y1098154D01*
Y1091846D01*
X3671556Y1086017D01*
X3676017Y1081556D01*
X3681846Y1079142D01*
X3688154D01*
X3693983Y1081556D01*
X3698444Y1086017D01*
X3700858Y1091846D01*
Y1098154D01*
X3698444Y1103983D01*
X3693983Y1108444D01*
X3688154Y1110858D01*
D02*
G37*
G36*
X3464733Y1110618D02*
X3458425D01*
X3452596Y1108204D01*
X3448135Y1103743D01*
X3445721Y1097914D01*
Y1091605D01*
X3448135Y1085777D01*
X3452596Y1081316D01*
X3458425Y1078901D01*
X3464733D01*
X3470562Y1081316D01*
X3475023Y1085777D01*
X3477437Y1091605D01*
Y1097914D01*
X3475023Y1103743D01*
X3470562Y1108204D01*
X3464733Y1110618D01*
D02*
G37*
G36*
X3344974Y1078182D02*
X3338665D01*
X3332836Y1075767D01*
X3328376Y1071306D01*
X3325961Y1065478D01*
Y1059169D01*
X3328376Y1053341D01*
X3332836Y1048880D01*
X3338665Y1046465D01*
X3344974D01*
X3350802Y1048880D01*
X3355263Y1053341D01*
X3357678Y1059169D01*
Y1065478D01*
X3355263Y1071306D01*
X3350802Y1075767D01*
X3344974Y1078182D01*
D02*
G37*
G36*
X3594974Y1075858D02*
X3588665D01*
X3582836Y1073444D01*
X3578376Y1068983D01*
X3575961Y1063154D01*
Y1056846D01*
X3578376Y1051017D01*
X3582836Y1046556D01*
X3588665Y1044142D01*
X3594974D01*
X3600802Y1046556D01*
X3605263Y1051017D01*
X3607678Y1056846D01*
Y1063154D01*
X3605263Y1068983D01*
X3600802Y1073444D01*
X3594974Y1075858D01*
D02*
G37*
G36*
X3502974D02*
X3496665D01*
X3490836Y1073444D01*
X3486376Y1068983D01*
X3483961Y1063154D01*
Y1056846D01*
X3486376Y1051017D01*
X3490836Y1046556D01*
X3496665Y1044142D01*
X3502974D01*
X3508802Y1046556D01*
X3513263Y1051017D01*
X3515678Y1056846D01*
Y1063154D01*
X3513263Y1068983D01*
X3508802Y1073444D01*
X3502974Y1075858D01*
D02*
G37*
G36*
X2893154D02*
X2886846D01*
X2881017Y1073444D01*
X2876556Y1068983D01*
X2874142Y1063154D01*
Y1056846D01*
X2876556Y1051017D01*
X2881017Y1046556D01*
X2886846Y1044142D01*
X2893154D01*
X2898983Y1046556D01*
X2903444Y1051017D01*
X2905858Y1056846D01*
Y1063154D01*
X2903444Y1068983D01*
X2898983Y1073444D01*
X2893154Y1075858D01*
D02*
G37*
G36*
X2983154Y1060858D02*
X2976846D01*
X2971017Y1058444D01*
X2966556Y1053983D01*
X2964142Y1048154D01*
Y1041846D01*
X2966556Y1036017D01*
X2971017Y1031556D01*
X2976846Y1029142D01*
X2983154D01*
X2988983Y1031556D01*
X2993444Y1036017D01*
X2995858Y1041846D01*
Y1048154D01*
X2993444Y1053983D01*
X2988983Y1058444D01*
X2983154Y1060858D01*
D02*
G37*
G36*
X3223154Y1030670D02*
X3216846D01*
X3211017Y1028255D01*
X3206556Y1023794D01*
X3204142Y1017966D01*
Y1011657D01*
X3206556Y1005828D01*
X3211017Y1001368D01*
X3216846Y998953D01*
X3223154D01*
X3228983Y1001368D01*
X3233444Y1005828D01*
X3235858Y1011657D01*
Y1017966D01*
X3233444Y1023794D01*
X3228983Y1028255D01*
X3223154Y1030670D01*
D02*
G37*
G36*
X2660154Y1004560D02*
X2653845D01*
X2648017Y1002145D01*
X2643556Y997684D01*
X2642536Y995224D01*
X2633877D01*
X2632858Y997684D01*
X2628397Y1002145D01*
X2622568Y1004560D01*
X2616260D01*
X2610431Y1002145D01*
X2605970Y997684D01*
X2597441D01*
X2592980Y1002145D01*
X2587151Y1004560D01*
X2580842D01*
X2575014Y1002145D01*
X2570553Y997684D01*
X2568139Y991856D01*
Y985547D01*
X2570553Y979718D01*
X2575014Y975258D01*
X2580842Y972843D01*
X2587151D01*
X2592980Y975258D01*
X2597441Y979718D01*
X2605970D01*
X2610431Y975258D01*
X2616260Y972843D01*
X2622568D01*
X2628397Y975258D01*
X2632858Y979718D01*
X2633877Y982179D01*
X2642536D01*
X2643556Y979718D01*
X2648017Y975258D01*
X2653845Y972843D01*
X2660154D01*
X2665983Y975258D01*
X2670443Y979718D01*
X2672858Y985547D01*
Y991856D01*
X2670443Y997684D01*
X2665983Y1002145D01*
X2660154Y1004560D01*
D02*
G37*
G36*
X2964978Y1002630D02*
X2958669D01*
X2952840Y1000216D01*
X2948380Y995755D01*
X2945965Y989927D01*
Y983618D01*
X2948380Y977789D01*
X2952840Y973328D01*
X2958669Y970914D01*
X2964978D01*
X2970807Y973328D01*
X2975267Y977789D01*
X2977682Y983618D01*
Y989927D01*
X2975267Y995755D01*
X2970807Y1000216D01*
X2964978Y1002630D01*
D02*
G37*
G36*
X3133154Y970858D02*
X3126846D01*
X3121017Y968444D01*
X3116556Y963983D01*
X3114142Y958154D01*
Y951846D01*
X3116556Y946017D01*
X3121017Y941556D01*
X3126846Y939142D01*
X3133154D01*
X3138983Y941556D01*
X3143444Y946017D01*
X3145858Y951846D01*
Y958154D01*
X3143444Y963983D01*
X3138983Y968444D01*
X3133154Y970858D01*
D02*
G37*
G36*
X2893154Y1002630D02*
X2886846D01*
X2881017Y1000216D01*
X2876556Y995755D01*
X2874142Y989927D01*
Y983618D01*
X2876556Y977789D01*
X2881017Y973328D01*
X2886846Y970914D01*
X2887173D01*
X2889374Y967434D01*
X2891113Y962914D01*
X2889142Y958154D01*
Y951846D01*
X2891556Y946017D01*
X2896017Y941556D01*
X2901846Y939142D01*
X2908154D01*
X2913983Y941556D01*
X2918444Y946017D01*
X2920858Y951846D01*
Y958154D01*
X2918444Y963983D01*
X2913983Y968444D01*
X2908154Y970858D01*
X2907827D01*
X2905626Y974338D01*
X2903887Y978858D01*
X2905858Y983618D01*
Y989927D01*
X2903444Y995755D01*
X2898983Y1000216D01*
X2893154Y1002630D01*
D02*
G37*
G36*
X2660154Y938345D02*
X2653845D01*
X2648017Y935931D01*
X2643556Y931470D01*
X2642536Y929010D01*
X2633877D01*
X2632858Y931470D01*
X2628397Y935931D01*
X2622568Y938345D01*
X2616260D01*
X2610431Y935931D01*
X2605970Y931470D01*
X2597441D01*
X2592980Y935931D01*
X2587151Y938345D01*
X2580842D01*
X2575014Y935931D01*
X2570553Y931470D01*
X2568139Y925641D01*
Y919333D01*
X2570553Y913504D01*
X2575014Y909043D01*
X2580842Y906629D01*
X2587151D01*
X2592980Y909043D01*
X2597441Y913504D01*
X2605970D01*
X2610431Y909043D01*
X2616260Y906629D01*
X2622568D01*
X2628397Y909043D01*
X2632858Y913504D01*
X2633877Y915965D01*
X2642536D01*
X2643556Y913504D01*
X2648017Y909043D01*
X2653845Y906629D01*
X2660154D01*
X2665983Y909043D01*
X2670443Y913504D01*
X2672858Y919333D01*
Y925641D01*
X2670443Y931470D01*
X2665983Y935931D01*
X2660154Y938345D01*
D02*
G37*
G36*
X3423154Y935858D02*
X3416846D01*
X3411017Y933444D01*
X3406556Y928983D01*
X3404142Y923154D01*
Y916846D01*
X3406556Y911017D01*
X3411017Y906556D01*
X3416846Y904142D01*
X3423154D01*
X3428983Y906556D01*
X3433444Y911017D01*
X3435858Y916846D01*
Y923154D01*
X3433444Y928983D01*
X3428983Y933444D01*
X3423154Y935858D01*
D02*
G37*
G36*
X3343154Y915858D02*
X3336846D01*
X3331017Y913444D01*
X3326556Y908983D01*
X3324142Y903154D01*
Y896846D01*
X3326556Y891017D01*
X3331017Y886556D01*
X3336846Y884142D01*
X3343154D01*
X3348983Y886556D01*
X3353444Y891017D01*
X3355858Y896846D01*
Y903154D01*
X3353444Y908983D01*
X3348983Y913444D01*
X3343154Y915858D01*
D02*
G37*
G36*
X2479695Y905858D02*
X2473386D01*
X2467557Y903444D01*
X2463096Y898983D01*
X2460682Y893154D01*
Y886846D01*
X2463096Y881017D01*
X2467557Y876556D01*
X2473386Y874142D01*
X2479695D01*
X2485523Y876556D01*
X2489984Y881017D01*
X2492398Y886846D01*
Y893154D01*
X2489984Y898983D01*
X2485523Y903444D01*
X2479695Y905858D01*
D02*
G37*
G36*
X3233154Y900858D02*
X3226846D01*
X3221017Y898444D01*
X3216556Y893983D01*
X3214142Y888154D01*
Y881846D01*
X3216556Y876017D01*
X3221017Y871556D01*
X3226846Y869142D01*
X3233154D01*
X3238983Y871556D01*
X3243444Y876017D01*
X3245858Y881846D01*
Y888154D01*
X3243444Y893983D01*
X3238983Y898444D01*
X3233154Y900858D01*
D02*
G37*
G36*
X2964978D02*
X2958669D01*
X2952840Y898444D01*
X2948380Y893983D01*
X2945965Y888154D01*
Y881846D01*
X2948380Y876017D01*
X2952840Y871556D01*
X2958669Y869142D01*
X2964978D01*
X2970807Y871556D01*
X2975267Y876017D01*
X2977682Y881846D01*
Y888154D01*
X2975267Y893983D01*
X2970807Y898444D01*
X2964978Y900858D01*
D02*
G37*
G36*
X2182580Y884571D02*
X2176271D01*
X2170443Y882156D01*
X2165982Y877695D01*
X2163568Y871867D01*
Y865558D01*
X2165982Y859729D01*
X2170443Y855269D01*
X2176271Y852854D01*
X2182580D01*
X2188409Y855269D01*
X2192870Y859729D01*
X2195284Y865558D01*
Y871867D01*
X2192870Y877695D01*
X2188409Y882156D01*
X2182580Y884571D01*
D02*
G37*
G36*
X713054Y882179D02*
X706745D01*
X700917Y879765D01*
X696456Y875304D01*
X694042Y869476D01*
Y863167D01*
X696456Y857338D01*
X700917Y852877D01*
X706745Y850463D01*
X713054D01*
X718883Y852877D01*
X723344Y857338D01*
X725758Y863167D01*
Y869476D01*
X723344Y875304D01*
X718883Y879765D01*
X713054Y882179D01*
D02*
G37*
G36*
X3358154Y862296D02*
X3351846D01*
X3346017Y859882D01*
X3341556Y855421D01*
X3339142Y849592D01*
Y843283D01*
X3341556Y837455D01*
X3346017Y832994D01*
X3351846Y830580D01*
X3358154D01*
X3363983Y832994D01*
X3368444Y837455D01*
X3370858Y843283D01*
Y849592D01*
X3368444Y855421D01*
X3363983Y859882D01*
X3358154Y862296D01*
D02*
G37*
G36*
X2896048D02*
X2889739D01*
X2883911Y859882D01*
X2879450Y855421D01*
X2877035Y849592D01*
Y843283D01*
X2879450Y837455D01*
X2883911Y832994D01*
X2889739Y830580D01*
X2896048D01*
X2901877Y832994D01*
X2906338Y837455D01*
X2908752Y843283D01*
Y849592D01*
X2906338Y855421D01*
X2901877Y859882D01*
X2896048Y862296D01*
D02*
G37*
G36*
X2319592D02*
X2313283D01*
X2307455Y859882D01*
X2302994Y855421D01*
X2300579Y849592D01*
Y843283D01*
X2302994Y837455D01*
X2307455Y832994D01*
X2313283Y830580D01*
X2319592D01*
X2325421Y832994D01*
X2329882Y837455D01*
X2332296Y843283D01*
Y849592D01*
X2329882Y855421D01*
X2325421Y859882D01*
X2319592Y862296D01*
D02*
G37*
G36*
X495110Y841941D02*
X488801D01*
X482972Y839526D01*
X478511Y835065D01*
X476097Y829237D01*
Y822928D01*
X478511Y817099D01*
X482972Y812639D01*
X488801Y810224D01*
X495110D01*
X500938Y812639D01*
X505399Y817099D01*
X507813Y822928D01*
Y829237D01*
X505399Y835065D01*
X500938Y839526D01*
X495110Y841941D01*
D02*
G37*
G36*
X2578154Y840858D02*
X2571846D01*
X2566017Y838444D01*
X2561556Y833983D01*
X2559142Y828154D01*
Y821846D01*
X2561556Y816017D01*
X2566017Y811556D01*
X2571846Y809142D01*
X2578154D01*
X2583983Y811556D01*
X2588444Y816017D01*
X2590858Y821846D01*
Y828154D01*
X2588444Y833983D01*
X2583983Y838444D01*
X2578154Y840858D01*
D02*
G37*
G36*
X617155Y835858D02*
X610846D01*
X605018Y833444D01*
X600557Y828983D01*
X598142Y823154D01*
Y816846D01*
X600557Y811017D01*
X605018Y806556D01*
X610846Y804142D01*
X617155D01*
X622984Y806556D01*
X627444Y811017D01*
X629859Y816846D01*
Y823154D01*
X627444Y828983D01*
X622984Y833444D01*
X617155Y835858D01*
D02*
G37*
G36*
X2143154Y800602D02*
X2136846D01*
X2131017Y798188D01*
X2126556Y793727D01*
X2124142Y787898D01*
Y781589D01*
X2126556Y775761D01*
X2131017Y771300D01*
X2136846Y768886D01*
X2143154D01*
X2148983Y771300D01*
X2153444Y775761D01*
X2155858Y781589D01*
Y787898D01*
X2153444Y793727D01*
X2148983Y798188D01*
X2143154Y800602D01*
D02*
G37*
G36*
X2388154Y785858D02*
X2381846D01*
X2376017Y783444D01*
X2371556Y778983D01*
X2369142Y773154D01*
Y766846D01*
X2371556Y761017D01*
X2376017Y756556D01*
X2381846Y754142D01*
X2388154D01*
X2393983Y756556D01*
X2398444Y761017D01*
X2400858Y766846D01*
Y773154D01*
X2398444Y778983D01*
X2393983Y783444D01*
X2388154Y785858D01*
D02*
G37*
G36*
X323739Y764470D02*
X317431D01*
X311602Y762056D01*
X307141Y757595D01*
X304727Y751766D01*
Y745457D01*
X307141Y739629D01*
X311602Y735168D01*
X317431Y732754D01*
X323739D01*
X329568Y735168D01*
X334029Y739629D01*
X336443Y745457D01*
Y751766D01*
X334029Y757595D01*
X329568Y762056D01*
X323739Y764470D01*
D02*
G37*
G36*
X465110Y759263D02*
X458801D01*
X452972Y756849D01*
X448511Y752388D01*
X446097Y746560D01*
Y740251D01*
X448511Y734422D01*
X452972Y729961D01*
X458801Y727547D01*
X465110D01*
X470938Y729961D01*
X475399Y734422D01*
X477813Y740251D01*
Y746560D01*
X475399Y752388D01*
X470938Y756849D01*
X465110Y759263D01*
D02*
G37*
G36*
X394739D02*
X388431D01*
X382602Y756849D01*
X378141Y752388D01*
X375727Y746560D01*
Y740251D01*
X378141Y734422D01*
X382602Y729961D01*
X388431Y727547D01*
X394739D01*
X400568Y729961D01*
X405029Y734422D01*
X407443Y740251D01*
Y746560D01*
X405029Y752388D01*
X400568Y756849D01*
X394739Y759263D01*
D02*
G37*
G36*
X3533154Y721922D02*
X3526846D01*
X3521017Y719507D01*
X3516556Y715047D01*
X3514142Y709218D01*
Y702909D01*
X3516556Y697081D01*
X3521017Y692620D01*
X3526846Y690205D01*
X3533154D01*
X3538983Y692620D01*
X3543444Y697081D01*
X3545858Y702909D01*
Y709218D01*
X3543444Y715047D01*
X3538983Y719507D01*
X3533154Y721922D01*
D02*
G37*
G36*
X3246549Y710858D02*
X3240240D01*
X3234411Y708444D01*
X3229950Y703983D01*
X3227536Y698154D01*
Y691846D01*
X3229950Y686017D01*
X3234411Y681556D01*
X3240240Y679142D01*
X3246549D01*
X3252377Y681556D01*
X3256838Y686017D01*
X3259252Y691846D01*
Y698154D01*
X3256838Y703983D01*
X3252377Y708444D01*
X3246549Y710858D01*
D02*
G37*
G36*
X3368154Y680858D02*
X3361846D01*
X3356017Y678444D01*
X3351556Y673983D01*
X3349142Y668154D01*
Y661846D01*
X3351556Y656017D01*
X3356017Y651556D01*
X3361846Y649142D01*
X3368154D01*
X3373983Y651556D01*
X3378444Y656017D01*
X3380858Y661846D01*
Y668154D01*
X3378444Y673983D01*
X3373983Y678444D01*
X3368154Y680858D01*
D02*
G37*
G36*
X588154Y665858D02*
X581846D01*
X576017Y663444D01*
X571556Y658983D01*
X569142Y653154D01*
Y646846D01*
X571556Y641017D01*
X576017Y636556D01*
X581846Y634142D01*
X588154D01*
X593983Y636556D01*
X598444Y641017D01*
X600858Y646846D01*
Y653154D01*
X598444Y658983D01*
X593983Y663444D01*
X588154Y665858D01*
D02*
G37*
G36*
X3462974Y645858D02*
X3456665D01*
X3450836Y643444D01*
X3446376Y638983D01*
X3443961Y633154D01*
Y626846D01*
X3446376Y621017D01*
X3450836Y616556D01*
X3456665Y614142D01*
X3462974D01*
X3468802Y616556D01*
X3473263Y621017D01*
X3475678Y626846D01*
Y633154D01*
X3473263Y638983D01*
X3468802Y643444D01*
X3462974Y645858D01*
D02*
G37*
G36*
X2452257D02*
X2445948D01*
X2440119Y643444D01*
X2435659Y638983D01*
X2433244Y633154D01*
Y626846D01*
X2435659Y621017D01*
X2440119Y616556D01*
X2445948Y614142D01*
X2452257D01*
X2458085Y616556D01*
X2462546Y621017D01*
X2464961Y626846D01*
Y633154D01*
X2462546Y638983D01*
X2458085Y643444D01*
X2452257Y645858D01*
D02*
G37*
G36*
X549480Y630858D02*
X543171D01*
X537342Y628444D01*
X532881Y623983D01*
X530467Y618154D01*
Y611846D01*
X532881Y606017D01*
X537342Y601556D01*
X543171Y599142D01*
X549480D01*
X555308Y601556D01*
X559769Y606017D01*
X562183Y611846D01*
Y618154D01*
X559769Y623983D01*
X555308Y628444D01*
X549480Y630858D01*
D02*
G37*
G36*
X2850000Y1112137D02*
X2700000D01*
X2697269Y1111594D01*
X2694953Y1110047D01*
X2693406Y1107731D01*
X2692863Y1105000D01*
Y772956D01*
X2457044Y537137D01*
X2370000D01*
X2367269Y536594D01*
X2364953Y535047D01*
X2363406Y532731D01*
X2362863Y530000D01*
Y427000D01*
X2363406Y424269D01*
X2364953Y421954D01*
X2367269Y420407D01*
X2370000Y419863D01*
X2587001D01*
X2589732Y420407D01*
X2592047Y421954D01*
X2773118Y603024D01*
X2782085Y600678D01*
X2782923Y598655D01*
X2787384Y594194D01*
X2793213Y591780D01*
X2799521D01*
X2805350Y594194D01*
X2809811Y598655D01*
X2812225Y604484D01*
Y610793D01*
X2809811Y616621D01*
X2805350Y621082D01*
X2803327Y621920D01*
X2800981Y630888D01*
X2815047Y644953D01*
X2816594Y647269D01*
X2817137Y650000D01*
Y757044D01*
X2855047Y794953D01*
X2856594Y797269D01*
X2857137Y800000D01*
Y1105000D01*
X2856594Y1107731D01*
X2855047Y1110047D01*
X2852731Y1111594D01*
X2850000Y1112137D01*
D02*
G37*
G36*
X3246549Y621922D02*
X3240240D01*
X3234411Y619507D01*
X3229950Y615047D01*
X3227536Y609218D01*
Y602909D01*
X3229950Y597081D01*
X3234411Y592620D01*
X3240240Y590205D01*
X3246549D01*
X3252377Y592620D01*
X3256838Y597081D01*
X3259252Y602909D01*
Y609218D01*
X3256838Y615047D01*
X3252377Y619507D01*
X3246549Y621922D01*
D02*
G37*
G36*
X3339579Y601101D02*
X3333270D01*
X3327441Y598687D01*
X3322980Y594226D01*
X3320566Y588397D01*
Y582088D01*
X3322980Y576260D01*
X3327441Y571799D01*
X3333270Y569385D01*
X3339579D01*
X3345407Y571799D01*
X3349868Y576260D01*
X3352282Y582088D01*
Y588397D01*
X3349868Y594226D01*
X3345407Y598687D01*
X3339579Y601101D01*
D02*
G37*
G36*
X3394974Y600465D02*
X3388665D01*
X3382836Y598051D01*
X3378376Y593590D01*
X3375961Y587761D01*
Y581452D01*
X3378376Y575624D01*
X3382836Y571163D01*
X3388665Y568749D01*
X3394974D01*
X3400802Y571163D01*
X3405263Y575624D01*
X3407678Y581452D01*
Y587761D01*
X3405263Y593590D01*
X3400802Y598051D01*
X3394974Y600465D01*
D02*
G37*
G36*
X3285919D02*
X3279610D01*
X3273781Y598051D01*
X3269320Y593590D01*
X3266906Y587761D01*
Y581452D01*
X3269320Y575624D01*
X3273781Y571163D01*
X3279610Y568749D01*
X3285919D01*
X3291747Y571163D01*
X3296208Y575624D01*
X3298622Y581452D01*
Y587761D01*
X3296208Y593590D01*
X3291747Y598051D01*
X3285919Y600465D01*
D02*
G37*
G36*
X3144974Y590858D02*
X3138665D01*
X3132836Y588444D01*
X3128376Y583983D01*
X3125961Y578154D01*
Y571846D01*
X3128376Y566017D01*
X3132836Y561556D01*
X3138665Y559142D01*
X3144974D01*
X3150802Y561556D01*
X3155263Y566017D01*
X3157678Y571846D01*
Y578154D01*
X3155263Y583983D01*
X3150802Y588444D01*
X3144974Y590858D01*
D02*
G37*
G36*
X3435525Y561095D02*
X3429216D01*
X3423388Y558681D01*
X3418927Y554220D01*
X3416512Y548391D01*
Y542082D01*
X3418927Y536254D01*
X3423388Y531793D01*
X3429216Y529379D01*
X3435525D01*
X3441354Y531793D01*
X3445814Y536254D01*
X3448229Y542082D01*
Y548391D01*
X3445814Y554220D01*
X3441354Y558681D01*
X3435525Y561095D01*
D02*
G37*
G36*
X3246549D02*
X3240240D01*
X3234411Y558681D01*
X3229950Y554220D01*
X3227536Y548391D01*
Y542082D01*
X3229950Y536254D01*
X3234411Y531793D01*
X3240240Y529379D01*
X3246549D01*
X3252377Y531793D01*
X3256838Y536254D01*
X3259252Y542082D01*
Y548391D01*
X3256838Y554220D01*
X3252377Y558681D01*
X3246549Y561095D01*
D02*
G37*
G36*
X203851Y597741D02*
X111111D01*
Y505000D01*
X203851D01*
Y597741D01*
D02*
G37*
G36*
X3368596Y533536D02*
X3362287D01*
X3356459Y531122D01*
X3351998Y526661D01*
X3349583Y520832D01*
Y514523D01*
X3351998Y508695D01*
X3356459Y504234D01*
X3362287Y501820D01*
X3368596D01*
X3374425Y504234D01*
X3378885Y508695D01*
X3381300Y514523D01*
Y520832D01*
X3378885Y526661D01*
X3374425Y531122D01*
X3368596Y533536D01*
D02*
G37*
G36*
X3313478D02*
X3307169D01*
X3301340Y531122D01*
X3296879Y526661D01*
X3294465Y520832D01*
Y514523D01*
X3296879Y508695D01*
X3301340Y504234D01*
X3307169Y501820D01*
X3313478D01*
X3319306Y504234D01*
X3323767Y508695D01*
X3326182Y514523D01*
Y520832D01*
X3323767Y526661D01*
X3319306Y531122D01*
X3313478Y533536D01*
D02*
G37*
G36*
X3194974Y533536D02*
X3188665D01*
X3182836Y531121D01*
X3178376Y526661D01*
X3175961Y520832D01*
Y514523D01*
X3178376Y508695D01*
X3182836Y504234D01*
X3188665Y501819D01*
X3194974D01*
X3200802Y504234D01*
X3205263Y508695D01*
X3207678Y514523D01*
Y520832D01*
X3205263Y526661D01*
X3200802Y531121D01*
X3194974Y533536D01*
D02*
G37*
G36*
X2130253Y506922D02*
X2123945D01*
X2118116Y504507D01*
X2116093Y502485D01*
X2111050Y500877D01*
X2106006Y502485D01*
X2103983Y504507D01*
X2098154Y506922D01*
X2091846D01*
X2086017Y504507D01*
X2081556Y500046D01*
X2079142Y494218D01*
Y487909D01*
X2081556Y482080D01*
X2083665Y479972D01*
X2085201Y474953D01*
X2083665Y469935D01*
X2081556Y467826D01*
X2079142Y461997D01*
Y455689D01*
X2081556Y449860D01*
X2083516Y447900D01*
X2085177Y442838D01*
X2083516Y437776D01*
X2081556Y435816D01*
X2079142Y429988D01*
Y423679D01*
X2081556Y417850D01*
X2086017Y413389D01*
X2091846Y410975D01*
X2098154D01*
X2103983Y413389D01*
X2106055Y415461D01*
X2110930Y417101D01*
X2116142Y415530D01*
X2118116Y413557D01*
X2123945Y411142D01*
X2130253D01*
X2136082Y413557D01*
X2140543Y418017D01*
X2142957Y423846D01*
Y430155D01*
X2140543Y435983D01*
X2138719Y437808D01*
X2136969Y442962D01*
X2138743Y448001D01*
X2140602Y449860D01*
X2143016Y455689D01*
Y461997D01*
X2140602Y467826D01*
X2138476Y469952D01*
X2136928Y474910D01*
X2138452Y479989D01*
X2140543Y482080D01*
X2142957Y487909D01*
Y494218D01*
X2140543Y500046D01*
X2136082Y504507D01*
X2130253Y506922D01*
D02*
G37*
G36*
X617155Y520858D02*
X610846D01*
X605018Y518444D01*
X600557Y513983D01*
X598142Y508154D01*
Y501846D01*
X600557Y496017D01*
X605018Y491556D01*
X610846Y489142D01*
X617155D01*
X622984Y491556D01*
X627444Y496017D01*
X629859Y501846D01*
Y508154D01*
X627444Y513983D01*
X622984Y518444D01*
X617155Y520858D01*
D02*
G37*
G36*
X517155D02*
X510846D01*
X505017Y518444D01*
X500557Y513983D01*
X498142Y508154D01*
Y501846D01*
X500557Y496017D01*
X505017Y491556D01*
X510846Y489142D01*
X517155D01*
X522984Y491556D01*
X527444Y496017D01*
X529859Y501846D01*
Y508154D01*
X527444Y513983D01*
X522984Y518444D01*
X517155Y520858D01*
D02*
G37*
G36*
X417155Y519859D02*
X410846D01*
X405017Y517444D01*
X400557Y512984D01*
X398142Y507155D01*
Y500846D01*
X400557Y495017D01*
X405017Y490557D01*
X410846Y488142D01*
X417155D01*
X422983Y490557D01*
X427444Y495017D01*
X429859Y500846D01*
Y507155D01*
X427444Y512984D01*
X422983Y517444D01*
X417155Y519859D01*
D02*
G37*
G36*
X3435525Y505977D02*
X3429216D01*
X3423388Y503562D01*
X3418927Y499102D01*
X3416512Y493273D01*
Y486964D01*
X3418927Y481136D01*
X3423388Y476675D01*
X3429216Y474260D01*
X3435525D01*
X3441354Y476675D01*
X3445814Y481136D01*
X3448229Y486964D01*
Y493273D01*
X3445814Y499102D01*
X3441354Y503562D01*
X3435525Y505977D01*
D02*
G37*
G36*
X3246549D02*
X3240240D01*
X3234411Y503562D01*
X3229950Y499102D01*
X3227536Y493273D01*
Y486964D01*
X3229950Y481136D01*
X3234411Y476675D01*
X3240240Y474260D01*
X3246549D01*
X3252377Y476675D01*
X3256838Y481136D01*
X3259252Y486964D01*
Y493273D01*
X3256838Y499102D01*
X3252377Y503562D01*
X3246549Y505977D01*
D02*
G37*
G36*
X3368596Y478418D02*
X3362287D01*
X3356459Y476003D01*
X3351998Y471543D01*
X3349583Y465714D01*
Y459405D01*
X3351998Y453577D01*
X3356459Y449116D01*
X3362287Y446701D01*
X3368596D01*
X3374425Y449116D01*
X3378885Y453577D01*
X3381300Y459405D01*
Y465714D01*
X3378885Y471543D01*
X3374425Y476003D01*
X3368596Y478418D01*
D02*
G37*
G36*
X3313478D02*
X3307169D01*
X3301340Y476003D01*
X3296879Y471543D01*
X3294465Y465714D01*
Y459405D01*
X3296879Y453577D01*
X3301340Y449116D01*
X3307169Y446701D01*
X3313478D01*
X3319306Y449116D01*
X3323767Y453577D01*
X3326182Y459405D01*
Y465714D01*
X3323767Y471543D01*
X3319306Y476003D01*
X3313478Y478418D01*
D02*
G37*
G36*
X2209161Y490858D02*
X2202852D01*
X2197023Y488444D01*
X2192563Y483983D01*
X2190148Y478154D01*
Y471846D01*
X2192563Y466017D01*
X2197023Y461556D01*
X2200581Y460083D01*
Y451751D01*
X2197023Y450277D01*
X2192563Y445816D01*
X2190148Y439988D01*
Y433679D01*
X2192563Y427850D01*
X2197023Y423389D01*
X2202852Y420975D01*
X2209161D01*
X2214990Y423389D01*
X2219450Y427850D01*
X2221865Y433679D01*
Y439988D01*
X2219450Y445816D01*
X2214990Y450277D01*
X2211432Y451751D01*
Y460083D01*
X2214990Y461556D01*
X2219450Y466017D01*
X2221865Y471846D01*
Y478154D01*
X2219450Y483983D01*
X2214990Y488444D01*
X2209161Y490858D01*
D02*
G37*
G36*
X3435525Y450859D02*
X3429216D01*
X3423388Y448444D01*
X3418927Y443983D01*
X3416512Y438155D01*
Y431846D01*
X3418927Y426017D01*
X3423388Y421557D01*
X3429216Y419142D01*
X3435525D01*
X3441354Y421557D01*
X3445814Y426017D01*
X3448229Y431846D01*
Y438155D01*
X3445814Y443983D01*
X3441354Y448444D01*
X3435525Y450859D01*
D02*
G37*
G36*
X3246549D02*
X3240240D01*
X3234411Y448444D01*
X3229950Y443983D01*
X3227536Y438155D01*
Y431846D01*
X3229950Y426017D01*
X3234411Y421557D01*
X3240240Y419142D01*
X3246549D01*
X3252377Y421557D01*
X3256838Y426017D01*
X3259252Y431846D01*
Y438155D01*
X3256838Y443983D01*
X3252377Y448444D01*
X3246549Y450859D01*
D02*
G37*
G36*
X2143154Y390858D02*
X2136846D01*
X2131017Y388444D01*
X2126556Y383983D01*
X2118444D01*
X2113983Y388444D01*
X2108154Y390858D01*
X2101846D01*
X2096017Y388444D01*
X2091556Y383983D01*
X2089142Y378154D01*
Y371846D01*
X2091556Y366017D01*
X2096017Y361556D01*
Y353444D01*
X2091556Y348983D01*
X2089142Y343154D01*
Y336846D01*
X2091556Y331017D01*
X2096017Y326556D01*
X2101846Y324142D01*
X2108154D01*
X2113983Y326556D01*
X2118444Y331017D01*
X2126556D01*
X2131017Y326556D01*
X2136846Y324142D01*
X2143154D01*
X2148983Y326556D01*
X2153444Y331017D01*
X2155858Y336846D01*
Y343154D01*
X2153444Y348983D01*
X2148983Y353444D01*
Y361556D01*
X2153444Y366017D01*
X2155858Y371846D01*
Y378154D01*
X2153444Y383983D01*
X2148983Y388444D01*
X2143154Y390858D01*
D02*
G37*
G36*
X3568154Y411489D02*
X3561846D01*
X3556017Y409074D01*
X3551556Y404613D01*
X3549142Y398785D01*
Y392476D01*
X3551556Y386647D01*
X3556017Y382187D01*
X3561846Y379772D01*
X3568154D01*
X3573983Y382187D01*
X3578444Y386647D01*
X3580858Y392476D01*
Y398785D01*
X3578444Y404613D01*
X3573983Y409074D01*
X3568154Y411489D01*
D02*
G37*
G36*
X3396155D02*
X3389846D01*
X3384017Y409074D01*
X3379557Y404613D01*
X3377142Y398785D01*
Y392476D01*
X3379557Y386647D01*
X3384017Y382187D01*
X3389846Y379772D01*
X3396155D01*
X3401983Y382187D01*
X3406444Y386647D01*
X3408859Y392476D01*
Y398785D01*
X3406444Y404613D01*
X3401983Y409074D01*
X3396155Y411489D01*
D02*
G37*
G36*
X3341037D02*
X3334728D01*
X3328899Y409074D01*
X3324439Y404613D01*
X3322024Y398785D01*
Y392476D01*
X3324439Y386647D01*
X3328899Y382187D01*
X3334728Y379772D01*
X3341037D01*
X3346865Y382187D01*
X3351326Y386647D01*
X3353741Y392476D01*
Y398785D01*
X3351326Y404613D01*
X3346865Y409074D01*
X3341037Y411489D01*
D02*
G37*
G36*
X3285919D02*
X3279610D01*
X3273781Y409074D01*
X3269320Y404613D01*
X3266906Y398785D01*
Y392476D01*
X3269320Y386647D01*
X3273781Y382187D01*
X3279610Y379772D01*
X3285919D01*
X3291747Y382187D01*
X3296208Y386647D01*
X3298622Y392476D01*
Y398785D01*
X3296208Y404613D01*
X3291747Y409074D01*
X3285919Y411489D01*
D02*
G37*
G36*
X2473184Y390858D02*
X2466875D01*
X2461046Y388444D01*
X2456586Y383983D01*
X2454171Y378154D01*
Y371846D01*
X2456586Y366017D01*
X2461046Y361556D01*
X2466875Y359142D01*
X2473184D01*
X2479012Y361556D01*
X2483473Y366017D01*
X2485888Y371846D01*
Y378154D01*
X2483473Y383983D01*
X2479012Y388444D01*
X2473184Y390858D01*
D02*
G37*
G36*
X2385257D02*
X2378948D01*
X2373120Y388444D01*
X2368659Y383983D01*
X2366245Y378154D01*
Y371846D01*
X2368659Y366017D01*
X2373120Y361556D01*
X2378948Y359142D01*
X2385257D01*
X2391086Y361556D01*
X2395547Y366017D01*
X2397961Y371846D01*
Y378154D01*
X2395547Y383983D01*
X2391086Y388444D01*
X2385257Y390858D01*
D02*
G37*
G36*
X163586Y447741D02*
X151376D01*
X139583Y444580D01*
X129009Y438476D01*
X120376Y429842D01*
X114271Y419269D01*
X111111Y407475D01*
Y395266D01*
X114271Y383472D01*
X120376Y372899D01*
X129009Y364265D01*
X139583Y358161D01*
X151376Y355000D01*
X163586D01*
X175379Y358161D01*
X185953Y364265D01*
X194586Y372899D01*
X200691Y383472D01*
X203851Y395266D01*
Y407475D01*
X200691Y419269D01*
X194586Y429842D01*
X185953Y438476D01*
X175379Y444580D01*
X163586Y447741D01*
D02*
G37*
G36*
X2182580Y338859D02*
X2176271D01*
X2170443Y336444D01*
X2165982Y331983D01*
X2163568Y326155D01*
Y319846D01*
X2165982Y314017D01*
X2170443Y309557D01*
X2176271Y307142D01*
X2182580D01*
X2188409Y309557D01*
X2192870Y314017D01*
X2195284Y319846D01*
Y326155D01*
X2192870Y331983D01*
X2188409Y336444D01*
X2182580Y338859D01*
D02*
G37*
G36*
X2891910Y335964D02*
X2885601D01*
X2879772Y333550D01*
X2875311Y329089D01*
X2872897Y323260D01*
Y316952D01*
X2875311Y311123D01*
X2879772Y306662D01*
X2885601Y304248D01*
X2891910D01*
X2897738Y306662D01*
X2902199Y311123D01*
X2904614Y316952D01*
Y323260D01*
X2902199Y329089D01*
X2897738Y333550D01*
X2891910Y335964D01*
D02*
G37*
G36*
X3394974Y321922D02*
X3388665D01*
X3382836Y319507D01*
X3378376Y315046D01*
X3375961Y309218D01*
Y302909D01*
X3378376Y297080D01*
X3382836Y292620D01*
X3388665Y290205D01*
X3394974D01*
X3400802Y292620D01*
X3405263Y297080D01*
X3407678Y302909D01*
Y309218D01*
X3405263Y315046D01*
X3400802Y319507D01*
X3394974Y321922D01*
D02*
G37*
G36*
X2240170Y309701D02*
X2233861D01*
X2228033Y307286D01*
X2223572Y302825D01*
X2221157Y296997D01*
Y290688D01*
X2223572Y284860D01*
X2228033Y280399D01*
X2233861Y277984D01*
X2240170D01*
X2245999Y280399D01*
X2250460Y284860D01*
X2252874Y290688D01*
Y296997D01*
X2250460Y302825D01*
X2245999Y307286D01*
X2240170Y309701D01*
D02*
G37*
G36*
X3245761Y271922D02*
X3239452D01*
X3233624Y269507D01*
X3229163Y265046D01*
X3226749Y259218D01*
Y252909D01*
X3229163Y247081D01*
X3233624Y242620D01*
X3239452Y240205D01*
X3245761D01*
X3251590Y242620D01*
X3256051Y247081D01*
X3258465Y252909D01*
Y259218D01*
X3256051Y265046D01*
X3251590Y269507D01*
X3245761Y271922D01*
D02*
G37*
G36*
X3044974D02*
X3038665D01*
X3032836Y269507D01*
X3028376Y265046D01*
X3025961Y259218D01*
Y252909D01*
X3028376Y247081D01*
X3032836Y242620D01*
X3038665Y240205D01*
X3044974D01*
X3050802Y242620D01*
X3055263Y247081D01*
X3057678Y252909D01*
Y259218D01*
X3055263Y265046D01*
X3050802Y269507D01*
X3044974Y271922D01*
D02*
G37*
G36*
X2848154Y265677D02*
X2841846D01*
X2836017Y263263D01*
X2831556Y258802D01*
X2829142Y252973D01*
Y246665D01*
X2831556Y240836D01*
X2836017Y236375D01*
X2841846Y233961D01*
X2848154D01*
X2853983Y236375D01*
X2858444Y240836D01*
X2860858Y246665D01*
Y252973D01*
X2858444Y258802D01*
X2853983Y263263D01*
X2848154Y265677D01*
D02*
G37*
G36*
X3628154Y255858D02*
X3621846D01*
X3616017Y253444D01*
X3611556Y248983D01*
X3609142Y243154D01*
Y236846D01*
X3611556Y231017D01*
X3616017Y226556D01*
X3621846Y224142D01*
X3628154D01*
X3633983Y226556D01*
X3638444Y231017D01*
X3640858Y236846D01*
Y243154D01*
X3638444Y248983D01*
X3633983Y253444D01*
X3628154Y255858D01*
D02*
G37*
G36*
X2513154Y310858D02*
X2506846D01*
X2501017Y308444D01*
X2496556Y303983D01*
X2494142Y298154D01*
Y291846D01*
X2496556Y286017D01*
X2501017Y281556D01*
X2502119Y281100D01*
X2503782Y278309D01*
X2505698Y271820D01*
X2505668Y271629D01*
X2503442Y266254D01*
X2502389Y258260D01*
Y221611D01*
X2494389Y220019D01*
X2492727Y224034D01*
X2487435Y229325D01*
X2480521Y232189D01*
X2473038D01*
X2466124Y229325D01*
X2460832Y224034D01*
X2457968Y217120D01*
Y209636D01*
X2460832Y202722D01*
X2466124Y197431D01*
X2473038Y194567D01*
X2480521D01*
X2487435Y197431D01*
X2492727Y202722D01*
X2494460Y206908D01*
X2498969Y207005D01*
X2502583Y205612D01*
X2503442Y199085D01*
X2506527Y191636D01*
X2511436Y185239D01*
X2517832Y180331D01*
X2525282Y177245D01*
X2533276Y176192D01*
X2541269Y177245D01*
X2548719Y180331D01*
X2555115Y185239D01*
X2560024Y191636D01*
X2563109Y199085D01*
X2564162Y207079D01*
Y258260D01*
X2563109Y266254D01*
X2560024Y273703D01*
X2555115Y280100D01*
X2548719Y285008D01*
X2541269Y288094D01*
X2533276Y289146D01*
X2533249Y289143D01*
X2532314Y289485D01*
X2525858Y296239D01*
Y298154D01*
X2523444Y303983D01*
X2518983Y308444D01*
X2513154Y310858D01*
D02*
G37*
G36*
X2192724Y289146D02*
X2184731Y288094D01*
X2177281Y285008D01*
X2170885Y280100D01*
X2165976Y273703D01*
X2162891Y266254D01*
X2161838Y258260D01*
Y207079D01*
X2162891Y199085D01*
X2165976Y191636D01*
X2170885Y185239D01*
X2177281Y180331D01*
X2184731Y177245D01*
X2192724Y176192D01*
X2200718Y177245D01*
X2208168Y180331D01*
X2214564Y185239D01*
X2219473Y191636D01*
X2222558Y199085D01*
X2223417Y205612D01*
X2227031Y207005D01*
X2231540Y206908D01*
X2233273Y202722D01*
X2238565Y197431D01*
X2245479Y194567D01*
X2252962D01*
X2259876Y197431D01*
X2265168Y202722D01*
X2268032Y209636D01*
Y217120D01*
X2265168Y224034D01*
X2259876Y229325D01*
X2252962Y232189D01*
X2245479D01*
X2238565Y229325D01*
X2233273Y224034D01*
X2231611Y220019D01*
X2223611Y221611D01*
Y258260D01*
X2222558Y266254D01*
X2219473Y273703D01*
X2214564Y280100D01*
X2208168Y285008D01*
X2200718Y288094D01*
X2192724Y289146D01*
D02*
G37*
G36*
X3494974Y225858D02*
X3488665D01*
X3482836Y223444D01*
X3478376Y218983D01*
X3475961Y213154D01*
Y206846D01*
X3478376Y201017D01*
X3482836Y196556D01*
X3488665Y194142D01*
X3494974D01*
X3500802Y196556D01*
X3505263Y201017D01*
X3507678Y206846D01*
Y213154D01*
X3505263Y218983D01*
X3500802Y223444D01*
X3494974Y225858D01*
D02*
G37*
G36*
X3323154Y205858D02*
X3316846D01*
X3311017Y203444D01*
X3306556Y198983D01*
X3304142Y193154D01*
Y186846D01*
X3306556Y181017D01*
X3311017Y176556D01*
X3316846Y174142D01*
X3323154D01*
X3328983Y176556D01*
X3333444Y181017D01*
X3335858Y186846D01*
Y193154D01*
X3333444Y198983D01*
X3328983Y203444D01*
X3323154Y205858D01*
D02*
G37*
G36*
X3194974Y199039D02*
X3188665D01*
X3182836Y196625D01*
X3178376Y192164D01*
X3175961Y186335D01*
Y180026D01*
X3178376Y174198D01*
X3182836Y169737D01*
X3188665Y167322D01*
X3194974D01*
X3200802Y169737D01*
X3205263Y174198D01*
X3207678Y180026D01*
Y186335D01*
X3205263Y192164D01*
X3200802Y196625D01*
X3194974Y199039D01*
D02*
G37*
G36*
X3094974D02*
X3088665D01*
X3082836Y196625D01*
X3078376Y192164D01*
X3075961Y186335D01*
Y180026D01*
X3078376Y174198D01*
X3082836Y169737D01*
X3088665Y167322D01*
X3094974D01*
X3100802Y169737D01*
X3105263Y174198D01*
X3107678Y180026D01*
Y186335D01*
X3105263Y192164D01*
X3100802Y196625D01*
X3094974Y199039D01*
D02*
G37*
G36*
X2983154Y165858D02*
X2976846D01*
X2971017Y163444D01*
X2966556Y158983D01*
X2964142Y153154D01*
Y146846D01*
X2966556Y141017D01*
X2971017Y136556D01*
X2976846Y134142D01*
X2983154D01*
X2988983Y136556D01*
X2993444Y141017D01*
X2995858Y146846D01*
Y153154D01*
X2993444Y158983D01*
X2988983Y163444D01*
X2983154Y165858D01*
D02*
G37*
G36*
X3144974Y155858D02*
X3138665D01*
X3132836Y153444D01*
X3128376Y148983D01*
X3125961Y143154D01*
Y136846D01*
X3128376Y131017D01*
X3132836Y126556D01*
X3138665Y124142D01*
X3144974D01*
X3150802Y126556D01*
X3155263Y131017D01*
X3157678Y136846D01*
Y143154D01*
X3155263Y148983D01*
X3150802Y153444D01*
X3144974Y155858D01*
D02*
G37*
G36*
X2908154Y102433D02*
X2901846D01*
X2896017Y100019D01*
X2891556Y95558D01*
X2889142Y89730D01*
Y83421D01*
X2891556Y77592D01*
X2896017Y73131D01*
X2901846Y70717D01*
X2908154D01*
X2913983Y73131D01*
X2918444Y77592D01*
X2920858Y83421D01*
Y89730D01*
X2918444Y95558D01*
X2913983Y100019D01*
X2908154Y102433D01*
D02*
G37*
G36*
X2373154Y95858D02*
X2366846D01*
X2361017Y93444D01*
X2356556Y88983D01*
X2354142Y83154D01*
Y76846D01*
X2356556Y71017D01*
X2361017Y66556D01*
X2366846Y64142D01*
X2373154D01*
X2378983Y66556D01*
X2383444Y71017D01*
X2385858Y76846D01*
Y83154D01*
X2383444Y88983D01*
X2378983Y93444D01*
X2373154Y95858D01*
D02*
G37*
G36*
X167327Y282591D02*
X147634D01*
X128184Y279510D01*
X109455Y273425D01*
X91909Y264485D01*
X75977Y252910D01*
X62052Y238985D01*
X50477Y223053D01*
X41537Y205506D01*
X35451Y186778D01*
X32371Y167327D01*
Y147634D01*
X35451Y128184D01*
X41537Y109455D01*
X50477Y91909D01*
X62052Y75977D01*
X75977Y62052D01*
X91909Y50477D01*
X109455Y41537D01*
X128184Y35451D01*
X147634Y32371D01*
X167327D01*
X186778Y35451D01*
X205506Y41537D01*
X223053Y50477D01*
X238985Y62052D01*
X252910Y75977D01*
X264485Y91909D01*
X273425Y109455D01*
X279510Y128184D01*
X282591Y147634D01*
Y167327D01*
X279510Y186778D01*
X273425Y205506D01*
X264485Y223053D01*
X252910Y238985D01*
X238985Y252910D01*
X223053Y264485D01*
X205506Y273425D01*
X186778Y279510D01*
X167327Y282591D01*
D02*
G37*
G36*
X2736847Y275111D02*
X2717154D01*
X2697704Y272030D01*
X2678975Y265945D01*
X2661428Y257004D01*
X2645497Y245429D01*
X2631572Y231504D01*
X2619997Y215573D01*
X2611056Y198026D01*
X2604971Y179297D01*
X2601890Y159847D01*
Y140154D01*
X2604971Y120704D01*
X2611056Y101975D01*
X2619997Y84428D01*
X2631572Y68497D01*
X2645497Y54572D01*
X2661428Y42997D01*
X2678975Y34056D01*
X2697704Y27971D01*
X2717154Y24890D01*
X2736847D01*
X2756297Y27971D01*
X2775026Y34056D01*
X2792573Y42997D01*
X2808504Y54572D01*
X2822429Y68497D01*
X2834004Y84428D01*
X2842945Y101975D01*
X2849030Y120704D01*
X2852111Y140154D01*
Y159847D01*
X2849030Y179297D01*
X2842945Y198026D01*
X2834004Y215573D01*
X2822429Y231504D01*
X2808504Y245429D01*
X2792573Y257004D01*
X2775026Y265945D01*
X2756297Y272030D01*
X2736847Y275111D01*
D02*
G37*
%LPD*%
G36*
X2850000Y800000D02*
X2810000Y760000D01*
Y650000D01*
X2587001Y427000D01*
X2370000D01*
Y530000D01*
X2460000D01*
X2700000Y770000D01*
Y1105000D01*
X2850000D01*
Y800000D01*
D02*
G37*
%LPC*%
G36*
X167327Y1896764D02*
X147634D01*
X128184Y1893684D01*
X109455Y1887598D01*
X91909Y1878658D01*
X75977Y1867083D01*
X62052Y1853158D01*
X50477Y1837226D01*
X41537Y1819680D01*
X35451Y1800951D01*
X32371Y1781500D01*
Y1761808D01*
X35451Y1742357D01*
X41537Y1723628D01*
X50477Y1706082D01*
X62052Y1690150D01*
X75977Y1676225D01*
X91909Y1664650D01*
X109455Y1655710D01*
X128184Y1649624D01*
X147634Y1646544D01*
X167327D01*
X186778Y1649624D01*
X205506Y1655710D01*
X223053Y1664650D01*
X238985Y1676225D01*
X252910Y1690150D01*
X264485Y1706082D01*
X273425Y1723628D01*
X279510Y1742357D01*
X282591Y1761808D01*
Y1781500D01*
X279510Y1800951D01*
X273425Y1819680D01*
X264485Y1837226D01*
X252910Y1853158D01*
X238985Y1867083D01*
X223053Y1878658D01*
X205506Y1887598D01*
X186778Y1893684D01*
X167327Y1896764D01*
D02*
G37*
G36*
X1982089Y1739284D02*
X1969880D01*
X1958086Y1736123D01*
X1947512Y1730019D01*
X1938879Y1721385D01*
X1932774Y1710812D01*
X1929614Y1699018D01*
Y1686809D01*
X1932774Y1675015D01*
X1938879Y1664441D01*
X1947512Y1655808D01*
X1958086Y1649703D01*
X1969880Y1646543D01*
X1982089D01*
X1993882Y1649703D01*
X2004456Y1655808D01*
X2013090Y1664441D01*
X2019194Y1675015D01*
X2022354Y1686809D01*
Y1699018D01*
X2019194Y1710812D01*
X2013090Y1721385D01*
X2004456Y1730019D01*
X1993882Y1736123D01*
X1982089Y1739284D01*
D02*
G37*
G36*
X1832089D02*
X1819880D01*
X1808086Y1736123D01*
X1797512Y1730019D01*
X1788879Y1721385D01*
X1782774Y1710812D01*
X1779614Y1699018D01*
Y1686809D01*
X1782774Y1675015D01*
X1788879Y1664441D01*
X1797512Y1655808D01*
X1808086Y1649703D01*
X1819880Y1646543D01*
X1832089D01*
X1843882Y1649703D01*
X1854456Y1655808D01*
X1863090Y1664441D01*
X1869194Y1675015D01*
X1872354Y1686809D01*
Y1699018D01*
X1869194Y1710812D01*
X1863090Y1721385D01*
X1854456Y1730019D01*
X1843882Y1736123D01*
X1832089Y1739284D01*
D02*
G37*
G36*
X1682089D02*
X1669880D01*
X1658086Y1736123D01*
X1647512Y1730019D01*
X1638879Y1721385D01*
X1632774Y1710812D01*
X1629614Y1699018D01*
Y1686809D01*
X1632774Y1675015D01*
X1638879Y1664441D01*
X1647512Y1655808D01*
X1658086Y1649703D01*
X1669880Y1646543D01*
X1682089D01*
X1693882Y1649703D01*
X1704456Y1655808D01*
X1713090Y1664441D01*
X1719194Y1675015D01*
X1722354Y1686809D01*
Y1699018D01*
X1719194Y1710812D01*
X1713090Y1721385D01*
X1704456Y1730019D01*
X1693882Y1736123D01*
X1682089Y1739284D01*
D02*
G37*
G36*
X1522748D02*
X1430008D01*
Y1646543D01*
X1522748D01*
Y1739284D01*
D02*
G37*
G36*
X1332483D02*
X1320273D01*
X1308480Y1736123D01*
X1297906Y1730019D01*
X1289273Y1721385D01*
X1283168Y1710812D01*
X1280008Y1699018D01*
Y1686809D01*
X1283168Y1675015D01*
X1289273Y1664441D01*
X1297906Y1655808D01*
X1308480Y1649703D01*
X1320273Y1646543D01*
X1332483D01*
X1344276Y1649703D01*
X1354850Y1655808D01*
X1363483Y1664441D01*
X1369588Y1675015D01*
X1372748Y1686809D01*
Y1699018D01*
X1369588Y1710812D01*
X1363483Y1721385D01*
X1354850Y1730019D01*
X1344276Y1736123D01*
X1332483Y1739284D01*
D02*
G37*
G36*
X1182483D02*
X1170273D01*
X1158480Y1736123D01*
X1147906Y1730019D01*
X1139273Y1721385D01*
X1133168Y1710812D01*
X1130008Y1699018D01*
Y1686809D01*
X1133168Y1675015D01*
X1139273Y1664441D01*
X1147906Y1655808D01*
X1158480Y1649703D01*
X1170273Y1646543D01*
X1182483D01*
X1194276Y1649703D01*
X1204850Y1655808D01*
X1213483Y1664441D01*
X1219588Y1675015D01*
X1222748Y1686809D01*
Y1699018D01*
X1219588Y1710812D01*
X1213483Y1721385D01*
X1204850Y1730019D01*
X1194276Y1736123D01*
X1182483Y1739284D01*
D02*
G37*
G36*
X1032483D02*
X1020273D01*
X1008480Y1736123D01*
X997906Y1730019D01*
X989273Y1721385D01*
X983168Y1710812D01*
X980008Y1699018D01*
Y1686809D01*
X983168Y1675015D01*
X989273Y1664441D01*
X997906Y1655808D01*
X1008480Y1649703D01*
X1020273Y1646543D01*
X1032483D01*
X1044276Y1649703D01*
X1054850Y1655808D01*
X1063483Y1664441D01*
X1069588Y1675015D01*
X1072748Y1686809D01*
Y1699018D01*
X1069588Y1710812D01*
X1063483Y1721385D01*
X1054850Y1730019D01*
X1044276Y1736123D01*
X1032483Y1739284D01*
D02*
G37*
G36*
X873142D02*
X780402D01*
Y1646543D01*
X873142D01*
Y1739284D01*
D02*
G37*
G36*
X682876D02*
X670667D01*
X658874Y1736123D01*
X648300Y1730019D01*
X639666Y1721385D01*
X633562Y1710812D01*
X630402Y1699018D01*
Y1686809D01*
X633562Y1675015D01*
X639666Y1664441D01*
X648300Y1655808D01*
X658874Y1649703D01*
X670667Y1646543D01*
X682876D01*
X694670Y1649703D01*
X705244Y1655808D01*
X713877Y1664441D01*
X719982Y1675015D01*
X723142Y1686809D01*
Y1699018D01*
X719982Y1710812D01*
X713877Y1721385D01*
X705244Y1730019D01*
X694670Y1736123D01*
X682876Y1739284D01*
D02*
G37*
G36*
X532876D02*
X520667D01*
X508873Y1736123D01*
X498300Y1730019D01*
X489666Y1721385D01*
X483562Y1710812D01*
X480402Y1699018D01*
Y1686809D01*
X483562Y1675015D01*
X489666Y1664441D01*
X498300Y1655808D01*
X508873Y1649703D01*
X520667Y1646543D01*
X532876D01*
X544670Y1649703D01*
X555244Y1655808D01*
X563877Y1664441D01*
X569982Y1675015D01*
X573142Y1686809D01*
Y1699018D01*
X569982Y1710812D01*
X563877Y1721385D01*
X555244Y1730019D01*
X544670Y1736123D01*
X532876Y1739284D01*
D02*
G37*
G36*
X382876D02*
X370667D01*
X358873Y1736123D01*
X348300Y1730019D01*
X339666Y1721385D01*
X333562Y1710812D01*
X330402Y1699018D01*
Y1686809D01*
X333562Y1675015D01*
X339666Y1664441D01*
X348300Y1655808D01*
X358873Y1649703D01*
X370667Y1646543D01*
X382876D01*
X394670Y1649703D01*
X405244Y1655808D01*
X413877Y1664441D01*
X419982Y1675015D01*
X423142Y1686809D01*
Y1699018D01*
X419982Y1710812D01*
X413877Y1721385D01*
X405244Y1730019D01*
X394670Y1736123D01*
X382876Y1739284D01*
D02*
G37*
G36*
X673054Y1314858D02*
X666745D01*
X660917Y1312444D01*
X656456Y1307983D01*
X654042Y1302154D01*
Y1295846D01*
X656456Y1290017D01*
X660917Y1285556D01*
X666745Y1283142D01*
X673054D01*
X678883Y1285556D01*
X683344Y1290017D01*
X685758Y1295846D01*
Y1302154D01*
X683344Y1307983D01*
X678883Y1312444D01*
X673054Y1314858D01*
D02*
G37*
G36*
X2057635Y1271503D02*
X2051326D01*
X2045498Y1269089D01*
X2041037Y1264628D01*
X2038623Y1258799D01*
Y1252490D01*
X2041037Y1246662D01*
X2045498Y1242201D01*
X2051326Y1239786D01*
X2057635D01*
X2063464Y1242201D01*
X2067925Y1246662D01*
X2070339Y1252490D01*
Y1258799D01*
X2067925Y1264628D01*
X2063464Y1269089D01*
X2057635Y1271503D01*
D02*
G37*
G36*
X1512154D02*
X1505846D01*
X1500017Y1269089D01*
X1495556Y1264628D01*
X1493142Y1258799D01*
Y1252490D01*
X1495556Y1246662D01*
X1500017Y1242201D01*
X1505846Y1239786D01*
X1512154D01*
X1517983Y1242201D01*
X1522444Y1246662D01*
X1524858Y1252490D01*
Y1258799D01*
X1522444Y1264628D01*
X1517983Y1269089D01*
X1512154Y1271503D01*
D02*
G37*
G36*
X1329779D02*
X1323470D01*
X1317642Y1269089D01*
X1313181Y1264628D01*
X1310766Y1258799D01*
Y1252490D01*
X1313181Y1246662D01*
X1317642Y1242201D01*
X1323470Y1239786D01*
X1329779D01*
X1335608Y1242201D01*
X1340069Y1246662D01*
X1342483Y1252490D01*
Y1258799D01*
X1340069Y1264628D01*
X1335608Y1269089D01*
X1329779Y1271503D01*
D02*
G37*
G36*
X787123D02*
X780815D01*
X774986Y1269089D01*
X770525Y1264628D01*
X768111Y1258799D01*
Y1252490D01*
X770525Y1246662D01*
X774986Y1242201D01*
X780815Y1239786D01*
X787123D01*
X792952Y1242201D01*
X797413Y1246662D01*
X799827Y1252490D01*
Y1258799D01*
X797413Y1264628D01*
X792952Y1269089D01*
X787123Y1271503D01*
D02*
G37*
G36*
X591054D02*
X584745D01*
X578917Y1269089D01*
X574456Y1264628D01*
X572042Y1258799D01*
Y1252490D01*
X574456Y1246662D01*
X578917Y1242201D01*
X584745Y1239786D01*
X591054D01*
X596883Y1242201D01*
X601344Y1246662D01*
X603758Y1252490D01*
Y1258799D01*
X601344Y1264628D01*
X596883Y1269089D01*
X591054Y1271503D01*
D02*
G37*
G36*
X1587154Y1269472D02*
X1580846D01*
X1575017Y1267057D01*
X1570556Y1262597D01*
X1568142Y1256768D01*
Y1250459D01*
X1570556Y1244630D01*
X1575017Y1240170D01*
X1580846Y1237755D01*
X1587154D01*
X1592983Y1240170D01*
X1597444Y1244630D01*
X1599858Y1250459D01*
Y1256768D01*
X1597444Y1262597D01*
X1592983Y1267057D01*
X1587154Y1269472D01*
D02*
G37*
G36*
X862123Y1269330D02*
X855815D01*
X849986Y1266915D01*
X845525Y1262454D01*
X843111Y1256626D01*
Y1250317D01*
X845525Y1244488D01*
X849986Y1240027D01*
X855815Y1237613D01*
X862123D01*
X867952Y1240027D01*
X872413Y1244488D01*
X874827Y1250317D01*
Y1256626D01*
X872413Y1262454D01*
X867952Y1266915D01*
X862123Y1269330D01*
D02*
G37*
G36*
X129424Y1269015D02*
X123116D01*
X117287Y1266601D01*
X112826Y1262140D01*
X110412Y1256311D01*
Y1250003D01*
X112826Y1244174D01*
X117287Y1239713D01*
X123116Y1237299D01*
X129424D01*
X135253Y1239713D01*
X139714Y1244174D01*
X142128Y1250003D01*
Y1256311D01*
X139714Y1262140D01*
X135253Y1266601D01*
X129424Y1269015D01*
D02*
G37*
G36*
X46155D02*
X39846D01*
X34017Y1266601D01*
X29557Y1262140D01*
X27142Y1256311D01*
Y1250003D01*
X29557Y1244174D01*
X34017Y1239713D01*
X39846Y1237299D01*
X46155D01*
X51983Y1239713D01*
X56444Y1244174D01*
X58859Y1250003D01*
Y1256311D01*
X56444Y1262140D01*
X51983Y1266601D01*
X46155Y1269015D01*
D02*
G37*
G36*
X1038154Y1235858D02*
X1031846D01*
X1026017Y1233444D01*
X1021556Y1228983D01*
X1019142Y1223154D01*
Y1216846D01*
X1021556Y1211017D01*
X1026017Y1206556D01*
X1031846Y1204142D01*
X1038154D01*
X1043983Y1206556D01*
X1048444Y1211017D01*
X1050858Y1216846D01*
Y1223154D01*
X1048444Y1228983D01*
X1043983Y1233444D01*
X1038154Y1235858D01*
D02*
G37*
G36*
X1764529Y1228196D02*
X1758220D01*
X1752391Y1225781D01*
X1747930Y1221321D01*
X1745516Y1215492D01*
Y1209183D01*
X1747930Y1203354D01*
X1752391Y1198894D01*
X1758220Y1196479D01*
X1764529D01*
X1770357Y1198894D01*
X1774818Y1203354D01*
X1777233Y1209183D01*
Y1215492D01*
X1774818Y1221321D01*
X1770357Y1225781D01*
X1764529Y1228196D01*
D02*
G37*
G36*
X298424D02*
X292116D01*
X286287Y1225781D01*
X281826Y1221321D01*
X279412Y1215492D01*
Y1209183D01*
X281826Y1203354D01*
X286287Y1198894D01*
X292116Y1196479D01*
X298424D01*
X304253Y1198894D01*
X308714Y1203354D01*
X311128Y1209183D01*
Y1215492D01*
X308714Y1221321D01*
X304253Y1225781D01*
X298424Y1228196D01*
D02*
G37*
G36*
X1468154Y1154437D02*
X1461846D01*
X1456017Y1152022D01*
X1451556Y1147561D01*
X1449142Y1141733D01*
Y1135424D01*
X1451556Y1129595D01*
X1456017Y1125134D01*
X1461846Y1122720D01*
X1468154D01*
X1473983Y1125134D01*
X1478444Y1129595D01*
X1480858Y1135424D01*
Y1141733D01*
X1478444Y1147561D01*
X1473983Y1152022D01*
X1468154Y1154437D01*
D02*
G37*
G36*
X1309155Y1093859D02*
X1302846D01*
X1297017Y1091444D01*
X1292557Y1086984D01*
X1290142Y1081155D01*
Y1074846D01*
X1292557Y1069017D01*
X1297017Y1064557D01*
X1302846Y1062142D01*
X1309155D01*
X1314984Y1064557D01*
X1319444Y1069017D01*
X1321859Y1074846D01*
Y1081155D01*
X1319444Y1086984D01*
X1314984Y1091444D01*
X1309155Y1093859D01*
D02*
G37*
G36*
X2033974Y1088182D02*
X2027665D01*
X2021836Y1085767D01*
X2017376Y1081306D01*
X2014961Y1075478D01*
Y1069169D01*
X2017376Y1063341D01*
X2021836Y1058880D01*
X2027665Y1056465D01*
X2033974D01*
X2039802Y1058880D01*
X2044263Y1063341D01*
X2046678Y1069169D01*
Y1075478D01*
X2044263Y1081306D01*
X2039802Y1085767D01*
X2033974Y1088182D01*
D02*
G37*
G36*
X1735005Y1083859D02*
X1728697D01*
X1722868Y1081444D01*
X1718407Y1076984D01*
X1715993Y1071155D01*
Y1064846D01*
X1718407Y1059017D01*
X1722868Y1054557D01*
X1728697Y1052142D01*
X1735005D01*
X1740834Y1054557D01*
X1745295Y1059017D01*
X1747709Y1064846D01*
Y1071155D01*
X1745295Y1076984D01*
X1740834Y1081444D01*
X1735005Y1083859D01*
D02*
G37*
G36*
X1007149D02*
X1000840D01*
X995012Y1081444D01*
X990551Y1076984D01*
X988136Y1071155D01*
Y1064846D01*
X990551Y1059017D01*
X995012Y1054557D01*
X1000840Y1052142D01*
X1007149D01*
X1012978Y1054557D01*
X1017439Y1059017D01*
X1019853Y1064846D01*
Y1071155D01*
X1017439Y1076984D01*
X1012978Y1081444D01*
X1007149Y1083859D01*
D02*
G37*
G36*
X576054D02*
X569745D01*
X563917Y1081444D01*
X559456Y1076984D01*
X557042Y1071155D01*
Y1064846D01*
X559456Y1059017D01*
X563917Y1054557D01*
X569745Y1052142D01*
X576054D01*
X581883Y1054557D01*
X586344Y1059017D01*
X588758Y1064846D01*
Y1071155D01*
X586344Y1076984D01*
X581883Y1081444D01*
X576054Y1083859D01*
D02*
G37*
G36*
X262155Y1080859D02*
X255846D01*
X250018Y1078444D01*
X245557Y1073984D01*
X243142Y1068155D01*
Y1061846D01*
X245557Y1056017D01*
X250018Y1051557D01*
X255846Y1049142D01*
X262155D01*
X267983Y1051557D01*
X272444Y1056017D01*
X274859Y1061846D01*
Y1068155D01*
X272444Y1073984D01*
X267983Y1078444D01*
X262155Y1080859D01*
D02*
G37*
G36*
X1192519Y1052345D02*
X1186210D01*
X1180382Y1049931D01*
X1175921Y1045470D01*
X1173507Y1039641D01*
Y1033333D01*
X1175921Y1027504D01*
X1180382Y1023043D01*
X1186210Y1020629D01*
X1192519D01*
X1198348Y1023043D01*
X1202809Y1027504D01*
X1205223Y1033333D01*
Y1039641D01*
X1202809Y1045470D01*
X1198348Y1049931D01*
X1192519Y1052345D01*
D02*
G37*
G36*
X453795D02*
X447486D01*
X441657Y1049931D01*
X437196Y1045470D01*
X434782Y1039641D01*
Y1033333D01*
X437196Y1027504D01*
X441657Y1023043D01*
X447486Y1020629D01*
X453795D01*
X459623Y1023043D01*
X464084Y1027504D01*
X466498Y1033333D01*
Y1039641D01*
X464084Y1045470D01*
X459623Y1049931D01*
X453795Y1052345D01*
D02*
G37*
G36*
X414424D02*
X408116D01*
X402287Y1049931D01*
X397826Y1045470D01*
X395412Y1039641D01*
Y1033333D01*
X397826Y1027504D01*
X402287Y1023043D01*
X408116Y1020629D01*
X414424D01*
X420253Y1023043D01*
X424714Y1027504D01*
X427128Y1033333D01*
Y1039641D01*
X424714Y1045470D01*
X420253Y1049931D01*
X414424Y1052345D01*
D02*
G37*
G36*
X375054D02*
X368745D01*
X362917Y1049931D01*
X358456Y1045470D01*
X356042Y1039641D01*
Y1033333D01*
X358456Y1027504D01*
X362917Y1023043D01*
X368745Y1020629D01*
X375054D01*
X380883Y1023043D01*
X385344Y1027504D01*
X387758Y1033333D01*
Y1039641D01*
X385344Y1045470D01*
X380883Y1049931D01*
X375054Y1052345D01*
D02*
G37*
G36*
X1920375Y1051889D02*
X1914067D01*
X1908238Y1049474D01*
X1903777Y1045013D01*
X1901363Y1039185D01*
Y1032876D01*
X1903777Y1027047D01*
X1908238Y1022587D01*
X1914067Y1020172D01*
X1920375D01*
X1926204Y1022587D01*
X1930665Y1027047D01*
X1933079Y1032876D01*
Y1039185D01*
X1930665Y1045013D01*
X1926204Y1049474D01*
X1920375Y1051889D01*
D02*
G37*
G36*
X1881005D02*
X1874697D01*
X1868868Y1049474D01*
X1864407Y1045013D01*
X1861993Y1039185D01*
Y1032876D01*
X1864407Y1027047D01*
X1868868Y1022587D01*
X1874697Y1020172D01*
X1881005D01*
X1886834Y1022587D01*
X1891295Y1027047D01*
X1893709Y1032876D01*
Y1039185D01*
X1891295Y1045013D01*
X1886834Y1049474D01*
X1881005Y1051889D01*
D02*
G37*
G36*
X1841635D02*
X1835326D01*
X1829498Y1049474D01*
X1825037Y1045013D01*
X1822623Y1039185D01*
Y1032876D01*
X1825037Y1027047D01*
X1829498Y1022587D01*
X1835326Y1020172D01*
X1841635D01*
X1847464Y1022587D01*
X1851925Y1027047D01*
X1854339Y1032876D01*
Y1039185D01*
X1851925Y1045013D01*
X1847464Y1049474D01*
X1841635Y1051889D01*
D02*
G37*
G36*
X1153149D02*
X1146840D01*
X1141012Y1049474D01*
X1136551Y1045013D01*
X1134137Y1039185D01*
Y1032876D01*
X1136551Y1027047D01*
X1141012Y1022587D01*
X1146840Y1020172D01*
X1153149D01*
X1158978Y1022587D01*
X1163439Y1027047D01*
X1165853Y1032876D01*
Y1039185D01*
X1163439Y1045013D01*
X1158978Y1049474D01*
X1153149Y1051889D01*
D02*
G37*
G36*
X1113779D02*
X1107470D01*
X1101642Y1049474D01*
X1097181Y1045013D01*
X1094766Y1039185D01*
Y1032876D01*
X1097181Y1027047D01*
X1101642Y1022587D01*
X1107470Y1020172D01*
X1113779D01*
X1119608Y1022587D01*
X1124069Y1027047D01*
X1126483Y1032876D01*
Y1039185D01*
X1124069Y1045013D01*
X1119608Y1049474D01*
X1113779Y1051889D01*
D02*
G37*
G36*
X2021005Y1032204D02*
X2014697D01*
X2008868Y1029789D01*
X2004407Y1025328D01*
X2001993Y1019500D01*
Y1013191D01*
X2004407Y1007362D01*
X2008868Y1002901D01*
X2014697Y1000487D01*
X2021005D01*
X2026834Y1002901D01*
X2031295Y1007362D01*
X2033709Y1013191D01*
Y1019500D01*
X2031295Y1025328D01*
X2026834Y1029789D01*
X2021005Y1032204D01*
D02*
G37*
G36*
X1288204D02*
X1281896D01*
X1276067Y1029789D01*
X1271606Y1025328D01*
X1269192Y1019500D01*
Y1013191D01*
X1271606Y1007362D01*
X1276067Y1002901D01*
X1281896Y1000487D01*
X1288204D01*
X1294033Y1002901D01*
X1298494Y1007362D01*
X1300908Y1013191D01*
Y1019500D01*
X1298494Y1025328D01*
X1294033Y1029789D01*
X1288204Y1032204D01*
D02*
G37*
G36*
X549480D02*
X543171D01*
X537342Y1029789D01*
X532881Y1025328D01*
X530467Y1019500D01*
Y1013191D01*
X532881Y1007362D01*
X537342Y1002901D01*
X543171Y1000487D01*
X549480D01*
X555308Y1002901D01*
X559769Y1007362D01*
X562183Y1013191D01*
Y1019500D01*
X559769Y1025328D01*
X555308Y1029789D01*
X549480Y1032204D01*
D02*
G37*
G36*
X1920375Y1012519D02*
X1914067D01*
X1908238Y1010104D01*
X1903777Y1005643D01*
X1901363Y999815D01*
Y993506D01*
X1903777Y987677D01*
X1908238Y983216D01*
X1914067Y980802D01*
X1920375D01*
X1926204Y983216D01*
X1930665Y987677D01*
X1933079Y993506D01*
Y999815D01*
X1930665Y1005643D01*
X1926204Y1010104D01*
X1920375Y1012519D01*
D02*
G37*
G36*
X1881005D02*
X1874697D01*
X1868868Y1010104D01*
X1864407Y1005643D01*
X1861993Y999815D01*
Y993506D01*
X1864407Y987677D01*
X1868868Y983216D01*
X1874697Y980802D01*
X1881005D01*
X1886834Y983216D01*
X1891295Y987677D01*
X1893709Y993506D01*
Y999815D01*
X1891295Y1005643D01*
X1886834Y1010104D01*
X1881005Y1012519D01*
D02*
G37*
G36*
X1841635D02*
X1835326D01*
X1829498Y1010104D01*
X1825037Y1005643D01*
X1822623Y999815D01*
Y993506D01*
X1825037Y987677D01*
X1829498Y983216D01*
X1835326Y980802D01*
X1841635D01*
X1847464Y983216D01*
X1851925Y987677D01*
X1854339Y993506D01*
Y999815D01*
X1851925Y1005643D01*
X1847464Y1010104D01*
X1841635Y1012519D01*
D02*
G37*
G36*
X1192519D02*
X1186210D01*
X1180382Y1010104D01*
X1175921Y1005643D01*
X1173507Y999815D01*
Y993506D01*
X1175921Y987677D01*
X1180382Y983216D01*
X1186210Y980802D01*
X1192519D01*
X1198348Y983216D01*
X1202809Y987677D01*
X1205223Y993506D01*
Y999815D01*
X1202809Y1005643D01*
X1198348Y1010104D01*
X1192519Y1012519D01*
D02*
G37*
G36*
X1153149D02*
X1146840D01*
X1141012Y1010104D01*
X1136551Y1005643D01*
X1134137Y999815D01*
Y993506D01*
X1136551Y987677D01*
X1141012Y983216D01*
X1146840Y980802D01*
X1153149D01*
X1158978Y983216D01*
X1163439Y987677D01*
X1165853Y993506D01*
Y999815D01*
X1163439Y1005643D01*
X1158978Y1010104D01*
X1153149Y1012519D01*
D02*
G37*
G36*
X1113779D02*
X1107470D01*
X1101642Y1010104D01*
X1097181Y1005643D01*
X1094766Y999815D01*
Y993506D01*
X1097181Y987677D01*
X1101642Y983216D01*
X1107470Y980802D01*
X1113779D01*
X1119608Y983216D01*
X1124069Y987677D01*
X1126483Y993506D01*
Y999815D01*
X1124069Y1005643D01*
X1119608Y1010104D01*
X1113779Y1012519D01*
D02*
G37*
G36*
X453795D02*
X447486D01*
X441657Y1010104D01*
X437196Y1005643D01*
X434782Y999815D01*
Y993506D01*
X437196Y987677D01*
X441657Y983216D01*
X447486Y980802D01*
X453795D01*
X459623Y983216D01*
X464084Y987677D01*
X466498Y993506D01*
Y999815D01*
X464084Y1005643D01*
X459623Y1010104D01*
X453795Y1012519D01*
D02*
G37*
G36*
X414424D02*
X408116D01*
X402287Y1010104D01*
X397826Y1005643D01*
X395412Y999815D01*
Y993506D01*
X397826Y987677D01*
X402287Y983216D01*
X408116Y980802D01*
X414424D01*
X420253Y983216D01*
X424714Y987677D01*
X427128Y993506D01*
Y999815D01*
X424714Y1005643D01*
X420253Y1010104D01*
X414424Y1012519D01*
D02*
G37*
G36*
X375054D02*
X368745D01*
X362917Y1010104D01*
X358456Y1005643D01*
X356042Y999815D01*
Y993506D01*
X358456Y987677D01*
X362917Y983216D01*
X368745Y980802D01*
X375054D01*
X380883Y983216D01*
X385344Y987677D01*
X387758Y993506D01*
Y999815D01*
X385344Y1005643D01*
X380883Y1010104D01*
X375054Y1012519D01*
D02*
G37*
G36*
X1920375Y973148D02*
X1914067D01*
X1908238Y970734D01*
X1903777Y966273D01*
X1901363Y960445D01*
Y954136D01*
X1903777Y948307D01*
X1908238Y943846D01*
X1914067Y941432D01*
X1920375D01*
X1926204Y943846D01*
X1930665Y948307D01*
X1933079Y954136D01*
Y960445D01*
X1930665Y966273D01*
X1926204Y970734D01*
X1920375Y973148D01*
D02*
G37*
G36*
X1881005D02*
X1874697D01*
X1868868Y970734D01*
X1864407Y966273D01*
X1861993Y960445D01*
Y954136D01*
X1864407Y948307D01*
X1868868Y943846D01*
X1874697Y941432D01*
X1881005D01*
X1886834Y943846D01*
X1891295Y948307D01*
X1893709Y954136D01*
Y960445D01*
X1891295Y966273D01*
X1886834Y970734D01*
X1881005Y973148D01*
D02*
G37*
G36*
X1841635D02*
X1835326D01*
X1829498Y970734D01*
X1825037Y966273D01*
X1822623Y960445D01*
Y954136D01*
X1825037Y948307D01*
X1829498Y943846D01*
X1835326Y941432D01*
X1841635D01*
X1847464Y943846D01*
X1851925Y948307D01*
X1854339Y954136D01*
Y960445D01*
X1851925Y966273D01*
X1847464Y970734D01*
X1841635Y973148D01*
D02*
G37*
G36*
X1193299D02*
X1186990D01*
X1181161Y970734D01*
X1176700Y966273D01*
X1174286Y960445D01*
Y954136D01*
X1176700Y948307D01*
X1181161Y943846D01*
X1186990Y941432D01*
X1193299D01*
X1199127Y943846D01*
X1203588Y948307D01*
X1206003Y954136D01*
Y960445D01*
X1203588Y966273D01*
X1199127Y970734D01*
X1193299Y973148D01*
D02*
G37*
G36*
X1153149D02*
X1146840D01*
X1141012Y970734D01*
X1136551Y966273D01*
X1134137Y960445D01*
Y954136D01*
X1136551Y948307D01*
X1141012Y943846D01*
X1146840Y941432D01*
X1153149D01*
X1158978Y943846D01*
X1163439Y948307D01*
X1165853Y954136D01*
Y960445D01*
X1163439Y966273D01*
X1158978Y970734D01*
X1153149Y973148D01*
D02*
G37*
G36*
X1113779D02*
X1107470D01*
X1101642Y970734D01*
X1097181Y966273D01*
X1094766Y960445D01*
Y954136D01*
X1097181Y948307D01*
X1101642Y943846D01*
X1107470Y941432D01*
X1113779D01*
X1119608Y943846D01*
X1124069Y948307D01*
X1126483Y954136D01*
Y960445D01*
X1124069Y966273D01*
X1119608Y970734D01*
X1113779Y973148D01*
D02*
G37*
G36*
X1292740Y966007D02*
X1286431D01*
X1280603Y963592D01*
X1276142Y959131D01*
X1273728Y953303D01*
Y946994D01*
X1276142Y941165D01*
X1280603Y936705D01*
X1286431Y934290D01*
X1292740D01*
X1298569Y936705D01*
X1303030Y941165D01*
X1305444Y946994D01*
Y953303D01*
X1303030Y959131D01*
X1298569Y963592D01*
X1292740Y966007D01*
D02*
G37*
G36*
X1468154Y973148D02*
X1461846D01*
X1456017Y970734D01*
X1451556Y966273D01*
X1449142Y960445D01*
Y954136D01*
X1451556Y948307D01*
X1456017Y943846D01*
X1456426Y943677D01*
Y936100D01*
X1456017Y935931D01*
X1451556Y931470D01*
X1449142Y925641D01*
Y919333D01*
X1451556Y913504D01*
X1456017Y909043D01*
X1461846Y906629D01*
X1468154D01*
X1473983Y909043D01*
X1478444Y913504D01*
X1480858Y919333D01*
Y925641D01*
X1478444Y931470D01*
X1473983Y935931D01*
X1473574Y936100D01*
Y943677D01*
X1473983Y943846D01*
X1478444Y948307D01*
X1480858Y954136D01*
Y960445D01*
X1478444Y966273D01*
X1473983Y970734D01*
X1468154Y973148D01*
D02*
G37*
G36*
X2017727Y928575D02*
X2011418D01*
X2005589Y926161D01*
X2001129Y921700D01*
X1998714Y915872D01*
Y909563D01*
X2001129Y903734D01*
X2005589Y899273D01*
X2011418Y896859D01*
X2017727D01*
X2023555Y899273D01*
X2028016Y903734D01*
X2030431Y909563D01*
Y915872D01*
X2028016Y921700D01*
X2023555Y926161D01*
X2017727Y928575D01*
D02*
G37*
G36*
X1527154Y904345D02*
X1520846D01*
X1515017Y901931D01*
X1510556Y897470D01*
X1508142Y891641D01*
Y885333D01*
X1510556Y879504D01*
X1515017Y875043D01*
X1520846Y872629D01*
X1527154D01*
X1532983Y875043D01*
X1537444Y879504D01*
X1539858Y885333D01*
Y891641D01*
X1537444Y897470D01*
X1532983Y901931D01*
X1527154Y904345D01*
D02*
G37*
G36*
X1468154Y882179D02*
X1461846D01*
X1456017Y879765D01*
X1451556Y875304D01*
X1449142Y869476D01*
Y863167D01*
X1451556Y857338D01*
X1456017Y852877D01*
X1461846Y850463D01*
X1468154D01*
X1473983Y852877D01*
X1478444Y857338D01*
X1480858Y863167D01*
Y869476D01*
X1478444Y875304D01*
X1473983Y879765D01*
X1468154Y882179D01*
D02*
G37*
G36*
X1371118D02*
X1364809D01*
X1358980Y879765D01*
X1354519Y875304D01*
X1352105Y869476D01*
Y863167D01*
X1354519Y857338D01*
X1358980Y852877D01*
X1364809Y850463D01*
X1371118D01*
X1376946Y852877D01*
X1381407Y857338D01*
X1383821Y863167D01*
Y869476D01*
X1381407Y875304D01*
X1376946Y879765D01*
X1371118Y882179D01*
D02*
G37*
G36*
X1961690Y841941D02*
X1955382D01*
X1949553Y839526D01*
X1945092Y835065D01*
X1942678Y829237D01*
Y822928D01*
X1945092Y817099D01*
X1949553Y812639D01*
X1955382Y810224D01*
X1961690D01*
X1967519Y812639D01*
X1971980Y817099D01*
X1974394Y822928D01*
Y829237D01*
X1971980Y835065D01*
X1967519Y839526D01*
X1961690Y841941D01*
D02*
G37*
G36*
X1233834D02*
X1227525D01*
X1221697Y839526D01*
X1217236Y835065D01*
X1214822Y829237D01*
Y822928D01*
X1217236Y817099D01*
X1221697Y812639D01*
X1227525Y810224D01*
X1233834D01*
X1239663Y812639D01*
X1244124Y817099D01*
X1246538Y822928D01*
Y829237D01*
X1244124Y835065D01*
X1239663Y839526D01*
X1233834Y841941D01*
D02*
G37*
G36*
X1400031Y831527D02*
X1393722D01*
X1387893Y829113D01*
X1383433Y824652D01*
X1381018Y818824D01*
Y812515D01*
X1383433Y806686D01*
X1387893Y802225D01*
X1393722Y799811D01*
X1400031D01*
X1405860Y802225D01*
X1410320Y806686D01*
X1412735Y812515D01*
Y818824D01*
X1410320Y824652D01*
X1405860Y829113D01*
X1400031Y831527D01*
D02*
G37*
G36*
X1273204Y759263D02*
X1266896D01*
X1261067Y756849D01*
X1256606Y752388D01*
X1254192Y746560D01*
Y740251D01*
X1256606Y734422D01*
X1261067Y729961D01*
X1266896Y727547D01*
X1273204D01*
X1279033Y729961D01*
X1283494Y734422D01*
X1285908Y740251D01*
Y746560D01*
X1283494Y752388D01*
X1279033Y756849D01*
X1273204Y759263D01*
D02*
G37*
G36*
X1203834D02*
X1197525D01*
X1191697Y756849D01*
X1187236Y752388D01*
X1184822Y746560D01*
Y740251D01*
X1187236Y734422D01*
X1191697Y729961D01*
X1197525Y727547D01*
X1203834D01*
X1209663Y729961D01*
X1214124Y734422D01*
X1216538Y740251D01*
Y746560D01*
X1214124Y752388D01*
X1209663Y756849D01*
X1203834Y759263D01*
D02*
G37*
G36*
X1128154D02*
X1121846D01*
X1116017Y756849D01*
X1111556Y752388D01*
X1109142Y746560D01*
Y740251D01*
X1111556Y734422D01*
X1116017Y729961D01*
X1121846Y727547D01*
X1128154D01*
X1133983Y729961D01*
X1138444Y734422D01*
X1140858Y740251D01*
Y746560D01*
X1138444Y752388D01*
X1133983Y756849D01*
X1128154Y759263D01*
D02*
G37*
G36*
X1054724D02*
X1048415D01*
X1042586Y756849D01*
X1038126Y752388D01*
X1035711Y746560D01*
Y740251D01*
X1038126Y734422D01*
X1042586Y729961D01*
X1048415Y727547D01*
X1054724D01*
X1060553Y729961D01*
X1065013Y734422D01*
X1067428Y740251D01*
Y746560D01*
X1065013Y752388D01*
X1060553Y756849D01*
X1054724Y759263D01*
D02*
G37*
G36*
X1913154Y758870D02*
X1906846D01*
X1901017Y756456D01*
X1896556Y751995D01*
X1894142Y746167D01*
Y739858D01*
X1896556Y734029D01*
X1901017Y729568D01*
X1906846Y727154D01*
X1913154D01*
X1918983Y729568D01*
X1923444Y734029D01*
X1925858Y739858D01*
Y746167D01*
X1923444Y751995D01*
X1918983Y756456D01*
X1913154Y758870D01*
D02*
G37*
G36*
X1829320D02*
X1823011D01*
X1817183Y756456D01*
X1812722Y751995D01*
X1810308Y746167D01*
Y739858D01*
X1812722Y734029D01*
X1817183Y729568D01*
X1823011Y727154D01*
X1829320D01*
X1835149Y729568D01*
X1839610Y734029D01*
X1842024Y739858D01*
Y746167D01*
X1839610Y751995D01*
X1835149Y756456D01*
X1829320Y758870D01*
D02*
G37*
G36*
X1750005D02*
X1743697D01*
X1737868Y756456D01*
X1733407Y751995D01*
X1730993Y746167D01*
Y739858D01*
X1733407Y734029D01*
X1737868Y729568D01*
X1743697Y727154D01*
X1750005D01*
X1755834Y729568D01*
X1760295Y734029D01*
X1762709Y739858D01*
Y746167D01*
X1760295Y751995D01*
X1755834Y756456D01*
X1750005Y758870D01*
D02*
G37*
G36*
X1356118D02*
X1349809D01*
X1343980Y756456D01*
X1339519Y751995D01*
X1337105Y746167D01*
Y739858D01*
X1339519Y734029D01*
X1343980Y729568D01*
X1349809Y727154D01*
X1356118D01*
X1361946Y729568D01*
X1366407Y734029D01*
X1368821Y739858D01*
Y746167D01*
X1366407Y751995D01*
X1361946Y756456D01*
X1356118Y758870D01*
D02*
G37*
G36*
X945440Y717925D02*
X939132D01*
X933303Y715510D01*
X928842Y711050D01*
X926428Y705221D01*
Y698912D01*
X928842Y693084D01*
X933303Y688623D01*
X939132Y686208D01*
X945440D01*
X951269Y688623D01*
X955730Y693084D01*
X958144Y698912D01*
Y705221D01*
X955730Y711050D01*
X951269Y715510D01*
X945440Y717925D01*
D02*
G37*
G36*
X1243204Y689197D02*
X1236896D01*
X1231067Y686783D01*
X1226606Y682322D01*
X1224192Y676493D01*
Y670184D01*
X1226606Y664356D01*
X1231067Y659895D01*
X1236896Y657480D01*
X1243204D01*
X1249033Y659895D01*
X1253494Y664356D01*
X1255908Y670184D01*
Y676493D01*
X1253494Y682322D01*
X1249033Y686783D01*
X1243204Y689197D01*
D02*
G37*
G36*
X1172834D02*
X1166525D01*
X1160697Y686783D01*
X1156236Y682322D01*
X1153822Y676493D01*
Y670184D01*
X1156236Y664356D01*
X1160697Y659895D01*
X1166525Y657480D01*
X1172834D01*
X1178663Y659895D01*
X1183124Y664356D01*
X1185538Y670184D01*
Y676493D01*
X1183124Y682322D01*
X1178663Y686783D01*
X1172834Y689197D01*
D02*
G37*
G36*
X1095440D02*
X1089132D01*
X1083303Y686783D01*
X1078842Y682322D01*
X1076428Y676493D01*
Y670184D01*
X1078842Y664356D01*
X1083303Y659895D01*
X1089132Y657480D01*
X1095440D01*
X1101269Y659895D01*
X1105730Y664356D01*
X1108144Y670184D01*
Y676493D01*
X1105730Y682322D01*
X1101269Y686783D01*
X1095440Y689197D01*
D02*
G37*
G36*
X1493614Y594456D02*
X1445378Y546221D01*
X1493614Y497985D01*
Y594456D01*
D02*
G37*
G36*
X1296386Y594457D02*
Y497984D01*
X1344622Y546221D01*
X1296386Y594457D01*
D02*
G37*
G36*
X1486543Y601528D02*
X1303457D01*
X1355229Y549756D01*
X1351693Y546221D01*
X1355229Y542685D01*
X1303457Y490913D01*
X1486543D01*
X1434772Y542685D01*
X1438307Y546221D01*
X1434772Y549756D01*
X1486543Y601528D01*
D02*
G37*
G36*
X1861320Y520858D02*
X1855012D01*
X1849183Y518444D01*
X1844722Y513983D01*
X1842308Y508154D01*
Y501846D01*
X1844722Y496017D01*
X1849183Y491556D01*
X1855012Y489142D01*
X1861320D01*
X1867149Y491556D01*
X1871610Y496017D01*
X1874024Y501846D01*
Y508154D01*
X1871610Y513983D01*
X1867149Y518444D01*
X1861320Y520858D01*
D02*
G37*
G36*
X1761320D02*
X1755012D01*
X1749183Y518444D01*
X1744722Y513983D01*
X1742308Y508154D01*
Y501846D01*
X1744722Y496017D01*
X1749183Y491556D01*
X1755012Y489142D01*
X1761320D01*
X1767149Y491556D01*
X1771610Y496017D01*
X1774024Y501846D01*
Y508154D01*
X1771610Y513983D01*
X1767149Y518444D01*
X1761320Y520858D01*
D02*
G37*
G36*
X1961320Y520670D02*
X1955012D01*
X1949183Y518255D01*
X1944722Y513794D01*
X1942308Y507966D01*
Y501657D01*
X1944722Y495829D01*
X1949183Y491368D01*
X1955012Y488953D01*
X1961320D01*
X1967149Y491368D01*
X1971610Y495829D01*
X1974024Y501657D01*
Y507966D01*
X1971610Y513794D01*
X1967149Y518255D01*
X1961320Y520670D01*
D02*
G37*
G36*
X1095440Y519859D02*
X1089132D01*
X1083303Y517444D01*
X1078842Y512984D01*
X1076428Y507155D01*
Y500846D01*
X1078842Y495017D01*
X1083303Y490557D01*
X1089132Y488142D01*
X1095440D01*
X1101269Y490557D01*
X1105730Y495017D01*
X1108144Y500846D01*
Y507155D01*
X1105730Y512984D01*
X1101269Y517444D01*
X1095440Y519859D01*
D02*
G37*
G36*
X995440D02*
X989132D01*
X983303Y517444D01*
X978842Y512984D01*
X976428Y507155D01*
Y500846D01*
X978842Y495017D01*
X983303Y490557D01*
X989132Y488142D01*
X995440D01*
X1001269Y490557D01*
X1005730Y495017D01*
X1008144Y500846D01*
Y507155D01*
X1005730Y512984D01*
X1001269Y517444D01*
X995440Y519859D01*
D02*
G37*
G36*
X895440D02*
X889132D01*
X883303Y517444D01*
X878842Y512984D01*
X876428Y507155D01*
Y500846D01*
X878842Y495017D01*
X883303Y490557D01*
X889132Y488142D01*
X895440D01*
X901269Y490557D01*
X905730Y495017D01*
X908144Y500846D01*
Y507155D01*
X905730Y512984D01*
X901269Y517444D01*
X895440Y519859D01*
D02*
G37*
G36*
X1626409Y513850D02*
X1533669D01*
Y342370D01*
X1626409D01*
Y513850D01*
D02*
G37*
G36*
X1480740Y356370D02*
X1309260D01*
Y263630D01*
X1480740D01*
Y356370D01*
D02*
G37*
%LPD*%
D36*
X2192724Y68496D02*
D03*
Y232669D02*
D03*
X2533276Y68496D02*
D03*
Y232669D02*
D03*
D37*
X2249220Y213378D02*
D03*
X2476780D02*
D03*
D38*
X3776999Y1568543D02*
D03*
D39*
Y1468543D02*
D03*
Y1268543D02*
D03*
Y1168543D02*
D03*
Y1368543D02*
D03*
D40*
X2727001Y150000D02*
D03*
X157481Y157481D02*
D03*
X3770001Y1767001D02*
D03*
X2362205Y1771654D02*
D03*
X157481D02*
D03*
D41*
X2275000Y1370000D02*
D03*
Y1570000D02*
D03*
Y1470000D02*
D03*
X2375000Y1370000D02*
D03*
Y1470000D02*
D03*
X2755000Y1760000D02*
D03*
X2955000D02*
D03*
X2855000D02*
D03*
Y1860000D02*
D03*
X2955000D02*
D03*
X3190000Y1760000D02*
D03*
X3390000D02*
D03*
X3290000D02*
D03*
Y1860000D02*
D03*
X3390000D02*
D03*
X2504414Y1370000D02*
D03*
Y1570000D02*
D03*
Y1470000D02*
D03*
X2604414Y1370000D02*
D03*
Y1470000D02*
D03*
D42*
X2375000Y1570000D02*
D03*
X2604414D02*
D03*
D43*
X3243394Y490119D02*
D03*
Y545237D02*
D03*
Y435000D02*
D03*
X3282764Y584607D02*
D03*
Y395630D02*
D03*
X3337882D02*
D03*
X3393001D02*
D03*
X3365441Y462560D02*
D03*
X3432371Y435000D02*
D03*
X3310323Y462560D02*
D03*
Y517678D02*
D03*
X3365441D02*
D03*
X3391819Y584607D02*
D03*
X3336424Y585243D02*
D03*
X3432371Y545237D02*
D03*
Y490119D02*
D03*
D44*
X1395000Y310000D02*
D03*
D45*
X1580039Y428110D02*
D03*
D46*
X1395000Y546221D02*
D03*
D47*
X526772Y1692913D02*
D03*
X376772D02*
D03*
X676772D02*
D03*
X157481Y401370D02*
D03*
X1825984Y1692913D02*
D03*
X1675984D02*
D03*
X1975984D02*
D03*
X1176378D02*
D03*
X1026378D02*
D03*
X1326378D02*
D03*
D48*
X826772D02*
D03*
X2125984D02*
D03*
X1476378D02*
D03*
D49*
X157481Y551370D02*
D03*
D50*
X2755000Y1860000D02*
D03*
X3190000D02*
D03*
D51*
X3564882Y1910000D02*
D03*
Y1715118D02*
D03*
X295270Y1212338D02*
D03*
X669900Y1299000D02*
D03*
X1035000Y1220000D02*
D03*
X1761374Y1212338D02*
D03*
X720000Y937605D02*
D03*
X2905000Y955000D02*
D03*
X2859687Y1280560D02*
D03*
X3049756Y1281806D02*
D03*
X2670000Y463843D02*
D03*
X2810000Y320106D02*
D03*
X2888755D02*
D03*
X2845000Y249819D02*
D03*
X3445000Y1355000D02*
D03*
X3420000Y920000D02*
D03*
X2830000Y728691D02*
D03*
X3355000Y1460000D02*
D03*
X2980000Y1045000D02*
D03*
X3340000Y900000D02*
D03*
X3220000Y1014812D02*
D03*
X3341819Y1062323D02*
D03*
X3125000Y1185000D02*
D03*
X3445000Y1236417D02*
D03*
Y1413583D02*
D03*
X43001Y1253157D02*
D03*
X126270D02*
D03*
X587900Y1255645D02*
D03*
X783969D02*
D03*
X858969Y1253471D02*
D03*
X1326625Y1255645D02*
D03*
X1509000D02*
D03*
X1584000Y1253613D02*
D03*
X2054481Y1255645D02*
D03*
X2137158Y1297406D02*
D03*
X3499819Y1060000D02*
D03*
X3591819D02*
D03*
X3685000Y1095000D02*
D03*
X3776999D02*
D03*
X2237016Y293842D02*
D03*
X2510000Y295000D02*
D03*
X2470030Y375000D02*
D03*
X2140000D02*
D03*
X2127158Y458843D02*
D03*
X2140000Y784744D02*
D03*
X2583997Y922487D02*
D03*
X2619414D02*
D03*
X2656999D02*
D03*
Y988701D02*
D03*
X2619414D02*
D03*
X2583997D02*
D03*
X2890000Y1060000D02*
D03*
Y986772D02*
D03*
X1240050Y673339D02*
D03*
X1169680D02*
D03*
X1092286D02*
D03*
X942286Y702067D02*
D03*
X709900Y866321D02*
D03*
X1465000D02*
D03*
X2179426Y868712D02*
D03*
X2991819Y1615000D02*
D03*
X1110625Y1036030D02*
D03*
X1149995D02*
D03*
X1189365Y1036487D02*
D03*
X1110625Y957290D02*
D03*
X1149995D02*
D03*
X1190144D02*
D03*
X1189365Y996660D02*
D03*
X1149995D02*
D03*
X1110625D02*
D03*
X450640Y1036487D02*
D03*
X411270D02*
D03*
X371900D02*
D03*
X450640Y996660D02*
D03*
X411270D02*
D03*
X371900D02*
D03*
Y957290D02*
D03*
X411270D02*
D03*
X450640D02*
D03*
X1838481Y1036030D02*
D03*
X1877851D02*
D03*
X1917221D02*
D03*
Y996660D02*
D03*
X1877851D02*
D03*
X1838481D02*
D03*
Y957290D02*
D03*
X1877851D02*
D03*
X1917221D02*
D03*
X2382103Y375000D02*
D03*
X2370000Y80000D02*
D03*
X2179426Y323000D02*
D03*
X2140000Y340000D02*
D03*
X2105000Y375000D02*
D03*
Y340000D02*
D03*
X2127099Y427000D02*
D03*
Y491063D02*
D03*
X2206006Y436833D02*
D03*
Y475000D02*
D03*
X2095000Y426833D02*
D03*
Y458843D02*
D03*
Y491063D02*
D03*
X2575000Y825000D02*
D03*
X3291819Y1130000D02*
D03*
X680000Y820000D02*
D03*
X2170000Y1164203D02*
D03*
X730000Y1095000D02*
D03*
Y1130000D02*
D03*
Y1164203D02*
D03*
X1958166Y504812D02*
D03*
X1858166Y505000D02*
D03*
X1758166D02*
D03*
X1092286Y504000D02*
D03*
X992286D02*
D03*
X892286D02*
D03*
Y205000D02*
D03*
X992286D02*
D03*
X1092286D02*
D03*
X1758166Y213378D02*
D03*
X1858166D02*
D03*
X1958166D02*
D03*
X414000Y205000D02*
D03*
X514000D02*
D03*
X614000D02*
D03*
Y505000D02*
D03*
X514000D02*
D03*
X414000Y504000D02*
D03*
X3250000Y1470000D02*
D03*
X1910000Y743012D02*
D03*
X2066906Y826082D02*
D03*
X1746851Y743012D02*
D03*
X1396877Y815669D02*
D03*
X1352963Y743012D02*
D03*
X546325Y937487D02*
D03*
X2770000Y660000D02*
D03*
X2796367Y607638D02*
D03*
X1289586Y950149D02*
D03*
X614000Y820000D02*
D03*
X157481Y1390000D02*
D03*
X2385000Y770000D02*
D03*
X3530000Y706063D02*
D03*
X3355000Y846438D02*
D03*
X2765000Y1323543D02*
D03*
X3315000Y1500000D02*
D03*
X3365000Y665000D02*
D03*
X3120000Y1540000D02*
D03*
X3243394Y606063D02*
D03*
X3130000Y955000D02*
D03*
X2014572Y912717D02*
D03*
X2980000Y150000D02*
D03*
X2017851Y1016345D02*
D03*
X2316438Y846438D02*
D03*
X2892894D02*
D03*
X2905000Y86575D02*
D03*
X3230000Y885000D02*
D03*
X2961823D02*
D03*
X2990000Y1670000D02*
D03*
X2961823Y986772D02*
D03*
X3180000Y1580000D02*
D03*
X3242607Y256063D02*
D03*
X3320000Y190000D02*
D03*
X3391819Y1583181D02*
D03*
Y306063D02*
D03*
X3550000Y1600000D02*
D03*
X3565000Y395630D02*
D03*
X3625000Y240000D02*
D03*
X3615678Y1649322D02*
D03*
X3191819Y183181D02*
D03*
X3141819Y140000D02*
D03*
X1270050Y743405D02*
D03*
X3041819Y256063D02*
D03*
X3091819Y1470000D02*
D03*
X3091819Y183181D02*
D03*
X1524000Y888487D02*
D03*
X2095760Y868712D02*
D03*
X1367963Y866321D02*
D03*
X2200000Y910000D02*
D03*
X96270Y845000D02*
D03*
X657914Y702067D02*
D03*
X798969Y888487D02*
D03*
X1465000Y922487D02*
D03*
X3141819Y575000D02*
D03*
X585000Y650000D02*
D03*
X546325Y615000D02*
D03*
X3191819Y517678D02*
D03*
X546325Y1016345D02*
D03*
X3243394Y695000D02*
D03*
X1465000Y957290D02*
D03*
Y1138578D02*
D03*
X2810000Y1062323D02*
D03*
X2477540Y1270645D02*
D03*
X2434102Y1095085D02*
D03*
X1285050Y1016345D02*
D03*
X3491819Y210000D02*
D03*
X3461579Y1094760D02*
D03*
X3459819Y630000D02*
D03*
X2449102D02*
D03*
X2476540Y890000D02*
D03*
X3776999Y967992D02*
D03*
X3685000D02*
D03*
X3591819Y932992D02*
D03*
X3499819D02*
D03*
X2810000Y912717D02*
D03*
Y988701D02*
D03*
X2400000Y445000D02*
D03*
Y485000D02*
D03*
X2605000Y280000D02*
D03*
X2210000Y560000D02*
D03*
X2262103D02*
D03*
X2315000D02*
D03*
Y630000D02*
D03*
X2262103D02*
D03*
X2210000D02*
D03*
X2136481Y1164203D02*
D03*
X2054481D02*
D03*
X1982851D02*
D03*
X1761851D02*
D03*
X1669457D02*
D03*
X1584000D02*
D03*
X1509000D02*
D03*
X1409302Y1164346D02*
D03*
X1326625Y1162172D02*
D03*
X1254995D02*
D03*
X1033995Y1164203D02*
D03*
X944426Y1164346D02*
D03*
X858969D02*
D03*
X783969D02*
D03*
X669900D02*
D03*
X587900D02*
D03*
X516270Y1165164D02*
D03*
X295270Y1164346D02*
D03*
X209900Y1165164D02*
D03*
X126270D02*
D03*
X43001Y1164346D02*
D03*
X2030819Y1072323D02*
D03*
X1731851Y1068001D02*
D03*
X1306001Y1078001D02*
D03*
X1003995Y1068001D02*
D03*
X572900D02*
D03*
X259000Y1065001D02*
D03*
X1826166Y743012D02*
D03*
X1958536Y826082D02*
D03*
X1230680D02*
D03*
X1200680Y743405D02*
D03*
X1125000D02*
D03*
X1051570D02*
D03*
X320585Y748612D02*
D03*
X391585Y743405D02*
D03*
X461955D02*
D03*
X491955Y826082D02*
D03*
D55*
X2553000Y1955000D02*
D03*
%TF.MD5,54dd0a63d989f5516d20a4f4e3ca5aea*%
M02*
