%TF.GenerationSoftware,Altium Limited,Altium Designer,22.11.1 (43)*%
G04 Layer_Physical_Order=1*
G04 Layer_Color=255*
%FSLAX26Y26*%
%MOIN*%
%TF.SameCoordinates,7A21CAC7-823E-4026-81AB-88AB86373CC7*%
%TF.FilePolarity,Positive*%
%TF.FileFunction,Copper,L1,Top,Signal*%
%TF.Part,Single*%
G01*
G75*
%TA.AperFunction,ConnectorPad*%
%ADD10R,0.044882X0.023622*%
%ADD11R,0.044882X0.011811*%
%TA.AperFunction,SMDPad,CuDef*%
G04:AMPARAMS|DCode=12|XSize=48.425mil|YSize=23.228mil|CornerRadius=5.807mil|HoleSize=0mil|Usage=FLASHONLY|Rotation=0.000|XOffset=0mil|YOffset=0mil|HoleType=Round|Shape=RoundedRectangle|*
%AMROUNDEDRECTD12*
21,1,0.048425,0.011614,0,0,0.0*
21,1,0.036811,0.023228,0,0,0.0*
1,1,0.011614,0.018406,-0.005807*
1,1,0.011614,-0.018406,-0.005807*
1,1,0.011614,-0.018406,0.005807*
1,1,0.011614,0.018406,0.005807*
%
%ADD12ROUNDEDRECTD12*%
%ADD13R,0.084646X0.125984*%
%ADD14R,0.084646X0.035433*%
%ADD15R,0.074803X0.039370*%
G04:AMPARAMS|DCode=16|XSize=35.433mil|YSize=35.433mil|CornerRadius=4.429mil|HoleSize=0mil|Usage=FLASHONLY|Rotation=270.000|XOffset=0mil|YOffset=0mil|HoleType=Round|Shape=RoundedRectangle|*
%AMROUNDEDRECTD16*
21,1,0.035433,0.026575,0,0,270.0*
21,1,0.026575,0.035433,0,0,270.0*
1,1,0.008858,-0.013287,-0.013287*
1,1,0.008858,-0.013287,0.013287*
1,1,0.008858,0.013287,0.013287*
1,1,0.008858,0.013287,-0.013287*
%
%ADD16ROUNDEDRECTD16*%
G04:AMPARAMS|DCode=17|XSize=59.055mil|YSize=35.433mil|CornerRadius=4.429mil|HoleSize=0mil|Usage=FLASHONLY|Rotation=270.000|XOffset=0mil|YOffset=0mil|HoleType=Round|Shape=RoundedRectangle|*
%AMROUNDEDRECTD17*
21,1,0.059055,0.026575,0,0,270.0*
21,1,0.050197,0.035433,0,0,270.0*
1,1,0.008858,-0.013287,-0.025099*
1,1,0.008858,-0.013287,0.025099*
1,1,0.008858,0.013287,0.025099*
1,1,0.008858,0.013287,-0.025099*
%
%ADD17ROUNDEDRECTD17*%
G04:AMPARAMS|DCode=18|XSize=35.433mil|YSize=59.055mil|CornerRadius=4.429mil|HoleSize=0mil|Usage=FLASHONLY|Rotation=270.000|XOffset=0mil|YOffset=0mil|HoleType=Round|Shape=RoundedRectangle|*
%AMROUNDEDRECTD18*
21,1,0.035433,0.050197,0,0,270.0*
21,1,0.026575,0.059055,0,0,270.0*
1,1,0.008858,-0.025099,-0.013287*
1,1,0.008858,-0.025099,0.013287*
1,1,0.008858,0.025099,0.013287*
1,1,0.008858,0.025099,-0.013287*
%
%ADD18ROUNDEDRECTD18*%
%ADD19R,0.124016X0.124016*%
G04:AMPARAMS|DCode=20|XSize=10.236mil|YSize=38.189mil|CornerRadius=2.559mil|HoleSize=0mil|Usage=FLASHONLY|Rotation=0.000|XOffset=0mil|YOffset=0mil|HoleType=Round|Shape=RoundedRectangle|*
%AMROUNDEDRECTD20*
21,1,0.010236,0.033071,0,0,0.0*
21,1,0.005118,0.038189,0,0,0.0*
1,1,0.005118,0.002559,-0.016535*
1,1,0.005118,-0.002559,-0.016535*
1,1,0.005118,-0.002559,0.016535*
1,1,0.005118,0.002559,0.016535*
%
%ADD20ROUNDEDRECTD20*%
G04:AMPARAMS|DCode=21|XSize=10.236mil|YSize=38.189mil|CornerRadius=2.559mil|HoleSize=0mil|Usage=FLASHONLY|Rotation=270.000|XOffset=0mil|YOffset=0mil|HoleType=Round|Shape=RoundedRectangle|*
%AMROUNDEDRECTD21*
21,1,0.010236,0.033071,0,0,270.0*
21,1,0.005118,0.038189,0,0,270.0*
1,1,0.005118,-0.016535,-0.002559*
1,1,0.005118,-0.016535,0.002559*
1,1,0.005118,0.016535,0.002559*
1,1,0.005118,0.016535,-0.002559*
%
%ADD21ROUNDEDRECTD21*%
%ADD22R,0.011811X0.045276*%
%ADD23R,0.045276X0.011811*%
%ADD24R,0.039370X0.062992*%
%ADD25R,0.035433X0.051181*%
%ADD26R,0.019685X0.023622*%
%ADD27R,0.051181X0.035433*%
%ADD28R,0.062992X0.039370*%
%TA.AperFunction,ConnectorPad*%
%ADD29R,0.051181X0.035433*%
%TA.AperFunction,Conductor*%
%ADD30C,0.010000*%
%ADD31C,0.007550*%
%ADD32C,0.012000*%
%TA.AperFunction,ComponentPad*%
%ADD33C,0.078740*%
%ADD34C,0.023622*%
%ADD35O,0.098425X0.047244*%
%ADD36C,0.064961*%
%ADD37C,0.070866*%
%ADD38R,0.070866X0.070866*%
%ADD39R,0.078740X0.157480*%
%ADD40R,0.086614X0.173228*%
%ADD41R,0.157480X0.078740*%
%ADD42C,0.062992*%
%ADD43R,0.070866X0.070866*%
%TA.AperFunction,ViaPad*%
%ADD44C,0.017716*%
%ADD45C,0.020000*%
G36*
X3937008D02*
X0D01*
Y3937008D01*
X3937008D01*
Y0D01*
D02*
G37*
%LPC*%
G36*
X1191975Y3828839D02*
X1180292D01*
X1169007Y3825815D01*
X1158890Y3819974D01*
X1150629Y3811713D01*
X1144787Y3801595D01*
X1141764Y3790310D01*
Y3778627D01*
X1144787Y3767343D01*
X1150629Y3757225D01*
X1158890Y3748964D01*
X1169007Y3743122D01*
X1180292Y3740099D01*
X1191975D01*
X1203260Y3743122D01*
X1213378Y3748964D01*
X1221639Y3757225D01*
X1227480Y3767343D01*
X1230504Y3778627D01*
Y3790310D01*
X1227480Y3801595D01*
X1221639Y3811713D01*
X1213378Y3819974D01*
X1203260Y3825815D01*
X1191975Y3828839D01*
D02*
G37*
G36*
X891975D02*
X880292D01*
X869008Y3825815D01*
X858890Y3819974D01*
X850629Y3811713D01*
X844787Y3801595D01*
X841764Y3790310D01*
Y3778627D01*
X844787Y3767343D01*
X850629Y3757225D01*
X858890Y3748964D01*
X869008Y3743122D01*
X880292Y3740099D01*
X891975D01*
X903260Y3743122D01*
X913378Y3748964D01*
X921639Y3757225D01*
X927480Y3767343D01*
X930504Y3778627D01*
Y3790310D01*
X927480Y3801595D01*
X921639Y3811713D01*
X913378Y3819974D01*
X903260Y3825815D01*
X891975Y3828839D01*
D02*
G37*
G36*
X2083841Y3828370D02*
X2072159D01*
X2060874Y3825346D01*
X2050756Y3819505D01*
X2042495Y3811244D01*
X2036654Y3801126D01*
X2033630Y3789841D01*
Y3778159D01*
X2036654Y3766874D01*
X2042495Y3756756D01*
X2050756Y3748495D01*
X2060874Y3742654D01*
X2072159Y3739630D01*
X2083841D01*
X2095126Y3742654D01*
X2105244Y3748495D01*
X2113505Y3756756D01*
X2119346Y3766874D01*
X2122370Y3778159D01*
Y3789841D01*
X2119346Y3801126D01*
X2113505Y3811244D01*
X2105244Y3819505D01*
X2095126Y3825346D01*
X2083841Y3828370D01*
D02*
G37*
G36*
X1783841D02*
X1772159D01*
X1760874Y3825346D01*
X1750756Y3819505D01*
X1742495Y3811244D01*
X1736654Y3801126D01*
X1733630Y3789841D01*
Y3778159D01*
X1736654Y3766874D01*
X1742495Y3756756D01*
X1750756Y3748495D01*
X1760874Y3742654D01*
X1772159Y3739630D01*
X1783841D01*
X1795126Y3742654D01*
X1805244Y3748495D01*
X1813505Y3756756D01*
X1819346Y3766874D01*
X1822370Y3778159D01*
Y3789841D01*
X1819346Y3801126D01*
X1813505Y3811244D01*
X1805244Y3819505D01*
X1795126Y3825346D01*
X1783841Y3828370D01*
D02*
G37*
G36*
X3013928Y3826370D02*
X3002245D01*
X2990960Y3823346D01*
X2980843Y3817505D01*
X2972582Y3809244D01*
X2966740Y3799126D01*
X2963716Y3787841D01*
Y3776159D01*
X2966740Y3764874D01*
X2972582Y3754756D01*
X2980843Y3746495D01*
X2990960Y3740654D01*
X3002245Y3737630D01*
X3013928D01*
X3025213Y3740654D01*
X3035331Y3746495D01*
X3043591Y3754756D01*
X3049433Y3764874D01*
X3052457Y3776159D01*
Y3787841D01*
X3049433Y3799126D01*
X3043591Y3809244D01*
X3035331Y3817505D01*
X3025213Y3823346D01*
X3013928Y3826370D01*
D02*
G37*
G36*
X2713928D02*
X2702245D01*
X2690960Y3823346D01*
X2680843Y3817505D01*
X2672582Y3809244D01*
X2666740Y3799126D01*
X2663716Y3787841D01*
Y3776159D01*
X2666740Y3764874D01*
X2672582Y3754756D01*
X2680843Y3746495D01*
X2690960Y3740654D01*
X2702245Y3737630D01*
X2713928D01*
X2725213Y3740654D01*
X2735331Y3746495D01*
X2743591Y3754756D01*
X2749433Y3764874D01*
X2752457Y3776159D01*
Y3787841D01*
X2749433Y3799126D01*
X2743591Y3809244D01*
X2735331Y3817505D01*
X2725213Y3823346D01*
X2713928Y3826370D01*
D02*
G37*
G36*
X1341975Y3828839D02*
X1330292D01*
X1319007Y3825815D01*
X1308890Y3819974D01*
X1300629Y3811713D01*
X1294787Y3801595D01*
X1291764Y3790310D01*
Y3778627D01*
X1294787Y3767343D01*
X1300629Y3757225D01*
X1308890Y3748964D01*
X1319007Y3743122D01*
X1319820Y3742905D01*
Y3588829D01*
X1164500Y3433508D01*
X1052447Y3545561D01*
Y3742905D01*
X1053260Y3743122D01*
X1063378Y3748964D01*
X1071639Y3757225D01*
X1077480Y3767343D01*
X1080504Y3778627D01*
Y3790310D01*
X1077480Y3801595D01*
X1071639Y3811713D01*
X1063378Y3819974D01*
X1053260Y3825815D01*
X1041975Y3828839D01*
X1030292D01*
X1019008Y3825815D01*
X1008890Y3819974D01*
X1000629Y3811713D01*
X994787Y3801595D01*
X991764Y3790310D01*
Y3778627D01*
X994787Y3767343D01*
X1000629Y3757225D01*
X1008890Y3748964D01*
X1019008Y3743122D01*
X1019820Y3742905D01*
Y3538804D01*
X1021062Y3532561D01*
X1024598Y3527269D01*
X1137687Y3414180D01*
Y3327266D01*
X1132687Y3325195D01*
X1123129Y3334752D01*
X1118168Y3338067D01*
X1112315Y3339231D01*
X1111842D01*
Y3340749D01*
X1082158D01*
Y3326207D01*
X1081706Y3323938D01*
X1082158Y3321668D01*
Y3307127D01*
X1107497D01*
X1109336Y3305288D01*
Y3285273D01*
X1078591D01*
X1074689Y3284497D01*
X1071381Y3282287D01*
X1069171Y3278979D01*
X1068395Y3275077D01*
Y3261921D01*
X1027605D01*
Y3275077D01*
X1026829Y3278979D01*
X1024619Y3282287D01*
X1021311Y3284497D01*
X1017409Y3285273D01*
X772512D01*
X768610Y3284497D01*
X765302Y3282287D01*
X763092Y3278979D01*
X762316Y3275077D01*
Y3197469D01*
X763092Y3193567D01*
X765302Y3190259D01*
X768610Y3188049D01*
X772512Y3187273D01*
X1015316D01*
Y3151439D01*
X1013334Y3150452D01*
X1010316Y3149906D01*
X1005329Y3154893D01*
X997978Y3157938D01*
X990022D01*
X982671Y3154893D01*
X977045Y3149267D01*
X974000Y3141916D01*
Y3133959D01*
X977045Y3126608D01*
X982671Y3120982D01*
X990022Y3117938D01*
X990929D01*
X996212Y3112655D01*
X995253Y3106542D01*
X990849Y3102138D01*
X987804Y3094787D01*
Y3086831D01*
X989999Y3081532D01*
X987589Y3077233D01*
X982975Y3076793D01*
X964568Y3095201D01*
X963220Y3096101D01*
Y3119820D01*
X902039D01*
Y3074387D01*
X933718D01*
X934532Y3073572D01*
X939494Y3070257D01*
X945346Y3069093D01*
X947418D01*
X958482Y3058029D01*
X957992Y3053053D01*
X956516Y3052067D01*
X941592Y3037142D01*
X902039D01*
Y2991709D01*
X963220D01*
Y3015514D01*
X973665Y3025959D01*
X1012363D01*
X1014277Y3021339D01*
X960996Y2968058D01*
X955346D01*
Y2983355D01*
X909913D01*
Y2922174D01*
X955346D01*
Y2937470D01*
X967331D01*
X973183Y2938635D01*
X978145Y2941950D01*
X1037255Y3001060D01*
X1041874Y2999146D01*
Y2990977D01*
X1094039D01*
Y2977128D01*
X1090815Y2972302D01*
X1089651Y2966449D01*
Y2908532D01*
X1001130Y2820012D01*
X997815Y2815050D01*
X996651Y2809197D01*
Y2799820D01*
X981354D01*
Y2754387D01*
X1042535D01*
Y2799820D01*
X1031267D01*
X1029196Y2804820D01*
X1104717Y2880340D01*
X1109336Y2878427D01*
Y2870099D01*
X1070445Y2831209D01*
X1067130Y2826247D01*
X1065966Y2820394D01*
Y2799820D01*
X1050669D01*
Y2754387D01*
X1065966D01*
Y2748755D01*
X1064305Y2747093D01*
X1061260Y2739743D01*
Y2731786D01*
X1064305Y2724435D01*
X1069931Y2718809D01*
X1077282Y2715764D01*
X1085238D01*
X1092589Y2718809D01*
X1098215Y2724435D01*
X1101260Y2731786D01*
Y2739743D01*
X1098215Y2747093D01*
X1096554Y2748755D01*
Y2754387D01*
X1111850D01*
Y2799820D01*
X1096554D01*
Y2814059D01*
X1131966Y2849472D01*
X1136966Y2847401D01*
Y2799820D01*
X1121669D01*
Y2754387D01*
X1136966D01*
Y2748755D01*
X1135305Y2747093D01*
X1132260Y2739743D01*
Y2731786D01*
X1135305Y2724435D01*
X1140931Y2718809D01*
X1148282Y2715764D01*
X1156238D01*
X1163589Y2718809D01*
X1169215Y2724435D01*
X1172260Y2731786D01*
Y2739743D01*
X1169215Y2747093D01*
X1167554Y2748755D01*
Y2754387D01*
X1182850D01*
Y2799820D01*
X1167554D01*
Y2865796D01*
X1166475Y2871220D01*
X1166700Y2871507D01*
X1172128Y2872637D01*
X1207336Y2837430D01*
Y2799820D01*
X1192039D01*
Y2754387D01*
X1207336D01*
Y2748755D01*
X1205675Y2747093D01*
X1202630Y2739743D01*
Y2731786D01*
X1205675Y2724435D01*
X1211301Y2718809D01*
X1218652Y2715764D01*
X1226608D01*
X1233959Y2718809D01*
X1239585Y2724435D01*
X1242630Y2731786D01*
Y2739743D01*
X1239585Y2747093D01*
X1237924Y2748755D01*
Y2754387D01*
X1253220D01*
Y2799820D01*
X1237924D01*
Y2843764D01*
X1236760Y2849617D01*
X1233444Y2854579D01*
X1210099Y2877925D01*
X1211272Y2883823D01*
X1214699Y2885242D01*
X1220325Y2890868D01*
X1220976Y2892439D01*
X1225880Y2893414D01*
X1276706Y2842588D01*
Y2799820D01*
X1261409D01*
Y2754387D01*
X1322591D01*
Y2799820D01*
X1307294D01*
Y2842350D01*
X1312294Y2844421D01*
X1341406Y2815309D01*
Y2812959D01*
X1344451Y2805608D01*
X1345240Y2804820D01*
X1344006Y2799820D01*
X1330409D01*
Y2754387D01*
X1391591D01*
Y2799820D01*
X1378806D01*
X1377572Y2804820D01*
X1378361Y2805608D01*
X1381406Y2812959D01*
Y2820916D01*
X1378361Y2828267D01*
X1372735Y2833893D01*
X1365384Y2836938D01*
X1363035D01*
X1240347Y2959626D01*
X1238349Y2960961D01*
Y2966449D01*
X1237185Y2972302D01*
X1233961Y2977128D01*
Y2990977D01*
X1247810D01*
X1251945Y2988215D01*
X1249000Y2981106D01*
Y2973149D01*
X1252045Y2965798D01*
X1257671Y2960172D01*
X1265022Y2957128D01*
X1272978D01*
X1279486Y2959823D01*
X1284486Y2957797D01*
Y2940923D01*
X1285555Y2935548D01*
X1288600Y2930992D01*
X1432924Y2786668D01*
Y2248032D01*
X1433993Y2242657D01*
X1437037Y2238100D01*
X1728069Y1947069D01*
X1732625Y1944024D01*
X1738000Y1942955D01*
X3029844D01*
X3418774Y1554025D01*
Y1491877D01*
X3415852Y1491295D01*
X3412733Y1489211D01*
X3410649Y1486092D01*
X3410368Y1484677D01*
X3405270D01*
X3404988Y1486092D01*
X3402904Y1489211D01*
X3399785Y1491295D01*
X3396864Y1491877D01*
Y1539661D01*
X3395795Y1545036D01*
X3392750Y1549593D01*
X3045000Y1897343D01*
Y1901978D01*
X3041955Y1909329D01*
X3036329Y1914955D01*
X3028978Y1918000D01*
X3021022D01*
X3013671Y1914955D01*
X3008045Y1909329D01*
X3005000Y1901978D01*
Y1894022D01*
X3008045Y1886671D01*
X3013671Y1881045D01*
X3021022Y1878000D01*
X3024618D01*
X3368774Y1533844D01*
Y1491877D01*
X3365852Y1491295D01*
X3362733Y1489211D01*
X3360649Y1486092D01*
X3360368Y1484677D01*
X3355270D01*
X3354988Y1486092D01*
X3352904Y1489211D01*
X3349785Y1491295D01*
X3348113Y1491628D01*
Y1520181D01*
X3346949Y1526034D01*
X3343633Y1530995D01*
X3237814Y1636814D01*
X3232853Y1640130D01*
X3227000Y1641294D01*
X2253000D01*
X2247147Y1640130D01*
X2242186Y1636814D01*
X2174099Y1568728D01*
X2170784Y1563766D01*
X2169619Y1557913D01*
Y1514960D01*
X2164619Y1513609D01*
X2158047Y1520181D01*
X2148827Y1525504D01*
X2138544Y1528260D01*
X2127897D01*
X2117614Y1525504D01*
X2108394Y1520181D01*
X2100866Y1512653D01*
X2095543Y1503433D01*
X2092787Y1493150D01*
Y1482504D01*
X2095543Y1472220D01*
X2095705Y1471940D01*
X2058059Y1434294D01*
X2054744Y1429333D01*
X2053580Y1423480D01*
Y1158126D01*
X2054744Y1152274D01*
X2058059Y1147312D01*
X2124186Y1081186D01*
X2129147Y1077870D01*
X2135000Y1076706D01*
X2864665D01*
X3064359Y877012D01*
X3069320Y873697D01*
X3075173Y872533D01*
X3149293D01*
X3149626Y870860D01*
X3151710Y867741D01*
X3154829Y865657D01*
X3158508Y864926D01*
X3208705D01*
X3212384Y865657D01*
X3215503Y867741D01*
X3217587Y870860D01*
X3218318Y874539D01*
Y901114D01*
X3217587Y904793D01*
X3215503Y907912D01*
X3212384Y909996D01*
X3210968Y910278D01*
Y915376D01*
X3212384Y915657D01*
X3215503Y917741D01*
X3217587Y920860D01*
X3218318Y924539D01*
Y951114D01*
X3217587Y954793D01*
X3215503Y957912D01*
X3212384Y959996D01*
X3210968Y960278D01*
Y965376D01*
X3212384Y965657D01*
X3215503Y967741D01*
X3217587Y970860D01*
X3218318Y974539D01*
Y1001114D01*
X3217587Y1004793D01*
X3215503Y1007912D01*
X3212384Y1009996D01*
X3210968Y1010278D01*
Y1015376D01*
X3212384Y1015657D01*
X3215503Y1017741D01*
X3217587Y1020860D01*
X3218318Y1024539D01*
Y1051114D01*
X3217587Y1054793D01*
X3215503Y1057912D01*
X3212384Y1059996D01*
X3210968Y1060278D01*
Y1065376D01*
X3212384Y1065657D01*
X3215503Y1067741D01*
X3217587Y1070860D01*
X3218318Y1074539D01*
Y1101114D01*
X3217587Y1104793D01*
X3215503Y1107912D01*
X3212384Y1109996D01*
X3210968Y1110278D01*
Y1115376D01*
X3212384Y1115657D01*
X3215503Y1117741D01*
X3217587Y1120860D01*
X3218318Y1124539D01*
Y1151114D01*
X3217587Y1154793D01*
X3215503Y1157912D01*
X3212384Y1159996D01*
X3210968Y1160278D01*
Y1165376D01*
X3212384Y1165657D01*
X3215503Y1167741D01*
X3217587Y1170860D01*
X3218318Y1174539D01*
Y1201114D01*
X3217587Y1204793D01*
X3215503Y1207912D01*
X3212384Y1209996D01*
X3210968Y1210278D01*
Y1215376D01*
X3212384Y1215657D01*
X3215503Y1217741D01*
X3217587Y1220860D01*
X3218318Y1224539D01*
Y1251114D01*
X3217587Y1254793D01*
X3215503Y1257912D01*
X3212384Y1259996D01*
X3210968Y1260278D01*
Y1265376D01*
X3212384Y1265657D01*
X3215503Y1267741D01*
X3217587Y1270860D01*
X3218318Y1274539D01*
Y1301114D01*
X3217587Y1304793D01*
X3215503Y1307912D01*
X3212384Y1309996D01*
X3208705Y1310728D01*
X3158508D01*
X3154829Y1309996D01*
X3151710Y1307912D01*
X3149626Y1304793D01*
X3149310Y1303207D01*
X2801499D01*
X2796992Y1311013D01*
X2790013Y1317992D01*
X2781467Y1322926D01*
X2771934Y1325480D01*
X2762066D01*
X2752533Y1322926D01*
X2743987Y1317992D01*
X2737008Y1311013D01*
X2732074Y1302467D01*
X2729520Y1292934D01*
Y1283066D01*
X2732074Y1273533D01*
X2737008Y1264987D01*
X2743987Y1258008D01*
X2752533Y1253074D01*
X2762066Y1250520D01*
X2771934D01*
X2781467Y1253074D01*
X2790013Y1258008D01*
X2796992Y1264987D01*
X2801399Y1272620D01*
X3149276D01*
X3149626Y1270860D01*
X3151710Y1267741D01*
X3154829Y1265657D01*
X3156245Y1265376D01*
Y1260278D01*
X3154829Y1259996D01*
X3151710Y1257912D01*
X3149626Y1254793D01*
X3148894Y1251114D01*
Y1224539D01*
X3149626Y1220860D01*
X3151710Y1217741D01*
X3154829Y1215657D01*
X3156245Y1215376D01*
Y1210278D01*
X3154829Y1209996D01*
X3151710Y1207912D01*
X3149626Y1204793D01*
X3148894Y1201114D01*
Y1174539D01*
X3149626Y1170860D01*
X3151710Y1167741D01*
X3154829Y1165657D01*
X3156245Y1165376D01*
Y1160278D01*
X3154829Y1159996D01*
X3151710Y1157912D01*
X3149626Y1154793D01*
X3148894Y1151114D01*
Y1124539D01*
X3149626Y1120860D01*
X3151710Y1117741D01*
X3154829Y1115657D01*
X3156245Y1115376D01*
Y1110278D01*
X3154829Y1109996D01*
X3151710Y1107912D01*
X3149626Y1104793D01*
X3148894Y1101114D01*
Y1074539D01*
X3149626Y1070860D01*
X3151710Y1067741D01*
X3154829Y1065657D01*
X3156245Y1065376D01*
Y1060278D01*
X3154829Y1059996D01*
X3151710Y1057912D01*
X3149626Y1054793D01*
X3148894Y1051114D01*
Y1024539D01*
X3149626Y1020860D01*
X3151710Y1017741D01*
X3154829Y1015657D01*
X3156245Y1015376D01*
Y1010278D01*
X3154829Y1009996D01*
X3151710Y1007912D01*
X3149626Y1004793D01*
X3148894Y1001114D01*
Y974539D01*
X3149626Y970860D01*
X3151710Y967741D01*
X3154829Y965657D01*
X3156245Y965376D01*
Y960278D01*
X3154829Y959996D01*
X3151710Y957912D01*
X3149626Y954793D01*
X3149293Y953121D01*
X3109366D01*
X3085294Y977193D01*
Y1096197D01*
X3084130Y1102050D01*
X3080814Y1107011D01*
X2989011Y1198814D01*
X2984050Y1202130D01*
X2978197Y1203294D01*
X2801449D01*
X2796992Y1211013D01*
X2790013Y1217992D01*
X2781467Y1222926D01*
X2771934Y1225480D01*
X2762066D01*
X2752533Y1222926D01*
X2743987Y1217992D01*
X2737008Y1211013D01*
X2732074Y1202467D01*
X2729520Y1192934D01*
Y1183066D01*
X2732074Y1173533D01*
X2737008Y1164987D01*
X2743987Y1158008D01*
X2752533Y1153074D01*
X2762066Y1150520D01*
X2771934D01*
X2781467Y1153074D01*
X2790013Y1158008D01*
X2796992Y1164987D01*
X2801449Y1172706D01*
X2971862D01*
X3054706Y1089862D01*
Y970858D01*
X3055870Y965005D01*
X3059186Y960043D01*
X3092217Y927012D01*
X3097178Y923697D01*
X3103031Y922533D01*
X3149293D01*
X3149626Y920860D01*
X3151710Y917741D01*
X3154829Y915657D01*
X3156245Y915376D01*
Y910278D01*
X3154829Y909996D01*
X3151710Y907912D01*
X3149626Y904793D01*
X3149293Y903121D01*
X3081508D01*
X2881814Y1102814D01*
X2876853Y1106130D01*
X2871000Y1107294D01*
X2141335D01*
X2084168Y1164461D01*
Y1417145D01*
X2117334Y1450311D01*
X2117614Y1450149D01*
X2127897Y1447394D01*
X2138544D01*
X2148827Y1450149D01*
X2158047Y1455472D01*
X2164619Y1462045D01*
X2169619Y1460694D01*
Y1436134D01*
X2170784Y1430281D01*
X2174099Y1425320D01*
X2195705Y1403714D01*
X2195543Y1403433D01*
X2192787Y1393150D01*
Y1382504D01*
X2195543Y1372220D01*
X2200866Y1363000D01*
X2208394Y1355472D01*
X2217614Y1350149D01*
X2227897Y1347394D01*
X2238544D01*
X2248827Y1350149D01*
X2258047Y1355472D01*
X2265575Y1363000D01*
X2270898Y1372220D01*
X2273653Y1382504D01*
Y1393150D01*
X2270898Y1403433D01*
X2265575Y1412653D01*
X2258047Y1420181D01*
X2248827Y1425504D01*
X2238544Y1428260D01*
X2227897D01*
X2217614Y1425504D01*
X2217334Y1425343D01*
X2200207Y1442469D01*
Y1456588D01*
X2205207Y1458659D01*
X2208394Y1455472D01*
X2217614Y1450149D01*
X2227897Y1447394D01*
X2238544D01*
X2248827Y1450149D01*
X2258047Y1455472D01*
X2265575Y1463000D01*
X2270898Y1472220D01*
X2270982Y1472533D01*
X2492949D01*
X2498802Y1473697D01*
X2503764Y1477012D01*
X2577457Y1550706D01*
X2804096D01*
X2805758Y1549045D01*
X2813108Y1546000D01*
X2821065D01*
X2828416Y1549045D01*
X2834042Y1554671D01*
X2837087Y1562022D01*
Y1569978D01*
X2834042Y1577329D01*
X2828416Y1582955D01*
X2821065Y1586000D01*
X2813108D01*
X2805758Y1582955D01*
X2804096Y1581294D01*
X2571122D01*
X2565270Y1580130D01*
X2560308Y1576814D01*
X2486614Y1503121D01*
X2270982D01*
X2270898Y1503433D01*
X2265575Y1512653D01*
X2258047Y1520181D01*
X2248827Y1525504D01*
X2238544Y1528260D01*
X2227897D01*
X2217614Y1525504D01*
X2208394Y1520181D01*
X2205207Y1516995D01*
X2200207Y1519066D01*
Y1551579D01*
X2259335Y1610706D01*
X3220665D01*
X3317525Y1513846D01*
Y1491628D01*
X3315852Y1491295D01*
X3312733Y1489211D01*
X3310649Y1486092D01*
X3310368Y1484677D01*
X3305270D01*
X3304988Y1486092D01*
X3302904Y1489211D01*
X3299785Y1491295D01*
X3298113Y1491628D01*
Y1505181D01*
X3296949Y1511034D01*
X3293633Y1515995D01*
X3257814Y1551814D01*
X3252853Y1555130D01*
X3247000Y1556294D01*
X3025000D01*
X3019147Y1555130D01*
X3014186Y1551814D01*
X2965665Y1503294D01*
X2801449D01*
X2796992Y1511013D01*
X2790013Y1517992D01*
X2781467Y1522926D01*
X2771934Y1525480D01*
X2762066D01*
X2752533Y1522926D01*
X2743987Y1517992D01*
X2737008Y1511013D01*
X2732074Y1502467D01*
X2729520Y1492934D01*
Y1483066D01*
X2732074Y1473533D01*
X2737008Y1464987D01*
X2743987Y1458008D01*
X2752533Y1453074D01*
X2762066Y1450520D01*
X2771934D01*
X2781467Y1453074D01*
X2790013Y1458008D01*
X2796992Y1464987D01*
X2801449Y1472706D01*
X2972000D01*
X2977853Y1473870D01*
X2982814Y1477186D01*
X3031335Y1525706D01*
X3240665D01*
X3267525Y1498846D01*
Y1491628D01*
X3265852Y1491295D01*
X3262733Y1489211D01*
X3260649Y1486092D01*
X3260368Y1484677D01*
X3255270D01*
X3254988Y1486092D01*
X3252904Y1489211D01*
X3249785Y1491295D01*
X3246106Y1492027D01*
X3219532D01*
X3215852Y1491295D01*
X3212733Y1489211D01*
X3210649Y1486092D01*
X3209918Y1482413D01*
Y1472609D01*
X3094315D01*
X3088462Y1471445D01*
X3083501Y1468129D01*
X3018665Y1403294D01*
X2801449D01*
X2796992Y1411013D01*
X2790013Y1417992D01*
X2781467Y1422926D01*
X2771934Y1425480D01*
X2762066D01*
X2752533Y1422926D01*
X2743987Y1417992D01*
X2737008Y1411013D01*
X2732074Y1402467D01*
X2729520Y1392934D01*
Y1383066D01*
X2732074Y1373533D01*
X2737008Y1364987D01*
X2743987Y1358008D01*
X2752533Y1353074D01*
X2762066Y1350520D01*
X2771934D01*
X2781467Y1353074D01*
X2790013Y1358008D01*
X2796992Y1364987D01*
X2801449Y1372706D01*
X3025000D01*
X3030853Y1373870D01*
X3035814Y1377186D01*
X3100650Y1442021D01*
X3209918D01*
Y1432217D01*
X3210649Y1428538D01*
X3212733Y1425419D01*
X3215852Y1423335D01*
X3219532Y1422603D01*
X3246106D01*
X3249785Y1423335D01*
X3252904Y1425419D01*
X3254988Y1428538D01*
X3255270Y1429953D01*
X3260368D01*
X3260649Y1428538D01*
X3262733Y1425419D01*
X3265852Y1423335D01*
X3269532Y1422603D01*
X3296106D01*
X3299785Y1423335D01*
X3302904Y1425419D01*
X3304988Y1428538D01*
X3305270Y1429953D01*
X3310368D01*
X3310649Y1428538D01*
X3312733Y1425419D01*
X3315852Y1423335D01*
X3319532Y1422603D01*
X3346106D01*
X3349785Y1423335D01*
X3352904Y1425419D01*
X3354988Y1428538D01*
X3355270Y1429953D01*
X3360368D01*
X3360649Y1428538D01*
X3362733Y1425419D01*
X3365852Y1423335D01*
X3369532Y1422603D01*
X3396106D01*
X3399785Y1423335D01*
X3402904Y1425419D01*
X3404988Y1428538D01*
X3405270Y1429953D01*
X3410368D01*
X3410649Y1428538D01*
X3412733Y1425419D01*
X3415852Y1423335D01*
X3419532Y1422603D01*
X3446106D01*
X3449785Y1423335D01*
X3452904Y1425419D01*
X3454988Y1428538D01*
X3455270Y1429953D01*
X3460368D01*
X3460649Y1428538D01*
X3462733Y1425419D01*
X3465852Y1423335D01*
X3469532Y1422603D01*
X3496106D01*
X3499785Y1423335D01*
X3502904Y1425419D01*
X3504988Y1428538D01*
X3505270Y1429953D01*
X3510368D01*
X3510649Y1428538D01*
X3512733Y1425419D01*
X3515852Y1423335D01*
X3519532Y1422603D01*
X3546106D01*
X3549785Y1423335D01*
X3552904Y1425419D01*
X3554988Y1428538D01*
X3555270Y1429953D01*
X3560368D01*
X3560649Y1428538D01*
X3562733Y1425419D01*
X3565852Y1423335D01*
X3569532Y1422603D01*
X3596106D01*
X3599785Y1423335D01*
X3602904Y1425419D01*
X3604988Y1428538D01*
X3605270Y1429953D01*
X3610368D01*
X3610649Y1428538D01*
X3612733Y1425419D01*
X3615852Y1423335D01*
X3619532Y1422603D01*
X3646106D01*
X3649785Y1423335D01*
X3652904Y1425419D01*
X3654988Y1428538D01*
X3655270Y1429953D01*
X3660368D01*
X3660649Y1428538D01*
X3662733Y1425419D01*
X3665852Y1423335D01*
X3667525Y1423002D01*
Y1406134D01*
X3668689Y1400281D01*
X3672005Y1395319D01*
X3706139Y1361185D01*
Y1033990D01*
X3704478Y1032329D01*
X3701433Y1024978D01*
Y1017022D01*
X3704478Y1009671D01*
X3710104Y1004045D01*
X3717455Y1001000D01*
X3725411D01*
X3732762Y1004045D01*
X3738388Y1009671D01*
X3741433Y1017022D01*
Y1024978D01*
X3738388Y1032329D01*
X3736727Y1033990D01*
Y1367520D01*
X3735563Y1373372D01*
X3732247Y1378334D01*
X3698113Y1412469D01*
Y1423002D01*
X3699785Y1423335D01*
X3702904Y1425419D01*
X3704988Y1428538D01*
X3705270Y1429953D01*
X3710368D01*
X3710649Y1428538D01*
X3712733Y1425419D01*
X3715852Y1423335D01*
X3719532Y1422603D01*
X3746106D01*
X3749785Y1423335D01*
X3752904Y1425419D01*
X3754988Y1428538D01*
X3755270Y1429953D01*
X3760368D01*
X3760649Y1428538D01*
X3762733Y1425419D01*
X3765852Y1423335D01*
X3766143Y1423277D01*
Y943168D01*
X3764482Y941507D01*
X3761437Y934156D01*
Y926199D01*
X3764482Y918849D01*
X3770108Y913222D01*
X3777459Y910178D01*
X3785415D01*
X3792766Y913222D01*
X3798392Y918849D01*
X3801437Y926199D01*
Y934156D01*
X3798392Y941507D01*
X3796731Y943168D01*
Y1419297D01*
X3797064Y1419585D01*
X3799202Y1420739D01*
X3801731Y1421402D01*
X3802396Y1420958D01*
X3803553Y1420008D01*
X3804037Y1419861D01*
X3804458Y1419580D01*
X3805927Y1419288D01*
X3807360Y1418853D01*
X3807864Y1418903D01*
X3808360Y1418804D01*
X3853000D01*
X3856902Y1419580D01*
X3860210Y1421790D01*
X3862420Y1425098D01*
X3863196Y1429000D01*
Y1566000D01*
X3862420Y1569902D01*
X3860210Y1573210D01*
X3856902Y1575420D01*
X3853000Y1576196D01*
X3830204D01*
Y1910000D01*
X3829428Y1913902D01*
X3827217Y1917210D01*
X3823910Y1919420D01*
X3820008Y1920196D01*
X3730008D01*
X3726106Y1919420D01*
X3722798Y1917210D01*
X3720588Y1913902D01*
X3719812Y1910000D01*
Y1611146D01*
X3714812Y1608473D01*
X3712333Y1610130D01*
X3706480Y1611294D01*
X3705535D01*
Y1626591D01*
X3698113D01*
Y1641228D01*
X3705535D01*
Y1702409D01*
X3698113D01*
Y1966706D01*
X3823811D01*
Y1957315D01*
X3908614D01*
Y2006685D01*
X3823811D01*
Y1997294D01*
X3550346D01*
Y2006685D01*
X3465543D01*
Y1957315D01*
X3550346D01*
Y1966706D01*
X3667525D01*
Y1702409D01*
X3660102D01*
Y1641228D01*
X3667525D01*
Y1626591D01*
X3660102D01*
Y1565409D01*
X3697525D01*
Y1556000D01*
X3698689Y1550147D01*
X3702005Y1545186D01*
X3702390Y1544801D01*
X3700689Y1539430D01*
X3695151Y1537136D01*
X3689525Y1531510D01*
X3686480Y1524159D01*
Y1516203D01*
X3689525Y1508852D01*
X3695151Y1503226D01*
X3702502Y1500181D01*
X3710459D01*
X3713620Y1501491D01*
X3717525Y1498341D01*
Y1491628D01*
X3715852Y1491295D01*
X3712733Y1489211D01*
X3710649Y1486092D01*
X3710368Y1484677D01*
X3705270D01*
X3704988Y1486092D01*
X3702904Y1489211D01*
X3699785Y1491295D01*
X3696106Y1492027D01*
X3669532D01*
X3665852Y1491295D01*
X3662733Y1489211D01*
X3660649Y1486092D01*
X3660368Y1484677D01*
X3655270D01*
X3654988Y1486092D01*
X3652904Y1489211D01*
X3649785Y1491295D01*
X3646864Y1491877D01*
Y1503542D01*
X3645795Y1508916D01*
X3642750Y1513473D01*
X3578506Y1577716D01*
Y1673680D01*
X3577437Y1679055D01*
X3574393Y1683611D01*
X3432045Y1825959D01*
Y2650659D01*
X3430976Y2656034D01*
X3427931Y2660590D01*
X3133970Y2954551D01*
Y2964308D01*
X3135425Y2968705D01*
X3180858D01*
Y3029886D01*
X3173436D01*
Y3047563D01*
X3180858D01*
Y3108744D01*
X3135425D01*
Y3097471D01*
X3130425Y3095452D01*
X3123903Y3098154D01*
X3119878D01*
X3118860Y3103154D01*
X3123102Y3105988D01*
X3128583Y3111469D01*
X3129490D01*
X3136841Y3114514D01*
X3142467Y3120140D01*
X3145512Y3127491D01*
Y3135447D01*
X3144204Y3138604D01*
X3146982Y3142761D01*
X3289512D01*
X3293414Y3143537D01*
X3296721Y3145747D01*
X3298932Y3149055D01*
X3299708Y3152957D01*
Y3249256D01*
X3298932Y3253158D01*
X3296721Y3256466D01*
X3293414Y3258676D01*
X3289512Y3259452D01*
X3036176D01*
Y3300213D01*
X3038122Y3302159D01*
X3056669D01*
Y3300642D01*
X3086354D01*
Y3315184D01*
X3086806Y3317453D01*
X3086354Y3319722D01*
Y3334264D01*
X3056669D01*
Y3332747D01*
X3031787D01*
X3025935Y3331583D01*
X3020973Y3328267D01*
X3013825Y3321120D01*
X3008825Y3323191D01*
Y3411711D01*
X3169622Y3572508D01*
X3173158Y3577801D01*
X3174400Y3584044D01*
Y3740436D01*
X3175213Y3740654D01*
X3185331Y3746495D01*
X3193591Y3754756D01*
X3199433Y3764874D01*
X3202457Y3776159D01*
Y3787841D01*
X3199433Y3799126D01*
X3193591Y3809244D01*
X3185331Y3817505D01*
X3175213Y3823346D01*
X3163928Y3826370D01*
X3152245D01*
X3140960Y3823346D01*
X3130843Y3817505D01*
X3122582Y3809244D01*
X3116740Y3799126D01*
X3113716Y3787841D01*
Y3776159D01*
X3116740Y3764874D01*
X3122582Y3754756D01*
X3130843Y3746495D01*
X3140960Y3740654D01*
X3141773Y3740436D01*
Y3590801D01*
X2982012Y3431040D01*
X2874400Y3538651D01*
Y3740436D01*
X2875213Y3740654D01*
X2885331Y3746495D01*
X2893591Y3754756D01*
X2899433Y3764874D01*
X2902457Y3776159D01*
Y3787841D01*
X2899433Y3799126D01*
X2893591Y3809244D01*
X2885331Y3817505D01*
X2875213Y3823346D01*
X2863928Y3826370D01*
X2852245D01*
X2840960Y3823346D01*
X2830843Y3817505D01*
X2822582Y3809244D01*
X2816740Y3799126D01*
X2813716Y3787841D01*
Y3776159D01*
X2816740Y3764874D01*
X2822582Y3754756D01*
X2830843Y3746495D01*
X2840960Y3740654D01*
X2841773Y3740436D01*
Y3531894D01*
X2843015Y3525651D01*
X2846551Y3520359D01*
X2955198Y3411711D01*
Y3324797D01*
X2950198Y3322726D01*
X2940641Y3332283D01*
X2935679Y3335599D01*
X2929827Y3336763D01*
X2929354D01*
Y3338280D01*
X2899669D01*
Y3323738D01*
X2899218Y3321469D01*
X2899669Y3319200D01*
Y3304658D01*
X2925009D01*
X2926848Y3302819D01*
Y3285273D01*
X2896102D01*
X2892200Y3284497D01*
X2888893Y3282287D01*
X2886682Y3278979D01*
X2885906Y3275077D01*
Y3259452D01*
X2845117D01*
Y3275077D01*
X2844341Y3278979D01*
X2842131Y3282287D01*
X2838823Y3284497D01*
X2834921Y3285273D01*
X2582512D01*
X2578610Y3284497D01*
X2575302Y3282287D01*
X2573092Y3278979D01*
X2572316Y3275077D01*
Y3197469D01*
X2573092Y3193567D01*
X2575302Y3190259D01*
X2578610Y3188049D01*
X2582512Y3187273D01*
X2825316D01*
Y3156482D01*
X2820316Y3153470D01*
X2815490Y3155469D01*
X2807534D01*
X2800183Y3152424D01*
X2794557Y3146798D01*
X2791512Y3139447D01*
Y3131491D01*
X2794557Y3124140D01*
X2800183Y3118514D01*
X2807534Y3115469D01*
X2808441D01*
X2814755Y3109155D01*
X2813987Y3105295D01*
X2808361Y3099669D01*
X2805316Y3092318D01*
Y3084362D01*
X2807511Y3079063D01*
X2805101Y3074764D01*
X2800487Y3074324D01*
X2782079Y3092732D01*
X2780732Y3093632D01*
Y3117351D01*
X2719551D01*
Y3071918D01*
X2751229D01*
X2752044Y3071103D01*
X2757006Y3067788D01*
X2762858Y3066624D01*
X2764930D01*
X2775994Y3055560D01*
X2775504Y3050584D01*
X2774028Y3049598D01*
X2759103Y3034673D01*
X2719551D01*
Y2989240D01*
X2780732D01*
Y3013045D01*
X2791177Y3023490D01*
X2829875D01*
X2831788Y3018870D01*
X2778508Y2965590D01*
X2772858D01*
Y2980886D01*
X2727425D01*
Y2919705D01*
X2772858D01*
Y2935002D01*
X2784842D01*
X2790695Y2936166D01*
X2795657Y2939481D01*
X2854766Y2998591D01*
X2859386Y2996677D01*
Y2988508D01*
X2911551D01*
Y2974659D01*
X2908327Y2969833D01*
X2907163Y2963981D01*
Y2906064D01*
X2818642Y2817543D01*
X2815327Y2812581D01*
X2814163Y2806729D01*
Y2797351D01*
X2798866D01*
Y2751918D01*
X2860047D01*
Y2797351D01*
X2848779D01*
X2846707Y2802351D01*
X2922228Y2877872D01*
X2926848Y2875958D01*
Y2867631D01*
X2887957Y2828740D01*
X2884642Y2823778D01*
X2883478Y2817925D01*
Y2797351D01*
X2868181D01*
Y2751918D01*
X2883478D01*
Y2746286D01*
X2881816Y2744625D01*
X2878772Y2737274D01*
Y2729317D01*
X2881816Y2721966D01*
X2887443Y2716340D01*
X2894793Y2713296D01*
X2902750D01*
X2910101Y2716340D01*
X2915727Y2721966D01*
X2918772Y2729317D01*
Y2737274D01*
X2915727Y2744625D01*
X2914066Y2746286D01*
Y2751918D01*
X2929362D01*
Y2797351D01*
X2914066D01*
Y2811591D01*
X2949478Y2847003D01*
X2954478Y2844932D01*
Y2797351D01*
X2939181D01*
Y2751918D01*
X2954478D01*
Y2746286D01*
X2952816Y2744625D01*
X2949772Y2737274D01*
Y2729317D01*
X2952816Y2721966D01*
X2958443Y2716340D01*
X2965793Y2713296D01*
X2973750D01*
X2981101Y2716340D01*
X2986727Y2721966D01*
X2989772Y2729317D01*
Y2737274D01*
X2986727Y2744625D01*
X2985066Y2746286D01*
Y2751918D01*
X3000362D01*
Y2797351D01*
X2985066D01*
Y2863327D01*
X2983987Y2868751D01*
X2984212Y2869038D01*
X2989640Y2870169D01*
X3024848Y2834961D01*
Y2797351D01*
X3009551D01*
Y2751918D01*
X3024848D01*
Y2746286D01*
X3023186Y2744625D01*
X3020142Y2737274D01*
Y2729317D01*
X3023186Y2721966D01*
X3028813Y2716340D01*
X3036164Y2713296D01*
X3044120D01*
X3051471Y2716340D01*
X3057097Y2721966D01*
X3060142Y2729317D01*
Y2737274D01*
X3057097Y2744625D01*
X3055436Y2746286D01*
Y2751918D01*
X3070732D01*
Y2797351D01*
X3055436D01*
Y2841296D01*
X3054271Y2847148D01*
X3050956Y2852110D01*
X3027610Y2875456D01*
X3028784Y2881354D01*
X3032211Y2882773D01*
X3037837Y2888400D01*
X3038488Y2889970D01*
X3043392Y2890945D01*
X3094218Y2840119D01*
Y2797351D01*
X3078921D01*
Y2751918D01*
X3140102D01*
Y2797351D01*
X3124806D01*
Y2839881D01*
X3129806Y2841952D01*
X3158918Y2812840D01*
Y2810491D01*
X3161963Y2803140D01*
X3162752Y2802351D01*
X3161518Y2797351D01*
X3147921D01*
Y2751918D01*
X3209102D01*
Y2797351D01*
X3196318D01*
X3195084Y2802351D01*
X3195873Y2803140D01*
X3198918Y2810491D01*
Y2818447D01*
X3195873Y2825798D01*
X3190247Y2831424D01*
X3182896Y2834469D01*
X3180547D01*
X3057858Y2957157D01*
X3055861Y2958492D01*
Y2963981D01*
X3054697Y2969833D01*
X3051472Y2974659D01*
Y2988508D01*
X3065322D01*
X3069456Y2985746D01*
X3066512Y2978637D01*
Y2970680D01*
X3069557Y2963330D01*
X3075183Y2957704D01*
X3082534Y2954659D01*
X3090490D01*
X3097841Y2957704D01*
X3100880Y2960743D01*
X3105880Y2958672D01*
Y2948734D01*
X3106949Y2943359D01*
X3109994Y2938803D01*
X3403955Y2644841D01*
Y1820142D01*
X3405024Y1814767D01*
X3408069Y1810210D01*
X3550416Y1667863D01*
Y1612342D01*
X3549462Y1611579D01*
X3542753Y1612619D01*
X3542750Y1612624D01*
X3074443Y2080931D01*
X3069887Y2083976D01*
X3064512Y2085045D01*
X2537818D01*
X2362525Y2260337D01*
Y2803599D01*
X2361456Y2808974D01*
X2358412Y2813530D01*
X2214557Y2957385D01*
Y2970388D01*
X2219425Y2970705D01*
Y2970705D01*
X2264858D01*
Y3031886D01*
X2257436D01*
Y3049563D01*
X2264858D01*
Y3110744D01*
X2219425D01*
Y3096596D01*
X2214425Y3094525D01*
X2211841Y3097109D01*
X2204490Y3100154D01*
X2203878D01*
X2202860Y3105154D01*
X2207102Y3107988D01*
X2212583Y3113469D01*
X2213490D01*
X2220841Y3116514D01*
X2226467Y3122140D01*
X2229512Y3129491D01*
Y3137447D01*
X2229033Y3138604D01*
X2231811Y3142761D01*
X2380000D01*
X2383902Y3143537D01*
X2387210Y3145747D01*
X2389420Y3149055D01*
X2390196Y3152957D01*
Y3249256D01*
X2389420Y3253158D01*
X2387210Y3256466D01*
X2383902Y3258676D01*
X2380000Y3259452D01*
X2122000D01*
X2120176Y3260949D01*
Y3302213D01*
X2122122Y3304159D01*
X2140669D01*
Y3302642D01*
X2170354D01*
Y3317184D01*
X2170806Y3319453D01*
X2170354Y3321722D01*
Y3336264D01*
X2140669D01*
Y3334747D01*
X2115787D01*
X2109935Y3333583D01*
X2104973Y3330267D01*
X2097825Y3323120D01*
X2092825Y3325191D01*
Y3412755D01*
X2239535Y3559465D01*
X2243072Y3564757D01*
X2244314Y3571000D01*
Y3742436D01*
X2245126Y3742654D01*
X2255244Y3748495D01*
X2263505Y3756756D01*
X2269346Y3766874D01*
X2272370Y3778159D01*
Y3789841D01*
X2269346Y3801126D01*
X2263505Y3811244D01*
X2255244Y3819505D01*
X2245126Y3825346D01*
X2233841Y3828370D01*
X2222159D01*
X2210874Y3825346D01*
X2200756Y3819505D01*
X2192495Y3811244D01*
X2186654Y3801126D01*
X2183630Y3789841D01*
Y3778159D01*
X2186654Y3766874D01*
X2192495Y3756756D01*
X2200756Y3748495D01*
X2210874Y3742654D01*
X2211686Y3742436D01*
Y3577757D01*
X2066490Y3432561D01*
X1944313Y3554738D01*
Y3742436D01*
X1945126Y3742654D01*
X1955244Y3748495D01*
X1963505Y3756756D01*
X1969346Y3766874D01*
X1972370Y3778159D01*
Y3789841D01*
X1969346Y3801126D01*
X1963505Y3811244D01*
X1955244Y3819505D01*
X1945126Y3825346D01*
X1933841Y3828370D01*
X1922159D01*
X1910874Y3825346D01*
X1900756Y3819505D01*
X1892495Y3811244D01*
X1886654Y3801126D01*
X1883630Y3789841D01*
Y3778159D01*
X1886654Y3766874D01*
X1892495Y3756756D01*
X1900756Y3748495D01*
X1910874Y3742654D01*
X1911687Y3742436D01*
Y3547981D01*
X1912928Y3541738D01*
X1916465Y3536445D01*
X2039198Y3413711D01*
Y3326797D01*
X2034198Y3324726D01*
X2024641Y3334283D01*
X2019679Y3337599D01*
X2013827Y3338763D01*
X2013354D01*
Y3340280D01*
X1983669D01*
Y3325738D01*
X1983218Y3323469D01*
X1983669Y3321200D01*
Y3306658D01*
X2009009D01*
X2010848Y3304819D01*
Y3285273D01*
X1980102D01*
X1976200Y3284497D01*
X1972893Y3282287D01*
X1970682Y3278979D01*
X1969906Y3275077D01*
Y3261452D01*
X1929117D01*
Y3275077D01*
X1928341Y3278979D01*
X1926131Y3282287D01*
X1922823Y3284497D01*
X1918921Y3285273D01*
X1673000D01*
X1669098Y3284497D01*
X1665790Y3282287D01*
X1663580Y3278979D01*
X1662804Y3275077D01*
Y3197469D01*
X1663580Y3193567D01*
X1665790Y3190259D01*
X1669098Y3188049D01*
X1673000Y3187273D01*
X1915804D01*
Y3152532D01*
X1910804Y3150461D01*
X1906841Y3154424D01*
X1899490Y3157469D01*
X1891534D01*
X1884183Y3154424D01*
X1878557Y3148798D01*
X1875512Y3141447D01*
Y3133491D01*
X1878557Y3126140D01*
X1884183Y3120514D01*
X1891534Y3117469D01*
X1892441D01*
X1898755Y3111155D01*
X1897987Y3107295D01*
X1892361Y3101669D01*
X1889316Y3094318D01*
Y3086362D01*
X1891511Y3081063D01*
X1889101Y3076764D01*
X1884487Y3076324D01*
X1866079Y3094732D01*
X1864732Y3095632D01*
Y3119351D01*
X1803551D01*
Y3073918D01*
X1835229D01*
X1836044Y3073103D01*
X1841006Y3069788D01*
X1846858Y3068624D01*
X1848930D01*
X1859994Y3057560D01*
X1859504Y3052584D01*
X1858028Y3051598D01*
X1843103Y3036673D01*
X1803551D01*
Y2991240D01*
X1864732D01*
Y3015045D01*
X1875177Y3025490D01*
X1913875D01*
X1915788Y3020870D01*
X1862507Y2967590D01*
X1856858D01*
Y2982886D01*
X1811425D01*
Y2921705D01*
X1856858D01*
Y2937002D01*
X1868842D01*
X1874695Y2938166D01*
X1879657Y2941481D01*
X1938766Y3000591D01*
X1943386Y2998677D01*
Y2990508D01*
X1995551D01*
Y2976659D01*
X1992327Y2971833D01*
X1991163Y2965981D01*
Y2908064D01*
X1902642Y2819543D01*
X1899327Y2814581D01*
X1898163Y2808729D01*
Y2799351D01*
X1882866D01*
Y2753918D01*
X1944047D01*
Y2799351D01*
X1932779D01*
X1930707Y2804351D01*
X2006228Y2879872D01*
X2010848Y2877958D01*
Y2869631D01*
X1971957Y2830740D01*
X1968642Y2825778D01*
X1967478Y2819925D01*
Y2799351D01*
X1952181D01*
Y2753918D01*
X1967478D01*
Y2748286D01*
X1965816Y2746625D01*
X1962772Y2739274D01*
Y2731317D01*
X1965816Y2723966D01*
X1971443Y2718340D01*
X1978793Y2715296D01*
X1986750D01*
X1994101Y2718340D01*
X1999727Y2723966D01*
X2002772Y2731317D01*
Y2739274D01*
X1999727Y2746625D01*
X1998065Y2748286D01*
Y2753918D01*
X2013362D01*
Y2799351D01*
X1998065D01*
Y2813591D01*
X2033478Y2849003D01*
X2038478Y2846932D01*
Y2799351D01*
X2023181D01*
Y2753918D01*
X2038478D01*
Y2748286D01*
X2036816Y2746625D01*
X2033772Y2739274D01*
Y2731317D01*
X2036816Y2723966D01*
X2042443Y2718340D01*
X2049793Y2715296D01*
X2057750D01*
X2065101Y2718340D01*
X2070727Y2723966D01*
X2073772Y2731317D01*
Y2739274D01*
X2070727Y2746625D01*
X2069066Y2748286D01*
Y2753918D01*
X2084362D01*
Y2799351D01*
X2069066D01*
Y2865327D01*
X2067987Y2870751D01*
X2068212Y2871038D01*
X2073640Y2872169D01*
X2108848Y2836961D01*
Y2799351D01*
X2093551D01*
Y2753918D01*
X2108848D01*
Y2748286D01*
X2107186Y2746625D01*
X2104142Y2739274D01*
Y2731317D01*
X2107186Y2723966D01*
X2112813Y2718340D01*
X2120164Y2715296D01*
X2128120D01*
X2135471Y2718340D01*
X2141097Y2723966D01*
X2144142Y2731317D01*
Y2739274D01*
X2141097Y2746625D01*
X2139436Y2748286D01*
Y2753918D01*
X2154732D01*
Y2799351D01*
X2139436D01*
Y2843296D01*
X2138271Y2849148D01*
X2134956Y2854110D01*
X2111610Y2877456D01*
X2112784Y2883354D01*
X2116211Y2884773D01*
X2121837Y2890400D01*
X2122488Y2891970D01*
X2127392Y2892945D01*
X2178218Y2842119D01*
Y2799351D01*
X2162921D01*
Y2753918D01*
X2224102D01*
Y2799351D01*
X2208806D01*
Y2841881D01*
X2213806Y2843952D01*
X2242918Y2814840D01*
Y2812491D01*
X2245963Y2805140D01*
X2246752Y2804351D01*
X2245518Y2799351D01*
X2231921D01*
Y2753918D01*
X2293102D01*
Y2799351D01*
X2280318D01*
X2279084Y2804351D01*
X2279873Y2805140D01*
X2282918Y2812491D01*
Y2820447D01*
X2279873Y2827798D01*
X2274247Y2833424D01*
X2266896Y2836469D01*
X2264547D01*
X2141858Y2959157D01*
X2139861Y2960492D01*
Y2965981D01*
X2138697Y2971833D01*
X2135472Y2976659D01*
Y2990508D01*
X2149322D01*
X2153456Y2987746D01*
X2150512Y2980637D01*
Y2972680D01*
X2153557Y2965330D01*
X2159183Y2959704D01*
X2166534Y2956659D01*
X2174490D01*
X2181841Y2959704D01*
X2181847Y2959710D01*
X2186467Y2957797D01*
Y2951567D01*
X2187536Y2946193D01*
X2190581Y2941636D01*
X2334435Y2797781D01*
Y2254520D01*
X2335505Y2249145D01*
X2338549Y2244588D01*
X2522069Y2061069D01*
X2526625Y2058024D01*
X2532000Y2056955D01*
X3058694D01*
X3518774Y1596875D01*
Y1491877D01*
X3515852Y1491295D01*
X3512733Y1489211D01*
X3510649Y1486092D01*
X3510368Y1484677D01*
X3505270D01*
X3504988Y1486092D01*
X3502904Y1489211D01*
X3499785Y1491295D01*
X3498439Y1491563D01*
Y1578425D01*
X3497369Y1583800D01*
X3494325Y1588357D01*
X3094000Y1988681D01*
Y1995978D01*
X3090955Y2003329D01*
X3085329Y2008955D01*
X3077978Y2012000D01*
X3070022D01*
X3062671Y2008955D01*
X3057045Y2003329D01*
X3054000Y1995978D01*
Y1988022D01*
X3057045Y1980671D01*
X3062671Y1975045D01*
X3070022Y1972000D01*
X3070956D01*
X3470349Y1572608D01*
Y1492027D01*
X3469532D01*
X3465852Y1491295D01*
X3462733Y1489211D01*
X3460649Y1486092D01*
X3460368Y1484677D01*
X3455270D01*
X3454988Y1486092D01*
X3452904Y1489211D01*
X3449785Y1491295D01*
X3446864Y1491877D01*
Y1559842D01*
X3445795Y1565217D01*
X3442750Y1569774D01*
X3045593Y1966931D01*
X3041036Y1969976D01*
X3035661Y1971045D01*
X1743818D01*
X1461013Y2253849D01*
Y2792486D01*
X1459944Y2797860D01*
X1456900Y2802417D01*
X1312576Y2946740D01*
Y3015487D01*
X1311916Y3018806D01*
X1315401Y3022794D01*
X1315794Y3022989D01*
X1317913Y3022458D01*
Y2971174D01*
X1363346D01*
Y3032355D01*
X1355924D01*
Y3050032D01*
X1363346D01*
Y3111213D01*
X1317913D01*
Y3096596D01*
X1312913Y3094525D01*
X1309860Y3097578D01*
X1302509Y3100622D01*
X1302366D01*
X1301348Y3105622D01*
X1305591Y3108457D01*
X1311071Y3113938D01*
X1311978D01*
X1319329Y3116982D01*
X1324955Y3122608D01*
X1328000Y3129959D01*
Y3137916D01*
X1327715Y3138604D01*
X1330493Y3142761D01*
X1479512D01*
X1483414Y3143537D01*
X1486721Y3145747D01*
X1488932Y3149055D01*
X1489708Y3152957D01*
Y3249256D01*
X1488932Y3253158D01*
X1486721Y3256466D01*
X1483414Y3258676D01*
X1479512Y3259452D01*
X1221512D01*
X1218664Y3261789D01*
Y3302682D01*
X1220611Y3304628D01*
X1239158D01*
Y3303111D01*
X1268842D01*
Y3317653D01*
X1269294Y3319922D01*
X1268842Y3322191D01*
Y3336733D01*
X1239158D01*
Y3335216D01*
X1214276D01*
X1208423Y3334052D01*
X1203461Y3330736D01*
X1196313Y3323589D01*
X1191313Y3325660D01*
Y3414180D01*
X1347669Y3570536D01*
X1351205Y3575828D01*
X1352447Y3582071D01*
Y3742905D01*
X1353260Y3743122D01*
X1363378Y3748964D01*
X1371639Y3757225D01*
X1377480Y3767343D01*
X1380504Y3778627D01*
Y3790310D01*
X1377480Y3801595D01*
X1371639Y3811713D01*
X1363378Y3819974D01*
X1353260Y3825815D01*
X1341975Y3828839D01*
D02*
G37*
G36*
X894591Y3119820D02*
X833409D01*
Y3110733D01*
X831684Y3109484D01*
X828409Y3108136D01*
X821956Y3110809D01*
X814000D01*
X806649Y3107764D01*
X801023Y3102138D01*
X797978Y3094787D01*
Y3086831D01*
X801023Y3079480D01*
X806649Y3073854D01*
X814000Y3070809D01*
X821956D01*
X828729Y3073614D01*
X833409Y3074386D01*
X833410Y3074386D01*
X833410Y3074387D01*
X894591D01*
Y3119820D01*
D02*
G37*
G36*
X1796102Y3119351D02*
X1734921D01*
Y3110264D01*
X1733196Y3109016D01*
X1729921Y3107667D01*
X1723468Y3110340D01*
X1715512D01*
X1708161Y3107295D01*
X1702535Y3101669D01*
X1699490Y3094318D01*
Y3086362D01*
X1702535Y3079011D01*
X1708161Y3073385D01*
X1715512Y3070340D01*
X1723468D01*
X1730241Y3073146D01*
X1734921Y3073918D01*
X1734921Y3073918D01*
X1734921Y3073918D01*
X1796102D01*
Y3119351D01*
D02*
G37*
G36*
X2712102Y3117351D02*
X2650921D01*
Y3108264D01*
X2649196Y3107016D01*
X2645921Y3105667D01*
X2639468Y3108340D01*
X2631512D01*
X2624161Y3105295D01*
X2618535Y3099669D01*
X2615490Y3092318D01*
Y3084362D01*
X2618535Y3077011D01*
X2624161Y3071385D01*
X2631512Y3068340D01*
X2639468D01*
X2646241Y3071146D01*
X2650921Y3071918D01*
X2650921Y3071918D01*
X2650921Y3071918D01*
X2712102D01*
Y3117351D01*
D02*
G37*
G36*
X872669Y2983355D02*
X827236D01*
Y2974342D01*
X822236Y2971001D01*
X817978Y2972764D01*
X810022D01*
X802671Y2969720D01*
X797045Y2964093D01*
X794000Y2956743D01*
Y2948786D01*
X797045Y2941435D01*
X802671Y2935809D01*
X810022Y2932764D01*
X817978D01*
X822236Y2934528D01*
X827236Y2931187D01*
Y2922174D01*
X872669D01*
Y2983355D01*
D02*
G37*
G36*
X1774181Y2982886D02*
X1728748D01*
Y2973873D01*
X1723748Y2970532D01*
X1719490Y2972296D01*
X1711534D01*
X1704183Y2969251D01*
X1698557Y2963625D01*
X1695512Y2956274D01*
Y2948317D01*
X1698557Y2940966D01*
X1704183Y2935340D01*
X1711534Y2932296D01*
X1719490D01*
X1723748Y2934059D01*
X1728748Y2930718D01*
Y2921705D01*
X1774181D01*
Y2982886D01*
D02*
G37*
G36*
X2690181Y2980886D02*
X2644748D01*
Y2971873D01*
X2639748Y2968532D01*
X2635490Y2970296D01*
X2627534D01*
X2620183Y2967251D01*
X2614557Y2961625D01*
X2611512Y2954274D01*
Y2946317D01*
X2614557Y2938966D01*
X2620183Y2933340D01*
X2627534Y2930296D01*
X2635490D01*
X2639748Y2932059D01*
X2644748Y2928718D01*
Y2919705D01*
X2690181D01*
Y2980886D01*
D02*
G37*
G36*
X1446024Y3032355D02*
X1400591D01*
Y2971174D01*
X1401390D01*
X1404168Y2967017D01*
X1403307Y2964939D01*
Y2956983D01*
X1406352Y2949632D01*
X1411978Y2944006D01*
X1419329Y2940961D01*
X1427285D01*
X1434636Y2944006D01*
X1440262Y2949632D01*
X1443307Y2956983D01*
Y2964939D01*
X1442447Y2967017D01*
X1445224Y2971174D01*
X1446024D01*
Y3032355D01*
D02*
G37*
G36*
X2347535Y3031886D02*
X2302102D01*
Y2970705D01*
X2302902D01*
X2305680Y2966548D01*
X2304819Y2964470D01*
Y2956514D01*
X2307864Y2949163D01*
X2313490Y2943537D01*
X2320841Y2940492D01*
X2328797D01*
X2336148Y2943537D01*
X2341774Y2949163D01*
X2344819Y2956514D01*
Y2964470D01*
X2343958Y2966548D01*
X2346736Y2970705D01*
X2347535D01*
Y3031886D01*
D02*
G37*
G36*
X3263535Y3029886D02*
X3218102D01*
Y2968705D01*
X3218902D01*
X3221680Y2964548D01*
X3220819Y2962470D01*
Y2954514D01*
X3223864Y2947163D01*
X3229490Y2941537D01*
X3236841Y2938492D01*
X3244797D01*
X3252148Y2941537D01*
X3257774Y2947163D01*
X3260819Y2954514D01*
Y2962470D01*
X3259958Y2964548D01*
X3262736Y2968705D01*
X3263535D01*
Y3029886D01*
D02*
G37*
G36*
X613528Y3315614D02*
X516913D01*
Y3132386D01*
X550927D01*
Y2903988D01*
X535630D01*
Y2858555D01*
X596811D01*
Y2903988D01*
X581514D01*
Y3132386D01*
X613528D01*
Y3315614D01*
D02*
G37*
G36*
X687811Y2822311D02*
X626630D01*
Y2814013D01*
X596811D01*
Y2821311D01*
X535630D01*
Y2775878D01*
X596811D01*
Y2783425D01*
X626630D01*
Y2776878D01*
X687811D01*
Y2822311D01*
D02*
G37*
G36*
X1391591Y2717142D02*
X1330409D01*
Y2671709D01*
X1391591D01*
Y2673530D01*
X1396591Y2676473D01*
X1401534Y2674426D01*
X1409490D01*
X1416841Y2677471D01*
X1422467Y2683097D01*
X1425512Y2690448D01*
Y2698404D01*
X1422467Y2705755D01*
X1416841Y2711381D01*
X1409490Y2714426D01*
X1401534D01*
X1396591Y2712378D01*
X1391591Y2715322D01*
Y2717142D01*
D02*
G37*
G36*
X2293102Y2716673D02*
X2231921D01*
Y2671240D01*
X2293102D01*
Y2673061D01*
X2298102Y2676004D01*
X2303045Y2673957D01*
X2311002D01*
X2318353Y2677002D01*
X2323979Y2682628D01*
X2327024Y2689979D01*
Y2697935D01*
X2323979Y2705286D01*
X2318353Y2710912D01*
X2311002Y2713957D01*
X2303045D01*
X2298102Y2711910D01*
X2293102Y2714853D01*
Y2716673D01*
D02*
G37*
G36*
X3209102Y2714673D02*
X3147921D01*
Y2669240D01*
X3209102D01*
Y2671061D01*
X3214102Y2674004D01*
X3219045Y2671957D01*
X3227002D01*
X3234353Y2675002D01*
X3239979Y2680628D01*
X3243024Y2687979D01*
Y2695935D01*
X3239979Y2703286D01*
X3234353Y2708912D01*
X3227002Y2711957D01*
X3219045D01*
X3214102Y2709910D01*
X3209102Y2712853D01*
Y2714673D01*
D02*
G37*
G36*
X1255805Y2645434D02*
X1246195D01*
X1236913Y2642946D01*
X1228591Y2638142D01*
X1221796Y2631347D01*
X1216991Y2623024D01*
X1214504Y2613742D01*
Y2604133D01*
X1216991Y2594851D01*
X1221796Y2586528D01*
X1228591Y2579733D01*
X1236913Y2574929D01*
X1246195Y2572442D01*
X1255805D01*
X1265087Y2574929D01*
X1273409Y2579733D01*
X1280204Y2586528D01*
X1285009Y2594851D01*
X1287496Y2604133D01*
Y2613742D01*
X1285009Y2623024D01*
X1280204Y2631347D01*
X1273409Y2638142D01*
X1265087Y2642946D01*
X1255805Y2645434D01*
D02*
G37*
G36*
X1155805D02*
X1146195D01*
X1136913Y2642946D01*
X1128591Y2638142D01*
X1121796Y2631347D01*
X1116991Y2623024D01*
X1114504Y2613742D01*
Y2604133D01*
X1116991Y2594851D01*
X1121796Y2586528D01*
X1128591Y2579733D01*
X1136913Y2574929D01*
X1146195Y2572442D01*
X1155805D01*
X1165087Y2574929D01*
X1173409Y2579733D01*
X1180204Y2586528D01*
X1185009Y2594851D01*
X1187496Y2604133D01*
Y2613742D01*
X1185009Y2623024D01*
X1180204Y2631347D01*
X1173409Y2638142D01*
X1165087Y2642946D01*
X1155805Y2645434D01*
D02*
G37*
G36*
X1055805D02*
X1046195D01*
X1036913Y2642946D01*
X1028591Y2638142D01*
X1021796Y2631347D01*
X1016991Y2623024D01*
X1014504Y2613742D01*
Y2604133D01*
X1016991Y2594851D01*
X1021796Y2586528D01*
X1028591Y2579733D01*
X1036913Y2574929D01*
X1046195Y2572442D01*
X1055805D01*
X1065087Y2574929D01*
X1073409Y2579733D01*
X1080204Y2586528D01*
X1085009Y2594851D01*
X1087496Y2604133D01*
Y2613742D01*
X1085009Y2623024D01*
X1080204Y2631347D01*
X1073409Y2638142D01*
X1065087Y2642946D01*
X1055805Y2645434D01*
D02*
G37*
G36*
X2157317Y2644965D02*
X2147707D01*
X2138425Y2642478D01*
X2130103Y2637673D01*
X2123308Y2630878D01*
X2118503Y2622556D01*
X2116016Y2613274D01*
Y2603664D01*
X2118503Y2594382D01*
X2123308Y2586060D01*
X2130103Y2579265D01*
X2138425Y2574460D01*
X2147707Y2571973D01*
X2157317D01*
X2166599Y2574460D01*
X2174921Y2579265D01*
X2181716Y2586060D01*
X2186521Y2594382D01*
X2189008Y2603664D01*
Y2613274D01*
X2186521Y2622556D01*
X2181716Y2630878D01*
X2174921Y2637673D01*
X2166599Y2642478D01*
X2157317Y2644965D01*
D02*
G37*
G36*
X2057317D02*
X2047707D01*
X2038425Y2642478D01*
X2030103Y2637673D01*
X2023308Y2630878D01*
X2018503Y2622556D01*
X2016016Y2613274D01*
Y2603664D01*
X2018503Y2594382D01*
X2023308Y2586060D01*
X2030103Y2579265D01*
X2038425Y2574460D01*
X2047707Y2571973D01*
X2057317D01*
X2066599Y2574460D01*
X2074921Y2579265D01*
X2081716Y2586060D01*
X2086521Y2594382D01*
X2089008Y2603664D01*
Y2613274D01*
X2086521Y2622556D01*
X2081716Y2630878D01*
X2074921Y2637673D01*
X2066599Y2642478D01*
X2057317Y2644965D01*
D02*
G37*
G36*
X1957317D02*
X1947707D01*
X1938425Y2642478D01*
X1930103Y2637673D01*
X1923308Y2630878D01*
X1918503Y2622556D01*
X1916016Y2613274D01*
Y2603664D01*
X1918503Y2594382D01*
X1923308Y2586060D01*
X1930103Y2579265D01*
X1938425Y2574460D01*
X1947707Y2571973D01*
X1957317D01*
X1966599Y2574460D01*
X1974921Y2579265D01*
X1981716Y2586060D01*
X1986521Y2594382D01*
X1989008Y2603664D01*
Y2613274D01*
X1986521Y2622556D01*
X1981716Y2630878D01*
X1974921Y2637673D01*
X1966599Y2642478D01*
X1957317Y2644965D01*
D02*
G37*
G36*
X3073317Y2642965D02*
X3063707D01*
X3054425Y2640478D01*
X3046103Y2635673D01*
X3039308Y2628878D01*
X3034503Y2620556D01*
X3032016Y2611274D01*
Y2601664D01*
X3034503Y2592382D01*
X3039308Y2584060D01*
X3046103Y2577265D01*
X3054425Y2572460D01*
X3063707Y2569973D01*
X3073317D01*
X3082599Y2572460D01*
X3090921Y2577265D01*
X3097716Y2584060D01*
X3102521Y2592382D01*
X3105008Y2601664D01*
Y2611274D01*
X3102521Y2620556D01*
X3097716Y2628878D01*
X3090921Y2635673D01*
X3082599Y2640478D01*
X3073317Y2642965D01*
D02*
G37*
G36*
X2973317D02*
X2963707D01*
X2954425Y2640478D01*
X2946103Y2635673D01*
X2939308Y2628878D01*
X2934503Y2620556D01*
X2932016Y2611274D01*
Y2601664D01*
X2934503Y2592382D01*
X2939308Y2584060D01*
X2946103Y2577265D01*
X2954425Y2572460D01*
X2963707Y2569973D01*
X2973317D01*
X2982599Y2572460D01*
X2990921Y2577265D01*
X2997716Y2584060D01*
X3002521Y2592382D01*
X3005008Y2601664D01*
Y2611274D01*
X3002521Y2620556D01*
X2997716Y2628878D01*
X2990921Y2635673D01*
X2982599Y2640478D01*
X2973317Y2642965D01*
D02*
G37*
G36*
X2873317D02*
X2863707D01*
X2854425Y2640478D01*
X2846103Y2635673D01*
X2839308Y2628878D01*
X2834503Y2620556D01*
X2832016Y2611274D01*
Y2601664D01*
X2834503Y2592382D01*
X2839308Y2584060D01*
X2846103Y2577265D01*
X2854425Y2572460D01*
X2863707Y2569973D01*
X2873317D01*
X2882599Y2572460D01*
X2890921Y2577265D01*
X2897716Y2584060D01*
X2902521Y2592382D01*
X2905008Y2601664D01*
Y2611274D01*
X2902521Y2620556D01*
X2897716Y2628878D01*
X2890921Y2635673D01*
X2882599Y2640478D01*
X2873317Y2642965D01*
D02*
G37*
G36*
X1255805Y2345434D02*
X1246195D01*
X1236913Y2342946D01*
X1228591Y2338142D01*
X1221796Y2331347D01*
X1216991Y2323024D01*
X1214504Y2313742D01*
Y2304133D01*
X1216991Y2294851D01*
X1221796Y2286528D01*
X1228591Y2279733D01*
X1236913Y2274929D01*
X1246195Y2272442D01*
X1255805D01*
X1265087Y2274929D01*
X1273409Y2279733D01*
X1280204Y2286528D01*
X1285009Y2294851D01*
X1287496Y2304133D01*
Y2313742D01*
X1285009Y2323024D01*
X1280204Y2331347D01*
X1273409Y2338142D01*
X1265087Y2342946D01*
X1255805Y2345434D01*
D02*
G37*
G36*
X1155805D02*
X1146195D01*
X1136913Y2342946D01*
X1128591Y2338142D01*
X1121796Y2331347D01*
X1116991Y2323024D01*
X1114504Y2313742D01*
Y2304133D01*
X1116991Y2294851D01*
X1121796Y2286528D01*
X1128591Y2279733D01*
X1136913Y2274929D01*
X1146195Y2272442D01*
X1155805D01*
X1165087Y2274929D01*
X1173409Y2279733D01*
X1180204Y2286528D01*
X1185009Y2294851D01*
X1187496Y2304133D01*
Y2313742D01*
X1185009Y2323024D01*
X1180204Y2331347D01*
X1173409Y2338142D01*
X1165087Y2342946D01*
X1155805Y2345434D01*
D02*
G37*
G36*
X1055805D02*
X1046195D01*
X1036913Y2342946D01*
X1028591Y2338142D01*
X1021796Y2331347D01*
X1016991Y2323024D01*
X1014504Y2313742D01*
Y2304133D01*
X1016991Y2294851D01*
X1021796Y2286528D01*
X1028591Y2279733D01*
X1036913Y2274929D01*
X1046195Y2272442D01*
X1055805D01*
X1065087Y2274929D01*
X1073409Y2279733D01*
X1080204Y2286528D01*
X1085009Y2294851D01*
X1087496Y2304133D01*
Y2313742D01*
X1085009Y2323024D01*
X1080204Y2331347D01*
X1073409Y2338142D01*
X1065087Y2342946D01*
X1055805Y2345434D01*
D02*
G37*
G36*
X2157317Y2344965D02*
X2147707D01*
X2138425Y2342478D01*
X2130103Y2337673D01*
X2123308Y2330878D01*
X2118503Y2322556D01*
X2116016Y2313274D01*
Y2303664D01*
X2118503Y2294382D01*
X2123308Y2286060D01*
X2130103Y2279265D01*
X2138425Y2274460D01*
X2147707Y2271973D01*
X2157317D01*
X2166599Y2274460D01*
X2174921Y2279265D01*
X2181716Y2286060D01*
X2186521Y2294382D01*
X2189008Y2303664D01*
Y2313274D01*
X2186521Y2322556D01*
X2181716Y2330878D01*
X2174921Y2337673D01*
X2166599Y2342478D01*
X2157317Y2344965D01*
D02*
G37*
G36*
X2057317D02*
X2047707D01*
X2038425Y2342478D01*
X2030103Y2337673D01*
X2023308Y2330878D01*
X2018503Y2322556D01*
X2016016Y2313274D01*
Y2303664D01*
X2018503Y2294382D01*
X2023308Y2286060D01*
X2030103Y2279265D01*
X2038425Y2274460D01*
X2047707Y2271973D01*
X2057317D01*
X2066599Y2274460D01*
X2074921Y2279265D01*
X2081716Y2286060D01*
X2086521Y2294382D01*
X2089008Y2303664D01*
Y2313274D01*
X2086521Y2322556D01*
X2081716Y2330878D01*
X2074921Y2337673D01*
X2066599Y2342478D01*
X2057317Y2344965D01*
D02*
G37*
G36*
X1957317D02*
X1947707D01*
X1938425Y2342478D01*
X1930103Y2337673D01*
X1923308Y2330878D01*
X1918503Y2322556D01*
X1916016Y2313274D01*
Y2303664D01*
X1918503Y2294382D01*
X1923308Y2286060D01*
X1930103Y2279265D01*
X1938425Y2274460D01*
X1947707Y2271973D01*
X1957317D01*
X1966599Y2274460D01*
X1974921Y2279265D01*
X1981716Y2286060D01*
X1986521Y2294382D01*
X1989008Y2303664D01*
Y2313274D01*
X1986521Y2322556D01*
X1981716Y2330878D01*
X1974921Y2337673D01*
X1966599Y2342478D01*
X1957317Y2344965D01*
D02*
G37*
G36*
X3073317Y2342965D02*
X3063707D01*
X3054425Y2340478D01*
X3046103Y2335673D01*
X3039308Y2328878D01*
X3034503Y2320556D01*
X3032016Y2311274D01*
Y2301664D01*
X3034503Y2292382D01*
X3039308Y2284060D01*
X3046103Y2277265D01*
X3054425Y2272460D01*
X3063707Y2269973D01*
X3073317D01*
X3082599Y2272460D01*
X3090921Y2277265D01*
X3097716Y2284060D01*
X3102521Y2292382D01*
X3105008Y2301664D01*
Y2311274D01*
X3102521Y2320556D01*
X3097716Y2328878D01*
X3090921Y2335673D01*
X3082599Y2340478D01*
X3073317Y2342965D01*
D02*
G37*
G36*
X2973317D02*
X2963707D01*
X2954425Y2340478D01*
X2946103Y2335673D01*
X2939308Y2328878D01*
X2934503Y2320556D01*
X2932016Y2311274D01*
Y2301664D01*
X2934503Y2292382D01*
X2939308Y2284060D01*
X2946103Y2277265D01*
X2954425Y2272460D01*
X2963707Y2269973D01*
X2973317D01*
X2982599Y2272460D01*
X2990921Y2277265D01*
X2997716Y2284060D01*
X3002521Y2292382D01*
X3005008Y2301664D01*
Y2311274D01*
X3002521Y2320556D01*
X2997716Y2328878D01*
X2990921Y2335673D01*
X2982599Y2340478D01*
X2973317Y2342965D01*
D02*
G37*
G36*
X2873317D02*
X2863707D01*
X2854425Y2340478D01*
X2846103Y2335673D01*
X2839308Y2328878D01*
X2834503Y2320556D01*
X2832016Y2311274D01*
Y2301664D01*
X2834503Y2292382D01*
X2839308Y2284060D01*
X2846103Y2277265D01*
X2854425Y2272460D01*
X2863707Y2269973D01*
X2873317D01*
X2882599Y2272460D01*
X2890921Y2277265D01*
X2897716Y2284060D01*
X2902521Y2292382D01*
X2905008Y2301664D01*
Y2311274D01*
X2902521Y2320556D01*
X2897716Y2328878D01*
X2890921Y2335673D01*
X2882599Y2340478D01*
X2873317Y2342965D01*
D02*
G37*
G36*
X3806252Y2265362D02*
X3760819D01*
Y2253084D01*
X3755819Y2251316D01*
X3755408Y2251727D01*
X3748057Y2254772D01*
X3740101D01*
X3732750Y2251727D01*
X3727124Y2246101D01*
X3724079Y2238750D01*
Y2230793D01*
X3727124Y2223443D01*
X3732750Y2217816D01*
X3740101Y2214772D01*
X3748057D01*
X3755408Y2217816D01*
X3755819Y2218227D01*
X3760819Y2216459D01*
Y2204181D01*
X3806252D01*
Y2265362D01*
D02*
G37*
G36*
X3888929D02*
X3843496D01*
Y2204181D01*
X3850919D01*
Y2160228D01*
X3823811D01*
Y2150837D01*
X3550346D01*
Y2160228D01*
X3465543D01*
Y2110858D01*
X3550346D01*
Y2120249D01*
X3823811D01*
Y2110858D01*
X3908614D01*
Y2160228D01*
X3881506D01*
Y2204181D01*
X3888929D01*
Y2265362D01*
D02*
G37*
G36*
X957245Y1535260D02*
X944755D01*
X932692Y1532027D01*
X921875Y1525783D01*
X920995Y1524902D01*
X951000Y1494898D01*
X981005Y1524902D01*
X980125Y1525783D01*
X969308Y1532027D01*
X957245Y1535260D01*
D02*
G37*
G36*
X988076Y1517831D02*
X958071Y1487827D01*
X988076Y1457822D01*
X988956Y1458702D01*
X995201Y1469518D01*
X998433Y1481582D01*
Y1494072D01*
X995201Y1506135D01*
X988956Y1516951D01*
X988076Y1517831D01*
D02*
G37*
G36*
X913924D02*
X913044Y1516951D01*
X906799Y1506135D01*
X903567Y1494072D01*
Y1481582D01*
X906799Y1469518D01*
X913044Y1458702D01*
X913924Y1457822D01*
X943929Y1487827D01*
X913924Y1517831D01*
D02*
G37*
G36*
X1653323Y1528260D02*
X1642677D01*
X1632393Y1525504D01*
X1623174Y1520181D01*
X1615646Y1512653D01*
X1610322Y1503433D01*
X1607567Y1493150D01*
Y1482504D01*
X1610322Y1472220D01*
X1615646Y1463000D01*
X1623174Y1455472D01*
X1632393Y1450149D01*
X1642677Y1447394D01*
X1653323D01*
X1663607Y1450149D01*
X1672826Y1455472D01*
X1680354Y1463000D01*
X1685678Y1472220D01*
X1688433Y1482504D01*
Y1493150D01*
X1685678Y1503433D01*
X1680354Y1512653D01*
X1672826Y1520181D01*
X1663607Y1525504D01*
X1653323Y1528260D01*
D02*
G37*
G36*
X1553323D02*
X1542677D01*
X1532393Y1525504D01*
X1523174Y1520181D01*
X1515646Y1512653D01*
X1510322Y1503433D01*
X1507567Y1493150D01*
Y1482504D01*
X1510322Y1472220D01*
X1515646Y1463000D01*
X1523174Y1455472D01*
X1532393Y1450149D01*
X1542677Y1447394D01*
X1553323D01*
X1563607Y1450149D01*
X1572826Y1455472D01*
X1580354Y1463000D01*
X1585678Y1472220D01*
X1588433Y1482504D01*
Y1493150D01*
X1585678Y1503433D01*
X1580354Y1512653D01*
X1572826Y1520181D01*
X1563607Y1525504D01*
X1553323Y1528260D01*
D02*
G37*
G36*
X1091433D02*
X1010567D01*
Y1447394D01*
X1091433D01*
Y1528260D01*
D02*
G37*
G36*
X951000Y1480756D02*
X920995Y1450751D01*
X921875Y1449871D01*
X932692Y1443626D01*
X944755Y1440394D01*
X957245D01*
X969308Y1443626D01*
X980125Y1449871D01*
X981005Y1450751D01*
X951000Y1480756D01*
D02*
G37*
G36*
X2138544Y1428260D02*
X2127897D01*
X2117614Y1425504D01*
X2108394Y1420181D01*
X2100866Y1412653D01*
X2095543Y1403433D01*
X2092787Y1393150D01*
Y1382504D01*
X2095543Y1372220D01*
X2100866Y1363000D01*
X2108394Y1355472D01*
X2117614Y1350149D01*
X2127897Y1347394D01*
X2138544D01*
X2148827Y1350149D01*
X2158047Y1355472D01*
X2165575Y1363000D01*
X2170898Y1372220D01*
X2173653Y1382504D01*
Y1393150D01*
X2170898Y1403433D01*
X2165575Y1412653D01*
X2158047Y1420181D01*
X2148827Y1425504D01*
X2138544Y1428260D01*
D02*
G37*
G36*
X1653323D02*
X1642677D01*
X1632393Y1425504D01*
X1623174Y1420181D01*
X1615646Y1412653D01*
X1610322Y1403433D01*
X1607567Y1393150D01*
Y1382504D01*
X1610322Y1372220D01*
X1615646Y1363000D01*
X1623174Y1355472D01*
X1632393Y1350149D01*
X1642677Y1347394D01*
X1653323D01*
X1663607Y1350149D01*
X1672826Y1355472D01*
X1680354Y1363000D01*
X1685678Y1372220D01*
X1688433Y1382504D01*
Y1393150D01*
X1685678Y1403433D01*
X1680354Y1412653D01*
X1672826Y1420181D01*
X1663607Y1425504D01*
X1653323Y1428260D01*
D02*
G37*
G36*
X1553323D02*
X1542677D01*
X1532393Y1425504D01*
X1523174Y1420181D01*
X1515646Y1412653D01*
X1510322Y1403433D01*
X1507567Y1393150D01*
Y1382504D01*
X1510322Y1372220D01*
X1515646Y1363000D01*
X1523174Y1355472D01*
X1532393Y1350149D01*
X1542677Y1347394D01*
X1553323D01*
X1563607Y1350149D01*
X1572826Y1355472D01*
X1580354Y1363000D01*
X1585678Y1372220D01*
X1588433Y1382504D01*
Y1393150D01*
X1585678Y1403433D01*
X1580354Y1412653D01*
X1572826Y1420181D01*
X1563607Y1425504D01*
X1553323Y1428260D01*
D02*
G37*
G36*
X1056323D02*
X1045677D01*
X1035393Y1425504D01*
X1026174Y1420181D01*
X1018645Y1412653D01*
X1013322Y1403433D01*
X1010567Y1393150D01*
Y1382504D01*
X1013322Y1372220D01*
X1018645Y1363000D01*
X1026174Y1355472D01*
X1035393Y1350149D01*
X1045677Y1347394D01*
X1056323D01*
X1066607Y1350149D01*
X1075826Y1355472D01*
X1083354Y1363000D01*
X1088678Y1372220D01*
X1091433Y1382504D01*
Y1393150D01*
X1088678Y1403433D01*
X1083354Y1412653D01*
X1075826Y1420181D01*
X1066607Y1425504D01*
X1056323Y1428260D01*
D02*
G37*
G36*
X956323D02*
X945677D01*
X935393Y1425504D01*
X926174Y1420181D01*
X918645Y1412653D01*
X913322Y1403433D01*
X910567Y1393150D01*
Y1382504D01*
X913322Y1372220D01*
X918645Y1363000D01*
X926174Y1355472D01*
X935393Y1350149D01*
X945677Y1347394D01*
X956323D01*
X966607Y1350149D01*
X975826Y1355472D01*
X983355Y1363000D01*
X988678Y1372220D01*
X991433Y1382504D01*
Y1393150D01*
X988678Y1403433D01*
X983355Y1412653D01*
X975826Y1420181D01*
X966607Y1425504D01*
X956323Y1428260D01*
D02*
G37*
G36*
X2239465Y1335260D02*
X2226976D01*
X2214912Y1332027D01*
X2204096Y1325783D01*
X2203216Y1324902D01*
X2233220Y1294898D01*
X2263225Y1324903D01*
X2262345Y1325783D01*
X2251529Y1332027D01*
X2239465Y1335260D01*
D02*
G37*
G36*
X1654245D02*
X1641755D01*
X1629691Y1332027D01*
X1618876Y1325783D01*
X1617995Y1324902D01*
X1648000Y1294898D01*
X1678005Y1324902D01*
X1677124Y1325783D01*
X1666309Y1332027D01*
X1654245Y1335260D01*
D02*
G37*
G36*
X2196145Y1317831D02*
X2195265Y1316951D01*
X2189020Y1306135D01*
X2185787Y1294072D01*
Y1281582D01*
X2189020Y1269518D01*
X2195265Y1258702D01*
X2196145Y1257822D01*
X2226149Y1287827D01*
X2196145Y1317831D01*
D02*
G37*
G36*
X1610924D02*
X1610044Y1316951D01*
X1603800Y1306135D01*
X1600567Y1294072D01*
Y1281582D01*
X1603800Y1269518D01*
X1610044Y1258702D01*
X1610924Y1257822D01*
X1640929Y1287827D01*
X1610924Y1317831D01*
D02*
G37*
G36*
X2270296Y1317832D02*
X2240291Y1287827D01*
X2270296Y1257822D01*
X2271176Y1258702D01*
X2277421Y1269518D01*
X2280653Y1281582D01*
Y1294072D01*
X2277421Y1306135D01*
X2271176Y1316951D01*
X2270296Y1317832D01*
D02*
G37*
G36*
X1685076Y1317832D02*
X1655071Y1287827D01*
X1685076Y1257822D01*
X1685956Y1258702D01*
X1692200Y1269518D01*
X1695433Y1281582D01*
Y1294072D01*
X1692200Y1306135D01*
X1685956Y1316951D01*
X1685076Y1317832D01*
D02*
G37*
G36*
X3636570Y1285228D02*
X3629068D01*
X3622137Y1282357D01*
X3616832Y1277052D01*
X3613961Y1270121D01*
Y1262619D01*
X3616832Y1255688D01*
X3622137Y1250383D01*
X3629068Y1247512D01*
X3636570D01*
X3643501Y1250383D01*
X3648806Y1255688D01*
X3651677Y1262619D01*
Y1270121D01*
X3648806Y1277052D01*
X3643501Y1282357D01*
X3636570Y1285228D01*
D02*
G37*
G36*
X3582633D02*
X3575131D01*
X3568200Y1282357D01*
X3562895Y1277052D01*
X3560024Y1270121D01*
Y1262619D01*
X3562895Y1255688D01*
X3568200Y1250383D01*
X3575131Y1247512D01*
X3582633D01*
X3589564Y1250383D01*
X3594869Y1255688D01*
X3597740Y1262619D01*
Y1270121D01*
X3594869Y1277052D01*
X3589564Y1282357D01*
X3582633Y1285228D01*
D02*
G37*
G36*
X3527515D02*
X3520013D01*
X3513081Y1282357D01*
X3507777Y1277052D01*
X3504906Y1270121D01*
Y1262619D01*
X3507777Y1255688D01*
X3513081Y1250383D01*
X3520013Y1247512D01*
X3527515D01*
X3534446Y1250383D01*
X3539751Y1255688D01*
X3542622Y1262619D01*
Y1270121D01*
X3539751Y1277052D01*
X3534446Y1282357D01*
X3527515Y1285228D01*
D02*
G37*
G36*
X2173653Y1328260D02*
X2092787D01*
Y1247394D01*
X2173653D01*
Y1328260D01*
D02*
G37*
G36*
X1588433D02*
X1507567D01*
Y1247394D01*
X1588433D01*
Y1328260D01*
D02*
G37*
G36*
X956323D02*
X945677D01*
X935393Y1325504D01*
X926174Y1320181D01*
X918645Y1312653D01*
X913322Y1303433D01*
X910567Y1293150D01*
Y1282504D01*
X913322Y1272220D01*
X918645Y1263000D01*
X926174Y1255472D01*
X935393Y1250149D01*
X945677Y1247394D01*
X956323D01*
X966607Y1250149D01*
X975826Y1255472D01*
X983355Y1263000D01*
X988678Y1272220D01*
X991433Y1282504D01*
Y1293150D01*
X988678Y1303433D01*
X983355Y1312653D01*
X975826Y1320181D01*
X966607Y1325504D01*
X956323Y1328260D01*
D02*
G37*
G36*
X2233220Y1280756D02*
X2203216Y1250751D01*
X2204096Y1249871D01*
X2214912Y1243626D01*
X2226976Y1240394D01*
X2239465D01*
X2251529Y1243626D01*
X2262345Y1249871D01*
X2263225Y1250751D01*
X2233220Y1280756D01*
D02*
G37*
G36*
X1648000Y1280756D02*
X1617995Y1250751D01*
X1618876Y1249871D01*
X1629691Y1243626D01*
X1641755Y1240394D01*
X1654245D01*
X1666309Y1243626D01*
X1677124Y1249871D01*
X1678005Y1250751D01*
X1648000Y1280756D01*
D02*
G37*
G36*
X3677121Y1245858D02*
X3669619D01*
X3662688Y1242987D01*
X3657383Y1237682D01*
X3654512Y1230751D01*
Y1223249D01*
X3657383Y1216318D01*
X3662688Y1211013D01*
X3669619Y1208142D01*
X3677121D01*
X3684052Y1211013D01*
X3689357Y1216318D01*
X3692228Y1223249D01*
Y1230751D01*
X3689357Y1237682D01*
X3684052Y1242987D01*
X3677121Y1245858D01*
D02*
G37*
G36*
X3488145D02*
X3480643D01*
X3473711Y1242987D01*
X3468407Y1237682D01*
X3465535Y1230751D01*
Y1223249D01*
X3468407Y1216318D01*
X3473711Y1211013D01*
X3480643Y1208142D01*
X3488145D01*
X3495076Y1211013D01*
X3500381Y1216318D01*
X3503252Y1223249D01*
Y1230751D01*
X3500381Y1237682D01*
X3495076Y1242987D01*
X3488145Y1245858D01*
D02*
G37*
G36*
X76386Y1314591D02*
X30953D01*
Y1253409D01*
X38375D01*
Y1245591D01*
X30953D01*
Y1184409D01*
X76386D01*
Y1245591D01*
X68963D01*
Y1253409D01*
X76386D01*
Y1314591D01*
D02*
G37*
G36*
X3610192Y1218299D02*
X3602690D01*
X3595759Y1215428D01*
X3590454Y1210123D01*
X3587583Y1203192D01*
Y1195690D01*
X3590454Y1188759D01*
X3595759Y1183454D01*
X3602690Y1180583D01*
X3610192D01*
X3617123Y1183454D01*
X3622428Y1188759D01*
X3625299Y1195690D01*
Y1203192D01*
X3622428Y1210123D01*
X3617123Y1215428D01*
X3610192Y1218299D01*
D02*
G37*
G36*
X3555074D02*
X3547572D01*
X3540640Y1215428D01*
X3535336Y1210123D01*
X3532465Y1203192D01*
Y1195690D01*
X3535336Y1188759D01*
X3540640Y1183454D01*
X3547572Y1180583D01*
X3555074D01*
X3562005Y1183454D01*
X3567310Y1188759D01*
X3570181Y1195690D01*
Y1203192D01*
X3567310Y1210123D01*
X3562005Y1215428D01*
X3555074Y1218299D01*
D02*
G37*
G36*
X3677121Y1190740D02*
X3669619D01*
X3662688Y1187869D01*
X3657383Y1182564D01*
X3654512Y1175633D01*
Y1168131D01*
X3657383Y1161200D01*
X3662688Y1155895D01*
X3669619Y1153024D01*
X3677121D01*
X3684052Y1155895D01*
X3689357Y1161200D01*
X3692228Y1168131D01*
Y1175633D01*
X3689357Y1182564D01*
X3684052Y1187869D01*
X3677121Y1190740D01*
D02*
G37*
G36*
X3488145D02*
X3480643D01*
X3473711Y1187869D01*
X3468407Y1182564D01*
X3465535Y1175633D01*
Y1168131D01*
X3468407Y1161200D01*
X3473711Y1155895D01*
X3480643Y1153024D01*
X3488145D01*
X3495076Y1155895D01*
X3500381Y1161200D01*
X3503252Y1168131D01*
Y1175633D01*
X3500381Y1182564D01*
X3495076Y1187869D01*
X3488145Y1190740D01*
D02*
G37*
G36*
X3610192Y1163181D02*
X3602690D01*
X3595759Y1160310D01*
X3590454Y1155005D01*
X3587583Y1148074D01*
Y1140572D01*
X3590454Y1133640D01*
X3595759Y1128336D01*
X3602690Y1125465D01*
X3610192D01*
X3617123Y1128336D01*
X3622428Y1133640D01*
X3625299Y1140572D01*
Y1148074D01*
X3622428Y1155005D01*
X3617123Y1160310D01*
X3610192Y1163181D01*
D02*
G37*
G36*
X3555074D02*
X3547572D01*
X3540640Y1160310D01*
X3535336Y1155005D01*
X3532465Y1148074D01*
Y1140572D01*
X3535336Y1133640D01*
X3540640Y1128336D01*
X3547572Y1125465D01*
X3555074D01*
X3562005Y1128336D01*
X3567310Y1133640D01*
X3570181Y1140572D01*
Y1148074D01*
X3567310Y1155005D01*
X3562005Y1160310D01*
X3555074Y1163181D01*
D02*
G37*
G36*
X3677121Y1135622D02*
X3669619D01*
X3662688Y1132751D01*
X3657383Y1127446D01*
X3654512Y1120515D01*
Y1113013D01*
X3657383Y1106082D01*
X3662688Y1100777D01*
X3669619Y1097906D01*
X3677121D01*
X3684052Y1100777D01*
X3689357Y1106082D01*
X3692228Y1113013D01*
Y1120515D01*
X3689357Y1127446D01*
X3684052Y1132751D01*
X3677121Y1135622D01*
D02*
G37*
G36*
X3488145D02*
X3480643D01*
X3473711Y1132751D01*
X3468407Y1127446D01*
X3465535Y1120515D01*
Y1113013D01*
X3468407Y1106082D01*
X3473711Y1100777D01*
X3480643Y1097906D01*
X3488145D01*
X3495076Y1100777D01*
X3500381Y1106082D01*
X3503252Y1113013D01*
Y1120515D01*
X3500381Y1127446D01*
X3495076Y1132751D01*
X3488145Y1135622D01*
D02*
G37*
G36*
X3637751Y1096252D02*
X3630249D01*
X3623318Y1093381D01*
X3618013Y1088076D01*
X3615142Y1081145D01*
Y1073643D01*
X3618013Y1066711D01*
X3623318Y1061407D01*
X3630249Y1058535D01*
X3637751D01*
X3644682Y1061407D01*
X3649987Y1066711D01*
X3652858Y1073643D01*
Y1081145D01*
X3649987Y1088076D01*
X3644682Y1093381D01*
X3637751Y1096252D01*
D02*
G37*
G36*
X3582633D02*
X3575131D01*
X3568200Y1093381D01*
X3562895Y1088076D01*
X3560024Y1081145D01*
Y1073643D01*
X3562895Y1066711D01*
X3568200Y1061407D01*
X3575131Y1058535D01*
X3582633D01*
X3589564Y1061407D01*
X3594869Y1066711D01*
X3597740Y1073643D01*
Y1081145D01*
X3594869Y1088076D01*
X3589564Y1093381D01*
X3582633Y1096252D01*
D02*
G37*
G36*
X3527515D02*
X3520013D01*
X3513081Y1093381D01*
X3507777Y1088076D01*
X3504906Y1081145D01*
Y1073643D01*
X3507777Y1066711D01*
X3513081Y1061407D01*
X3520013Y1058535D01*
X3527515D01*
X3534446Y1061407D01*
X3539751Y1066711D01*
X3542622Y1073643D01*
Y1081145D01*
X3539751Y1088076D01*
X3534446Y1093381D01*
X3527515Y1096252D01*
D02*
G37*
G36*
X3286797Y1373000D02*
X3278841D01*
X3271490Y1369955D01*
X3265864Y1364329D01*
X3262819Y1356978D01*
Y1349022D01*
X3265864Y1341671D01*
X3267525Y1340009D01*
Y941666D01*
X3263681Y940425D01*
X3262525Y940351D01*
X3257125Y945751D01*
X3249774Y948796D01*
X3241818D01*
X3234467Y945751D01*
X3228841Y940125D01*
X3225796Y932774D01*
Y924818D01*
X3228841Y917467D01*
X3230502Y915806D01*
Y866131D01*
X3149383Y785011D01*
X3146067Y780050D01*
X3144903Y774197D01*
Y536532D01*
X3025317Y416945D01*
X2861762D01*
X2855909Y415781D01*
X2850947Y412466D01*
X2804540Y366058D01*
X2801225Y361097D01*
X2800060Y355244D01*
Y309365D01*
X2796949D01*
X2792732Y308526D01*
X2789157Y306138D01*
X2786769Y302563D01*
X2785930Y298346D01*
Y286732D01*
X2786769Y282515D01*
X2789157Y278941D01*
X2792732Y276552D01*
X2796949Y275713D01*
X2833760D01*
X2837977Y276552D01*
X2841551Y278941D01*
X2843940Y282515D01*
X2844779Y286732D01*
Y298346D01*
X2843940Y302563D01*
X2841551Y306138D01*
X2837977Y308526D01*
X2833760Y309365D01*
X2830648D01*
Y348909D01*
X2868097Y386358D01*
X3031651D01*
X3037504Y387522D01*
X3042466Y390837D01*
X3171011Y519382D01*
X3174327Y524344D01*
X3175491Y530197D01*
Y767862D01*
X3205796Y798168D01*
X3210360Y795660D01*
X3209918Y793437D01*
Y743240D01*
X3210649Y739561D01*
X3212733Y736442D01*
X3215852Y734358D01*
X3217525Y734025D01*
Y727990D01*
X3215864Y726329D01*
X3212819Y718978D01*
Y711022D01*
X3215864Y703671D01*
X3217525Y702009D01*
Y309365D01*
X3214413D01*
X3210197Y308526D01*
X3206622Y306138D01*
X3204233Y302563D01*
X3203395Y298346D01*
Y286732D01*
X3204233Y282515D01*
X3206622Y278941D01*
X3210197Y276552D01*
X3214413Y275713D01*
X3251224D01*
X3255441Y276552D01*
X3259016Y278941D01*
X3261405Y282515D01*
X3262243Y286732D01*
Y298346D01*
X3261405Y302563D01*
X3259016Y306138D01*
X3255441Y308526D01*
X3251224Y309365D01*
X3248113D01*
Y702009D01*
X3249774Y703671D01*
X3252819Y711022D01*
Y718978D01*
X3249774Y726329D01*
X3248113Y727990D01*
Y734025D01*
X3249785Y734358D01*
X3252904Y736442D01*
X3254988Y739561D01*
X3255270Y740977D01*
X3260368D01*
X3260649Y739561D01*
X3262733Y736442D01*
X3265852Y734358D01*
X3269532Y733626D01*
X3296106D01*
X3299785Y734358D01*
X3302904Y736442D01*
X3304988Y739561D01*
X3305270Y740977D01*
X3310368D01*
X3310649Y739561D01*
X3312733Y736442D01*
X3315852Y734358D01*
X3319532Y733626D01*
X3346106D01*
X3349785Y734358D01*
X3352904Y736442D01*
X3354988Y739561D01*
X3355270Y740977D01*
X3360368D01*
X3360649Y739561D01*
X3362733Y736442D01*
X3365852Y734358D01*
X3369532Y733626D01*
X3396106D01*
X3399785Y734358D01*
X3402904Y736442D01*
X3404988Y739561D01*
X3405270Y740977D01*
X3410368D01*
X3410649Y739561D01*
X3412733Y736442D01*
X3415852Y734358D01*
X3417525Y734025D01*
Y705313D01*
X3415864Y703652D01*
X3412819Y696301D01*
Y688345D01*
X3415864Y680994D01*
X3421490Y675368D01*
X3428841Y672323D01*
X3436797D01*
X3444148Y675368D01*
X3449774Y680994D01*
X3452819Y688345D01*
Y696301D01*
X3449774Y703652D01*
X3448113Y705313D01*
Y734025D01*
X3449785Y734358D01*
X3452904Y736442D01*
X3454988Y739561D01*
X3455270Y740977D01*
X3460368D01*
X3460649Y739561D01*
X3462733Y736442D01*
X3465852Y734358D01*
X3467525Y734025D01*
Y717455D01*
X3465864Y715794D01*
X3462819Y708443D01*
Y700486D01*
X3465864Y693135D01*
X3471490Y687509D01*
X3478841Y684465D01*
X3486797D01*
X3494148Y687509D01*
X3499774Y693135D01*
X3502819Y700486D01*
Y708443D01*
X3499774Y715794D01*
X3498113Y717455D01*
Y734025D01*
X3499785Y734358D01*
X3502904Y736442D01*
X3504988Y739561D01*
X3505270Y740977D01*
X3510368D01*
X3510649Y739561D01*
X3512733Y736442D01*
X3515852Y734358D01*
X3517525Y734025D01*
Y727990D01*
X3515864Y726329D01*
X3512819Y718978D01*
Y711022D01*
X3515864Y703671D01*
X3521490Y698045D01*
X3528841Y695000D01*
X3536797D01*
X3544148Y698045D01*
X3549774Y703671D01*
X3552819Y711022D01*
Y718978D01*
X3549774Y726329D01*
X3548113Y727990D01*
Y734025D01*
X3549785Y734358D01*
X3552904Y736442D01*
X3554988Y739561D01*
X3555270Y740977D01*
X3560368D01*
X3560649Y739561D01*
X3562733Y736442D01*
X3565852Y734358D01*
X3569532Y733626D01*
X3596106D01*
X3599785Y734358D01*
X3602904Y736442D01*
X3604988Y739561D01*
X3605270Y740977D01*
X3610368D01*
X3610649Y739561D01*
X3612733Y736442D01*
X3615852Y734358D01*
X3618774Y733777D01*
Y680818D01*
X3599826Y661869D01*
X3598425Y662678D01*
X3588142Y665433D01*
X3577496D01*
X3567212Y662678D01*
X3557992Y657355D01*
X3550464Y649826D01*
X3545141Y640607D01*
X3542386Y630323D01*
Y619677D01*
X3545141Y609393D01*
X3550464Y600174D01*
X3557992Y592645D01*
X3567212Y587322D01*
X3577496Y584567D01*
X3588142D01*
X3598425Y587322D01*
X3607645Y592645D01*
X3615173Y600174D01*
X3620497Y609393D01*
X3623252Y619677D01*
Y630323D01*
X3620497Y640607D01*
X3619688Y642007D01*
X3642750Y665069D01*
X3645795Y669625D01*
X3646864Y675000D01*
Y733777D01*
X3649785Y734358D01*
X3652904Y736442D01*
X3654988Y739561D01*
X3655270Y740977D01*
X3660368D01*
X3660649Y739561D01*
X3662733Y736442D01*
X3665852Y734358D01*
X3667525Y734025D01*
Y647716D01*
X3652228D01*
Y602284D01*
X3712525D01*
X3713409Y602283D01*
X3717525Y600148D01*
Y567174D01*
X3713409Y565039D01*
X3652228D01*
Y519606D01*
X3669525D01*
Y446986D01*
X3667693Y445483D01*
X3662575D01*
X3659625Y444896D01*
X3657125Y443225D01*
X3653457D01*
X3650957Y444896D01*
X3648008Y445483D01*
X3642890D01*
X3639940Y444896D01*
X3637440Y443225D01*
X3635769Y440725D01*
X3635183Y437775D01*
Y436534D01*
X3433921D01*
X3428069Y435370D01*
X3423107Y432054D01*
X3261484Y270431D01*
X3173014D01*
X3171977Y271125D01*
X3167760Y271963D01*
X3130949D01*
X3126732Y271125D01*
X3125695Y270431D01*
X3085535D01*
Y285728D01*
X3040102D01*
Y224547D01*
X3085535D01*
Y239844D01*
X3125695D01*
X3126732Y239150D01*
X3130949Y238312D01*
X3167760D01*
X3171977Y239150D01*
X3173014Y239844D01*
X3267819D01*
X3273672Y241008D01*
X3278633Y244323D01*
X3440256Y405946D01*
X3635183D01*
Y404704D01*
X3635769Y401755D01*
X3637440Y399255D01*
X3639940Y397584D01*
X3642890Y396997D01*
X3648008D01*
X3650957Y397584D01*
X3653458Y399255D01*
X3657125D01*
X3659625Y397584D01*
X3662575Y396997D01*
X3667693D01*
X3670642Y397584D01*
X3673143Y399255D01*
X3676810D01*
X3679310Y397584D01*
X3682260Y396997D01*
X3687378D01*
X3690327Y397584D01*
X3692828Y399255D01*
X3696495D01*
X3698995Y397584D01*
X3701945Y396997D01*
X3707063D01*
X3710012Y397584D01*
X3712513Y399255D01*
X3716180D01*
X3718680Y397584D01*
X3721630Y396997D01*
X3726748D01*
X3729697Y397584D01*
X3732198Y399255D01*
X3735865D01*
X3738365Y397584D01*
X3741315Y396997D01*
X3746433D01*
X3749383Y397584D01*
X3751883Y399255D01*
X3755550D01*
X3758050Y397584D01*
X3761000Y396997D01*
X3766118D01*
X3769068Y397584D01*
X3771568Y399255D01*
X3773238Y401755D01*
X3773825Y404704D01*
Y437775D01*
X3773238Y440725D01*
X3771568Y443225D01*
X3769068Y444896D01*
X3766118Y445483D01*
X3761000D01*
X3758050Y444896D01*
X3755550Y443225D01*
X3751883D01*
X3749383Y444896D01*
X3746433Y445483D01*
X3741315D01*
X3739483Y446986D01*
Y452346D01*
X3744137Y457000D01*
X3746487D01*
X3753838Y460045D01*
X3759464Y465671D01*
X3762508Y473022D01*
Y480978D01*
X3759464Y488329D01*
X3753838Y493955D01*
X3746487Y497000D01*
X3738530D01*
X3731179Y493955D01*
X3725553Y488329D01*
X3724798Y486505D01*
X3719798Y487500D01*
Y496159D01*
X3743633Y519995D01*
X3746949Y524956D01*
X3748113Y530809D01*
Y734025D01*
X3749785Y734358D01*
X3752904Y736442D01*
X3754988Y739561D01*
X3755270Y740977D01*
X3760368D01*
X3760649Y739561D01*
X3762733Y736442D01*
X3765852Y734358D01*
X3768020Y733927D01*
X3768559Y729024D01*
X3765864Y726329D01*
X3762819Y718978D01*
Y711022D01*
X3765864Y703671D01*
X3771490Y698045D01*
X3778841Y695000D01*
X3786797D01*
X3794148Y698045D01*
X3799774Y703671D01*
X3802819Y711022D01*
Y718978D01*
X3799774Y726329D01*
X3797079Y729024D01*
X3797618Y733927D01*
X3799785Y734358D01*
X3802904Y736442D01*
X3804988Y739561D01*
X3805270Y740977D01*
X3810368D01*
X3810649Y739561D01*
X3812733Y736442D01*
X3815852Y734358D01*
X3817525Y734025D01*
Y727990D01*
X3815864Y726329D01*
X3812819Y718978D01*
Y711022D01*
X3815864Y703671D01*
X3821490Y698045D01*
X3828841Y695000D01*
X3836797D01*
X3844148Y698045D01*
X3849774Y703671D01*
X3852819Y711022D01*
Y718978D01*
X3849774Y726329D01*
X3848113Y727990D01*
Y734025D01*
X3849785Y734358D01*
X3852904Y736442D01*
X3854988Y739561D01*
X3855720Y743240D01*
Y793437D01*
X3854988Y797116D01*
X3852904Y800235D01*
X3849785Y802319D01*
X3846106Y803051D01*
X3819532D01*
X3815852Y802319D01*
X3812733Y800235D01*
X3810649Y797116D01*
X3810368Y795700D01*
X3805270D01*
X3804988Y797116D01*
X3802904Y800235D01*
X3799785Y802319D01*
X3796106Y803051D01*
X3769532D01*
X3765852Y802319D01*
X3762733Y800235D01*
X3760649Y797116D01*
X3760368Y795700D01*
X3755270D01*
X3754988Y797116D01*
X3752904Y800235D01*
X3749785Y802319D01*
X3746106Y803051D01*
X3719532D01*
X3715852Y802319D01*
X3712733Y800235D01*
X3710649Y797116D01*
X3710368Y795700D01*
X3705270D01*
X3704988Y797116D01*
X3702904Y800235D01*
X3699785Y802319D01*
X3696106Y803051D01*
X3669532D01*
X3665852Y802319D01*
X3662733Y800235D01*
X3660649Y797116D01*
X3660368Y795700D01*
X3655270D01*
X3654988Y797116D01*
X3652904Y800235D01*
X3649785Y802319D01*
X3646106Y803051D01*
X3619532D01*
X3615852Y802319D01*
X3612733Y800235D01*
X3610649Y797116D01*
X3610368Y795700D01*
X3605270D01*
X3604988Y797116D01*
X3602904Y800235D01*
X3599785Y802319D01*
X3596106Y803051D01*
X3569532D01*
X3565852Y802319D01*
X3562733Y800235D01*
X3560649Y797116D01*
X3560368Y795700D01*
X3555270D01*
X3554988Y797116D01*
X3552904Y800235D01*
X3549785Y802319D01*
X3546106Y803051D01*
X3519532D01*
X3515852Y802319D01*
X3512733Y800235D01*
X3510649Y797116D01*
X3510368Y795700D01*
X3505270D01*
X3504988Y797116D01*
X3502904Y800235D01*
X3499785Y802319D01*
X3496106Y803051D01*
X3469532D01*
X3465852Y802319D01*
X3462733Y800235D01*
X3460649Y797116D01*
X3460368Y795700D01*
X3455270D01*
X3454988Y797116D01*
X3452904Y800235D01*
X3449785Y802319D01*
X3446106Y803051D01*
X3419532D01*
X3415852Y802319D01*
X3412733Y800235D01*
X3410649Y797116D01*
X3410368Y795700D01*
X3405270D01*
X3404988Y797116D01*
X3402904Y800235D01*
X3399785Y802319D01*
X3398113Y802652D01*
Y846806D01*
X3399774Y848467D01*
X3402819Y855818D01*
Y863774D01*
X3399774Y871125D01*
X3394148Y876751D01*
X3386797Y879796D01*
X3378841D01*
X3371490Y876751D01*
X3365864Y871125D01*
X3362819Y863774D01*
Y855818D01*
X3365864Y848467D01*
X3367525Y846806D01*
Y802652D01*
X3365852Y802319D01*
X3362733Y800235D01*
X3360649Y797116D01*
X3360368Y795700D01*
X3355270D01*
X3354988Y797116D01*
X3352904Y800235D01*
X3349785Y802319D01*
X3348113Y802652D01*
Y818191D01*
X3349774Y819852D01*
X3352819Y827203D01*
Y835159D01*
X3349774Y842510D01*
X3344148Y848136D01*
X3336797Y851181D01*
X3328841D01*
X3321490Y848136D01*
X3315864Y842510D01*
X3312819Y835159D01*
Y827203D01*
X3315864Y819852D01*
X3317525Y818191D01*
Y802652D01*
X3315852Y802319D01*
X3312733Y800235D01*
X3310649Y797116D01*
X3310368Y795700D01*
X3305270D01*
X3304988Y797116D01*
X3302904Y800235D01*
X3299785Y802319D01*
X3298113Y802652D01*
Y1340009D01*
X3299774Y1341671D01*
X3302819Y1349022D01*
Y1356978D01*
X3299774Y1364329D01*
X3294148Y1369955D01*
X3286797Y1373000D01*
D02*
G37*
G36*
X3488142Y665433D02*
X3477496D01*
X3467212Y662678D01*
X3457992Y657355D01*
X3450464Y649826D01*
X3445141Y640607D01*
X3442386Y630323D01*
Y619677D01*
X3445141Y609393D01*
X3450464Y600174D01*
X3457992Y592645D01*
X3467212Y587322D01*
X3477496Y584567D01*
X3488142D01*
X3498425Y587322D01*
X3507645Y592645D01*
X3515173Y600174D01*
X3520497Y609393D01*
X3523252Y619677D01*
Y630323D01*
X3520497Y640607D01*
X3515173Y649826D01*
X3507645Y657355D01*
X3498425Y662678D01*
X3488142Y665433D01*
D02*
G37*
G36*
X3423252D02*
X3342386D01*
Y584567D01*
X3423252D01*
Y665433D01*
D02*
G37*
G36*
X3489064Y572433D02*
X3476574D01*
X3464510Y569201D01*
X3453694Y562956D01*
X3452814Y562076D01*
X3482819Y532071D01*
X3512824Y562076D01*
X3511943Y562956D01*
X3501127Y569201D01*
X3489064Y572433D01*
D02*
G37*
G36*
X3389064D02*
X3376574D01*
X3364510Y569201D01*
X3353694Y562956D01*
X3352814Y562076D01*
X3382819Y532071D01*
X3412824Y562076D01*
X3411943Y562956D01*
X3401127Y569201D01*
X3389064Y572433D01*
D02*
G37*
G36*
X3519895Y555005D02*
X3489890Y525000D01*
X3519895Y494995D01*
X3520775Y495875D01*
X3527019Y506692D01*
X3530252Y518755D01*
Y531245D01*
X3527019Y543308D01*
X3520775Y554125D01*
X3519895Y555005D01*
D02*
G37*
G36*
X3419895D02*
X3389890Y525000D01*
X3419895Y494995D01*
X3420775Y495875D01*
X3427019Y506692D01*
X3430252Y518755D01*
Y531245D01*
X3427019Y543308D01*
X3420775Y554125D01*
X3419895Y555005D01*
D02*
G37*
G36*
X3445743Y555005D02*
X3444863Y554125D01*
X3438618Y543308D01*
X3435386Y531245D01*
Y518755D01*
X3438618Y506692D01*
X3444863Y495875D01*
X3445743Y494995D01*
X3475748Y525000D01*
X3445743Y555005D01*
D02*
G37*
G36*
X3345743D02*
X3344863Y554125D01*
X3338618Y543308D01*
X3335386Y531245D01*
Y518755D01*
X3338618Y506692D01*
X3344863Y495875D01*
X3345743Y494995D01*
X3375748Y525000D01*
X3345743Y555005D01*
D02*
G37*
G36*
X3588142Y565433D02*
X3577496D01*
X3567212Y562678D01*
X3557992Y557355D01*
X3550464Y549826D01*
X3545141Y540607D01*
X3542386Y530323D01*
Y519677D01*
X3545141Y509393D01*
X3550464Y500174D01*
X3557992Y492646D01*
X3567212Y487322D01*
X3577496Y484567D01*
X3588142D01*
X3598425Y487322D01*
X3607645Y492646D01*
X3615173Y500174D01*
X3620497Y509393D01*
X3623252Y519677D01*
Y530323D01*
X3620497Y540607D01*
X3615173Y549826D01*
X3607645Y557355D01*
X3598425Y562678D01*
X3588142Y565433D01*
D02*
G37*
G36*
X3482819Y517929D02*
X3452814Y487924D01*
X3453694Y487044D01*
X3464510Y480800D01*
X3476574Y477567D01*
X3489064D01*
X3501127Y480800D01*
X3511943Y487044D01*
X3512824Y487924D01*
X3482819Y517929D01*
D02*
G37*
G36*
X3382819D02*
X3352814Y487924D01*
X3353694Y487044D01*
X3364510Y480800D01*
X3376574Y477567D01*
X3389064D01*
X3401127Y480800D01*
X3411943Y487044D01*
X3412824Y487924D01*
X3382819Y517929D01*
D02*
G37*
G36*
X305260Y510593D02*
X254079D01*
X246607Y509610D01*
X239644Y506726D01*
X233665Y502138D01*
X229077Y496159D01*
X226193Y489196D01*
X225210Y481724D01*
X226193Y474253D01*
X229077Y467290D01*
X233665Y461311D01*
X239644Y456723D01*
X246607Y453839D01*
X254079Y452855D01*
X305260D01*
X312732Y453839D01*
X319694Y456723D01*
X325673Y461311D01*
X330261Y467290D01*
X333145Y474253D01*
X334129Y481724D01*
X333145Y489196D01*
X330261Y496159D01*
X325673Y502138D01*
X319694Y506726D01*
X312732Y509610D01*
X305260Y510593D01*
D02*
G37*
G36*
X141087D02*
X89906D01*
X82434Y509610D01*
X75471Y506726D01*
X69492Y502138D01*
X64904Y496159D01*
X62020Y489196D01*
X61036Y481724D01*
X62020Y474253D01*
X64904Y467290D01*
X69492Y461311D01*
X75471Y456723D01*
X82434Y453839D01*
X89906Y452855D01*
X141087D01*
X148559Y453839D01*
X155521Y456723D01*
X161500Y461311D01*
X166088Y467290D01*
X168972Y474253D01*
X169956Y481724D01*
X168972Y489196D01*
X166088Y496159D01*
X161500Y502138D01*
X155521Y506726D01*
X148559Y509610D01*
X141087Y510593D01*
D02*
G37*
G36*
X1056323Y1328260D02*
X1045677D01*
X1035393Y1325504D01*
X1026174Y1320181D01*
X1018645Y1312653D01*
X1013322Y1303433D01*
X1010567Y1293150D01*
Y1282504D01*
X1013322Y1272220D01*
X1018645Y1263000D01*
X1026174Y1255472D01*
X1035393Y1250149D01*
X1035706Y1250065D01*
Y467156D01*
X1034045Y465494D01*
X1031000Y458144D01*
Y450187D01*
X1034045Y442836D01*
X1039671Y437210D01*
X1047022Y434165D01*
X1054978D01*
X1062329Y437210D01*
X1067955Y442836D01*
X1071000Y450187D01*
Y458144D01*
X1067955Y465494D01*
X1066294Y467156D01*
Y1250065D01*
X1066607Y1250149D01*
X1075826Y1255472D01*
X1083354Y1263000D01*
X1088678Y1272220D01*
X1091433Y1282504D01*
Y1293150D01*
X1088678Y1303433D01*
X1083354Y1312653D01*
X1075826Y1320181D01*
X1066607Y1325504D01*
X1056323Y1328260D01*
D02*
G37*
G36*
X3627732Y397254D02*
X3594661D01*
X3591712Y396667D01*
X3589212Y394997D01*
X3587541Y392496D01*
X3586954Y389547D01*
Y384429D01*
X3587541Y381479D01*
X3589212Y378979D01*
Y375312D01*
X3587541Y372811D01*
X3586954Y369862D01*
Y364744D01*
X3587541Y361794D01*
X3589212Y359294D01*
X3591712Y357623D01*
X3594661Y357037D01*
X3627732D01*
X3630682Y357623D01*
X3633182Y359294D01*
X3634853Y361794D01*
X3635439Y364744D01*
Y369862D01*
X3634853Y372811D01*
X3633182Y375312D01*
Y378979D01*
X3634853Y381479D01*
X3635439Y384429D01*
Y389547D01*
X3634853Y392496D01*
X3633182Y394997D01*
X3630682Y396667D01*
X3627732Y397254D01*
D02*
G37*
G36*
X3085535Y360531D02*
X3040102D01*
Y346674D01*
X3035102Y344603D01*
X3032809Y346896D01*
X3025459Y349941D01*
X3017502D01*
X3010151Y346896D01*
X3008490Y345235D01*
X3002858D01*
Y360531D01*
X2957425D01*
Y345235D01*
X2922479D01*
X2921441Y345928D01*
X2917224Y346767D01*
X2880413D01*
X2876197Y345928D01*
X2872622Y343539D01*
X2870233Y339964D01*
X2869395Y335748D01*
Y324134D01*
X2870233Y319917D01*
X2872622Y316342D01*
X2876197Y313954D01*
X2880413Y313115D01*
X2917224D01*
X2921441Y313954D01*
X2922479Y314647D01*
X2957425D01*
Y299350D01*
X3002858D01*
Y314647D01*
X3008490D01*
X3010151Y312986D01*
X3017502Y309941D01*
X3025459D01*
X3032809Y312986D01*
X3035102Y315278D01*
X3040102Y313207D01*
Y299350D01*
X3085535D01*
Y314647D01*
X3125695D01*
X3126732Y313954D01*
X3130949Y313115D01*
X3167760D01*
X3171977Y313954D01*
X3175551Y316342D01*
X3177940Y319917D01*
X3178779Y324134D01*
Y335748D01*
X3177940Y339964D01*
X3175551Y343539D01*
X3171977Y345928D01*
X3167760Y346767D01*
X3130949D01*
X3126732Y345928D01*
X3125695Y345235D01*
X3085535D01*
Y360531D01*
D02*
G37*
G36*
X169000Y1260196D02*
X95008D01*
X91106Y1259420D01*
X87798Y1257210D01*
X85588Y1253902D01*
X84812Y1250000D01*
Y1038802D01*
X85588Y1034900D01*
X86387Y1033704D01*
X85588Y1032508D01*
X84812Y1028606D01*
Y851145D01*
X84281Y850404D01*
X82434Y850161D01*
X75471Y847277D01*
X69492Y842689D01*
X64904Y836710D01*
X62020Y829747D01*
X61036Y822276D01*
X62020Y814804D01*
X64904Y807841D01*
X69492Y801862D01*
X75471Y797274D01*
X82434Y794390D01*
X84281Y794147D01*
X84812Y793407D01*
Y538221D01*
X85588Y534319D01*
X87798Y531011D01*
X91106Y528801D01*
X95008Y528025D01*
X243567D01*
X246263Y528561D01*
X250855Y523969D01*
X257034Y521409D01*
X263722D01*
X269901Y523969D01*
X274630Y528698D01*
X276290Y532706D01*
X276666Y532631D01*
X302504D01*
X306406Y533407D01*
X309714Y535617D01*
X311924Y538925D01*
X312277Y540701D01*
X329945D01*
Y591882D01*
Y630278D01*
X331967Y630680D01*
X366649D01*
X891014Y106315D01*
X895570Y103270D01*
X900945Y102201D01*
X3251823D01*
X3257198Y103270D01*
X3261754Y106315D01*
X3452210Y296770D01*
X3563875D01*
X3565789Y292151D01*
X3561354Y287716D01*
X3556354Y289788D01*
Y291594D01*
X3495173D01*
Y246161D01*
X3556354D01*
Y254833D01*
X3562378D01*
X3567623Y255876D01*
X3567758Y255899D01*
X3572623Y253143D01*
Y140268D01*
X3573399Y136366D01*
X3575609Y133058D01*
X3578917Y130848D01*
X3582819Y130072D01*
X3626052D01*
X3628494Y124178D01*
X3634120Y118552D01*
X3641471Y115508D01*
X3649427D01*
X3656778Y118552D01*
X3662404Y124178D01*
X3664845Y130072D01*
X3702037D01*
X3704478Y124178D01*
X3710104Y118552D01*
X3717455Y115508D01*
X3725411D01*
X3732762Y118552D01*
X3738388Y124178D01*
X3740829Y130072D01*
X3775659D01*
X3778100Y124178D01*
X3783726Y118552D01*
X3791077Y115508D01*
X3799033D01*
X3806384Y118552D01*
X3812010Y124178D01*
X3814451Y130072D01*
X3832819D01*
X3836721Y130848D01*
X3840028Y133058D01*
X3842239Y136366D01*
X3843015Y140268D01*
Y225646D01*
X3842239Y229547D01*
X3840028Y232855D01*
X3836721Y235065D01*
X3832819Y235841D01*
X3773825D01*
Y251161D01*
X3773238Y254111D01*
X3771568Y256611D01*
X3769068Y258282D01*
X3766118Y258868D01*
X3761000D01*
X3758050Y258282D01*
X3755550Y256611D01*
X3751883D01*
X3749383Y258282D01*
X3746433Y258868D01*
X3741315D01*
X3738365Y258282D01*
X3735865Y256611D01*
X3732198D01*
X3729697Y258282D01*
X3726748Y258868D01*
X3721630D01*
X3718680Y258282D01*
X3716180Y256611D01*
X3712513D01*
X3710012Y258282D01*
X3707063Y258868D01*
X3701945D01*
X3698995Y258282D01*
X3696495Y256611D01*
X3692828D01*
X3690327Y258282D01*
X3687378Y258868D01*
X3682260D01*
X3679310Y258282D01*
X3676810Y256611D01*
X3673142D01*
X3670642Y258282D01*
X3667693Y258868D01*
X3663773D01*
X3663125Y260398D01*
X3662440Y261405D01*
X3661918Y262504D01*
X3658567Y267010D01*
X3658012Y267512D01*
X3657596Y268135D01*
X3656549Y268834D01*
X3655616Y269677D01*
X3654910Y269929D01*
X3654288Y270345D01*
X3653054Y270590D01*
X3651869Y271013D01*
X3649304Y272733D01*
X3647584Y275297D01*
X3647161Y276482D01*
X3646916Y277717D01*
X3646500Y278339D01*
X3646249Y279045D01*
X3645405Y279978D01*
X3644706Y281024D01*
X3644083Y281440D01*
X3643581Y281996D01*
X3639075Y285347D01*
X3637975Y285869D01*
X3636969Y286554D01*
X3635439Y287202D01*
Y291122D01*
X3634853Y294071D01*
X3633182Y296572D01*
Y300239D01*
X3634853Y302739D01*
X3635439Y305689D01*
Y310807D01*
X3634853Y313756D01*
X3633182Y316257D01*
Y319924D01*
X3634853Y322424D01*
X3635439Y325374D01*
Y330492D01*
X3634853Y333441D01*
X3633182Y335942D01*
X3630682Y337612D01*
X3627732Y338199D01*
X3620627D01*
X3616572Y340909D01*
X3611197Y341978D01*
X3605822Y340909D01*
X3605412Y340635D01*
X3593191D01*
X3587816Y339566D01*
X3587584Y339410D01*
X3440365D01*
X3434990Y338341D01*
X3430434Y335296D01*
X3239979Y144841D01*
X912789D01*
X388424Y669206D01*
X383868Y672251D01*
X378493Y673320D01*
X331967D01*
X329945Y673722D01*
Y690307D01*
Y729677D01*
Y763299D01*
X312277D01*
X311924Y765075D01*
X309714Y768383D01*
X306406Y770593D01*
X302504Y771369D01*
X281123D01*
X279881Y773735D01*
X279547Y776369D01*
X280291Y776960D01*
X281795Y778109D01*
X282287Y778668D01*
X282456Y778961D01*
X282711Y779183D01*
X283450Y780673D01*
X284283Y782109D01*
X284328Y782444D01*
X284478Y782748D01*
X284590Y784406D01*
X284810Y786052D01*
X284724Y786379D01*
X284746Y786717D01*
X284366Y789651D01*
X287667Y793407D01*
X305260D01*
X312732Y794390D01*
X319694Y797274D01*
X325673Y801862D01*
X330261Y807841D01*
X333145Y814804D01*
X334129Y822276D01*
X333145Y829747D01*
X330261Y836710D01*
X325673Y842689D01*
X319694Y847277D01*
X312732Y850161D01*
X312554Y850409D01*
X312700Y851145D01*
Y955804D01*
X585000D01*
X588902Y956580D01*
X592210Y958790D01*
X594420Y962098D01*
X595196Y966000D01*
Y1123000D01*
X594420Y1126902D01*
X592210Y1130210D01*
X588902Y1132420D01*
X585000Y1133196D01*
X281850D01*
X277949Y1132420D01*
X274641Y1130210D01*
X272431Y1126902D01*
X271654Y1123000D01*
Y1121031D01*
X197401D01*
Y1123000D01*
X196625Y1126902D01*
X194414Y1130210D01*
X191107Y1132420D01*
X187205Y1133196D01*
X179196D01*
Y1250000D01*
X178420Y1253902D01*
X176210Y1257210D01*
X172902Y1259420D01*
X169000Y1260196D01*
D02*
G37*
G36*
X3002858Y285728D02*
X2957425D01*
Y270431D01*
X2922479D01*
X2921441Y271125D01*
X2917224Y271963D01*
X2880413D01*
X2876197Y271125D01*
X2872622Y268736D01*
X2870233Y265161D01*
X2869395Y260945D01*
Y249330D01*
X2870233Y245114D01*
X2872622Y241539D01*
X2876197Y239150D01*
X2880413Y238312D01*
X2917224D01*
X2921441Y239150D01*
X2922479Y239844D01*
X2957425D01*
Y224547D01*
X3002858D01*
Y285728D01*
D02*
G37*
G36*
X3814347Y397254D02*
X3781276D01*
X3778326Y396667D01*
X3775826Y394997D01*
X3774155Y392496D01*
X3773568Y389547D01*
Y384429D01*
X3774155Y381479D01*
X3775826Y378979D01*
Y375312D01*
X3774155Y372811D01*
X3773568Y369862D01*
Y364744D01*
X3774155Y361794D01*
X3775826Y359294D01*
Y355627D01*
X3774155Y353126D01*
X3773568Y350177D01*
Y345059D01*
X3774155Y342109D01*
X3775826Y339609D01*
Y335942D01*
X3774155Y333441D01*
X3773568Y330492D01*
Y325374D01*
X3774155Y322424D01*
X3775826Y319924D01*
Y316257D01*
X3774155Y313756D01*
X3773568Y310807D01*
Y305689D01*
X3774155Y302739D01*
X3775826Y300239D01*
Y296571D01*
X3774155Y294071D01*
X3773568Y291122D01*
Y286004D01*
X3774155Y283054D01*
X3775826Y280554D01*
Y276886D01*
X3774155Y274386D01*
X3773568Y271437D01*
Y266319D01*
X3774155Y263369D01*
X3775826Y260869D01*
X3778326Y259198D01*
X3781276Y258611D01*
X3814347D01*
X3817296Y259198D01*
X3819796Y260869D01*
X3821467Y263369D01*
X3822054Y266319D01*
Y271437D01*
X3821467Y274386D01*
X3819796Y276887D01*
Y280554D01*
X3821467Y283054D01*
X3822054Y286004D01*
Y291122D01*
X3821467Y294071D01*
X3819796Y296572D01*
Y300239D01*
X3821467Y302739D01*
X3822054Y305689D01*
Y310807D01*
X3821467Y313756D01*
X3819796Y316257D01*
Y319924D01*
X3821467Y322424D01*
X3822054Y325374D01*
Y330492D01*
X3821467Y333441D01*
X3819796Y335942D01*
Y339609D01*
X3821467Y342109D01*
X3822054Y345059D01*
Y350177D01*
X3821467Y353126D01*
X3819796Y355627D01*
Y359294D01*
X3821467Y361794D01*
X3822054Y364744D01*
Y369862D01*
X3821467Y372811D01*
X3819796Y375312D01*
Y378979D01*
X3821467Y381479D01*
X3822054Y384429D01*
Y389547D01*
X3821467Y392496D01*
X3819796Y394997D01*
X3817296Y396667D01*
X3814347Y397254D01*
D02*
G37*
%LPD*%
G36*
X1109336Y3155426D02*
X1110360Y3150279D01*
X1110204Y3149118D01*
X1105753Y3142279D01*
X1025512D01*
Y3197469D01*
X772512D01*
Y3275077D01*
X1017409D01*
Y3251725D01*
X1078591D01*
Y3275077D01*
X1109336D01*
Y3155426D01*
D02*
G37*
G36*
X2010848Y3154957D02*
X2011778Y3150279D01*
X2010357Y3146872D01*
X2006951Y3142279D01*
X1926000D01*
Y3197469D01*
X1673000D01*
Y3275077D01*
X1918921D01*
Y3251256D01*
X1980102D01*
Y3275077D01*
X2010848D01*
Y3154957D01*
D02*
G37*
G36*
X2926848Y3152957D02*
X2927381Y3150279D01*
X2922347Y3142279D01*
X2835512D01*
Y3197469D01*
X2582512D01*
Y3275077D01*
X2834921D01*
Y3249256D01*
X2896102D01*
Y3275077D01*
X2926848D01*
Y3152957D01*
D02*
G37*
G36*
X3289512D02*
X3036176D01*
Y3249256D01*
X3289512D01*
Y3152957D01*
D02*
G37*
G36*
X2380000D02*
X2214726D01*
X2213490Y3153469D01*
X2205534D01*
X2204298Y3152957D01*
X2122000D01*
Y3249256D01*
X2380000D01*
Y3152957D01*
D02*
G37*
G36*
X1479512D02*
X1314346D01*
X1311978Y3153938D01*
X1304022D01*
X1301654Y3152957D01*
X1221512D01*
Y3249256D01*
X1479512D01*
Y3152957D01*
D02*
G37*
G36*
X1230850Y3109087D02*
Y3069717D01*
X1250015D01*
X1253113Y3067647D01*
X1258488Y3066578D01*
X1284292D01*
X1287202Y3063667D01*
X1292322Y3061546D01*
X1291328Y3056546D01*
X1258488D01*
X1252636Y3055382D01*
X1247810Y3052158D01*
X1230850D01*
Y3030347D01*
Y2994087D01*
X1097150D01*
Y3030347D01*
Y3071843D01*
X1080190D01*
X1075364Y3075067D01*
X1069512Y3076231D01*
X1028044D01*
X1025854Y3080510D01*
X1028168Y3085014D01*
X1069512D01*
X1075364Y3086178D01*
X1080190Y3089402D01*
X1097150D01*
Y3127788D01*
X1230850D01*
Y3109087D01*
D02*
G37*
G36*
X2132362Y3108618D02*
Y3069248D01*
X2151527D01*
X2154625Y3067178D01*
X2160000Y3066109D01*
X2186272D01*
X2189183Y3063198D01*
X2194303Y3061078D01*
X2193309Y3056078D01*
X2160000D01*
X2154147Y3054913D01*
X2149322Y3051689D01*
X2132362D01*
Y3029878D01*
Y2993618D01*
X1998661D01*
Y3029878D01*
Y3071374D01*
X1981702D01*
X1976876Y3074599D01*
X1971024Y3075763D01*
X1929556D01*
X1927366Y3080041D01*
X1929680Y3084545D01*
X1971024D01*
X1976876Y3085709D01*
X1981702Y3088933D01*
X1998661D01*
Y3127319D01*
X2132362D01*
Y3108618D01*
D02*
G37*
G36*
X3048362Y3106618D02*
Y3067248D01*
X3067527D01*
X3070625Y3065178D01*
X3076000Y3064109D01*
X3105686D01*
X3108596Y3061198D01*
X3113716Y3059078D01*
X3112722Y3054078D01*
X3076000D01*
X3070147Y3052913D01*
X3065322Y3049689D01*
X3048362D01*
Y3027878D01*
Y2991618D01*
X2914661D01*
Y3027878D01*
Y3069374D01*
X2897702D01*
X2892876Y3072599D01*
X2887024Y3073763D01*
X2845556D01*
X2843366Y3078041D01*
X2845680Y3082545D01*
X2887024D01*
X2892876Y3083709D01*
X2897702Y3086933D01*
X2914661D01*
Y3125319D01*
X3048362D01*
Y3106618D01*
D02*
G37*
G36*
X3820008Y1566000D02*
X3853000D01*
Y1429000D01*
X3808360D01*
X3805720Y1432217D01*
Y1482413D01*
X3804988Y1486092D01*
X3802904Y1489211D01*
X3799785Y1491295D01*
X3798113Y1491628D01*
Y1520181D01*
X3796949Y1526034D01*
X3793633Y1530996D01*
X3772814Y1551814D01*
X3767853Y1555130D01*
X3762000Y1556294D01*
X3734154D01*
X3730008Y1560440D01*
Y1910000D01*
X3820008D01*
Y1566000D01*
D02*
G37*
G36*
X169000Y1123000D02*
X187205D01*
Y1110835D01*
X281850D01*
Y1123000D01*
X585000D01*
Y966000D01*
X338000D01*
X312700D01*
Y981000D01*
X311924Y984902D01*
X309714Y988210D01*
X306406Y990420D01*
X302504Y991196D01*
X180196D01*
Y1028000D01*
X179420Y1031902D01*
X177210Y1035210D01*
X176603Y1035816D01*
X173296Y1038026D01*
X169394Y1038802D01*
X95008D01*
Y1250000D01*
X169000D01*
Y1123000D01*
D02*
G37*
G36*
X170000Y1028000D02*
Y981000D01*
X302504D01*
Y851145D01*
X254079D01*
X246607Y850161D01*
X239644Y847277D01*
X233665Y842689D01*
X229077Y836710D01*
X226193Y829747D01*
X225210Y822276D01*
X226193Y814804D01*
X229077Y807841D01*
X233665Y801862D01*
X239644Y797274D01*
X246607Y794390D01*
X254079Y793407D01*
X273598D01*
X274635Y785407D01*
X274143Y784848D01*
X267063Y781207D01*
X263722Y782591D01*
X257034D01*
X250855Y780031D01*
X246126Y775302D01*
X243567Y769123D01*
Y762436D01*
X246126Y756257D01*
X250855Y751528D01*
X257034Y748968D01*
X263722D01*
X269901Y751528D01*
X274630Y756257D01*
X276666Y761173D01*
X302504D01*
Y731803D01*
X275063D01*
Y690307D01*
Y650937D01*
Y611567D01*
Y572197D01*
X302504D01*
Y542827D01*
X276666D01*
X274630Y547743D01*
X269901Y552472D01*
X263722Y555032D01*
X257034D01*
X250855Y552472D01*
X246126Y547743D01*
X243567Y541564D01*
Y538221D01*
X95008D01*
Y793407D01*
X141087D01*
X148559Y794390D01*
X155521Y797274D01*
X161500Y801862D01*
X166088Y807841D01*
X168972Y814804D01*
X169956Y822276D01*
X168972Y829747D01*
X166088Y836710D01*
X161500Y842689D01*
X155521Y847277D01*
X148559Y850161D01*
X141087Y851145D01*
X95008D01*
Y1028606D01*
X169394D01*
X170000Y1028000D01*
D02*
G37*
G36*
X3632990Y277166D02*
X3637496Y273815D01*
Y260925D01*
X3650386D01*
X3653737Y256419D01*
X3655218Y252925D01*
X3654868Y251161D01*
Y218090D01*
X3655454Y215141D01*
X3657125Y212641D01*
X3659625Y210970D01*
X3662575Y210383D01*
X3667693D01*
X3670642Y210970D01*
X3670643Y210970D01*
X3673143Y212641D01*
X3676810Y212640D01*
X3679310Y210970D01*
X3679310Y210970D01*
X3682260Y210383D01*
X3687378D01*
X3690327Y210970D01*
X3692828Y212641D01*
X3696495Y212640D01*
X3698995Y210970D01*
X3701945Y210383D01*
X3707063D01*
X3710012Y210970D01*
X3712513Y212641D01*
X3716180Y212640D01*
X3718680Y210970D01*
X3721630Y210383D01*
X3726748D01*
X3729697Y210970D01*
X3732198Y212641D01*
X3735865Y212640D01*
X3738366Y210970D01*
X3741315Y210383D01*
X3746433D01*
X3749383Y210970D01*
X3751883Y212641D01*
X3755550Y212640D01*
X3758051Y210970D01*
X3761000Y210383D01*
X3766118D01*
X3769068Y210970D01*
X3771568Y212641D01*
X3773238Y215141D01*
X3773825Y218090D01*
Y225646D01*
X3832819D01*
Y140268D01*
X3582819D01*
Y269456D01*
X3587881Y274518D01*
X3611197D01*
X3616572Y275587D01*
X3620627Y278296D01*
X3627732D01*
X3629496Y278647D01*
X3632990Y277166D01*
D02*
G37*
D10*
X302504Y777984D02*
D03*
Y746488D02*
D03*
Y557512D02*
D03*
Y526016D02*
D03*
D11*
Y661842D02*
D03*
Y681528D02*
D03*
Y701213D02*
D03*
Y720898D02*
D03*
Y642158D02*
D03*
Y622472D02*
D03*
Y602787D02*
D03*
Y583102D02*
D03*
D12*
X3232819Y292539D02*
D03*
X3149354Y255137D02*
D03*
Y329941D02*
D03*
X2898819Y255137D02*
D03*
Y329941D02*
D03*
X2815354Y292539D02*
D03*
D13*
X464843Y1043000D02*
D03*
D14*
X234528Y952449D02*
D03*
Y1043000D02*
D03*
Y1133551D02*
D03*
D15*
X3507945Y2135543D02*
D03*
X3866213D02*
D03*
X3507945Y1982000D02*
D03*
X3866213D02*
D03*
D16*
X3578882Y1171882D02*
D03*
X3523764Y1116764D02*
D03*
Y1171882D02*
D03*
Y1227000D02*
D03*
X3578882Y1116764D02*
D03*
Y1227000D02*
D03*
X3634000Y1116764D02*
D03*
Y1171882D02*
D03*
Y1227000D02*
D03*
D17*
X3882819Y1457315D02*
D03*
X3832819D02*
D03*
X3782819D02*
D03*
X3732819D02*
D03*
X3682819D02*
D03*
X3632819D02*
D03*
X3582819D02*
D03*
X3532819D02*
D03*
X3482819D02*
D03*
X3432819D02*
D03*
X3382819D02*
D03*
X3332819D02*
D03*
X3282819D02*
D03*
X3232819D02*
D03*
Y768339D02*
D03*
X3282819D02*
D03*
X3332819D02*
D03*
X3382819D02*
D03*
X3432819D02*
D03*
X3482819D02*
D03*
X3532819D02*
D03*
X3582819D02*
D03*
X3632819D02*
D03*
X3682819D02*
D03*
X3732819D02*
D03*
X3782819D02*
D03*
X3832819D02*
D03*
X3882819D02*
D03*
D18*
X3183606Y1287827D02*
D03*
Y1237827D02*
D03*
Y1187827D02*
D03*
Y1137827D02*
D03*
Y1087827D02*
D03*
Y1037827D02*
D03*
Y987827D02*
D03*
Y937827D02*
D03*
Y887827D02*
D03*
Y1337827D02*
D03*
D19*
X3704504Y327933D02*
D03*
X2065512Y3060469D02*
D03*
X1164000Y3060938D02*
D03*
X2981512Y3058469D02*
D03*
D20*
X3645449Y421240D02*
D03*
X3665134D02*
D03*
X3684819D02*
D03*
X3704504D02*
D03*
X3724189D02*
D03*
X3743874D02*
D03*
X3763559D02*
D03*
Y234626D02*
D03*
X3743874D02*
D03*
X3724189D02*
D03*
X3704504D02*
D03*
X3684819D02*
D03*
X3665134D02*
D03*
X3645449D02*
D03*
D21*
X3797811Y386988D02*
D03*
Y367303D02*
D03*
Y347618D02*
D03*
Y327933D02*
D03*
Y308248D02*
D03*
Y288563D02*
D03*
Y268878D02*
D03*
X3611197D02*
D03*
Y288563D02*
D03*
Y308248D02*
D03*
Y327933D02*
D03*
Y347618D02*
D03*
Y367303D02*
D03*
Y386988D02*
D03*
D22*
X2124567Y3154957D02*
D03*
X2104882D02*
D03*
X2085197D02*
D03*
X2065512D02*
D03*
X2045827D02*
D03*
X2026142D02*
D03*
X2006457D02*
D03*
X2124567Y2965981D02*
D03*
X2104882D02*
D03*
X2085197D02*
D03*
X2065512D02*
D03*
X2045827D02*
D03*
X2026142D02*
D03*
X2006457D02*
D03*
X1104945Y2966449D02*
D03*
X1124630D02*
D03*
X1144315D02*
D03*
X1164000D02*
D03*
X1183685D02*
D03*
X1203370D02*
D03*
X1223055D02*
D03*
X1104945Y3155426D02*
D03*
X1124630D02*
D03*
X1144315D02*
D03*
X1164000D02*
D03*
X1183685D02*
D03*
X1203370D02*
D03*
X1223055D02*
D03*
X3040567Y3152957D02*
D03*
X3020882D02*
D03*
X3001197D02*
D03*
X2981512D02*
D03*
X2961827D02*
D03*
X2942142D02*
D03*
X2922457D02*
D03*
X3040567Y2963981D02*
D03*
X3020882D02*
D03*
X3001197D02*
D03*
X2981512D02*
D03*
X2961827D02*
D03*
X2942142D02*
D03*
X2922457D02*
D03*
D23*
X2160000Y3119524D02*
D03*
Y3099839D02*
D03*
Y3080154D02*
D03*
Y3060469D02*
D03*
Y3040784D02*
D03*
Y3021099D02*
D03*
Y3001414D02*
D03*
X1971024Y3119524D02*
D03*
Y3099839D02*
D03*
Y3080154D02*
D03*
Y3060469D02*
D03*
Y3040784D02*
D03*
Y3021099D02*
D03*
Y3001414D02*
D03*
X1069512Y3001883D02*
D03*
Y3021568D02*
D03*
Y3041253D02*
D03*
Y3060938D02*
D03*
Y3080623D02*
D03*
Y3100308D02*
D03*
Y3119993D02*
D03*
X1258488Y3001883D02*
D03*
Y3021568D02*
D03*
Y3041253D02*
D03*
Y3060938D02*
D03*
Y3080623D02*
D03*
Y3100308D02*
D03*
Y3119993D02*
D03*
X3076000Y3117524D02*
D03*
Y3097839D02*
D03*
Y3078154D02*
D03*
Y3058469D02*
D03*
Y3038784D02*
D03*
Y3019099D02*
D03*
Y2999414D02*
D03*
X2887024Y3117524D02*
D03*
Y3097839D02*
D03*
Y3078154D02*
D03*
Y3058469D02*
D03*
Y3038784D02*
D03*
Y3019099D02*
D03*
Y2999414D02*
D03*
D24*
X3757016Y1596000D02*
D03*
X3883000D02*
D03*
X3757016Y1870000D02*
D03*
X3883000D02*
D03*
X3757016Y1780000D02*
D03*
X3883000D02*
D03*
X3757016Y1688000D02*
D03*
X3883000D02*
D03*
D25*
X136346Y1284000D02*
D03*
X53669D02*
D03*
X849953Y2952764D02*
D03*
X932630D02*
D03*
X1423307Y3001764D02*
D03*
X1340630D02*
D03*
Y3080623D02*
D03*
X1423307D02*
D03*
X2750142Y2950296D02*
D03*
X2667465D02*
D03*
X3158142Y2999296D02*
D03*
X3240819D02*
D03*
Y3078154D02*
D03*
X3158142D02*
D03*
X1834142Y2952296D02*
D03*
X1751465D02*
D03*
X2242142Y3001296D02*
D03*
X2324819D02*
D03*
Y3080154D02*
D03*
X2242142D02*
D03*
X3682819Y1671819D02*
D03*
X3600142D02*
D03*
X3866213Y2234772D02*
D03*
X3783535D02*
D03*
X3682819Y1596000D02*
D03*
X3600142D02*
D03*
X2980142Y255137D02*
D03*
X3062819D02*
D03*
Y329941D02*
D03*
X2980142D02*
D03*
X136346Y998606D02*
D03*
X53669D02*
D03*
X136346Y927268D02*
D03*
X53669D02*
D03*
X136346Y1142000D02*
D03*
X53669D02*
D03*
X136346Y1069000D02*
D03*
X53669D02*
D03*
X136346Y1215000D02*
D03*
X53669D02*
D03*
D26*
X2194882Y3319453D02*
D03*
X2155512D02*
D03*
X1097000Y3323938D02*
D03*
X1057630D02*
D03*
X1254000Y3319922D02*
D03*
X1293370D02*
D03*
X2875142Y3321469D02*
D03*
X2914512D02*
D03*
X3110882Y3317453D02*
D03*
X3071512D02*
D03*
X1959142Y3323469D02*
D03*
X1998512D02*
D03*
D27*
X932630Y3014426D02*
D03*
Y3097103D02*
D03*
X1011945Y2694426D02*
D03*
Y2777103D02*
D03*
X1340630Y3276615D02*
D03*
Y3193938D02*
D03*
X797156Y3311158D02*
D03*
Y3228481D02*
D03*
X872156D02*
D03*
Y3311158D02*
D03*
X1269000Y3193938D02*
D03*
Y3276615D02*
D03*
X1048000Y3191764D02*
D03*
Y3274442D02*
D03*
X1292000Y2694426D02*
D03*
Y2777103D02*
D03*
X1361000Y2694426D02*
D03*
Y2777103D02*
D03*
X864000Y3097103D02*
D03*
Y3014426D02*
D03*
X1081260Y2694426D02*
D03*
Y2777103D02*
D03*
X1152260Y2694426D02*
D03*
Y2777103D02*
D03*
X1222630Y2694426D02*
D03*
Y2777103D02*
D03*
X2750142Y3094634D02*
D03*
Y3011957D02*
D03*
X2829457Y2774634D02*
D03*
Y2691957D02*
D03*
X3158142Y3191469D02*
D03*
Y3274146D02*
D03*
X2614668Y3226012D02*
D03*
Y3308689D02*
D03*
X2689668D02*
D03*
Y3226012D02*
D03*
X3086512Y3274146D02*
D03*
Y3191469D02*
D03*
X2865512Y3271973D02*
D03*
Y3189296D02*
D03*
X3109512Y2774634D02*
D03*
Y2691957D02*
D03*
X3178512Y2774634D02*
D03*
Y2691957D02*
D03*
X2681512Y3011957D02*
D03*
Y3094634D02*
D03*
X2898772Y2774634D02*
D03*
Y2691957D02*
D03*
X2969772Y2774634D02*
D03*
Y2691957D02*
D03*
X3040142Y2774634D02*
D03*
Y2691957D02*
D03*
X1834142Y3096634D02*
D03*
Y3013957D02*
D03*
X1913457Y2776634D02*
D03*
Y2693957D02*
D03*
X2242142Y3193469D02*
D03*
Y3276146D02*
D03*
X1698668Y3228012D02*
D03*
Y3310689D02*
D03*
X1773668D02*
D03*
Y3228012D02*
D03*
X2170512Y3276146D02*
D03*
Y3193469D02*
D03*
X1949512Y3273973D02*
D03*
Y3191296D02*
D03*
X2193512Y2776634D02*
D03*
Y2693957D02*
D03*
X2262512Y2776634D02*
D03*
Y2693957D02*
D03*
X1765512Y3013957D02*
D03*
Y3096634D02*
D03*
X1982772Y2776634D02*
D03*
Y2693957D02*
D03*
X2053772Y2776634D02*
D03*
Y2693957D02*
D03*
X2124142Y2776634D02*
D03*
Y2693957D02*
D03*
X566221Y2798595D02*
D03*
Y2881272D02*
D03*
X657221Y2799595D02*
D03*
Y2882272D02*
D03*
X3525764Y268878D02*
D03*
Y186201D02*
D03*
X3682819Y542323D02*
D03*
Y625000D02*
D03*
D28*
X957612Y3352434D02*
D03*
Y3226450D02*
D03*
X1422630Y3319922D02*
D03*
Y3193938D02*
D03*
X2775124Y3223981D02*
D03*
Y3349965D02*
D03*
X3240142Y3191469D02*
D03*
Y3317453D02*
D03*
X1859124Y3225981D02*
D03*
Y3351965D02*
D03*
X2324142Y3193469D02*
D03*
Y3319453D02*
D03*
D29*
X3721433Y176846D02*
D03*
Y94169D02*
D03*
X3645449D02*
D03*
Y176846D02*
D03*
X3795055Y94169D02*
D03*
Y176846D02*
D03*
D30*
X1051000Y454165D02*
Y1287827D01*
X3227000Y1626000D02*
X3332819Y1520181D01*
X2253000Y1626000D02*
X3227000D01*
X2184913Y1557913D02*
X2253000Y1626000D01*
X2184913Y1436134D02*
X2233220Y1387827D01*
X2184913Y1436134D02*
Y1557913D01*
X2571122Y1566000D02*
X2817087D01*
X2233220Y1487827D02*
X2492949D01*
X2571122Y1566000D01*
X2068874Y1158126D02*
X2135000Y1092000D01*
X2871000D01*
X2068874Y1158126D02*
Y1423480D01*
X2133220Y1487827D01*
X2871000Y1092000D02*
X3075173Y887827D01*
X3507945Y2135543D02*
X3866213D01*
X3507945Y1982000D02*
X3682819D01*
X3160197Y774197D02*
X3245796Y859796D01*
X3031651Y401651D02*
X3160197Y530197D01*
Y774197D01*
X3721433Y1021000D02*
Y1367520D01*
X3682819Y1406134D02*
X3721433Y1367520D01*
X3781437Y1455933D02*
X3782819Y1457315D01*
X3781437Y930178D02*
Y1455933D01*
X3282819Y768339D02*
Y1353000D01*
X3247000Y1541000D02*
X3282819Y1505181D01*
X3332819Y1457315D02*
Y1520181D01*
X3025000Y1541000D02*
X3247000D01*
X3282819Y1457315D02*
Y1505181D01*
X3706480Y1520181D02*
X3717819D01*
X3732819Y1505181D01*
Y1457315D02*
Y1505181D01*
X3075173Y887827D02*
X3183606D01*
X3682819Y1406134D02*
Y1457315D01*
X3832819Y715000D02*
Y768339D01*
X3532819Y715000D02*
Y768339D01*
X3432819Y692323D02*
Y768339D01*
X3482819Y704465D02*
Y768339D01*
X3382819D02*
Y859796D01*
X3332819Y768339D02*
Y831181D01*
X3232819Y715000D02*
Y768339D01*
Y292539D02*
Y715000D01*
X3245796Y859796D02*
Y928796D01*
X2980142Y329941D02*
X3021480D01*
X3724189Y421240D02*
Y458680D01*
X3742508Y477000D01*
X2861762Y401651D02*
X3031651D01*
X2815354Y355244D02*
X2861762Y401651D01*
X2815354Y292539D02*
Y355244D01*
X3704504Y421240D02*
Y502494D01*
X3732819Y530809D02*
Y768339D01*
X3704504Y502494D02*
X3732819Y530809D01*
X3682819Y542323D02*
X3684819Y540323D01*
Y421240D02*
Y540323D01*
X3267819Y255137D02*
X3433921Y421240D01*
X3645449D01*
X3149354Y255137D02*
X3267819D01*
X2898819Y329941D02*
X2980142D01*
X2898819Y255137D02*
X2980142D01*
X3062819D02*
X3149354D01*
X3062819Y329941D02*
X3149354D01*
X2767000Y1488000D02*
X2972000D01*
X3025000Y1541000D01*
X3094315Y1457315D02*
X3232819D01*
X3025000Y1388000D02*
X3094315Y1457315D01*
X2767000Y1388000D02*
X3025000D01*
X3070000Y970858D02*
X3103031Y937827D01*
X3070000Y970858D02*
Y1096197D01*
X3103031Y937827D02*
X3183606D01*
X2978197Y1188000D02*
X3070000Y1096197D01*
X2767000Y1188000D02*
X2978197D01*
X2767087Y1287913D02*
X3183520D01*
X2767000Y1288000D02*
X2767087Y1287913D01*
X3183520D02*
X3183606Y1287827D01*
X53669Y1215000D02*
Y1284000D01*
X3682819Y1982000D02*
X3866213D01*
X3682819Y1671819D02*
Y1982000D01*
Y625000D02*
Y768339D01*
Y1596000D02*
Y1671819D01*
X3782819Y1457315D02*
Y1520181D01*
X3762000Y1541000D02*
X3782819Y1520181D01*
X3727819Y1541000D02*
X3762000D01*
X3712819Y1556000D02*
X3727819Y1541000D01*
X3706480Y1596000D02*
X3712819Y1589661D01*
Y1556000D02*
Y1589661D01*
X3682819Y1596000D02*
X3706480D01*
X3866213Y2135543D02*
Y2234772D01*
X3744079D02*
X3783535D01*
X567097Y2798595D02*
X567221Y2798719D01*
X657221D01*
X566221Y2881272D02*
Y3223000D01*
X657221Y2882272D02*
Y2924083D01*
X1051197Y3164906D02*
Y3188567D01*
X1060677Y3155426D02*
X1104945D01*
X1048000Y3191764D02*
X1051197Y3188567D01*
X967331Y3041253D02*
X1069512D01*
X977202Y3060938D02*
X1069512D01*
X1222630Y2777103D02*
Y2843764D01*
X1152260Y2735764D02*
Y2777103D01*
Y2865796D01*
X1144315Y2873741D02*
X1152260Y2865796D01*
X1081260Y2777103D02*
Y2820394D01*
X1124630Y2863764D01*
X1081260Y2735764D02*
Y2777103D01*
X1222630Y2735764D02*
Y2777103D01*
X1164000Y2902394D02*
X1222630Y2843764D01*
X1144315Y2873741D02*
Y2966449D01*
X1104945Y2902198D02*
Y2966449D01*
X1011945Y2809197D02*
X1104945Y2902198D01*
X1124630Y2863764D02*
Y2966449D01*
X1011945Y2777103D02*
Y2809197D01*
X1164000Y2902394D02*
Y2966449D01*
X814000Y2952764D02*
X849953D01*
X932630D02*
X967331D01*
X932630Y3097103D02*
X945346Y3084386D01*
X953753D02*
X977202Y3060938D01*
X945346Y3084386D02*
X953753D01*
X940504Y3014426D02*
X967331Y3041253D01*
X857706Y3090809D02*
X864000Y3097103D01*
X817978Y3090809D02*
X857706D01*
X932630Y3014426D02*
X940504D01*
X967331Y2952764D02*
X1036134Y3021568D01*
X1258488Y3155426D02*
X1269000Y3165938D01*
X1203370Y3155426D02*
Y3309016D01*
X1223055Y3155426D02*
X1258488D01*
X1203370Y3309016D02*
X1214276Y3319922D01*
X1254000D01*
X1269000Y3165938D02*
Y3193938D01*
X1423307Y2960961D02*
Y3001764D01*
X1204276Y2936647D02*
X1292000Y2848923D01*
X1183685Y2921883D02*
X1203370Y2902198D01*
X1183685Y2921883D02*
Y2966449D01*
X1204276Y2936647D02*
Y2965544D01*
X1340630Y3001764D02*
Y3041253D01*
Y3080623D01*
X1269000Y2977128D02*
Y3000977D01*
X1268094Y3001883D02*
X1269000Y3000977D01*
X1258488Y3041253D02*
X1340630D01*
X1258488Y3001883D02*
X1268094D01*
X1223961Y2948812D02*
X1229532D01*
X1223055Y2949717D02*
Y2966449D01*
Y2949717D02*
X1223961Y2948812D01*
X1203370Y2966449D02*
X1204276Y2965544D01*
X1229532Y2948812D02*
X1361406Y2816938D01*
X1051197Y3164906D02*
X1060677Y3155426D01*
X1017303Y3100308D02*
X1069512D01*
X1036134Y3021568D02*
X1069512D01*
X1007804Y3090809D02*
X1017303Y3100308D01*
X1292000Y2777103D02*
Y2848923D01*
X1097000Y3323938D02*
X1112315D01*
X1124630Y3311623D01*
X1361000Y2777103D02*
X1361406Y2777509D01*
Y2816938D01*
X1361000Y2694426D02*
X1405512D01*
X1124630Y3155426D02*
Y3311623D01*
X1952709Y3164437D02*
Y3188098D01*
X1949512Y3191296D02*
X1952709Y3188098D01*
Y3164437D02*
X1962189Y3154957D01*
X2262512Y2693957D02*
X2307024D01*
X1998512Y3323469D02*
X2013827D01*
X2115787Y3319453D02*
X2155512D01*
X2104882Y3308548D02*
X2115787Y3319453D01*
X2026142Y3154957D02*
Y3311154D01*
X2104882Y3154957D02*
Y3308548D01*
X2013827Y3323469D02*
X2026142Y3311154D01*
X1913457Y2776634D02*
Y2808729D01*
X2006457Y2901729D01*
X1982772Y2776634D02*
Y2819925D01*
Y2735296D02*
Y2776634D01*
Y2819925D02*
X2026142Y2863296D01*
X2006457Y2901729D02*
Y2965981D01*
X1878714Y3060469D02*
X1971024D01*
X1918815Y3099839D02*
X1971024D01*
X1855265Y3083918D02*
X1878714Y3060469D01*
X1868842Y3040784D02*
X1971024D01*
X1909316Y3090340D02*
X1918815Y3099839D01*
X1962189Y3154957D02*
X2006457D01*
X1937646Y3021099D02*
X1971024D01*
X1834142Y3096634D02*
X1846858Y3083918D01*
X1855265D01*
X1842016Y3013957D02*
X1868842Y3040784D01*
X1834142Y2952296D02*
X1868842D01*
X1937646Y3021099D01*
X1834142Y3013957D02*
X1842016D01*
X1715512Y2952296D02*
X1751465D01*
X1719490Y3090340D02*
X1759218D01*
X1765512Y3096634D01*
X2242142Y3040784D02*
Y3080154D01*
X2160000Y3040784D02*
X2242142D01*
X2324819Y2960492D02*
Y3001296D01*
X2242142D02*
Y3040784D01*
X2124142Y2735296D02*
Y2776634D01*
X2053772Y2735296D02*
Y2776634D01*
X2262512D02*
X2262918Y2777040D01*
X2170512Y3165469D02*
Y3193469D01*
X2124567Y3154957D02*
X2160000D01*
X2170512Y3165469D01*
Y2976659D02*
Y3000508D01*
X2169606Y3001414D02*
X2170512Y3000508D01*
X2160000Y3001414D02*
X2169606D01*
X2262918Y2777040D02*
Y2816469D01*
X2131044Y2948343D02*
X2262918Y2816469D01*
X2193512Y2776634D02*
Y2848454D01*
X2105787Y2936178D02*
X2193512Y2848454D01*
X2124567Y2949248D02*
Y2965981D01*
Y2949248D02*
X2125472Y2948343D01*
X2104882Y2965981D02*
X2105787Y2965075D01*
X2026142Y2863296D02*
Y2965981D01*
X2125472Y2948343D02*
X2131044D01*
X2124142Y2776634D02*
Y2843296D01*
X2045827Y2873272D02*
Y2965981D01*
Y2873272D02*
X2053772Y2865327D01*
X2065512Y2901925D02*
X2124142Y2843296D01*
X2053772Y2776634D02*
Y2865327D01*
X2105787Y2936178D02*
Y2965075D01*
X2085197Y2921414D02*
X2104882Y2901729D01*
X2085197Y2921414D02*
Y2965981D01*
X2065512Y2901925D02*
Y2965981D01*
X3240819Y2958492D02*
Y2999296D01*
X3178512Y2691957D02*
X3223024D01*
X3158142Y2999296D02*
Y3038784D01*
X3040567Y3152957D02*
X3076000D01*
X3158142Y3038784D02*
Y3078154D01*
X3076000Y3038784D02*
X3158142D01*
X3001197Y2919414D02*
Y2963981D01*
X2981512Y2899925D02*
Y2963981D01*
X2961827Y2871272D02*
X2969772Y2863327D01*
X2961827Y2871272D02*
Y2963981D01*
X3178918Y2775040D02*
Y2814469D01*
X3178512Y2774634D02*
X3178918Y2775040D01*
X3109512Y2774634D02*
Y2846454D01*
X3076000Y3152957D02*
X3086512Y3163469D01*
Y3191469D01*
X3021787Y2934178D02*
Y2963075D01*
Y2934178D02*
X3109512Y2846454D01*
X3047044Y2946343D02*
X3178918Y2814469D01*
X3040567Y2947248D02*
X3041472Y2946343D01*
X3040567Y2947248D02*
Y2963981D01*
X3086512Y2974659D02*
Y2998508D01*
X3041472Y2946343D02*
X3047044D01*
X3020882Y2963981D02*
X3021787Y2963075D01*
X3085606Y2999414D02*
X3086512Y2998508D01*
X3076000Y2999414D02*
X3085606D01*
X3040142Y2733296D02*
Y2774634D01*
Y2841296D01*
X2981512Y2899925D02*
X3040142Y2841296D01*
X3001197Y2919414D02*
X3020882Y2899729D01*
X2969772Y2774634D02*
Y2863327D01*
Y2733296D02*
Y2774634D01*
X2675218Y3088340D02*
X2681512Y3094634D01*
X2631512Y2950296D02*
X2667465D01*
X2635490Y3088340D02*
X2675218D01*
X2898772Y2733296D02*
Y2774634D01*
Y2817925D02*
X2942142Y2861296D01*
X2898772Y2774634D02*
Y2817925D01*
X3020882Y3306548D02*
X3031787Y3317453D01*
X3020882Y3152957D02*
Y3306548D01*
X3031787Y3317453D02*
X3071512D01*
X2784842Y2950296D02*
X2853646Y3019099D01*
X2784842Y3038784D02*
X2887024D01*
X2794714Y3058469D02*
X2887024D01*
X2868709Y3162437D02*
Y3186098D01*
Y3162437D02*
X2878189Y3152957D01*
X2922457D01*
X2865512Y3189296D02*
X2868709Y3186098D01*
X2914512Y3321469D02*
X2929827D01*
X2942142Y3152957D02*
Y3309154D01*
X2929827Y3321469D02*
X2942142Y3309154D01*
X2834815Y3097839D02*
X2887024D01*
X2825316Y3088340D02*
X2834815Y3097839D01*
X2853646Y3019099D02*
X2887024D01*
X2750142Y2950296D02*
X2784842D01*
X2771265Y3081918D02*
X2794714Y3058469D01*
X2750142Y3094634D02*
X2762858Y3081918D01*
X2771265D01*
X2758016Y3011957D02*
X2784842Y3038784D01*
X2750142Y3011957D02*
X2758016D01*
X2942142Y2861296D02*
Y2963981D01*
X2922457Y2899729D02*
Y2963981D01*
X2829457Y2774634D02*
Y2806729D01*
X2922457Y2899729D01*
D31*
X3119925Y2948734D02*
X3418000Y2650659D01*
X3119925Y2948734D02*
Y3009709D01*
X3418000Y1820142D02*
Y2650659D01*
X3110535Y3019099D02*
X3119925Y3009709D01*
X3564461Y1571899D02*
X3632819Y1503542D01*
Y1457315D02*
Y1503542D01*
X3564461Y1571899D02*
Y1673680D01*
X3418000Y1820142D02*
X3564461Y1673680D01*
X3064512Y2071000D02*
X3532819Y1602693D01*
Y1457315D02*
Y1602693D01*
X3074000Y1988819D02*
Y1992000D01*
X3484394Y1458890D02*
Y1578425D01*
X3074000Y1988819D02*
X3484394Y1578425D01*
X2532000Y2071000D02*
X3064512D01*
X1738000Y1957000D02*
X3035661D01*
X3432819Y1559842D01*
Y1457315D02*
Y1559842D01*
X3076000Y3019099D02*
X3110535D01*
X3582819Y1457315D02*
Y1505181D01*
X3025000Y1897480D02*
X3382819Y1539661D01*
X3025000Y1897480D02*
Y1898000D01*
X3382819Y1457315D02*
Y1539661D01*
X2348480Y2254520D02*
X2532000Y2071000D01*
X1446968Y2248032D02*
X1738000Y1957000D01*
X2348480Y2254520D02*
Y2803599D01*
X2200512Y2951567D02*
X2348480Y2803599D01*
X2200512Y2951567D02*
Y3009560D01*
X2162131Y3018968D02*
X2191103D01*
X2160000Y3021099D02*
X2162131Y3018968D01*
X2191103D02*
X2200512Y3009560D01*
X3482819Y1457315D02*
X3484394Y1458890D01*
X1446968Y2248032D02*
Y2792486D01*
X1298531Y2940923D02*
X1446968Y2792486D01*
X1298531Y2940923D02*
Y3015487D01*
X1292451Y3021568D02*
X1298531Y3015487D01*
X1258488Y3021568D02*
X1292451D01*
X3632819Y675000D02*
Y768339D01*
X3582819Y625000D02*
X3632819Y675000D01*
X3782819Y715000D02*
Y768339D01*
X900945Y116246D02*
X3251823D01*
X906972Y130796D02*
X3245796D01*
X372466Y644725D02*
X900945Y116246D01*
X378493Y659275D02*
X906972Y130796D01*
X3446392Y310815D02*
X3591967D01*
X3251823Y116246D02*
X3446392Y310815D01*
X3245796Y130796D02*
X3440365Y325365D01*
X3591967D01*
X3609854Y309591D02*
X3611197Y308248D01*
X3591967Y310815D02*
X3593191Y309591D01*
X3609854D01*
X3591967Y325365D02*
X3593191Y326590D01*
X3609854D01*
X3611197Y327933D01*
X330207Y644725D02*
X372466D01*
X329770Y644288D02*
X330207Y644725D01*
X304635Y644288D02*
X329770D01*
X302504Y642158D02*
X304635Y644288D01*
X329770Y659712D02*
X330207Y659275D01*
X304635Y659712D02*
X329770D01*
X302504Y661842D02*
X304635Y659712D01*
X330207Y659275D02*
X378493D01*
X1258488Y3080623D02*
X1298531D01*
X2160000Y3080154D02*
X2200512D01*
X3076000Y3078154D02*
X3119925D01*
X3582063Y288563D02*
X3611197D01*
X3525764Y268878D02*
X3562378D01*
X3582063Y288563D01*
D32*
X2992512Y3418469D02*
X3158087Y3584044D01*
Y3782000D01*
X2858087Y3531894D02*
X2971512Y3418469D01*
X2858087Y3531894D02*
Y3782000D01*
X1175000Y3420938D02*
X1336134Y3582071D01*
Y3784469D01*
X1036134Y3538804D02*
Y3784469D01*
Y3538804D02*
X1154000Y3420938D01*
X1928000Y3547981D02*
X2055512Y3420469D01*
X1928000Y3547981D02*
Y3784000D01*
X2076512Y3192121D02*
Y3419512D01*
X2228000Y3571000D02*
Y3784000D01*
X2076512Y3419512D02*
X2228000Y3571000D01*
X565221Y3224000D02*
X566221Y3223000D01*
X994000Y3137938D02*
X1011945Y3119993D01*
X1175000Y3192590D02*
X1183685Y3183905D01*
X1144315Y3184253D02*
X1154000Y3193938D01*
X1144315Y3155426D02*
Y3184253D01*
X1183685Y3155426D02*
Y3183905D01*
X1258488Y3119993D02*
X1294055D01*
X1308000Y3133938D01*
X1011945Y3119993D02*
X1069512D01*
X1154000Y3193938D02*
Y3420938D01*
X1175000Y3192590D02*
Y3420938D01*
X1895512Y3137469D02*
X1913457Y3119524D01*
X1971024D01*
X2055512Y3193469D02*
Y3420469D01*
X2160000Y3119524D02*
X2195567D01*
X2209512Y3133469D01*
X2085197Y3154957D02*
Y3183436D01*
X2045827Y3154957D02*
Y3183784D01*
X2055512Y3193469D01*
X2076512Y3192121D02*
X2085197Y3183436D01*
X3076000Y3117524D02*
X3111567D01*
X3125512Y3131469D01*
X2992512Y3190121D02*
X3001197Y3181436D01*
Y3152957D02*
Y3181436D01*
X2992512Y3190121D02*
Y3418469D01*
X2811512Y3135469D02*
X2829457Y3117524D01*
X2971512Y3191469D02*
Y3418469D01*
X2961827Y3152957D02*
Y3181784D01*
X2971512Y3191469D01*
X2829457Y3117524D02*
X2887024D01*
D33*
X1336134Y3784469D02*
D03*
X1186134D02*
D03*
X1036134D02*
D03*
X886134D02*
D03*
X3158087Y3782000D02*
D03*
X3008087D02*
D03*
X2858087D02*
D03*
X2708087D02*
D03*
X2228000Y3784000D02*
D03*
X2078000D02*
D03*
X1928000D02*
D03*
X1778000D02*
D03*
D34*
X260378Y765779D02*
D03*
Y538221D02*
D03*
D35*
X279669Y822276D02*
D03*
Y481724D02*
D03*
X115496D02*
D03*
Y822276D02*
D03*
D36*
X2767000Y1188000D02*
D03*
Y1288000D02*
D03*
Y1388000D02*
D03*
Y1488000D02*
D03*
D37*
X1648000Y1487827D02*
D03*
Y1387827D02*
D03*
Y1287827D02*
D03*
X1548000Y1487827D02*
D03*
Y1387827D02*
D03*
X951000Y1287827D02*
D03*
Y1387827D02*
D03*
Y1487827D02*
D03*
X1051000Y1287827D02*
D03*
Y1387827D02*
D03*
X3482819Y625000D02*
D03*
X3582819D02*
D03*
X3382819Y525000D02*
D03*
X3482819D02*
D03*
X3582819D02*
D03*
X2233220Y1487827D02*
D03*
Y1387827D02*
D03*
Y1287827D02*
D03*
X2133220Y1487827D02*
D03*
Y1387827D02*
D03*
D38*
X1548000Y1287827D02*
D03*
X1051000Y1487827D02*
D03*
X2133220Y1287827D02*
D03*
D39*
X329000Y3224000D02*
D03*
D40*
X565221D02*
D03*
D41*
X447110Y3038961D02*
D03*
D42*
X1952512Y2608469D02*
D03*
X2052512D02*
D03*
X2152512D02*
D03*
X1952512Y2308469D02*
D03*
X2052512D02*
D03*
X2152512D02*
D03*
X1251000Y2308938D02*
D03*
X1151000D02*
D03*
X1051000D02*
D03*
X1251000Y2608938D02*
D03*
X1151000D02*
D03*
X1051000D02*
D03*
X2868512Y2606469D02*
D03*
X2968512D02*
D03*
X3068512D02*
D03*
X2868512Y2306469D02*
D03*
X2968512D02*
D03*
X3068512D02*
D03*
D43*
X3382819Y625000D02*
D03*
D44*
X3578882Y1266370D02*
D03*
X3523764D02*
D03*
X3484394Y1227000D02*
D03*
Y1171882D02*
D03*
Y1116764D02*
D03*
X3523764Y1077394D02*
D03*
X3578882D02*
D03*
X3634000D02*
D03*
X3673370Y1116764D02*
D03*
Y1171882D02*
D03*
Y1227000D02*
D03*
X3632819Y1266370D02*
D03*
X3551323Y1199441D02*
D03*
Y1144323D02*
D03*
X3606441D02*
D03*
X3606441Y1199441D02*
D03*
D45*
X2061000Y895701D02*
D03*
Y1045000D02*
D03*
X1785173Y1170000D02*
D03*
Y1438000D02*
D03*
Y1317827D02*
D03*
X2465716Y681000D02*
D03*
X2465598Y613701D02*
D03*
X2465299Y542701D02*
D03*
X2465716Y466000D02*
D03*
X2465000Y752701D02*
D03*
X2465299Y389000D02*
D03*
X2785716Y681000D02*
D03*
X2785598Y613701D02*
D03*
X2785299Y542701D02*
D03*
X2785716Y466000D02*
D03*
X2785000Y752701D02*
D03*
X2785299Y389000D02*
D03*
X3085402D02*
D03*
X3085102Y752701D02*
D03*
X3085402Y542701D02*
D03*
X3085701Y613701D02*
D03*
X3085819Y681000D02*
D03*
X1612402Y800401D02*
D03*
X1612701Y716701D02*
D03*
X1422402Y714401D02*
D03*
X1519102Y714701D02*
D03*
X1519402Y894401D02*
D03*
X1519701Y800701D02*
D03*
X1422701D02*
D03*
X1422402Y998008D02*
D03*
X1422701Y895701D02*
D03*
X1314402Y894701D02*
D03*
Y1101401D02*
D03*
X1314701Y998307D02*
D03*
X1210402D02*
D03*
X1210701Y1101701D02*
D03*
X1211701Y1196701D02*
D03*
X1051000Y454165D02*
D03*
X3582819Y1505181D02*
D03*
X3074000Y1992000D02*
D03*
X3025000Y1898000D02*
D03*
X2817087Y1566000D02*
D03*
X3282819Y1353000D02*
D03*
X3721433Y1021000D02*
D03*
X3781437Y930178D02*
D03*
X3245796Y928796D02*
D03*
X3706480Y1520181D02*
D03*
X3832819Y715000D02*
D03*
X3532819D02*
D03*
X3482819Y704465D02*
D03*
X3432819Y692323D02*
D03*
X3382819Y859796D02*
D03*
X3332819Y831181D02*
D03*
X3232819Y715000D02*
D03*
X3782819Y715000D02*
D03*
X3021480Y329941D02*
D03*
X3742508Y477000D02*
D03*
X1298531Y3080622D02*
D03*
X2200512Y3080154D02*
D03*
X3119925Y3078154D02*
D03*
X3795055Y57240D02*
D03*
X3721433D02*
D03*
X3645449D02*
D03*
X3795055Y135508D02*
D03*
X3721433D02*
D03*
X3645449D02*
D03*
X3602861Y175116D02*
D03*
X3614000Y246240D02*
D03*
X217000Y746488D02*
D03*
X177000D02*
D03*
X136346D02*
D03*
Y701213D02*
D03*
X177000D02*
D03*
X217000D02*
D03*
Y661842D02*
D03*
X177000D02*
D03*
X136346D02*
D03*
Y622472D02*
D03*
X177000D02*
D03*
X217000D02*
D03*
Y583102D02*
D03*
X177000D02*
D03*
X136346D02*
D03*
X302504Y1088000D02*
D03*
Y1043000D02*
D03*
X234528Y1088000D02*
D03*
X353000D02*
D03*
Y1043000D02*
D03*
Y998606D02*
D03*
X400000D02*
D03*
Y1043000D02*
D03*
Y1088000D02*
D03*
X545000Y998606D02*
D03*
Y1043000D02*
D03*
Y1088000D02*
D03*
X3641480Y1671819D02*
D03*
X3665134Y367303D02*
D03*
Y327933D02*
D03*
X3641480Y1596000D02*
D03*
X3665134Y288563D02*
D03*
X3799008Y1780000D02*
D03*
Y1596000D02*
D03*
Y1688000D02*
D03*
X3744079Y2234772D02*
D03*
X3844008Y1596000D02*
D03*
Y1870000D02*
D03*
X3704504Y367303D02*
D03*
X3844008Y1780000D02*
D03*
X3743874Y367303D02*
D03*
X3704504Y327933D02*
D03*
Y288563D02*
D03*
X3742508Y327908D02*
D03*
X3844008Y1688000D02*
D03*
X3799008Y1870000D02*
D03*
X3743874Y288563D02*
D03*
X1858181Y3261452D02*
D03*
X1949512Y3225693D02*
D03*
X1914512Y3351965D02*
D03*
X1773668D02*
D03*
Y3261452D02*
D03*
X2170512Y3232469D02*
D03*
X657221Y2924083D02*
D03*
X1152260Y2735764D02*
D03*
X1048000Y3226162D02*
D03*
X817978Y3014426D02*
D03*
X1081260Y2735764D02*
D03*
X994000Y3137938D02*
D03*
X1423307Y3232938D02*
D03*
Y2960961D02*
D03*
X1124630Y3100308D02*
D03*
X1269000Y3232938D02*
D03*
X1340630D02*
D03*
X1464000Y3080623D02*
D03*
X872156Y3261921D02*
D03*
X956669D02*
D03*
X797978D02*
D03*
X814000Y2952764D02*
D03*
X1011945Y2657938D02*
D03*
X1203370Y3060938D02*
D03*
X1124630Y3021568D02*
D03*
X1164000D02*
D03*
X1203370D02*
D03*
X1124630Y3060938D02*
D03*
X1164000D02*
D03*
X817978Y3090809D02*
D03*
X1007804D02*
D03*
X872156Y3352434D02*
D03*
X1013000D02*
D03*
X797978D02*
D03*
X1405512Y2694426D02*
D03*
X1203370Y2902198D02*
D03*
X1164000Y3100308D02*
D03*
X1269000Y2977128D02*
D03*
X1308000Y3133938D02*
D03*
X1361406Y2816938D02*
D03*
X1203370Y3100308D02*
D03*
X1222630Y2735764D02*
D03*
X1340630Y3319922D02*
D03*
X1477000D02*
D03*
X1292000Y2657938D02*
D03*
X1116000D02*
D03*
X1189000D02*
D03*
X1699490Y3261452D02*
D03*
Y3351965D02*
D03*
X1895512Y3137469D02*
D03*
X1719490Y3090340D02*
D03*
X1715512Y2952296D02*
D03*
X2104882Y2901729D02*
D03*
X1719490Y3013957D02*
D03*
X1909316Y3090340D02*
D03*
X2170512Y2976659D02*
D03*
X2242142Y3319453D02*
D03*
Y3232469D02*
D03*
X2324819D02*
D03*
X2378512Y3319453D02*
D03*
X2262918Y2816469D02*
D03*
X2324819Y2960492D02*
D03*
X2209512Y3133469D02*
D03*
X2065512Y3021099D02*
D03*
X2104882Y3060469D02*
D03*
Y3021099D02*
D03*
X2065512Y3060469D02*
D03*
X2124142Y2735296D02*
D03*
X2090512Y2657469D02*
D03*
X2307024Y2693957D02*
D03*
X2017512Y2657469D02*
D03*
X2193512D02*
D03*
X1913457D02*
D03*
X2053772Y2735296D02*
D03*
X1982772D02*
D03*
X2026142Y3021099D02*
D03*
X2065512Y3099839D02*
D03*
X2365512Y3080154D02*
D03*
X2026142Y3060469D02*
D03*
Y3099839D02*
D03*
X2104882D02*
D03*
X2631512Y2950296D02*
D03*
X2635490Y3088340D02*
D03*
Y3011957D02*
D03*
X2942142Y3097839D02*
D03*
X2981512Y3058469D02*
D03*
X2829457Y2655469D02*
D03*
X2898772Y2733296D02*
D03*
X2865512Y3223693D02*
D03*
X2811512Y3135469D02*
D03*
X2825316Y3088340D02*
D03*
X2981512Y3019099D02*
D03*
X2933512Y2655469D02*
D03*
X2981512Y3097839D02*
D03*
X2942142Y3058469D02*
D03*
Y3019099D02*
D03*
X2969772Y2733296D02*
D03*
X3020882Y2899729D02*
D03*
X3109512Y2655469D02*
D03*
X3020882Y3097839D02*
D03*
X3086512Y2974659D02*
D03*
X3020882Y3058469D02*
D03*
Y3019099D02*
D03*
X3125512Y3131469D02*
D03*
X3040142Y2733296D02*
D03*
X3294512Y3317453D02*
D03*
X3240819Y3230469D02*
D03*
Y2958492D02*
D03*
X3158142Y3317453D02*
D03*
X3281512Y3078154D02*
D03*
X2774181Y3259452D02*
D03*
X3086512Y3230469D02*
D03*
X2689668Y3259452D02*
D03*
X2615490D02*
D03*
X3178918Y2814469D02*
D03*
X3158142Y3230469D02*
D03*
X3223024Y2691957D02*
D03*
X3006512Y2655469D02*
D03*
X2615490Y3349965D02*
D03*
X2830512D02*
D03*
X2689668D02*
D03*
%TF.MD5,f68301a92b64a05393c8615e3669ff27*%
M02*
