%TF.GenerationSoftware,Altium Limited,Altium Designer,23.4.1 (23)*%
G04 Layer_Color=8421504*
%FSLAX26Y26*%
%MOIN*%
%TF.SameCoordinates,C984E364-D40C-4CF4-8751-E295BDF5E6C2*%
%TF.FilePolarity,Positive*%
%TF.FileFunction,Paste,Top*%
%TF.Part,Single*%
G01*
G75*
%TA.AperFunction,SMDPad,CuDef*%
%ADD97R,0.049181X0.033433*%
%ADD98R,0.033433X0.049181*%
%ADD99R,0.021622X0.042882*%
%ADD100R,0.009811X0.042882*%
G04:AMPARAMS|DCode=101|XSize=46.425mil|YSize=21.228mil|CornerRadius=4.807mil|HoleSize=0mil|Usage=FLASHONLY|Rotation=180.000|XOffset=0mil|YOffset=0mil|HoleType=Round|Shape=RoundedRectangle|*
%AMROUNDEDRECTD101*
21,1,0.046425,0.011614,0,0,180.0*
21,1,0.036811,0.021228,0,0,180.0*
1,1,0.009614,-0.018406,0.005807*
1,1,0.009614,0.018406,0.005807*
1,1,0.009614,0.018406,-0.005807*
1,1,0.009614,-0.018406,-0.005807*
%
%ADD101ROUNDEDRECTD101*%
%ADD102R,0.049181X0.082646*%
%ADD103R,0.139732X0.082646*%
%ADD104R,0.057000X0.082500*%
%ADD105R,0.059024X0.049181*%
G04:AMPARAMS|DCode=106|XSize=33.433mil|YSize=57.055mil|CornerRadius=3.429mil|HoleSize=0mil|Usage=FLASHONLY|Rotation=270.000|XOffset=0mil|YOffset=0mil|HoleType=Round|Shape=RoundedRectangle|*
%AMROUNDEDRECTD106*
21,1,0.033433,0.050197,0,0,270.0*
21,1,0.026575,0.057055,0,0,270.0*
1,1,0.006858,-0.025099,-0.013287*
1,1,0.006858,-0.025099,0.013287*
1,1,0.006858,0.025099,0.013287*
1,1,0.006858,0.025099,-0.013287*
%
%ADD106ROUNDEDRECTD106*%
G04:AMPARAMS|DCode=107|XSize=57.055mil|YSize=33.433mil|CornerRadius=3.429mil|HoleSize=0mil|Usage=FLASHONLY|Rotation=270.000|XOffset=0mil|YOffset=0mil|HoleType=Round|Shape=RoundedRectangle|*
%AMROUNDEDRECTD107*
21,1,0.057055,0.026575,0,0,270.0*
21,1,0.050197,0.033433,0,0,270.0*
1,1,0.006858,-0.013287,-0.025099*
1,1,0.006858,-0.013287,0.025099*
1,1,0.006858,0.013287,0.025099*
1,1,0.006858,0.013287,-0.025099*
%
%ADD107ROUNDEDRECTD107*%
G04:AMPARAMS|DCode=108|XSize=33.433mil|YSize=33.433mil|CornerRadius=3.429mil|HoleSize=0mil|Usage=FLASHONLY|Rotation=270.000|XOffset=0mil|YOffset=0mil|HoleType=Round|Shape=RoundedRectangle|*
%AMROUNDEDRECTD108*
21,1,0.033433,0.026575,0,0,270.0*
21,1,0.026575,0.033433,0,0,270.0*
1,1,0.006858,-0.013287,-0.013287*
1,1,0.006858,-0.013287,0.013287*
1,1,0.006858,0.013287,0.013287*
1,1,0.006858,0.013287,-0.013287*
%
%ADD108ROUNDEDRECTD108*%
G04:AMPARAMS|DCode=109|XSize=8.236mil|YSize=36.189mil|CornerRadius=1.559mil|HoleSize=0mil|Usage=FLASHONLY|Rotation=90.000|XOffset=0mil|YOffset=0mil|HoleType=Round|Shape=RoundedRectangle|*
%AMROUNDEDRECTD109*
21,1,0.008236,0.033071,0,0,90.0*
21,1,0.005118,0.036189,0,0,90.0*
1,1,0.003118,0.016535,0.002559*
1,1,0.003118,0.016535,-0.002559*
1,1,0.003118,-0.016535,-0.002559*
1,1,0.003118,-0.016535,0.002559*
%
%ADD109ROUNDEDRECTD109*%
G04:AMPARAMS|DCode=110|XSize=8.236mil|YSize=36.189mil|CornerRadius=1.559mil|HoleSize=0mil|Usage=FLASHONLY|Rotation=0.000|XOffset=0mil|YOffset=0mil|HoleType=Round|Shape=RoundedRectangle|*
%AMROUNDEDRECTD110*
21,1,0.008236,0.033071,0,0,0.0*
21,1,0.005118,0.036189,0,0,0.0*
1,1,0.003118,0.002559,-0.016535*
1,1,0.003118,-0.002559,-0.016535*
1,1,0.003118,-0.002559,0.016535*
1,1,0.003118,0.002559,0.016535*
%
%ADD110ROUNDEDRECTD110*%
%ADD111R,0.077945X0.077945*%
%TA.AperFunction,TestPad*%
%ADD112R,0.133000X0.068000*%
%TA.AperFunction,SMDPad,CuDef*%
%ADD113R,0.043276X0.009811*%
%ADD114R,0.009811X0.043276*%
%ADD115R,0.122016X0.122016*%
%ADD116R,0.060992X0.037370*%
%TA.AperFunction,TestPad*%
%ADD117R,0.068000X0.133000*%
D97*
X3675000Y1626339D02*
D03*
Y1543661D02*
D03*
X179900Y950149D02*
D03*
Y1032826D02*
D03*
X236794Y702067D02*
D03*
Y784744D02*
D03*
X587900Y1129660D02*
D03*
Y1212338D02*
D03*
X55000Y1123007D02*
D03*
Y1205684D02*
D03*
X126270Y1123826D02*
D03*
Y1206503D02*
D03*
X516270Y1129660D02*
D03*
Y1212338D02*
D03*
X538914Y702047D02*
D03*
Y784724D02*
D03*
X614000Y702067D02*
D03*
Y784744D02*
D03*
X97223Y950149D02*
D03*
Y1032826D02*
D03*
X461955Y702067D02*
D03*
Y784744D02*
D03*
X391585Y702067D02*
D03*
Y784744D02*
D03*
X315585Y702067D02*
D03*
Y784744D02*
D03*
X1646481Y950149D02*
D03*
Y1032826D02*
D03*
X1673587Y701674D02*
D03*
Y784351D02*
D03*
X2054481Y1129660D02*
D03*
Y1212338D02*
D03*
X1509000Y1129660D02*
D03*
Y1212338D02*
D03*
X1584000Y1129660D02*
D03*
Y1212338D02*
D03*
X1982851Y1129660D02*
D03*
Y1212338D02*
D03*
X1987536Y702067D02*
D03*
Y784744D02*
D03*
X2066906Y702067D02*
D03*
Y784744D02*
D03*
X1569000Y950149D02*
D03*
Y1032826D02*
D03*
X1910000Y701674D02*
D03*
Y784351D02*
D03*
X1826166Y701674D02*
D03*
Y784351D02*
D03*
X1746851Y701673D02*
D03*
Y784351D02*
D03*
X918625Y950149D02*
D03*
Y1032826D02*
D03*
X975000Y701674D02*
D03*
Y784351D02*
D03*
X1326625Y1129660D02*
D03*
Y1212338D02*
D03*
X783969Y1129518D02*
D03*
Y1212195D02*
D03*
X858969Y1129518D02*
D03*
Y1212195D02*
D03*
X1254995Y1129660D02*
D03*
Y1212338D02*
D03*
X1277740Y702048D02*
D03*
Y784725D02*
D03*
X1352963Y701674D02*
D03*
Y784351D02*
D03*
X838969Y950149D02*
D03*
Y1032826D02*
D03*
X1200680Y702067D02*
D03*
Y784744D02*
D03*
X1125000Y702067D02*
D03*
Y784744D02*
D03*
X1051570Y702066D02*
D03*
Y784744D02*
D03*
X1529000Y617000D02*
D03*
Y699677D02*
D03*
X1600186Y617000D02*
D03*
Y699677D02*
D03*
X3420000Y967677D02*
D03*
Y885000D02*
D03*
X2419102Y869410D02*
D03*
Y952087D02*
D03*
X2449102Y463843D02*
D03*
Y546520D02*
D03*
X2605000Y323000D02*
D03*
Y405678D02*
D03*
X2686999D02*
D03*
Y323000D02*
D03*
X2845000Y687323D02*
D03*
Y770000D02*
D03*
D98*
X3564882Y1760000D02*
D03*
X3482205D02*
D03*
X3564882Y1860000D02*
D03*
X3482205D02*
D03*
X587900Y937487D02*
D03*
X670577D02*
D03*
X97223Y888487D02*
D03*
X179900D02*
D03*
X212593Y1335000D02*
D03*
X295270D02*
D03*
X516270D02*
D03*
X598947D02*
D03*
X587900Y1016345D02*
D03*
X670577D02*
D03*
X1563804Y888487D02*
D03*
X1646481D02*
D03*
X2137099Y948756D02*
D03*
X2054422D02*
D03*
X1679174Y1335000D02*
D03*
X1761851D02*
D03*
X1982851D02*
D03*
X2065528D02*
D03*
X2054422Y1030827D02*
D03*
X2137099D02*
D03*
X835947Y888487D02*
D03*
X918625D02*
D03*
X1409302Y937605D02*
D03*
X1326625D02*
D03*
X951317Y1335000D02*
D03*
X1033995D02*
D03*
X1254995D02*
D03*
X1337672D02*
D03*
X1326625Y1016345D02*
D03*
X1409302D02*
D03*
X2765099Y815123D02*
D03*
X2682422D02*
D03*
X2774454Y988701D02*
D03*
X2857131D02*
D03*
X2774454Y912717D02*
D03*
X2857131D02*
D03*
X2774454Y1062323D02*
D03*
X2857131D02*
D03*
X3404524Y1413583D02*
D03*
X3487201D02*
D03*
X3404524Y1236417D02*
D03*
X3487201D02*
D03*
X2645753Y1237398D02*
D03*
X2563075D02*
D03*
X2645753Y1162594D02*
D03*
X2563075D02*
D03*
X2331816Y372646D02*
D03*
X2414493D02*
D03*
X2179426Y375000D02*
D03*
X2262103D02*
D03*
X2179426Y784744D02*
D03*
X2262103D02*
D03*
X1326625Y866321D02*
D03*
X1409302D02*
D03*
X587900Y866984D02*
D03*
X670577D02*
D03*
X2054422Y868712D02*
D03*
X2137099D02*
D03*
X2768661Y320106D02*
D03*
X2851339D02*
D03*
X3404524Y1148938D02*
D03*
X3487201D02*
D03*
D99*
X2237016Y255504D02*
D03*
X2268512D02*
D03*
X2457488D02*
D03*
X2488984D02*
D03*
D100*
X2294102D02*
D03*
X2313787D02*
D03*
X2372843D02*
D03*
X2392528D02*
D03*
X2333472D02*
D03*
X2353157D02*
D03*
X2412213D02*
D03*
X2431898D02*
D03*
D101*
X2393075Y1199996D02*
D03*
X2476540Y1162594D02*
D03*
Y1237398D02*
D03*
X2727075Y1162594D02*
D03*
Y1237398D02*
D03*
X2810540Y1199996D02*
D03*
D102*
X2262103Y463843D02*
D03*
X2171552D02*
D03*
X2352654D02*
D03*
D103*
X2262103Y694158D02*
D03*
D104*
X414000Y112501D02*
D03*
Y437000D02*
D03*
X614000Y112501D02*
D03*
X514000D02*
D03*
Y437000D02*
D03*
X614000D02*
D03*
X1758166Y112501D02*
D03*
Y437000D02*
D03*
X1958166Y112501D02*
D03*
X1858166D02*
D03*
Y437000D02*
D03*
X1958166D02*
D03*
X892286Y112501D02*
D03*
Y437000D02*
D03*
X1092286Y112501D02*
D03*
X992286D02*
D03*
Y437000D02*
D03*
X1092286D02*
D03*
D105*
X3026819Y971772D02*
D03*
Y1148938D02*
D03*
X3339811Y971772D02*
D03*
Y1148938D02*
D03*
X3026819Y1236417D02*
D03*
Y1413583D02*
D03*
X3339811Y1236417D02*
D03*
Y1413583D02*
D03*
D106*
X2942607Y206064D02*
D03*
Y356063D02*
D03*
Y406063D02*
D03*
Y306063D02*
D03*
Y256063D02*
D03*
Y606063D02*
D03*
Y656063D02*
D03*
Y456063D02*
D03*
Y556063D02*
D03*
Y506063D02*
D03*
D107*
X3041819Y86575D02*
D03*
X2991819D02*
D03*
X3141819D02*
D03*
X3291819D02*
D03*
X3191819D02*
D03*
X3241819D02*
D03*
X3091819D02*
D03*
Y775552D02*
D03*
X2991819D02*
D03*
X3041819D02*
D03*
X3191819D02*
D03*
X3141819D02*
D03*
X3241819D02*
D03*
X3291819D02*
D03*
X3341819Y86575D02*
D03*
X3391819D02*
D03*
X3591819D02*
D03*
X3541819D02*
D03*
X3641819D02*
D03*
X3491819D02*
D03*
X3441819D02*
D03*
X3341819Y775552D02*
D03*
X3391819D02*
D03*
X3541819D02*
D03*
X3441819D02*
D03*
X3491819D02*
D03*
X3641819D02*
D03*
X3591819D02*
D03*
D108*
X3282764Y435000D02*
D03*
Y545237D02*
D03*
Y490119D02*
D03*
X3337882Y435000D02*
D03*
X3393001D02*
D03*
X3337882Y490119D02*
D03*
X3393001Y545237D02*
D03*
X3337882D02*
D03*
X3393001Y490119D02*
D03*
D109*
X2530060Y912717D02*
D03*
Y991457D02*
D03*
Y952087D02*
D03*
Y971772D02*
D03*
Y1030827D02*
D03*
Y1011142D02*
D03*
Y932402D02*
D03*
X2716674Y912717D02*
D03*
Y932402D02*
D03*
Y952087D02*
D03*
Y1011142D02*
D03*
Y971772D02*
D03*
Y991457D02*
D03*
Y1030827D02*
D03*
D110*
X2583997Y878465D02*
D03*
X2564312D02*
D03*
Y1065079D02*
D03*
X2643052Y878465D02*
D03*
X2682422D02*
D03*
X2662737D02*
D03*
X2603682D02*
D03*
X2623367D02*
D03*
X2662737Y1065079D02*
D03*
X2643052D02*
D03*
X2583997D02*
D03*
X2623367D02*
D03*
X2603682D02*
D03*
X2682422D02*
D03*
D111*
X2623367Y971772D02*
D03*
D112*
X823969Y1390000D02*
D03*
X2670000Y675000D02*
D03*
Y526520D02*
D03*
X2810000Y410030D02*
D03*
D113*
X1055506Y976975D02*
D03*
Y957290D02*
D03*
Y937605D02*
D03*
Y1055715D02*
D03*
Y1036030D02*
D03*
Y996660D02*
D03*
Y1016345D02*
D03*
X1244483Y937605D02*
D03*
Y976975D02*
D03*
Y957290D02*
D03*
Y1036030D02*
D03*
Y996660D02*
D03*
Y1016345D02*
D03*
Y1055715D02*
D03*
X316782Y976975D02*
D03*
Y957290D02*
D03*
Y937605D02*
D03*
Y1055715D02*
D03*
Y1036030D02*
D03*
Y996660D02*
D03*
Y1016345D02*
D03*
X505758Y937605D02*
D03*
Y976975D02*
D03*
Y957290D02*
D03*
Y1036030D02*
D03*
Y996660D02*
D03*
Y1016345D02*
D03*
Y1055715D02*
D03*
X1783363Y976975D02*
D03*
Y957290D02*
D03*
Y937605D02*
D03*
Y1055715D02*
D03*
Y1036030D02*
D03*
Y996660D02*
D03*
Y1016345D02*
D03*
X1972339Y937605D02*
D03*
Y976975D02*
D03*
Y957290D02*
D03*
Y1036030D02*
D03*
Y996660D02*
D03*
Y1016345D02*
D03*
Y1055715D02*
D03*
D114*
X1110625Y902172D02*
D03*
X1090940D02*
D03*
X1110625Y1091149D02*
D03*
X1090940D02*
D03*
X1169680Y902172D02*
D03*
X1209050D02*
D03*
X1189365D02*
D03*
X1130310D02*
D03*
X1149995D02*
D03*
X1209050Y1091149D02*
D03*
X1189365D02*
D03*
X1130310D02*
D03*
X1169680D02*
D03*
X1149995D02*
D03*
X371900Y902172D02*
D03*
X352215D02*
D03*
X371900Y1091149D02*
D03*
X352215D02*
D03*
X430955Y902172D02*
D03*
X470325D02*
D03*
X450640D02*
D03*
X391585D02*
D03*
X411270D02*
D03*
X470325Y1091149D02*
D03*
X450640D02*
D03*
X391585D02*
D03*
X430955D02*
D03*
X411270D02*
D03*
X1838481Y902172D02*
D03*
X1818796D02*
D03*
X1838481Y1091149D02*
D03*
X1818796D02*
D03*
X1897536Y902172D02*
D03*
X1936906D02*
D03*
X1917221D02*
D03*
X1858166D02*
D03*
X1877851D02*
D03*
X1936906Y1091149D02*
D03*
X1917221D02*
D03*
X1858166D02*
D03*
X1897536D02*
D03*
X1877851D02*
D03*
D115*
X1149995Y996660D02*
D03*
X411270D02*
D03*
X1877851D02*
D03*
D116*
X3591819Y885000D02*
D03*
Y1010984D02*
D03*
X295270Y1127173D02*
D03*
Y1253157D02*
D03*
X209900Y1127173D02*
D03*
Y1253157D02*
D03*
X669900Y1129660D02*
D03*
Y1255645D02*
D03*
X1761851Y1127629D02*
D03*
Y1253613D02*
D03*
X1669457Y1127629D02*
D03*
Y1253613D02*
D03*
X2136481Y1129660D02*
D03*
Y1255645D02*
D03*
X1033995Y1127487D02*
D03*
Y1253471D02*
D03*
X944426Y1127487D02*
D03*
Y1253471D02*
D03*
X1408625Y1129660D02*
D03*
Y1255645D02*
D03*
X3776999Y920000D02*
D03*
Y1045984D02*
D03*
X3685000Y920000D02*
D03*
Y1045984D02*
D03*
X3499819Y885000D02*
D03*
Y1010984D02*
D03*
D117*
X157481Y1495000D02*
D03*
%TF.MD5,f3a8e75bfb3dc2a58664f79da1917564*%
M02*
