%TF.GenerationSoftware,Altium Limited,Altium Designer,22.11.1 (43)*%
G04 Layer_Color=8388736*
%FSLAX26Y26*%
%MOIN*%
%TF.SameCoordinates,2A7337FD-AF25-45B1-AC32-E314E96981BF*%
%TF.FilePolarity,Negative*%
%TF.FileFunction,Soldermask,Top*%
%TF.Part,Single*%
G01*
G75*
%TA.AperFunction,SMDPad,CuDef*%
%ADD57R,0.027559X0.048819*%
%ADD58R,0.015748X0.048819*%
G04:AMPARAMS|DCode=59|XSize=52.362mil|YSize=27.165mil|CornerRadius=7.776mil|HoleSize=0mil|Usage=FLASHONLY|Rotation=180.000|XOffset=0mil|YOffset=0mil|HoleType=Round|Shape=RoundedRectangle|*
%AMROUNDEDRECTD59*
21,1,0.052362,0.011614,0,0,180.0*
21,1,0.036811,0.027165,0,0,180.0*
1,1,0.015551,-0.018406,0.005807*
1,1,0.015551,0.018406,0.005807*
1,1,0.015551,0.018406,-0.005807*
1,1,0.015551,-0.018406,-0.005807*
%
%ADD59ROUNDEDRECTD59*%
%ADD60R,0.039370X0.088583*%
%ADD61R,0.129921X0.088583*%
%ADD62R,0.078740X0.043307*%
G04:AMPARAMS|DCode=63|XSize=39.37mil|YSize=39.37mil|CornerRadius=6.398mil|HoleSize=0mil|Usage=FLASHONLY|Rotation=270.000|XOffset=0mil|YOffset=0mil|HoleType=Round|Shape=RoundedRectangle|*
%AMROUNDEDRECTD63*
21,1,0.039370,0.026575,0,0,270.0*
21,1,0.026575,0.039370,0,0,270.0*
1,1,0.012795,-0.013287,-0.013287*
1,1,0.012795,-0.013287,0.013287*
1,1,0.012795,0.013287,0.013287*
1,1,0.012795,0.013287,-0.013287*
%
%ADD63ROUNDEDRECTD63*%
%TA.AperFunction,ConnectorPad*%
G04:AMPARAMS|DCode=64|XSize=62.992mil|YSize=39.37mil|CornerRadius=6.398mil|HoleSize=0mil|Usage=FLASHONLY|Rotation=270.000|XOffset=0mil|YOffset=0mil|HoleType=Round|Shape=RoundedRectangle|*
%AMROUNDEDRECTD64*
21,1,0.062992,0.026575,0,0,270.0*
21,1,0.050197,0.039370,0,0,270.0*
1,1,0.012795,-0.013287,-0.025099*
1,1,0.012795,-0.013287,0.025099*
1,1,0.012795,0.013287,0.025099*
1,1,0.012795,0.013287,-0.025099*
%
%ADD64ROUNDEDRECTD64*%
G04:AMPARAMS|DCode=65|XSize=39.37mil|YSize=62.992mil|CornerRadius=6.398mil|HoleSize=0mil|Usage=FLASHONLY|Rotation=270.000|XOffset=0mil|YOffset=0mil|HoleType=Round|Shape=RoundedRectangle|*
%AMROUNDEDRECTD65*
21,1,0.039370,0.050197,0,0,270.0*
21,1,0.026575,0.062992,0,0,270.0*
1,1,0.012795,-0.025099,-0.013287*
1,1,0.012795,-0.025099,0.013287*
1,1,0.012795,0.025099,0.013287*
1,1,0.012795,0.025099,-0.013287*
%
%ADD65ROUNDEDRECTD65*%
%TA.AperFunction,SMDPad,CuDef*%
G04:AMPARAMS|DCode=66|XSize=14.173mil|YSize=42.126mil|CornerRadius=4.527mil|HoleSize=0mil|Usage=FLASHONLY|Rotation=0.000|XOffset=0mil|YOffset=0mil|HoleType=Round|Shape=RoundedRectangle|*
%AMROUNDEDRECTD66*
21,1,0.014173,0.033071,0,0,0.0*
21,1,0.005118,0.042126,0,0,0.0*
1,1,0.009055,0.002559,-0.016535*
1,1,0.009055,-0.002559,-0.016535*
1,1,0.009055,-0.002559,0.016535*
1,1,0.009055,0.002559,0.016535*
%
%ADD66ROUNDEDRECTD66*%
G04:AMPARAMS|DCode=67|XSize=14.173mil|YSize=42.126mil|CornerRadius=4.527mil|HoleSize=0mil|Usage=FLASHONLY|Rotation=90.000|XOffset=0mil|YOffset=0mil|HoleType=Round|Shape=RoundedRectangle|*
%AMROUNDEDRECTD67*
21,1,0.014173,0.033071,0,0,90.0*
21,1,0.005118,0.042126,0,0,90.0*
1,1,0.009055,0.016535,0.002559*
1,1,0.009055,0.016535,-0.002559*
1,1,0.009055,-0.016535,-0.002559*
1,1,0.009055,-0.016535,0.002559*
%
%ADD67ROUNDEDRECTD67*%
%ADD68R,0.127953X0.127953*%
%ADD69R,0.138937X0.073937*%
%ADD70R,0.139764X0.139764*%
%ADD71R,0.027559X0.061024*%
%ADD72R,0.061024X0.027559*%
%ADD73R,0.066929X0.043307*%
%ADD74R,0.055118X0.039370*%
%ADD75R,0.029528X0.039370*%
%ADD76R,0.023622X0.027559*%
%ADD77R,0.039370X0.055118*%
%ADD78R,0.073937X0.138937*%
%TA.AperFunction,ComponentPad*%
%ADD79R,0.082677X0.082677*%
%ADD80C,0.082677*%
%ADD81R,0.082677X0.082677*%
%ADD82C,0.027559*%
%ADD83R,0.068898X0.068898*%
%ADD84C,0.068898*%
%ADD85C,0.240157*%
%ADD86C,0.074803*%
%ADD87R,0.074803X0.074803*%
%ADD88R,0.161417X0.082677*%
%ADD89R,0.177165X0.090551*%
%ADD90R,0.082677X0.161417*%
%ADD91C,0.066929*%
%ADD92R,0.066929X0.066929*%
%ADD93R,0.074803X0.074803*%
%TA.AperFunction,ViaPad*%
%ADD94C,0.021654*%
D57*
X2488984Y255504D02*
D03*
X2457488D02*
D03*
X2268512D02*
D03*
X2237016D02*
D03*
D58*
X2431898D02*
D03*
X2412213D02*
D03*
X2392528D02*
D03*
X2372843D02*
D03*
X2294102D02*
D03*
X2313787D02*
D03*
X2333472D02*
D03*
X2353157D02*
D03*
D59*
X2476540Y1162594D02*
D03*
Y1237398D02*
D03*
X2393075Y1199996D02*
D03*
X2727075Y1237398D02*
D03*
Y1162594D02*
D03*
X2810540Y1199996D02*
D03*
D60*
X2171552Y463843D02*
D03*
X2262103D02*
D03*
X2352654D02*
D03*
D61*
X2262103Y694158D02*
D03*
D62*
X3263268Y1200000D02*
D03*
X2905000D02*
D03*
X3263268Y1353543D02*
D03*
X2905000D02*
D03*
D63*
X3337882Y490119D02*
D03*
X3282764Y435000D02*
D03*
Y490119D02*
D03*
Y545237D02*
D03*
X3337882Y435000D02*
D03*
Y545237D02*
D03*
X3393001Y435000D02*
D03*
Y490119D02*
D03*
Y545237D02*
D03*
D64*
X3641819Y775552D02*
D03*
X3591819D02*
D03*
X3541819D02*
D03*
X3491819D02*
D03*
X3441819D02*
D03*
X3391819D02*
D03*
X3341819D02*
D03*
X3291819D02*
D03*
X3241819D02*
D03*
X3191819D02*
D03*
X3141819D02*
D03*
X3091819D02*
D03*
X3041819D02*
D03*
X2991819D02*
D03*
Y86575D02*
D03*
X3041819D02*
D03*
X3091819D02*
D03*
X3141819D02*
D03*
X3191819D02*
D03*
X3241819D02*
D03*
X3291819D02*
D03*
X3341819D02*
D03*
X3391819D02*
D03*
X3441819D02*
D03*
X3491819D02*
D03*
X3541819D02*
D03*
X3591819D02*
D03*
X3641819D02*
D03*
D65*
X2942607Y606063D02*
D03*
Y556063D02*
D03*
Y506063D02*
D03*
Y456063D02*
D03*
Y406063D02*
D03*
Y356063D02*
D03*
Y306063D02*
D03*
Y256063D02*
D03*
Y206064D02*
D03*
Y656063D02*
D03*
D66*
X2564312Y878465D02*
D03*
X2583997D02*
D03*
X2603682D02*
D03*
X2623367D02*
D03*
X2643052D02*
D03*
X2662737D02*
D03*
X2682422D02*
D03*
Y1065079D02*
D03*
X2662737D02*
D03*
X2643052D02*
D03*
X2623367D02*
D03*
X2603682D02*
D03*
X2583997D02*
D03*
X2564312D02*
D03*
D67*
X2716674Y912717D02*
D03*
Y932402D02*
D03*
Y952087D02*
D03*
Y971772D02*
D03*
Y991457D02*
D03*
Y1011142D02*
D03*
Y1030827D02*
D03*
X2530060D02*
D03*
Y1011142D02*
D03*
Y991457D02*
D03*
Y971772D02*
D03*
Y952087D02*
D03*
Y932402D02*
D03*
Y912717D02*
D03*
D68*
X2623367Y971772D02*
D03*
D69*
X823969Y1390000D02*
D03*
X2670000Y675000D02*
D03*
Y506063D02*
D03*
X2810000Y365030D02*
D03*
D70*
X1149995Y996660D02*
D03*
X411270D02*
D03*
X1877851D02*
D03*
D71*
X1209050Y1091149D02*
D03*
X1189365D02*
D03*
X1169680D02*
D03*
X1149995D02*
D03*
X1130310D02*
D03*
X1110625D02*
D03*
X1090940D02*
D03*
X1209050Y902172D02*
D03*
X1189365D02*
D03*
X1169680D02*
D03*
X1149995D02*
D03*
X1130310D02*
D03*
X1110625D02*
D03*
X1090940D02*
D03*
X470325Y1091149D02*
D03*
X450640D02*
D03*
X430955D02*
D03*
X411270D02*
D03*
X391585D02*
D03*
X371900D02*
D03*
X352215D02*
D03*
X470325Y902172D02*
D03*
X450640D02*
D03*
X430955D02*
D03*
X411270D02*
D03*
X391585D02*
D03*
X371900D02*
D03*
X352215D02*
D03*
X1936906Y1091149D02*
D03*
X1917221D02*
D03*
X1897536D02*
D03*
X1877851D02*
D03*
X1858166D02*
D03*
X1838481D02*
D03*
X1818796D02*
D03*
X1936906Y902172D02*
D03*
X1917221D02*
D03*
X1897536D02*
D03*
X1877851D02*
D03*
X1858166D02*
D03*
X1838481D02*
D03*
X1818796D02*
D03*
D72*
X1244483Y1055715D02*
D03*
Y1036030D02*
D03*
Y1016345D02*
D03*
Y996660D02*
D03*
Y976975D02*
D03*
Y957290D02*
D03*
Y937605D02*
D03*
X1055506Y1055715D02*
D03*
Y1036030D02*
D03*
Y1016345D02*
D03*
Y996660D02*
D03*
Y976975D02*
D03*
Y957290D02*
D03*
Y937605D02*
D03*
X505758Y1055715D02*
D03*
Y1036030D02*
D03*
Y1016345D02*
D03*
Y996660D02*
D03*
Y976975D02*
D03*
Y957290D02*
D03*
Y937605D02*
D03*
X316782Y1055715D02*
D03*
Y1036030D02*
D03*
Y1016345D02*
D03*
Y996660D02*
D03*
Y976975D02*
D03*
Y957290D02*
D03*
Y937605D02*
D03*
X1972339Y1055715D02*
D03*
Y1036030D02*
D03*
Y1016345D02*
D03*
Y996660D02*
D03*
Y976975D02*
D03*
Y957290D02*
D03*
Y937605D02*
D03*
X1783363Y1055715D02*
D03*
Y1036030D02*
D03*
Y1016345D02*
D03*
Y996660D02*
D03*
Y976975D02*
D03*
Y957290D02*
D03*
Y937605D02*
D03*
D73*
X3591819Y885000D02*
D03*
Y1010984D02*
D03*
X209900Y1127173D02*
D03*
Y1253157D02*
D03*
X669900Y1129660D02*
D03*
Y1255645D02*
D03*
X1669457Y1127629D02*
D03*
Y1253613D02*
D03*
X2136481Y1129660D02*
D03*
Y1255645D02*
D03*
X944426Y1127487D02*
D03*
Y1253471D02*
D03*
X1408625Y1129660D02*
D03*
Y1255645D02*
D03*
X3776999Y920000D02*
D03*
Y1045984D02*
D03*
X3685000Y920000D02*
D03*
Y1045984D02*
D03*
X3499819Y885000D02*
D03*
Y1010984D02*
D03*
D74*
X3600000Y1849678D02*
D03*
Y1767001D02*
D03*
X179900Y1032826D02*
D03*
Y950149D02*
D03*
X251270Y784744D02*
D03*
Y702067D02*
D03*
X587900Y1129660D02*
D03*
Y1212338D02*
D03*
X43001Y1123007D02*
D03*
Y1205684D02*
D03*
X126270Y1206503D02*
D03*
Y1123826D02*
D03*
X516270Y1212338D02*
D03*
Y1129660D02*
D03*
X295270Y1210164D02*
D03*
Y1127487D02*
D03*
X531325Y784744D02*
D03*
Y702067D02*
D03*
X600325Y784744D02*
D03*
Y702067D02*
D03*
X111270Y950149D02*
D03*
Y1032826D02*
D03*
X320585Y784744D02*
D03*
Y702067D02*
D03*
X391585Y784744D02*
D03*
Y702067D02*
D03*
X461955Y784744D02*
D03*
Y702067D02*
D03*
X1646481Y1032826D02*
D03*
Y950149D02*
D03*
X1717851Y784744D02*
D03*
Y702067D02*
D03*
X2054481Y1129660D02*
D03*
Y1212338D02*
D03*
X1509000Y1129660D02*
D03*
Y1212338D02*
D03*
X1584000D02*
D03*
Y1129660D02*
D03*
X1982851Y1212338D02*
D03*
Y1129660D02*
D03*
X1761851Y1210164D02*
D03*
Y1127487D02*
D03*
X1997906Y784744D02*
D03*
Y702067D02*
D03*
X2066906Y784744D02*
D03*
Y702067D02*
D03*
X1577851Y950149D02*
D03*
Y1032826D02*
D03*
X1787166Y784744D02*
D03*
Y702067D02*
D03*
X1858166Y784744D02*
D03*
Y702067D02*
D03*
X1928536Y784744D02*
D03*
Y702067D02*
D03*
X918625Y1032826D02*
D03*
Y950149D02*
D03*
X989995Y784744D02*
D03*
Y702067D02*
D03*
X1326625Y1129660D02*
D03*
Y1212338D02*
D03*
X783969Y1129518D02*
D03*
Y1212195D02*
D03*
X858969D02*
D03*
Y1129518D02*
D03*
X1254995Y1212338D02*
D03*
Y1129660D02*
D03*
X1033995Y1210164D02*
D03*
Y1127487D02*
D03*
X1270050Y784744D02*
D03*
Y702067D02*
D03*
X1339050Y784744D02*
D03*
Y702067D02*
D03*
X849995Y950149D02*
D03*
Y1032826D02*
D03*
X1059310Y784744D02*
D03*
Y702067D02*
D03*
X1130310Y784744D02*
D03*
Y702067D02*
D03*
X1200680Y784744D02*
D03*
Y702067D02*
D03*
X1529000Y699677D02*
D03*
Y617000D02*
D03*
X1600186Y699677D02*
D03*
Y617000D02*
D03*
X3420000Y885000D02*
D03*
Y967677D02*
D03*
X2419102Y952087D02*
D03*
Y869410D02*
D03*
X2449102Y546520D02*
D03*
Y463843D02*
D03*
X2605000Y323000D02*
D03*
Y405678D02*
D03*
X2686999Y323000D02*
D03*
Y405678D02*
D03*
D75*
X3532087Y1760000D02*
D03*
X3475000D02*
D03*
X3532087Y1825000D02*
D03*
X3475000D02*
D03*
D76*
X1279365Y1255645D02*
D03*
X1239995D02*
D03*
X304900Y1259660D02*
D03*
X344270D02*
D03*
X540640Y1255645D02*
D03*
X501270D02*
D03*
X1771481Y1259660D02*
D03*
X1810851D02*
D03*
X2007221Y1255645D02*
D03*
X1967851D02*
D03*
X1043625Y1259660D02*
D03*
X1082995D02*
D03*
D77*
X179900Y888487D02*
D03*
X97223D02*
D03*
X587900Y937487D02*
D03*
X670577D02*
D03*
Y1016345D02*
D03*
X587900D02*
D03*
X1646481Y888487D02*
D03*
X1563804D02*
D03*
X2054481Y937487D02*
D03*
X2137158D02*
D03*
Y1016345D02*
D03*
X2054481D02*
D03*
X918625Y888487D02*
D03*
X835947D02*
D03*
X1326625Y937487D02*
D03*
X1409302D02*
D03*
Y1016345D02*
D03*
X1326625D02*
D03*
X2701926Y784744D02*
D03*
X2784603D02*
D03*
X2774454Y988701D02*
D03*
X2857131D02*
D03*
Y912717D02*
D03*
X2774454D02*
D03*
X2857131Y1062323D02*
D03*
X2774454D02*
D03*
X3355000Y1200000D02*
D03*
X3437677D02*
D03*
Y1353543D02*
D03*
X3355000D02*
D03*
X2645753Y1237398D02*
D03*
X2563075D02*
D03*
Y1162594D02*
D03*
X2645753D02*
D03*
X2426181Y375000D02*
D03*
X2343504D02*
D03*
X2262103D02*
D03*
X2179426D02*
D03*
X2262103Y784744D02*
D03*
X2179426D02*
D03*
X1409302Y866321D02*
D03*
X1326625D02*
D03*
X670577Y866984D02*
D03*
X587900D02*
D03*
X2137099Y868712D02*
D03*
X2054422D02*
D03*
D78*
X157481Y1495000D02*
D03*
D79*
X826772Y1692913D02*
D03*
X2125984D02*
D03*
X1476378D02*
D03*
D80*
X676772D02*
D03*
X526772D02*
D03*
X376772D02*
D03*
X157481Y401370D02*
D03*
X1975984Y1692913D02*
D03*
X1825984D02*
D03*
X1675984D02*
D03*
X1326378D02*
D03*
X1176378D02*
D03*
X1026378D02*
D03*
D81*
X157481Y551370D02*
D03*
D82*
X2476780Y213378D02*
D03*
X2249220D02*
D03*
D83*
X3761999Y1523543D02*
D03*
D84*
Y1423543D02*
D03*
Y1323543D02*
D03*
Y1223543D02*
D03*
D85*
X2727001Y150000D02*
D03*
X157481Y157481D02*
D03*
X3770001Y1767001D02*
D03*
X2362205Y1771654D02*
D03*
X157481D02*
D03*
D86*
X2275000Y1370000D02*
D03*
Y1470000D02*
D03*
Y1570000D02*
D03*
X2375000Y1370000D02*
D03*
Y1470000D02*
D03*
X2955000Y1760000D02*
D03*
X2855000D02*
D03*
X2755000D02*
D03*
X2955000Y1860000D02*
D03*
X2855000D02*
D03*
X3390000Y1760000D02*
D03*
X3290000D02*
D03*
X3190000D02*
D03*
X3390000Y1860000D02*
D03*
X3290000D02*
D03*
X2504414Y1370000D02*
D03*
Y1470000D02*
D03*
Y1570000D02*
D03*
X2604414Y1370000D02*
D03*
Y1470000D02*
D03*
D87*
X2375000Y1570000D02*
D03*
X2604414D02*
D03*
D88*
X1395000Y310000D02*
D03*
D89*
Y546221D02*
D03*
D90*
X1580039Y428110D02*
D03*
D91*
X1092286Y137000D02*
D03*
X992286D02*
D03*
X892286D02*
D03*
X1092286Y437000D02*
D03*
X992286D02*
D03*
X614000Y137000D02*
D03*
X514000D02*
D03*
X414000D02*
D03*
X614000Y437000D02*
D03*
X514000D02*
D03*
X1958166Y137000D02*
D03*
X1858166D02*
D03*
X1758166D02*
D03*
X1958166Y437000D02*
D03*
X1858166D02*
D03*
D92*
X892286D02*
D03*
X414000D02*
D03*
X1758166D02*
D03*
D93*
X2755000Y1860000D02*
D03*
X3190000D02*
D03*
D94*
X3337882Y584607D02*
D03*
X3282764D02*
D03*
X3243394Y545237D02*
D03*
Y490119D02*
D03*
Y435000D02*
D03*
X3282764Y395630D02*
D03*
X3337882D02*
D03*
X3393001D02*
D03*
X3432371Y435000D02*
D03*
Y490119D02*
D03*
Y545237D02*
D03*
X3391819Y584607D02*
D03*
X3310323Y517678D02*
D03*
Y462560D02*
D03*
X3365441D02*
D03*
X3365441Y517678D02*
D03*
%TF.MD5,4081ff3e0f20495b40f599a20d0bcff5*%
M02*
