G04*
G04 #@! TF.GenerationSoftware,Altium Limited,Altium Designer,22.11.1 (43)*
G04*
G04 Layer_Color=32768*
%FSLAX25Y25*%
%MOIN*%
G70*
G04*
G04 #@! TF.SameCoordinates,99ABEF4A-569F-4B03-9013-5FDDC67F37EC*
G04*
G04*
G04 #@! TF.FilePolarity,Positive*
G04*
G01*
G75*
%ADD10C,0.00600*%
%ADD12C,0.01000*%
%ADD13C,0.01500*%
%ADD94C,0.03000*%
%ADD95C,0.02100*%
%ADD96C,0.02000*%
D10*
X30177Y155118D02*
X90177D01*
Y183858D01*
X30177Y155118D02*
Y183858D01*
X90177D01*
X1181Y32637D02*
Y62637D01*
Y32637D02*
X29921D01*
X1181Y62637D02*
X29921D01*
Y32637D02*
Y62637D01*
X216516Y28779D02*
X256083D01*
X216516Y-4371D02*
X256083D01*
Y28779D01*
X216516Y-4371D02*
Y28779D01*
X240725Y126141D02*
X246630D01*
Y113858D02*
Y126141D01*
X240725Y113858D02*
X246630D01*
X240725D02*
Y126141D01*
X212037Y41168D02*
X240384D01*
X212037Y74632D02*
X240384D01*
X212037Y41168D02*
Y74632D01*
X240384Y41168D02*
Y74632D01*
X371200Y117354D02*
Y157354D01*
Y117354D02*
X381200D01*
Y157354D01*
X371200D02*
X381200D01*
X296012Y115276D02*
Y140079D01*
Y115276D02*
X320815D01*
Y140079D01*
X296012D02*
X320815D01*
X222500Y162000D02*
X242500D01*
X222500Y132000D02*
Y162000D01*
Y132000D02*
X242500D01*
Y162000D01*
X250093Y84933D02*
X274581D01*
Y109421D01*
X250093D02*
X274581D01*
X250093Y84933D02*
Y109421D01*
X75647Y142500D02*
X89147D01*
Y135500D02*
Y142500D01*
X75647Y135500D02*
X89147D01*
X75647D02*
Y142500D01*
X105157Y109509D02*
X124842D01*
Y89824D02*
Y109509D01*
X105157Y89824D02*
X124842D01*
X105157D02*
Y109509D01*
X355182Y85799D02*
Y103799D01*
X363182D01*
Y85799D02*
Y103799D01*
X355182Y85799D02*
X363182D01*
X357000Y174334D02*
Y187334D01*
X363000D01*
Y174334D02*
Y187334D01*
X357000Y174334D02*
X363000D01*
X345354Y173500D02*
Y178500D01*
X355354D01*
X345354Y173500D02*
X355354D01*
Y178500D01*
X122468Y123565D02*
X129468D01*
X122468D02*
Y127565D01*
X129468Y123565D02*
Y127565D01*
X122468D02*
X129468D01*
X14990Y92649D02*
Y105649D01*
X20990D01*
Y92649D02*
Y105649D01*
X14990Y92649D02*
X20990D01*
X7356Y91849D02*
X20356D01*
Y85849D02*
Y91849D01*
X7356Y85849D02*
X20356D01*
X7356D02*
Y91849D01*
X22127Y67840D02*
Y80840D01*
X28127D01*
Y67840D02*
Y80840D01*
X22127Y67840D02*
X28127D01*
X61790Y110600D02*
Y123600D01*
X55790Y110600D02*
X61790D01*
X55790D02*
Y123600D01*
X61790D01*
X7300Y109935D02*
Y122935D01*
X1300Y109935D02*
X7300D01*
X1300D02*
Y122935D01*
X7300D01*
X9627Y110016D02*
Y123016D01*
X15627D01*
Y110016D02*
Y123016D01*
X9627Y110016D02*
X15627D01*
X48627Y110600D02*
Y123600D01*
X54627D01*
Y110600D02*
Y123600D01*
X48627Y110600D02*
X54627D01*
X26527Y110383D02*
Y123383D01*
X32527D01*
Y110383D02*
Y123383D01*
X26527Y110383D02*
X32527D01*
X16990Y110017D02*
Y128016D01*
X24990D01*
Y110017D02*
Y128016D01*
X16990Y110017D02*
X24990D01*
X62990Y110265D02*
Y128265D01*
X70990D01*
Y110265D02*
Y128265D01*
X62990Y110265D02*
X70990D01*
X50133Y67840D02*
Y80840D01*
X56133D01*
Y67840D02*
Y80840D01*
X50133Y67840D02*
X56133D01*
X56424Y90749D02*
X69424D01*
X56424D02*
Y96749D01*
X69424D01*
Y90749D02*
Y96749D01*
X28958Y127966D02*
X35958D01*
Y123966D02*
Y127966D01*
X28958Y123966D02*
Y127966D01*
Y123966D02*
X35958D01*
X57033Y67840D02*
Y80840D01*
X63033D01*
Y67840D02*
Y80840D01*
X57033Y67840D02*
X63033D01*
X48595Y123565D02*
X55595D01*
X48595D02*
Y127565D01*
X55595Y123565D02*
Y127565D01*
X48595D02*
X55595D01*
X14127Y92649D02*
Y105649D01*
X8127Y92649D02*
X14127D01*
X8127D02*
Y105649D01*
X14127D01*
X56424Y104634D02*
X69424D01*
Y98634D02*
Y104634D01*
X56424Y98634D02*
X69424D01*
X56424D02*
Y104634D01*
X29059Y67840D02*
Y80840D01*
X35059D01*
Y67840D02*
Y80840D01*
X29059Y67840D02*
X35059D01*
X36158D02*
Y80840D01*
X42158D01*
Y67840D02*
Y80840D01*
X36158Y67840D02*
X42158D01*
X43196D02*
Y80840D01*
X49196D01*
Y67840D02*
Y80840D01*
X43196Y67840D02*
X49196D01*
X31284Y109509D02*
X50969D01*
Y89824D02*
Y109509D01*
X31284Y89824D02*
X50969D01*
X31284D02*
Y109509D01*
X161648Y92649D02*
Y105649D01*
X167648D01*
Y92649D02*
Y105649D01*
X161648Y92649D02*
X167648D01*
X154014Y91849D02*
X167014D01*
Y85849D02*
Y91849D01*
X154014Y85849D02*
X167014D01*
X154014D02*
Y91849D01*
X168785Y67840D02*
Y80840D01*
X174785D01*
Y67840D02*
Y80840D01*
X168785Y67840D02*
X174785D01*
X208448Y110600D02*
Y123600D01*
X202448Y110600D02*
X208448D01*
X202448D02*
Y123600D01*
X208448D01*
X153900Y110600D02*
Y123600D01*
X147900Y110600D02*
X153900D01*
X147900D02*
Y123600D01*
X153900D01*
X155400Y110600D02*
Y123600D01*
X161400D01*
Y110600D02*
Y123600D01*
X155400Y110600D02*
X161400D01*
X195285D02*
Y123600D01*
X201285D01*
Y110600D02*
Y123600D01*
X195285Y110600D02*
X201285D01*
X173185Y110383D02*
Y123383D01*
X179185D01*
Y110383D02*
Y123383D01*
X173185Y110383D02*
X179185D01*
X162946Y110062D02*
Y128062D01*
X170946D01*
Y110062D02*
Y128062D01*
X162946Y110062D02*
X170946D01*
X209648Y110265D02*
Y128265D01*
X217648D01*
Y110265D02*
Y128265D01*
X209648Y110265D02*
X217648D01*
X196791Y67840D02*
Y80840D01*
X202791D01*
Y67840D02*
Y80840D01*
X196791Y67840D02*
X202791D01*
X203082Y90749D02*
X216082D01*
X203082D02*
Y96749D01*
X216082D01*
Y90749D02*
Y96749D01*
X175617Y127966D02*
X182617D01*
Y123966D02*
Y127966D01*
X175617Y123966D02*
Y127966D01*
Y123966D02*
X182617D01*
X203691Y67840D02*
Y80840D01*
X209691D01*
Y67840D02*
Y80840D01*
X203691Y67840D02*
X209691D01*
X195254Y123565D02*
X202254D01*
X195254D02*
Y127565D01*
X202254Y123565D02*
Y127565D01*
X195254D02*
X202254D01*
X160785Y92649D02*
Y105649D01*
X154785Y92649D02*
X160785D01*
X154785D02*
Y105649D01*
X160785D01*
X203082Y104634D02*
X216082D01*
Y98634D02*
Y104634D01*
X203082Y98634D02*
X216082D01*
X203082D02*
Y104634D01*
X175717Y67840D02*
Y80840D01*
X181717D01*
Y67840D02*
Y80840D01*
X175717Y67840D02*
X181717D01*
X182817D02*
Y80840D01*
X188817D01*
Y67840D02*
Y80840D01*
X182817Y67840D02*
X188817D01*
X189854D02*
Y80840D01*
X195854D01*
Y67840D02*
Y80840D01*
X189854Y67840D02*
X195854D01*
X177943Y109509D02*
X197628D01*
Y89824D02*
Y109509D01*
X177943Y89824D02*
X197628D01*
X177943D02*
Y109509D01*
X88863Y92649D02*
Y105649D01*
X94863D01*
Y92649D02*
Y105649D01*
X88863Y92649D02*
X94863D01*
X81229Y91849D02*
X94229D01*
Y85849D02*
Y91849D01*
X81229Y85849D02*
X94229D01*
X81229D02*
Y91849D01*
X95999Y67840D02*
Y80840D01*
X101999D01*
Y67840D02*
Y80840D01*
X95999Y67840D02*
X101999D01*
X135662Y110600D02*
Y123600D01*
X129663Y110600D02*
X135662D01*
X129663D02*
Y123600D01*
X135662D01*
X81397Y110586D02*
Y123586D01*
X75397Y110586D02*
X81397D01*
X75397D02*
Y123586D01*
X81397D01*
X82897Y110586D02*
Y123586D01*
X88897D01*
Y110586D02*
Y123586D01*
X82897Y110586D02*
X88897D01*
X122500Y110600D02*
Y123600D01*
X128499D01*
Y110600D02*
Y123600D01*
X122500Y110600D02*
X128499D01*
X100399Y110383D02*
Y123383D01*
X106400D01*
Y110383D02*
Y123383D01*
X100399Y110383D02*
X106400D01*
X90443Y110048D02*
Y128048D01*
X98443D01*
Y110048D02*
Y128048D01*
X90443Y110048D02*
X98443D01*
X136863Y110265D02*
Y128265D01*
X144862D01*
Y110265D02*
Y128265D01*
X136863Y110265D02*
X144862D01*
X124005Y67840D02*
Y80840D01*
X130005D01*
Y67840D02*
Y80840D01*
X124005Y67840D02*
X130005D01*
X130296Y90749D02*
X143296D01*
X130296D02*
Y96749D01*
X143296D01*
Y90749D02*
Y96749D01*
X102831Y127966D02*
X109831D01*
Y123966D02*
Y127966D01*
X102831Y123966D02*
Y127966D01*
Y123966D02*
X109831D01*
X130905Y67840D02*
Y80840D01*
X136905D01*
Y67840D02*
Y80840D01*
X130905Y67840D02*
X136905D01*
X87999Y92649D02*
Y105649D01*
X81999Y92649D02*
X87999D01*
X81999D02*
Y105649D01*
X87999D01*
X130296Y104634D02*
X143296D01*
Y98634D02*
Y104634D01*
X130296Y98634D02*
X143296D01*
X130296D02*
Y104634D01*
X102931Y67840D02*
Y80840D01*
X108931D01*
Y67840D02*
Y80840D01*
X102931Y67840D02*
X108931D01*
X110031D02*
Y80840D01*
X116031D01*
Y67840D02*
Y80840D01*
X110031Y67840D02*
X116031D01*
X117068D02*
Y80840D01*
X123068D01*
Y67840D02*
Y80840D01*
X117068Y67840D02*
X123068D01*
X149900Y59334D02*
Y72334D01*
X155900D01*
Y59334D02*
Y72334D01*
X149900Y59334D02*
X155900D01*
X160098Y155118D02*
X220098D01*
Y183858D01*
X160098Y155118D02*
Y183858D01*
X220098D01*
X95138Y155118D02*
X155138D01*
Y183858D01*
X95138Y155118D02*
Y183858D01*
X155138D01*
X157019Y59334D02*
Y72334D01*
X163019D01*
Y59334D02*
Y72334D01*
X157019Y59334D02*
X163019D01*
X373700Y89299D02*
Y107299D01*
X381700D01*
Y89299D02*
Y107299D01*
X373700Y89299D02*
X381700D01*
X364500D02*
Y107299D01*
X372500D01*
Y89299D02*
Y107299D01*
X364500Y89299D02*
X372500D01*
X345982Y85799D02*
Y103799D01*
X353982D01*
Y85799D02*
Y103799D01*
X345982Y85799D02*
X353982D01*
X267827Y75474D02*
X280826D01*
X267827D02*
Y81474D01*
X280826D01*
Y75474D02*
Y81474D01*
X275079Y95870D02*
X288079D01*
X275079D02*
Y101870D01*
X288079D01*
Y95870D02*
Y101870D01*
X275079Y94272D02*
X288079D01*
Y88272D02*
Y94272D01*
X275079Y88272D02*
X288079D01*
X275079D02*
Y94272D01*
Y109232D02*
X288079D01*
Y103232D02*
Y109232D01*
X275079Y103232D02*
X288079D01*
X275079D02*
Y109232D01*
X345000Y86134D02*
Y99134D01*
X339000Y86134D02*
X345000D01*
X339000D02*
Y99134D01*
X345000D01*
X273731Y113858D02*
X279637D01*
X273731D02*
Y126141D01*
X279637D01*
Y113858D02*
Y126141D01*
X333134Y117000D02*
X346134D01*
X333134D02*
Y123000D01*
X346134D01*
Y117000D02*
Y123000D01*
X333134Y138354D02*
X346134D01*
Y132354D02*
Y138354D01*
X333134Y132354D02*
X346134D01*
X333134D02*
Y138354D01*
X253941Y126740D02*
X266941D01*
Y120740D02*
Y126740D01*
X253941Y120740D02*
X266941D01*
X253941D02*
Y126740D01*
Y113259D02*
X266941D01*
X253941D02*
Y119259D01*
X266941D01*
Y113259D02*
Y119259D01*
X238910Y84575D02*
Y97575D01*
X244910D01*
Y84575D02*
Y97575D01*
X238910Y84575D02*
X244910D01*
X231984Y40500D02*
X244984D01*
Y34500D02*
Y40500D01*
X231984Y34500D02*
X244984D01*
X231984D02*
Y40500D01*
X241910Y44018D02*
Y57018D01*
X247910D01*
Y44018D02*
Y57018D01*
X241910Y44018D02*
X247910D01*
X228576Y34500D02*
Y40500D01*
X215576D02*
X228576D01*
X215576Y34500D02*
Y40500D01*
Y34500D02*
X228576D01*
Y75474D02*
Y81474D01*
X215576D02*
X228576D01*
X215576Y75474D02*
Y81474D01*
Y75474D02*
X228576D01*
X257500Y29934D02*
X263500D01*
Y42934D01*
X257500D02*
X263500D01*
X257500Y29934D02*
Y42934D01*
X265700Y29934D02*
X271700D01*
Y42934D01*
X265700D02*
X271700D01*
X265700Y29934D02*
Y42934D01*
X130296Y89632D02*
X143296D01*
Y83632D02*
Y89632D01*
X130296Y83632D02*
X143296D01*
X130296D02*
Y89632D01*
X56424Y89698D02*
X69424D01*
Y83698D02*
Y89698D01*
X56424Y83698D02*
X69424D01*
X56424D02*
Y89698D01*
X203076Y89871D02*
X216076D01*
Y83871D02*
Y89871D01*
X203076Y83871D02*
X216076D01*
X203076D02*
Y89871D01*
X270500Y171000D02*
Y191000D01*
Y171000D02*
X300500D01*
Y191000D01*
X270500D02*
X300500D01*
X314000Y171000D02*
Y191000D01*
Y171000D02*
X344000D01*
Y191000D01*
X314000D02*
X344000D01*
X245441Y162000D02*
X265441D01*
X245441Y132000D02*
Y162000D01*
Y132000D02*
X265441D01*
Y162000D01*
X345354Y180000D02*
Y185000D01*
X355354D01*
X345354Y180000D02*
X355354D01*
Y185000D01*
X260250Y71000D02*
X273750D01*
Y64000D02*
Y71000D01*
X260250Y64000D02*
X273750D01*
X260250D02*
Y71000D01*
Y54106D02*
X273750D01*
Y47106D02*
Y54106D01*
X260250Y47106D02*
X273750D01*
X260250D02*
Y54106D01*
X12248Y142750D02*
Y156250D01*
X19248D01*
Y142750D02*
Y156250D01*
X12248Y142750D02*
X19248D01*
X274250Y33003D02*
X287750D01*
X274250D02*
Y40003D01*
X287750D01*
Y33003D02*
Y40003D01*
X62260Y170541D02*
Y168042D01*
X61010D01*
X60594Y168458D01*
Y169291D01*
X61010Y169708D01*
X62260D01*
X59761Y168458D02*
X59344Y168042D01*
X58511D01*
X58095Y168458D01*
Y168875D01*
X58511Y169291D01*
X58928D01*
X58511D01*
X58095Y169708D01*
Y170124D01*
X58511Y170541D01*
X59344D01*
X59761Y170124D01*
X14499Y49720D02*
X16998D01*
Y48470D01*
X16581Y48054D01*
X15748D01*
X15331Y48470D01*
Y49720D01*
X16998Y45554D02*
Y47221D01*
X15748D01*
X16165Y46387D01*
Y45971D01*
X15748Y45554D01*
X14915D01*
X14499Y45971D01*
Y46804D01*
X14915Y47221D01*
X242648Y120810D02*
X244314D01*
X244730Y121226D01*
Y122059D01*
X244314Y122476D01*
X242648D01*
X242231Y122059D01*
Y121226D01*
X243064Y121643D02*
X242231Y120810D01*
Y121226D02*
X242648Y120810D01*
X242231Y118311D02*
Y119977D01*
X243897Y118311D01*
X244314D01*
X244730Y118727D01*
Y119560D01*
X244314Y119977D01*
X308413Y128510D02*
X307997Y128927D01*
X307164D01*
X306747Y128510D01*
Y128094D01*
X307164Y127677D01*
X307997D01*
X308413Y127261D01*
Y126844D01*
X307997Y126428D01*
X307164D01*
X306747Y126844D01*
X309246Y126428D02*
X310080D01*
X309663D01*
Y128927D01*
X309246Y128510D01*
X231459Y151165D02*
X233958D01*
Y149916D01*
X233541Y149499D01*
X232708D01*
X232292Y149916D01*
Y151165D01*
X231875Y148666D02*
X231459Y148250D01*
Y147416D01*
X231875Y147000D01*
X233541D01*
X233958Y147416D01*
Y148250D01*
X233541Y148666D01*
X233125D01*
X232708Y148250D01*
Y147000D01*
X231042Y146167D02*
Y144501D01*
X231459Y143668D02*
Y142835D01*
Y143251D01*
X233958D01*
X233541Y143668D01*
X330471Y45189D02*
X328388D01*
X327972Y44772D01*
Y43939D01*
X328388Y43523D01*
X330471D01*
X327972Y41024D02*
Y42690D01*
X329638Y41024D01*
X330054D01*
X330471Y41440D01*
Y42273D01*
X330054Y42690D01*
X141900Y18722D02*
X139401D01*
Y19972D01*
X139817Y20388D01*
X140650D01*
X141067Y19972D01*
Y18722D01*
X141900Y21221D02*
Y22054D01*
Y21638D01*
X139401D01*
X139817Y21221D01*
X261087Y95095D02*
X263170D01*
X263586Y95511D01*
Y96344D01*
X263170Y96761D01*
X261087D01*
X261504Y97594D02*
X261087Y98010D01*
Y98843D01*
X261504Y99260D01*
X261920D01*
X262337Y98843D01*
Y98427D01*
Y98843D01*
X262753Y99260D01*
X263170D01*
X263586Y98843D01*
Y98010D01*
X263170Y97594D01*
X96729Y29741D02*
X96313Y30158D01*
X95480D01*
X95063Y29741D01*
Y29325D01*
X95480Y28908D01*
X96313D01*
X96729Y28492D01*
Y28075D01*
X96313Y27659D01*
X95480D01*
X95063Y28075D01*
X99229Y27659D02*
X97562D01*
X99229Y29325D01*
Y29741D01*
X98812Y30158D01*
X97979D01*
X97562Y29741D01*
X100062Y27242D02*
X101728D01*
X102561Y27659D02*
X103394D01*
X102977D01*
Y30158D01*
X102561Y29741D01*
X79065Y140250D02*
X80731D01*
X79898D01*
Y137750D01*
X81564D02*
Y140250D01*
X82813D01*
X83230Y139833D01*
Y139000D01*
X82813Y138584D01*
X81564D01*
X85729Y140250D02*
X84063D01*
Y139000D01*
X84896Y139417D01*
X85313D01*
X85729Y139000D01*
Y138167D01*
X85313Y137750D01*
X84480D01*
X84063Y138167D01*
X111042Y101124D02*
Y99041D01*
X111459Y98625D01*
X112292D01*
X112708Y99041D01*
Y101124D01*
X113542Y98625D02*
X114375D01*
X113958D01*
Y101124D01*
X113542Y100707D01*
X115624Y98208D02*
X117290D01*
X118123Y98625D02*
X118956D01*
X118540D01*
Y101124D01*
X118123Y100707D01*
X358349Y93341D02*
X357932Y92925D01*
Y92092D01*
X358349Y91675D01*
X360015D01*
X360432Y92092D01*
Y92925D01*
X360015Y93341D01*
X360432Y94174D02*
Y95007D01*
Y94591D01*
X357932D01*
X358349Y94174D01*
X360432Y97507D02*
X357932D01*
X359182Y96257D01*
Y97923D01*
X361250Y177710D02*
X358750D01*
Y178960D01*
X359167Y179376D01*
X360000D01*
X360417Y178960D01*
Y177710D01*
Y178543D02*
X361250Y179376D01*
Y180209D02*
Y181042D01*
Y180626D01*
X358750D01*
X359167Y180209D01*
Y182292D02*
X358750Y182708D01*
Y183541D01*
X359167Y183958D01*
X359583D01*
X360000Y183541D01*
X360417Y183958D01*
X360833D01*
X361250Y183541D01*
Y182708D01*
X360833Y182292D01*
X360417D01*
X360000Y182708D01*
X359583Y182292D01*
X359167D01*
X360000Y182708D02*
Y183541D01*
X353687Y177250D02*
Y174750D01*
X352437D01*
X352020Y175167D01*
Y176000D01*
X352437Y176417D01*
X353687D01*
X352853D02*
X352020Y177250D01*
X349521D02*
X351187D01*
X349521Y175584D01*
Y175167D01*
X349938Y174750D01*
X350771D01*
X351187Y175167D01*
X348688D02*
X348272Y174750D01*
X347439D01*
X347022Y175167D01*
Y176833D01*
X347439Y177250D01*
X348272D01*
X348688Y176833D01*
Y175167D01*
X130133Y126606D02*
Y124107D01*
X128884D01*
X128467Y124523D01*
Y125356D01*
X128884Y125773D01*
X130133D01*
X129300D02*
X128467Y126606D01*
X125968Y124107D02*
X127634D01*
Y125356D01*
X126801Y124940D01*
X126384D01*
X125968Y125356D01*
Y126189D01*
X126384Y126606D01*
X127218D01*
X127634Y126189D01*
X125135Y127022D02*
X123469D01*
X122636Y126606D02*
X121803D01*
X122219D01*
Y124107D01*
X122636Y124523D01*
X16949Y96441D02*
X16532Y96025D01*
Y95192D01*
X16949Y94775D01*
X18615D01*
X19031Y95192D01*
Y96025D01*
X18615Y96441D01*
X19031Y97274D02*
Y98107D01*
Y97691D01*
X16532D01*
X16949Y97274D01*
X19448Y99357D02*
Y101023D01*
X19031Y103522D02*
Y101856D01*
X17365Y103522D01*
X16949D01*
X16532Y103106D01*
Y102273D01*
X16949Y101856D01*
X10940Y89890D02*
X10524Y90307D01*
X9691D01*
X9274Y89890D01*
Y88224D01*
X9691Y87807D01*
X10524D01*
X10940Y88224D01*
X13440Y87807D02*
X11773D01*
X13440Y89473D01*
Y89890D01*
X13023Y90307D01*
X12190D01*
X11773Y89890D01*
X14273Y87391D02*
X15939D01*
X18438Y87807D02*
X16772D01*
X18438Y89473D01*
Y89890D01*
X18021Y90307D01*
X17188D01*
X16772Y89890D01*
X24086Y71425D02*
X23669Y71008D01*
Y70175D01*
X24086Y69759D01*
X25752D01*
X26168Y70175D01*
Y71008D01*
X25752Y71425D01*
X24086Y72258D02*
X23669Y72674D01*
Y73507D01*
X24086Y73924D01*
X24502D01*
X24919Y73507D01*
Y73091D01*
Y73507D01*
X25335Y73924D01*
X25752D01*
X26168Y73507D01*
Y72674D01*
X25752Y72258D01*
X26585Y74757D02*
Y76423D01*
X26168Y78922D02*
Y77256D01*
X24502Y78922D01*
X24086D01*
X23669Y78506D01*
Y77673D01*
X24086Y77256D01*
X59831Y120016D02*
X60248Y120432D01*
Y121265D01*
X59831Y121682D01*
X58165D01*
X57749Y121265D01*
Y120432D01*
X58165Y120016D01*
X57749Y117933D02*
X60248D01*
X58998Y119183D01*
Y117516D01*
X57332Y116683D02*
Y115017D01*
X57749Y112518D02*
Y114184D01*
X59415Y112518D01*
X59831D01*
X60248Y112935D01*
Y113768D01*
X59831Y114184D01*
X5341Y119350D02*
X5758Y119767D01*
Y120600D01*
X5341Y121016D01*
X3675D01*
X3259Y120600D01*
Y119767D01*
X3675Y119350D01*
X5758Y116851D02*
Y118517D01*
X4508D01*
X4925Y117684D01*
Y117268D01*
X4508Y116851D01*
X3675D01*
X3259Y117268D01*
Y118101D01*
X3675Y118517D01*
X2842Y116018D02*
Y114352D01*
X3259Y111853D02*
Y113519D01*
X4925Y111853D01*
X5341D01*
X5758Y112269D01*
Y113102D01*
X5341Y113519D01*
X11586Y113601D02*
X11169Y113184D01*
Y112351D01*
X11586Y111935D01*
X13252D01*
X13668Y112351D01*
Y113184D01*
X13252Y113601D01*
X11169Y116100D02*
X11586Y115267D01*
X12419Y114434D01*
X13252D01*
X13668Y114850D01*
Y115683D01*
X13252Y116100D01*
X12835D01*
X12419Y115683D01*
Y114434D01*
X14085Y116933D02*
Y118599D01*
X13668Y121098D02*
Y119432D01*
X12002Y121098D01*
X11586D01*
X11169Y120682D01*
Y119849D01*
X11586Y119432D01*
X50586Y114184D02*
X50169Y113768D01*
Y112935D01*
X50586Y112518D01*
X52252D01*
X52668Y112935D01*
Y113768D01*
X52252Y114184D01*
X50169Y115017D02*
Y116683D01*
X50586D01*
X52252Y115017D01*
X52668D01*
X53085Y117516D02*
Y119183D01*
X52668Y121682D02*
Y120016D01*
X51002Y121682D01*
X50586D01*
X50169Y121265D01*
Y120432D01*
X50586Y120016D01*
X28486Y113967D02*
X28069Y113550D01*
Y112717D01*
X28486Y112301D01*
X30152D01*
X30568Y112717D01*
Y113550D01*
X30152Y113967D01*
X28486Y114800D02*
X28069Y115216D01*
Y116050D01*
X28486Y116466D01*
X28902D01*
X29319Y116050D01*
X29735Y116466D01*
X30152D01*
X30568Y116050D01*
Y115216D01*
X30152Y114800D01*
X29735D01*
X29319Y115216D01*
X28902Y114800D01*
X28486D01*
X29319Y115216D02*
Y116050D01*
X30985Y117299D02*
Y118965D01*
X30568Y121464D02*
Y119798D01*
X28902Y121464D01*
X28486D01*
X28069Y121048D01*
Y120215D01*
X28486Y119798D01*
X19949Y116101D02*
X19532Y115684D01*
Y114851D01*
X19949Y114435D01*
X21615D01*
X22031Y114851D01*
Y115684D01*
X21615Y116101D01*
Y116934D02*
X22031Y117350D01*
Y118183D01*
X21615Y118600D01*
X19949D01*
X19532Y118183D01*
Y117350D01*
X19949Y116934D01*
X20365D01*
X20782Y117350D01*
Y118600D01*
X22448Y119433D02*
Y121099D01*
X22031Y123598D02*
Y121932D01*
X20365Y123598D01*
X19949D01*
X19532Y123182D01*
Y122349D01*
X19949Y121932D01*
X65949Y115308D02*
X65532Y114892D01*
Y114059D01*
X65949Y113642D01*
X67615D01*
X68031Y114059D01*
Y114892D01*
X67615Y115308D01*
X68031Y116141D02*
Y116974D01*
Y116558D01*
X65532D01*
X65949Y116141D01*
Y118224D02*
X65532Y118640D01*
Y119474D01*
X65949Y119890D01*
X67615D01*
X68031Y119474D01*
Y118640D01*
X67615Y118224D01*
X65949D01*
X68448Y120723D02*
Y122389D01*
X68031Y124888D02*
Y123222D01*
X66365Y124888D01*
X65949D01*
X65532Y124472D01*
Y123639D01*
X65949Y123222D01*
X54174Y69967D02*
X51675D01*
Y71216D01*
X52091Y71633D01*
X52924D01*
X53341Y71216D01*
Y69967D01*
Y70800D02*
X54174Y71633D01*
Y72466D02*
Y73299D01*
Y72883D01*
X51675D01*
X52091Y72466D01*
X54590Y74549D02*
Y76215D01*
X54174Y78714D02*
Y77048D01*
X52508Y78714D01*
X52091D01*
X51675Y78298D01*
Y77464D01*
X52091Y77048D01*
X67506Y94790D02*
Y92291D01*
X66256D01*
X65839Y92707D01*
Y93540D01*
X66256Y93957D01*
X67506D01*
X66673D02*
X65839Y94790D01*
X63340D02*
X65007D01*
X63340Y93124D01*
Y92707D01*
X63757Y92291D01*
X64590D01*
X65007Y92707D01*
X62507Y95207D02*
X60841D01*
X58342Y94790D02*
X60008D01*
X58342Y93124D01*
Y92707D01*
X58758Y92291D01*
X59592D01*
X60008Y92707D01*
X27877Y124925D02*
Y127424D01*
X29126D01*
X29543Y127007D01*
Y126174D01*
X29126Y125758D01*
X27877D01*
X28710D02*
X29543Y124925D01*
X30376Y127007D02*
X30792Y127424D01*
X31625D01*
X32042Y127007D01*
Y126591D01*
X31625Y126174D01*
X31209D01*
X31625D01*
X32042Y125758D01*
Y125341D01*
X31625Y124925D01*
X30792D01*
X30376Y125341D01*
X32875Y124508D02*
X34541D01*
X37040Y124925D02*
X35374D01*
X37040Y126591D01*
Y127007D01*
X36624Y127424D01*
X35791D01*
X35374Y127007D01*
X61074Y69759D02*
X58575D01*
Y71008D01*
X58991Y71425D01*
X59824D01*
X60241Y71008D01*
Y69759D01*
Y70592D02*
X61074Y71425D01*
Y73507D02*
X58575D01*
X59824Y72258D01*
Y73924D01*
X61490Y74757D02*
Y76423D01*
X61074Y78922D02*
Y77256D01*
X59408Y78922D01*
X58991D01*
X58575Y78506D01*
Y77673D01*
X58991Y77256D01*
X56677Y126606D02*
Y124107D01*
X55428D01*
X55011Y124523D01*
Y125356D01*
X55428Y125773D01*
X56677D01*
X55844D02*
X55011Y126606D01*
X52512Y124107D02*
X54178D01*
Y125356D01*
X53345Y124940D01*
X52929D01*
X52512Y125356D01*
Y126189D01*
X52929Y126606D01*
X53762D01*
X54178Y126189D01*
X51679Y127022D02*
X50013D01*
X47514Y126606D02*
X49180D01*
X47514Y124940D01*
Y124523D01*
X47930Y124107D01*
X48763D01*
X49180Y124523D01*
X10086Y103730D02*
X12585D01*
Y102481D01*
X12168Y102064D01*
X11335D01*
X10919Y102481D01*
Y103730D01*
Y102898D02*
X10086Y102064D01*
X12585Y99565D02*
X12168Y100398D01*
X11335Y101231D01*
X10502D01*
X10086Y100815D01*
Y99982D01*
X10502Y99565D01*
X10919D01*
X11335Y99982D01*
Y101231D01*
X9669Y98732D02*
Y97066D01*
X10086Y94567D02*
Y96233D01*
X11752Y94567D01*
X12168D01*
X12585Y94983D01*
Y95816D01*
X12168Y96233D01*
X58342Y100593D02*
Y103092D01*
X59592D01*
X60008Y102676D01*
Y101843D01*
X59592Y101426D01*
X58342D01*
X59175D02*
X60008Y100593D01*
X60841Y103092D02*
X62507D01*
Y102676D01*
X60841Y101010D01*
Y100593D01*
X63340Y100177D02*
X65007D01*
X67506Y100593D02*
X65840D01*
X67506Y102259D01*
Y102676D01*
X67089Y103092D01*
X66256D01*
X65840Y102676D01*
X33100Y68717D02*
X30601D01*
Y69967D01*
X31017Y70384D01*
X31850D01*
X32267Y69967D01*
Y68717D01*
Y69550D02*
X33100Y70384D01*
Y71216D02*
Y72050D01*
Y71633D01*
X30601D01*
X31017Y71216D01*
X33100Y74549D02*
X30601D01*
X31850Y73299D01*
Y74965D01*
X33516Y75798D02*
Y77464D01*
X33100Y79964D02*
Y78298D01*
X31434Y79964D01*
X31017D01*
X30601Y79547D01*
Y78714D01*
X31017Y78298D01*
X40200Y68717D02*
X37701D01*
Y69967D01*
X38117Y70384D01*
X38950D01*
X39367Y69967D01*
Y68717D01*
Y69550D02*
X40200Y70384D01*
Y71216D02*
Y72050D01*
Y71633D01*
X37701D01*
X38117Y71216D01*
X37701Y74965D02*
Y73299D01*
X38950D01*
X38534Y74132D01*
Y74549D01*
X38950Y74965D01*
X39783D01*
X40200Y74549D01*
Y73716D01*
X39783Y73299D01*
X40616Y75798D02*
Y77464D01*
X40200Y79964D02*
Y78298D01*
X38534Y79964D01*
X38117D01*
X37701Y79547D01*
Y78714D01*
X38117Y78298D01*
X47237Y68717D02*
X44738D01*
Y69967D01*
X45154Y70384D01*
X45987D01*
X46404Y69967D01*
Y68717D01*
Y69550D02*
X47237Y70384D01*
Y71216D02*
Y72050D01*
Y71633D01*
X44738D01*
X45154Y71216D01*
X44738Y74965D02*
X45154Y74132D01*
X45987Y73299D01*
X46820D01*
X47237Y73716D01*
Y74549D01*
X46820Y74965D01*
X46404D01*
X45987Y74549D01*
Y73299D01*
X47653Y75798D02*
Y77464D01*
X47237Y79964D02*
Y78298D01*
X45571Y79964D01*
X45154D01*
X44738Y79547D01*
Y78714D01*
X45154Y78298D01*
X48484Y29741D02*
X48068Y30158D01*
X47235D01*
X46818Y29741D01*
Y29325D01*
X47235Y28908D01*
X48068D01*
X48484Y28492D01*
Y28075D01*
X48068Y27659D01*
X47235D01*
X46818Y28075D01*
X50984Y27659D02*
X49317D01*
X50984Y29325D01*
Y29741D01*
X50567Y30158D01*
X49734D01*
X49317Y29741D01*
X51817Y27242D02*
X53483D01*
X55982Y27659D02*
X54316D01*
X55982Y29325D01*
Y29741D01*
X55565Y30158D01*
X54732D01*
X54316Y29741D01*
X36753Y101124D02*
Y99041D01*
X37170Y98625D01*
X38003D01*
X38419Y99041D01*
Y101124D01*
X39253Y98625D02*
X40086D01*
X39669D01*
Y101124D01*
X39253Y100707D01*
X41335Y98208D02*
X43001D01*
X45501Y98625D02*
X43834D01*
X45501Y100291D01*
Y100707D01*
X45084Y101124D01*
X44251D01*
X43834Y100707D01*
X163607Y96441D02*
X163190Y96025D01*
Y95192D01*
X163607Y94775D01*
X165273D01*
X165689Y95192D01*
Y96025D01*
X165273Y96441D01*
X165689Y97274D02*
Y98107D01*
Y97691D01*
X163190D01*
X163607Y97274D01*
X166106Y99357D02*
Y101023D01*
X163607Y101856D02*
X163190Y102273D01*
Y103106D01*
X163607Y103522D01*
X164023D01*
X164440Y103106D01*
Y102689D01*
Y103106D01*
X164856Y103522D01*
X165273D01*
X165689Y103106D01*
Y102273D01*
X165273Y101856D01*
X157598Y89890D02*
X157182Y90307D01*
X156349D01*
X155932Y89890D01*
Y88224D01*
X156349Y87807D01*
X157182D01*
X157598Y88224D01*
X160098Y87807D02*
X158432D01*
X160098Y89473D01*
Y89890D01*
X159681Y90307D01*
X158848D01*
X158432Y89890D01*
X160931Y87391D02*
X162597D01*
X163430Y89890D02*
X163847Y90307D01*
X164680D01*
X165096Y89890D01*
Y89473D01*
X164680Y89057D01*
X164263D01*
X164680D01*
X165096Y88640D01*
Y88224D01*
X164680Y87807D01*
X163847D01*
X163430Y88224D01*
X170744Y71425D02*
X170327Y71008D01*
Y70175D01*
X170744Y69759D01*
X172410D01*
X172826Y70175D01*
Y71008D01*
X172410Y71425D01*
X170744Y72258D02*
X170327Y72674D01*
Y73507D01*
X170744Y73924D01*
X171160D01*
X171577Y73507D01*
Y73091D01*
Y73507D01*
X171993Y73924D01*
X172410D01*
X172826Y73507D01*
Y72674D01*
X172410Y72258D01*
X173243Y74757D02*
Y76423D01*
X170744Y77256D02*
X170327Y77673D01*
Y78506D01*
X170744Y78922D01*
X171160D01*
X171577Y78506D01*
Y78089D01*
Y78506D01*
X171993Y78922D01*
X172410D01*
X172826Y78506D01*
Y77673D01*
X172410Y77256D01*
X206489Y120016D02*
X206906Y120432D01*
Y121265D01*
X206489Y121682D01*
X204823D01*
X204407Y121265D01*
Y120432D01*
X204823Y120016D01*
X204407Y117933D02*
X206906D01*
X205656Y119183D01*
Y117516D01*
X203990Y116683D02*
Y115017D01*
X206489Y114184D02*
X206906Y113768D01*
Y112935D01*
X206489Y112518D01*
X206073D01*
X205656Y112935D01*
Y113351D01*
Y112935D01*
X205240Y112518D01*
X204823D01*
X204407Y112935D01*
Y113768D01*
X204823Y114184D01*
X151941Y120016D02*
X152358Y120432D01*
Y121265D01*
X151941Y121682D01*
X150275D01*
X149859Y121265D01*
Y120432D01*
X150275Y120016D01*
X152358Y117516D02*
Y119183D01*
X151108D01*
X151525Y118350D01*
Y117933D01*
X151108Y117516D01*
X150275D01*
X149859Y117933D01*
Y118766D01*
X150275Y119183D01*
X149442Y116683D02*
Y115017D01*
X151941Y114184D02*
X152358Y113768D01*
Y112935D01*
X151941Y112518D01*
X151525D01*
X151108Y112935D01*
Y113351D01*
Y112935D01*
X150692Y112518D01*
X150275D01*
X149859Y112935D01*
Y113768D01*
X150275Y114184D01*
X157359Y114184D02*
X156942Y113768D01*
Y112935D01*
X157359Y112518D01*
X159025D01*
X159441Y112935D01*
Y113768D01*
X159025Y114184D01*
X156942Y116683D02*
X157359Y115850D01*
X158192Y115017D01*
X159025D01*
X159441Y115434D01*
Y116267D01*
X159025Y116683D01*
X158608D01*
X158192Y116267D01*
Y115017D01*
X159858Y117516D02*
Y119183D01*
X157359Y120016D02*
X156942Y120432D01*
Y121265D01*
X157359Y121682D01*
X157775D01*
X158192Y121265D01*
Y120849D01*
Y121265D01*
X158608Y121682D01*
X159025D01*
X159441Y121265D01*
Y120432D01*
X159025Y120016D01*
X197244Y114184D02*
X196827Y113768D01*
Y112935D01*
X197244Y112518D01*
X198910D01*
X199326Y112935D01*
Y113768D01*
X198910Y114184D01*
X196827Y115017D02*
Y116683D01*
X197244D01*
X198910Y115017D01*
X199326D01*
X199743Y117516D02*
Y119183D01*
X197244Y120016D02*
X196827Y120432D01*
Y121265D01*
X197244Y121682D01*
X197660D01*
X198077Y121265D01*
Y120849D01*
Y121265D01*
X198493Y121682D01*
X198910D01*
X199326Y121265D01*
Y120432D01*
X198910Y120016D01*
X175144Y113967D02*
X174727Y113550D01*
Y112717D01*
X175144Y112301D01*
X176810D01*
X177226Y112717D01*
Y113550D01*
X176810Y113967D01*
X175144Y114800D02*
X174727Y115216D01*
Y116050D01*
X175144Y116466D01*
X175560D01*
X175977Y116050D01*
X176393Y116466D01*
X176810D01*
X177226Y116050D01*
Y115216D01*
X176810Y114800D01*
X176393D01*
X175977Y115216D01*
X175560Y114800D01*
X175144D01*
X175977Y115216D02*
Y116050D01*
X177643Y117299D02*
Y118965D01*
X175144Y119798D02*
X174727Y120215D01*
Y121048D01*
X175144Y121464D01*
X175560D01*
X175977Y121048D01*
Y120631D01*
Y121048D01*
X176393Y121464D01*
X176810D01*
X177226Y121048D01*
Y120215D01*
X176810Y119798D01*
X165904Y116146D02*
X165488Y115730D01*
Y114897D01*
X165904Y114480D01*
X167570D01*
X167987Y114897D01*
Y115730D01*
X167570Y116146D01*
Y116980D02*
X167987Y117396D01*
Y118229D01*
X167570Y118646D01*
X165904D01*
X165488Y118229D01*
Y117396D01*
X165904Y116980D01*
X166321D01*
X166737Y117396D01*
Y118646D01*
X168403Y119479D02*
Y121145D01*
X165904Y121978D02*
X165488Y122394D01*
Y123227D01*
X165904Y123644D01*
X166321D01*
X166737Y123227D01*
Y122811D01*
Y123227D01*
X167154Y123644D01*
X167570D01*
X167987Y123227D01*
Y122394D01*
X167570Y121978D01*
X212607Y115308D02*
X212190Y114892D01*
Y114059D01*
X212607Y113642D01*
X214273D01*
X214689Y114059D01*
Y114892D01*
X214273Y115308D01*
X214689Y116141D02*
Y116974D01*
Y116558D01*
X212190D01*
X212607Y116141D01*
Y118224D02*
X212190Y118640D01*
Y119474D01*
X212607Y119890D01*
X214273D01*
X214689Y119474D01*
Y118640D01*
X214273Y118224D01*
X212607D01*
X215106Y120723D02*
Y122389D01*
X212607Y123222D02*
X212190Y123639D01*
Y124472D01*
X212607Y124888D01*
X213023D01*
X213440Y124472D01*
Y124055D01*
Y124472D01*
X213856Y124888D01*
X214273D01*
X214689Y124472D01*
Y123639D01*
X214273Y123222D01*
X200832Y69967D02*
X198333D01*
Y71216D01*
X198749Y71633D01*
X199582D01*
X199999Y71216D01*
Y69967D01*
Y70800D02*
X200832Y71633D01*
Y72466D02*
Y73299D01*
Y72883D01*
X198333D01*
X198749Y72466D01*
X201249Y74549D02*
Y76215D01*
X198749Y77048D02*
X198333Y77464D01*
Y78298D01*
X198749Y78714D01*
X199166D01*
X199582Y78298D01*
Y77881D01*
Y78298D01*
X199999Y78714D01*
X200415D01*
X200832Y78298D01*
Y77464D01*
X200415Y77048D01*
X214164Y94790D02*
Y92291D01*
X212914D01*
X212498Y92707D01*
Y93540D01*
X212914Y93957D01*
X214164D01*
X213331D02*
X212498Y94790D01*
X209998D02*
X211665D01*
X209998Y93124D01*
Y92707D01*
X210415Y92291D01*
X211248D01*
X211665Y92707D01*
X209165Y95207D02*
X207499D01*
X206666Y92707D02*
X206250Y92291D01*
X205417D01*
X205000Y92707D01*
Y93124D01*
X205417Y93540D01*
X205833D01*
X205417D01*
X205000Y93957D01*
Y94374D01*
X205417Y94790D01*
X206250D01*
X206666Y94374D01*
X174535Y124925D02*
Y127424D01*
X175784D01*
X176201Y127007D01*
Y126174D01*
X175784Y125758D01*
X174535D01*
X175368D02*
X176201Y124925D01*
X177034Y127007D02*
X177451Y127424D01*
X178284D01*
X178700Y127007D01*
Y126591D01*
X178284Y126174D01*
X177867D01*
X178284D01*
X178700Y125758D01*
Y125341D01*
X178284Y124925D01*
X177451D01*
X177034Y125341D01*
X179533Y124508D02*
X181199D01*
X182032Y127007D02*
X182449Y127424D01*
X183282D01*
X183698Y127007D01*
Y126591D01*
X183282Y126174D01*
X182865D01*
X183282D01*
X183698Y125758D01*
Y125341D01*
X183282Y124925D01*
X182449D01*
X182032Y125341D01*
X207732Y69759D02*
X205233D01*
Y71008D01*
X205649Y71425D01*
X206482D01*
X206899Y71008D01*
Y69759D01*
Y70592D02*
X207732Y71425D01*
Y73507D02*
X205233D01*
X206482Y72258D01*
Y73924D01*
X208149Y74757D02*
Y76423D01*
X205649Y77256D02*
X205233Y77673D01*
Y78506D01*
X205649Y78922D01*
X206066D01*
X206482Y78506D01*
Y78089D01*
Y78506D01*
X206899Y78922D01*
X207315D01*
X207732Y78506D01*
Y77673D01*
X207315Y77256D01*
X203335Y126606D02*
Y124107D01*
X202086D01*
X201669Y124523D01*
Y125356D01*
X202086Y125773D01*
X203335D01*
X202502D02*
X201669Y126606D01*
X199170Y124107D02*
X200836D01*
Y125356D01*
X200003Y124940D01*
X199587D01*
X199170Y125356D01*
Y126189D01*
X199587Y126606D01*
X200420D01*
X200836Y126189D01*
X198337Y127022D02*
X196671D01*
X195838Y124523D02*
X195421Y124107D01*
X194588D01*
X194172Y124523D01*
Y124940D01*
X194588Y125356D01*
X195005D01*
X194588D01*
X194172Y125773D01*
Y126189D01*
X194588Y126606D01*
X195421D01*
X195838Y126189D01*
X156744Y103730D02*
X159243D01*
Y102481D01*
X158826Y102064D01*
X157993D01*
X157577Y102481D01*
Y103730D01*
Y102898D02*
X156744Y102064D01*
X159243Y99565D02*
X158826Y100398D01*
X157993Y101231D01*
X157160D01*
X156744Y100815D01*
Y99982D01*
X157160Y99565D01*
X157577D01*
X157993Y99982D01*
Y101231D01*
X156327Y98732D02*
Y97066D01*
X158826Y96233D02*
X159243Y95816D01*
Y94983D01*
X158826Y94567D01*
X158410D01*
X157993Y94983D01*
Y95400D01*
Y94983D01*
X157577Y94567D01*
X157160D01*
X156744Y94983D01*
Y95816D01*
X157160Y96233D01*
X205000Y100593D02*
Y103092D01*
X206250D01*
X206666Y102676D01*
Y101843D01*
X206250Y101426D01*
X205000D01*
X205833D02*
X206666Y100593D01*
X207499Y103092D02*
X209165D01*
Y102676D01*
X207499Y101010D01*
Y100593D01*
X209998Y100177D02*
X211665D01*
X212498Y102676D02*
X212914Y103092D01*
X213747D01*
X214164Y102676D01*
Y102259D01*
X213747Y101843D01*
X213331D01*
X213747D01*
X214164Y101426D01*
Y101010D01*
X213747Y100593D01*
X212914D01*
X212498Y101010D01*
X179758Y68717D02*
X177259D01*
Y69967D01*
X177675Y70384D01*
X178508D01*
X178925Y69967D01*
Y68717D01*
Y69550D02*
X179758Y70384D01*
Y71216D02*
Y72050D01*
Y71633D01*
X177259D01*
X177675Y71216D01*
X179758Y74549D02*
X177259D01*
X178508Y73299D01*
Y74965D01*
X180174Y75798D02*
Y77464D01*
X177675Y78298D02*
X177259Y78714D01*
Y79547D01*
X177675Y79964D01*
X178092D01*
X178508Y79547D01*
Y79131D01*
Y79547D01*
X178925Y79964D01*
X179341D01*
X179758Y79547D01*
Y78714D01*
X179341Y78298D01*
X186858Y68717D02*
X184359D01*
Y69967D01*
X184775Y70384D01*
X185608D01*
X186025Y69967D01*
Y68717D01*
Y69550D02*
X186858Y70384D01*
Y71216D02*
Y72050D01*
Y71633D01*
X184359D01*
X184775Y71216D01*
X184359Y74965D02*
Y73299D01*
X185608D01*
X185192Y74132D01*
Y74549D01*
X185608Y74965D01*
X186441D01*
X186858Y74549D01*
Y73716D01*
X186441Y73299D01*
X187274Y75798D02*
Y77464D01*
X184775Y78298D02*
X184359Y78714D01*
Y79547D01*
X184775Y79964D01*
X185192D01*
X185608Y79547D01*
Y79131D01*
Y79547D01*
X186025Y79964D01*
X186441D01*
X186858Y79547D01*
Y78714D01*
X186441Y78298D01*
X193895Y68717D02*
X191396D01*
Y69967D01*
X191812Y70384D01*
X192645D01*
X193062Y69967D01*
Y68717D01*
Y69550D02*
X193895Y70384D01*
Y71216D02*
Y72050D01*
Y71633D01*
X191396D01*
X191812Y71216D01*
X191396Y74965D02*
X191812Y74132D01*
X192645Y73299D01*
X193478D01*
X193895Y73716D01*
Y74549D01*
X193478Y74965D01*
X193062D01*
X192645Y74549D01*
Y73299D01*
X194311Y75798D02*
Y77464D01*
X191812Y78298D02*
X191396Y78714D01*
Y79547D01*
X191812Y79964D01*
X192229D01*
X192645Y79547D01*
Y79131D01*
Y79547D01*
X193062Y79964D01*
X193478D01*
X193895Y79547D01*
Y78714D01*
X193478Y78298D01*
X182901Y29741D02*
X182484Y30158D01*
X181651D01*
X181235Y29741D01*
Y29325D01*
X181651Y28908D01*
X182484D01*
X182901Y28492D01*
Y28075D01*
X182484Y27659D01*
X181651D01*
X181235Y28075D01*
X185400Y27659D02*
X183734D01*
X185400Y29325D01*
Y29741D01*
X184984Y30158D01*
X184151D01*
X183734Y29741D01*
X186233Y27242D02*
X187899D01*
X188732Y29741D02*
X189149Y30158D01*
X189982D01*
X190398Y29741D01*
Y29325D01*
X189982Y28908D01*
X189565D01*
X189982D01*
X190398Y28492D01*
Y28075D01*
X189982Y27659D01*
X189149D01*
X188732Y28075D01*
X183412Y101124D02*
Y99041D01*
X183828Y98625D01*
X184661D01*
X185078Y99041D01*
Y101124D01*
X185911Y98625D02*
X186744D01*
X186327D01*
Y101124D01*
X185911Y100707D01*
X187993Y98208D02*
X189660D01*
X190493Y100707D02*
X190909Y101124D01*
X191742D01*
X192159Y100707D01*
Y100291D01*
X191742Y99874D01*
X191326D01*
X191742D01*
X192159Y99458D01*
Y99041D01*
X191742Y98625D01*
X190909D01*
X190493Y99041D01*
X90821Y96858D02*
X90405Y96441D01*
Y95608D01*
X90821Y95192D01*
X92487D01*
X92904Y95608D01*
Y96441D01*
X92487Y96858D01*
X92904Y97691D02*
Y98524D01*
Y98107D01*
X90405D01*
X90821Y97691D01*
X93320Y99774D02*
Y101440D01*
X92904Y102273D02*
Y103106D01*
Y102689D01*
X90405D01*
X90821Y102273D01*
X85229Y89890D02*
X84813Y90307D01*
X83980D01*
X83563Y89890D01*
Y88224D01*
X83980Y87807D01*
X84813D01*
X85229Y88224D01*
X87729Y87807D02*
X86063D01*
X87729Y89473D01*
Y89890D01*
X87312Y90307D01*
X86479D01*
X86063Y89890D01*
X88562Y87391D02*
X90228D01*
X91061Y87807D02*
X91894D01*
X91477D01*
Y90307D01*
X91061Y89890D01*
X97958Y71841D02*
X97542Y71425D01*
Y70592D01*
X97958Y70175D01*
X99624D01*
X100041Y70592D01*
Y71425D01*
X99624Y71841D01*
X97958Y72674D02*
X97542Y73091D01*
Y73924D01*
X97958Y74340D01*
X98375D01*
X98791Y73924D01*
Y73507D01*
Y73924D01*
X99208Y74340D01*
X99624D01*
X100041Y73924D01*
Y73091D01*
X99624Y72674D01*
X100457Y75174D02*
Y76840D01*
X100041Y77673D02*
Y78506D01*
Y78089D01*
X97542D01*
X97958Y77673D01*
X133704Y119599D02*
X134120Y120016D01*
Y120849D01*
X133704Y121265D01*
X132038D01*
X131621Y120849D01*
Y120016D01*
X132038Y119599D01*
X131621Y117516D02*
X134120D01*
X132871Y118766D01*
Y117100D01*
X131205Y116267D02*
Y114601D01*
X131621Y113768D02*
Y112935D01*
Y113351D01*
X134120D01*
X133704Y113768D01*
X79438Y119585D02*
X79855Y120001D01*
Y120835D01*
X79438Y121251D01*
X77772D01*
X77356Y120835D01*
Y120001D01*
X77772Y119585D01*
X79855Y117086D02*
Y118752D01*
X78605D01*
X79022Y117919D01*
Y117502D01*
X78605Y117086D01*
X77772D01*
X77356Y117502D01*
Y118335D01*
X77772Y118752D01*
X76939Y116253D02*
Y114586D01*
X77356Y113753D02*
Y112920D01*
Y113337D01*
X79855D01*
X79438Y113753D01*
X84856Y114586D02*
X84439Y114170D01*
Y113337D01*
X84856Y112920D01*
X86522D01*
X86938Y113337D01*
Y114170D01*
X86522Y114586D01*
X84439Y117086D02*
X84856Y116253D01*
X85689Y115419D01*
X86522D01*
X86938Y115836D01*
Y116669D01*
X86522Y117086D01*
X86105D01*
X85689Y116669D01*
Y115419D01*
X87355Y117919D02*
Y119585D01*
X86938Y120418D02*
Y121251D01*
Y120834D01*
X84439D01*
X84856Y120418D01*
X124458Y114601D02*
X124042Y114184D01*
Y113351D01*
X124458Y112935D01*
X126124D01*
X126541Y113351D01*
Y114184D01*
X126124Y114601D01*
X124042Y115434D02*
Y117100D01*
X124458D01*
X126124Y115434D01*
X126541D01*
X126957Y117933D02*
Y119599D01*
X126541Y120432D02*
Y121265D01*
Y120849D01*
X124042D01*
X124458Y120432D01*
X102358Y114383D02*
X101942Y113967D01*
Y113134D01*
X102358Y112717D01*
X104024D01*
X104441Y113134D01*
Y113967D01*
X104024Y114383D01*
X102358Y115216D02*
X101942Y115633D01*
Y116466D01*
X102358Y116883D01*
X102775D01*
X103191Y116466D01*
X103608Y116883D01*
X104024D01*
X104441Y116466D01*
Y115633D01*
X104024Y115216D01*
X103608D01*
X103191Y115633D01*
X102775Y115216D01*
X102358D01*
X103191Y115633D02*
Y116466D01*
X104857Y117716D02*
Y119382D01*
X104441Y120215D02*
Y121048D01*
Y120631D01*
X101942D01*
X102358Y120215D01*
X93401Y116549D02*
X92985Y116132D01*
Y115299D01*
X93401Y114883D01*
X95067D01*
X95484Y115299D01*
Y116132D01*
X95067Y116549D01*
Y117382D02*
X95484Y117798D01*
Y118631D01*
X95067Y119048D01*
X93401D01*
X92985Y118631D01*
Y117798D01*
X93401Y117382D01*
X93818D01*
X94234Y117798D01*
Y119048D01*
X95900Y119881D02*
Y121547D01*
X95484Y122380D02*
Y123213D01*
Y122797D01*
X92985D01*
X93401Y122380D01*
X139821Y115725D02*
X139405Y115308D01*
Y114475D01*
X139821Y114059D01*
X141487D01*
X141904Y114475D01*
Y115308D01*
X141487Y115725D01*
X141904Y116558D02*
Y117391D01*
Y116974D01*
X139405D01*
X139821Y116558D01*
Y118640D02*
X139405Y119057D01*
Y119890D01*
X139821Y120307D01*
X141487D01*
X141904Y119890D01*
Y119057D01*
X141487Y118640D01*
X139821D01*
X142320Y121140D02*
Y122806D01*
X141904Y123639D02*
Y124472D01*
Y124055D01*
X139405D01*
X139821Y123639D01*
X128046Y70384D02*
X125547D01*
Y71633D01*
X125964Y72050D01*
X126797D01*
X127213Y71633D01*
Y70384D01*
Y71216D02*
X128046Y72050D01*
Y72883D02*
Y73716D01*
Y73299D01*
X125547D01*
X125964Y72883D01*
X128463Y74965D02*
Y76631D01*
X128046Y77464D02*
Y78298D01*
Y77881D01*
X125547D01*
X125964Y77464D01*
X140962Y94790D02*
Y92291D01*
X139712D01*
X139295Y92707D01*
Y93540D01*
X139712Y93957D01*
X140962D01*
X140129D02*
X139295Y94790D01*
X136796D02*
X138462D01*
X136796Y93124D01*
Y92707D01*
X137213Y92291D01*
X138046D01*
X138462Y92707D01*
X135963Y95207D02*
X134297D01*
X133464Y94790D02*
X132631D01*
X133047D01*
Y92291D01*
X133464Y92707D01*
X102166Y124925D02*
Y127424D01*
X103415D01*
X103832Y127007D01*
Y126174D01*
X103415Y125758D01*
X102166D01*
X102999D02*
X103832Y124925D01*
X104665Y127007D02*
X105081Y127424D01*
X105914D01*
X106331Y127007D01*
Y126591D01*
X105914Y126174D01*
X105498D01*
X105914D01*
X106331Y125758D01*
Y125341D01*
X105914Y124925D01*
X105081D01*
X104665Y125341D01*
X107164Y124508D02*
X108830D01*
X109663Y124925D02*
X110496D01*
X110080D01*
Y127424D01*
X109663Y127007D01*
X134946Y70175D02*
X132447D01*
Y71425D01*
X132864Y71841D01*
X133697D01*
X134113Y71425D01*
Y70175D01*
Y71008D02*
X134946Y71841D01*
Y73924D02*
X132447D01*
X133697Y72674D01*
Y74340D01*
X135363Y75174D02*
Y76840D01*
X134946Y77673D02*
Y78506D01*
Y78089D01*
X132447D01*
X132864Y77673D01*
X83958Y103314D02*
X86457D01*
Y102064D01*
X86041Y101648D01*
X85208D01*
X84791Y102064D01*
Y103314D01*
Y102481D02*
X83958Y101648D01*
X86457Y99149D02*
X86041Y99982D01*
X85208Y100815D01*
X84375D01*
X83958Y100398D01*
Y99565D01*
X84375Y99149D01*
X84791D01*
X85208Y99565D01*
Y100815D01*
X83542Y98316D02*
Y96649D01*
X83958Y95816D02*
Y94983D01*
Y95400D01*
X86457D01*
X86041Y95816D01*
X132631Y100593D02*
Y103092D01*
X133881D01*
X134297Y102676D01*
Y101843D01*
X133881Y101426D01*
X132631D01*
X133464D02*
X134297Y100593D01*
X135130Y103092D02*
X136796D01*
Y102676D01*
X135130Y101010D01*
Y100593D01*
X137629Y100177D02*
X139295D01*
X140129Y100593D02*
X140962D01*
X140545D01*
Y103092D01*
X140129Y102676D01*
X106972Y69134D02*
X104473D01*
Y70384D01*
X104890Y70800D01*
X105723D01*
X106139Y70384D01*
Y69134D01*
Y69967D02*
X106972Y70800D01*
Y71633D02*
Y72466D01*
Y72050D01*
X104473D01*
X104890Y71633D01*
X106972Y74965D02*
X104473D01*
X105723Y73716D01*
Y75382D01*
X107389Y76215D02*
Y77881D01*
X106972Y78714D02*
Y79547D01*
Y79131D01*
X104473D01*
X104890Y78714D01*
X114072Y69134D02*
X111573D01*
Y70384D01*
X111990Y70800D01*
X112823D01*
X113239Y70384D01*
Y69134D01*
Y69967D02*
X114072Y70800D01*
Y71633D02*
Y72466D01*
Y72050D01*
X111573D01*
X111990Y71633D01*
X111573Y75382D02*
Y73716D01*
X112823D01*
X112406Y74549D01*
Y74965D01*
X112823Y75382D01*
X113656D01*
X114072Y74965D01*
Y74132D01*
X113656Y73716D01*
X114489Y76215D02*
Y77881D01*
X114072Y78714D02*
Y79547D01*
Y79131D01*
X111573D01*
X111990Y78714D01*
X121109Y69134D02*
X118610D01*
Y70384D01*
X119027Y70800D01*
X119860D01*
X120276Y70384D01*
Y69134D01*
Y69967D02*
X121109Y70800D01*
Y71633D02*
Y72466D01*
Y72050D01*
X118610D01*
X119027Y71633D01*
X118610Y75382D02*
X119027Y74549D01*
X119860Y73716D01*
X120693D01*
X121109Y74132D01*
Y74965D01*
X120693Y75382D01*
X120276D01*
X119860Y74965D01*
Y73716D01*
X121526Y76215D02*
Y77881D01*
X121109Y78714D02*
Y79547D01*
Y79131D01*
X118610D01*
X119027Y78714D01*
X151650Y64168D02*
X154150D01*
Y65417D01*
X153733Y65834D01*
X152067D01*
X151650Y65417D01*
Y64168D01*
X154150Y66667D02*
Y67500D01*
Y67084D01*
X151650D01*
X152067Y66667D01*
X192181Y170541D02*
Y168042D01*
X190931D01*
X190515Y168458D01*
Y169291D01*
X190931Y169708D01*
X192181D01*
X188016Y170541D02*
X189682D01*
X188016Y168875D01*
Y168458D01*
X188432Y168042D01*
X189265D01*
X189682Y168458D01*
X127220Y170541D02*
Y168042D01*
X125971D01*
X125554Y168458D01*
Y169291D01*
X125971Y169708D01*
X127220D01*
X123472Y170541D02*
Y168042D01*
X124721Y169291D01*
X123055D01*
X161268Y63751D02*
X158769D01*
Y65001D01*
X159186Y65417D01*
X160019D01*
X160435Y65001D01*
Y63751D01*
Y64584D02*
X161268Y65417D01*
X159186Y66250D02*
X158769Y66667D01*
Y67500D01*
X159186Y67917D01*
X159602D01*
X160019Y67500D01*
X160435Y67917D01*
X160852D01*
X161268Y67500D01*
Y66667D01*
X160852Y66250D01*
X160435D01*
X160019Y66667D01*
X159602Y66250D01*
X159186D01*
X160019Y66667D02*
Y67500D01*
X376867Y97258D02*
X376450Y96841D01*
Y96008D01*
X376867Y95592D01*
X378533D01*
X378949Y96008D01*
Y96841D01*
X378533Y97258D01*
X378949Y98091D02*
Y98924D01*
Y98507D01*
X376450D01*
X376867Y98091D01*
X378949Y100174D02*
Y101007D01*
Y100590D01*
X376450D01*
X376867Y100174D01*
X367667Y96841D02*
X367250Y96425D01*
Y95592D01*
X367667Y95175D01*
X369333D01*
X369750Y95592D01*
Y96425D01*
X369333Y96841D01*
X369750Y97674D02*
Y98507D01*
Y98091D01*
X367250D01*
X367667Y97674D01*
X369750Y101423D02*
Y99757D01*
X368083Y101423D01*
X367667D01*
X367250Y101007D01*
Y100174D01*
X367667Y99757D01*
X349149Y93341D02*
X348732Y92925D01*
Y92092D01*
X349149Y91675D01*
X350815D01*
X351232Y92092D01*
Y92925D01*
X350815Y93341D01*
X351232Y94174D02*
Y95007D01*
Y94591D01*
X348732D01*
X349149Y94174D01*
Y96257D02*
X348732Y96674D01*
Y97507D01*
X349149Y97923D01*
X349565D01*
X349982Y97507D01*
Y97090D01*
Y97507D01*
X350398Y97923D01*
X350815D01*
X351232Y97507D01*
Y96674D01*
X350815Y96257D01*
X275784Y77641D02*
X276201Y77225D01*
X277034D01*
X277450Y77641D01*
Y79307D01*
X277034Y79724D01*
X276201D01*
X275784Y79307D01*
X274951Y79724D02*
X274118D01*
X274535D01*
Y77225D01*
X274951Y77641D01*
X271202Y77225D02*
X272869D01*
Y78474D01*
X272036Y78058D01*
X271619D01*
X271202Y78474D01*
Y79307D01*
X271619Y79724D01*
X272452D01*
X272869Y79307D01*
X283037Y98037D02*
X283454Y97620D01*
X284287D01*
X284703Y98037D01*
Y99703D01*
X284287Y100120D01*
X283454D01*
X283037Y99703D01*
X282204Y100120D02*
X281371D01*
X281787D01*
Y97620D01*
X282204Y98037D01*
X278455Y97620D02*
X279288Y98037D01*
X280121Y98870D01*
Y99703D01*
X279705Y100120D01*
X278872D01*
X278455Y99703D01*
Y99287D01*
X278872Y98870D01*
X280121D01*
X280121Y92105D02*
X279705Y92521D01*
X278872D01*
X278455Y92105D01*
Y90439D01*
X278872Y90022D01*
X279705D01*
X280121Y90439D01*
X280954Y90022D02*
X281787D01*
X281371D01*
Y92521D01*
X280954Y92105D01*
X283037Y92521D02*
X284703D01*
Y92105D01*
X283037Y90439D01*
Y90022D01*
X280121Y107065D02*
X279705Y107482D01*
X278872D01*
X278455Y107065D01*
Y105399D01*
X278872Y104983D01*
X279705D01*
X280121Y105399D01*
X280954Y104983D02*
X281787D01*
X281371D01*
Y107482D01*
X280954Y107065D01*
X283037D02*
X283454Y107482D01*
X284287D01*
X284703Y107065D01*
Y106649D01*
X284287Y106232D01*
X284703Y105816D01*
Y105399D01*
X284287Y104983D01*
X283454D01*
X283037Y105399D01*
Y105816D01*
X283454Y106232D01*
X283037Y106649D01*
Y107065D01*
X283454Y106232D02*
X284287D01*
X342833Y94092D02*
X343250Y94508D01*
Y95341D01*
X342833Y95758D01*
X341167D01*
X340750Y95341D01*
Y94508D01*
X341167Y94092D01*
X340750Y93259D02*
Y92426D01*
Y92842D01*
X343250D01*
X342833Y93259D01*
X341167Y91176D02*
X340750Y90759D01*
Y89926D01*
X341167Y89510D01*
X342833D01*
X343250Y89926D01*
Y90759D01*
X342833Y91176D01*
X342417D01*
X342000Y90759D01*
Y89510D01*
X277714Y119606D02*
X276048D01*
X275631Y119189D01*
Y118356D01*
X276048Y117940D01*
X277714D01*
X278130Y118356D01*
Y119189D01*
X277297Y118773D02*
X278130Y119606D01*
Y119189D02*
X277714Y119606D01*
X278130Y120439D02*
Y121272D01*
Y120855D01*
X275631D01*
X276048Y120439D01*
X341717Y121250D02*
Y118750D01*
X340467D01*
X340050Y119167D01*
Y120000D01*
X340467Y120416D01*
X341717D01*
X340883D02*
X340050Y121250D01*
X339217Y120833D02*
X338801Y121250D01*
X337968D01*
X337551Y120833D01*
Y119167D01*
X337968Y118750D01*
X338801D01*
X339217Y119167D01*
Y119583D01*
X338801Y120000D01*
X337551D01*
X336510Y134105D02*
Y136604D01*
X337759D01*
X338176Y136187D01*
Y135354D01*
X337759Y134938D01*
X336510D01*
X337343D02*
X338176Y134105D01*
X339009D02*
X339842D01*
X339426D01*
Y136604D01*
X339009Y136187D01*
X341092D02*
X341508Y136604D01*
X342341D01*
X342758Y136187D01*
Y134521D01*
X342341Y134105D01*
X341508D01*
X341092Y134521D01*
Y136187D01*
X257734Y122490D02*
Y124989D01*
X258984D01*
X259400Y124573D01*
Y123740D01*
X258984Y123323D01*
X257734D01*
X258567D02*
X259400Y122490D01*
X260233D02*
X261066D01*
X260650D01*
Y124989D01*
X260233Y124573D01*
X262316Y122490D02*
X263149D01*
X262732D01*
Y124989D01*
X262316Y124573D01*
X263565Y117509D02*
Y115010D01*
X262316D01*
X261899Y115426D01*
Y116259D01*
X262316Y116676D01*
X263565D01*
X262732D02*
X261899Y117509D01*
X261066D02*
X260233D01*
X260650D01*
Y115010D01*
X261066Y115426D01*
X257317Y117509D02*
X258983D01*
X257317Y115843D01*
Y115426D01*
X257734Y115010D01*
X258567D01*
X258983Y115426D01*
X243160Y87951D02*
X240661D01*
Y89201D01*
X241077Y89617D01*
X241910D01*
X242327Y89201D01*
Y87951D01*
Y88784D02*
X243160Y89617D01*
Y90450D02*
Y91283D01*
Y90867D01*
X240661D01*
X241077Y90450D01*
Y92533D02*
X240661Y92949D01*
Y93782D01*
X241077Y94199D01*
X241494D01*
X241910Y93782D01*
Y93366D01*
Y93782D01*
X242327Y94199D01*
X242743D01*
X243160Y93782D01*
Y92949D01*
X242743Y92533D01*
X236818Y38333D02*
X236402Y38750D01*
X235568D01*
X235152Y38333D01*
Y36667D01*
X235568Y36250D01*
X236402D01*
X236818Y36667D01*
X239317Y36250D02*
X237651D01*
X239317Y37916D01*
Y38333D01*
X238901Y38750D01*
X238068D01*
X237651Y38333D01*
X240150D02*
X240567Y38750D01*
X241400D01*
X241816Y38333D01*
Y36667D01*
X241400Y36250D01*
X240567D01*
X240150Y36667D01*
Y38333D01*
X244077Y49269D02*
X243661Y48852D01*
Y48019D01*
X244077Y47602D01*
X245743D01*
X246160Y48019D01*
Y48852D01*
X245743Y49269D01*
X246160Y51768D02*
Y50102D01*
X244494Y51768D01*
X244077D01*
X243661Y51351D01*
Y50518D01*
X244077Y50102D01*
X246160Y52601D02*
Y53434D01*
Y53017D01*
X243661D01*
X244077Y52601D01*
X223743Y36667D02*
X224159Y36250D01*
X224992D01*
X225409Y36667D01*
Y38333D01*
X224992Y38750D01*
X224159D01*
X223743Y38333D01*
X221243Y38750D02*
X222909D01*
X221243Y37083D01*
Y36667D01*
X221660Y36250D01*
X222493D01*
X222909Y36667D01*
X218744Y38750D02*
X220410D01*
X218744Y37083D01*
Y36667D01*
X219161Y36250D01*
X219994D01*
X220410Y36667D01*
X223743Y77641D02*
X224159Y77225D01*
X224992D01*
X225409Y77641D01*
Y79307D01*
X224992Y79724D01*
X224159D01*
X223743Y79307D01*
X221243Y79724D02*
X222909D01*
X221243Y78058D01*
Y77641D01*
X221660Y77225D01*
X222493D01*
X222909Y77641D01*
X220410D02*
X219994Y77225D01*
X219161D01*
X218744Y77641D01*
Y78058D01*
X219161Y78474D01*
X219577D01*
X219161D01*
X218744Y78891D01*
Y79307D01*
X219161Y79724D01*
X219994D01*
X220410Y79307D01*
X259250Y34351D02*
X261750D01*
Y35601D01*
X261333Y36017D01*
X259667D01*
X259250Y35601D01*
Y34351D01*
X261750Y38517D02*
Y36850D01*
X260084Y38517D01*
X259667D01*
X259250Y38100D01*
Y37267D01*
X259667Y36850D01*
X269950Y33310D02*
X267450D01*
Y34560D01*
X267867Y34976D01*
X268700D01*
X269116Y34560D01*
Y33310D01*
Y34143D02*
X269950Y34976D01*
Y35809D02*
Y36642D01*
Y36226D01*
X267450D01*
X267867Y35809D01*
X267450Y37892D02*
Y39558D01*
X267867D01*
X269533Y37892D01*
X269950D01*
X133047Y87673D02*
X132631Y88090D01*
X131798D01*
X131381Y87673D01*
Y86007D01*
X131798Y85591D01*
X132631D01*
X133047Y86007D01*
X135547Y85591D02*
X133881D01*
X135547Y87257D01*
Y87673D01*
X135130Y88090D01*
X134297D01*
X133881Y87673D01*
X137629Y85591D02*
Y88090D01*
X136380Y86840D01*
X138046D01*
X138879Y85174D02*
X140545D01*
X141378Y85591D02*
X142211D01*
X141795D01*
Y88090D01*
X141378Y87673D01*
X58758Y87740D02*
X58342Y88156D01*
X57509D01*
X57092Y87740D01*
Y86074D01*
X57509Y85657D01*
X58342D01*
X58758Y86074D01*
X61258Y85657D02*
X59592D01*
X61258Y87323D01*
Y87740D01*
X60841Y88156D01*
X60008D01*
X59592Y87740D01*
X63340Y85657D02*
Y88156D01*
X62091Y86907D01*
X63757D01*
X64590Y85241D02*
X66256D01*
X68755Y85657D02*
X67089D01*
X68755Y87323D01*
Y87740D01*
X68339Y88156D01*
X67506D01*
X67089Y87740D01*
X205411Y87913D02*
X204994Y88329D01*
X204161D01*
X203745Y87913D01*
Y86246D01*
X204161Y85830D01*
X204994D01*
X205411Y86246D01*
X207910Y85830D02*
X206244D01*
X207910Y87496D01*
Y87913D01*
X207493Y88329D01*
X206660D01*
X206244Y87913D01*
X209993Y85830D02*
Y88329D01*
X208743Y87080D01*
X210409D01*
X211242Y85413D02*
X212908D01*
X213741Y87913D02*
X214158Y88329D01*
X214991D01*
X215407Y87913D01*
Y87496D01*
X214991Y87080D01*
X214574D01*
X214991D01*
X215407Y86663D01*
Y86246D01*
X214991Y85830D01*
X214158D01*
X213741Y86246D01*
X283417Y179750D02*
Y182250D01*
X284667D01*
X285084Y181833D01*
Y181000D01*
X284667Y180584D01*
X283417D01*
X285916Y182250D02*
X287583D01*
Y181833D01*
X285916Y180167D01*
Y179750D01*
X326917D02*
Y182250D01*
X328167D01*
X328584Y181833D01*
Y181000D01*
X328167Y180584D01*
X326917D01*
X329416Y181833D02*
X329833Y182250D01*
X330666D01*
X331083Y181833D01*
Y181416D01*
X330666Y181000D01*
X331083Y180584D01*
Y180167D01*
X330666Y179750D01*
X329833D01*
X329416Y180167D01*
Y180584D01*
X329833Y181000D01*
X329416Y181416D01*
Y181833D01*
X329833Y181000D02*
X330666D01*
X254400Y151582D02*
X256899D01*
Y150332D01*
X256483Y149916D01*
X255650D01*
X255233Y150332D01*
Y151582D01*
X254817Y149083D02*
X254400Y148666D01*
Y147833D01*
X254817Y147416D01*
X256483D01*
X256899Y147833D01*
Y148666D01*
X256483Y149083D01*
X256066D01*
X255650Y148666D01*
Y147416D01*
X253984Y146583D02*
Y144917D01*
X254400Y142418D02*
Y144084D01*
X256066Y142418D01*
X256483D01*
X256899Y142835D01*
Y143668D01*
X256483Y144084D01*
X353478Y183750D02*
Y181250D01*
X352229D01*
X351812Y181667D01*
Y182500D01*
X352229Y182916D01*
X353478D01*
X352645D02*
X351812Y183750D01*
X350979D02*
X350146D01*
X350563D01*
Y181250D01*
X350979Y181667D01*
X348897Y183333D02*
X348480Y183750D01*
X347647D01*
X347230Y183333D01*
Y181667D01*
X347647Y181250D01*
X348480D01*
X348897Y181667D01*
Y182083D01*
X348480Y182500D01*
X347230D01*
X264084Y68750D02*
X265750D01*
X264917D01*
Y66250D01*
X266583D02*
Y68750D01*
X267833D01*
X268250Y68333D01*
Y67500D01*
X267833Y67084D01*
X266583D01*
X269083Y66250D02*
X269916D01*
X269499D01*
Y68750D01*
X269083Y68333D01*
X263668Y51856D02*
X265334D01*
X264501D01*
Y49357D01*
X266167D02*
Y51856D01*
X267417D01*
X267833Y51439D01*
Y50606D01*
X267417Y50190D01*
X266167D01*
X270332Y49357D02*
X268666D01*
X270332Y51023D01*
Y51439D01*
X269916Y51856D01*
X269083D01*
X268666Y51439D01*
X14499Y146168D02*
Y147834D01*
Y147001D01*
X16998D01*
Y148667D02*
X14499D01*
Y149917D01*
X14915Y150333D01*
X15748D01*
X16165Y149917D01*
Y148667D01*
X14915Y151166D02*
X14499Y151583D01*
Y152416D01*
X14915Y152832D01*
X15331D01*
X15748Y152416D01*
Y151999D01*
Y152416D01*
X16165Y152832D01*
X16581D01*
X16998Y152416D01*
Y151583D01*
X16581Y151166D01*
X284332Y35253D02*
X282666D01*
X283499D01*
Y37753D01*
X281833D02*
Y35253D01*
X280584D01*
X280167Y35670D01*
Y36503D01*
X280584Y36920D01*
X281833D01*
X278084Y37753D02*
Y35253D01*
X279334Y36503D01*
X277668D01*
D12*
X224095Y25550D02*
G03*
X224095Y25550I-394J0D01*
G01*
X247754Y116259D02*
G03*
X247754Y116259I-100J0D01*
G01*
X256931Y87846D02*
G03*
X256931Y87846I-500J0D01*
G01*
X272808Y123740D02*
G03*
X272808Y123740I-100J0D01*
G01*
X294261Y78539D02*
X369300D01*
X294261Y7673D02*
Y78539D01*
Y7673D02*
X369300D01*
Y78539D02*
X393670D01*
X369300Y7673D02*
X393670D01*
Y78539D01*
X369300Y7673D02*
Y78539D01*
X121500Y622D02*
Y56622D01*
X159000D01*
Y622D02*
Y56622D01*
X121500Y622D02*
X159000D01*
X81158Y47637D02*
X117299D01*
Y9763D02*
Y47637D01*
X81158Y9763D02*
X117299D01*
X81158D02*
Y47637D01*
X33329D02*
X69471D01*
Y9763D02*
Y47637D01*
X33329Y9763D02*
X69471D01*
X33329D02*
Y47637D01*
X167746D02*
X203888D01*
Y9763D02*
Y47637D01*
X167746Y9763D02*
X203888D01*
X167746D02*
Y47637D01*
D13*
X107551Y105571D02*
G03*
X107551Y105571I-500J0D01*
G01*
X33678D02*
G03*
X33678Y105571I-500J0D01*
G01*
X180336D02*
G03*
X180336Y105571I-500J0D01*
G01*
D94*
X83384Y169291D02*
G03*
X83384Y169291I-707J0D01*
G01*
X16455Y55137D02*
G03*
X16455Y55137I-707J0D01*
G01*
X213305Y169291D02*
G03*
X213305Y169291I-707J0D01*
G01*
X148345D02*
G03*
X148345Y169291I-707J0D01*
G01*
D95*
X377200Y152354D02*
G03*
X377200Y152354I-1000J0D01*
G01*
X238500Y157000D02*
G03*
X238500Y157000I-1000J0D01*
G01*
X276500Y186000D02*
G03*
X276500Y186000I-1000J0D01*
G01*
X320000D02*
G03*
X320000Y186000I-1000J0D01*
G01*
X261441Y157000D02*
G03*
X261441Y157000I-1000J0D01*
G01*
D96*
X365062Y72437D02*
G03*
X365062Y72437I-880J0D01*
G01*
M02*
