G04*
G04 #@! TF.GenerationSoftware,Altium Limited,Altium Designer,22.11.1 (43)*
G04*
G04 Layer_Physical_Order=5*
G04 Layer_Color=16737945*
%FSLAX25Y25*%
%MOIN*%
G70*
G04*
G04 #@! TF.SameCoordinates,99ABEF4A-569F-4B03-9013-5FDDC67F37EC*
G04*
G04*
G04 #@! TF.FilePolarity,Positive*
G04*
G01*
G75*
%ADD75C,0.01200*%
%ADD77R,0.07874X0.07874*%
%ADD78C,0.07874*%
%ADD79R,0.07874X0.07874*%
%ADD80O,0.04724X0.09843*%
%ADD81C,0.02362*%
%ADD82R,0.06496X0.06496*%
%ADD83C,0.06496*%
%ADD84C,0.23622*%
%ADD85C,0.07087*%
%ADD86R,0.07087X0.07087*%
%ADD87R,0.15748X0.07874*%
%ADD88R,0.17323X0.08661*%
%ADD89R,0.07874X0.15748*%
%ADD90C,0.06299*%
%ADD91R,0.06299X0.06299*%
%ADD92R,0.07087X0.07087*%
%ADD93C,0.01772*%
G36*
X215822Y173928D02*
X207961D01*
Y164654D01*
X215822D01*
Y130891D01*
X215216Y130691D01*
X215022Y130677D01*
X214614Y131085D01*
X214031Y131326D01*
X213400D01*
X212818Y131085D01*
X212371Y130639D01*
X212130Y130056D01*
Y129425D01*
X212371Y128842D01*
X212818Y128396D01*
X213400Y128155D01*
X214031D01*
X214614Y128396D01*
X215022Y128804D01*
X215216Y128791D01*
X215822Y128590D01*
Y94214D01*
X205000D01*
X204727Y94159D01*
X204495Y94005D01*
X204341Y93773D01*
X204286Y93500D01*
Y83867D01*
X204341Y83594D01*
X204495Y83363D01*
X204727Y83208D01*
X205150Y83033D01*
X205105Y82924D01*
Y82293D01*
X205150Y82184D01*
X204727Y82008D01*
X204495Y81854D01*
X204341Y81622D01*
X204286Y81349D01*
Y23974D01*
X82714D01*
Y95000D01*
X82659Y95273D01*
X82505Y95505D01*
X82273Y95659D01*
X82000Y95714D01*
X56218D01*
Y96044D01*
X55977Y96627D01*
X55531Y97073D01*
X54948Y97315D01*
X54317D01*
X53734Y97073D01*
X53288Y96627D01*
X53047Y96044D01*
Y95714D01*
X1606D01*
Y195245D01*
X215822D01*
Y173928D01*
D02*
G37*
G36*
X392095Y88220D02*
X368110D01*
X367496Y88098D01*
X366975Y87749D01*
X366627Y87229D01*
X366505Y86614D01*
Y1606D01*
X255680D01*
X255510Y2106D01*
X255511Y2107D01*
X256002Y2746D01*
X256311Y3491D01*
X256416Y4291D01*
Y9409D01*
X256311Y10208D01*
X256002Y10953D01*
X255511Y11593D01*
X254872Y12083D01*
X254127Y12392D01*
X253328Y12497D01*
X252528Y12392D01*
X251783Y12083D01*
X251144Y11593D01*
X250653Y10953D01*
X250344Y10208D01*
X250239Y9409D01*
Y4291D01*
X250344Y3491D01*
X250653Y2746D01*
X251144Y2107D01*
X251145Y2106D01*
X250975Y1606D01*
X221625D01*
X221455Y2106D01*
X221456Y2107D01*
X221947Y2746D01*
X222256Y3491D01*
X222361Y4291D01*
Y9409D01*
X222256Y10208D01*
X221947Y10953D01*
X221456Y11593D01*
X220817Y12083D01*
X220072Y12392D01*
X219272Y12497D01*
X218473Y12392D01*
X217728Y12083D01*
X217089Y11593D01*
X216598Y10953D01*
X216289Y10208D01*
X216184Y9409D01*
Y4291D01*
X216289Y3491D01*
X216598Y2746D01*
X217089Y2107D01*
X217090Y2106D01*
X216920Y1606D01*
X1606D01*
Y95000D01*
X53218D01*
X53288Y94831D01*
X53734Y94385D01*
X54317Y94143D01*
X54948D01*
X55531Y94385D01*
X55977Y94831D01*
X56047Y95000D01*
X82000D01*
Y23260D01*
X205000D01*
Y81349D01*
X205500Y81556D01*
X205792Y81264D01*
X206375Y81022D01*
X207006D01*
X207589Y81264D01*
X208035Y81710D01*
X208276Y82293D01*
Y82924D01*
X208035Y83507D01*
X207589Y83953D01*
X207006Y84194D01*
X206375D01*
X205792Y83953D01*
X205500Y83660D01*
X205000Y83867D01*
Y93500D01*
X216535D01*
Y164654D01*
X217235D01*
Y173928D01*
X216535D01*
Y195245D01*
X392095D01*
Y88220D01*
D02*
G37*
%LPC*%
G36*
X16733Y189676D02*
X14763D01*
X12818Y189368D01*
X10945Y188760D01*
X9191Y187866D01*
X7598Y186708D01*
X6205Y185316D01*
X5048Y183723D01*
X4154Y181968D01*
X3545Y180095D01*
X3237Y178150D01*
Y176181D01*
X3545Y174236D01*
X4154Y172363D01*
X5048Y170608D01*
X6205Y169015D01*
X7598Y167622D01*
X9191Y166465D01*
X10945Y165571D01*
X12818Y164962D01*
X14763Y164654D01*
X16733D01*
X18678Y164962D01*
X20551Y165571D01*
X22305Y166465D01*
X23899Y167622D01*
X25291Y169015D01*
X26449Y170608D01*
X27343Y172363D01*
X27951Y174236D01*
X28259Y176181D01*
Y178150D01*
X27951Y180095D01*
X27343Y181968D01*
X26449Y183723D01*
X25291Y185316D01*
X23899Y186708D01*
X22305Y187866D01*
X20551Y188760D01*
X18678Y189368D01*
X16733Y189676D01*
D02*
G37*
G36*
X198209Y173928D02*
X196988D01*
X195809Y173612D01*
X194751Y173002D01*
X193888Y172139D01*
X193277Y171081D01*
X192961Y169902D01*
Y168681D01*
X193277Y167501D01*
X193888Y166444D01*
X194751Y165581D01*
X195809Y164970D01*
X196988Y164654D01*
X198209D01*
X199388Y164970D01*
X200446Y165581D01*
X201309Y166444D01*
X201919Y167501D01*
X202235Y168681D01*
Y169902D01*
X201919Y171081D01*
X201309Y172139D01*
X200446Y173002D01*
X199388Y173612D01*
X198209Y173928D01*
D02*
G37*
G36*
X183209D02*
X181988D01*
X180809Y173612D01*
X179751Y173002D01*
X178888Y172139D01*
X178277Y171081D01*
X177961Y169902D01*
Y168681D01*
X178277Y167501D01*
X178888Y166444D01*
X179751Y165581D01*
X180809Y164970D01*
X181988Y164654D01*
X183209D01*
X184388Y164970D01*
X185446Y165581D01*
X186309Y166444D01*
X186919Y167501D01*
X187235Y168681D01*
Y169902D01*
X186919Y171081D01*
X186309Y172139D01*
X185446Y173002D01*
X184388Y173612D01*
X183209Y173928D01*
D02*
G37*
G36*
X168209D02*
X166988D01*
X165809Y173612D01*
X164751Y173002D01*
X163888Y172139D01*
X163277Y171081D01*
X162961Y169902D01*
Y168681D01*
X163277Y167501D01*
X163888Y166444D01*
X164751Y165581D01*
X165809Y164970D01*
X166988Y164654D01*
X168209D01*
X169388Y164970D01*
X170446Y165581D01*
X171309Y166444D01*
X171919Y167501D01*
X172235Y168681D01*
Y169902D01*
X171919Y171081D01*
X171309Y172139D01*
X170446Y173002D01*
X169388Y173612D01*
X168209Y173928D01*
D02*
G37*
G36*
X152275D02*
X143001D01*
Y164654D01*
X152275D01*
Y173928D01*
D02*
G37*
G36*
X133248D02*
X132027D01*
X130848Y173612D01*
X129791Y173002D01*
X128927Y172139D01*
X128317Y171081D01*
X128001Y169902D01*
Y168681D01*
X128317Y167501D01*
X128927Y166444D01*
X129791Y165581D01*
X130848Y164970D01*
X132027Y164654D01*
X133248D01*
X134428Y164970D01*
X135485Y165581D01*
X136348Y166444D01*
X136959Y167501D01*
X137275Y168681D01*
Y169902D01*
X136959Y171081D01*
X136348Y172139D01*
X135485Y173002D01*
X134428Y173612D01*
X133248Y173928D01*
D02*
G37*
G36*
X118248D02*
X117027D01*
X115848Y173612D01*
X114791Y173002D01*
X113927Y172139D01*
X113317Y171081D01*
X113001Y169902D01*
Y168681D01*
X113317Y167501D01*
X113927Y166444D01*
X114791Y165581D01*
X115848Y164970D01*
X117027Y164654D01*
X118248D01*
X119428Y164970D01*
X120485Y165581D01*
X121348Y166444D01*
X121959Y167501D01*
X122275Y168681D01*
Y169902D01*
X121959Y171081D01*
X121348Y172139D01*
X120485Y173002D01*
X119428Y173612D01*
X118248Y173928D01*
D02*
G37*
G36*
X103248D02*
X102027D01*
X100848Y173612D01*
X99791Y173002D01*
X98927Y172139D01*
X98317Y171081D01*
X98001Y169902D01*
Y168681D01*
X98317Y167501D01*
X98927Y166444D01*
X99791Y165581D01*
X100848Y164970D01*
X102027Y164654D01*
X103248D01*
X104428Y164970D01*
X105485Y165581D01*
X106348Y166444D01*
X106959Y167501D01*
X107275Y168681D01*
Y169902D01*
X106959Y171081D01*
X106348Y172139D01*
X105485Y173002D01*
X104428Y173612D01*
X103248Y173928D01*
D02*
G37*
G36*
X87314D02*
X78040D01*
Y164654D01*
X87314D01*
Y173928D01*
D02*
G37*
G36*
X68288D02*
X67067D01*
X65887Y173612D01*
X64830Y173002D01*
X63967Y172139D01*
X63356Y171081D01*
X63040Y169902D01*
Y168681D01*
X63356Y167501D01*
X63967Y166444D01*
X64830Y165581D01*
X65887Y164970D01*
X67067Y164654D01*
X68288D01*
X69467Y164970D01*
X70524Y165581D01*
X71388Y166444D01*
X71998Y167501D01*
X72314Y168681D01*
Y169902D01*
X71998Y171081D01*
X71388Y172139D01*
X70524Y173002D01*
X69467Y173612D01*
X68288Y173928D01*
D02*
G37*
G36*
X53288D02*
X52067D01*
X50887Y173612D01*
X49830Y173002D01*
X48967Y172139D01*
X48356Y171081D01*
X48040Y169902D01*
Y168681D01*
X48356Y167501D01*
X48967Y166444D01*
X49830Y165581D01*
X50887Y164970D01*
X52067Y164654D01*
X53288D01*
X54467Y164970D01*
X55524Y165581D01*
X56388Y166444D01*
X56998Y167501D01*
X57314Y168681D01*
Y169902D01*
X56998Y171081D01*
X56388Y172139D01*
X55524Y173002D01*
X54467Y173612D01*
X53288Y173928D01*
D02*
G37*
G36*
X38288D02*
X37067D01*
X35887Y173612D01*
X34830Y173002D01*
X33967Y172139D01*
X33356Y171081D01*
X33040Y169902D01*
Y168681D01*
X33356Y167501D01*
X33967Y166444D01*
X34830Y165581D01*
X35887Y164970D01*
X37067Y164654D01*
X38288D01*
X39467Y164970D01*
X40524Y165581D01*
X41388Y166444D01*
X41998Y167501D01*
X42314Y168681D01*
Y169902D01*
X41998Y171081D01*
X41388Y172139D01*
X40524Y173002D01*
X39467Y173612D01*
X38288Y173928D01*
D02*
G37*
G36*
X67305Y131486D02*
X66675D01*
X66092Y131244D01*
X65646Y130798D01*
X65404Y130215D01*
Y129585D01*
X65646Y129002D01*
X66092Y128556D01*
X66675Y128314D01*
X67305D01*
X67888Y128556D01*
X68334Y129002D01*
X68576Y129585D01*
Y130215D01*
X68334Y130798D01*
X67888Y131244D01*
X67305Y131486D01*
D02*
G37*
G36*
X21305D02*
X20674D01*
X20092Y131244D01*
X19646Y130798D01*
X19404Y130215D01*
Y129585D01*
X19646Y129002D01*
X20092Y128556D01*
X20674Y128314D01*
X21305D01*
X21888Y128556D01*
X22334Y129002D01*
X22576Y129585D01*
Y130215D01*
X22334Y130798D01*
X21888Y131244D01*
X21305Y131486D01*
D02*
G37*
G36*
X100715Y127552D02*
X100084D01*
X99501Y127310D01*
X99055Y126864D01*
X98814Y126281D01*
Y125651D01*
X99055Y125068D01*
X99501Y124622D01*
X100084Y124380D01*
X100715D01*
X101298Y124622D01*
X101744Y125068D01*
X101985Y125651D01*
Y126281D01*
X101744Y126864D01*
X101298Y127310D01*
X100715Y127552D01*
D02*
G37*
G36*
X27615D02*
X26985D01*
X26402Y127310D01*
X25956Y126864D01*
X25714Y126281D01*
Y125651D01*
X25956Y125068D01*
X26402Y124622D01*
X26985Y124380D01*
X27615D01*
X28198Y124622D01*
X28644Y125068D01*
X28886Y125651D01*
Y126281D01*
X28644Y126864D01*
X28198Y127310D01*
X27615Y127552D01*
D02*
G37*
G36*
X205764Y127150D02*
X205133D01*
X204550Y126909D01*
X204104Y126463D01*
X203862Y125880D01*
Y125249D01*
X204104Y124666D01*
X204550Y124220D01*
X205133Y123979D01*
X205764D01*
X206346Y124220D01*
X206792Y124666D01*
X207034Y125249D01*
Y125880D01*
X206792Y126463D01*
X206346Y126909D01*
X205764Y127150D01*
D02*
G37*
G36*
X173501D02*
X172870D01*
X172287Y126909D01*
X171841Y126463D01*
X171599Y125880D01*
Y125249D01*
X171841Y124666D01*
X172287Y124220D01*
X172870Y123979D01*
X173501D01*
X174083Y124220D01*
X174530Y124666D01*
X174771Y125249D01*
Y125880D01*
X174530Y126463D01*
X174083Y126909D01*
X173501Y127150D01*
D02*
G37*
G36*
X151215D02*
X150585D01*
X150002Y126909D01*
X149556Y126463D01*
X149314Y125880D01*
Y125249D01*
X149556Y124666D01*
X150002Y124220D01*
X150585Y123979D01*
X151215D01*
X151798Y124220D01*
X152244Y124666D01*
X152486Y125249D01*
Y125880D01*
X152244Y126463D01*
X151798Y126909D01*
X151215Y127150D01*
D02*
G37*
G36*
X132978D02*
X132347D01*
X131764Y126909D01*
X131318Y126463D01*
X131077Y125880D01*
Y125249D01*
X131318Y124666D01*
X131764Y124220D01*
X132347Y123979D01*
X132978D01*
X133561Y124220D01*
X134007Y124666D01*
X134248Y125249D01*
Y125880D01*
X134007Y126463D01*
X133561Y126909D01*
X132978Y127150D01*
D02*
G37*
G36*
X78712D02*
X78082D01*
X77499Y126909D01*
X77052Y126463D01*
X76811Y125880D01*
Y125249D01*
X77052Y124666D01*
X77499Y124220D01*
X78082Y123979D01*
X78712D01*
X79295Y124220D01*
X79741Y124666D01*
X79983Y125249D01*
Y125880D01*
X79741Y126463D01*
X79295Y126909D01*
X78712Y127150D01*
D02*
G37*
G36*
X59105D02*
X58474D01*
X57892Y126909D01*
X57446Y126463D01*
X57204Y125880D01*
Y125249D01*
X57446Y124666D01*
X57892Y124220D01*
X58474Y123979D01*
X59105D01*
X59688Y124220D01*
X60134Y124666D01*
X60376Y125249D01*
Y125880D01*
X60134Y126463D01*
X59688Y126909D01*
X59105Y127150D01*
D02*
G37*
G36*
X158715Y126947D02*
X158085D01*
X157502Y126706D01*
X157056Y126260D01*
X156814Y125677D01*
Y125046D01*
X157056Y124463D01*
X157502Y124017D01*
X158085Y123775D01*
X158715D01*
X159298Y124017D01*
X159744Y124463D01*
X159986Y125046D01*
Y125677D01*
X159744Y126260D01*
X159298Y126706D01*
X158715Y126947D01*
D02*
G37*
G36*
X86212Y126933D02*
X85581D01*
X84999Y126691D01*
X84553Y126245D01*
X84311Y125663D01*
Y125032D01*
X84553Y124449D01*
X84999Y124003D01*
X85581Y123761D01*
X86212D01*
X86795Y124003D01*
X87241Y124449D01*
X87483Y125032D01*
Y125663D01*
X87241Y126245D01*
X86795Y126691D01*
X86212Y126933D01*
D02*
G37*
G36*
X12942Y126901D02*
X12312D01*
X11729Y126660D01*
X11283Y126214D01*
X11041Y125631D01*
Y125000D01*
X11283Y124417D01*
X11729Y123971D01*
X12312Y123730D01*
X12942D01*
X13525Y123971D01*
X13971Y124417D01*
X14213Y125000D01*
Y125631D01*
X13971Y126214D01*
X13525Y126660D01*
X12942Y126901D01*
D02*
G37*
G36*
X4615D02*
X3985D01*
X3402Y126660D01*
X2956Y126214D01*
X2714Y125631D01*
Y125000D01*
X2956Y124417D01*
X3402Y123971D01*
X3985Y123730D01*
X4615D01*
X5198Y123971D01*
X5644Y124417D01*
X5886Y125000D01*
Y125631D01*
X5644Y126214D01*
X5198Y126660D01*
X4615Y126901D01*
D02*
G37*
G36*
X146815Y115444D02*
X146185D01*
X145602Y115202D01*
X145156Y114756D01*
X144914Y114173D01*
Y113542D01*
X145156Y112960D01*
X145602Y112513D01*
X146185Y112272D01*
X146815D01*
X147398Y112513D01*
X147844Y112960D01*
X148086Y113542D01*
Y114173D01*
X147844Y114756D01*
X147398Y115202D01*
X146815Y115444D01*
D02*
G37*
G36*
X130915Y109386D02*
X130285D01*
X129702Y109144D01*
X129256Y108698D01*
X129014Y108115D01*
Y107485D01*
X129256Y106902D01*
X129702Y106456D01*
X130285Y106214D01*
X130915D01*
X131498Y106456D01*
X131944Y106902D01*
X132186Y107485D01*
Y108115D01*
X131944Y108698D01*
X131498Y109144D01*
X130915Y109386D01*
D02*
G37*
G36*
X203397Y108818D02*
X202766D01*
X202184Y108577D01*
X201738Y108131D01*
X201496Y107548D01*
Y106917D01*
X201738Y106334D01*
X202184Y105888D01*
X202766Y105647D01*
X203397D01*
X203980Y105888D01*
X204426Y106334D01*
X204668Y106917D01*
Y107548D01*
X204426Y108131D01*
X203980Y108577D01*
X203397Y108818D01*
D02*
G37*
G36*
X173501Y108386D02*
X172870D01*
X172287Y108144D01*
X171841Y107698D01*
X171599Y107115D01*
Y106485D01*
X171841Y105902D01*
X172287Y105456D01*
X172870Y105214D01*
X173501D01*
X174083Y105456D01*
X174530Y105902D01*
X174771Y106485D01*
Y107115D01*
X174530Y107698D01*
X174083Y108144D01*
X173501Y108386D01*
D02*
G37*
G36*
X100715D02*
X100084D01*
X99501Y108144D01*
X99055Y107698D01*
X98814Y107115D01*
Y106485D01*
X99055Y105902D01*
X99501Y105456D01*
X100084Y105214D01*
X100715D01*
X101298Y105456D01*
X101744Y105902D01*
X101985Y106485D01*
Y107115D01*
X101744Y107698D01*
X101298Y108144D01*
X100715Y108386D01*
D02*
G37*
G36*
X57605D02*
X56975D01*
X56392Y108144D01*
X55946Y107698D01*
X55704Y107115D01*
Y106485D01*
X55946Y105902D01*
X56392Y105456D01*
X56975Y105214D01*
X57605D01*
X58188Y105456D01*
X58634Y105902D01*
X58876Y106485D01*
Y107115D01*
X58634Y107698D01*
X58188Y108144D01*
X57605Y108386D01*
D02*
G37*
G36*
X26215Y108086D02*
X25585D01*
X25002Y107844D01*
X24556Y107398D01*
X24314Y106816D01*
Y106185D01*
X24556Y105602D01*
X25002Y105156D01*
X25585Y104914D01*
X26215D01*
X26798Y105156D01*
X27244Y105602D01*
X27486Y106185D01*
Y106816D01*
X27244Y107398D01*
X26798Y107844D01*
X26215Y108086D01*
D02*
G37*
G36*
X201737Y103220D02*
X201106D01*
X200523Y102979D01*
X200077Y102533D01*
X199835Y101950D01*
Y101319D01*
X200077Y100736D01*
X200523Y100290D01*
X201106Y100049D01*
X201737D01*
X202319Y100290D01*
X202765Y100736D01*
X203007Y101319D01*
Y101950D01*
X202765Y102533D01*
X202319Y102979D01*
X201737Y103220D01*
D02*
G37*
G36*
X128820D02*
X128190D01*
X127607Y102979D01*
X127161Y102533D01*
X126919Y101950D01*
Y101319D01*
X127161Y100736D01*
X127607Y100290D01*
X128190Y100049D01*
X128820D01*
X129403Y100290D01*
X129849Y100736D01*
X130091Y101319D01*
Y101950D01*
X129849Y102533D01*
X129403Y102979D01*
X128820Y103220D01*
D02*
G37*
G36*
X54948D02*
X54317D01*
X53734Y102979D01*
X53288Y102533D01*
X53047Y101950D01*
Y101319D01*
X53288Y100736D01*
X53734Y100290D01*
X54317Y100049D01*
X54948D01*
X55531Y100290D01*
X55977Y100736D01*
X56218Y101319D01*
Y101950D01*
X55977Y102533D01*
X55531Y102979D01*
X54948Y103220D01*
D02*
G37*
G36*
X201737Y97315D02*
X201106D01*
X200523Y97073D01*
X200077Y96627D01*
X199835Y96044D01*
Y95414D01*
X200077Y94831D01*
X200523Y94385D01*
X201106Y94143D01*
X201737D01*
X202319Y94385D01*
X202765Y94831D01*
X203007Y95414D01*
Y96044D01*
X202765Y96627D01*
X202319Y97073D01*
X201737Y97315D01*
D02*
G37*
G36*
X128820D02*
X128190D01*
X127607Y97073D01*
X127161Y96627D01*
X126919Y96044D01*
Y95414D01*
X127161Y94831D01*
X127607Y94385D01*
X128190Y94143D01*
X128820D01*
X129403Y94385D01*
X129849Y94831D01*
X130091Y95414D01*
Y96044D01*
X129849Y96627D01*
X129403Y97073D01*
X128820Y97315D01*
D02*
G37*
G36*
X146815D02*
X146185D01*
X145602Y97073D01*
X145156Y96627D01*
X144914Y96044D01*
Y95414D01*
X145156Y94831D01*
X145549Y94437D01*
X145577Y93989D01*
X145549Y93541D01*
X145156Y93147D01*
X144914Y92564D01*
Y91933D01*
X145156Y91350D01*
X145602Y90904D01*
X146185Y90663D01*
X146815D01*
X147398Y90904D01*
X147844Y91350D01*
X148086Y91933D01*
Y92564D01*
X147844Y93147D01*
X147451Y93541D01*
X147423Y93989D01*
X147451Y94437D01*
X147844Y94831D01*
X148086Y95414D01*
Y96044D01*
X147844Y96627D01*
X147398Y97073D01*
X146815Y97315D01*
D02*
G37*
G36*
X152715Y90434D02*
X152085D01*
X151502Y90193D01*
X151056Y89747D01*
X150814Y89164D01*
Y88533D01*
X151056Y87950D01*
X151502Y87504D01*
X152085Y87263D01*
X152715D01*
X153298Y87504D01*
X153744Y87950D01*
X153986Y88533D01*
Y89164D01*
X153744Y89747D01*
X153298Y90193D01*
X152715Y90434D01*
D02*
G37*
G36*
X146815Y88218D02*
X146185D01*
X145602Y87976D01*
X145156Y87530D01*
X144914Y86948D01*
Y86317D01*
X145156Y85734D01*
X145602Y85288D01*
X146185Y85046D01*
X146815D01*
X147398Y85288D01*
X147844Y85734D01*
X148086Y86317D01*
Y86948D01*
X147844Y87530D01*
X147398Y87976D01*
X146815Y88218D01*
D02*
G37*
G36*
X137112D02*
X136481D01*
X135898Y87976D01*
X135452Y87530D01*
X135211Y86948D01*
Y86317D01*
X135452Y85734D01*
X135898Y85288D01*
X136481Y85046D01*
X137112D01*
X137695Y85288D01*
X138141Y85734D01*
X138382Y86317D01*
Y86948D01*
X138141Y87530D01*
X137695Y87976D01*
X137112Y88218D01*
D02*
G37*
G36*
X196169Y84194D02*
X195538D01*
X194955Y83953D01*
X194509Y83507D01*
X194268Y82924D01*
Y82293D01*
X194509Y81710D01*
X194955Y81264D01*
X195538Y81022D01*
X196169D01*
X196752Y81264D01*
X197198Y81710D01*
X197439Y82293D01*
Y82924D01*
X197198Y83507D01*
X196752Y83953D01*
X196169Y84194D01*
D02*
G37*
G36*
X134220D02*
X133590D01*
X133007Y83953D01*
X132561Y83507D01*
X132319Y82924D01*
Y82293D01*
X132561Y81710D01*
X133007Y81264D01*
X133590Y81022D01*
X134220D01*
X134803Y81264D01*
X135249Y81710D01*
X135491Y82293D01*
Y82924D01*
X135249Y83507D01*
X134803Y83953D01*
X134220Y84194D01*
D02*
G37*
G36*
X123383D02*
X122752D01*
X122170Y83953D01*
X121724Y83507D01*
X121482Y82924D01*
Y82293D01*
X121724Y81710D01*
X122170Y81264D01*
X122752Y81022D01*
X123383D01*
X123966Y81264D01*
X124412Y81710D01*
X124654Y82293D01*
Y82924D01*
X124412Y83507D01*
X123966Y83953D01*
X123383Y84194D01*
D02*
G37*
G36*
X193169Y75926D02*
X192538D01*
X191955Y75685D01*
X191509Y75239D01*
X191268Y74656D01*
Y74025D01*
X191509Y73442D01*
X191955Y72996D01*
X192538Y72755D01*
X193169D01*
X193752Y72996D01*
X194198Y73442D01*
X194439Y74025D01*
Y74656D01*
X194198Y75239D01*
X193752Y75685D01*
X193169Y75926D01*
D02*
G37*
G36*
X186132D02*
X185501D01*
X184918Y75685D01*
X184472Y75239D01*
X184231Y74656D01*
Y74025D01*
X184472Y73442D01*
X184918Y72996D01*
X185501Y72755D01*
X186132D01*
X186715Y72996D01*
X187161Y73442D01*
X187402Y74025D01*
Y74656D01*
X187161Y75239D01*
X186715Y75685D01*
X186132Y75926D01*
D02*
G37*
G36*
X179032D02*
X178401D01*
X177818Y75685D01*
X177372Y75239D01*
X177131Y74656D01*
Y74025D01*
X177372Y73442D01*
X177818Y72996D01*
X178401Y72755D01*
X179032D01*
X179615Y72996D01*
X180061Y73442D01*
X180302Y74025D01*
Y74656D01*
X180061Y75239D01*
X179615Y75685D01*
X179032Y75926D01*
D02*
G37*
G36*
X134220D02*
X133590D01*
X133007Y75685D01*
X132561Y75239D01*
X132319Y74656D01*
Y74025D01*
X132561Y73442D01*
X133007Y72996D01*
X133590Y72755D01*
X134220D01*
X134803Y72996D01*
X135249Y73442D01*
X135491Y74025D01*
Y74656D01*
X135249Y75239D01*
X134803Y75685D01*
X134220Y75926D01*
D02*
G37*
G36*
X127320D02*
X126690D01*
X126107Y75685D01*
X125661Y75239D01*
X125419Y74656D01*
Y74025D01*
X125661Y73442D01*
X126107Y72996D01*
X126690Y72755D01*
X127320D01*
X127903Y72996D01*
X128349Y73442D01*
X128591Y74025D01*
Y74656D01*
X128349Y75239D01*
X127903Y75685D01*
X127320Y75926D01*
D02*
G37*
G36*
X120383D02*
X119753D01*
X119170Y75685D01*
X118724Y75239D01*
X118482Y74656D01*
Y74025D01*
X118724Y73442D01*
X119170Y72996D01*
X119753Y72755D01*
X120383D01*
X120966Y72996D01*
X121412Y73442D01*
X121654Y74025D01*
Y74656D01*
X121412Y75239D01*
X120966Y75685D01*
X120383Y75926D01*
D02*
G37*
G36*
X113346D02*
X112715D01*
X112133Y75685D01*
X111687Y75239D01*
X111445Y74656D01*
Y74025D01*
X111687Y73442D01*
X112133Y72996D01*
X112715Y72755D01*
X113346D01*
X113929Y72996D01*
X114375Y73442D01*
X114617Y74025D01*
Y74656D01*
X114375Y75239D01*
X113929Y75685D01*
X113346Y75926D01*
D02*
G37*
G36*
X106246D02*
X105615D01*
X105033Y75685D01*
X104587Y75239D01*
X104345Y74656D01*
Y74025D01*
X104587Y73442D01*
X105033Y72996D01*
X105615Y72755D01*
X106246D01*
X106829Y72996D01*
X107275Y73442D01*
X107517Y74025D01*
Y74656D01*
X107275Y75239D01*
X106829Y75685D01*
X106246Y75926D01*
D02*
G37*
G36*
X94544Y71793D02*
X93913D01*
X93330Y71551D01*
X92884Y71105D01*
X92643Y70522D01*
Y69891D01*
X92884Y69308D01*
X93330Y68862D01*
X93913Y68621D01*
X94544D01*
X95127Y68862D01*
X95573Y69308D01*
X95814Y69891D01*
Y70522D01*
X95573Y71105D01*
X95127Y71551D01*
X94544Y71793D01*
D02*
G37*
G36*
X124320Y68920D02*
X123690D01*
X123107Y68678D01*
X122661Y68232D01*
X122419Y67649D01*
Y67018D01*
X122661Y66436D01*
X123107Y65990D01*
X123690Y65748D01*
X124320D01*
X124903Y65990D01*
X125349Y66436D01*
X125591Y67018D01*
Y67649D01*
X125349Y68232D01*
X124903Y68678D01*
X124320Y68920D01*
D02*
G37*
G36*
X117283D02*
X116653D01*
X116070Y68678D01*
X115624Y68232D01*
X115382Y67649D01*
Y67018D01*
X115624Y66436D01*
X116070Y65990D01*
X116653Y65748D01*
X117283D01*
X117866Y65990D01*
X118312Y66436D01*
X118554Y67018D01*
Y67649D01*
X118312Y68232D01*
X117866Y68678D01*
X117283Y68920D01*
D02*
G37*
G36*
X109544D02*
X108913D01*
X108330Y68678D01*
X107884Y68232D01*
X107643Y67649D01*
Y67018D01*
X107884Y66436D01*
X108330Y65990D01*
X108913Y65748D01*
X109544D01*
X110127Y65990D01*
X110573Y66436D01*
X110814Y67018D01*
Y67649D01*
X110573Y68232D01*
X110127Y68678D01*
X109544Y68920D01*
D02*
G37*
G36*
X149361Y59446D02*
X144538Y54622D01*
X149361Y49799D01*
Y59446D01*
D02*
G37*
G36*
X129639Y59446D02*
Y49798D01*
X134462Y54622D01*
X129639Y59446D01*
D02*
G37*
G36*
X148654Y60153D02*
X130346D01*
X135523Y54976D01*
X135169Y54622D01*
X135523Y54268D01*
X130346Y49091D01*
X148654D01*
X143477Y54268D01*
X143831Y54622D01*
X143477Y54976D01*
X148654Y60153D01*
D02*
G37*
G36*
X196323Y47550D02*
X195310D01*
X194331Y47287D01*
X193453Y46780D01*
X192736Y46064D01*
X192229Y45186D01*
X191967Y44207D01*
Y43193D01*
X192229Y42214D01*
X192736Y41336D01*
X193453Y40620D01*
X194331Y40113D01*
X195310Y39851D01*
X196323D01*
X197302Y40113D01*
X198180Y40620D01*
X198897Y41336D01*
X199404Y42214D01*
X199666Y43193D01*
Y44207D01*
X199404Y45186D01*
X198897Y46064D01*
X198180Y46780D01*
X197302Y47287D01*
X196323Y47550D01*
D02*
G37*
G36*
X186323D02*
X185310D01*
X184331Y47287D01*
X183453Y46780D01*
X182736Y46064D01*
X182229Y45186D01*
X181967Y44207D01*
Y43193D01*
X182229Y42214D01*
X182736Y41336D01*
X183453Y40620D01*
X184331Y40113D01*
X185310Y39851D01*
X186323D01*
X187302Y40113D01*
X188180Y40620D01*
X188897Y41336D01*
X189404Y42214D01*
X189666Y43193D01*
Y44207D01*
X189404Y45186D01*
X188897Y46064D01*
X188180Y46780D01*
X187302Y47287D01*
X186323Y47550D01*
D02*
G37*
G36*
X179666D02*
X171967D01*
Y39851D01*
X179666D01*
Y47550D01*
D02*
G37*
G36*
X109735D02*
X108722D01*
X107743Y47287D01*
X106865Y46780D01*
X106148Y46064D01*
X105641Y45186D01*
X105379Y44207D01*
Y43193D01*
X105641Y42214D01*
X106148Y41336D01*
X106865Y40620D01*
X107743Y40113D01*
X108722Y39851D01*
X109735D01*
X110714Y40113D01*
X111592Y40620D01*
X112309Y41336D01*
X112816Y42214D01*
X113078Y43193D01*
Y44207D01*
X112816Y45186D01*
X112309Y46064D01*
X111592Y46780D01*
X110714Y47287D01*
X109735Y47550D01*
D02*
G37*
G36*
X99735D02*
X98722D01*
X97743Y47287D01*
X96865Y46780D01*
X96148Y46064D01*
X95641Y45186D01*
X95379Y44207D01*
Y43193D01*
X95641Y42214D01*
X96148Y41336D01*
X96865Y40620D01*
X97743Y40113D01*
X98722Y39851D01*
X99735D01*
X100715Y40113D01*
X101592Y40620D01*
X102309Y41336D01*
X102816Y42214D01*
X103078Y43193D01*
Y44207D01*
X102816Y45186D01*
X102309Y46064D01*
X101592Y46780D01*
X100715Y47287D01*
X99735Y47550D01*
D02*
G37*
G36*
X93078D02*
X85379D01*
Y39851D01*
X93078D01*
Y47550D01*
D02*
G37*
G36*
X162641Y51385D02*
X153367D01*
Y34237D01*
X162641D01*
Y51385D01*
D02*
G37*
G36*
X148074Y35637D02*
X130926D01*
Y26363D01*
X148074D01*
Y35637D01*
D02*
G37*
G36*
X329625Y190743D02*
X328376D01*
X327169Y190420D01*
X326088Y189796D01*
X325999Y189708D01*
X329000Y186707D01*
X332000Y189708D01*
X331912Y189796D01*
X330831Y190420D01*
X329625Y190743D01*
D02*
G37*
G36*
X323036D02*
X314964D01*
X319000Y186707D01*
X323036Y190743D01*
D02*
G37*
G36*
X279536D02*
X271464D01*
X275500Y186707D01*
X279536Y190743D01*
D02*
G37*
G36*
X332708Y189000D02*
X329707Y186000D01*
X332708Y183000D01*
X332796Y183088D01*
X333420Y184169D01*
X333743Y185375D01*
Y186625D01*
X333420Y187831D01*
X332796Y188912D01*
X332708Y189000D01*
D02*
G37*
G36*
X325292Y189000D02*
X325204Y188912D01*
X324580Y187831D01*
X324257Y186625D01*
Y185375D01*
X324580Y184169D01*
X325204Y183088D01*
X325292Y183000D01*
X328293Y186000D01*
X325292Y189000D01*
D02*
G37*
G36*
X323743Y190036D02*
X319707Y186000D01*
X323743Y181964D01*
Y190036D01*
D02*
G37*
G36*
X280243D02*
X276207Y186000D01*
X280243Y181964D01*
Y190036D01*
D02*
G37*
G36*
X314257Y190036D02*
Y181964D01*
X318293Y186000D01*
X314257Y190036D01*
D02*
G37*
G36*
X270757D02*
Y181964D01*
X274793Y186000D01*
X270757Y190036D01*
D02*
G37*
G36*
X339559Y190243D02*
X338441D01*
X337362Y189954D01*
X336395Y189395D01*
X335605Y188605D01*
X335046Y187638D01*
X334757Y186559D01*
Y185441D01*
X335046Y184362D01*
X335605Y183395D01*
X336395Y182605D01*
X337362Y182046D01*
X338441Y181757D01*
X339559D01*
X340638Y182046D01*
X341605Y182605D01*
X342395Y183395D01*
X342954Y184362D01*
X343243Y185441D01*
Y186559D01*
X342954Y187638D01*
X342395Y188605D01*
X341605Y189395D01*
X340638Y189954D01*
X339559Y190243D01*
D02*
G37*
G36*
X296059D02*
X294941D01*
X293862Y189954D01*
X292895Y189395D01*
X292105Y188605D01*
X291546Y187638D01*
X291257Y186559D01*
Y185441D01*
X291546Y184362D01*
X292105Y183395D01*
X292895Y182605D01*
X293862Y182046D01*
X294941Y181757D01*
X296059D01*
X297138Y182046D01*
X298106Y182605D01*
X298896Y183395D01*
X299454Y184362D01*
X299743Y185441D01*
Y186559D01*
X299454Y187638D01*
X298896Y188605D01*
X298106Y189395D01*
X297138Y189954D01*
X296059Y190243D01*
D02*
G37*
G36*
X286059D02*
X284941D01*
X283862Y189954D01*
X282894Y189395D01*
X282104Y188605D01*
X281546Y187638D01*
X281257Y186559D01*
Y185441D01*
X281546Y184362D01*
X282104Y183395D01*
X282894Y182605D01*
X283862Y182046D01*
X284941Y181757D01*
X286059D01*
X287138Y182046D01*
X288106Y182605D01*
X288896Y183395D01*
X289454Y184362D01*
X289743Y185441D01*
Y186559D01*
X289454Y187638D01*
X288896Y188605D01*
X288106Y189395D01*
X287138Y189954D01*
X286059Y190243D01*
D02*
G37*
G36*
X329000Y185293D02*
X325999Y182292D01*
X326088Y182204D01*
X327169Y181580D01*
X328376Y181257D01*
X329625D01*
X330831Y181580D01*
X331912Y182204D01*
X332000Y182292D01*
X329000Y185293D01*
D02*
G37*
G36*
X319000D02*
X314964Y181257D01*
X323036D01*
X319000Y185293D01*
D02*
G37*
G36*
X275500D02*
X271464Y181257D01*
X279536D01*
X275500Y185293D01*
D02*
G37*
G36*
X339559Y180243D02*
X338441D01*
X337362Y179954D01*
X336395Y179395D01*
X335605Y178605D01*
X335046Y177638D01*
X334757Y176559D01*
Y175441D01*
X335046Y174362D01*
X335605Y173395D01*
X336395Y172605D01*
X337362Y172046D01*
X338441Y171757D01*
X339559D01*
X340638Y172046D01*
X341605Y172605D01*
X342395Y173395D01*
X342954Y174362D01*
X343243Y175441D01*
Y176559D01*
X342954Y177638D01*
X342395Y178605D01*
X341605Y179395D01*
X340638Y179954D01*
X339559Y180243D01*
D02*
G37*
G36*
X329559D02*
X328441D01*
X327362Y179954D01*
X326395Y179395D01*
X325605Y178605D01*
X325046Y177638D01*
X324757Y176559D01*
Y175441D01*
X325046Y174362D01*
X325605Y173395D01*
X326395Y172605D01*
X327362Y172046D01*
X328441Y171757D01*
X329559D01*
X330638Y172046D01*
X331606Y172605D01*
X332396Y173395D01*
X332954Y174362D01*
X333243Y175441D01*
Y176559D01*
X332954Y177638D01*
X332396Y178605D01*
X331606Y179395D01*
X330638Y179954D01*
X329559Y180243D01*
D02*
G37*
G36*
X319559D02*
X318441D01*
X317362Y179954D01*
X316394Y179395D01*
X315604Y178605D01*
X315046Y177638D01*
X314757Y176559D01*
Y175441D01*
X315046Y174362D01*
X315604Y173395D01*
X316394Y172605D01*
X317362Y172046D01*
X318441Y171757D01*
X319559D01*
X320638Y172046D01*
X321605Y172605D01*
X322395Y173395D01*
X322954Y174362D01*
X323243Y175441D01*
Y176559D01*
X322954Y177638D01*
X322395Y178605D01*
X321605Y179395D01*
X320638Y179954D01*
X319559Y180243D01*
D02*
G37*
G36*
X296059D02*
X294941D01*
X293862Y179954D01*
X292895Y179395D01*
X292105Y178605D01*
X291546Y177638D01*
X291257Y176559D01*
Y175441D01*
X291546Y174362D01*
X292105Y173395D01*
X292895Y172605D01*
X293862Y172046D01*
X294941Y171757D01*
X296059D01*
X297138Y172046D01*
X298106Y172605D01*
X298896Y173395D01*
X299454Y174362D01*
X299743Y175441D01*
Y176559D01*
X299454Y177638D01*
X298896Y178605D01*
X298106Y179395D01*
X297138Y179954D01*
X296059Y180243D01*
D02*
G37*
G36*
X286059D02*
X284941D01*
X283862Y179954D01*
X282894Y179395D01*
X282104Y178605D01*
X281546Y177638D01*
X281257Y176559D01*
Y175441D01*
X281546Y174362D01*
X282104Y173395D01*
X282894Y172605D01*
X283862Y172046D01*
X284941Y171757D01*
X286059D01*
X287138Y172046D01*
X288106Y172605D01*
X288896Y173395D01*
X289454Y174362D01*
X289743Y175441D01*
Y176559D01*
X289454Y177638D01*
X288896Y178605D01*
X288106Y179395D01*
X287138Y179954D01*
X286059Y180243D01*
D02*
G37*
G36*
X276059D02*
X274941D01*
X273862Y179954D01*
X272895Y179395D01*
X272105Y178605D01*
X271546Y177638D01*
X271257Y176559D01*
Y175441D01*
X271546Y174362D01*
X272105Y173395D01*
X272895Y172605D01*
X273862Y172046D01*
X274941Y171757D01*
X276059D01*
X277138Y172046D01*
X278105Y172605D01*
X278895Y173395D01*
X279454Y174362D01*
X279743Y175441D01*
Y176559D01*
X279454Y177638D01*
X278895Y178605D01*
X278105Y179395D01*
X277138Y179954D01*
X276059Y180243D01*
D02*
G37*
G36*
X299315Y168586D02*
X298685D01*
X298102Y168344D01*
X297656Y167898D01*
X297414Y167315D01*
Y166685D01*
X297656Y166102D01*
X298102Y165656D01*
X298685Y165414D01*
X299315D01*
X299898Y165656D01*
X300344Y166102D01*
X300586Y166685D01*
Y167315D01*
X300344Y167898D01*
X299898Y168344D01*
X299315Y168586D01*
D02*
G37*
G36*
X237205Y189676D02*
X235236D01*
X233291Y189368D01*
X231418Y188760D01*
X229663Y187866D01*
X228070Y186708D01*
X226678Y185316D01*
X225520Y183723D01*
X224626Y181968D01*
X224018Y180095D01*
X223710Y178150D01*
Y176181D01*
X224018Y174236D01*
X224626Y172363D01*
X225520Y170608D01*
X226678Y169015D01*
X228070Y167622D01*
X229663Y166465D01*
X231418Y165571D01*
X233291Y164962D01*
X235236Y164654D01*
X237205D01*
X239150Y164962D01*
X241023Y165571D01*
X242778Y166465D01*
X244371Y167622D01*
X245763Y169015D01*
X246921Y170608D01*
X247815Y172363D01*
X248423Y174236D01*
X248731Y176181D01*
Y178150D01*
X248423Y180095D01*
X247815Y181968D01*
X246921Y183723D01*
X245763Y185316D01*
X244371Y186708D01*
X242778Y187866D01*
X241023Y188760D01*
X239150Y189368D01*
X237205Y189676D01*
D02*
G37*
G36*
X377985Y189211D02*
X376015D01*
X374070Y188903D01*
X372198Y188294D01*
X370443Y187400D01*
X368850Y186243D01*
X367457Y184850D01*
X366300Y183257D01*
X365406Y181503D01*
X364797Y179630D01*
X364489Y177685D01*
Y175715D01*
X364797Y173770D01*
X365406Y171897D01*
X366300Y170143D01*
X367457Y168550D01*
X368850Y167157D01*
X370443Y166000D01*
X372198Y165106D01*
X374070Y164497D01*
X376015Y164189D01*
X377985D01*
X379930Y164497D01*
X381803Y165106D01*
X383557Y166000D01*
X385150Y167157D01*
X386543Y168550D01*
X387700Y170143D01*
X388595Y171897D01*
X389203Y173770D01*
X389511Y175715D01*
Y177685D01*
X389203Y179630D01*
X388595Y181503D01*
X387700Y183257D01*
X386543Y184850D01*
X385150Y186243D01*
X383557Y187400D01*
X381803Y188294D01*
X379930Y188903D01*
X377985Y189211D01*
D02*
G37*
G36*
X361883Y166518D02*
X361252D01*
X360669Y166277D01*
X360223Y165831D01*
X359982Y165248D01*
Y164617D01*
X360223Y164034D01*
X360669Y163588D01*
X361252Y163346D01*
X361883D01*
X362466Y163588D01*
X362912Y164034D01*
X363154Y164617D01*
Y165248D01*
X362912Y165831D01*
X362466Y166277D01*
X361883Y166518D01*
D02*
G37*
G36*
X299497Y163086D02*
X298867D01*
X298284Y162844D01*
X297838Y162398D01*
X297596Y161815D01*
Y161185D01*
X297838Y160602D01*
X298284Y160156D01*
X298867Y159914D01*
X299497D01*
X300080Y160156D01*
X300526Y160602D01*
X300768Y161185D01*
Y161815D01*
X300526Y162398D01*
X300080Y162844D01*
X299497Y163086D01*
D02*
G37*
G36*
X355315Y161586D02*
X354685D01*
X354102Y161344D01*
X353656Y160898D01*
X353414Y160315D01*
Y159685D01*
X353656Y159102D01*
X354102Y158656D01*
X354685Y158414D01*
X355315D01*
X355898Y158656D01*
X356344Y159102D01*
X356586Y159685D01*
Y160315D01*
X356344Y160898D01*
X355898Y161344D01*
X355315Y161586D01*
D02*
G37*
G36*
X241536Y161743D02*
X233464D01*
X237500Y157707D01*
X241536Y161743D01*
D02*
G37*
G36*
X264478D02*
X256405D01*
X260441Y157707D01*
X264478Y161743D01*
D02*
G37*
G36*
X339497Y159904D02*
X338866D01*
X338284Y159662D01*
X337838Y159216D01*
X337596Y158633D01*
Y158003D01*
X337838Y157420D01*
X338284Y156974D01*
X338866Y156732D01*
X339497D01*
X340080Y156974D01*
X340526Y157420D01*
X340768Y158003D01*
Y158633D01*
X340526Y159216D01*
X340080Y159662D01*
X339497Y159904D01*
D02*
G37*
G36*
X318315Y159586D02*
X317685D01*
X317102Y159344D01*
X316656Y158898D01*
X316414Y158315D01*
Y157685D01*
X316656Y157102D01*
X317102Y156656D01*
X317685Y156414D01*
X318315D01*
X318898Y156656D01*
X319344Y157102D01*
X319586Y157685D01*
Y158315D01*
X319344Y158898D01*
X318898Y159344D01*
X318315Y159586D01*
D02*
G37*
G36*
X242243Y161036D02*
X238207Y157000D01*
X242243Y152964D01*
Y161036D01*
D02*
G37*
G36*
X265185D02*
X261149Y157000D01*
X265185Y152964D01*
Y161036D01*
D02*
G37*
G36*
X255698Y161036D02*
Y152964D01*
X259734Y157000D01*
X255698Y161036D01*
D02*
G37*
G36*
X232757Y161036D02*
Y152964D01*
X236793Y157000D01*
X232757Y161036D01*
D02*
G37*
G36*
X251000Y161243D02*
X249883D01*
X248804Y160954D01*
X247836Y160396D01*
X247046Y159605D01*
X246487Y158638D01*
X246198Y157559D01*
Y156441D01*
X246487Y155362D01*
X247046Y154395D01*
X247836Y153604D01*
X248804Y153046D01*
X249883Y152757D01*
X251000D01*
X252079Y153046D01*
X253047Y153604D01*
X253837Y154395D01*
X254396Y155362D01*
X254685Y156441D01*
Y157559D01*
X254396Y158638D01*
X253837Y159605D01*
X253047Y160396D01*
X252079Y160954D01*
X251000Y161243D01*
D02*
G37*
G36*
X228059D02*
X226941D01*
X225862Y160954D01*
X224894Y160396D01*
X224104Y159605D01*
X223546Y158638D01*
X223257Y157559D01*
Y156441D01*
X223546Y155362D01*
X224104Y154395D01*
X224894Y153604D01*
X225862Y153046D01*
X226941Y152757D01*
X228059D01*
X229138Y153046D01*
X230105Y153604D01*
X230895Y154395D01*
X231454Y155362D01*
X231743Y156441D01*
Y157559D01*
X231454Y158638D01*
X230895Y159605D01*
X230105Y160396D01*
X229138Y160954D01*
X228059Y161243D01*
D02*
G37*
G36*
X260441Y156293D02*
X256405Y152257D01*
X264478D01*
X260441Y156293D01*
D02*
G37*
G36*
X237500Y156293D02*
X233464Y152257D01*
X241536D01*
X237500Y156293D01*
D02*
G37*
G36*
X321815Y154586D02*
X321185D01*
X320602Y154344D01*
X320156Y153898D01*
X319914Y153315D01*
Y152685D01*
X320156Y152102D01*
X320602Y151656D01*
X321185Y151414D01*
X321815D01*
X322398Y151656D01*
X322844Y152102D01*
X323086Y152685D01*
Y153315D01*
X322844Y153898D01*
X322398Y154344D01*
X321815Y154586D01*
D02*
G37*
G36*
X380148Y156302D02*
X372252D01*
Y148406D01*
X380148D01*
Y156302D01*
D02*
G37*
G36*
X309497Y148586D02*
X308867D01*
X308284Y148344D01*
X307838Y147898D01*
X307596Y147315D01*
Y146685D01*
X307838Y146102D01*
X308284Y145656D01*
X308867Y145414D01*
X309497D01*
X310080Y145656D01*
X310526Y146102D01*
X310768Y146685D01*
Y147315D01*
X310526Y147898D01*
X310080Y148344D01*
X309497Y148586D01*
D02*
G37*
G36*
X261000Y151243D02*
X259883D01*
X258804Y150954D01*
X257836Y150396D01*
X257046Y149605D01*
X256487Y148638D01*
X256198Y147559D01*
Y146441D01*
X256487Y145362D01*
X257046Y144395D01*
X257836Y143605D01*
X258804Y143046D01*
X259883Y142757D01*
X261000D01*
X262079Y143046D01*
X263047Y143605D01*
X263837Y144395D01*
X264395Y145362D01*
X264685Y146441D01*
Y147559D01*
X264395Y148638D01*
X263837Y149605D01*
X263047Y150396D01*
X262079Y150954D01*
X261000Y151243D01*
D02*
G37*
G36*
X251000D02*
X249883D01*
X248804Y150954D01*
X247836Y150396D01*
X247046Y149605D01*
X246487Y148638D01*
X246198Y147559D01*
Y146441D01*
X246487Y145362D01*
X247046Y144395D01*
X247836Y143605D01*
X248804Y143046D01*
X249883Y142757D01*
X251000D01*
X252079Y143046D01*
X253047Y143605D01*
X253837Y144395D01*
X254396Y145362D01*
X254685Y146441D01*
Y147559D01*
X254396Y148638D01*
X253837Y149605D01*
X253047Y150396D01*
X252079Y150954D01*
X251000Y151243D01*
D02*
G37*
G36*
X238059D02*
X236941D01*
X235862Y150954D01*
X234894Y150396D01*
X234104Y149605D01*
X233546Y148638D01*
X233257Y147559D01*
Y146441D01*
X233546Y145362D01*
X234104Y144395D01*
X234894Y143605D01*
X235862Y143046D01*
X236941Y142757D01*
X238059D01*
X239138Y143046D01*
X240106Y143605D01*
X240896Y144395D01*
X241454Y145362D01*
X241743Y146441D01*
Y147559D01*
X241454Y148638D01*
X240896Y149605D01*
X240106Y150396D01*
X239138Y150954D01*
X238059Y151243D01*
D02*
G37*
G36*
X228059D02*
X226941D01*
X225862Y150954D01*
X224894Y150396D01*
X224104Y149605D01*
X223546Y148638D01*
X223257Y147559D01*
Y146441D01*
X223546Y145362D01*
X224104Y144395D01*
X224894Y143605D01*
X225862Y143046D01*
X226941Y142757D01*
X228059D01*
X229138Y143046D01*
X230105Y143605D01*
X230895Y144395D01*
X231454Y145362D01*
X231743Y146441D01*
Y147559D01*
X231454Y148638D01*
X230895Y149605D01*
X230105Y150396D01*
X229138Y150954D01*
X228059Y151243D01*
D02*
G37*
G36*
X327815Y143940D02*
X327185D01*
X326602Y143699D01*
X326156Y143253D01*
X325914Y142670D01*
Y142039D01*
X326156Y141456D01*
X326602Y141010D01*
X327185Y140769D01*
X327815D01*
X328398Y141010D01*
X328844Y141456D01*
X329086Y142039D01*
Y142670D01*
X328844Y143253D01*
X328398Y143699D01*
X327815Y143940D01*
D02*
G37*
G36*
X376720Y146302D02*
X375680D01*
X374676Y146033D01*
X373776Y145513D01*
X373041Y144779D01*
X372521Y143878D01*
X372252Y142874D01*
Y141835D01*
X372521Y140830D01*
X373041Y139930D01*
X373776Y139195D01*
X374676Y138675D01*
X375680Y138406D01*
X376720D01*
X377724Y138675D01*
X378624Y139195D01*
X379359Y139930D01*
X379879Y140830D01*
X380148Y141835D01*
Y142874D01*
X379879Y143878D01*
X379359Y144779D01*
X378624Y145513D01*
X377724Y146033D01*
X376720Y146302D01*
D02*
G37*
G36*
X261000Y141243D02*
X259883D01*
X258804Y140954D01*
X257836Y140395D01*
X257046Y139605D01*
X256487Y138638D01*
X256198Y137559D01*
Y136441D01*
X256487Y135362D01*
X257046Y134395D01*
X257836Y133605D01*
X258804Y133046D01*
X259883Y132757D01*
X261000D01*
X262079Y133046D01*
X263047Y133605D01*
X263837Y134395D01*
X264395Y135362D01*
X264685Y136441D01*
Y137559D01*
X264395Y138638D01*
X263837Y139605D01*
X263047Y140395D01*
X262079Y140954D01*
X261000Y141243D01*
D02*
G37*
G36*
X251000D02*
X249883D01*
X248804Y140954D01*
X247836Y140395D01*
X247046Y139605D01*
X246487Y138638D01*
X246198Y137559D01*
Y136441D01*
X246487Y135362D01*
X247046Y134395D01*
X247836Y133605D01*
X248804Y133046D01*
X249883Y132757D01*
X251000D01*
X252079Y133046D01*
X253047Y133605D01*
X253837Y134395D01*
X254396Y135362D01*
X254685Y136441D01*
Y137559D01*
X254396Y138638D01*
X253837Y139605D01*
X253047Y140395D01*
X252079Y140954D01*
X251000Y141243D01*
D02*
G37*
G36*
X238059D02*
X236941D01*
X235862Y140954D01*
X234894Y140395D01*
X234104Y139605D01*
X233546Y138638D01*
X233257Y137559D01*
Y136441D01*
X233546Y135362D01*
X234104Y134395D01*
X234894Y133605D01*
X235862Y133046D01*
X236941Y132757D01*
X238059D01*
X239138Y133046D01*
X240106Y133605D01*
X240896Y134395D01*
X241454Y135362D01*
X241743Y136441D01*
Y137559D01*
X241454Y138638D01*
X240896Y139605D01*
X240106Y140395D01*
X239138Y140954D01*
X238059Y141243D01*
D02*
G37*
G36*
X228059D02*
X226941D01*
X225862Y140954D01*
X224894Y140395D01*
X224104Y139605D01*
X223546Y138638D01*
X223257Y137559D01*
Y136441D01*
X223546Y135362D01*
X224104Y134395D01*
X224894Y133605D01*
X225862Y133046D01*
X226941Y132757D01*
X228059D01*
X229138Y133046D01*
X230105Y133605D01*
X230895Y134395D01*
X231454Y135362D01*
X231743Y136441D01*
Y137559D01*
X231454Y138638D01*
X230895Y139605D01*
X230105Y140395D01*
X229138Y140954D01*
X228059Y141243D01*
D02*
G37*
G36*
X276815Y134586D02*
X276185D01*
X275602Y134344D01*
X275156Y133898D01*
X274914Y133315D01*
Y132685D01*
X275156Y132102D01*
X275602Y131656D01*
X276185Y131414D01*
X276815D01*
X277398Y131656D01*
X277844Y132102D01*
X278086Y132685D01*
Y133315D01*
X277844Y133898D01*
X277398Y134344D01*
X276815Y134586D01*
D02*
G37*
G36*
X376720Y136302D02*
X375680D01*
X374676Y136033D01*
X373776Y135513D01*
X373041Y134778D01*
X372521Y133878D01*
X372252Y132874D01*
Y131835D01*
X372521Y130830D01*
X373041Y129930D01*
X373776Y129195D01*
X374676Y128675D01*
X375680Y128406D01*
X376720D01*
X377724Y128675D01*
X378624Y129195D01*
X379359Y129930D01*
X379879Y130830D01*
X380148Y131835D01*
Y132874D01*
X379879Y133878D01*
X379359Y134778D01*
X378624Y135513D01*
X377724Y136033D01*
X376720Y136302D01*
D02*
G37*
G36*
X286315Y130586D02*
X285685D01*
X285102Y130344D01*
X284656Y129898D01*
X284414Y129315D01*
Y128685D01*
X284656Y128102D01*
X285102Y127656D01*
X285685Y127414D01*
X286315D01*
X286898Y127656D01*
X287344Y128102D01*
X287586Y128685D01*
Y129315D01*
X287344Y129898D01*
X286898Y130344D01*
X286315Y130586D01*
D02*
G37*
G36*
X248070Y128650D02*
X247439D01*
X246856Y128409D01*
X246410Y127963D01*
X246168Y127380D01*
Y126749D01*
X246410Y126166D01*
X246856Y125720D01*
X247439Y125479D01*
X248070D01*
X248652Y125720D01*
X249098Y126166D01*
X249340Y126749D01*
Y127380D01*
X249098Y127963D01*
X248652Y128409D01*
X248070Y128650D01*
D02*
G37*
G36*
X304497Y123904D02*
X303867D01*
X303284Y123662D01*
X302838Y123216D01*
X302596Y122634D01*
Y122003D01*
X302838Y121420D01*
X303284Y120974D01*
X303867Y120732D01*
X304497D01*
X305080Y120974D01*
X305526Y121420D01*
X305768Y122003D01*
Y122634D01*
X305526Y123216D01*
X305080Y123662D01*
X304497Y123904D01*
D02*
G37*
G36*
X233816Y121585D02*
X233185D01*
X232602Y121344D01*
X232156Y120898D01*
X231915Y120315D01*
Y119684D01*
X232156Y119101D01*
X232602Y118655D01*
X233185Y118414D01*
X233816D01*
X234399Y118655D01*
X234845Y119101D01*
X235086Y119684D01*
Y120315D01*
X234845Y120898D01*
X234399Y121344D01*
X233816Y121585D01*
D02*
G37*
G36*
X376720Y126302D02*
X375680D01*
X374676Y126033D01*
X373776Y125514D01*
X373041Y124778D01*
X372521Y123878D01*
X372252Y122874D01*
Y121835D01*
X372521Y120830D01*
X373041Y119930D01*
X373776Y119195D01*
X374676Y118675D01*
X375680Y118406D01*
X376720D01*
X377724Y118675D01*
X378624Y119195D01*
X379359Y119930D01*
X379879Y120830D01*
X380148Y121835D01*
Y122874D01*
X379879Y123878D01*
X379359Y124778D01*
X378624Y125514D01*
X377724Y126033D01*
X376720Y126302D01*
D02*
G37*
G36*
X299497Y118586D02*
X298867D01*
X298284Y118344D01*
X297838Y117898D01*
X297596Y117315D01*
Y116685D01*
X297838Y116102D01*
X298284Y115656D01*
X298867Y115414D01*
X299497D01*
X300080Y115656D01*
X300526Y116102D01*
X300768Y116685D01*
Y117315D01*
X300526Y117898D01*
X300080Y118344D01*
X299497Y118586D01*
D02*
G37*
G36*
X329497Y115444D02*
X328867D01*
X328284Y115202D01*
X327838Y114756D01*
X327596Y114173D01*
Y113542D01*
X327838Y112960D01*
X328284Y112513D01*
X328867Y112272D01*
X329497D01*
X330080Y112513D01*
X330526Y112960D01*
X330768Y113542D01*
Y114173D01*
X330526Y114756D01*
X330080Y115202D01*
X329497Y115444D01*
D02*
G37*
G36*
X243726Y111094D02*
X243095D01*
X242512Y110853D01*
X242066Y110407D01*
X241824Y109824D01*
Y109193D01*
X242066Y108610D01*
X242512Y108164D01*
X243095Y107923D01*
X243726D01*
X244308Y108164D01*
X244755Y108610D01*
X244996Y109193D01*
Y109824D01*
X244755Y110407D01*
X244308Y110853D01*
X243726Y111094D01*
D02*
G37*
G36*
X378015Y111086D02*
X377384D01*
X376802Y110844D01*
X376356Y110398D01*
X376114Y109815D01*
Y109185D01*
X376356Y108602D01*
X376802Y108156D01*
X377384Y107914D01*
X378015D01*
X378598Y108156D01*
X379044Y108602D01*
X379286Y109185D01*
Y109815D01*
X379044Y110398D01*
X378598Y110844D01*
X378015Y111086D01*
D02*
G37*
G36*
X368815D02*
X368185D01*
X367602Y110844D01*
X367156Y110398D01*
X366914Y109815D01*
Y109185D01*
X367156Y108602D01*
X367602Y108156D01*
X368185Y107914D01*
X368815D01*
X369398Y108156D01*
X369844Y108602D01*
X370086Y109185D01*
Y109815D01*
X369844Y110398D01*
X369398Y110844D01*
X368815Y111086D01*
D02*
G37*
G36*
X346473Y111062D02*
X345843D01*
X345260Y110820D01*
X344813Y110374D01*
X344572Y109791D01*
Y109160D01*
X344813Y108578D01*
X345260Y108132D01*
X345843Y107890D01*
X346473D01*
X347056Y108132D01*
X347502Y108578D01*
X347744Y109160D01*
Y109791D01*
X347502Y110374D01*
X347056Y110820D01*
X346473Y111062D01*
D02*
G37*
G36*
X359497Y107586D02*
X358867D01*
X358284Y107344D01*
X357838Y106898D01*
X357596Y106315D01*
Y105685D01*
X357838Y105102D01*
X358284Y104656D01*
X358867Y104414D01*
X359497D01*
X360080Y104656D01*
X360526Y105102D01*
X360768Y105685D01*
Y106315D01*
X360526Y106898D01*
X360080Y107344D01*
X359497Y107586D01*
D02*
G37*
G36*
X350297D02*
X349667D01*
X349084Y107344D01*
X348638Y106898D01*
X348396Y106315D01*
Y105685D01*
X348638Y105102D01*
X349084Y104656D01*
X349667Y104414D01*
X350297D01*
X350880Y104656D01*
X351326Y105102D01*
X351568Y105685D01*
Y106315D01*
X351326Y106898D01*
X350880Y107344D01*
X350297Y107586D01*
D02*
G37*
G36*
X289315D02*
X288685D01*
X288102Y107344D01*
X287656Y106898D01*
X287414Y106315D01*
Y105685D01*
X287656Y105102D01*
X288102Y104656D01*
X288685Y104414D01*
X289315D01*
X289898Y104656D01*
X290344Y105102D01*
X290586Y105685D01*
Y106315D01*
X290344Y106898D01*
X289898Y107344D01*
X289315Y107586D01*
D02*
G37*
G36*
X321815Y106586D02*
X321185D01*
X320602Y106344D01*
X320156Y105898D01*
X319914Y105315D01*
Y104685D01*
X320156Y104102D01*
X320602Y103656D01*
X321185Y103414D01*
X321815D01*
X322398Y103656D01*
X322844Y104102D01*
X323086Y104685D01*
Y105315D01*
X322844Y105898D01*
X322398Y106344D01*
X321815Y106586D01*
D02*
G37*
G36*
X332315Y103456D02*
X331685D01*
X331102Y103215D01*
X330656Y102768D01*
X330414Y102186D01*
Y101555D01*
X330656Y100972D01*
X331102Y100526D01*
X331685Y100284D01*
X332315D01*
X332898Y100526D01*
X333344Y100972D01*
X333586Y101555D01*
Y102186D01*
X333344Y102768D01*
X332898Y103215D01*
X332315Y103456D01*
D02*
G37*
G36*
X342315Y102684D02*
X341685D01*
X341102Y102443D01*
X340656Y101997D01*
X340414Y101414D01*
Y100783D01*
X340656Y100200D01*
X341102Y99754D01*
X341685Y99513D01*
X342315D01*
X342898Y99754D01*
X343344Y100200D01*
X343586Y100783D01*
Y101414D01*
X343344Y101997D01*
X342898Y102443D01*
X342315Y102684D01*
D02*
G37*
G36*
X262257Y100456D02*
X261626D01*
X261043Y100215D01*
X260597Y99768D01*
X260441Y99392D01*
X259900D01*
X259744Y99768D01*
X259298Y100215D01*
X258715Y100456D01*
X258084D01*
X257501Y100215D01*
X257055Y99768D01*
X256814Y99186D01*
Y98555D01*
X257055Y97972D01*
X257501Y97526D01*
X258084Y97284D01*
X258715D01*
X259298Y97526D01*
X259744Y97972D01*
X259900Y98348D01*
X260441D01*
X260597Y97972D01*
X261043Y97526D01*
X261626Y97284D01*
X262257D01*
X262840Y97526D01*
X263286Y97972D01*
X263527Y98555D01*
Y99186D01*
X263286Y99768D01*
X262840Y100215D01*
X262257Y100456D01*
D02*
G37*
G36*
X266015D02*
X265385D01*
X264802Y100215D01*
X264356Y99768D01*
X264114Y99186D01*
Y98555D01*
X264356Y97972D01*
X264802Y97526D01*
X265385Y97284D01*
X266015D01*
X266598Y97526D01*
X267044Y97972D01*
X267286Y98555D01*
Y99186D01*
X267044Y99768D01*
X266598Y100215D01*
X266015Y100456D01*
D02*
G37*
G36*
X296498Y100263D02*
X295867D01*
X295284Y100022D01*
X294838Y99576D01*
X294597Y98993D01*
Y98362D01*
X294838Y97779D01*
X295284Y97333D01*
X295867Y97091D01*
X296498D01*
X297081Y97333D01*
X297527Y97779D01*
X297768Y98362D01*
Y98993D01*
X297527Y99576D01*
X297081Y100022D01*
X296498Y100263D01*
D02*
G37*
G36*
X289315D02*
X288685D01*
X288102Y100022D01*
X287656Y99576D01*
X287414Y98993D01*
Y98362D01*
X287656Y97779D01*
X288102Y97333D01*
X288685Y97091D01*
X289315D01*
X289898Y97333D01*
X290344Y97779D01*
X290586Y98362D01*
Y98993D01*
X290344Y99576D01*
X289898Y100022D01*
X289315Y100263D01*
D02*
G37*
G36*
X262257Y93835D02*
X261626D01*
X261043Y93593D01*
X260597Y93147D01*
X260441Y92771D01*
X259900D01*
X259744Y93147D01*
X259298Y93593D01*
X258715Y93835D01*
X258084D01*
X257501Y93593D01*
X257055Y93147D01*
X256814Y92564D01*
Y91933D01*
X257055Y91350D01*
X257501Y90904D01*
X258084Y90663D01*
X258715D01*
X259298Y90904D01*
X259744Y91350D01*
X259900Y91727D01*
X260441D01*
X260597Y91350D01*
X261043Y90904D01*
X261626Y90663D01*
X262257D01*
X262840Y90904D01*
X263286Y91350D01*
X263527Y91933D01*
Y92564D01*
X263286Y93147D01*
X262840Y93593D01*
X262257Y93835D01*
D02*
G37*
G36*
X266015D02*
X265385D01*
X264802Y93593D01*
X264356Y93147D01*
X264114Y92564D01*
Y91933D01*
X264356Y91350D01*
X264802Y90904D01*
X265385Y90663D01*
X266015D01*
X266598Y90904D01*
X267044Y91350D01*
X267286Y91933D01*
Y92564D01*
X267044Y93147D01*
X266598Y93593D01*
X266015Y93835D01*
D02*
G37*
G36*
X247970Y90586D02*
X247339D01*
X246756Y90344D01*
X246310Y89898D01*
X246068Y89315D01*
Y88685D01*
X246310Y88102D01*
X246756Y87656D01*
X247339Y87414D01*
X247970D01*
X248552Y87656D01*
X248998Y88102D01*
X249240Y88685D01*
Y89315D01*
X248998Y89898D01*
X248552Y90344D01*
X247970Y90586D01*
D02*
G37*
G36*
X323315Y90086D02*
X322685D01*
X322102Y89844D01*
X321656Y89398D01*
X321414Y88815D01*
Y88185D01*
X321656Y87602D01*
X322102Y87156D01*
X322685Y86914D01*
X323315D01*
X323898Y87156D01*
X324344Y87602D01*
X324586Y88185D01*
Y88815D01*
X324344Y89398D01*
X323898Y89844D01*
X323315Y90086D01*
D02*
G37*
G36*
X296498D02*
X295867D01*
X295284Y89844D01*
X294838Y89398D01*
X294597Y88815D01*
Y88185D01*
X294838Y87602D01*
X295284Y87156D01*
X295867Y86914D01*
X296498D01*
X297081Y87156D01*
X297527Y87602D01*
X297768Y88185D01*
Y88815D01*
X297527Y89398D01*
X297081Y89844D01*
X296498Y90086D01*
D02*
G37*
G36*
X230815Y88457D02*
X230185D01*
X229602Y88216D01*
X229156Y87770D01*
X228914Y87187D01*
Y86556D01*
X229156Y85973D01*
X229602Y85527D01*
X230185Y85285D01*
X230815D01*
X231398Y85527D01*
X231844Y85973D01*
X232086Y86556D01*
Y87187D01*
X231844Y87770D01*
X231398Y88216D01*
X230815Y88457D01*
D02*
G37*
G36*
X218258D02*
X217627D01*
X217044Y88216D01*
X216598Y87770D01*
X216357Y87187D01*
Y86556D01*
X216598Y85973D01*
X217044Y85527D01*
X217627Y85285D01*
X218258D01*
X218841Y85527D01*
X219287Y85973D01*
X219528Y86556D01*
Y87187D01*
X219287Y87770D01*
X218841Y88216D01*
X218258Y88457D01*
D02*
G37*
G36*
X71305Y88218D02*
X70675D01*
X70092Y87976D01*
X69646Y87530D01*
X69404Y86948D01*
Y86317D01*
X69646Y85734D01*
X70092Y85288D01*
X70675Y85046D01*
X71305D01*
X71888Y85288D01*
X72334Y85734D01*
X72576Y86317D01*
Y86948D01*
X72334Y87530D01*
X71888Y87976D01*
X71305Y88218D01*
D02*
G37*
G36*
X339497Y84538D02*
X338866D01*
X338284Y84296D01*
X337838Y83850D01*
X337596Y83267D01*
Y82636D01*
X337838Y82054D01*
X338284Y81608D01*
X338866Y81366D01*
X339497D01*
X340080Y81608D01*
X340526Y82054D01*
X340768Y82636D01*
Y83267D01*
X340526Y83850D01*
X340080Y84296D01*
X339497Y84538D01*
D02*
G37*
G36*
X60348Y84194D02*
X59717D01*
X59134Y83953D01*
X58688Y83507D01*
X58447Y82924D01*
Y82293D01*
X58688Y81710D01*
X59134Y81264D01*
X59717Y81022D01*
X60348D01*
X60931Y81264D01*
X61377Y81710D01*
X61618Y82293D01*
Y82924D01*
X61377Y83507D01*
X60931Y83953D01*
X60348Y84194D01*
D02*
G37*
G36*
X49511D02*
X48880D01*
X48297Y83953D01*
X47851Y83507D01*
X47610Y82924D01*
Y82293D01*
X47851Y81710D01*
X48297Y81264D01*
X48880Y81022D01*
X49511D01*
X50094Y81264D01*
X50540Y81710D01*
X50781Y82293D01*
Y82924D01*
X50540Y83507D01*
X50094Y83953D01*
X49511Y84194D01*
D02*
G37*
G36*
X214315Y80060D02*
X213685D01*
X213102Y79819D01*
X212656Y79373D01*
X212414Y78790D01*
Y78159D01*
X212656Y77576D01*
X213102Y77130D01*
X213685Y76889D01*
X214315D01*
X214898Y77130D01*
X215344Y77576D01*
X215586Y78159D01*
Y78790D01*
X215344Y79373D01*
X214898Y79819D01*
X214315Y80060D01*
D02*
G37*
G36*
X248815Y77086D02*
X248185D01*
X247602Y76844D01*
X247156Y76398D01*
X246914Y75815D01*
Y75185D01*
X247156Y74602D01*
X247602Y74156D01*
X248185Y73914D01*
X248815D01*
X249398Y74156D01*
X249844Y74602D01*
X250086Y75185D01*
Y75815D01*
X249844Y76398D01*
X249398Y76844D01*
X248815Y77086D01*
D02*
G37*
G36*
X46511Y75926D02*
X45880D01*
X45297Y75685D01*
X44851Y75239D01*
X44610Y74656D01*
Y74025D01*
X44851Y73442D01*
X45297Y72996D01*
X45880Y72755D01*
X46511D01*
X47094Y72996D01*
X47540Y73442D01*
X47781Y74025D01*
Y74656D01*
X47540Y75239D01*
X47094Y75685D01*
X46511Y75926D01*
D02*
G37*
G36*
X39474D02*
X38843D01*
X38260Y75685D01*
X37814Y75239D01*
X37573Y74656D01*
Y74025D01*
X37814Y73442D01*
X38260Y72996D01*
X38843Y72755D01*
X39474D01*
X40057Y72996D01*
X40503Y73442D01*
X40744Y74025D01*
Y74656D01*
X40503Y75239D01*
X40057Y75685D01*
X39474Y75926D01*
D02*
G37*
G36*
X32374D02*
X31743D01*
X31160Y75685D01*
X30714Y75239D01*
X30473Y74656D01*
Y74025D01*
X30714Y73442D01*
X31160Y72996D01*
X31743Y72755D01*
X32374D01*
X32957Y72996D01*
X33403Y73442D01*
X33644Y74025D01*
Y74656D01*
X33403Y75239D01*
X32957Y75685D01*
X32374Y75926D01*
D02*
G37*
G36*
X352237Y71165D02*
X351606D01*
X351023Y70923D01*
X350577Y70477D01*
X350335Y69894D01*
Y69263D01*
X350577Y68680D01*
X351023Y68234D01*
X351606Y67993D01*
X352237D01*
X352820Y68234D01*
X353266Y68680D01*
X353507Y69263D01*
Y69894D01*
X353266Y70477D01*
X352820Y70923D01*
X352237Y71165D01*
D02*
G37*
G36*
X338253D02*
X337622D01*
X337040Y70923D01*
X336594Y70477D01*
X336352Y69894D01*
Y69263D01*
X336594Y68680D01*
X337040Y68234D01*
X337622Y67993D01*
X338253D01*
X338836Y68234D01*
X339282Y68680D01*
X339524Y69263D01*
Y69894D01*
X339282Y70477D01*
X338836Y70923D01*
X338253Y71165D01*
D02*
G37*
G36*
X324655Y71086D02*
X324024D01*
X323441Y70844D01*
X322995Y70398D01*
X322754Y69815D01*
Y69185D01*
X322995Y68602D01*
X323441Y68156D01*
X324024Y67914D01*
X324655D01*
X325238Y68156D01*
X325684Y68602D01*
X325925Y69185D01*
Y69815D01*
X325684Y70398D01*
X325238Y70844D01*
X324655Y71086D01*
D02*
G37*
G36*
X58815Y66586D02*
X58185D01*
X57602Y66344D01*
X57156Y65898D01*
X56914Y65315D01*
Y64685D01*
X57156Y64102D01*
X57602Y63656D01*
X58185Y63414D01*
X58815D01*
X59398Y63656D01*
X59844Y64102D01*
X60086Y64685D01*
Y65315D01*
X59844Y65898D01*
X59398Y66344D01*
X58815Y66586D01*
D02*
G37*
G36*
X346297Y64586D02*
X345667D01*
X345084Y64344D01*
X344638Y63898D01*
X344396Y63315D01*
Y62685D01*
X344638Y62102D01*
X345084Y61656D01*
X345667Y61414D01*
X346297D01*
X346880Y61656D01*
X347326Y62102D01*
X347568Y62685D01*
Y63315D01*
X347326Y63898D01*
X346880Y64344D01*
X346297Y64586D01*
D02*
G37*
G36*
X245226D02*
X244595D01*
X244012Y64344D01*
X243566Y63898D01*
X243324Y63315D01*
Y62685D01*
X243566Y62102D01*
X244012Y61656D01*
X244595Y61414D01*
X245226D01*
X245809Y61656D01*
X246255Y62102D01*
X246496Y62685D01*
Y63315D01*
X246255Y63898D01*
X245809Y64344D01*
X245226Y64586D01*
D02*
G37*
G36*
X54948Y63086D02*
X54317D01*
X53734Y62844D01*
X53288Y62398D01*
X53047Y61815D01*
Y61185D01*
X53288Y60602D01*
X53734Y60156D01*
X54317Y59914D01*
X54948D01*
X55531Y60156D01*
X55977Y60602D01*
X56218Y61185D01*
Y61815D01*
X55977Y62398D01*
X55531Y62844D01*
X54948Y63086D01*
D02*
G37*
G36*
X279315Y62086D02*
X278685D01*
X278102Y61844D01*
X277656Y61398D01*
X277414Y60815D01*
Y60185D01*
X277656Y59602D01*
X278102Y59156D01*
X278685Y58914D01*
X279315D01*
X279898Y59156D01*
X280344Y59602D01*
X280586Y60185D01*
Y60815D01*
X280344Y61398D01*
X279898Y61844D01*
X279315Y62086D01*
D02*
G37*
G36*
X339497Y60046D02*
X338866D01*
X338284Y59805D01*
X337838Y59359D01*
X337596Y58776D01*
Y58145D01*
X337838Y57562D01*
X338284Y57116D01*
X338866Y56875D01*
X339497D01*
X340080Y57116D01*
X340526Y57562D01*
X340768Y58145D01*
Y58776D01*
X340526Y59359D01*
X340080Y59805D01*
X339497Y60046D01*
D02*
G37*
G36*
X334104D02*
X333473D01*
X332890Y59805D01*
X332444Y59359D01*
X332202Y58776D01*
Y58145D01*
X332444Y57562D01*
X332890Y57116D01*
X333473Y56875D01*
X334104D01*
X334686Y57116D01*
X335133Y57562D01*
X335374Y58145D01*
Y58776D01*
X335133Y59359D01*
X334686Y59805D01*
X334104Y60046D01*
D02*
G37*
G36*
X328592D02*
X327961D01*
X327378Y59805D01*
X326932Y59359D01*
X326691Y58776D01*
Y58145D01*
X326932Y57562D01*
X327378Y57116D01*
X327961Y56875D01*
X328592D01*
X329175Y57116D01*
X329621Y57562D01*
X329862Y58145D01*
Y58776D01*
X329621Y59359D01*
X329175Y59805D01*
X328592Y60046D01*
D02*
G37*
G36*
X314497Y59086D02*
X313866D01*
X313284Y58844D01*
X312838Y58398D01*
X312596Y57815D01*
Y57185D01*
X312838Y56602D01*
X313284Y56156D01*
X313866Y55914D01*
X314497D01*
X315080Y56156D01*
X315526Y56602D01*
X315768Y57185D01*
Y57815D01*
X315526Y58398D01*
X315080Y58844D01*
X314497Y59086D01*
D02*
G37*
G36*
X343552Y56109D02*
X342922D01*
X342339Y55868D01*
X341893Y55422D01*
X341651Y54839D01*
Y54208D01*
X341893Y53625D01*
X342339Y53179D01*
X342922Y52938D01*
X343552D01*
X344135Y53179D01*
X344581Y53625D01*
X344823Y54208D01*
Y54839D01*
X344581Y55422D01*
X344135Y55868D01*
X343552Y56109D01*
D02*
G37*
G36*
X324655D02*
X324024D01*
X323441Y55868D01*
X322995Y55422D01*
X322754Y54839D01*
Y54208D01*
X322995Y53625D01*
X323441Y53179D01*
X324024Y52938D01*
X324655D01*
X325238Y53179D01*
X325684Y53625D01*
X325925Y54208D01*
Y54839D01*
X325684Y55422D01*
X325238Y55868D01*
X324655Y56109D01*
D02*
G37*
G36*
X20385Y59774D02*
X11111D01*
Y50500D01*
X20385D01*
Y59774D01*
D02*
G37*
G36*
X336860Y53354D02*
X336229D01*
X335646Y53112D01*
X335200Y52666D01*
X334958Y52083D01*
Y51452D01*
X335200Y50870D01*
X335646Y50423D01*
X336229Y50182D01*
X336860D01*
X337442Y50423D01*
X337889Y50870D01*
X338130Y51452D01*
Y52083D01*
X337889Y52666D01*
X337442Y53112D01*
X336860Y53354D01*
D02*
G37*
G36*
X331348D02*
X330717D01*
X330134Y53112D01*
X329688Y52666D01*
X329447Y52083D01*
Y51452D01*
X329688Y50870D01*
X330134Y50423D01*
X330717Y50182D01*
X331348D01*
X331931Y50423D01*
X332377Y50870D01*
X332618Y51452D01*
Y52083D01*
X332377Y52666D01*
X331931Y53112D01*
X331348Y53354D01*
D02*
G37*
G36*
X319497D02*
X318866D01*
X318284Y53112D01*
X317838Y52666D01*
X317596Y52083D01*
Y51452D01*
X317838Y50870D01*
X318284Y50423D01*
X318866Y50182D01*
X319497D01*
X320080Y50423D01*
X320526Y50870D01*
X320768Y51452D01*
Y52083D01*
X320526Y52666D01*
X320080Y53112D01*
X319497Y53354D01*
D02*
G37*
G36*
X281315Y107818D02*
X280685D01*
X280102Y107577D01*
X279656Y107131D01*
X279414Y106548D01*
Y105917D01*
X279656Y105334D01*
X279675Y105315D01*
Y99787D01*
X279656Y99768D01*
X279414Y99186D01*
Y98555D01*
X279656Y97972D01*
X279675Y97953D01*
Y92189D01*
X279656Y92170D01*
X279414Y91587D01*
Y91560D01*
X276063Y88209D01*
X275775Y87779D01*
X275675Y87272D01*
Y68417D01*
X275656Y68398D01*
X275414Y67815D01*
Y67185D01*
X275656Y66602D01*
X275675Y66583D01*
Y66549D01*
X258951Y49826D01*
X240917D01*
X240898Y49844D01*
X240315Y50086D01*
X239685D01*
X239102Y49844D01*
X238656Y49398D01*
X238414Y48815D01*
Y48185D01*
X238656Y47602D01*
X238674Y47583D01*
Y45417D01*
X238656Y45398D01*
X238414Y44815D01*
Y44185D01*
X238656Y43602D01*
X239102Y43156D01*
X239685Y42914D01*
X240315D01*
X240898Y43156D01*
X241344Y43602D01*
X241586Y44185D01*
Y44815D01*
X241344Y45398D01*
X241325Y45417D01*
Y47175D01*
X259500D01*
X260007Y47275D01*
X260437Y47563D01*
X277937Y65063D01*
X278225Y65493D01*
X278326Y66000D01*
Y66583D01*
X278344Y66602D01*
X278586Y67185D01*
Y67815D01*
X278344Y68398D01*
X278326Y68417D01*
Y86723D01*
X281289Y89686D01*
X281315D01*
X281898Y89927D01*
X282344Y90373D01*
X282586Y90956D01*
Y91587D01*
X282344Y92170D01*
X282326Y92189D01*
Y97953D01*
X282344Y97972D01*
X282586Y98555D01*
Y99186D01*
X282344Y99768D01*
X282326Y99787D01*
Y105315D01*
X282344Y105334D01*
X282586Y105917D01*
Y106548D01*
X282344Y107131D01*
X281898Y107577D01*
X281315Y107818D01*
D02*
G37*
G36*
X343552Y50598D02*
X342922D01*
X342339Y50356D01*
X341893Y49910D01*
X341651Y49327D01*
Y48696D01*
X341893Y48114D01*
X342339Y47668D01*
X342922Y47426D01*
X343552D01*
X344135Y47668D01*
X344581Y48114D01*
X344823Y48696D01*
Y49327D01*
X344581Y49910D01*
X344135Y50356D01*
X343552Y50598D01*
D02*
G37*
G36*
X324655D02*
X324024D01*
X323441Y50356D01*
X322995Y49910D01*
X322754Y49327D01*
Y48696D01*
X322995Y48114D01*
X323441Y47668D01*
X324024Y47426D01*
X324655D01*
X325238Y47668D01*
X325684Y48114D01*
X325925Y48696D01*
Y49327D01*
X325684Y49910D01*
X325238Y50356D01*
X324655Y50598D01*
D02*
G37*
G36*
X214031Y47970D02*
X213400D01*
X212818Y47729D01*
X212371Y47283D01*
X212130Y46700D01*
Y46069D01*
X212371Y45486D01*
X212818Y45040D01*
X213400Y44798D01*
X214031D01*
X214614Y45040D01*
X215060Y45486D01*
X215302Y46069D01*
Y46700D01*
X215060Y47283D01*
X214614Y47729D01*
X214031Y47970D01*
D02*
G37*
G36*
X336860Y47842D02*
X336229D01*
X335646Y47600D01*
X335200Y47154D01*
X334958Y46571D01*
Y45941D01*
X335200Y45358D01*
X335646Y44912D01*
X336229Y44670D01*
X336860D01*
X337442Y44912D01*
X337889Y45358D01*
X338130Y45941D01*
Y46571D01*
X337889Y47154D01*
X337442Y47600D01*
X336860Y47842D01*
D02*
G37*
G36*
X331348D02*
X330717D01*
X330134Y47600D01*
X329688Y47154D01*
X329447Y46571D01*
Y45941D01*
X329688Y45358D01*
X330134Y44912D01*
X330717Y44670D01*
X331348D01*
X331931Y44912D01*
X332377Y45358D01*
X332618Y45941D01*
Y46571D01*
X332377Y47154D01*
X331931Y47600D01*
X331348Y47842D01*
D02*
G37*
G36*
X343552Y45086D02*
X342922D01*
X342339Y44844D01*
X341893Y44398D01*
X341651Y43815D01*
Y43185D01*
X341893Y42602D01*
X342339Y42156D01*
X342922Y41914D01*
X343552D01*
X344135Y42156D01*
X344581Y42602D01*
X344823Y43185D01*
Y43815D01*
X344581Y44398D01*
X344135Y44844D01*
X343552Y45086D01*
D02*
G37*
G36*
X324655D02*
X324024D01*
X323441Y44844D01*
X322995Y44398D01*
X322754Y43815D01*
Y43185D01*
X322995Y42602D01*
X323441Y42156D01*
X324024Y41914D01*
X324655D01*
X325238Y42156D01*
X325684Y42602D01*
X325925Y43185D01*
Y43815D01*
X325684Y44398D01*
X325238Y44844D01*
X324655Y45086D01*
D02*
G37*
G36*
X61907Y47550D02*
X60893D01*
X59914Y47287D01*
X59036Y46780D01*
X58320Y46064D01*
X57813Y45186D01*
X57551Y44207D01*
Y43193D01*
X57813Y42214D01*
X58320Y41336D01*
X59036Y40620D01*
X59914Y40113D01*
X60893Y39851D01*
X61907D01*
X62886Y40113D01*
X63764Y40620D01*
X64481Y41336D01*
X64987Y42214D01*
X65250Y43193D01*
Y44207D01*
X64987Y45186D01*
X64481Y46064D01*
X63764Y46780D01*
X62886Y47287D01*
X61907Y47550D01*
D02*
G37*
G36*
X51907D02*
X50893D01*
X49914Y47287D01*
X49036Y46780D01*
X48320Y46064D01*
X47813Y45186D01*
X47550Y44207D01*
Y43193D01*
X47813Y42214D01*
X48320Y41336D01*
X49036Y40620D01*
X49914Y40113D01*
X50893Y39851D01*
X51907D01*
X52886Y40113D01*
X53764Y40620D01*
X54480Y41336D01*
X54987Y42214D01*
X55250Y43193D01*
Y44207D01*
X54987Y45186D01*
X54480Y46064D01*
X53764Y46780D01*
X52886Y47287D01*
X51907Y47550D01*
D02*
G37*
G36*
X45250D02*
X37551D01*
Y39851D01*
X45250D01*
Y47550D01*
D02*
G37*
G36*
X356815Y41149D02*
X356185D01*
X355602Y40907D01*
X355156Y40461D01*
X354914Y39878D01*
Y39248D01*
X355156Y38665D01*
X355602Y38219D01*
X356185Y37977D01*
X356815D01*
X357398Y38219D01*
X357844Y38665D01*
X358086Y39248D01*
Y39878D01*
X357844Y40461D01*
X357398Y40907D01*
X356815Y41149D01*
D02*
G37*
G36*
X339616D02*
X338985D01*
X338402Y40907D01*
X337956Y40461D01*
X337714Y39878D01*
Y39248D01*
X337956Y38665D01*
X338402Y38219D01*
X338985Y37977D01*
X339616D01*
X340198Y38219D01*
X340644Y38665D01*
X340886Y39248D01*
Y39878D01*
X340644Y40461D01*
X340198Y40907D01*
X339616Y41149D01*
D02*
G37*
G36*
X334104D02*
X333473D01*
X332890Y40907D01*
X332444Y40461D01*
X332202Y39878D01*
Y39248D01*
X332444Y38665D01*
X332890Y38219D01*
X333473Y37977D01*
X334104D01*
X334686Y38219D01*
X335133Y38665D01*
X335374Y39248D01*
Y39878D01*
X335133Y40461D01*
X334686Y40907D01*
X334104Y41149D01*
D02*
G37*
G36*
X328592D02*
X327961D01*
X327378Y40907D01*
X326932Y40461D01*
X326691Y39878D01*
Y39248D01*
X326932Y38665D01*
X327378Y38219D01*
X327961Y37977D01*
X328592D01*
X329175Y38219D01*
X329621Y38665D01*
X329862Y39248D01*
Y39878D01*
X329621Y40461D01*
X329175Y40907D01*
X328592Y41149D01*
D02*
G37*
G36*
X247318Y39086D02*
X246688D01*
X246105Y38844D01*
X245659Y38398D01*
X245417Y37815D01*
Y37185D01*
X245659Y36602D01*
X246105Y36156D01*
X246688Y35914D01*
X247318D01*
X247901Y36156D01*
X248347Y36602D01*
X248589Y37185D01*
Y37815D01*
X248347Y38398D01*
X247901Y38844D01*
X247318Y39086D01*
D02*
G37*
G36*
X240300D02*
X239669D01*
X239086Y38844D01*
X238640Y38398D01*
X238398Y37815D01*
Y37185D01*
X238640Y36602D01*
X239086Y36156D01*
X239669Y35914D01*
X240300D01*
X240882Y36156D01*
X241329Y36602D01*
X241570Y37185D01*
Y37815D01*
X241329Y38398D01*
X240882Y38844D01*
X240300Y39086D01*
D02*
G37*
G36*
X214315D02*
X213685D01*
X213102Y38844D01*
X212656Y38398D01*
X212414Y37815D01*
Y37185D01*
X212656Y36602D01*
X213102Y36156D01*
X213685Y35914D01*
X214315D01*
X214898Y36156D01*
X215344Y36602D01*
X215586Y37185D01*
Y37815D01*
X215344Y38398D01*
X214898Y38844D01*
X214315Y39086D01*
D02*
G37*
G36*
X16359Y44774D02*
X15138D01*
X13958Y44458D01*
X12901Y43848D01*
X12038Y42984D01*
X11427Y41927D01*
X11111Y40747D01*
Y39527D01*
X11427Y38347D01*
X12038Y37290D01*
X12901Y36426D01*
X13958Y35816D01*
X15138Y35500D01*
X16359D01*
X17538Y35816D01*
X18595Y36426D01*
X19459Y37290D01*
X20069Y38347D01*
X20385Y39527D01*
Y40747D01*
X20069Y41927D01*
X19459Y42984D01*
X18595Y43848D01*
X17538Y44458D01*
X16359Y44774D01*
D02*
G37*
G36*
X216832Y33886D02*
X216201D01*
X215618Y33644D01*
X215172Y33198D01*
X214931Y32616D01*
Y31985D01*
X215172Y31402D01*
X215618Y30956D01*
X216201Y30714D01*
X216832D01*
X217415Y30956D01*
X217861Y31402D01*
X218102Y31985D01*
Y32616D01*
X217861Y33198D01*
X217415Y33644D01*
X216832Y33886D01*
D02*
G37*
G36*
X339497Y32192D02*
X338866D01*
X338284Y31951D01*
X337838Y31505D01*
X337596Y30922D01*
Y30291D01*
X337838Y29708D01*
X338284Y29262D01*
X338866Y29021D01*
X339497D01*
X340080Y29262D01*
X340526Y29708D01*
X340768Y30291D01*
Y30922D01*
X340526Y31505D01*
X340080Y31951D01*
X339497Y32192D01*
D02*
G37*
G36*
X224017Y30970D02*
X223386D01*
X222803Y30729D01*
X222357Y30283D01*
X222116Y29700D01*
Y29069D01*
X222357Y28486D01*
X222803Y28040D01*
X223386Y27798D01*
X224017D01*
X224600Y28040D01*
X225046Y28486D01*
X225287Y29069D01*
Y29700D01*
X225046Y30283D01*
X224600Y30729D01*
X224017Y30970D01*
D02*
G37*
G36*
X324576Y27192D02*
X323945D01*
X323362Y26951D01*
X322916Y26505D01*
X322675Y25922D01*
Y25291D01*
X322916Y24708D01*
X323362Y24262D01*
X323945Y24021D01*
X324576D01*
X325159Y24262D01*
X325605Y24708D01*
X325847Y25291D01*
Y25922D01*
X325605Y26505D01*
X325159Y26951D01*
X324576Y27192D01*
D02*
G37*
G36*
X304497D02*
X303867D01*
X303284Y26951D01*
X302838Y26505D01*
X302596Y25922D01*
Y25291D01*
X302838Y24708D01*
X303284Y24262D01*
X303867Y24021D01*
X304497D01*
X305080Y24262D01*
X305526Y24708D01*
X305768Y25291D01*
Y25922D01*
X305526Y26505D01*
X305080Y26951D01*
X304497Y27192D01*
D02*
G37*
G36*
X362815Y25586D02*
X362185D01*
X361602Y25344D01*
X361156Y24898D01*
X360914Y24315D01*
Y23685D01*
X361156Y23102D01*
X361602Y22656D01*
X362185Y22414D01*
X362815D01*
X363398Y22656D01*
X363844Y23102D01*
X364086Y23685D01*
Y24315D01*
X363844Y24898D01*
X363398Y25344D01*
X362815Y25586D01*
D02*
G37*
G36*
X286315Y25086D02*
X285685D01*
X285102Y24844D01*
X284656Y24398D01*
X284414Y23815D01*
Y23185D01*
X284656Y22602D01*
X285102Y22156D01*
X285685Y21914D01*
X286315D01*
X286898Y22156D01*
X287344Y22602D01*
X287586Y23185D01*
Y23815D01*
X287344Y24398D01*
X286898Y24844D01*
X286315Y25086D01*
D02*
G37*
G36*
X248052Y23219D02*
X247304D01*
X246612Y22932D01*
X246083Y22403D01*
X245797Y21712D01*
Y20964D01*
X246083Y20272D01*
X246612Y19743D01*
X247304Y19457D01*
X248052D01*
X248744Y19743D01*
X249273Y20272D01*
X249559Y20964D01*
Y21712D01*
X249273Y22403D01*
X248744Y22932D01*
X248052Y23219D01*
D02*
G37*
G36*
X225296D02*
X224548D01*
X223856Y22932D01*
X223327Y22403D01*
X223041Y21712D01*
Y20964D01*
X223327Y20272D01*
X223856Y19743D01*
X224548Y19457D01*
X225296D01*
X225988Y19743D01*
X226517Y20272D01*
X226803Y20964D01*
Y21712D01*
X226517Y22403D01*
X225988Y22932D01*
X225296Y23219D01*
D02*
G37*
G36*
X349497Y22586D02*
X348867D01*
X348284Y22344D01*
X347838Y21898D01*
X347596Y21315D01*
Y20685D01*
X347838Y20102D01*
X348284Y19656D01*
X348867Y19414D01*
X349497D01*
X350080Y19656D01*
X350526Y20102D01*
X350768Y20685D01*
Y21315D01*
X350526Y21898D01*
X350080Y22344D01*
X349497Y22586D01*
D02*
G37*
G36*
X250315Y30699D02*
X249685D01*
X249102Y30457D01*
X248656Y30011D01*
X248414Y29428D01*
Y28797D01*
X248656Y28214D01*
X249102Y27768D01*
X249685Y27527D01*
X250176D01*
X250461Y27222D01*
X250530Y27075D01*
X250344Y26625D01*
X250239Y25826D01*
Y20708D01*
X250344Y19908D01*
X250653Y19164D01*
X251144Y18524D01*
X251783Y18033D01*
X252528Y17725D01*
X253328Y17619D01*
X254127Y17725D01*
X254872Y18033D01*
X255511Y18524D01*
X256002Y19164D01*
X256311Y19908D01*
X256416Y20708D01*
Y25826D01*
X256311Y26625D01*
X256002Y27370D01*
X255511Y28010D01*
X254872Y28501D01*
X254127Y28809D01*
X253328Y28915D01*
X252528Y28809D01*
X252048Y28610D01*
X251919Y28663D01*
X251586Y28957D01*
Y29428D01*
X251344Y30011D01*
X250898Y30457D01*
X250315Y30699D01*
D02*
G37*
G36*
X219272Y28915D02*
X218473Y28809D01*
X217728Y28501D01*
X217089Y28010D01*
X216598Y27370D01*
X216289Y26625D01*
X216184Y25826D01*
Y20708D01*
X216289Y19908D01*
X216598Y19164D01*
X217089Y18524D01*
X217728Y18033D01*
X218473Y17725D01*
X219272Y17619D01*
X220072Y17725D01*
X220817Y18033D01*
X221456Y18524D01*
X221947Y19164D01*
X222256Y19908D01*
X222361Y20708D01*
Y25826D01*
X222256Y26625D01*
X221947Y27370D01*
X221456Y28010D01*
X220817Y28501D01*
X220072Y28809D01*
X219272Y28915D01*
D02*
G37*
G36*
X332315Y20586D02*
X331685D01*
X331102Y20344D01*
X330656Y19898D01*
X330414Y19315D01*
Y18685D01*
X330656Y18102D01*
X331102Y17656D01*
X331685Y17414D01*
X332315D01*
X332898Y17656D01*
X333344Y18102D01*
X333586Y18685D01*
Y19315D01*
X333344Y19898D01*
X332898Y20344D01*
X332315Y20586D01*
D02*
G37*
G36*
X319497Y19904D02*
X318866D01*
X318284Y19662D01*
X317838Y19216D01*
X317596Y18633D01*
Y18003D01*
X317838Y17420D01*
X318284Y16974D01*
X318866Y16732D01*
X319497D01*
X320080Y16974D01*
X320526Y17420D01*
X320768Y18003D01*
Y18633D01*
X320526Y19216D01*
X320080Y19662D01*
X319497Y19904D01*
D02*
G37*
G36*
X309497D02*
X308867D01*
X308284Y19662D01*
X307838Y19216D01*
X307596Y18633D01*
Y18003D01*
X307838Y17420D01*
X308284Y16974D01*
X308867Y16732D01*
X309497D01*
X310080Y16974D01*
X310526Y17420D01*
X310768Y18003D01*
Y18633D01*
X310526Y19216D01*
X310080Y19662D01*
X309497Y19904D01*
D02*
G37*
G36*
X196389Y18050D02*
X195244D01*
X194138Y17753D01*
X193146Y17181D01*
X193095Y17129D01*
X195817Y14407D01*
X198539Y17129D01*
X198487Y17181D01*
X197495Y17753D01*
X196389Y18050D01*
D02*
G37*
G36*
X186389D02*
X185244D01*
X184138Y17753D01*
X183146Y17181D01*
X183095Y17129D01*
X185817Y14407D01*
X188539Y17129D01*
X188487Y17181D01*
X187496Y17753D01*
X186389Y18050D01*
D02*
G37*
G36*
X176389D02*
X175244D01*
X174138Y17753D01*
X173146Y17181D01*
X173094Y17129D01*
X175817Y14407D01*
X178539Y17129D01*
X178487Y17181D01*
X177496Y17753D01*
X176389Y18050D01*
D02*
G37*
G36*
X109801D02*
X108656D01*
X107550Y17753D01*
X106558Y17181D01*
X106507Y17129D01*
X109229Y14407D01*
X111951Y17129D01*
X111899Y17181D01*
X110907Y17753D01*
X109801Y18050D01*
D02*
G37*
G36*
X99801D02*
X98656D01*
X97550Y17753D01*
X96558Y17181D01*
X96507Y17129D01*
X99229Y14407D01*
X101951Y17129D01*
X101899Y17181D01*
X100908Y17753D01*
X99801Y18050D01*
D02*
G37*
G36*
X89801D02*
X88656D01*
X87550Y17753D01*
X86558Y17181D01*
X86506Y17129D01*
X89229Y14407D01*
X91951Y17129D01*
X91899Y17181D01*
X90908Y17753D01*
X89801Y18050D01*
D02*
G37*
G36*
X61973D02*
X60827D01*
X59721Y17753D01*
X58729Y17181D01*
X58678Y17129D01*
X61400Y14407D01*
X64122Y17129D01*
X64071Y17181D01*
X63079Y17753D01*
X61973Y18050D01*
D02*
G37*
G36*
X51973D02*
X50827D01*
X49721Y17753D01*
X48729Y17181D01*
X48678Y17129D01*
X51400Y14407D01*
X54122Y17129D01*
X54071Y17181D01*
X53079Y17753D01*
X51973Y18050D01*
D02*
G37*
G36*
X41973D02*
X40827D01*
X39721Y17753D01*
X38729Y17181D01*
X38678Y17129D01*
X41400Y14407D01*
X44122Y17129D01*
X44071Y17181D01*
X43079Y17753D01*
X41973Y18050D01*
D02*
G37*
G36*
X304497Y17404D02*
X303867D01*
X303284Y17163D01*
X302838Y16716D01*
X302596Y16134D01*
Y15503D01*
X302838Y14920D01*
X303284Y14474D01*
X303867Y14232D01*
X304497D01*
X305080Y14474D01*
X305526Y14920D01*
X305768Y15503D01*
Y16134D01*
X305526Y16716D01*
X305080Y17163D01*
X304497Y17404D01*
D02*
G37*
G36*
X314497Y15586D02*
X313866D01*
X313284Y15344D01*
X312838Y14898D01*
X312596Y14315D01*
Y13685D01*
X312838Y13102D01*
X313284Y12656D01*
X313866Y12414D01*
X314497D01*
X315080Y12656D01*
X315526Y13102D01*
X315768Y13685D01*
Y14315D01*
X315526Y14898D01*
X315080Y15344D01*
X314497Y15586D01*
D02*
G37*
G36*
X299497D02*
X298867D01*
X298284Y15344D01*
X297838Y14898D01*
X297596Y14315D01*
Y13685D01*
X297838Y13102D01*
X298284Y12656D01*
X298867Y12414D01*
X299497D01*
X300080Y12656D01*
X300526Y13102D01*
X300768Y13685D01*
Y14315D01*
X300526Y14898D01*
X300080Y15344D01*
X299497Y15586D01*
D02*
G37*
G36*
X199246Y16422D02*
X196524Y13700D01*
X199246Y10978D01*
X199297Y11029D01*
X199870Y12021D01*
X200166Y13127D01*
Y14273D01*
X199870Y15379D01*
X199297Y16371D01*
X199246Y16422D01*
D02*
G37*
G36*
X189246D02*
X186524Y13700D01*
X189246Y10978D01*
X189297Y11029D01*
X189870Y12021D01*
X190166Y13127D01*
Y14273D01*
X189870Y15379D01*
X189297Y16371D01*
X189246Y16422D01*
D02*
G37*
G36*
X179246D02*
X176524Y13700D01*
X179246Y10978D01*
X179297Y11029D01*
X179870Y12021D01*
X180166Y13127D01*
Y14273D01*
X179870Y15379D01*
X179297Y16371D01*
X179246Y16422D01*
D02*
G37*
G36*
X112658D02*
X109936Y13700D01*
X112658Y10978D01*
X112709Y11029D01*
X113282Y12021D01*
X113578Y13127D01*
Y14273D01*
X113282Y15379D01*
X112709Y16371D01*
X112658Y16422D01*
D02*
G37*
G36*
X102658D02*
X99936Y13700D01*
X102658Y10978D01*
X102709Y11029D01*
X103282Y12021D01*
X103578Y13127D01*
Y14273D01*
X103282Y15379D01*
X102709Y16371D01*
X102658Y16422D01*
D02*
G37*
G36*
X92658D02*
X89936Y13700D01*
X92658Y10978D01*
X92709Y11029D01*
X93282Y12021D01*
X93578Y13127D01*
Y14273D01*
X93282Y15379D01*
X92709Y16371D01*
X92658Y16422D01*
D02*
G37*
G36*
X64829D02*
X62107Y13700D01*
X64829Y10978D01*
X64881Y11029D01*
X65453Y12021D01*
X65750Y13127D01*
Y14273D01*
X65453Y15379D01*
X64881Y16371D01*
X64829Y16422D01*
D02*
G37*
G36*
X54829D02*
X52107Y13700D01*
X54829Y10978D01*
X54881Y11029D01*
X55453Y12021D01*
X55750Y13127D01*
Y14273D01*
X55453Y15379D01*
X54881Y16371D01*
X54829Y16422D01*
D02*
G37*
G36*
X44829D02*
X42107Y13700D01*
X44829Y10978D01*
X44881Y11029D01*
X45453Y12021D01*
X45750Y13127D01*
Y14273D01*
X45453Y15379D01*
X44881Y16371D01*
X44829Y16422D01*
D02*
G37*
G36*
X192387D02*
X192336Y16371D01*
X191763Y15379D01*
X191467Y14273D01*
Y13127D01*
X191763Y12021D01*
X192336Y11029D01*
X192387Y10978D01*
X195109Y13700D01*
X192387Y16422D01*
D02*
G37*
G36*
X182387D02*
X182336Y16371D01*
X181763Y15379D01*
X181467Y14273D01*
Y13127D01*
X181763Y12021D01*
X182336Y11029D01*
X182387Y10978D01*
X185109Y13700D01*
X182387Y16422D01*
D02*
G37*
G36*
X172387D02*
X172336Y16371D01*
X171763Y15379D01*
X171467Y14273D01*
Y13127D01*
X171763Y12021D01*
X172336Y11029D01*
X172387Y10978D01*
X175110Y13700D01*
X172387Y16422D01*
D02*
G37*
G36*
X105799D02*
X105748Y16371D01*
X105175Y15379D01*
X104879Y14273D01*
Y13127D01*
X105175Y12021D01*
X105748Y11029D01*
X105799Y10978D01*
X108521Y13700D01*
X105799Y16422D01*
D02*
G37*
G36*
X95799D02*
X95748Y16371D01*
X95175Y15379D01*
X94879Y14273D01*
Y13127D01*
X95175Y12021D01*
X95748Y11029D01*
X95799Y10978D01*
X98522Y13700D01*
X95799Y16422D01*
D02*
G37*
G36*
X85799D02*
X85748Y16371D01*
X85175Y15379D01*
X84879Y14273D01*
Y13127D01*
X85175Y12021D01*
X85748Y11029D01*
X85799Y10978D01*
X88521Y13700D01*
X85799Y16422D01*
D02*
G37*
G36*
X57971D02*
X57920Y16371D01*
X57347Y15379D01*
X57051Y14273D01*
Y13127D01*
X57347Y12021D01*
X57920Y11029D01*
X57971Y10978D01*
X60693Y13700D01*
X57971Y16422D01*
D02*
G37*
G36*
X47971D02*
X47919Y16371D01*
X47347Y15379D01*
X47050Y14273D01*
Y13127D01*
X47347Y12021D01*
X47919Y11029D01*
X47971Y10978D01*
X50693Y13700D01*
X47971Y16422D01*
D02*
G37*
G36*
X37971D02*
X37920Y16371D01*
X37347Y15379D01*
X37051Y14273D01*
Y13127D01*
X37347Y12021D01*
X37920Y11029D01*
X37971Y10978D01*
X40693Y13700D01*
X37971Y16422D01*
D02*
G37*
G36*
X195817Y12993D02*
X193095Y10271D01*
X193146Y10220D01*
X194138Y9647D01*
X195244Y9350D01*
X196389D01*
X197495Y9647D01*
X198487Y10220D01*
X198539Y10271D01*
X195817Y12993D01*
D02*
G37*
G36*
X185817D02*
X183095Y10271D01*
X183146Y10220D01*
X184138Y9647D01*
X185244Y9350D01*
X186389D01*
X187496Y9647D01*
X188487Y10220D01*
X188539Y10271D01*
X185817Y12993D01*
D02*
G37*
G36*
X175817D02*
X173094Y10271D01*
X173146Y10220D01*
X174138Y9647D01*
X175244Y9350D01*
X176389D01*
X177496Y9647D01*
X178487Y10220D01*
X178539Y10271D01*
X175817Y12993D01*
D02*
G37*
G36*
X109229D02*
X106507Y10271D01*
X106558Y10220D01*
X107550Y9647D01*
X108656Y9350D01*
X109801D01*
X110907Y9647D01*
X111899Y10220D01*
X111951Y10271D01*
X109229Y12993D01*
D02*
G37*
G36*
X99229D02*
X96507Y10271D01*
X96558Y10220D01*
X97550Y9647D01*
X98656Y9350D01*
X99801D01*
X100908Y9647D01*
X101899Y10220D01*
X101951Y10271D01*
X99229Y12993D01*
D02*
G37*
G36*
X89229D02*
X86506Y10271D01*
X86558Y10220D01*
X87550Y9647D01*
X88656Y9350D01*
X89801D01*
X90908Y9647D01*
X91899Y10220D01*
X91951Y10271D01*
X89229Y12993D01*
D02*
G37*
G36*
X61400D02*
X58678Y10271D01*
X58729Y10220D01*
X59721Y9647D01*
X60827Y9350D01*
X61973D01*
X63079Y9647D01*
X64071Y10220D01*
X64122Y10271D01*
X61400Y12993D01*
D02*
G37*
G36*
X51400D02*
X48678Y10271D01*
X48729Y10220D01*
X49721Y9647D01*
X50827Y9350D01*
X51973D01*
X53079Y9647D01*
X54071Y10220D01*
X54122Y10271D01*
X51400Y12993D01*
D02*
G37*
G36*
X41400D02*
X38678Y10271D01*
X38729Y10220D01*
X39721Y9647D01*
X40827Y9350D01*
X41973D01*
X43079Y9647D01*
X44071Y10220D01*
X44122Y10271D01*
X41400Y12993D01*
D02*
G37*
G36*
X16733Y28259D02*
X14763D01*
X12818Y27951D01*
X10945Y27343D01*
X9191Y26449D01*
X7598Y25291D01*
X6205Y23899D01*
X5048Y22305D01*
X4154Y20551D01*
X3545Y18678D01*
X3237Y16733D01*
Y14763D01*
X3545Y12818D01*
X4154Y10945D01*
X5048Y9191D01*
X6205Y7598D01*
X7598Y6205D01*
X9191Y5048D01*
X10945Y4154D01*
X12818Y3545D01*
X14763Y3237D01*
X16733D01*
X18678Y3545D01*
X20551Y4154D01*
X22305Y5048D01*
X23899Y6205D01*
X25291Y7598D01*
X26449Y9191D01*
X27343Y10945D01*
X27951Y12818D01*
X28259Y14763D01*
Y16733D01*
X27951Y18678D01*
X27343Y20551D01*
X26449Y22305D01*
X25291Y23899D01*
X23899Y25291D01*
X22305Y26449D01*
X20551Y27343D01*
X18678Y27951D01*
X16733Y28259D01*
D02*
G37*
G36*
X273685Y27511D02*
X271715D01*
X269770Y27203D01*
X267898Y26594D01*
X266143Y25700D01*
X264550Y24543D01*
X263157Y23150D01*
X262000Y21557D01*
X261106Y19803D01*
X260497Y17930D01*
X260189Y15985D01*
Y14015D01*
X260497Y12070D01*
X261106Y10198D01*
X262000Y8443D01*
X263157Y6850D01*
X264550Y5457D01*
X266143Y4300D01*
X267898Y3406D01*
X269770Y2797D01*
X271715Y2489D01*
X273685D01*
X275630Y2797D01*
X277503Y3406D01*
X279257Y4300D01*
X280850Y5457D01*
X282243Y6850D01*
X283400Y8443D01*
X284295Y10198D01*
X284903Y12070D01*
X285211Y14015D01*
Y15985D01*
X284903Y17930D01*
X284295Y19803D01*
X283400Y21557D01*
X282243Y23150D01*
X280850Y24543D01*
X279257Y25700D01*
X277503Y26594D01*
X275630Y27203D01*
X273685Y27511D01*
D02*
G37*
%LPD*%
D75*
X277000Y87272D02*
X281000Y91272D01*
X277000Y66000D02*
Y87272D01*
X259500Y48500D02*
X277000Y66000D01*
X240000Y48500D02*
X259500D01*
X281000Y98870D02*
Y106232D01*
Y91272D02*
Y98870D01*
X240000Y44500D02*
Y48500D01*
D77*
X82677Y169291D02*
D03*
X212598D02*
D03*
X147638D02*
D03*
D78*
X67677D02*
D03*
X52677D02*
D03*
X37677D02*
D03*
X15748Y40137D02*
D03*
X197598Y169291D02*
D03*
X182598D02*
D03*
X167598D02*
D03*
X132638D02*
D03*
X117638D02*
D03*
X102638D02*
D03*
D79*
X15748Y55137D02*
D03*
D80*
X219272Y6850D02*
D03*
X253328D02*
D03*
Y23267D02*
D03*
X219272D02*
D03*
D81*
X247678Y21338D02*
D03*
X224922D02*
D03*
D82*
X376200Y152354D02*
D03*
D83*
Y142354D02*
D03*
Y132354D02*
D03*
Y122354D02*
D03*
D84*
X272700Y15000D02*
D03*
X15748Y15748D02*
D03*
X377000Y176700D02*
D03*
X236221Y177165D02*
D03*
X15748D02*
D03*
D85*
X227500Y137000D02*
D03*
Y147000D02*
D03*
Y157000D02*
D03*
X237500Y137000D02*
D03*
Y147000D02*
D03*
X295500Y176000D02*
D03*
X285500D02*
D03*
X275500D02*
D03*
X295500Y186000D02*
D03*
X285500D02*
D03*
X339000Y176000D02*
D03*
X329000D02*
D03*
X319000D02*
D03*
X339000Y186000D02*
D03*
X329000D02*
D03*
X250441Y137000D02*
D03*
Y147000D02*
D03*
Y157000D02*
D03*
X260441Y137000D02*
D03*
Y147000D02*
D03*
D86*
X237500Y157000D02*
D03*
X260441D02*
D03*
D87*
X139500Y31000D02*
D03*
D88*
Y54622D02*
D03*
D89*
X158004Y42811D02*
D03*
D90*
X109229Y13700D02*
D03*
X99229D02*
D03*
X89229D02*
D03*
X109229Y43700D02*
D03*
X99229D02*
D03*
X61400Y13700D02*
D03*
X51400D02*
D03*
X41400D02*
D03*
X61400Y43700D02*
D03*
X51400D02*
D03*
X195817Y13700D02*
D03*
X185817D02*
D03*
X175817D02*
D03*
X195817Y43700D02*
D03*
X185817D02*
D03*
D91*
X89229D02*
D03*
X41400D02*
D03*
X175817D02*
D03*
D92*
X275500Y186000D02*
D03*
X319000D02*
D03*
D93*
X333788Y58461D02*
D03*
X328276D02*
D03*
X324339Y54524D02*
D03*
Y49012D02*
D03*
Y43500D02*
D03*
X328276Y39563D02*
D03*
X333788D02*
D03*
X339300D02*
D03*
X343237Y43500D02*
D03*
Y49012D02*
D03*
Y54524D02*
D03*
X339182Y58461D02*
D03*
X331032Y51768D02*
D03*
Y46256D02*
D03*
X336544D02*
D03*
X336544Y51768D02*
D03*
X277000Y67500D02*
D03*
X258400Y50606D02*
D03*
X327500Y142354D02*
D03*
X323000Y88500D02*
D03*
X296182D02*
D03*
X299000Y167000D02*
D03*
X296182Y98677D02*
D03*
X230500Y86871D02*
D03*
X351921Y69579D02*
D03*
X248500Y75500D02*
D03*
X337938Y69579D02*
D03*
X321500Y153000D02*
D03*
Y105000D02*
D03*
X276500Y133000D02*
D03*
X279000Y60500D02*
D03*
X318000Y158000D02*
D03*
X324261Y25606D02*
D03*
X332000Y19000D02*
D03*
X339182Y158318D02*
D03*
Y30606D02*
D03*
X355000Y160000D02*
D03*
X353209Y187000D02*
D03*
Y172000D02*
D03*
X356500Y39563D02*
D03*
X362500Y24000D02*
D03*
X361568Y164932D02*
D03*
X299182Y161500D02*
D03*
X319182Y18318D02*
D03*
X314182Y14000D02*
D03*
X127005Y74340D02*
D03*
X304182Y122318D02*
D03*
Y25606D02*
D03*
X286000Y129000D02*
D03*
Y23500D02*
D03*
X309182Y147000D02*
D03*
X216516Y32300D02*
D03*
X309182Y18318D02*
D03*
X304182Y15818D02*
D03*
X152400Y88849D02*
D03*
X217943Y86871D02*
D03*
X209576D02*
D03*
X146500Y86632D02*
D03*
X136796D02*
D03*
X70990D02*
D03*
X67058Y81567D02*
D03*
X220000Y91000D02*
D03*
X239984Y37500D02*
D03*
X94229Y70207D02*
D03*
X109229Y67334D02*
D03*
X116968D02*
D03*
X124005D02*
D03*
X133905Y74340D02*
D03*
X9627Y84500D02*
D03*
X64424Y70207D02*
D03*
X79897Y88849D02*
D03*
X146500Y92249D02*
D03*
X70990Y93749D02*
D03*
X289000Y98677D02*
D03*
Y106000D02*
D03*
X258400Y98870D02*
D03*
X261941D02*
D03*
X265700D02*
D03*
Y92249D02*
D03*
X261941D02*
D03*
X258400D02*
D03*
X214000Y78474D02*
D03*
X213716Y46384D02*
D03*
X214000Y37500D02*
D03*
X247003D02*
D03*
X250000Y29113D02*
D03*
X223702Y29384D02*
D03*
X314182Y57500D02*
D03*
X58500Y65000D02*
D03*
X54633Y61500D02*
D03*
X319182Y51768D02*
D03*
X54633Y95729D02*
D03*
Y101635D02*
D03*
X324339Y69500D02*
D03*
X146500Y95729D02*
D03*
Y113858D02*
D03*
X329182Y113858D02*
D03*
X281000Y106232D02*
D03*
X299182Y117000D02*
D03*
X247754Y127065D02*
D03*
X332000Y101870D02*
D03*
X243410Y109509D02*
D03*
X128505Y95729D02*
D03*
Y101635D02*
D03*
X339182Y82952D02*
D03*
X201421Y95729D02*
D03*
Y101635D02*
D03*
X349182Y21000D02*
D03*
X346158Y109476D02*
D03*
X345982Y63000D02*
D03*
X244910D02*
D03*
X299182Y14000D02*
D03*
X233500Y120000D02*
D03*
X247654Y89000D02*
D03*
X377700Y109500D02*
D03*
X368500D02*
D03*
X359182Y106000D02*
D03*
X349982D02*
D03*
X342000Y101098D02*
D03*
X377700Y96799D02*
D03*
X368500D02*
D03*
X359182Y93299D02*
D03*
X349982D02*
D03*
X348000Y135354D02*
D03*
X281000Y91272D02*
D03*
Y98870D02*
D03*
X240000Y44500D02*
D03*
Y48500D02*
D03*
X260500Y28000D02*
D03*
X221000Y56000D02*
D03*
X226210D02*
D03*
X231500D02*
D03*
Y63000D02*
D03*
X226210D02*
D03*
X221000D02*
D03*
X213716Y129741D02*
D03*
X205448Y125565D02*
D03*
X213648Y116420D02*
D03*
X205448D02*
D03*
X198285D02*
D03*
X173185Y125565D02*
D03*
X158400Y125361D02*
D03*
X150900Y125565D02*
D03*
X176185Y116420D02*
D03*
X166946D02*
D03*
X158400D02*
D03*
X150900D02*
D03*
X132662Y125565D02*
D03*
X100399Y125966D02*
D03*
X85897Y125347D02*
D03*
X78397Y125565D02*
D03*
X66990Y129900D02*
D03*
X58790Y125565D02*
D03*
X140930Y116435D02*
D03*
X132662Y116217D02*
D03*
X125499D02*
D03*
X103400Y116420D02*
D03*
X94443Y116435D02*
D03*
X85897D02*
D03*
X78397D02*
D03*
X66990D02*
D03*
X58790D02*
D03*
X51627Y116516D02*
D03*
X27300Y125966D02*
D03*
X20990Y129900D02*
D03*
X12627Y125316D02*
D03*
X4300D02*
D03*
X29527Y116435D02*
D03*
X20990Y116516D02*
D03*
X12627D02*
D03*
X4300Y116435D02*
D03*
X203082Y107232D02*
D03*
X173185Y106800D02*
D03*
X130600Y107800D02*
D03*
X100399Y106800D02*
D03*
X57290D02*
D03*
X25900Y106500D02*
D03*
X178717Y74340D02*
D03*
X185817D02*
D03*
X192854D02*
D03*
X206691Y82608D02*
D03*
X195854D02*
D03*
X123068D02*
D03*
X133905D02*
D03*
X120068Y74340D02*
D03*
X113031D02*
D03*
X105931D02*
D03*
X32059D02*
D03*
X39158D02*
D03*
X46196D02*
D03*
X60032Y82608D02*
D03*
X49196D02*
D03*
M02*
