G04*
G04 #@! TF.GenerationSoftware,Altium Limited,Altium Designer,22.11.1 (43)*
G04*
G04 Layer_Physical_Order=1*
G04 Layer_Color=255*
%FSLAX25Y25*%
%MOIN*%
G70*
G04*
G04 #@! TF.SameCoordinates,EC01C676-AF26-4C78-A894-FF1C61784DD5*
G04*
G04*
G04 #@! TF.FilePolarity,Positive*
G04*
G01*
G75*
%ADD12C,0.01000*%
%ADD13R,0.04488X0.02362*%
%ADD14R,0.04488X0.01181*%
G04:AMPARAMS|DCode=15|XSize=48.42mil|YSize=23.23mil|CornerRadius=5.81mil|HoleSize=0mil|Usage=FLASHONLY|Rotation=0.000|XOffset=0mil|YOffset=0mil|HoleType=Round|Shape=RoundedRectangle|*
%AMROUNDEDRECTD15*
21,1,0.04842,0.01161,0,0,0.0*
21,1,0.03681,0.02323,0,0,0.0*
1,1,0.01161,0.01841,-0.00581*
1,1,0.01161,-0.01841,-0.00581*
1,1,0.01161,-0.01841,0.00581*
1,1,0.01161,0.01841,0.00581*
%
%ADD15ROUNDEDRECTD15*%
%ADD16R,0.08465X0.12598*%
%ADD17R,0.08465X0.03543*%
%ADD18R,0.07480X0.03937*%
G04:AMPARAMS|DCode=19|XSize=35.43mil|YSize=35.43mil|CornerRadius=4.43mil|HoleSize=0mil|Usage=FLASHONLY|Rotation=270.000|XOffset=0mil|YOffset=0mil|HoleType=Round|Shape=RoundedRectangle|*
%AMROUNDEDRECTD19*
21,1,0.03543,0.02657,0,0,270.0*
21,1,0.02657,0.03543,0,0,270.0*
1,1,0.00886,-0.01329,-0.01329*
1,1,0.00886,-0.01329,0.01329*
1,1,0.00886,0.01329,0.01329*
1,1,0.00886,0.01329,-0.01329*
%
%ADD19ROUNDEDRECTD19*%
G04:AMPARAMS|DCode=20|XSize=59.06mil|YSize=35.43mil|CornerRadius=4.43mil|HoleSize=0mil|Usage=FLASHONLY|Rotation=270.000|XOffset=0mil|YOffset=0mil|HoleType=Round|Shape=RoundedRectangle|*
%AMROUNDEDRECTD20*
21,1,0.05906,0.02657,0,0,270.0*
21,1,0.05020,0.03543,0,0,270.0*
1,1,0.00886,-0.01329,-0.02510*
1,1,0.00886,-0.01329,0.02510*
1,1,0.00886,0.01329,0.02510*
1,1,0.00886,0.01329,-0.02510*
%
%ADD20ROUNDEDRECTD20*%
G04:AMPARAMS|DCode=21|XSize=35.43mil|YSize=59.06mil|CornerRadius=4.43mil|HoleSize=0mil|Usage=FLASHONLY|Rotation=270.000|XOffset=0mil|YOffset=0mil|HoleType=Round|Shape=RoundedRectangle|*
%AMROUNDEDRECTD21*
21,1,0.03543,0.05020,0,0,270.0*
21,1,0.02657,0.05906,0,0,270.0*
1,1,0.00886,-0.02510,-0.01329*
1,1,0.00886,-0.02510,0.01329*
1,1,0.00886,0.02510,0.01329*
1,1,0.00886,0.02510,-0.01329*
%
%ADD21ROUNDEDRECTD21*%
G04:AMPARAMS|DCode=23|XSize=10.24mil|YSize=38.19mil|CornerRadius=2.56mil|HoleSize=0mil|Usage=FLASHONLY|Rotation=0.000|XOffset=0mil|YOffset=0mil|HoleType=Round|Shape=RoundedRectangle|*
%AMROUNDEDRECTD23*
21,1,0.01024,0.03307,0,0,0.0*
21,1,0.00512,0.03819,0,0,0.0*
1,1,0.00512,0.00256,-0.01654*
1,1,0.00512,-0.00256,-0.01654*
1,1,0.00512,-0.00256,0.01654*
1,1,0.00512,0.00256,0.01654*
%
%ADD23ROUNDEDRECTD23*%
G04:AMPARAMS|DCode=24|XSize=10.24mil|YSize=38.19mil|CornerRadius=2.56mil|HoleSize=0mil|Usage=FLASHONLY|Rotation=270.000|XOffset=0mil|YOffset=0mil|HoleType=Round|Shape=RoundedRectangle|*
%AMROUNDEDRECTD24*
21,1,0.01024,0.03307,0,0,270.0*
21,1,0.00512,0.03819,0,0,270.0*
1,1,0.00512,-0.01654,-0.00256*
1,1,0.00512,-0.01654,0.00256*
1,1,0.00512,0.01654,0.00256*
1,1,0.00512,0.01654,-0.00256*
%
%ADD24ROUNDEDRECTD24*%
%ADD25R,0.12402X0.12402*%
%ADD26R,0.01181X0.04528*%
%ADD27R,0.04528X0.01181*%
%ADD28R,0.03937X0.06299*%
%ADD29R,0.03543X0.05118*%
%ADD30R,0.01968X0.02362*%
%ADD31R,0.05118X0.03543*%
%ADD32R,0.06299X0.03937*%
%ADD64C,0.00755*%
%ADD65C,0.01200*%
%ADD66C,0.07874*%
%ADD67C,0.02362*%
%ADD68O,0.09843X0.04724*%
%ADD69C,0.06496*%
%ADD70C,0.07087*%
%ADD71R,0.07087X0.07087*%
%ADD72R,0.07874X0.15748*%
%ADD73R,0.08661X0.17323*%
%ADD74R,0.15748X0.07874*%
%ADD75C,0.06299*%
%ADD76R,0.07087X0.07087*%
%ADD77C,0.01772*%
%ADD78C,0.02000*%
G36*
X393701D02*
X0D01*
Y393701D01*
X393701D01*
Y0D01*
D02*
G37*
%LPC*%
G36*
X119197Y382884D02*
X118029D01*
X116901Y382581D01*
X115889Y381997D01*
X115063Y381171D01*
X114479Y380159D01*
X114176Y379031D01*
Y377863D01*
X114479Y376734D01*
X115063Y375723D01*
X115889Y374896D01*
X116901Y374312D01*
X118029Y374010D01*
X119197D01*
X120326Y374312D01*
X121338Y374896D01*
X122164Y375723D01*
X122748Y376734D01*
X123050Y377863D01*
Y379031D01*
X122748Y380159D01*
X122164Y381171D01*
X121338Y381997D01*
X120326Y382581D01*
X119197Y382884D01*
D02*
G37*
G36*
X89197D02*
X88029D01*
X86901Y382581D01*
X85889Y381997D01*
X85063Y381171D01*
X84479Y380159D01*
X84176Y379031D01*
Y377863D01*
X84479Y376734D01*
X85063Y375723D01*
X85889Y374896D01*
X86901Y374312D01*
X88029Y374010D01*
X89197D01*
X90326Y374312D01*
X91338Y374896D01*
X92164Y375723D01*
X92748Y376734D01*
X93050Y377863D01*
Y379031D01*
X92748Y380159D01*
X92164Y381171D01*
X91338Y381997D01*
X90326Y382581D01*
X89197Y382884D01*
D02*
G37*
G36*
X208384Y382837D02*
X207216D01*
X206087Y382535D01*
X205076Y381950D01*
X204250Y381124D01*
X203665Y380113D01*
X203363Y378984D01*
Y377816D01*
X203665Y376687D01*
X204250Y375676D01*
X205076Y374850D01*
X206087Y374265D01*
X207216Y373963D01*
X208384D01*
X209513Y374265D01*
X210524Y374850D01*
X211350Y375676D01*
X211935Y376687D01*
X212237Y377816D01*
Y378984D01*
X211935Y380113D01*
X211350Y381124D01*
X210524Y381950D01*
X209513Y382535D01*
X208384Y382837D01*
D02*
G37*
G36*
X178384D02*
X177216D01*
X176087Y382535D01*
X175076Y381950D01*
X174249Y381124D01*
X173665Y380113D01*
X173363Y378984D01*
Y377816D01*
X173665Y376687D01*
X174249Y375676D01*
X175076Y374850D01*
X176087Y374265D01*
X177216Y373963D01*
X178384D01*
X179513Y374265D01*
X180524Y374850D01*
X181351Y375676D01*
X181935Y376687D01*
X182237Y377816D01*
Y378984D01*
X181935Y380113D01*
X181351Y381124D01*
X180524Y381950D01*
X179513Y382535D01*
X178384Y382837D01*
D02*
G37*
G36*
X301393Y382637D02*
X300224D01*
X299096Y382335D01*
X298084Y381750D01*
X297258Y380924D01*
X296674Y379913D01*
X296372Y378784D01*
Y377616D01*
X296674Y376487D01*
X297258Y375476D01*
X298084Y374650D01*
X299096Y374065D01*
X300224Y373763D01*
X301393D01*
X302521Y374065D01*
X303533Y374650D01*
X304359Y375476D01*
X304943Y376487D01*
X305246Y377616D01*
Y378784D01*
X304943Y379913D01*
X304359Y380924D01*
X303533Y381750D01*
X302521Y382335D01*
X301393Y382637D01*
D02*
G37*
G36*
X271393D02*
X270224D01*
X269096Y382335D01*
X268084Y381750D01*
X267258Y380924D01*
X266674Y379913D01*
X266372Y378784D01*
Y377616D01*
X266674Y376487D01*
X267258Y375476D01*
X268084Y374650D01*
X269096Y374065D01*
X270224Y373763D01*
X271393D01*
X272521Y374065D01*
X273533Y374650D01*
X274359Y375476D01*
X274943Y376487D01*
X275246Y377616D01*
Y378784D01*
X274943Y379913D01*
X274359Y380924D01*
X273533Y381750D01*
X272521Y382335D01*
X271393Y382637D01*
D02*
G37*
G36*
X134197Y382884D02*
X133029D01*
X131901Y382581D01*
X130889Y381997D01*
X130063Y381171D01*
X129479Y380159D01*
X129176Y379031D01*
Y377863D01*
X129479Y376734D01*
X130063Y375723D01*
X130889Y374896D01*
X131901Y374312D01*
X131982Y374290D01*
Y358883D01*
X116450Y343351D01*
X105245Y354556D01*
Y374290D01*
X105326Y374312D01*
X106338Y374896D01*
X107164Y375723D01*
X107748Y376734D01*
X108050Y377863D01*
Y379031D01*
X107748Y380159D01*
X107164Y381171D01*
X106338Y381997D01*
X105326Y382581D01*
X104198Y382884D01*
X103029D01*
X101901Y382581D01*
X100889Y381997D01*
X100063Y381171D01*
X99479Y380159D01*
X99176Y379031D01*
Y377863D01*
X99479Y376734D01*
X100063Y375723D01*
X100889Y374896D01*
X101901Y374312D01*
X101982Y374290D01*
Y353880D01*
X102106Y353256D01*
X102460Y352727D01*
X113769Y341418D01*
Y332727D01*
X113269Y332520D01*
X112313Y333475D01*
X111817Y333807D01*
X111232Y333923D01*
X111184D01*
Y334075D01*
X108216D01*
Y332621D01*
X108171Y332394D01*
X108216Y332167D01*
Y330713D01*
X110750D01*
X110934Y330529D01*
Y328527D01*
X107859D01*
X107469Y328450D01*
X107138Y328229D01*
X106917Y327898D01*
X106840Y327508D01*
Y326192D01*
X102761D01*
Y327508D01*
X102683Y327898D01*
X102462Y328229D01*
X102131Y328450D01*
X101741Y328527D01*
X77251D01*
X76861Y328450D01*
X76530Y328229D01*
X76309Y327898D01*
X76232Y327508D01*
Y319747D01*
X76309Y319357D01*
X76530Y319026D01*
X76861Y318805D01*
X77251Y318727D01*
X101532D01*
Y315144D01*
X101333Y315045D01*
X101032Y314991D01*
X100533Y315489D01*
X99798Y315794D01*
X99002D01*
X98267Y315489D01*
X97704Y314927D01*
X97400Y314192D01*
Y313396D01*
X97704Y312661D01*
X98267Y312098D01*
X99002Y311794D01*
X99093D01*
X99621Y311265D01*
X99525Y310654D01*
X99085Y310214D01*
X98780Y309479D01*
Y308683D01*
X99000Y308153D01*
X98759Y307723D01*
X98298Y307679D01*
X96457Y309520D01*
X96322Y309610D01*
Y311982D01*
X90204D01*
Y307439D01*
X93372D01*
X93453Y307357D01*
X93949Y307026D01*
X94535Y306909D01*
X94742D01*
X95848Y305803D01*
X95799Y305305D01*
X95652Y305207D01*
X94159Y303714D01*
X90204D01*
Y299171D01*
X96322D01*
Y301551D01*
X97366Y302596D01*
X101236D01*
X101428Y302134D01*
X96100Y296806D01*
X95535D01*
Y298336D01*
X90991D01*
Y292217D01*
X95535D01*
Y293747D01*
X96733D01*
X97318Y293864D01*
X97815Y294195D01*
X103726Y300106D01*
X104187Y299915D01*
Y299098D01*
X109404D01*
Y297713D01*
X109081Y297230D01*
X108965Y296645D01*
Y290853D01*
X100113Y282001D01*
X99782Y281505D01*
X99665Y280920D01*
Y279982D01*
X98135D01*
Y275439D01*
X104253D01*
Y279982D01*
X103127D01*
X102920Y280482D01*
X110472Y288034D01*
X110934Y287843D01*
Y287010D01*
X107044Y283121D01*
X106713Y282625D01*
X106597Y282039D01*
Y279982D01*
X105067D01*
Y275439D01*
X106597D01*
Y274875D01*
X106430Y274709D01*
X106126Y273974D01*
Y273179D01*
X106430Y272444D01*
X106993Y271881D01*
X107728Y271576D01*
X108524D01*
X109259Y271881D01*
X109821Y272444D01*
X110126Y273179D01*
Y273974D01*
X109821Y274709D01*
X109655Y274875D01*
Y275439D01*
X111185D01*
Y279982D01*
X109655D01*
Y281406D01*
X113197Y284947D01*
X113697Y284740D01*
Y279982D01*
X112167D01*
Y275439D01*
X113697D01*
Y274875D01*
X113531Y274709D01*
X113226Y273974D01*
Y273179D01*
X113531Y272444D01*
X114093Y271881D01*
X114828Y271576D01*
X115624D01*
X116359Y271881D01*
X116921Y272444D01*
X117226Y273179D01*
Y273974D01*
X116921Y274709D01*
X116755Y274875D01*
Y275439D01*
X118285D01*
Y279982D01*
X116755D01*
Y286580D01*
X116648Y287122D01*
X116670Y287151D01*
X117213Y287264D01*
X120734Y283743D01*
Y279982D01*
X119204D01*
Y275439D01*
X120734D01*
Y274875D01*
X120568Y274709D01*
X120263Y273974D01*
Y273179D01*
X120568Y272444D01*
X121130Y271881D01*
X121865Y271576D01*
X122661D01*
X123396Y271881D01*
X123959Y272444D01*
X124263Y273179D01*
Y273974D01*
X123959Y274709D01*
X123792Y274875D01*
Y275439D01*
X125322D01*
Y279982D01*
X123792D01*
Y284376D01*
X123676Y284962D01*
X123344Y285458D01*
X121010Y287792D01*
X121127Y288382D01*
X121470Y288524D01*
X122032Y289087D01*
X122098Y289244D01*
X122588Y289341D01*
X127671Y284259D01*
Y279982D01*
X126141D01*
Y275439D01*
X132259D01*
Y279982D01*
X130729D01*
Y284235D01*
X131229Y284442D01*
X134141Y281531D01*
Y281296D01*
X134445Y280561D01*
X134524Y280482D01*
X134401Y279982D01*
X133041D01*
Y275439D01*
X139159D01*
Y279982D01*
X137881D01*
X137757Y280482D01*
X137836Y280561D01*
X138141Y281296D01*
Y282092D01*
X137836Y282827D01*
X137274Y283389D01*
X136538Y283694D01*
X136303D01*
X124035Y295963D01*
X123835Y296096D01*
Y296645D01*
X123719Y297230D01*
X123396Y297713D01*
Y299098D01*
X124781D01*
X125195Y298821D01*
X124900Y298111D01*
Y297315D01*
X125205Y296580D01*
X125767Y296017D01*
X126502Y295713D01*
X127298D01*
X127949Y295982D01*
X128449Y295780D01*
Y294092D01*
X128556Y293555D01*
X128860Y293099D01*
X143292Y278667D01*
Y224803D01*
X143399Y224266D01*
X143704Y223810D01*
X172807Y194707D01*
X173263Y194402D01*
X173800Y194296D01*
X302984D01*
X341877Y155403D01*
Y149188D01*
X341585Y149129D01*
X341273Y148921D01*
X341065Y148609D01*
X341037Y148468D01*
X340527D01*
X340499Y148609D01*
X340290Y148921D01*
X339979Y149129D01*
X339686Y149188D01*
Y153966D01*
X339580Y154504D01*
X339275Y154959D01*
X304500Y189734D01*
Y190198D01*
X304195Y190933D01*
X303633Y191496D01*
X302898Y191800D01*
X302102D01*
X301367Y191496D01*
X300804Y190933D01*
X300500Y190198D01*
Y189402D01*
X300804Y188667D01*
X301367Y188104D01*
X302102Y187800D01*
X302462D01*
X336877Y153384D01*
Y149188D01*
X336585Y149129D01*
X336273Y148921D01*
X336065Y148609D01*
X336037Y148468D01*
X335527D01*
X335499Y148609D01*
X335290Y148921D01*
X334979Y149129D01*
X334811Y149163D01*
Y152018D01*
X334695Y152603D01*
X334363Y153100D01*
X323781Y163681D01*
X323285Y164013D01*
X322700Y164129D01*
X225300D01*
X224715Y164013D01*
X224219Y163681D01*
X217410Y156873D01*
X217078Y156377D01*
X216962Y155791D01*
Y151496D01*
X216462Y151361D01*
X215805Y152018D01*
X214883Y152550D01*
X213854Y152826D01*
X212790D01*
X211761Y152550D01*
X210839Y152018D01*
X210087Y151265D01*
X209554Y150343D01*
X209279Y149315D01*
Y148250D01*
X209554Y147222D01*
X209571Y147194D01*
X205806Y143429D01*
X205474Y142933D01*
X205358Y142348D01*
Y115813D01*
X205474Y115227D01*
X205806Y114731D01*
X212419Y108119D01*
X212915Y107787D01*
X213500Y107671D01*
X286467D01*
X306436Y87701D01*
X306932Y87370D01*
X307517Y87253D01*
X314929D01*
X314963Y87086D01*
X315171Y86774D01*
X315483Y86566D01*
X315851Y86493D01*
X320870D01*
X321238Y86566D01*
X321550Y86774D01*
X321759Y87086D01*
X321832Y87454D01*
Y90111D01*
X321759Y90479D01*
X321550Y90791D01*
X321238Y91000D01*
X321097Y91028D01*
Y91538D01*
X321238Y91566D01*
X321550Y91774D01*
X321759Y92086D01*
X321832Y92454D01*
Y95111D01*
X321759Y95479D01*
X321550Y95791D01*
X321238Y96000D01*
X321097Y96028D01*
Y96538D01*
X321238Y96566D01*
X321550Y96774D01*
X321759Y97086D01*
X321832Y97454D01*
Y100111D01*
X321759Y100479D01*
X321550Y100791D01*
X321238Y101000D01*
X321097Y101028D01*
Y101538D01*
X321238Y101566D01*
X321550Y101774D01*
X321759Y102086D01*
X321832Y102454D01*
Y105111D01*
X321759Y105479D01*
X321550Y105791D01*
X321238Y106000D01*
X321097Y106028D01*
Y106538D01*
X321238Y106566D01*
X321550Y106774D01*
X321759Y107086D01*
X321832Y107454D01*
Y110111D01*
X321759Y110479D01*
X321550Y110791D01*
X321238Y111000D01*
X321097Y111028D01*
Y111538D01*
X321238Y111566D01*
X321550Y111774D01*
X321759Y112086D01*
X321832Y112454D01*
Y115111D01*
X321759Y115479D01*
X321550Y115791D01*
X321238Y116000D01*
X321097Y116028D01*
Y116538D01*
X321238Y116566D01*
X321550Y116774D01*
X321759Y117086D01*
X321832Y117454D01*
Y120111D01*
X321759Y120479D01*
X321550Y120791D01*
X321238Y121000D01*
X321097Y121028D01*
Y121538D01*
X321238Y121566D01*
X321550Y121774D01*
X321759Y122086D01*
X321832Y122454D01*
Y125111D01*
X321759Y125479D01*
X321550Y125791D01*
X321238Y126000D01*
X321097Y126028D01*
Y126538D01*
X321238Y126566D01*
X321550Y126774D01*
X321759Y127086D01*
X321832Y127454D01*
Y130111D01*
X321759Y130479D01*
X321550Y130791D01*
X321238Y131000D01*
X320870Y131073D01*
X315851D01*
X315483Y131000D01*
X315171Y130791D01*
X314963Y130479D01*
X314931Y130321D01*
X280150D01*
X279699Y131101D01*
X279001Y131799D01*
X278147Y132293D01*
X277193Y132548D01*
X276207D01*
X275253Y132293D01*
X274399Y131799D01*
X273701Y131101D01*
X273207Y130247D01*
X272952Y129293D01*
Y128307D01*
X273207Y127353D01*
X273701Y126499D01*
X274399Y125801D01*
X275253Y125307D01*
X276207Y125052D01*
X277193D01*
X278147Y125307D01*
X279001Y125801D01*
X279699Y126499D01*
X280140Y127262D01*
X314928D01*
X314963Y127086D01*
X315171Y126774D01*
X315483Y126566D01*
X315624Y126538D01*
Y126028D01*
X315483Y126000D01*
X315171Y125791D01*
X314963Y125479D01*
X314889Y125111D01*
Y122454D01*
X314963Y122086D01*
X315171Y121774D01*
X315483Y121566D01*
X315624Y121538D01*
Y121028D01*
X315483Y121000D01*
X315171Y120791D01*
X314963Y120479D01*
X314889Y120111D01*
Y117454D01*
X314963Y117086D01*
X315171Y116774D01*
X315483Y116566D01*
X315624Y116538D01*
Y116028D01*
X315483Y116000D01*
X315171Y115791D01*
X314963Y115479D01*
X314889Y115111D01*
Y112454D01*
X314963Y112086D01*
X315171Y111774D01*
X315483Y111566D01*
X315624Y111538D01*
Y111028D01*
X315483Y111000D01*
X315171Y110791D01*
X314963Y110479D01*
X314889Y110111D01*
Y107454D01*
X314963Y107086D01*
X315171Y106774D01*
X315483Y106566D01*
X315624Y106538D01*
Y106028D01*
X315483Y106000D01*
X315171Y105791D01*
X314963Y105479D01*
X314889Y105111D01*
Y102454D01*
X314963Y102086D01*
X315171Y101774D01*
X315483Y101566D01*
X315624Y101538D01*
Y101028D01*
X315483Y101000D01*
X315171Y100791D01*
X314963Y100479D01*
X314889Y100111D01*
Y97454D01*
X314963Y97086D01*
X315171Y96774D01*
X315483Y96566D01*
X315624Y96538D01*
Y96028D01*
X315483Y96000D01*
X315171Y95791D01*
X314963Y95479D01*
X314929Y95312D01*
X310937D01*
X308529Y97719D01*
Y109620D01*
X308413Y110205D01*
X308081Y110701D01*
X298901Y119881D01*
X298405Y120213D01*
X297820Y120329D01*
X280145D01*
X279699Y121101D01*
X279001Y121799D01*
X278147Y122293D01*
X277193Y122548D01*
X276207D01*
X275253Y122293D01*
X274399Y121799D01*
X273701Y121101D01*
X273207Y120247D01*
X272952Y119293D01*
Y118307D01*
X273207Y117353D01*
X273701Y116499D01*
X274399Y115801D01*
X275253Y115307D01*
X276207Y115052D01*
X277193D01*
X278147Y115307D01*
X279001Y115801D01*
X279699Y116499D01*
X280145Y117271D01*
X297186D01*
X305471Y108986D01*
Y97086D01*
X305587Y96500D01*
X305919Y96004D01*
X309222Y92701D01*
X309718Y92370D01*
X310303Y92253D01*
X314929D01*
X314963Y92086D01*
X315171Y91774D01*
X315483Y91566D01*
X315624Y91538D01*
Y91028D01*
X315483Y91000D01*
X315171Y90791D01*
X314963Y90479D01*
X314929Y90312D01*
X308151D01*
X288181Y110281D01*
X287685Y110613D01*
X287100Y110729D01*
X214134D01*
X208417Y116446D01*
Y141715D01*
X211733Y145031D01*
X211761Y145015D01*
X212790Y144739D01*
X213854D01*
X214883Y145015D01*
X215805Y145547D01*
X216462Y146204D01*
X216962Y146069D01*
Y143613D01*
X217078Y143028D01*
X217410Y142532D01*
X219570Y140371D01*
X219554Y140343D01*
X219279Y139315D01*
Y138250D01*
X219554Y137222D01*
X220087Y136300D01*
X220839Y135547D01*
X221761Y135015D01*
X222790Y134739D01*
X223854D01*
X224883Y135015D01*
X225805Y135547D01*
X226557Y136300D01*
X227090Y137222D01*
X227365Y138250D01*
Y139315D01*
X227090Y140343D01*
X226557Y141265D01*
X225805Y142018D01*
X224883Y142550D01*
X223854Y142826D01*
X222790D01*
X221761Y142550D01*
X221733Y142534D01*
X220021Y144247D01*
Y145659D01*
X220521Y145866D01*
X220839Y145547D01*
X221761Y145015D01*
X222790Y144739D01*
X223854D01*
X224883Y145015D01*
X225805Y145547D01*
X226557Y146300D01*
X227090Y147222D01*
X227098Y147253D01*
X249295D01*
X249880Y147370D01*
X250376Y147701D01*
X257746Y155071D01*
X280410D01*
X280576Y154904D01*
X281311Y154600D01*
X282106D01*
X282842Y154904D01*
X283404Y155467D01*
X283709Y156202D01*
Y156998D01*
X283404Y157733D01*
X282842Y158296D01*
X282106Y158600D01*
X281311D01*
X280576Y158296D01*
X280410Y158129D01*
X257112D01*
X256527Y158013D01*
X256031Y157681D01*
X248661Y150312D01*
X227098D01*
X227090Y150343D01*
X226557Y151265D01*
X225805Y152018D01*
X224883Y152550D01*
X223854Y152826D01*
X222790D01*
X221761Y152550D01*
X220839Y152018D01*
X220521Y151699D01*
X220021Y151907D01*
Y155158D01*
X225934Y161071D01*
X322066D01*
X331752Y151385D01*
Y149163D01*
X331585Y149129D01*
X331273Y148921D01*
X331065Y148609D01*
X331037Y148468D01*
X330527D01*
X330499Y148609D01*
X330290Y148921D01*
X329978Y149129D01*
X329811Y149163D01*
Y150518D01*
X329695Y151103D01*
X329363Y151600D01*
X325781Y155181D01*
X325285Y155513D01*
X324700Y155629D01*
X302500D01*
X301915Y155513D01*
X301419Y155181D01*
X296567Y150329D01*
X280145D01*
X279699Y151101D01*
X279001Y151799D01*
X278147Y152293D01*
X277193Y152548D01*
X276207D01*
X275253Y152293D01*
X274399Y151799D01*
X273701Y151101D01*
X273207Y150247D01*
X272952Y149293D01*
Y148307D01*
X273207Y147353D01*
X273701Y146499D01*
X274399Y145801D01*
X275253Y145307D01*
X276207Y145052D01*
X277193D01*
X278147Y145307D01*
X279001Y145801D01*
X279699Y146499D01*
X280145Y147271D01*
X297200D01*
X297785Y147387D01*
X298281Y147719D01*
X303134Y152571D01*
X324066D01*
X326752Y149885D01*
Y149163D01*
X326585Y149129D01*
X326273Y148921D01*
X326065Y148609D01*
X326037Y148468D01*
X325527D01*
X325499Y148609D01*
X325290Y148921D01*
X324978Y149129D01*
X324611Y149203D01*
X321953D01*
X321585Y149129D01*
X321273Y148921D01*
X321065Y148609D01*
X320992Y148241D01*
Y147261D01*
X309432D01*
X308846Y147144D01*
X308350Y146813D01*
X301867Y140329D01*
X280145D01*
X279699Y141101D01*
X279001Y141799D01*
X278147Y142293D01*
X277193Y142548D01*
X276207D01*
X275253Y142293D01*
X274399Y141799D01*
X273701Y141101D01*
X273207Y140247D01*
X272952Y139293D01*
Y138307D01*
X273207Y137353D01*
X273701Y136499D01*
X274399Y135801D01*
X275253Y135307D01*
X276207Y135052D01*
X277193D01*
X278147Y135307D01*
X279001Y135801D01*
X279699Y136499D01*
X280145Y137271D01*
X302500D01*
X303085Y137387D01*
X303581Y137719D01*
X310065Y144202D01*
X320992D01*
Y143222D01*
X321065Y142854D01*
X321273Y142542D01*
X321585Y142333D01*
X321953Y142260D01*
X324611D01*
X324978Y142333D01*
X325290Y142542D01*
X325499Y142854D01*
X325527Y142995D01*
X326037D01*
X326065Y142854D01*
X326273Y142542D01*
X326585Y142333D01*
X326953Y142260D01*
X329611D01*
X329978Y142333D01*
X330290Y142542D01*
X330499Y142854D01*
X330527Y142995D01*
X331037D01*
X331065Y142854D01*
X331273Y142542D01*
X331585Y142333D01*
X331953Y142260D01*
X334611D01*
X334979Y142333D01*
X335290Y142542D01*
X335499Y142854D01*
X335527Y142995D01*
X336037D01*
X336065Y142854D01*
X336273Y142542D01*
X336585Y142333D01*
X336953Y142260D01*
X339611D01*
X339979Y142333D01*
X340290Y142542D01*
X340499Y142854D01*
X340527Y142995D01*
X341037D01*
X341065Y142854D01*
X341273Y142542D01*
X341585Y142333D01*
X341953Y142260D01*
X344611D01*
X344978Y142333D01*
X345290Y142542D01*
X345499Y142854D01*
X345527Y142995D01*
X346037D01*
X346065Y142854D01*
X346273Y142542D01*
X346585Y142333D01*
X346953Y142260D01*
X349611D01*
X349978Y142333D01*
X350290Y142542D01*
X350499Y142854D01*
X350527Y142995D01*
X351037D01*
X351065Y142854D01*
X351273Y142542D01*
X351585Y142333D01*
X351953Y142260D01*
X354611D01*
X354978Y142333D01*
X355290Y142542D01*
X355499Y142854D01*
X355527Y142995D01*
X356037D01*
X356065Y142854D01*
X356273Y142542D01*
X356585Y142333D01*
X356953Y142260D01*
X359611D01*
X359979Y142333D01*
X360290Y142542D01*
X360499Y142854D01*
X360527Y142995D01*
X361037D01*
X361065Y142854D01*
X361273Y142542D01*
X361585Y142333D01*
X361953Y142260D01*
X364611D01*
X364979Y142333D01*
X365290Y142542D01*
X365499Y142854D01*
X365527Y142995D01*
X366037D01*
X366065Y142854D01*
X366273Y142542D01*
X366585Y142333D01*
X366753Y142300D01*
Y140613D01*
X366869Y140028D01*
X367200Y139532D01*
X370614Y136118D01*
Y103399D01*
X370448Y103233D01*
X370143Y102498D01*
Y101702D01*
X370448Y100967D01*
X371010Y100405D01*
X371745Y100100D01*
X372541D01*
X373276Y100405D01*
X373839Y100967D01*
X374143Y101702D01*
Y102498D01*
X373839Y103233D01*
X373673Y103399D01*
Y136752D01*
X373556Y137337D01*
X373225Y137833D01*
X369811Y141247D01*
Y142300D01*
X369978Y142333D01*
X370290Y142542D01*
X370499Y142854D01*
X370527Y142995D01*
X371037D01*
X371065Y142854D01*
X371273Y142542D01*
X371585Y142333D01*
X371953Y142260D01*
X374611D01*
X374978Y142333D01*
X375290Y142542D01*
X375499Y142854D01*
X375527Y142995D01*
X376037D01*
X376065Y142854D01*
X376273Y142542D01*
X376585Y142333D01*
X376614Y142328D01*
Y94317D01*
X376448Y94151D01*
X376144Y93416D01*
Y92620D01*
X376448Y91885D01*
X377011Y91322D01*
X377746Y91018D01*
X378541D01*
X379277Y91322D01*
X379839Y91885D01*
X380144Y92620D01*
Y93416D01*
X379839Y94151D01*
X379673Y94317D01*
Y141930D01*
X379706Y141958D01*
X379920Y142074D01*
X380173Y142140D01*
X380240Y142096D01*
X380355Y142001D01*
X380404Y141986D01*
X380446Y141958D01*
X380593Y141929D01*
X380736Y141885D01*
X380786Y141890D01*
X380836Y141880D01*
X385300D01*
X385690Y141958D01*
X386021Y142179D01*
X386242Y142510D01*
X386320Y142900D01*
Y156600D01*
X386242Y156990D01*
X386021Y157321D01*
X385690Y157542D01*
X385300Y157620D01*
X383020D01*
Y191000D01*
X382943Y191390D01*
X382722Y191721D01*
X382391Y191942D01*
X382001Y192020D01*
X373001D01*
X372611Y191942D01*
X372280Y191721D01*
X372059Y191390D01*
X371981Y191000D01*
Y161115D01*
X371481Y160847D01*
X371233Y161013D01*
X370648Y161129D01*
X370553D01*
Y162659D01*
X369811D01*
Y164123D01*
X370553D01*
Y170241D01*
X369811D01*
Y196671D01*
X382381D01*
Y195731D01*
X390861D01*
Y200669D01*
X382381D01*
Y199729D01*
X355035D01*
Y200669D01*
X346554D01*
Y195731D01*
X355035D01*
Y196671D01*
X366753D01*
Y170241D01*
X366010D01*
Y164123D01*
X366753D01*
Y162659D01*
X366010D01*
Y156541D01*
X369753D01*
Y155600D01*
X369869Y155015D01*
X370200Y154519D01*
X370239Y154480D01*
X370069Y153943D01*
X369515Y153714D01*
X368952Y153151D01*
X368648Y152416D01*
Y151620D01*
X368952Y150885D01*
X369515Y150323D01*
X370250Y150018D01*
X371046D01*
X371362Y150149D01*
X371753Y149834D01*
Y149163D01*
X371585Y149129D01*
X371273Y148921D01*
X371065Y148609D01*
X371037Y148468D01*
X370527D01*
X370499Y148609D01*
X370290Y148921D01*
X369978Y149129D01*
X369611Y149203D01*
X366953D01*
X366585Y149129D01*
X366273Y148921D01*
X366065Y148609D01*
X366037Y148468D01*
X365527D01*
X365499Y148609D01*
X365290Y148921D01*
X364979Y149129D01*
X364686Y149188D01*
Y150354D01*
X364580Y150892D01*
X364275Y151347D01*
X357851Y157772D01*
Y167368D01*
X357744Y167905D01*
X357439Y168361D01*
X343204Y182596D01*
Y265066D01*
X343098Y265603D01*
X342793Y266059D01*
X313397Y295455D01*
Y296431D01*
X313543Y296870D01*
X318086D01*
Y302989D01*
X317344D01*
Y304756D01*
X318086D01*
Y310874D01*
X313543D01*
Y309747D01*
X313042Y309545D01*
X312390Y309815D01*
X311988D01*
X311886Y310315D01*
X312310Y310599D01*
X312858Y311147D01*
X312949D01*
X313684Y311451D01*
X314247Y312014D01*
X314551Y312749D01*
Y313545D01*
X314420Y313860D01*
X314698Y314276D01*
X328951D01*
X329341Y314354D01*
X329672Y314575D01*
X329893Y314906D01*
X329971Y315296D01*
Y324926D01*
X329893Y325316D01*
X329672Y325647D01*
X329341Y325868D01*
X328951Y325945D01*
X303618D01*
Y330021D01*
X303812Y330216D01*
X305667D01*
Y330064D01*
X308635D01*
Y331518D01*
X308681Y331745D01*
X308635Y331972D01*
Y333426D01*
X305667D01*
Y333275D01*
X303179D01*
X302593Y333158D01*
X302097Y332827D01*
X301382Y332112D01*
X300883Y332319D01*
Y341171D01*
X316962Y357251D01*
X317316Y357780D01*
X317440Y358404D01*
Y374044D01*
X317521Y374065D01*
X318533Y374650D01*
X319359Y375476D01*
X319943Y376487D01*
X320246Y377616D01*
Y378784D01*
X319943Y379913D01*
X319359Y380924D01*
X318533Y381750D01*
X317521Y382335D01*
X316393Y382637D01*
X315225D01*
X314096Y382335D01*
X313084Y381750D01*
X312258Y380924D01*
X311674Y379913D01*
X311372Y378784D01*
Y377616D01*
X311674Y376487D01*
X312258Y375476D01*
X313084Y374650D01*
X314096Y374065D01*
X314177Y374044D01*
Y359080D01*
X298201Y343104D01*
X287440Y353865D01*
Y374044D01*
X287521Y374065D01*
X288533Y374650D01*
X289359Y375476D01*
X289943Y376487D01*
X290246Y377616D01*
Y378784D01*
X289943Y379913D01*
X289359Y380924D01*
X288533Y381750D01*
X287521Y382335D01*
X286393Y382637D01*
X285225D01*
X284096Y382335D01*
X283084Y381750D01*
X282258Y380924D01*
X281674Y379913D01*
X281372Y378784D01*
Y377616D01*
X281674Y376487D01*
X282258Y375476D01*
X283084Y374650D01*
X284096Y374065D01*
X284177Y374044D01*
Y353189D01*
X284301Y352565D01*
X284655Y352036D01*
X295520Y341171D01*
Y332480D01*
X295020Y332273D01*
X294064Y333228D01*
X293568Y333560D01*
X292983Y333676D01*
X292935D01*
Y333828D01*
X289967D01*
Y332374D01*
X289922Y332147D01*
X289967Y331920D01*
Y330466D01*
X292501D01*
X292685Y330282D01*
Y328527D01*
X289610D01*
X289220Y328450D01*
X288889Y328229D01*
X288668Y327898D01*
X288591Y327508D01*
Y325945D01*
X284512D01*
Y327508D01*
X284434Y327898D01*
X284213Y328229D01*
X283882Y328450D01*
X283492Y328527D01*
X258251D01*
X257861Y328450D01*
X257530Y328229D01*
X257309Y327898D01*
X257232Y327508D01*
Y319747D01*
X257309Y319357D01*
X257530Y319026D01*
X257861Y318805D01*
X258251Y318727D01*
X282532D01*
Y315648D01*
X282032Y315347D01*
X281549Y315547D01*
X280753D01*
X280018Y315242D01*
X279456Y314680D01*
X279151Y313945D01*
Y313149D01*
X279456Y312414D01*
X280018Y311851D01*
X280753Y311547D01*
X280844D01*
X281475Y310915D01*
X281399Y310529D01*
X280836Y309967D01*
X280532Y309232D01*
Y308436D01*
X280751Y307906D01*
X280510Y307476D01*
X280049Y307432D01*
X278208Y309273D01*
X278073Y309363D01*
Y311735D01*
X271955D01*
Y307192D01*
X275123D01*
X275204Y307110D01*
X275701Y306779D01*
X276286Y306662D01*
X276493D01*
X277599Y305556D01*
X277550Y305058D01*
X277403Y304960D01*
X275910Y303467D01*
X271955D01*
Y298924D01*
X278073D01*
Y301305D01*
X279118Y302349D01*
X282987D01*
X283179Y301887D01*
X277851Y296559D01*
X277286D01*
Y298089D01*
X272743D01*
Y291970D01*
X277286D01*
Y293500D01*
X278484D01*
X279069Y293617D01*
X279566Y293948D01*
X285477Y299859D01*
X285939Y299668D01*
Y298851D01*
X291155D01*
Y297466D01*
X290833Y296983D01*
X290716Y296398D01*
Y290606D01*
X281864Y281754D01*
X281533Y281258D01*
X281416Y280673D01*
Y279735D01*
X279887D01*
Y275192D01*
X286005D01*
Y279735D01*
X284878D01*
X284671Y280235D01*
X292223Y287787D01*
X292685Y287596D01*
Y286763D01*
X288796Y282874D01*
X288464Y282378D01*
X288348Y281792D01*
Y279735D01*
X286818D01*
Y275192D01*
X288348D01*
Y274629D01*
X288182Y274463D01*
X287877Y273727D01*
Y272932D01*
X288182Y272197D01*
X288744Y271634D01*
X289479Y271330D01*
X290275D01*
X291010Y271634D01*
X291573Y272197D01*
X291877Y272932D01*
Y273727D01*
X291573Y274463D01*
X291407Y274629D01*
Y275192D01*
X292936D01*
Y279735D01*
X291407D01*
Y281159D01*
X294948Y284700D01*
X295448Y284493D01*
Y279735D01*
X293918D01*
Y275192D01*
X295448D01*
Y274629D01*
X295282Y274463D01*
X294977Y273727D01*
Y272932D01*
X295282Y272197D01*
X295844Y271634D01*
X296579Y271330D01*
X297375D01*
X298110Y271634D01*
X298673Y272197D01*
X298977Y272932D01*
Y273727D01*
X298673Y274463D01*
X298507Y274629D01*
Y275192D01*
X300036D01*
Y279735D01*
X298507D01*
Y286333D01*
X298399Y286875D01*
X298421Y286904D01*
X298964Y287017D01*
X302485Y283496D01*
Y279735D01*
X300955D01*
Y275192D01*
X302485D01*
Y274629D01*
X302319Y274463D01*
X302014Y273727D01*
Y272932D01*
X302319Y272197D01*
X302881Y271634D01*
X303616Y271330D01*
X304412D01*
X305147Y271634D01*
X305710Y272197D01*
X306014Y272932D01*
Y273727D01*
X305710Y274463D01*
X305544Y274629D01*
Y275192D01*
X307073D01*
Y279735D01*
X305544D01*
Y284130D01*
X305427Y284715D01*
X305096Y285211D01*
X302761Y287546D01*
X302878Y288135D01*
X303221Y288277D01*
X303784Y288840D01*
X303849Y288997D01*
X304339Y289094D01*
X309422Y284012D01*
Y279735D01*
X307892D01*
Y275192D01*
X314010D01*
Y279735D01*
X312481D01*
Y283988D01*
X312981Y284195D01*
X315892Y281284D01*
Y281049D01*
X316196Y280314D01*
X316275Y280235D01*
X316152Y279735D01*
X314792D01*
Y275192D01*
X320910D01*
Y279735D01*
X319632D01*
X319508Y280235D01*
X319587Y280314D01*
X319892Y281049D01*
Y281845D01*
X319587Y282580D01*
X319025Y283142D01*
X318290Y283447D01*
X318055D01*
X305786Y295716D01*
X305586Y295849D01*
Y296398D01*
X305470Y296983D01*
X305147Y297466D01*
Y298851D01*
X306532D01*
X306946Y298575D01*
X306651Y297864D01*
Y297068D01*
X306956Y296333D01*
X307518Y295770D01*
X308253Y295466D01*
X309049D01*
X309784Y295770D01*
X310088Y296074D01*
X310588Y295867D01*
Y294873D01*
X310695Y294336D01*
X310999Y293880D01*
X340395Y264484D01*
Y182014D01*
X340502Y181477D01*
X340807Y181021D01*
X355042Y166786D01*
Y161234D01*
X354946Y161158D01*
X354275Y161262D01*
X354275Y161262D01*
X307444Y208093D01*
X306989Y208398D01*
X306451Y208505D01*
X253782D01*
X236252Y226034D01*
Y280360D01*
X236146Y280897D01*
X235841Y281353D01*
X221456Y295739D01*
Y297039D01*
X221942Y297071D01*
Y297071D01*
X226486D01*
Y303189D01*
X225744D01*
Y304956D01*
X226486D01*
Y311074D01*
X221942D01*
Y309660D01*
X221443Y309453D01*
X221184Y309711D01*
X220449Y310015D01*
X220388D01*
X220286Y310515D01*
X220710Y310799D01*
X221258Y311347D01*
X221349D01*
X222084Y311651D01*
X222647Y312214D01*
X222951Y312949D01*
Y313745D01*
X222903Y313860D01*
X223181Y314276D01*
X238000D01*
X238390Y314354D01*
X238721Y314575D01*
X238942Y314906D01*
X239020Y315296D01*
Y324926D01*
X238942Y325316D01*
X238721Y325647D01*
X238390Y325868D01*
X238000Y325945D01*
X212200D01*
X212018Y326095D01*
Y330221D01*
X212212Y330416D01*
X214067D01*
Y330264D01*
X217035D01*
Y331718D01*
X217081Y331945D01*
X217035Y332172D01*
Y333626D01*
X214067D01*
Y333475D01*
X211579D01*
X210994Y333358D01*
X210497Y333027D01*
X209783Y332312D01*
X209282Y332519D01*
Y341276D01*
X223954Y355946D01*
X224307Y356476D01*
X224431Y357100D01*
Y374244D01*
X224513Y374265D01*
X225524Y374850D01*
X226350Y375676D01*
X226935Y376687D01*
X227237Y377816D01*
Y378984D01*
X226935Y380113D01*
X226350Y381124D01*
X225524Y381950D01*
X224513Y382535D01*
X223384Y382837D01*
X222216D01*
X221087Y382535D01*
X220076Y381950D01*
X219250Y381124D01*
X218665Y380113D01*
X218363Y378984D01*
Y377816D01*
X218665Y376687D01*
X219250Y375676D01*
X220076Y374850D01*
X221087Y374265D01*
X221169Y374244D01*
Y357776D01*
X206649Y343256D01*
X194431Y355474D01*
Y374244D01*
X194513Y374265D01*
X195524Y374850D01*
X196351Y375676D01*
X196935Y376687D01*
X197237Y377816D01*
Y378984D01*
X196935Y380113D01*
X196351Y381124D01*
X195524Y381950D01*
X194513Y382535D01*
X193384Y382837D01*
X192216D01*
X191087Y382535D01*
X190076Y381950D01*
X189250Y381124D01*
X188665Y380113D01*
X188363Y378984D01*
Y377816D01*
X188665Y376687D01*
X189250Y375676D01*
X190076Y374850D01*
X191087Y374265D01*
X191169Y374244D01*
Y354798D01*
X191293Y354174D01*
X191647Y353644D01*
X203920Y341371D01*
Y332680D01*
X203420Y332473D01*
X202464Y333428D01*
X201968Y333760D01*
X201383Y333876D01*
X201335D01*
Y334028D01*
X198367D01*
Y332574D01*
X198322Y332347D01*
X198367Y332120D01*
Y330666D01*
X200901D01*
X201085Y330482D01*
Y328527D01*
X198010D01*
X197620Y328450D01*
X197289Y328229D01*
X197068Y327898D01*
X196991Y327508D01*
Y326145D01*
X192912D01*
Y327508D01*
X192834Y327898D01*
X192613Y328229D01*
X192282Y328450D01*
X191892Y328527D01*
X167300D01*
X166910Y328450D01*
X166579Y328229D01*
X166358Y327898D01*
X166280Y327508D01*
Y319747D01*
X166358Y319357D01*
X166579Y319026D01*
X166910Y318805D01*
X167300Y318727D01*
X191580D01*
Y315253D01*
X191080Y315046D01*
X190684Y315442D01*
X189949Y315747D01*
X189153D01*
X188418Y315442D01*
X187856Y314880D01*
X187551Y314145D01*
Y313349D01*
X187856Y312614D01*
X188418Y312051D01*
X189153Y311747D01*
X189244D01*
X189875Y311116D01*
X189799Y310730D01*
X189236Y310167D01*
X188932Y309432D01*
Y308636D01*
X189151Y308106D01*
X188910Y307676D01*
X188449Y307632D01*
X186608Y309473D01*
X186473Y309563D01*
Y311935D01*
X180355D01*
Y307392D01*
X183523D01*
X183604Y307310D01*
X184101Y306979D01*
X184686Y306862D01*
X184893D01*
X185999Y305756D01*
X185950Y305258D01*
X185803Y305160D01*
X184310Y303667D01*
X180355D01*
Y299124D01*
X186473D01*
Y301504D01*
X187518Y302549D01*
X191387D01*
X191579Y302087D01*
X186251Y296759D01*
X185686D01*
Y298289D01*
X181142D01*
Y292171D01*
X185686D01*
Y293700D01*
X186884D01*
X187469Y293817D01*
X187966Y294148D01*
X193877Y300059D01*
X194339Y299868D01*
Y299051D01*
X199555D01*
Y297666D01*
X199233Y297183D01*
X199116Y296598D01*
Y290806D01*
X190264Y281954D01*
X189933Y281458D01*
X189816Y280873D01*
Y279935D01*
X188287D01*
Y275392D01*
X194405D01*
Y279935D01*
X193278D01*
X193071Y280435D01*
X200623Y287987D01*
X201085Y287796D01*
Y286963D01*
X197196Y283074D01*
X196864Y282578D01*
X196748Y281993D01*
Y279935D01*
X195218D01*
Y275392D01*
X196748D01*
Y274829D01*
X196582Y274662D01*
X196277Y273927D01*
Y273132D01*
X196582Y272397D01*
X197144Y271834D01*
X197879Y271530D01*
X198675D01*
X199410Y271834D01*
X199973Y272397D01*
X200277Y273132D01*
Y273927D01*
X199973Y274662D01*
X199806Y274829D01*
Y275392D01*
X201336D01*
Y279935D01*
X199806D01*
Y281359D01*
X203348Y284900D01*
X203848Y284693D01*
Y279935D01*
X202318D01*
Y275392D01*
X203848D01*
Y274829D01*
X203682Y274662D01*
X203377Y273927D01*
Y273132D01*
X203682Y272397D01*
X204244Y271834D01*
X204979Y271530D01*
X205775D01*
X206510Y271834D01*
X207073Y272397D01*
X207377Y273132D01*
Y273927D01*
X207073Y274662D01*
X206907Y274829D01*
Y275392D01*
X208436D01*
Y279935D01*
X206907D01*
Y286533D01*
X206799Y287075D01*
X206821Y287104D01*
X207364Y287217D01*
X210885Y283696D01*
Y279935D01*
X209355D01*
Y275392D01*
X210885D01*
Y274829D01*
X210719Y274662D01*
X210414Y273927D01*
Y273132D01*
X210719Y272397D01*
X211281Y271834D01*
X212016Y271530D01*
X212812D01*
X213547Y271834D01*
X214110Y272397D01*
X214414Y273132D01*
Y273927D01*
X214110Y274662D01*
X213944Y274829D01*
Y275392D01*
X215473D01*
Y279935D01*
X213944D01*
Y284330D01*
X213827Y284915D01*
X213496Y285411D01*
X211161Y287746D01*
X211278Y288335D01*
X211621Y288477D01*
X212184Y289040D01*
X212249Y289197D01*
X212739Y289295D01*
X217822Y284212D01*
Y279935D01*
X216292D01*
Y275392D01*
X222410D01*
Y279935D01*
X220881D01*
Y284188D01*
X221381Y284395D01*
X224292Y281484D01*
Y281249D01*
X224596Y280514D01*
X224675Y280435D01*
X224552Y279935D01*
X223192D01*
Y275392D01*
X229310D01*
Y279935D01*
X228032D01*
X227908Y280435D01*
X227987Y280514D01*
X228292Y281249D01*
Y282045D01*
X227987Y282780D01*
X227425Y283342D01*
X226690Y283647D01*
X226455D01*
X214186Y295916D01*
X213986Y296049D01*
Y296598D01*
X213870Y297183D01*
X213547Y297666D01*
Y299051D01*
X214932D01*
X215346Y298775D01*
X215051Y298064D01*
Y297268D01*
X215356Y296533D01*
X215918Y295970D01*
X216653Y295666D01*
X217449D01*
X218184Y295970D01*
X218185Y295971D01*
X218647Y295780D01*
Y295157D01*
X218754Y294619D01*
X219058Y294164D01*
X233443Y279778D01*
Y225452D01*
X233551Y224915D01*
X233855Y224459D01*
X252207Y206107D01*
X252662Y205802D01*
X253200Y205696D01*
X305869D01*
X351877Y159687D01*
Y149188D01*
X351585Y149129D01*
X351273Y148921D01*
X351065Y148609D01*
X351037Y148468D01*
X350527D01*
X350499Y148609D01*
X350290Y148921D01*
X349978Y149129D01*
X349844Y149156D01*
Y157843D01*
X349737Y158380D01*
X349432Y158836D01*
X309400Y198868D01*
Y199598D01*
X309096Y200333D01*
X308533Y200896D01*
X307798Y201200D01*
X307002D01*
X306267Y200896D01*
X305704Y200333D01*
X305400Y199598D01*
Y198802D01*
X305704Y198067D01*
X306267Y197504D01*
X307002Y197200D01*
X307096D01*
X347035Y157261D01*
Y149203D01*
X346953D01*
X346585Y149129D01*
X346273Y148921D01*
X346065Y148609D01*
X346037Y148468D01*
X345527D01*
X345499Y148609D01*
X345290Y148921D01*
X344978Y149129D01*
X344686Y149188D01*
Y155984D01*
X344580Y156522D01*
X344275Y156977D01*
X304559Y196693D01*
X304104Y196998D01*
X303566Y197105D01*
X174382D01*
X146101Y225385D01*
Y279249D01*
X145994Y279786D01*
X145690Y280242D01*
X131258Y294674D01*
Y301549D01*
X131192Y301881D01*
X131540Y302279D01*
X131579Y302299D01*
X131791Y302246D01*
Y297117D01*
X136335D01*
Y303236D01*
X135592D01*
Y305003D01*
X136335D01*
Y311121D01*
X131791D01*
Y309660D01*
X131291Y309453D01*
X130986Y309758D01*
X130251Y310062D01*
X130237D01*
X130135Y310562D01*
X130559Y310846D01*
X131107Y311394D01*
X131198D01*
X131933Y311698D01*
X132495Y312261D01*
X132800Y312996D01*
Y313792D01*
X132772Y313860D01*
X133049Y314276D01*
X147951D01*
X148341Y314354D01*
X148672Y314575D01*
X148893Y314906D01*
X148971Y315296D01*
Y324926D01*
X148893Y325316D01*
X148672Y325647D01*
X148341Y325868D01*
X147951Y325945D01*
X122151D01*
X121866Y326179D01*
Y330268D01*
X122061Y330463D01*
X123916D01*
Y330311D01*
X126884D01*
Y331765D01*
X126929Y331992D01*
X126884Y332219D01*
Y333673D01*
X123916D01*
Y333522D01*
X121428D01*
X120842Y333405D01*
X120346Y333074D01*
X119631Y332359D01*
X119131Y332566D01*
Y341418D01*
X134767Y357054D01*
X135120Y357583D01*
X135245Y358207D01*
Y374290D01*
X135326Y374312D01*
X136338Y374896D01*
X137164Y375723D01*
X137748Y376734D01*
X138050Y377863D01*
Y379031D01*
X137748Y380159D01*
X137164Y381171D01*
X136338Y381997D01*
X135326Y382581D01*
X134197Y382884D01*
D02*
G37*
G36*
X89459Y311982D02*
X83341D01*
Y311073D01*
X83168Y310948D01*
X82841Y310814D01*
X82196Y311081D01*
X81400D01*
X80665Y310776D01*
X80102Y310214D01*
X79798Y309479D01*
Y308683D01*
X80102Y307948D01*
X80665Y307385D01*
X81400Y307081D01*
X82196D01*
X82873Y307361D01*
X83341Y307439D01*
X83341Y307439D01*
X83341Y307439D01*
X89459D01*
Y311982D01*
D02*
G37*
G36*
X179610Y311935D02*
X173492D01*
Y311026D01*
X173320Y310902D01*
X172992Y310767D01*
X172347Y311034D01*
X171551D01*
X170816Y310730D01*
X170254Y310167D01*
X169949Y309432D01*
Y308636D01*
X170254Y307901D01*
X170816Y307339D01*
X171551Y307034D01*
X172347D01*
X173024Y307315D01*
X173492Y307392D01*
X173492Y307392D01*
X173492Y307392D01*
X179610D01*
Y311935D01*
D02*
G37*
G36*
X271210Y311735D02*
X265092D01*
Y310826D01*
X264920Y310702D01*
X264592Y310567D01*
X263947Y310834D01*
X263151D01*
X262416Y310529D01*
X261854Y309967D01*
X261549Y309232D01*
Y308436D01*
X261854Y307701D01*
X262416Y307138D01*
X263151Y306834D01*
X263947D01*
X264624Y307115D01*
X265092Y307192D01*
X265092Y307192D01*
X265092Y307192D01*
X271210D01*
Y311735D01*
D02*
G37*
G36*
X87267Y298336D02*
X82724D01*
Y297434D01*
X82224Y297100D01*
X81798Y297276D01*
X81002D01*
X80267Y296972D01*
X79704Y296409D01*
X79400Y295674D01*
Y294879D01*
X79704Y294144D01*
X80267Y293581D01*
X81002Y293276D01*
X81798D01*
X82224Y293453D01*
X82724Y293119D01*
Y292217D01*
X87267D01*
Y298336D01*
D02*
G37*
G36*
X177418Y298289D02*
X172875D01*
Y297387D01*
X172375Y297053D01*
X171949Y297230D01*
X171153D01*
X170418Y296925D01*
X169856Y296362D01*
X169551Y295627D01*
Y294832D01*
X169856Y294097D01*
X170418Y293534D01*
X171153Y293230D01*
X171949D01*
X172375Y293406D01*
X172875Y293072D01*
Y292171D01*
X177418D01*
Y298289D01*
D02*
G37*
G36*
X269018Y298089D02*
X264475D01*
Y297187D01*
X263975Y296853D01*
X263549Y297030D01*
X262753D01*
X262018Y296725D01*
X261456Y296163D01*
X261151Y295427D01*
Y294632D01*
X261456Y293897D01*
X262018Y293334D01*
X262753Y293030D01*
X263549D01*
X263975Y293206D01*
X264475Y292872D01*
Y291970D01*
X269018D01*
Y298089D01*
D02*
G37*
G36*
X144602Y303236D02*
X140059D01*
Y297117D01*
X140139D01*
X140417Y296702D01*
X140331Y296494D01*
Y295698D01*
X140635Y294963D01*
X141198Y294401D01*
X141933Y294096D01*
X142728D01*
X143464Y294401D01*
X144026Y294963D01*
X144331Y295698D01*
Y296494D01*
X144245Y296702D01*
X144522Y297117D01*
X144602D01*
Y303236D01*
D02*
G37*
G36*
X234753Y303189D02*
X230210D01*
Y297071D01*
X230290D01*
X230568Y296655D01*
X230482Y296447D01*
Y295651D01*
X230786Y294916D01*
X231349Y294354D01*
X232084Y294049D01*
X232880D01*
X233615Y294354D01*
X234177Y294916D01*
X234482Y295651D01*
Y296447D01*
X234396Y296655D01*
X234674Y297071D01*
X234753D01*
Y303189D01*
D02*
G37*
G36*
X326354Y302989D02*
X321810D01*
Y296870D01*
X321890D01*
X322168Y296455D01*
X322082Y296247D01*
Y295451D01*
X322386Y294716D01*
X322949Y294154D01*
X323684Y293849D01*
X324480D01*
X325215Y294154D01*
X325777Y294716D01*
X326082Y295451D01*
Y296247D01*
X325996Y296455D01*
X326274Y296870D01*
X326354D01*
Y302989D01*
D02*
G37*
G36*
X61353Y331561D02*
X51691D01*
Y313239D01*
X55093D01*
Y290399D01*
X53563D01*
Y285856D01*
X59681D01*
Y290399D01*
X58151D01*
Y313239D01*
X61353D01*
Y331561D01*
D02*
G37*
G36*
X68781Y282231D02*
X62663D01*
Y281401D01*
X59681D01*
Y282131D01*
X53563D01*
Y277588D01*
X59681D01*
Y278343D01*
X62663D01*
Y277688D01*
X68781D01*
Y282231D01*
D02*
G37*
G36*
X139159Y271714D02*
X133041D01*
Y267171D01*
X139159D01*
Y267353D01*
X139659Y267647D01*
X140153Y267443D01*
X140949D01*
X141684Y267747D01*
X142247Y268310D01*
X142551Y269045D01*
Y269840D01*
X142247Y270575D01*
X141684Y271138D01*
X140949Y271443D01*
X140153D01*
X139659Y271238D01*
X139159Y271532D01*
Y271714D01*
D02*
G37*
G36*
X229310Y271667D02*
X223192D01*
Y267124D01*
X229310D01*
Y267306D01*
X229810Y267600D01*
X230305Y267396D01*
X231100D01*
X231835Y267700D01*
X232398Y268263D01*
X232702Y268998D01*
Y269794D01*
X232398Y270529D01*
X231835Y271091D01*
X231100Y271396D01*
X230305D01*
X229810Y271191D01*
X229310Y271485D01*
Y271667D01*
D02*
G37*
G36*
X320910Y271467D02*
X314792D01*
Y266924D01*
X320910D01*
Y267106D01*
X321410Y267400D01*
X321904Y267196D01*
X322700D01*
X323435Y267500D01*
X323998Y268063D01*
X324302Y268798D01*
Y269594D01*
X323998Y270329D01*
X323435Y270891D01*
X322700Y271196D01*
X321904D01*
X321410Y270991D01*
X320910Y271285D01*
Y271467D01*
D02*
G37*
G36*
X125581Y264543D02*
X124619D01*
X123691Y264295D01*
X122859Y263814D01*
X122180Y263135D01*
X121699Y262302D01*
X121450Y261374D01*
Y260413D01*
X121699Y259485D01*
X122180Y258653D01*
X122859Y257973D01*
X123691Y257493D01*
X124619Y257244D01*
X125581D01*
X126509Y257493D01*
X127341Y257973D01*
X128020Y258653D01*
X128501Y259485D01*
X128750Y260413D01*
Y261374D01*
X128501Y262302D01*
X128020Y263135D01*
X127341Y263814D01*
X126509Y264295D01*
X125581Y264543D01*
D02*
G37*
G36*
X115580D02*
X114620D01*
X113691Y264295D01*
X112859Y263814D01*
X112180Y263135D01*
X111699Y262302D01*
X111450Y261374D01*
Y260413D01*
X111699Y259485D01*
X112180Y258653D01*
X112859Y257973D01*
X113691Y257493D01*
X114620Y257244D01*
X115580D01*
X116509Y257493D01*
X117341Y257973D01*
X118020Y258653D01*
X118501Y259485D01*
X118750Y260413D01*
Y261374D01*
X118501Y262302D01*
X118020Y263135D01*
X117341Y263814D01*
X116509Y264295D01*
X115580Y264543D01*
D02*
G37*
G36*
X105580D02*
X104620D01*
X103691Y264295D01*
X102859Y263814D01*
X102180Y263135D01*
X101699Y262302D01*
X101450Y261374D01*
Y260413D01*
X101699Y259485D01*
X102180Y258653D01*
X102859Y257973D01*
X103691Y257493D01*
X104620Y257244D01*
X105580D01*
X106509Y257493D01*
X107341Y257973D01*
X108020Y258653D01*
X108501Y259485D01*
X108750Y260413D01*
Y261374D01*
X108501Y262302D01*
X108020Y263135D01*
X107341Y263814D01*
X106509Y264295D01*
X105580Y264543D01*
D02*
G37*
G36*
X215732Y264496D02*
X214771D01*
X213843Y264248D01*
X213010Y263767D01*
X212331Y263088D01*
X211850Y262256D01*
X211602Y261327D01*
Y260366D01*
X211850Y259438D01*
X212331Y258606D01*
X213010Y257927D01*
X213843Y257446D01*
X214771Y257197D01*
X215732D01*
X216660Y257446D01*
X217492Y257927D01*
X218172Y258606D01*
X218652Y259438D01*
X218901Y260366D01*
Y261327D01*
X218652Y262256D01*
X218172Y263088D01*
X217492Y263767D01*
X216660Y264248D01*
X215732Y264496D01*
D02*
G37*
G36*
X205732D02*
X204771D01*
X203842Y264248D01*
X203010Y263767D01*
X202331Y263088D01*
X201850Y262256D01*
X201602Y261327D01*
Y260366D01*
X201850Y259438D01*
X202331Y258606D01*
X203010Y257927D01*
X203842Y257446D01*
X204771Y257197D01*
X205732D01*
X206660Y257446D01*
X207492Y257927D01*
X208172Y258606D01*
X208652Y259438D01*
X208901Y260366D01*
Y261327D01*
X208652Y262256D01*
X208172Y263088D01*
X207492Y263767D01*
X206660Y264248D01*
X205732Y264496D01*
D02*
G37*
G36*
X195732D02*
X194771D01*
X193842Y264248D01*
X193010Y263767D01*
X192331Y263088D01*
X191850Y262256D01*
X191602Y261327D01*
Y260366D01*
X191850Y259438D01*
X192331Y258606D01*
X193010Y257927D01*
X193842Y257446D01*
X194771Y257197D01*
X195732D01*
X196660Y257446D01*
X197492Y257927D01*
X198172Y258606D01*
X198652Y259438D01*
X198901Y260366D01*
Y261327D01*
X198652Y262256D01*
X198172Y263088D01*
X197492Y263767D01*
X196660Y264248D01*
X195732Y264496D01*
D02*
G37*
G36*
X307332Y264297D02*
X306371D01*
X305443Y264048D01*
X304610Y263567D01*
X303931Y262888D01*
X303450Y262056D01*
X303202Y261127D01*
Y260166D01*
X303450Y259238D01*
X303931Y258406D01*
X304610Y257727D01*
X305443Y257246D01*
X306371Y256997D01*
X307332D01*
X308260Y257246D01*
X309092Y257727D01*
X309772Y258406D01*
X310252Y259238D01*
X310501Y260166D01*
Y261127D01*
X310252Y262056D01*
X309772Y262888D01*
X309092Y263567D01*
X308260Y264048D01*
X307332Y264297D01*
D02*
G37*
G36*
X297332D02*
X296371D01*
X295443Y264048D01*
X294610Y263567D01*
X293931Y262888D01*
X293450Y262056D01*
X293202Y261127D01*
Y260166D01*
X293450Y259238D01*
X293931Y258406D01*
X294610Y257727D01*
X295443Y257246D01*
X296371Y256997D01*
X297332D01*
X298260Y257246D01*
X299092Y257727D01*
X299772Y258406D01*
X300252Y259238D01*
X300501Y260166D01*
Y261127D01*
X300252Y262056D01*
X299772Y262888D01*
X299092Y263567D01*
X298260Y264048D01*
X297332Y264297D01*
D02*
G37*
G36*
X287332D02*
X286371D01*
X285442Y264048D01*
X284610Y263567D01*
X283931Y262888D01*
X283450Y262056D01*
X283202Y261127D01*
Y260166D01*
X283450Y259238D01*
X283931Y258406D01*
X284610Y257727D01*
X285442Y257246D01*
X286371Y256997D01*
X287332D01*
X288260Y257246D01*
X289092Y257727D01*
X289772Y258406D01*
X290252Y259238D01*
X290501Y260166D01*
Y261127D01*
X290252Y262056D01*
X289772Y262888D01*
X289092Y263567D01*
X288260Y264048D01*
X287332Y264297D01*
D02*
G37*
G36*
X125581Y234543D02*
X124619D01*
X123691Y234295D01*
X122859Y233814D01*
X122180Y233135D01*
X121699Y232302D01*
X121450Y231374D01*
Y230413D01*
X121699Y229485D01*
X122180Y228653D01*
X122859Y227973D01*
X123691Y227493D01*
X124619Y227244D01*
X125581D01*
X126509Y227493D01*
X127341Y227973D01*
X128020Y228653D01*
X128501Y229485D01*
X128750Y230413D01*
Y231374D01*
X128501Y232302D01*
X128020Y233135D01*
X127341Y233814D01*
X126509Y234295D01*
X125581Y234543D01*
D02*
G37*
G36*
X115580D02*
X114620D01*
X113691Y234295D01*
X112859Y233814D01*
X112180Y233135D01*
X111699Y232302D01*
X111450Y231374D01*
Y230413D01*
X111699Y229485D01*
X112180Y228653D01*
X112859Y227973D01*
X113691Y227493D01*
X114620Y227244D01*
X115580D01*
X116509Y227493D01*
X117341Y227973D01*
X118020Y228653D01*
X118501Y229485D01*
X118750Y230413D01*
Y231374D01*
X118501Y232302D01*
X118020Y233135D01*
X117341Y233814D01*
X116509Y234295D01*
X115580Y234543D01*
D02*
G37*
G36*
X105580D02*
X104620D01*
X103691Y234295D01*
X102859Y233814D01*
X102180Y233135D01*
X101699Y232302D01*
X101450Y231374D01*
Y230413D01*
X101699Y229485D01*
X102180Y228653D01*
X102859Y227973D01*
X103691Y227493D01*
X104620Y227244D01*
X105580D01*
X106509Y227493D01*
X107341Y227973D01*
X108020Y228653D01*
X108501Y229485D01*
X108750Y230413D01*
Y231374D01*
X108501Y232302D01*
X108020Y233135D01*
X107341Y233814D01*
X106509Y234295D01*
X105580Y234543D01*
D02*
G37*
G36*
X215732Y234496D02*
X214771D01*
X213843Y234248D01*
X213010Y233767D01*
X212331Y233088D01*
X211850Y232256D01*
X211602Y231327D01*
Y230366D01*
X211850Y229438D01*
X212331Y228606D01*
X213010Y227926D01*
X213843Y227446D01*
X214771Y227197D01*
X215732D01*
X216660Y227446D01*
X217492Y227926D01*
X218172Y228606D01*
X218652Y229438D01*
X218901Y230366D01*
Y231327D01*
X218652Y232256D01*
X218172Y233088D01*
X217492Y233767D01*
X216660Y234248D01*
X215732Y234496D01*
D02*
G37*
G36*
X205732D02*
X204771D01*
X203842Y234248D01*
X203010Y233767D01*
X202331Y233088D01*
X201850Y232256D01*
X201602Y231327D01*
Y230366D01*
X201850Y229438D01*
X202331Y228606D01*
X203010Y227926D01*
X203842Y227446D01*
X204771Y227197D01*
X205732D01*
X206660Y227446D01*
X207492Y227926D01*
X208172Y228606D01*
X208652Y229438D01*
X208901Y230366D01*
Y231327D01*
X208652Y232256D01*
X208172Y233088D01*
X207492Y233767D01*
X206660Y234248D01*
X205732Y234496D01*
D02*
G37*
G36*
X195732D02*
X194771D01*
X193842Y234248D01*
X193010Y233767D01*
X192331Y233088D01*
X191850Y232256D01*
X191602Y231327D01*
Y230366D01*
X191850Y229438D01*
X192331Y228606D01*
X193010Y227926D01*
X193842Y227446D01*
X194771Y227197D01*
X195732D01*
X196660Y227446D01*
X197492Y227926D01*
X198172Y228606D01*
X198652Y229438D01*
X198901Y230366D01*
Y231327D01*
X198652Y232256D01*
X198172Y233088D01*
X197492Y233767D01*
X196660Y234248D01*
X195732Y234496D01*
D02*
G37*
G36*
X307332Y234296D02*
X306371D01*
X305443Y234048D01*
X304610Y233567D01*
X303931Y232888D01*
X303450Y232056D01*
X303202Y231127D01*
Y230166D01*
X303450Y229238D01*
X303931Y228406D01*
X304610Y227727D01*
X305443Y227246D01*
X306371Y226997D01*
X307332D01*
X308260Y227246D01*
X309092Y227727D01*
X309772Y228406D01*
X310252Y229238D01*
X310501Y230166D01*
Y231127D01*
X310252Y232056D01*
X309772Y232888D01*
X309092Y233567D01*
X308260Y234048D01*
X307332Y234296D01*
D02*
G37*
G36*
X297332D02*
X296371D01*
X295443Y234048D01*
X294610Y233567D01*
X293931Y232888D01*
X293450Y232056D01*
X293202Y231127D01*
Y230166D01*
X293450Y229238D01*
X293931Y228406D01*
X294610Y227727D01*
X295443Y227246D01*
X296371Y226997D01*
X297332D01*
X298260Y227246D01*
X299092Y227727D01*
X299772Y228406D01*
X300252Y229238D01*
X300501Y230166D01*
Y231127D01*
X300252Y232056D01*
X299772Y232888D01*
X299092Y233567D01*
X298260Y234048D01*
X297332Y234296D01*
D02*
G37*
G36*
X287332D02*
X286371D01*
X285442Y234048D01*
X284610Y233567D01*
X283931Y232888D01*
X283450Y232056D01*
X283202Y231127D01*
Y230166D01*
X283450Y229238D01*
X283931Y228406D01*
X284610Y227727D01*
X285442Y227246D01*
X286371Y226997D01*
X287332D01*
X288260Y227246D01*
X289092Y227727D01*
X289772Y228406D01*
X290252Y229238D01*
X290501Y230166D01*
Y231127D01*
X290252Y232056D01*
X289772Y232888D01*
X289092Y233567D01*
X288260Y234048D01*
X287332Y234296D01*
D02*
G37*
G36*
X380625Y226536D02*
X376082D01*
Y225308D01*
X375582Y225132D01*
X375541Y225173D01*
X374806Y225477D01*
X374010D01*
X373275Y225173D01*
X372712Y224610D01*
X372408Y223875D01*
Y223079D01*
X372712Y222344D01*
X373275Y221782D01*
X374010Y221477D01*
X374806D01*
X375541Y221782D01*
X375582Y221823D01*
X376082Y221646D01*
Y220418D01*
X380625D01*
Y226536D01*
D02*
G37*
G36*
X388893D02*
X384350D01*
Y220418D01*
X385092D01*
Y216023D01*
X382381D01*
Y215084D01*
X355035D01*
Y216023D01*
X346554D01*
Y211086D01*
X355035D01*
Y212025D01*
X382381D01*
Y211086D01*
X390861D01*
Y216023D01*
X388151D01*
Y220418D01*
X388893D01*
Y226536D01*
D02*
G37*
G36*
X95724Y153526D02*
X94476D01*
X93269Y153203D01*
X92188Y152578D01*
X92099Y152490D01*
X95100Y149490D01*
X98101Y152490D01*
X98013Y152578D01*
X96931Y153203D01*
X95724Y153526D01*
D02*
G37*
G36*
X98808Y151783D02*
X95807Y148783D01*
X98808Y145782D01*
X98896Y145870D01*
X99520Y146952D01*
X99843Y148158D01*
Y149407D01*
X99520Y150613D01*
X98896Y151695D01*
X98808Y151783D01*
D02*
G37*
G36*
X91392D02*
X91304Y151695D01*
X90680Y150613D01*
X90357Y149407D01*
Y148158D01*
X90680Y146952D01*
X91304Y145870D01*
X91392Y145782D01*
X94393Y148783D01*
X91392Y151783D01*
D02*
G37*
G36*
X165332Y152826D02*
X164268D01*
X163239Y152550D01*
X162317Y152018D01*
X161565Y151265D01*
X161032Y150343D01*
X160757Y149315D01*
Y148250D01*
X161032Y147222D01*
X161565Y146300D01*
X162317Y145547D01*
X163239Y145015D01*
X164268Y144739D01*
X165332D01*
X166361Y145015D01*
X167283Y145547D01*
X168035Y146300D01*
X168568Y147222D01*
X168843Y148250D01*
Y149315D01*
X168568Y150343D01*
X168035Y151265D01*
X167283Y152018D01*
X166361Y152550D01*
X165332Y152826D01*
D02*
G37*
G36*
X155332D02*
X154268D01*
X153239Y152550D01*
X152317Y152018D01*
X151565Y151265D01*
X151032Y150343D01*
X150757Y149315D01*
Y148250D01*
X151032Y147222D01*
X151565Y146300D01*
X152317Y145547D01*
X153239Y145015D01*
X154268Y144739D01*
X155332D01*
X156361Y145015D01*
X157283Y145547D01*
X158035Y146300D01*
X158568Y147222D01*
X158843Y148250D01*
Y149315D01*
X158568Y150343D01*
X158035Y151265D01*
X157283Y152018D01*
X156361Y152550D01*
X155332Y152826D01*
D02*
G37*
G36*
X109143D02*
X101057D01*
Y144739D01*
X109143D01*
Y152826D01*
D02*
G37*
G36*
X95100Y148076D02*
X92099Y145075D01*
X92188Y144987D01*
X93269Y144363D01*
X94476Y144039D01*
X95724D01*
X96931Y144363D01*
X98013Y144987D01*
X98101Y145075D01*
X95100Y148076D01*
D02*
G37*
G36*
X213854Y142826D02*
X212790D01*
X211761Y142550D01*
X210839Y142018D01*
X210087Y141265D01*
X209554Y140343D01*
X209279Y139315D01*
Y138250D01*
X209554Y137222D01*
X210087Y136300D01*
X210839Y135547D01*
X211761Y135015D01*
X212790Y134739D01*
X213854D01*
X214883Y135015D01*
X215805Y135547D01*
X216558Y136300D01*
X217090Y137222D01*
X217365Y138250D01*
Y139315D01*
X217090Y140343D01*
X216558Y141265D01*
X215805Y142018D01*
X214883Y142550D01*
X213854Y142826D01*
D02*
G37*
G36*
X165332D02*
X164268D01*
X163239Y142550D01*
X162317Y142018D01*
X161565Y141265D01*
X161032Y140343D01*
X160757Y139315D01*
Y138250D01*
X161032Y137222D01*
X161565Y136300D01*
X162317Y135547D01*
X163239Y135015D01*
X164268Y134739D01*
X165332D01*
X166361Y135015D01*
X167283Y135547D01*
X168035Y136300D01*
X168568Y137222D01*
X168843Y138250D01*
Y139315D01*
X168568Y140343D01*
X168035Y141265D01*
X167283Y142018D01*
X166361Y142550D01*
X165332Y142826D01*
D02*
G37*
G36*
X155332D02*
X154268D01*
X153239Y142550D01*
X152317Y142018D01*
X151565Y141265D01*
X151032Y140343D01*
X150757Y139315D01*
Y138250D01*
X151032Y137222D01*
X151565Y136300D01*
X152317Y135547D01*
X153239Y135015D01*
X154268Y134739D01*
X155332D01*
X156361Y135015D01*
X157283Y135547D01*
X158035Y136300D01*
X158568Y137222D01*
X158843Y138250D01*
Y139315D01*
X158568Y140343D01*
X158035Y141265D01*
X157283Y142018D01*
X156361Y142550D01*
X155332Y142826D01*
D02*
G37*
G36*
X105632D02*
X104568D01*
X103539Y142550D01*
X102617Y142018D01*
X101865Y141265D01*
X101332Y140343D01*
X101057Y139315D01*
Y138250D01*
X101332Y137222D01*
X101865Y136300D01*
X102617Y135547D01*
X103539Y135015D01*
X104568Y134739D01*
X105632D01*
X106661Y135015D01*
X107583Y135547D01*
X108335Y136300D01*
X108868Y137222D01*
X109143Y138250D01*
Y139315D01*
X108868Y140343D01*
X108335Y141265D01*
X107583Y142018D01*
X106661Y142550D01*
X105632Y142826D01*
D02*
G37*
G36*
X95632D02*
X94568D01*
X93539Y142550D01*
X92617Y142018D01*
X91865Y141265D01*
X91332Y140343D01*
X91057Y139315D01*
Y138250D01*
X91332Y137222D01*
X91865Y136300D01*
X92617Y135547D01*
X93539Y135015D01*
X94568Y134739D01*
X95632D01*
X96661Y135015D01*
X97583Y135547D01*
X98335Y136300D01*
X98868Y137222D01*
X99143Y138250D01*
Y139315D01*
X98868Y140343D01*
X98335Y141265D01*
X97583Y142018D01*
X96661Y142550D01*
X95632Y142826D01*
D02*
G37*
G36*
X223946Y133526D02*
X222698D01*
X221491Y133203D01*
X220410Y132578D01*
X220322Y132490D01*
X223322Y129490D01*
X226323Y132490D01*
X226235Y132578D01*
X225153Y133203D01*
X223946Y133526D01*
D02*
G37*
G36*
X165425D02*
X164175D01*
X162969Y133203D01*
X161888Y132578D01*
X161800Y132490D01*
X164800Y129490D01*
X167800Y132490D01*
X167712Y132578D01*
X166631Y133203D01*
X165425Y133526D01*
D02*
G37*
G36*
X219615Y131783D02*
X219527Y131695D01*
X218902Y130614D01*
X218579Y129407D01*
Y128158D01*
X218902Y126952D01*
X219527Y125870D01*
X219615Y125782D01*
X222615Y128783D01*
X219615Y131783D01*
D02*
G37*
G36*
X161092D02*
X161004Y131695D01*
X160380Y130614D01*
X160057Y129407D01*
Y128158D01*
X160380Y126952D01*
X161004Y125870D01*
X161092Y125782D01*
X164093Y128783D01*
X161092Y131783D01*
D02*
G37*
G36*
X227030Y131783D02*
X224029Y128783D01*
X227030Y125782D01*
X227118Y125870D01*
X227742Y126952D01*
X228065Y128158D01*
Y129407D01*
X227742Y130614D01*
X227118Y131695D01*
X227030Y131783D01*
D02*
G37*
G36*
X168508Y131783D02*
X165507Y128783D01*
X168508Y125782D01*
X168596Y125870D01*
X169220Y126952D01*
X169543Y128158D01*
Y129407D01*
X169220Y130614D01*
X168596Y131695D01*
X168508Y131783D01*
D02*
G37*
G36*
X363657Y128523D02*
X362907D01*
X362214Y128236D01*
X361683Y127705D01*
X361396Y127012D01*
Y126262D01*
X361683Y125569D01*
X362214Y125038D01*
X362907Y124751D01*
X363657D01*
X364350Y125038D01*
X364881Y125569D01*
X365168Y126262D01*
Y127012D01*
X364881Y127705D01*
X364350Y128236D01*
X363657Y128523D01*
D02*
G37*
G36*
X358263D02*
X357513D01*
X356820Y128236D01*
X356290Y127705D01*
X356002Y127012D01*
Y126262D01*
X356290Y125569D01*
X356820Y125038D01*
X357513Y124751D01*
X358263D01*
X358956Y125038D01*
X359487Y125569D01*
X359774Y126262D01*
Y127012D01*
X359487Y127705D01*
X358956Y128236D01*
X358263Y128523D01*
D02*
G37*
G36*
X352751D02*
X352001D01*
X351308Y128236D01*
X350778Y127705D01*
X350491Y127012D01*
Y126262D01*
X350778Y125569D01*
X351308Y125038D01*
X352001Y124751D01*
X352751D01*
X353445Y125038D01*
X353975Y125569D01*
X354262Y126262D01*
Y127012D01*
X353975Y127705D01*
X353445Y128236D01*
X352751Y128523D01*
D02*
G37*
G36*
X217365Y132826D02*
X209279D01*
Y124739D01*
X217365D01*
Y132826D01*
D02*
G37*
G36*
X158843D02*
X150757D01*
Y124739D01*
X158843D01*
Y132826D01*
D02*
G37*
G36*
X95632D02*
X94568D01*
X93539Y132550D01*
X92617Y132018D01*
X91865Y131265D01*
X91332Y130343D01*
X91057Y129315D01*
Y128250D01*
X91332Y127222D01*
X91865Y126300D01*
X92617Y125547D01*
X93539Y125015D01*
X94568Y124739D01*
X95632D01*
X96661Y125015D01*
X97583Y125547D01*
X98335Y126300D01*
X98868Y127222D01*
X99143Y128250D01*
Y129315D01*
X98868Y130343D01*
X98335Y131265D01*
X97583Y132018D01*
X96661Y132550D01*
X95632Y132826D01*
D02*
G37*
G36*
X223322Y128076D02*
X220322Y125075D01*
X220410Y124987D01*
X221491Y124363D01*
X222698Y124039D01*
X223946D01*
X225153Y124363D01*
X226235Y124987D01*
X226323Y125075D01*
X223322Y128076D01*
D02*
G37*
G36*
X164800Y128076D02*
X161800Y125075D01*
X161888Y124987D01*
X162969Y124363D01*
X164175Y124039D01*
X165425D01*
X166631Y124363D01*
X167712Y124987D01*
X167800Y125075D01*
X164800Y128076D01*
D02*
G37*
G36*
X367712Y124586D02*
X366962D01*
X366269Y124299D01*
X365738Y123768D01*
X365451Y123075D01*
Y122325D01*
X365738Y121632D01*
X366269Y121101D01*
X366962Y120814D01*
X367712D01*
X368405Y121101D01*
X368936Y121632D01*
X369223Y122325D01*
Y123075D01*
X368936Y123768D01*
X368405Y124299D01*
X367712Y124586D01*
D02*
G37*
G36*
X348815D02*
X348064D01*
X347371Y124299D01*
X346841Y123768D01*
X346553Y123075D01*
Y122325D01*
X346841Y121632D01*
X347371Y121101D01*
X348064Y120814D01*
X348815D01*
X349508Y121101D01*
X350038Y121632D01*
X350325Y122325D01*
Y123075D01*
X350038Y123768D01*
X349508Y124299D01*
X348815Y124586D01*
D02*
G37*
G36*
X7639Y131459D02*
X3095D01*
Y125341D01*
X3838D01*
Y124559D01*
X3095D01*
Y118441D01*
X7639D01*
Y124559D01*
X6896D01*
Y125341D01*
X7639D01*
Y131459D01*
D02*
G37*
G36*
X361019Y121830D02*
X360269D01*
X359576Y121543D01*
X359045Y121012D01*
X358758Y120319D01*
Y119569D01*
X359045Y118876D01*
X359576Y118345D01*
X360269Y118058D01*
X361019D01*
X361712Y118345D01*
X362243Y118876D01*
X362530Y119569D01*
Y120319D01*
X362243Y121012D01*
X361712Y121543D01*
X361019Y121830D01*
D02*
G37*
G36*
X355507D02*
X354757D01*
X354064Y121543D01*
X353534Y121012D01*
X353246Y120319D01*
Y119569D01*
X353534Y118876D01*
X354064Y118345D01*
X354757Y118058D01*
X355507D01*
X356201Y118345D01*
X356731Y118876D01*
X357018Y119569D01*
Y120319D01*
X356731Y121012D01*
X356201Y121543D01*
X355507Y121830D01*
D02*
G37*
G36*
X367712Y119074D02*
X366962D01*
X366269Y118787D01*
X365738Y118256D01*
X365451Y117563D01*
Y116813D01*
X365738Y116120D01*
X366269Y115589D01*
X366962Y115302D01*
X367712D01*
X368405Y115589D01*
X368936Y116120D01*
X369223Y116813D01*
Y117563D01*
X368936Y118256D01*
X368405Y118787D01*
X367712Y119074D01*
D02*
G37*
G36*
X348815D02*
X348064D01*
X347371Y118787D01*
X346841Y118256D01*
X346553Y117563D01*
Y116813D01*
X346841Y116120D01*
X347371Y115589D01*
X348064Y115302D01*
X348815D01*
X349508Y115589D01*
X350038Y116120D01*
X350325Y116813D01*
Y117563D01*
X350038Y118256D01*
X349508Y118787D01*
X348815Y119074D01*
D02*
G37*
G36*
X361019Y116318D02*
X360269D01*
X359576Y116031D01*
X359045Y115500D01*
X358758Y114807D01*
Y114057D01*
X359045Y113364D01*
X359576Y112834D01*
X360269Y112547D01*
X361019D01*
X361712Y112834D01*
X362243Y113364D01*
X362530Y114057D01*
Y114807D01*
X362243Y115500D01*
X361712Y116031D01*
X361019Y116318D01*
D02*
G37*
G36*
X355507D02*
X354757D01*
X354064Y116031D01*
X353534Y115500D01*
X353246Y114807D01*
Y114057D01*
X353534Y113364D01*
X354064Y112834D01*
X354757Y112547D01*
X355507D01*
X356201Y112834D01*
X356731Y113364D01*
X357018Y114057D01*
Y114807D01*
X356731Y115500D01*
X356201Y116031D01*
X355507Y116318D01*
D02*
G37*
G36*
X367712Y113562D02*
X366962D01*
X366269Y113275D01*
X365738Y112745D01*
X365451Y112051D01*
Y111301D01*
X365738Y110608D01*
X366269Y110078D01*
X366962Y109791D01*
X367712D01*
X368405Y110078D01*
X368936Y110608D01*
X369223Y111301D01*
Y112051D01*
X368936Y112745D01*
X368405Y113275D01*
X367712Y113562D01*
D02*
G37*
G36*
X348815D02*
X348064D01*
X347371Y113275D01*
X346841Y112745D01*
X346553Y112051D01*
Y111301D01*
X346841Y110608D01*
X347371Y110078D01*
X348064Y109791D01*
X348815D01*
X349508Y110078D01*
X350038Y110608D01*
X350325Y111301D01*
Y112051D01*
X350038Y112745D01*
X349508Y113275D01*
X348815Y113562D01*
D02*
G37*
G36*
X363775Y109625D02*
X363025D01*
X362332Y109338D01*
X361801Y108808D01*
X361514Y108115D01*
Y107364D01*
X361801Y106671D01*
X362332Y106141D01*
X363025Y105853D01*
X363775D01*
X364468Y106141D01*
X364999Y106671D01*
X365286Y107364D01*
Y108115D01*
X364999Y108808D01*
X364468Y109338D01*
X363775Y109625D01*
D02*
G37*
G36*
X358263D02*
X357513D01*
X356820Y109338D01*
X356290Y108808D01*
X356002Y108115D01*
Y107364D01*
X356290Y106671D01*
X356820Y106141D01*
X357513Y105853D01*
X358263D01*
X358956Y106141D01*
X359487Y106671D01*
X359774Y107364D01*
Y108115D01*
X359487Y108808D01*
X358956Y109338D01*
X358263Y109625D01*
D02*
G37*
G36*
X352751D02*
X352001D01*
X351308Y109338D01*
X350778Y108808D01*
X350491Y108115D01*
Y107364D01*
X350778Y106671D01*
X351308Y106141D01*
X352001Y105853D01*
X352751D01*
X353445Y106141D01*
X353975Y106671D01*
X354262Y107364D01*
Y108115D01*
X353975Y108808D01*
X353445Y109338D01*
X352751Y109625D01*
D02*
G37*
G36*
X328680Y137300D02*
X327884D01*
X327149Y136995D01*
X326586Y136433D01*
X326282Y135698D01*
Y134902D01*
X326586Y134167D01*
X326752Y134001D01*
Y94167D01*
X326368Y94042D01*
X326253Y94035D01*
X325712Y94575D01*
X324977Y94880D01*
X324182D01*
X323447Y94575D01*
X322884Y94012D01*
X322580Y93277D01*
Y92482D01*
X322884Y91747D01*
X323050Y91581D01*
Y86613D01*
X314938Y78501D01*
X314607Y78005D01*
X314490Y77420D01*
Y53653D01*
X302532Y41695D01*
X286176D01*
X285591Y41578D01*
X285095Y41247D01*
X280454Y36606D01*
X280122Y36110D01*
X280006Y35524D01*
Y30937D01*
X279695D01*
X279273Y30853D01*
X278916Y30614D01*
X278677Y30256D01*
X278593Y29835D01*
Y28673D01*
X278677Y28251D01*
X278916Y27894D01*
X279273Y27655D01*
X279695Y27571D01*
X283376D01*
X283798Y27655D01*
X284155Y27894D01*
X284394Y28251D01*
X284478Y28673D01*
Y29835D01*
X284394Y30256D01*
X284155Y30614D01*
X283798Y30853D01*
X283376Y30937D01*
X283065D01*
Y34891D01*
X286810Y38636D01*
X303165D01*
X303750Y38752D01*
X304247Y39084D01*
X317101Y51938D01*
X317433Y52434D01*
X317549Y53020D01*
Y76786D01*
X320580Y79817D01*
X321036Y79566D01*
X320992Y79344D01*
Y74324D01*
X321065Y73956D01*
X321273Y73644D01*
X321585Y73436D01*
X321753Y73403D01*
Y72799D01*
X321586Y72633D01*
X321282Y71898D01*
Y71102D01*
X321586Y70367D01*
X321753Y70201D01*
Y30937D01*
X321441D01*
X321020Y30853D01*
X320662Y30614D01*
X320423Y30256D01*
X320339Y29835D01*
Y28673D01*
X320423Y28251D01*
X320662Y27894D01*
X321020Y27655D01*
X321441Y27571D01*
X325122D01*
X325544Y27655D01*
X325902Y27894D01*
X326140Y28251D01*
X326224Y28673D01*
Y29835D01*
X326140Y30256D01*
X325902Y30614D01*
X325544Y30853D01*
X325122Y30937D01*
X324811D01*
Y70201D01*
X324977Y70367D01*
X325282Y71102D01*
Y71898D01*
X324977Y72633D01*
X324811Y72799D01*
Y73403D01*
X324978Y73436D01*
X325290Y73644D01*
X325499Y73956D01*
X325527Y74098D01*
X326037D01*
X326065Y73956D01*
X326273Y73644D01*
X326585Y73436D01*
X326953Y73363D01*
X329611D01*
X329978Y73436D01*
X330290Y73644D01*
X330499Y73956D01*
X330527Y74098D01*
X331037D01*
X331065Y73956D01*
X331273Y73644D01*
X331585Y73436D01*
X331953Y73363D01*
X334611D01*
X334979Y73436D01*
X335290Y73644D01*
X335499Y73956D01*
X335527Y74098D01*
X336037D01*
X336065Y73956D01*
X336273Y73644D01*
X336585Y73436D01*
X336953Y73363D01*
X339611D01*
X339979Y73436D01*
X340290Y73644D01*
X340499Y73956D01*
X340527Y74098D01*
X341037D01*
X341065Y73956D01*
X341273Y73644D01*
X341585Y73436D01*
X341753Y73403D01*
Y70531D01*
X341586Y70365D01*
X341282Y69630D01*
Y68835D01*
X341586Y68099D01*
X342149Y67537D01*
X342884Y67232D01*
X343680D01*
X344415Y67537D01*
X344977Y68099D01*
X345282Y68835D01*
Y69630D01*
X344977Y70365D01*
X344811Y70531D01*
Y73403D01*
X344978Y73436D01*
X345290Y73644D01*
X345499Y73956D01*
X345527Y74098D01*
X346037D01*
X346065Y73956D01*
X346273Y73644D01*
X346585Y73436D01*
X346753Y73403D01*
Y71746D01*
X346586Y71579D01*
X346282Y70844D01*
Y70049D01*
X346586Y69314D01*
X347149Y68751D01*
X347884Y68446D01*
X348680D01*
X349415Y68751D01*
X349977Y69314D01*
X350282Y70049D01*
Y70844D01*
X349977Y71579D01*
X349811Y71746D01*
Y73403D01*
X349978Y73436D01*
X350290Y73644D01*
X350499Y73956D01*
X350527Y74098D01*
X351037D01*
X351065Y73956D01*
X351273Y73644D01*
X351585Y73436D01*
X351752Y73403D01*
Y72799D01*
X351586Y72633D01*
X351282Y71898D01*
Y71102D01*
X351586Y70367D01*
X352149Y69805D01*
X352884Y69500D01*
X353680D01*
X354415Y69805D01*
X354977Y70367D01*
X355282Y71102D01*
Y71898D01*
X354977Y72633D01*
X354811Y72799D01*
Y73403D01*
X354978Y73436D01*
X355290Y73644D01*
X355499Y73956D01*
X355527Y74098D01*
X356037D01*
X356065Y73956D01*
X356273Y73644D01*
X356585Y73436D01*
X356953Y73363D01*
X359611D01*
X359979Y73436D01*
X360290Y73644D01*
X360499Y73956D01*
X360527Y74098D01*
X361037D01*
X361065Y73956D01*
X361273Y73644D01*
X361585Y73436D01*
X361877Y73378D01*
Y68082D01*
X359983Y66187D01*
X359842Y66268D01*
X358814Y66543D01*
X357750D01*
X356721Y66268D01*
X355799Y65736D01*
X355046Y64983D01*
X354514Y64061D01*
X354239Y63032D01*
Y61968D01*
X354514Y60939D01*
X355046Y60017D01*
X355799Y59264D01*
X356721Y58732D01*
X357750Y58457D01*
X358814D01*
X359842Y58732D01*
X360765Y59264D01*
X361517Y60017D01*
X362050Y60939D01*
X362325Y61968D01*
Y63032D01*
X362050Y64061D01*
X361969Y64201D01*
X364275Y66507D01*
X364580Y66962D01*
X364686Y67500D01*
Y73378D01*
X364979Y73436D01*
X365290Y73644D01*
X365499Y73956D01*
X365527Y74098D01*
X366037D01*
X366065Y73956D01*
X366273Y73644D01*
X366585Y73436D01*
X366753Y73403D01*
Y64772D01*
X365223D01*
Y60228D01*
X371252D01*
X371341Y60228D01*
X371753Y60015D01*
Y56717D01*
X371341Y56504D01*
X365223D01*
Y51961D01*
X366952D01*
Y44699D01*
X366769Y44548D01*
X366258D01*
X365963Y44490D01*
X365712Y44322D01*
X365346D01*
X365096Y44490D01*
X364801Y44548D01*
X364289D01*
X363994Y44490D01*
X363744Y44322D01*
X363577Y44072D01*
X363518Y43777D01*
Y43653D01*
X343392D01*
X342807Y43537D01*
X342311Y43205D01*
X326148Y27043D01*
X317301D01*
X317198Y27112D01*
X316776Y27196D01*
X313095D01*
X312673Y27112D01*
X312569Y27043D01*
X308554D01*
Y28573D01*
X304010D01*
Y22455D01*
X308554D01*
Y23984D01*
X312569D01*
X312673Y23915D01*
X313095Y23831D01*
X316776D01*
X317198Y23915D01*
X317301Y23984D01*
X326782D01*
X327367Y24101D01*
X327863Y24432D01*
X344026Y40595D01*
X363518D01*
Y40470D01*
X363577Y40176D01*
X363744Y39926D01*
X363994Y39758D01*
X364289Y39700D01*
X364801D01*
X365096Y39758D01*
X365346Y39926D01*
X365712D01*
X365963Y39758D01*
X366258Y39700D01*
X366769D01*
X367064Y39758D01*
X367314Y39926D01*
X367681D01*
X367931Y39758D01*
X368226Y39700D01*
X368738D01*
X369033Y39758D01*
X369283Y39926D01*
X369650D01*
X369900Y39758D01*
X370195Y39700D01*
X370706D01*
X371001Y39758D01*
X371251Y39926D01*
X371618D01*
X371868Y39758D01*
X372163Y39700D01*
X372675D01*
X372970Y39758D01*
X373220Y39926D01*
X373587D01*
X373836Y39758D01*
X374131Y39700D01*
X374643D01*
X374938Y39758D01*
X375188Y39926D01*
X375555D01*
X375805Y39758D01*
X376100Y39700D01*
X376612D01*
X376907Y39758D01*
X377157Y39926D01*
X377324Y40176D01*
X377382Y40470D01*
Y43777D01*
X377324Y44072D01*
X377157Y44322D01*
X376907Y44490D01*
X376612Y44548D01*
X376100D01*
X375805Y44490D01*
X375555Y44322D01*
X375188D01*
X374938Y44490D01*
X374643Y44548D01*
X374131D01*
X373948Y44699D01*
Y45235D01*
X374414Y45700D01*
X374649D01*
X375384Y46005D01*
X375946Y46567D01*
X376251Y47302D01*
Y48098D01*
X375946Y48833D01*
X375384Y49395D01*
X374649Y49700D01*
X373853D01*
X373118Y49395D01*
X372555Y48833D01*
X372480Y48651D01*
X371980Y48750D01*
Y49616D01*
X374363Y51999D01*
X374695Y52496D01*
X374811Y53081D01*
Y73403D01*
X374978Y73436D01*
X375290Y73644D01*
X375499Y73956D01*
X375527Y74098D01*
X376037D01*
X376065Y73956D01*
X376273Y73644D01*
X376585Y73436D01*
X376802Y73393D01*
X376856Y72902D01*
X376586Y72633D01*
X376282Y71898D01*
Y71102D01*
X376586Y70367D01*
X377149Y69805D01*
X377884Y69500D01*
X378680D01*
X379415Y69805D01*
X379977Y70367D01*
X380282Y71102D01*
Y71898D01*
X379977Y72633D01*
X379708Y72902D01*
X379762Y73393D01*
X379978Y73436D01*
X380290Y73644D01*
X380499Y73956D01*
X380527Y74098D01*
X381037D01*
X381065Y73956D01*
X381273Y73644D01*
X381585Y73436D01*
X381752Y73403D01*
Y72799D01*
X381586Y72633D01*
X381282Y71898D01*
Y71102D01*
X381586Y70367D01*
X382149Y69805D01*
X382884Y69500D01*
X383680D01*
X384415Y69805D01*
X384977Y70367D01*
X385282Y71102D01*
Y71898D01*
X384977Y72633D01*
X384811Y72799D01*
Y73403D01*
X384979Y73436D01*
X385290Y73644D01*
X385499Y73956D01*
X385572Y74324D01*
Y79344D01*
X385499Y79712D01*
X385290Y80023D01*
X384979Y80232D01*
X384611Y80305D01*
X381953D01*
X381585Y80232D01*
X381273Y80023D01*
X381065Y79712D01*
X381037Y79570D01*
X380527D01*
X380499Y79712D01*
X380290Y80023D01*
X379978Y80232D01*
X379611Y80305D01*
X376953D01*
X376585Y80232D01*
X376273Y80023D01*
X376065Y79712D01*
X376037Y79570D01*
X375527D01*
X375499Y79712D01*
X375290Y80023D01*
X374978Y80232D01*
X374611Y80305D01*
X371953D01*
X371585Y80232D01*
X371273Y80023D01*
X371065Y79712D01*
X371037Y79570D01*
X370527D01*
X370499Y79712D01*
X370290Y80023D01*
X369978Y80232D01*
X369611Y80305D01*
X366953D01*
X366585Y80232D01*
X366273Y80023D01*
X366065Y79712D01*
X366037Y79570D01*
X365527D01*
X365499Y79712D01*
X365290Y80023D01*
X364979Y80232D01*
X364611Y80305D01*
X361953D01*
X361585Y80232D01*
X361273Y80023D01*
X361065Y79712D01*
X361037Y79570D01*
X360527D01*
X360499Y79712D01*
X360290Y80023D01*
X359979Y80232D01*
X359611Y80305D01*
X356953D01*
X356585Y80232D01*
X356273Y80023D01*
X356065Y79712D01*
X356037Y79570D01*
X355527D01*
X355499Y79712D01*
X355290Y80023D01*
X354978Y80232D01*
X354611Y80305D01*
X351953D01*
X351585Y80232D01*
X351273Y80023D01*
X351065Y79712D01*
X351037Y79570D01*
X350527D01*
X350499Y79712D01*
X350290Y80023D01*
X349978Y80232D01*
X349611Y80305D01*
X346953D01*
X346585Y80232D01*
X346273Y80023D01*
X346065Y79712D01*
X346037Y79570D01*
X345527D01*
X345499Y79712D01*
X345290Y80023D01*
X344978Y80232D01*
X344611Y80305D01*
X341953D01*
X341585Y80232D01*
X341273Y80023D01*
X341065Y79712D01*
X341037Y79570D01*
X340527D01*
X340499Y79712D01*
X340290Y80023D01*
X339979Y80232D01*
X339811Y80265D01*
Y84681D01*
X339977Y84847D01*
X340282Y85582D01*
Y86377D01*
X339977Y87112D01*
X339415Y87675D01*
X338680Y87980D01*
X337884D01*
X337149Y87675D01*
X336586Y87112D01*
X336282Y86377D01*
Y85582D01*
X336586Y84847D01*
X336753Y84681D01*
Y80265D01*
X336585Y80232D01*
X336273Y80023D01*
X336065Y79712D01*
X336037Y79570D01*
X335527D01*
X335499Y79712D01*
X335290Y80023D01*
X334979Y80232D01*
X334811Y80265D01*
Y81819D01*
X334977Y81985D01*
X335282Y82720D01*
Y83516D01*
X334977Y84251D01*
X334415Y84814D01*
X333680Y85118D01*
X332884D01*
X332149Y84814D01*
X331586Y84251D01*
X331282Y83516D01*
Y82720D01*
X331586Y81985D01*
X331752Y81819D01*
Y80265D01*
X331585Y80232D01*
X331273Y80023D01*
X331065Y79712D01*
X331037Y79570D01*
X330527D01*
X330499Y79712D01*
X330290Y80023D01*
X329978Y80232D01*
X329811Y80265D01*
Y134001D01*
X329977Y134167D01*
X330282Y134902D01*
Y135698D01*
X329977Y136433D01*
X329415Y136995D01*
X328680Y137300D01*
D02*
G37*
G36*
X348814Y66543D02*
X347750D01*
X346721Y66268D01*
X345799Y65736D01*
X345046Y64983D01*
X344514Y64061D01*
X344239Y63032D01*
Y61968D01*
X344514Y60939D01*
X345046Y60017D01*
X345799Y59264D01*
X346721Y58732D01*
X347750Y58457D01*
X348814D01*
X349843Y58732D01*
X350764Y59264D01*
X351517Y60017D01*
X352050Y60939D01*
X352325Y61968D01*
Y63032D01*
X352050Y64061D01*
X351517Y64983D01*
X350764Y65736D01*
X349843Y66268D01*
X348814Y66543D01*
D02*
G37*
G36*
X342325D02*
X334239D01*
Y58457D01*
X342325D01*
Y66543D01*
D02*
G37*
G36*
X348906Y57243D02*
X347657D01*
X346451Y56920D01*
X345369Y56296D01*
X345281Y56208D01*
X348282Y53207D01*
X351282Y56208D01*
X351194Y56296D01*
X350113Y56920D01*
X348906Y57243D01*
D02*
G37*
G36*
X338906D02*
X337657D01*
X336451Y56920D01*
X335369Y56296D01*
X335281Y56208D01*
X338282Y53207D01*
X341282Y56208D01*
X341194Y56296D01*
X340113Y56920D01*
X338906Y57243D01*
D02*
G37*
G36*
X351990Y55501D02*
X348989Y52500D01*
X351990Y49499D01*
X352078Y49588D01*
X352702Y50669D01*
X353025Y51876D01*
Y53124D01*
X352702Y54331D01*
X352078Y55413D01*
X351990Y55501D01*
D02*
G37*
G36*
X341989D02*
X338989Y52500D01*
X341989Y49499D01*
X342077Y49588D01*
X342702Y50669D01*
X343025Y51876D01*
Y53124D01*
X342702Y54331D01*
X342077Y55413D01*
X341989Y55501D01*
D02*
G37*
G36*
X344574Y55501D02*
X344486Y55413D01*
X343862Y54331D01*
X343539Y53124D01*
Y51876D01*
X343862Y50669D01*
X344486Y49588D01*
X344574Y49499D01*
X347575Y52500D01*
X344574Y55501D01*
D02*
G37*
G36*
X334574D02*
X334486Y55413D01*
X333862Y54331D01*
X333539Y53124D01*
Y51876D01*
X333862Y50669D01*
X334486Y49588D01*
X334574Y49499D01*
X337575Y52500D01*
X334574Y55501D01*
D02*
G37*
G36*
X358814Y56543D02*
X357750D01*
X356721Y56268D01*
X355799Y55735D01*
X355046Y54983D01*
X354514Y54061D01*
X354239Y53032D01*
Y51968D01*
X354514Y50939D01*
X355046Y50017D01*
X355799Y49265D01*
X356721Y48732D01*
X357750Y48457D01*
X358814D01*
X359842Y48732D01*
X360765Y49265D01*
X361517Y50017D01*
X362050Y50939D01*
X362325Y51968D01*
Y53032D01*
X362050Y54061D01*
X361517Y54983D01*
X360765Y55735D01*
X359842Y56268D01*
X358814Y56543D01*
D02*
G37*
G36*
X348282Y51793D02*
X345281Y48792D01*
X345369Y48704D01*
X346451Y48080D01*
X347657Y47757D01*
X348906D01*
X350113Y48080D01*
X351194Y48704D01*
X351282Y48792D01*
X348282Y51793D01*
D02*
G37*
G36*
X338282D02*
X335281Y48792D01*
X335369Y48704D01*
X336451Y48080D01*
X337657Y47757D01*
X338906D01*
X340113Y48080D01*
X341194Y48704D01*
X341282Y48792D01*
X338282Y51793D01*
D02*
G37*
G36*
X30526Y51059D02*
X25408D01*
X24661Y50961D01*
X23964Y50673D01*
X23367Y50214D01*
X22908Y49616D01*
X22619Y48920D01*
X22521Y48172D01*
X22619Y47425D01*
X22908Y46729D01*
X23367Y46131D01*
X23964Y45672D01*
X24661Y45384D01*
X25408Y45285D01*
X30526D01*
X31273Y45384D01*
X31969Y45672D01*
X32567Y46131D01*
X33026Y46729D01*
X33314Y47425D01*
X33413Y48172D01*
X33314Y48920D01*
X33026Y49616D01*
X32567Y50214D01*
X31969Y50673D01*
X31273Y50961D01*
X30526Y51059D01*
D02*
G37*
G36*
X14109D02*
X8991D01*
X8243Y50961D01*
X7547Y50673D01*
X6949Y50214D01*
X6490Y49616D01*
X6202Y48920D01*
X6104Y48172D01*
X6202Y47425D01*
X6490Y46729D01*
X6949Y46131D01*
X7547Y45672D01*
X8243Y45384D01*
X8991Y45285D01*
X14109D01*
X14856Y45384D01*
X15552Y45672D01*
X16150Y46131D01*
X16609Y46729D01*
X16897Y47425D01*
X16996Y48172D01*
X16897Y48920D01*
X16609Y49616D01*
X16150Y50214D01*
X15552Y50673D01*
X14856Y50961D01*
X14109Y51059D01*
D02*
G37*
G36*
X105632Y132826D02*
X104568D01*
X103539Y132550D01*
X102617Y132018D01*
X101865Y131265D01*
X101332Y130343D01*
X101057Y129315D01*
Y128250D01*
X101332Y127222D01*
X101865Y126300D01*
X102617Y125547D01*
X103539Y125015D01*
X103571Y125006D01*
Y46716D01*
X103404Y46549D01*
X103100Y45814D01*
Y45019D01*
X103404Y44284D01*
X103967Y43721D01*
X104702Y43417D01*
X105498D01*
X106233Y43721D01*
X106796Y44284D01*
X107100Y45019D01*
Y45814D01*
X106796Y46549D01*
X106629Y46716D01*
Y125006D01*
X106661Y125015D01*
X107583Y125547D01*
X108335Y126300D01*
X108868Y127222D01*
X109143Y128250D01*
Y129315D01*
X108868Y130343D01*
X108335Y131265D01*
X107583Y132018D01*
X106661Y132550D01*
X105632Y132826D01*
D02*
G37*
G36*
X362773Y39725D02*
X359466D01*
X359171Y39667D01*
X358921Y39500D01*
X358754Y39250D01*
X358695Y38955D01*
Y38443D01*
X358754Y38148D01*
X358921Y37898D01*
Y37531D01*
X358754Y37281D01*
X358695Y36986D01*
Y36474D01*
X358754Y36179D01*
X358921Y35929D01*
X359171Y35762D01*
X359466Y35704D01*
X362773D01*
X363068Y35762D01*
X363318Y35929D01*
X363485Y36179D01*
X363544Y36474D01*
Y36986D01*
X363485Y37281D01*
X363318Y37531D01*
Y37898D01*
X363485Y38148D01*
X363544Y38443D01*
Y38955D01*
X363485Y39250D01*
X363318Y39500D01*
X363068Y39667D01*
X362773Y39725D01*
D02*
G37*
G36*
X308554Y36053D02*
X304010D01*
Y34667D01*
X303510Y34460D01*
X303281Y34690D01*
X302546Y34994D01*
X301750D01*
X301015Y34690D01*
X300849Y34523D01*
X300286D01*
Y36053D01*
X295743D01*
Y34523D01*
X292248D01*
X292144Y34593D01*
X291722Y34677D01*
X288041D01*
X287620Y34593D01*
X287262Y34354D01*
X287023Y33996D01*
X286940Y33575D01*
Y32413D01*
X287023Y31992D01*
X287262Y31634D01*
X287620Y31395D01*
X288041Y31312D01*
X291722D01*
X292144Y31395D01*
X292248Y31465D01*
X295743D01*
Y29935D01*
X300286D01*
Y31465D01*
X300849D01*
X301015Y31299D01*
X301750Y30994D01*
X302546D01*
X303281Y31299D01*
X303510Y31528D01*
X304010Y31321D01*
Y29935D01*
X308554D01*
Y31465D01*
X312569D01*
X312673Y31395D01*
X313095Y31312D01*
X316776D01*
X317198Y31395D01*
X317555Y31634D01*
X317794Y31992D01*
X317878Y32413D01*
Y33575D01*
X317794Y33996D01*
X317555Y34354D01*
X317198Y34593D01*
X316776Y34677D01*
X313095D01*
X312673Y34593D01*
X312569Y34523D01*
X308554D01*
Y36053D01*
D02*
G37*
G36*
X16900Y126020D02*
X9501D01*
X9111Y125942D01*
X8780Y125721D01*
X8559Y125390D01*
X8481Y125000D01*
Y103880D01*
X8559Y103490D01*
X8639Y103370D01*
X8559Y103251D01*
X8481Y102861D01*
Y85115D01*
X8428Y85040D01*
X8243Y85016D01*
X7547Y84728D01*
X6949Y84269D01*
X6490Y83671D01*
X6202Y82975D01*
X6104Y82228D01*
X6202Y81480D01*
X6490Y80784D01*
X6949Y80186D01*
X7547Y79727D01*
X8243Y79439D01*
X8428Y79415D01*
X8481Y79341D01*
Y53822D01*
X8559Y53432D01*
X8780Y53101D01*
X9111Y52880D01*
X9501Y52802D01*
X24357D01*
X24626Y52856D01*
X25085Y52397D01*
X25703Y52141D01*
X26372D01*
X26990Y52397D01*
X27463Y52870D01*
X27629Y53271D01*
X27667Y53263D01*
X30250D01*
X30641Y53341D01*
X30971Y53562D01*
X31192Y53892D01*
X31228Y54070D01*
X32994D01*
Y59188D01*
Y63028D01*
X33197Y63068D01*
X36665D01*
X89101Y10632D01*
X89557Y10327D01*
X90095Y10220D01*
X325182D01*
X325720Y10327D01*
X326175Y10632D01*
X345221Y29677D01*
X356387D01*
X356579Y29215D01*
X356135Y28772D01*
X355635Y28979D01*
Y29159D01*
X349517D01*
Y24616D01*
X355635D01*
Y25483D01*
X356238D01*
X356762Y25588D01*
X356776Y25590D01*
X357262Y25314D01*
Y14027D01*
X357340Y13637D01*
X357561Y13306D01*
X357892Y13085D01*
X358282Y13007D01*
X362605D01*
X362849Y12418D01*
X363412Y11855D01*
X364147Y11551D01*
X364943D01*
X365678Y11855D01*
X366240Y12418D01*
X366484Y13007D01*
X370204D01*
X370448Y12418D01*
X371010Y11855D01*
X371745Y11551D01*
X372541D01*
X373276Y11855D01*
X373839Y12418D01*
X374083Y13007D01*
X377566D01*
X377810Y12418D01*
X378373Y11855D01*
X379108Y11551D01*
X379903D01*
X380638Y11855D01*
X381201Y12418D01*
X381445Y13007D01*
X383282D01*
X383672Y13085D01*
X384003Y13306D01*
X384224Y13637D01*
X384301Y14027D01*
Y22565D01*
X384224Y22955D01*
X384003Y23286D01*
X383672Y23506D01*
X383282Y23584D01*
X377382D01*
Y25116D01*
X377324Y25411D01*
X377157Y25661D01*
X376907Y25828D01*
X376612Y25887D01*
X376100D01*
X375805Y25828D01*
X375555Y25661D01*
X375188D01*
X374938Y25828D01*
X374643Y25887D01*
X374131D01*
X373836Y25828D01*
X373587Y25661D01*
X373220D01*
X372970Y25828D01*
X372675Y25887D01*
X372163D01*
X371868Y25828D01*
X371618Y25661D01*
X371251D01*
X371001Y25828D01*
X370706Y25887D01*
X370195D01*
X369900Y25828D01*
X369650Y25661D01*
X369283D01*
X369033Y25828D01*
X368738Y25887D01*
X368226D01*
X367931Y25828D01*
X367681Y25661D01*
X367314D01*
X367064Y25828D01*
X366769Y25887D01*
X366377D01*
X366313Y26040D01*
X366244Y26140D01*
X366192Y26250D01*
X365857Y26701D01*
X365801Y26751D01*
X365760Y26814D01*
X365655Y26883D01*
X365562Y26968D01*
X365491Y26993D01*
X365429Y27035D01*
X365305Y27059D01*
X365187Y27101D01*
X364930Y27273D01*
X364758Y27530D01*
X364716Y27648D01*
X364692Y27772D01*
X364650Y27834D01*
X364625Y27904D01*
X364541Y27998D01*
X364471Y28102D01*
X364408Y28144D01*
X364358Y28200D01*
X363908Y28535D01*
X363797Y28587D01*
X363697Y28655D01*
X363544Y28720D01*
Y29112D01*
X363485Y29407D01*
X363318Y29657D01*
Y30024D01*
X363485Y30274D01*
X363544Y30569D01*
Y31081D01*
X363485Y31376D01*
X363318Y31626D01*
Y31992D01*
X363485Y32242D01*
X363544Y32537D01*
Y33049D01*
X363485Y33344D01*
X363318Y33594D01*
X363068Y33761D01*
X362773Y33820D01*
X362063D01*
X361657Y34091D01*
X361120Y34198D01*
X360582Y34091D01*
X360541Y34064D01*
X359319D01*
X358782Y33957D01*
X358758Y33941D01*
X344037D01*
X343499Y33834D01*
X343043Y33530D01*
X323998Y14484D01*
X91279D01*
X38842Y66921D01*
X38387Y67225D01*
X37849Y67332D01*
X33197D01*
X32994Y67372D01*
Y69031D01*
Y72968D01*
Y76330D01*
X31228D01*
X31192Y76508D01*
X30971Y76838D01*
X30641Y77059D01*
X30250Y77137D01*
X28112D01*
X27988Y77373D01*
X27955Y77637D01*
X28029Y77696D01*
X28179Y77811D01*
X28229Y77867D01*
X28246Y77896D01*
X28271Y77918D01*
X28345Y78067D01*
X28428Y78211D01*
X28433Y78244D01*
X28448Y78275D01*
X28459Y78441D01*
X28481Y78605D01*
X28472Y78638D01*
X28475Y78672D01*
X28437Y78965D01*
X28767Y79341D01*
X30526D01*
X31273Y79439D01*
X31969Y79727D01*
X32567Y80186D01*
X33026Y80784D01*
X33314Y81480D01*
X33413Y82228D01*
X33314Y82975D01*
X33026Y83671D01*
X32567Y84269D01*
X31969Y84728D01*
X31273Y85016D01*
X31255Y85041D01*
X31270Y85115D01*
Y95580D01*
X58500D01*
X58890Y95658D01*
X59221Y95879D01*
X59442Y96210D01*
X59520Y96600D01*
Y112300D01*
X59442Y112690D01*
X59221Y113021D01*
X58890Y113242D01*
X58500Y113320D01*
X28185D01*
X27795Y113242D01*
X27464Y113021D01*
X27243Y112690D01*
X27165Y112300D01*
Y112103D01*
X19740D01*
Y112300D01*
X19662Y112690D01*
X19441Y113021D01*
X19111Y113242D01*
X18721Y113320D01*
X17920D01*
Y125000D01*
X17842Y125390D01*
X17621Y125721D01*
X17290Y125942D01*
X16900Y126020D01*
D02*
G37*
G36*
X300286Y28573D02*
X295743D01*
Y27043D01*
X292248D01*
X292144Y27112D01*
X291722Y27196D01*
X288041D01*
X287620Y27112D01*
X287262Y26874D01*
X287023Y26516D01*
X286940Y26094D01*
Y24933D01*
X287023Y24511D01*
X287262Y24154D01*
X287620Y23915D01*
X288041Y23831D01*
X291722D01*
X292144Y23915D01*
X292248Y23984D01*
X295743D01*
Y22455D01*
X300286D01*
Y28573D01*
D02*
G37*
G36*
X381435Y39725D02*
X378128D01*
X377833Y39667D01*
X377583Y39500D01*
X377415Y39250D01*
X377357Y38955D01*
Y38443D01*
X377415Y38148D01*
X377583Y37898D01*
Y37531D01*
X377415Y37281D01*
X377357Y36986D01*
Y36474D01*
X377415Y36179D01*
X377583Y35929D01*
Y35563D01*
X377415Y35313D01*
X377357Y35018D01*
Y34506D01*
X377415Y34211D01*
X377583Y33961D01*
Y33594D01*
X377415Y33344D01*
X377357Y33049D01*
Y32537D01*
X377415Y32242D01*
X377583Y31992D01*
Y31626D01*
X377415Y31376D01*
X377357Y31081D01*
Y30569D01*
X377415Y30274D01*
X377583Y30024D01*
Y29657D01*
X377415Y29407D01*
X377357Y29112D01*
Y28600D01*
X377415Y28305D01*
X377583Y28055D01*
Y27689D01*
X377415Y27439D01*
X377357Y27144D01*
Y26632D01*
X377415Y26337D01*
X377583Y26087D01*
X377833Y25920D01*
X378128Y25861D01*
X381435D01*
X381730Y25920D01*
X381980Y26087D01*
X382147Y26337D01*
X382205Y26632D01*
Y27144D01*
X382147Y27439D01*
X381980Y27689D01*
Y28055D01*
X382147Y28305D01*
X382205Y28600D01*
Y29112D01*
X382147Y29407D01*
X381980Y29657D01*
Y30024D01*
X382147Y30274D01*
X382205Y30569D01*
Y31081D01*
X382147Y31376D01*
X381980Y31626D01*
Y31992D01*
X382147Y32242D01*
X382205Y32537D01*
Y33049D01*
X382147Y33344D01*
X381980Y33594D01*
Y33961D01*
X382147Y34211D01*
X382205Y34506D01*
Y35018D01*
X382147Y35313D01*
X381980Y35563D01*
Y35929D01*
X382147Y36179D01*
X382205Y36474D01*
Y36986D01*
X382147Y37281D01*
X381980Y37531D01*
Y37898D01*
X382147Y38148D01*
X382205Y38443D01*
Y38955D01*
X382147Y39250D01*
X381980Y39500D01*
X381730Y39667D01*
X381435Y39725D01*
D02*
G37*
%LPD*%
G36*
X110934Y315543D02*
X111036Y315028D01*
X111020Y314912D01*
X110575Y314228D01*
X102551D01*
Y319747D01*
X77251D01*
Y327508D01*
X101741D01*
Y325172D01*
X107859D01*
Y327508D01*
X110934D01*
Y315543D01*
D02*
G37*
G36*
X201085Y315496D02*
X201178Y315028D01*
X201036Y314687D01*
X200695Y314228D01*
X192600D01*
Y319747D01*
X167300D01*
Y327508D01*
X191892D01*
Y325126D01*
X198010D01*
Y327508D01*
X201085D01*
Y315496D01*
D02*
G37*
G36*
X292685Y315296D02*
X292738Y315028D01*
X292235Y314228D01*
X283551D01*
Y319747D01*
X258251D01*
Y327508D01*
X283492D01*
Y324926D01*
X289610D01*
Y327508D01*
X292685D01*
Y315296D01*
D02*
G37*
G36*
X328951D02*
X303618D01*
Y324926D01*
X328951D01*
Y315296D01*
D02*
G37*
G36*
X238000D02*
X221473D01*
X221349Y315347D01*
X220553D01*
X220430Y315296D01*
X212200D01*
Y324926D01*
X238000D01*
Y315296D01*
D02*
G37*
G36*
X147951D02*
X131435D01*
X131198Y315394D01*
X130402D01*
X130165Y315296D01*
X122151D01*
Y324926D01*
X147951D01*
Y315296D01*
D02*
G37*
G36*
X123085Y310909D02*
Y306972D01*
X125002D01*
X125311Y306765D01*
X125849Y306658D01*
X128429D01*
X128720Y306367D01*
X129232Y306155D01*
X129133Y305655D01*
X125849D01*
X125264Y305538D01*
X124781Y305216D01*
X123085D01*
Y303035D01*
Y299409D01*
X109715D01*
Y303035D01*
Y307184D01*
X108019D01*
X107536Y307507D01*
X106951Y307623D01*
X102804D01*
X102585Y308051D01*
X102817Y308501D01*
X106951D01*
X107536Y308618D01*
X108019Y308940D01*
X109715D01*
Y312779D01*
X123085D01*
Y310909D01*
D02*
G37*
G36*
X213236Y310862D02*
Y306925D01*
X215153D01*
X215462Y306718D01*
X216000Y306611D01*
X218627D01*
X218918Y306320D01*
X219430Y306108D01*
X219331Y305608D01*
X216000D01*
X215415Y305491D01*
X214932Y305169D01*
X213236D01*
Y302988D01*
Y299362D01*
X199866D01*
Y302988D01*
Y307137D01*
X198170D01*
X197688Y307460D01*
X197102Y307576D01*
X192956D01*
X192737Y308004D01*
X192968Y308454D01*
X197102D01*
X197688Y308571D01*
X198170Y308893D01*
X199866D01*
Y312732D01*
X213236D01*
Y310862D01*
D02*
G37*
G36*
X304836Y310662D02*
Y306725D01*
X306753D01*
X307063Y306518D01*
X307600Y306411D01*
X310569D01*
X310860Y306120D01*
X311372Y305908D01*
X311272Y305408D01*
X307600D01*
X307015Y305291D01*
X306532Y304969D01*
X304836D01*
Y302788D01*
Y299162D01*
X291466D01*
Y302788D01*
Y306937D01*
X289770D01*
X289288Y307260D01*
X288702Y307376D01*
X284556D01*
X284337Y307804D01*
X284568Y308255D01*
X288702D01*
X289288Y308371D01*
X289770Y308693D01*
X291466D01*
Y312532D01*
X304836D01*
Y310662D01*
D02*
G37*
G36*
X382001Y156600D02*
X385300D01*
Y142900D01*
X380836D01*
X380572Y143222D01*
Y148241D01*
X380499Y148609D01*
X380290Y148921D01*
X379978Y149129D01*
X379811Y149163D01*
Y152018D01*
X379695Y152603D01*
X379363Y153100D01*
X377281Y155181D01*
X376785Y155513D01*
X376200Y155629D01*
X373415D01*
X373001Y156044D01*
Y191000D01*
X382001D01*
Y156600D01*
D02*
G37*
G36*
X16900Y112300D02*
X18721D01*
Y111083D01*
X28185D01*
Y112300D01*
X58500D01*
Y96600D01*
X33800D01*
X31270D01*
Y98100D01*
X31192Y98490D01*
X30971Y98821D01*
X30641Y99042D01*
X30250Y99120D01*
X18020D01*
Y102800D01*
X17942Y103190D01*
X17721Y103521D01*
X17660Y103582D01*
X17330Y103803D01*
X16939Y103880D01*
X9501D01*
Y125000D01*
X16900D01*
Y112300D01*
D02*
G37*
G36*
X17000Y102800D02*
Y98100D01*
X30250D01*
Y85115D01*
X25408D01*
X24661Y85016D01*
X23964Y84728D01*
X23367Y84269D01*
X22908Y83671D01*
X22619Y82975D01*
X22521Y82228D01*
X22619Y81480D01*
X22908Y80784D01*
X23367Y80186D01*
X23964Y79727D01*
X24661Y79439D01*
X25408Y79341D01*
X27360D01*
X27463Y78541D01*
X27414Y78485D01*
X26706Y78121D01*
X26372Y78259D01*
X25703D01*
X25085Y78003D01*
X24613Y77530D01*
X24357Y76912D01*
Y76244D01*
X24613Y75626D01*
X25085Y75153D01*
X25703Y74897D01*
X26372D01*
X26990Y75153D01*
X27463Y75626D01*
X27667Y76117D01*
X30250D01*
Y73180D01*
X27506D01*
Y69031D01*
Y65094D01*
Y61157D01*
Y57220D01*
X30250D01*
Y54283D01*
X27667D01*
X27463Y54774D01*
X26990Y55247D01*
X26372Y55503D01*
X25703D01*
X25085Y55247D01*
X24613Y54774D01*
X24357Y54156D01*
Y53822D01*
X9501D01*
Y79341D01*
X14109D01*
X14856Y79439D01*
X15552Y79727D01*
X16150Y80186D01*
X16609Y80784D01*
X16897Y81480D01*
X16996Y82228D01*
X16897Y82975D01*
X16609Y83671D01*
X16150Y84269D01*
X15552Y84728D01*
X14856Y85016D01*
X14109Y85115D01*
X9501D01*
Y102861D01*
X16939D01*
X17000Y102800D01*
D02*
G37*
G36*
X363299Y27717D02*
X363750Y27382D01*
Y26092D01*
X365039D01*
X365374Y25642D01*
X365522Y25293D01*
X365487Y25116D01*
Y21809D01*
X365545Y21514D01*
X365712Y21264D01*
X365963Y21097D01*
X366258Y21038D01*
X366769D01*
X367064Y21097D01*
X367064Y21097D01*
X367314Y21264D01*
X367681Y21264D01*
X367931Y21097D01*
X367931Y21097D01*
X368226Y21038D01*
X368738D01*
X369033Y21097D01*
X369283Y21264D01*
X369650Y21264D01*
X369900Y21097D01*
X370195Y21038D01*
X370706D01*
X371001Y21097D01*
X371251Y21264D01*
X371618Y21264D01*
X371868Y21097D01*
X372163Y21038D01*
X372675D01*
X372970Y21097D01*
X373220Y21264D01*
X373587Y21264D01*
X373837Y21097D01*
X374131Y21038D01*
X374643D01*
X374938Y21097D01*
X375188Y21264D01*
X375555Y21264D01*
X375805Y21097D01*
X376100Y21038D01*
X376612D01*
X376907Y21097D01*
X377157Y21264D01*
X377324Y21514D01*
X377382Y21809D01*
Y22565D01*
X383282D01*
Y14027D01*
X358282D01*
Y26946D01*
X358788Y27452D01*
X361120D01*
X361657Y27559D01*
X362063Y27830D01*
X362773D01*
X362950Y27865D01*
X363299Y27717D01*
D02*
G37*
D12*
X105100Y45417D02*
Y128783D01*
X322700Y162600D02*
X333282Y152018D01*
X225300Y162600D02*
X322700D01*
X218491Y155791D02*
X225300Y162600D01*
X218491Y143613D02*
X223322Y138783D01*
X218491Y143613D02*
Y155791D01*
X257112Y156600D02*
X281709D01*
X223322Y148783D02*
X249295D01*
X257112Y156600D01*
X206887Y115813D02*
X213500Y109200D01*
X287100D01*
X206887Y115813D02*
Y142348D01*
X213322Y148783D01*
X287100Y109200D02*
X307517Y88783D01*
X350795Y213554D02*
X386621D01*
X350795Y198200D02*
X368282D01*
X316020Y77420D02*
X324580Y85980D01*
X303165Y40165D02*
X316020Y53020D01*
Y77420D01*
X372143Y102100D02*
Y136752D01*
X368282Y140613D02*
X372143Y136752D01*
X378144Y145593D02*
X378282Y145731D01*
X378144Y93018D02*
Y145593D01*
X328282Y76834D02*
Y135300D01*
X324700Y154100D02*
X328282Y150518D01*
X333282Y145731D02*
Y152018D01*
X302500Y154100D02*
X324700D01*
X328282Y145731D02*
Y150518D01*
X370648Y152018D02*
X371782D01*
X373282Y150518D01*
Y145731D02*
Y150518D01*
X307517Y88783D02*
X318361D01*
X368282Y140613D02*
Y145731D01*
X383282Y71500D02*
Y76834D01*
X353282Y71500D02*
Y76834D01*
X343282Y69232D02*
Y76834D01*
X348282Y70446D02*
Y76834D01*
X338282D02*
Y85980D01*
X333282Y76834D02*
Y83118D01*
X323282Y71500D02*
Y76834D01*
Y29254D02*
Y71500D01*
X324580Y85980D02*
Y92880D01*
X298014Y32994D02*
X302148D01*
X372419Y42124D02*
Y45868D01*
X374251Y47700D01*
X286176Y40165D02*
X303165D01*
X281535Y35524D02*
X286176Y40165D01*
X281535Y29254D02*
Y35524D01*
X370450Y42124D02*
Y50249D01*
X373282Y53081D02*
Y76834D01*
X370450Y50249D02*
X373282Y53081D01*
X368282Y54232D02*
X368482Y54032D01*
Y42124D02*
Y54032D01*
X326782Y25514D02*
X343392Y42124D01*
X364545D01*
X314935Y25514D02*
X326782D01*
X289882Y32994D02*
X298014D01*
X289882Y25514D02*
X298014D01*
X306282D02*
X314935D01*
X306282Y32994D02*
X314935D01*
X276700Y148800D02*
X297200D01*
X302500Y154100D01*
X309432Y145731D02*
X323282D01*
X302500Y138800D02*
X309432Y145731D01*
X276700Y138800D02*
X302500D01*
X307000Y97086D02*
X310303Y93783D01*
X307000Y97086D02*
Y109620D01*
X310303Y93783D02*
X318361D01*
X297820Y118800D02*
X307000Y109620D01*
X276700Y118800D02*
X297820D01*
X276709Y128791D02*
X318352D01*
X276700Y128800D02*
X276709Y128791D01*
X318352D02*
X318361Y128783D01*
X5367Y121500D02*
Y128400D01*
X368282Y198200D02*
X386621D01*
X368282Y167182D02*
Y198200D01*
Y62500D02*
Y76834D01*
Y159600D02*
Y167182D01*
X378282Y145731D02*
Y152018D01*
X376200Y154100D02*
X378282Y152018D01*
X372782Y154100D02*
X376200D01*
X371282Y155600D02*
X372782Y154100D01*
X370648Y159600D02*
X371282Y158966D01*
Y155600D02*
Y158966D01*
X368282Y159600D02*
X370648D01*
X386621Y213554D02*
Y223477D01*
X374408D02*
X378354D01*
X56710Y279859D02*
X56722Y279872D01*
X65722D01*
X56622Y288127D02*
Y322300D01*
X65722Y288227D02*
Y292408D01*
X105120Y316491D02*
Y318857D01*
X106068Y315543D02*
X110494D01*
X104800Y319176D02*
X105120Y318857D01*
X96733Y304125D02*
X106951D01*
X97720Y306094D02*
X106951D01*
X122263Y277710D02*
Y284376D01*
X115226Y273576D02*
Y277710D01*
Y286580D01*
X114432Y287374D02*
X115226Y286580D01*
X108126Y277710D02*
Y282039D01*
X112463Y286376D01*
X108126Y273576D02*
Y277710D01*
X122263Y273576D02*
Y277710D01*
X116400Y290239D02*
X122263Y284376D01*
X114432Y287374D02*
Y296645D01*
X110494Y290220D02*
Y296645D01*
X101195Y280920D02*
X110494Y290220D01*
X112463Y286376D02*
Y296645D01*
X101195Y277710D02*
Y280920D01*
X116400Y290239D02*
Y296645D01*
X81400Y295276D02*
X84995D01*
X93263D02*
X96733D01*
X93263Y309710D02*
X94535Y308439D01*
X95375D02*
X97720Y306094D01*
X94535Y308439D02*
X95375D01*
X94050Y301443D02*
X96733Y304125D01*
X85771Y309081D02*
X86400Y309710D01*
X81798Y309081D02*
X85771D01*
X93263Y301443D02*
X94050D01*
X96733Y295276D02*
X103613Y302157D01*
X125849Y315543D02*
X126900Y316594D01*
X120337Y315543D02*
Y330902D01*
X122306Y315543D02*
X125849D01*
X120337Y330902D02*
X121428Y331992D01*
X125400D01*
X126900Y316594D02*
Y319394D01*
X142331Y296096D02*
Y300176D01*
X120428Y293665D02*
X129200Y284892D01*
X118368Y292188D02*
X120337Y290220D01*
X118368Y292188D02*
Y296645D01*
X120428Y293665D02*
Y296554D01*
X134063Y300176D02*
Y304125D01*
Y308062D01*
X126900Y297713D02*
Y300098D01*
X126809Y300188D02*
X126900Y300098D01*
X125849Y304125D02*
X134063D01*
X125849Y300188D02*
X126809D01*
X122396Y294881D02*
X122953D01*
X122306Y294972D02*
Y296645D01*
Y294972D02*
X122396Y294881D01*
X120337Y296645D02*
X120428Y296554D01*
X122953Y294881D02*
X136141Y281694D01*
X105120Y316491D02*
X106068Y315543D01*
X101730Y310031D02*
X106951D01*
X103613Y302157D02*
X106951D01*
X100780Y309081D02*
X101730Y310031D01*
X129200Y277710D02*
Y284892D01*
X109700Y332394D02*
X111232D01*
X112463Y331162D01*
X136100Y277710D02*
X136141Y277751D01*
Y281694D01*
X136100Y269443D02*
X140551D01*
X112463Y315543D02*
Y331162D01*
X195271Y316444D02*
Y318810D01*
X194951Y319130D02*
X195271Y318810D01*
Y316444D02*
X196219Y315496D01*
X226251Y269396D02*
X230702D01*
X199851Y332347D02*
X201383D01*
X211579Y331945D02*
X215551D01*
X210488Y330855D02*
X211579Y331945D01*
X202614Y315496D02*
Y331115D01*
X210488Y315496D02*
Y330855D01*
X201383Y332347D02*
X202614Y331115D01*
X191346Y277663D02*
Y280873D01*
X200646Y290173D01*
X198277Y277663D02*
Y281993D01*
Y273530D02*
Y277663D01*
Y281993D02*
X202614Y286330D01*
X200646Y290173D02*
Y296598D01*
X187871Y306047D02*
X197102D01*
X191882Y309984D02*
X197102D01*
X185527Y308392D02*
X187871Y306047D01*
X186884Y304078D02*
X197102D01*
X190932Y309034D02*
X191882Y309984D01*
X196219Y315496D02*
X200646D01*
X193765Y302110D02*
X197102D01*
X183414Y309663D02*
X184686Y308392D01*
X185527D01*
X184202Y301396D02*
X186884Y304078D01*
X183414Y295230D02*
X186884D01*
X193765Y302110D01*
X183414Y301396D02*
X184202D01*
X171551Y295230D02*
X175146D01*
X171949Y309034D02*
X175922D01*
X176551Y309663D01*
X224214Y304078D02*
Y308015D01*
X216000Y304078D02*
X224214D01*
X232482Y296049D02*
Y300130D01*
X224214D02*
Y304078D01*
X212414Y273530D02*
Y277663D01*
X205377Y273530D02*
Y277663D01*
X226251D02*
X226292Y277704D01*
X217051Y316547D02*
Y319347D01*
X212457Y315496D02*
X216000D01*
X217051Y316547D01*
Y297666D02*
Y300051D01*
X216961Y300141D02*
X217051Y300051D01*
X216000Y300141D02*
X216961D01*
X226292Y277704D02*
Y281647D01*
X213104Y294834D02*
X226292Y281647D01*
X219351Y277663D02*
Y284845D01*
X210579Y293618D02*
X219351Y284845D01*
X212457Y294925D02*
Y296598D01*
Y294925D02*
X212547Y294834D01*
X210488Y296598D02*
X210579Y296508D01*
X202614Y286330D02*
Y296598D01*
X212547Y294834D02*
X213104D01*
X212414Y277663D02*
Y284330D01*
X204583Y287327D02*
Y296598D01*
Y287327D02*
X205377Y286533D01*
X206551Y290193D02*
X212414Y284330D01*
X205377Y277663D02*
Y286533D01*
X210579Y293618D02*
Y296508D01*
X208520Y292141D02*
X210488Y290173D01*
X208520Y292141D02*
Y296598D01*
X206551Y290193D02*
Y296598D01*
X324082Y295849D02*
Y299930D01*
X317851Y269196D02*
X322302D01*
X315814Y299930D02*
Y303878D01*
X304057Y315296D02*
X307600D01*
X315814Y303878D02*
Y307815D01*
X307600Y303878D02*
X315814D01*
X300120Y291941D02*
Y296398D01*
X298151Y289992D02*
Y296398D01*
X296183Y287127D02*
X296977Y286333D01*
X296183Y287127D02*
Y296398D01*
X317892Y277504D02*
Y281447D01*
X317851Y277463D02*
X317892Y277504D01*
X310951Y277463D02*
Y284645D01*
X307600Y315296D02*
X308651Y316347D01*
Y319147D01*
X302179Y293418D02*
Y296307D01*
Y293418D02*
X310951Y284645D01*
X304704Y294634D02*
X317892Y281447D01*
X304057Y294725D02*
X304147Y294634D01*
X304057Y294725D02*
Y296398D01*
X308651Y297466D02*
Y299851D01*
X304147Y294634D02*
X304704D01*
X302088Y296398D02*
X302179Y296307D01*
X308561Y299941D02*
X308651Y299851D01*
X307600Y299941D02*
X308561D01*
X304014Y273330D02*
Y277463D01*
Y284130D01*
X298151Y289992D02*
X304014Y284130D01*
X300120Y291941D02*
X302088Y289973D01*
X296977Y277463D02*
Y286333D01*
Y273330D02*
Y277463D01*
X267522Y308834D02*
X268151Y309463D01*
X263151Y295030D02*
X266746D01*
X263549Y308834D02*
X267522D01*
X289877Y273330D02*
Y277463D01*
Y281792D02*
X294214Y286130D01*
X289877Y277463D02*
Y281792D01*
X302088Y330655D02*
X303179Y331745D01*
X302088Y315296D02*
Y330655D01*
X303179Y331745D02*
X307151D01*
X278484Y295030D02*
X285365Y301910D01*
X278484Y303878D02*
X288702D01*
X279471Y305847D02*
X288702D01*
X286871Y316244D02*
Y318610D01*
Y316244D02*
X287819Y315296D01*
X292246D01*
X286551Y318930D02*
X286871Y318610D01*
X291451Y332147D02*
X292983D01*
X294214Y315296D02*
Y330915D01*
X292983Y332147D02*
X294214Y330915D01*
X283482Y309784D02*
X288702D01*
X282532Y308834D02*
X283482Y309784D01*
X285365Y301910D02*
X288702D01*
X275014Y295030D02*
X278484D01*
X277127Y308192D02*
X279471Y305847D01*
X275014Y309463D02*
X276286Y308192D01*
X277127D01*
X275802Y301196D02*
X278484Y303878D01*
X275014Y301196D02*
X275802D01*
X294214Y286130D02*
Y296398D01*
X292246Y289973D02*
Y296398D01*
X282946Y277463D02*
Y280673D01*
X292246Y289973D01*
D13*
X30250Y77798D02*
D03*
Y74649D02*
D03*
Y55751D02*
D03*
Y52602D02*
D03*
D14*
Y66184D02*
D03*
Y68153D02*
D03*
Y70121D02*
D03*
Y72090D02*
D03*
Y64216D02*
D03*
Y62247D02*
D03*
Y60279D02*
D03*
Y58310D02*
D03*
D15*
X323282Y29254D02*
D03*
X314935Y25514D02*
D03*
Y32994D02*
D03*
X289882Y25514D02*
D03*
Y32994D02*
D03*
X281535Y29254D02*
D03*
D16*
X46484Y104300D02*
D03*
D17*
X23453Y95245D02*
D03*
Y104300D02*
D03*
Y113355D02*
D03*
D18*
X350795Y213554D02*
D03*
X386621D02*
D03*
X350795Y198200D02*
D03*
X386621D02*
D03*
D19*
X357888Y117188D02*
D03*
X352376Y111676D02*
D03*
Y117188D02*
D03*
Y122700D02*
D03*
X357888Y111676D02*
D03*
Y122700D02*
D03*
X363400Y111676D02*
D03*
Y117188D02*
D03*
Y122700D02*
D03*
D20*
X388282Y145731D02*
D03*
X383282D02*
D03*
X378282D02*
D03*
X373282D02*
D03*
X368282D02*
D03*
X363282D02*
D03*
X358282D02*
D03*
X353282D02*
D03*
X348282D02*
D03*
X343282D02*
D03*
X338282D02*
D03*
X333282D02*
D03*
X328282D02*
D03*
X323282D02*
D03*
Y76834D02*
D03*
X328282D02*
D03*
X333282D02*
D03*
X338282D02*
D03*
X343282D02*
D03*
X348282D02*
D03*
X353282D02*
D03*
X358282D02*
D03*
X363282D02*
D03*
X368282D02*
D03*
X373282D02*
D03*
X378282D02*
D03*
X383282D02*
D03*
X388282D02*
D03*
D21*
X318361Y128783D02*
D03*
Y123783D02*
D03*
Y118783D02*
D03*
Y113783D02*
D03*
Y108783D02*
D03*
Y103783D02*
D03*
Y98783D02*
D03*
Y93783D02*
D03*
Y88783D02*
D03*
Y133783D02*
D03*
D23*
X364545Y42124D02*
D03*
X366513D02*
D03*
X368482D02*
D03*
X370450D02*
D03*
X372419D02*
D03*
X374387D02*
D03*
X376356D02*
D03*
Y23463D02*
D03*
X374387D02*
D03*
X372419D02*
D03*
X370450D02*
D03*
X368482D02*
D03*
X366513D02*
D03*
X364545D02*
D03*
D24*
X379781Y38699D02*
D03*
Y36730D02*
D03*
Y34762D02*
D03*
Y32793D02*
D03*
Y30825D02*
D03*
Y28856D02*
D03*
Y26888D02*
D03*
X361120D02*
D03*
Y28856D02*
D03*
Y30825D02*
D03*
Y32793D02*
D03*
Y34762D02*
D03*
Y36730D02*
D03*
Y38699D02*
D03*
D25*
X370450Y32793D02*
D03*
X206551Y306047D02*
D03*
X116400Y306094D02*
D03*
X298151Y305847D02*
D03*
D26*
X212457Y315496D02*
D03*
X210488D02*
D03*
X208520D02*
D03*
X206551D02*
D03*
X204583D02*
D03*
X202614D02*
D03*
X200646D02*
D03*
X212457Y296598D02*
D03*
X210488D02*
D03*
X208520D02*
D03*
X206551D02*
D03*
X204583D02*
D03*
X202614D02*
D03*
X200646D02*
D03*
X110494Y296645D02*
D03*
X112463D02*
D03*
X114432D02*
D03*
X116400D02*
D03*
X118368D02*
D03*
X120337D02*
D03*
X122306D02*
D03*
X110494Y315543D02*
D03*
X112463D02*
D03*
X114432D02*
D03*
X116400D02*
D03*
X118368D02*
D03*
X120337D02*
D03*
X122306D02*
D03*
X304057Y315296D02*
D03*
X302088D02*
D03*
X300120D02*
D03*
X298151D02*
D03*
X296183D02*
D03*
X294214D02*
D03*
X292246D02*
D03*
X304057Y296398D02*
D03*
X302088D02*
D03*
X300120D02*
D03*
X298151D02*
D03*
X296183D02*
D03*
X294214D02*
D03*
X292246D02*
D03*
D27*
X216000Y311952D02*
D03*
Y309984D02*
D03*
Y308015D02*
D03*
Y306047D02*
D03*
Y304078D02*
D03*
Y302110D02*
D03*
Y300141D02*
D03*
X197102Y311952D02*
D03*
Y309984D02*
D03*
Y308015D02*
D03*
Y306047D02*
D03*
Y304078D02*
D03*
Y302110D02*
D03*
Y300141D02*
D03*
X106951Y300188D02*
D03*
Y302157D02*
D03*
Y304125D02*
D03*
Y306094D02*
D03*
Y308062D02*
D03*
Y310031D02*
D03*
Y311999D02*
D03*
X125849Y300188D02*
D03*
Y302157D02*
D03*
Y304125D02*
D03*
Y306094D02*
D03*
Y308062D02*
D03*
Y310031D02*
D03*
Y311999D02*
D03*
X307600Y311752D02*
D03*
Y309784D02*
D03*
Y307815D02*
D03*
Y305847D02*
D03*
Y303878D02*
D03*
Y301910D02*
D03*
Y299941D02*
D03*
X288702Y311752D02*
D03*
Y309784D02*
D03*
Y307815D02*
D03*
Y305847D02*
D03*
Y303878D02*
D03*
Y301910D02*
D03*
Y299941D02*
D03*
D28*
X375702Y159600D02*
D03*
X388300D02*
D03*
X375702Y187000D02*
D03*
X388300D02*
D03*
X375702Y178000D02*
D03*
X388300D02*
D03*
X375702Y168800D02*
D03*
X388300D02*
D03*
D29*
X13635Y128400D02*
D03*
X5367D02*
D03*
X84995Y295276D02*
D03*
X93263D02*
D03*
X142331Y300176D02*
D03*
X134063D02*
D03*
Y308062D02*
D03*
X142331D02*
D03*
X275014Y295030D02*
D03*
X266746D02*
D03*
X315814Y299930D02*
D03*
X324082D02*
D03*
Y307815D02*
D03*
X315814D02*
D03*
X183414Y295230D02*
D03*
X175146D02*
D03*
X224214Y300130D02*
D03*
X232482D02*
D03*
Y308015D02*
D03*
X224214D02*
D03*
X368282Y167182D02*
D03*
X360014D02*
D03*
X386621Y223477D02*
D03*
X378354D02*
D03*
X368282Y159600D02*
D03*
X360014D02*
D03*
X298014Y25514D02*
D03*
X306282D02*
D03*
Y32994D02*
D03*
X298014D02*
D03*
X13635Y99861D02*
D03*
X5367D02*
D03*
X13635Y92727D02*
D03*
X5367D02*
D03*
X13635Y114200D02*
D03*
X5367D02*
D03*
X13635Y106900D02*
D03*
X5367D02*
D03*
X13635Y121500D02*
D03*
X5367D02*
D03*
D30*
X219488Y331945D02*
D03*
X215551D02*
D03*
X109700Y332394D02*
D03*
X105763D02*
D03*
X125400Y331992D02*
D03*
X129337D02*
D03*
X287514Y332147D02*
D03*
X291451D02*
D03*
X311088Y331745D02*
D03*
X307151D02*
D03*
X195914Y332347D02*
D03*
X199851D02*
D03*
D31*
X93263Y301443D02*
D03*
Y309710D02*
D03*
X101195Y269443D02*
D03*
Y277710D02*
D03*
X134063Y327661D02*
D03*
Y319394D02*
D03*
X79716Y331116D02*
D03*
Y322848D02*
D03*
X87216D02*
D03*
Y331116D02*
D03*
X126900Y319394D02*
D03*
Y327661D02*
D03*
X104800Y319176D02*
D03*
Y327444D02*
D03*
X129200Y269443D02*
D03*
Y277710D02*
D03*
X136100Y269443D02*
D03*
Y277710D02*
D03*
X86400Y309710D02*
D03*
Y301443D02*
D03*
X108126Y269443D02*
D03*
Y277710D02*
D03*
X115226Y269443D02*
D03*
Y277710D02*
D03*
X122263Y269443D02*
D03*
Y277710D02*
D03*
X275014Y309463D02*
D03*
Y301196D02*
D03*
X282946Y277463D02*
D03*
Y269196D02*
D03*
X315814Y319147D02*
D03*
Y327415D02*
D03*
X261467Y322601D02*
D03*
Y330869D02*
D03*
X268967D02*
D03*
Y322601D02*
D03*
X308651Y327415D02*
D03*
Y319147D02*
D03*
X286551Y327197D02*
D03*
Y318930D02*
D03*
X310951Y277463D02*
D03*
Y269196D02*
D03*
X317851Y277463D02*
D03*
Y269196D02*
D03*
X268151Y301196D02*
D03*
Y309463D02*
D03*
X289877Y277463D02*
D03*
Y269196D02*
D03*
X296977Y277463D02*
D03*
Y269196D02*
D03*
X304014Y277463D02*
D03*
Y269196D02*
D03*
X183414Y309663D02*
D03*
Y301396D02*
D03*
X191346Y277663D02*
D03*
Y269396D02*
D03*
X224214Y319347D02*
D03*
Y327615D02*
D03*
X169867Y322801D02*
D03*
Y331069D02*
D03*
X177367D02*
D03*
Y322801D02*
D03*
X217051Y327615D02*
D03*
Y319347D02*
D03*
X194951Y327397D02*
D03*
Y319130D02*
D03*
X219351Y277663D02*
D03*
Y269396D02*
D03*
X226251Y277663D02*
D03*
Y269396D02*
D03*
X176551Y301396D02*
D03*
Y309663D02*
D03*
X198277Y277663D02*
D03*
Y269396D02*
D03*
X205377Y277663D02*
D03*
Y269396D02*
D03*
X212414Y277663D02*
D03*
Y269396D02*
D03*
X56622Y279859D02*
D03*
Y288127D02*
D03*
X65722Y279960D02*
D03*
Y288227D02*
D03*
X352576Y26888D02*
D03*
Y18620D02*
D03*
X372143Y17685D02*
D03*
Y9417D02*
D03*
X364545D02*
D03*
Y17685D02*
D03*
X379505Y9417D02*
D03*
Y17685D02*
D03*
X368282Y54232D02*
D03*
Y62500D02*
D03*
D32*
X95761Y335243D02*
D03*
Y322645D02*
D03*
X142263Y331992D02*
D03*
Y319394D02*
D03*
X277512Y322398D02*
D03*
Y334997D02*
D03*
X324014Y319147D02*
D03*
Y331745D02*
D03*
X185912Y322598D02*
D03*
Y335196D02*
D03*
X232414Y319347D02*
D03*
Y331945D02*
D03*
D64*
X311993Y294873D02*
X341800Y265066D01*
X311993Y294873D02*
Y300971D01*
X341800Y182014D02*
Y265066D01*
X311053Y301910D02*
X311993Y300971D01*
X356446Y157190D02*
X363282Y150354D01*
Y145731D02*
Y150354D01*
X356446Y157190D02*
Y167368D01*
X341800Y182014D02*
X356446Y167368D01*
X306451Y207100D02*
X353282Y160269D01*
Y145731D02*
Y160269D01*
X307400Y198882D02*
Y199200D01*
X348439Y145889D02*
Y157843D01*
X307400Y198882D02*
X348439Y157843D01*
X253200Y207100D02*
X306451D01*
X173800Y195700D02*
X303566D01*
X343282Y155984D01*
Y145731D02*
Y155984D01*
X307600Y301910D02*
X311053D01*
X358282Y145731D02*
Y150518D01*
X302500Y189748D02*
X338282Y153966D01*
X302500Y189748D02*
Y189800D01*
X338282Y145731D02*
Y153966D01*
X234848Y225452D02*
X253200Y207100D01*
X144697Y224803D02*
X173800Y195700D01*
X234848Y225452D02*
Y280360D01*
X220051Y295157D02*
X234848Y280360D01*
X220051Y295157D02*
Y300956D01*
X216213Y301897D02*
X219110D01*
X216000Y302110D02*
X216213Y301897D01*
X219110D02*
X220051Y300956D01*
X348282Y145731D02*
X348439Y145889D01*
X144697Y224803D02*
Y279249D01*
X129853Y294092D02*
X144697Y279249D01*
X129853Y294092D02*
Y301549D01*
X129245Y302157D02*
X129853Y301549D01*
X125849Y302157D02*
X129245D01*
X363282Y67500D02*
Y76834D01*
X358282Y62500D02*
X363282Y67500D01*
X378282Y71500D02*
Y76834D01*
X90095Y11625D02*
X325182D01*
X90697Y13080D02*
X324580D01*
X37247Y64473D02*
X90095Y11625D01*
X37849Y65927D02*
X90697Y13080D01*
X344639Y31082D02*
X359197D01*
X325182Y11625D02*
X344639Y31082D01*
X324580Y13080D02*
X344037Y32537D01*
X359197D01*
X360985Y30959D02*
X361120Y30825D01*
X359197Y31082D02*
X359319Y30959D01*
X360985D01*
X359197Y32537D02*
X359319Y32659D01*
X360985D01*
X361120Y32793D01*
X33021Y64473D02*
X37247D01*
X32977Y64429D02*
X33021Y64473D01*
X30463Y64429D02*
X32977D01*
X30250Y64216D02*
X30463Y64429D01*
X32977Y65971D02*
X33021Y65927D01*
X30463Y65971D02*
X32977D01*
X30250Y66184D02*
X30463Y65971D01*
X33021Y65927D02*
X37849D01*
X125849Y308062D02*
X129853D01*
X216000Y308015D02*
X220051D01*
X307600Y307815D02*
X311993D01*
X358206Y28856D02*
X361120D01*
X352576Y26888D02*
X356238D01*
X358206Y28856D01*
D65*
X299251Y341847D02*
X315809Y358404D01*
Y378200D01*
X285809Y353189D02*
X297151Y341847D01*
X285809Y353189D02*
Y378200D01*
X117500Y342094D02*
X133613Y358207D01*
Y378447D01*
X103613Y353880D02*
Y378447D01*
Y353880D02*
X115400Y342094D01*
X192800Y354798D02*
X205551Y342047D01*
X192800Y354798D02*
Y378400D01*
X207651Y319212D02*
Y341951D01*
X222800Y357100D02*
Y378400D01*
X207651Y341951D02*
X222800Y357100D01*
X56522Y322400D02*
X56622Y322300D01*
X99400Y313794D02*
X101195Y311999D01*
X117500Y319259D02*
X118368Y318390D01*
X114432Y318425D02*
X115400Y319394D01*
X114432Y315543D02*
Y318425D01*
X118368Y315543D02*
Y318390D01*
X125849Y311999D02*
X129405D01*
X130800Y313394D01*
X101195Y311999D02*
X106951D01*
X115400Y319394D02*
Y342094D01*
X117500Y319259D02*
Y342094D01*
X189551Y313747D02*
X191346Y311952D01*
X197102D01*
X205551Y319347D02*
Y342047D01*
X216000Y311952D02*
X219557D01*
X220951Y313347D01*
X208520Y315496D02*
Y318344D01*
X204583Y315496D02*
Y318378D01*
X205551Y319347D01*
X207651Y319212D02*
X208520Y318344D01*
X307600Y311752D02*
X311157D01*
X312551Y313147D01*
X299251Y319012D02*
X300120Y318144D01*
Y315296D02*
Y318144D01*
X299251Y319012D02*
Y341847D01*
X281151Y313547D02*
X282946Y311752D01*
X297151Y319147D02*
Y341847D01*
X296183Y315296D02*
Y318178D01*
X297151Y319147D01*
X282946Y311752D02*
X288702D01*
D66*
X133613Y378447D02*
D03*
X118613D02*
D03*
X103613D02*
D03*
X88613D02*
D03*
X315809Y378200D02*
D03*
X300809D02*
D03*
X285809D02*
D03*
X270809D02*
D03*
X222800Y378400D02*
D03*
X207800D02*
D03*
X192800D02*
D03*
X177800D02*
D03*
D67*
X26038Y76578D02*
D03*
Y53822D02*
D03*
D68*
X27967Y82228D02*
D03*
Y48172D02*
D03*
X11550D02*
D03*
Y82228D02*
D03*
D69*
X276700Y118800D02*
D03*
Y128800D02*
D03*
Y138800D02*
D03*
Y148800D02*
D03*
D70*
X164800Y148783D02*
D03*
Y138783D02*
D03*
Y128783D02*
D03*
X154800Y148783D02*
D03*
Y138783D02*
D03*
X95100Y128783D02*
D03*
Y138783D02*
D03*
Y148783D02*
D03*
X105100Y128783D02*
D03*
Y138783D02*
D03*
X348282Y62500D02*
D03*
X358282D02*
D03*
X338282Y52500D02*
D03*
X348282D02*
D03*
X358282D02*
D03*
X223322Y148783D02*
D03*
Y138783D02*
D03*
Y128783D02*
D03*
X213322Y148783D02*
D03*
Y138783D02*
D03*
D71*
X154800Y128783D02*
D03*
X105100Y148783D02*
D03*
X213322Y128783D02*
D03*
D72*
X32900Y322400D02*
D03*
D73*
X56522D02*
D03*
D74*
X44711Y303896D02*
D03*
D75*
X195251Y260847D02*
D03*
X205251D02*
D03*
X215251D02*
D03*
X195251Y230847D02*
D03*
X205251D02*
D03*
X215251D02*
D03*
X125100Y230894D02*
D03*
X115100D02*
D03*
X105100D02*
D03*
X125100Y260894D02*
D03*
X115100D02*
D03*
X105100D02*
D03*
X286851Y260647D02*
D03*
X296851D02*
D03*
X306851D02*
D03*
X286851Y230647D02*
D03*
X296851D02*
D03*
X306851D02*
D03*
D76*
X338282Y62500D02*
D03*
D77*
X357888Y126637D02*
D03*
X352376D02*
D03*
X348439Y122700D02*
D03*
Y117188D02*
D03*
Y111676D02*
D03*
X352376Y107739D02*
D03*
X357888D02*
D03*
X363400D02*
D03*
X367337Y111676D02*
D03*
Y117188D02*
D03*
Y122700D02*
D03*
X363282Y126637D02*
D03*
X355132Y119944D02*
D03*
Y114432D02*
D03*
X360644D02*
D03*
X360644Y119944D02*
D03*
D78*
X206100Y89570D02*
D03*
Y104500D02*
D03*
X178517Y117000D02*
D03*
Y143800D02*
D03*
Y131783D02*
D03*
X246572Y68100D02*
D03*
X246560Y61370D02*
D03*
X246530Y54270D02*
D03*
X246572Y46600D02*
D03*
X246500Y75270D02*
D03*
X246530Y38900D02*
D03*
X278572Y68100D02*
D03*
X278560Y61370D02*
D03*
X278530Y54270D02*
D03*
X278572Y46600D02*
D03*
X278500Y75270D02*
D03*
X278530Y38900D02*
D03*
X308540D02*
D03*
X308510Y75270D02*
D03*
X308540Y54270D02*
D03*
X308570Y61370D02*
D03*
X308582Y68100D02*
D03*
X161240Y80040D02*
D03*
X161270Y71670D02*
D03*
X142240Y71440D02*
D03*
X151910Y71470D02*
D03*
X151940Y89440D02*
D03*
X151970Y80070D02*
D03*
X142270D02*
D03*
X142240Y99801D02*
D03*
X142270Y89570D02*
D03*
X131440Y89470D02*
D03*
Y110140D02*
D03*
X131470Y99831D02*
D03*
X121040D02*
D03*
X121070Y110170D02*
D03*
X121170Y119670D02*
D03*
X105100Y45417D02*
D03*
X358282Y150518D02*
D03*
X307400Y199200D02*
D03*
X302500Y189800D02*
D03*
X281709Y156600D02*
D03*
X328282Y135300D02*
D03*
X372143Y102100D02*
D03*
X378144Y93018D02*
D03*
X324580Y92880D02*
D03*
X370648Y152018D02*
D03*
X383282Y71500D02*
D03*
X353282D02*
D03*
X348282Y70446D02*
D03*
X343282Y69232D02*
D03*
X338282Y85980D02*
D03*
X333282Y83118D02*
D03*
X323282Y71500D02*
D03*
X378282Y71500D02*
D03*
X302148Y32994D02*
D03*
X374251Y47700D02*
D03*
X129853Y308062D02*
D03*
X220051Y308015D02*
D03*
X311993Y307815D02*
D03*
X379505Y5724D02*
D03*
X372143D02*
D03*
X364545D02*
D03*
X379505Y13551D02*
D03*
X372143D02*
D03*
X364545D02*
D03*
X360286Y17512D02*
D03*
X361400Y24624D02*
D03*
X21700Y74649D02*
D03*
X17700D02*
D03*
X13635D02*
D03*
Y70121D02*
D03*
X17700D02*
D03*
X21700D02*
D03*
Y66184D02*
D03*
X17700D02*
D03*
X13635D02*
D03*
Y62247D02*
D03*
X17700D02*
D03*
X21700D02*
D03*
Y58310D02*
D03*
X17700D02*
D03*
X13635D02*
D03*
X30250Y108800D02*
D03*
Y104300D02*
D03*
X23453Y108800D02*
D03*
X35300D02*
D03*
Y104300D02*
D03*
Y99861D02*
D03*
X40000D02*
D03*
Y104300D02*
D03*
Y108800D02*
D03*
X54500Y99861D02*
D03*
Y104300D02*
D03*
Y108800D02*
D03*
X364148Y167182D02*
D03*
X366513Y36730D02*
D03*
Y32793D02*
D03*
X364148Y159600D02*
D03*
X366513Y28856D02*
D03*
X379901Y178000D02*
D03*
Y159600D02*
D03*
Y168800D02*
D03*
X374408Y223477D02*
D03*
X384401Y159600D02*
D03*
Y187000D02*
D03*
X370450Y36730D02*
D03*
X384401Y178000D02*
D03*
X374387Y36730D02*
D03*
X370450Y32793D02*
D03*
Y28856D02*
D03*
X374251Y32791D02*
D03*
X384401Y168800D02*
D03*
X379901Y187000D02*
D03*
X374387Y28856D02*
D03*
X185818Y326145D02*
D03*
X194951Y322569D02*
D03*
X191451Y335196D02*
D03*
X177367D02*
D03*
Y326145D02*
D03*
X217051Y323247D02*
D03*
X65722Y292408D02*
D03*
X115226Y273576D02*
D03*
X104800Y322616D02*
D03*
X81798Y301443D02*
D03*
X108126Y273576D02*
D03*
X99400Y313794D02*
D03*
X142331Y323294D02*
D03*
Y296096D02*
D03*
X112463Y310031D02*
D03*
X126900Y323294D02*
D03*
X134063D02*
D03*
X146400Y308062D02*
D03*
X87216Y326192D02*
D03*
X95667D02*
D03*
X79798D02*
D03*
X81400Y295276D02*
D03*
X101195Y265794D02*
D03*
X120337Y306094D02*
D03*
X112463Y302157D02*
D03*
X116400D02*
D03*
X120337D02*
D03*
X112463Y306094D02*
D03*
X116400D02*
D03*
X81798Y309081D02*
D03*
X100780D02*
D03*
X87216Y335243D02*
D03*
X101300D02*
D03*
X79798D02*
D03*
X140551Y269443D02*
D03*
X120337Y290220D02*
D03*
X116400Y310031D02*
D03*
X126900Y297713D02*
D03*
X130800Y313394D02*
D03*
X136141Y281694D02*
D03*
X120337Y310031D02*
D03*
X122263Y273576D02*
D03*
X134063Y331992D02*
D03*
X147700D02*
D03*
X129200Y265794D02*
D03*
X111600D02*
D03*
X118900D02*
D03*
X169949Y326145D02*
D03*
Y335196D02*
D03*
X189551Y313747D02*
D03*
X171949Y309034D02*
D03*
X171551Y295230D02*
D03*
X210488Y290173D02*
D03*
X171949Y301396D02*
D03*
X190932Y309034D02*
D03*
X217051Y297666D02*
D03*
X224214Y331945D02*
D03*
Y323247D02*
D03*
X232482D02*
D03*
X237851Y331945D02*
D03*
X226292Y281647D02*
D03*
X232482Y296049D02*
D03*
X220951Y313347D02*
D03*
X206551Y302110D02*
D03*
X210488Y306047D02*
D03*
Y302110D02*
D03*
X206551Y306047D02*
D03*
X212414Y273530D02*
D03*
X209051Y265747D02*
D03*
X230702Y269396D02*
D03*
X201751Y265747D02*
D03*
X219351D02*
D03*
X191346D02*
D03*
X205377Y273530D02*
D03*
X198277D02*
D03*
X202614Y302110D02*
D03*
X206551Y309984D02*
D03*
X236551Y308015D02*
D03*
X202614Y306047D02*
D03*
Y309984D02*
D03*
X210488D02*
D03*
X263151Y295030D02*
D03*
X263549Y308834D02*
D03*
Y301196D02*
D03*
X294214Y309784D02*
D03*
X298151Y305847D02*
D03*
X282946Y265547D02*
D03*
X289877Y273330D02*
D03*
X286551Y322369D02*
D03*
X281151Y313547D02*
D03*
X282532Y308834D02*
D03*
X298151Y301910D02*
D03*
X293351Y265547D02*
D03*
X298151Y309784D02*
D03*
X294214Y305847D02*
D03*
Y301910D02*
D03*
X296977Y273330D02*
D03*
X302088Y289973D02*
D03*
X310951Y265547D02*
D03*
X302088Y309784D02*
D03*
X308651Y297466D02*
D03*
X302088Y305847D02*
D03*
Y301910D02*
D03*
X312551Y313147D02*
D03*
X304014Y273330D02*
D03*
X329451Y331745D02*
D03*
X324082Y323047D02*
D03*
Y295849D02*
D03*
X315814Y331745D02*
D03*
X328151Y307815D02*
D03*
X277418Y325945D02*
D03*
X308651Y323047D02*
D03*
X268967Y325945D02*
D03*
X261549D02*
D03*
X317892Y281447D02*
D03*
X315814Y323047D02*
D03*
X322302Y269196D02*
D03*
X300651Y265547D02*
D03*
X261549Y334997D02*
D03*
X283051D02*
D03*
X268967D02*
D03*
M02*
