G04*
G04 #@! TF.GenerationSoftware,Altium Limited,Altium Designer,22.11.1 (43)*
G04*
G04 Layer_Physical_Order=2*
G04 Layer_Color=36540*
%FSLAX25Y25*%
%MOIN*%
G70*
G04*
G04 #@! TF.SameCoordinates,EC01C676-AF26-4C78-A894-FF1C61784DD5*
G04*
G04*
G04 #@! TF.FilePolarity,Positive*
G04*
G01*
G75*
%ADD12C,0.01000*%
%ADD66C,0.07874*%
%ADD67C,0.02362*%
%ADD68O,0.09843X0.04724*%
%ADD69C,0.06496*%
%ADD70C,0.07087*%
%ADD71R,0.07087X0.07087*%
%ADD72R,0.07874X0.15748*%
%ADD73R,0.08661X0.17323*%
%ADD74R,0.15748X0.07874*%
%ADD75C,0.06299*%
%ADD76R,0.07087X0.07087*%
%ADD77C,0.01772*%
%ADD78C,0.02000*%
G36*
X393701D02*
X0D01*
Y393701D01*
X393701D01*
Y0D01*
D02*
G37*
%LPC*%
G36*
X134197Y382884D02*
X133029D01*
X131901Y382581D01*
X130889Y381997D01*
X130063Y381171D01*
X129479Y380159D01*
X129176Y379031D01*
Y377863D01*
X129479Y376734D01*
X130063Y375723D01*
X130889Y374896D01*
X131901Y374312D01*
X133029Y374010D01*
X134197D01*
X135326Y374312D01*
X136338Y374896D01*
X137164Y375723D01*
X137748Y376734D01*
X138050Y377863D01*
Y379031D01*
X137748Y380159D01*
X137164Y381171D01*
X136338Y381997D01*
X135326Y382581D01*
X134197Y382884D01*
D02*
G37*
G36*
X119197D02*
X118029D01*
X116901Y382581D01*
X115889Y381997D01*
X115063Y381171D01*
X114479Y380159D01*
X114176Y379031D01*
Y377863D01*
X114479Y376734D01*
X115063Y375723D01*
X115889Y374896D01*
X116901Y374312D01*
X118029Y374010D01*
X119197D01*
X120326Y374312D01*
X121338Y374896D01*
X122164Y375723D01*
X122748Y376734D01*
X123050Y377863D01*
Y379031D01*
X122748Y380159D01*
X122164Y381171D01*
X121338Y381997D01*
X120326Y382581D01*
X119197Y382884D01*
D02*
G37*
G36*
X104198D02*
X103029D01*
X101901Y382581D01*
X100889Y381997D01*
X100063Y381171D01*
X99479Y380159D01*
X99176Y379031D01*
Y377863D01*
X99479Y376734D01*
X100063Y375723D01*
X100889Y374896D01*
X101901Y374312D01*
X103029Y374010D01*
X104198D01*
X105326Y374312D01*
X106338Y374896D01*
X107164Y375723D01*
X107748Y376734D01*
X108050Y377863D01*
Y379031D01*
X107748Y380159D01*
X107164Y381171D01*
X106338Y381997D01*
X105326Y382581D01*
X104198Y382884D01*
D02*
G37*
G36*
X89197D02*
X88029D01*
X86901Y382581D01*
X85889Y381997D01*
X85063Y381171D01*
X84479Y380159D01*
X84176Y379031D01*
Y377863D01*
X84479Y376734D01*
X85063Y375723D01*
X85889Y374896D01*
X86901Y374312D01*
X88029Y374010D01*
X89197D01*
X90326Y374312D01*
X91338Y374896D01*
X92164Y375723D01*
X92748Y376734D01*
X93050Y377863D01*
Y379031D01*
X92748Y380159D01*
X92164Y381171D01*
X91338Y381997D01*
X90326Y382581D01*
X89197Y382884D01*
D02*
G37*
G36*
X223384Y382837D02*
X222216D01*
X221087Y382535D01*
X220076Y381950D01*
X219250Y381124D01*
X218665Y380113D01*
X218363Y378984D01*
Y377816D01*
X218665Y376687D01*
X219250Y375676D01*
X220076Y374850D01*
X221087Y374265D01*
X222216Y373963D01*
X223384D01*
X224513Y374265D01*
X225524Y374850D01*
X226350Y375676D01*
X226935Y376687D01*
X227237Y377816D01*
Y378984D01*
X226935Y380113D01*
X226350Y381124D01*
X225524Y381950D01*
X224513Y382535D01*
X223384Y382837D01*
D02*
G37*
G36*
X208384D02*
X207216D01*
X206087Y382535D01*
X205076Y381950D01*
X204250Y381124D01*
X203665Y380113D01*
X203363Y378984D01*
Y377816D01*
X203665Y376687D01*
X204250Y375676D01*
X205076Y374850D01*
X206087Y374265D01*
X207216Y373963D01*
X208384D01*
X209513Y374265D01*
X210524Y374850D01*
X211350Y375676D01*
X211935Y376687D01*
X212237Y377816D01*
Y378984D01*
X211935Y380113D01*
X211350Y381124D01*
X210524Y381950D01*
X209513Y382535D01*
X208384Y382837D01*
D02*
G37*
G36*
X193384D02*
X192216D01*
X191087Y382535D01*
X190076Y381950D01*
X189250Y381124D01*
X188665Y380113D01*
X188363Y378984D01*
Y377816D01*
X188665Y376687D01*
X189250Y375676D01*
X190076Y374850D01*
X191087Y374265D01*
X192216Y373963D01*
X193384D01*
X194513Y374265D01*
X195524Y374850D01*
X196351Y375676D01*
X196935Y376687D01*
X197237Y377816D01*
Y378984D01*
X196935Y380113D01*
X196351Y381124D01*
X195524Y381950D01*
X194513Y382535D01*
X193384Y382837D01*
D02*
G37*
G36*
X178384D02*
X177216D01*
X176087Y382535D01*
X175076Y381950D01*
X174249Y381124D01*
X173665Y380113D01*
X173363Y378984D01*
Y377816D01*
X173665Y376687D01*
X174249Y375676D01*
X175076Y374850D01*
X176087Y374265D01*
X177216Y373963D01*
X178384D01*
X179513Y374265D01*
X180524Y374850D01*
X181351Y375676D01*
X181935Y376687D01*
X182237Y377816D01*
Y378984D01*
X181935Y380113D01*
X181351Y381124D01*
X180524Y381950D01*
X179513Y382535D01*
X178384Y382837D01*
D02*
G37*
G36*
X316393Y382637D02*
X315225D01*
X314096Y382335D01*
X313084Y381750D01*
X312258Y380924D01*
X311674Y379913D01*
X311372Y378784D01*
Y377616D01*
X311674Y376487D01*
X312258Y375476D01*
X313084Y374650D01*
X314096Y374065D01*
X315225Y373763D01*
X316393D01*
X317521Y374065D01*
X318533Y374650D01*
X319359Y375476D01*
X319943Y376487D01*
X320246Y377616D01*
Y378784D01*
X319943Y379913D01*
X319359Y380924D01*
X318533Y381750D01*
X317521Y382335D01*
X316393Y382637D01*
D02*
G37*
G36*
X301393D02*
X300224D01*
X299096Y382335D01*
X298084Y381750D01*
X297258Y380924D01*
X296674Y379913D01*
X296372Y378784D01*
Y377616D01*
X296674Y376487D01*
X297258Y375476D01*
X298084Y374650D01*
X299096Y374065D01*
X300224Y373763D01*
X301393D01*
X302521Y374065D01*
X303533Y374650D01*
X304359Y375476D01*
X304943Y376487D01*
X305246Y377616D01*
Y378784D01*
X304943Y379913D01*
X304359Y380924D01*
X303533Y381750D01*
X302521Y382335D01*
X301393Y382637D01*
D02*
G37*
G36*
X286393D02*
X285225D01*
X284096Y382335D01*
X283084Y381750D01*
X282258Y380924D01*
X281674Y379913D01*
X281372Y378784D01*
Y377616D01*
X281674Y376487D01*
X282258Y375476D01*
X283084Y374650D01*
X284096Y374065D01*
X285225Y373763D01*
X286393D01*
X287521Y374065D01*
X288533Y374650D01*
X289359Y375476D01*
X289943Y376487D01*
X290246Y377616D01*
Y378784D01*
X289943Y379913D01*
X289359Y380924D01*
X288533Y381750D01*
X287521Y382335D01*
X286393Y382637D01*
D02*
G37*
G36*
X271393D02*
X270224D01*
X269096Y382335D01*
X268084Y381750D01*
X267258Y380924D01*
X266674Y379913D01*
X266372Y378784D01*
Y377616D01*
X266674Y376487D01*
X267258Y375476D01*
X268084Y374650D01*
X269096Y374065D01*
X270224Y373763D01*
X271393D01*
X272521Y374065D01*
X273533Y374650D01*
X274359Y375476D01*
X274943Y376487D01*
X275246Y377616D01*
Y378784D01*
X274943Y379913D01*
X274359Y380924D01*
X273533Y381750D01*
X272521Y382335D01*
X271393Y382637D01*
D02*
G37*
G36*
X96065Y328192D02*
X95269D01*
X94534Y327888D01*
X93971Y327325D01*
X93667Y326590D01*
Y325794D01*
X93971Y325059D01*
X94534Y324497D01*
X95269Y324192D01*
X96065D01*
X96800Y324497D01*
X97363Y325059D01*
X97667Y325794D01*
Y326590D01*
X97363Y327325D01*
X96800Y327888D01*
X96065Y328192D01*
D02*
G37*
G36*
X87613D02*
X86818D01*
X86083Y327888D01*
X85520Y327325D01*
X85216Y326590D01*
Y325794D01*
X85520Y325059D01*
X86083Y324497D01*
X86818Y324192D01*
X87613D01*
X88349Y324497D01*
X88911Y325059D01*
X89216Y325794D01*
Y326590D01*
X88911Y327325D01*
X88349Y327888D01*
X87613Y328192D01*
D02*
G37*
G36*
X80196D02*
X79400D01*
X78665Y327888D01*
X78102Y327325D01*
X77798Y326590D01*
Y325794D01*
X78102Y325059D01*
X78665Y324497D01*
X79400Y324192D01*
X80196D01*
X80931Y324497D01*
X81493Y325059D01*
X81798Y325794D01*
Y326590D01*
X81493Y327325D01*
X80931Y327888D01*
X80196Y328192D01*
D02*
G37*
G36*
X186216Y328145D02*
X185420D01*
X184685Y327841D01*
X184123Y327278D01*
X183818Y326543D01*
Y325747D01*
X184123Y325012D01*
X184685Y324450D01*
X185420Y324145D01*
X186216D01*
X186951Y324450D01*
X187514Y325012D01*
X187818Y325747D01*
Y326543D01*
X187514Y327278D01*
X186951Y327841D01*
X186216Y328145D01*
D02*
G37*
G36*
X177765D02*
X176969D01*
X176234Y327841D01*
X175671Y327278D01*
X175367Y326543D01*
Y325747D01*
X175671Y325012D01*
X176234Y324450D01*
X176969Y324145D01*
X177765D01*
X178500Y324450D01*
X179062Y325012D01*
X179367Y325747D01*
Y326543D01*
X179062Y327278D01*
X178500Y327841D01*
X177765Y328145D01*
D02*
G37*
G36*
X170347D02*
X169551D01*
X168816Y327841D01*
X168254Y327278D01*
X167949Y326543D01*
Y325747D01*
X168254Y325012D01*
X168816Y324450D01*
X169551Y324145D01*
X170347D01*
X171082Y324450D01*
X171644Y325012D01*
X171949Y325747D01*
Y326543D01*
X171644Y327278D01*
X171082Y327841D01*
X170347Y328145D01*
D02*
G37*
G36*
X277816Y327945D02*
X277020D01*
X276285Y327641D01*
X275723Y327078D01*
X275418Y326343D01*
Y325547D01*
X275723Y324812D01*
X276285Y324250D01*
X277020Y323945D01*
X277816D01*
X278551Y324250D01*
X279114Y324812D01*
X279418Y325547D01*
Y326343D01*
X279114Y327078D01*
X278551Y327641D01*
X277816Y327945D01*
D02*
G37*
G36*
X269365D02*
X268569D01*
X267834Y327641D01*
X267271Y327078D01*
X266967Y326343D01*
Y325547D01*
X267271Y324812D01*
X267834Y324250D01*
X268569Y323945D01*
X269365D01*
X270100Y324250D01*
X270662Y324812D01*
X270967Y325547D01*
Y326343D01*
X270662Y327078D01*
X270100Y327641D01*
X269365Y327945D01*
D02*
G37*
G36*
X261947D02*
X261151D01*
X260416Y327641D01*
X259854Y327078D01*
X259549Y326343D01*
Y325547D01*
X259854Y324812D01*
X260416Y324250D01*
X261151Y323945D01*
X261947D01*
X262682Y324250D01*
X263245Y324812D01*
X263549Y325547D01*
Y326343D01*
X263245Y327078D01*
X262682Y327641D01*
X261947Y327945D01*
D02*
G37*
G36*
X142728Y325294D02*
X141933D01*
X141198Y324989D01*
X140635Y324427D01*
X140331Y323692D01*
Y322896D01*
X140635Y322161D01*
X141198Y321598D01*
X141933Y321294D01*
X142728D01*
X143464Y321598D01*
X144026Y322161D01*
X144331Y322896D01*
Y323692D01*
X144026Y324427D01*
X143464Y324989D01*
X142728Y325294D01*
D02*
G37*
G36*
X134461D02*
X133665D01*
X132930Y324989D01*
X132368Y324427D01*
X132063Y323692D01*
Y322896D01*
X132368Y322161D01*
X132930Y321598D01*
X133665Y321294D01*
X134461D01*
X135196Y321598D01*
X135758Y322161D01*
X136063Y322896D01*
Y323692D01*
X135758Y324427D01*
X135196Y324989D01*
X134461Y325294D01*
D02*
G37*
G36*
X127298D02*
X126502D01*
X125767Y324989D01*
X125205Y324427D01*
X124900Y323692D01*
Y322896D01*
X125205Y322161D01*
X125767Y321598D01*
X126502Y321294D01*
X127298D01*
X128033Y321598D01*
X128595Y322161D01*
X128900Y322896D01*
Y323692D01*
X128595Y324427D01*
X128033Y324989D01*
X127298Y325294D01*
D02*
G37*
G36*
X232880Y325247D02*
X232084D01*
X231349Y324942D01*
X230786Y324380D01*
X230482Y323645D01*
Y322849D01*
X230786Y322114D01*
X231349Y321551D01*
X232084Y321247D01*
X232880D01*
X233615Y321551D01*
X234177Y322114D01*
X234482Y322849D01*
Y323645D01*
X234177Y324380D01*
X233615Y324942D01*
X232880Y325247D01*
D02*
G37*
G36*
X224612D02*
X223816D01*
X223081Y324942D01*
X222519Y324380D01*
X222214Y323645D01*
Y322849D01*
X222519Y322114D01*
X223081Y321551D01*
X223816Y321247D01*
X224612D01*
X225347Y321551D01*
X225910Y322114D01*
X226214Y322849D01*
Y323645D01*
X225910Y324380D01*
X225347Y324942D01*
X224612Y325247D01*
D02*
G37*
G36*
X217449D02*
X216653D01*
X215918Y324942D01*
X215356Y324380D01*
X215051Y323645D01*
Y322849D01*
X215356Y322114D01*
X215918Y321551D01*
X216653Y321247D01*
X217449D01*
X218184Y321551D01*
X218747Y322114D01*
X219051Y322849D01*
Y323645D01*
X218747Y324380D01*
X218184Y324942D01*
X217449Y325247D01*
D02*
G37*
G36*
X324480Y325047D02*
X323684D01*
X322949Y324742D01*
X322386Y324180D01*
X322082Y323445D01*
Y322649D01*
X322386Y321914D01*
X322949Y321351D01*
X323684Y321047D01*
X324480D01*
X325215Y321351D01*
X325777Y321914D01*
X326082Y322649D01*
Y323445D01*
X325777Y324180D01*
X325215Y324742D01*
X324480Y325047D01*
D02*
G37*
G36*
X316212D02*
X315416D01*
X314681Y324742D01*
X314119Y324180D01*
X313814Y323445D01*
Y322649D01*
X314119Y321914D01*
X314681Y321351D01*
X315416Y321047D01*
X316212D01*
X316947Y321351D01*
X317510Y321914D01*
X317814Y322649D01*
Y323445D01*
X317510Y324180D01*
X316947Y324742D01*
X316212Y325047D01*
D02*
G37*
G36*
X309049D02*
X308253D01*
X307518Y324742D01*
X306956Y324180D01*
X306651Y323445D01*
Y322649D01*
X306956Y321914D01*
X307518Y321351D01*
X308253Y321047D01*
X309049D01*
X309784Y321351D01*
X310347Y321914D01*
X310651Y322649D01*
Y323445D01*
X310347Y324180D01*
X309784Y324742D01*
X309049Y325047D01*
D02*
G37*
G36*
X105198Y324616D02*
X104402D01*
X103667Y324312D01*
X103104Y323749D01*
X102800Y323014D01*
Y322218D01*
X103104Y321483D01*
X103667Y320921D01*
X104402Y320616D01*
X105198D01*
X105933Y320921D01*
X106495Y321483D01*
X106800Y322218D01*
Y323014D01*
X106495Y323749D01*
X105933Y324312D01*
X105198Y324616D01*
D02*
G37*
G36*
X195349Y324569D02*
X194553D01*
X193818Y324265D01*
X193256Y323702D01*
X192951Y322967D01*
Y322171D01*
X193256Y321436D01*
X193818Y320874D01*
X194553Y320569D01*
X195349D01*
X196084Y320874D01*
X196647Y321436D01*
X196951Y322171D01*
Y322967D01*
X196647Y323702D01*
X196084Y324265D01*
X195349Y324569D01*
D02*
G37*
G36*
X286949Y324369D02*
X286153D01*
X285418Y324065D01*
X284856Y323502D01*
X284551Y322767D01*
Y321972D01*
X284856Y321236D01*
X285418Y320674D01*
X286153Y320369D01*
X286949D01*
X287684Y320674D01*
X288247Y321236D01*
X288551Y321972D01*
Y322767D01*
X288247Y323502D01*
X287684Y324065D01*
X286949Y324369D01*
D02*
G37*
G36*
X61353Y331561D02*
X51691D01*
Y313239D01*
X61353D01*
Y331561D01*
D02*
G37*
G36*
X99798Y315794D02*
X99002D01*
X98267Y315489D01*
X97704Y314927D01*
X97400Y314192D01*
Y313396D01*
X97704Y312661D01*
X98267Y312098D01*
X99002Y311794D01*
X99798D01*
X100533Y312098D01*
X101095Y312661D01*
X101400Y313396D01*
Y314192D01*
X101095Y314927D01*
X100533Y315489D01*
X99798Y315794D01*
D02*
G37*
G36*
X189949Y315747D02*
X189153D01*
X188418Y315442D01*
X187856Y314880D01*
X187551Y314145D01*
Y313349D01*
X187856Y312614D01*
X188418Y312051D01*
X189153Y311747D01*
X189949D01*
X190684Y312051D01*
X191247Y312614D01*
X191551Y313349D01*
Y314145D01*
X191247Y314880D01*
X190684Y315442D01*
X189949Y315747D01*
D02*
G37*
G36*
X281549Y315547D02*
X280753D01*
X280018Y315242D01*
X279456Y314680D01*
X279151Y313945D01*
Y313149D01*
X279456Y312414D01*
X280018Y311851D01*
X280753Y311547D01*
X281549D01*
X282284Y311851D01*
X282847Y312414D01*
X283151Y313149D01*
Y313945D01*
X282847Y314680D01*
X282284Y315242D01*
X281549Y315547D01*
D02*
G37*
G36*
X131198Y315394D02*
X130402D01*
X129667Y315089D01*
X129104Y314527D01*
X128800Y313792D01*
Y312996D01*
X129104Y312261D01*
X129667Y311698D01*
X130402Y311394D01*
X131198D01*
X131933Y311698D01*
X132495Y312261D01*
X132800Y312996D01*
Y313792D01*
X132495Y314527D01*
X131933Y315089D01*
X131198Y315394D01*
D02*
G37*
G36*
X221349Y315347D02*
X220553D01*
X219818Y315042D01*
X219256Y314480D01*
X218951Y313745D01*
Y312949D01*
X219256Y312214D01*
X219818Y311651D01*
X220553Y311347D01*
X221349D01*
X222084Y311651D01*
X222647Y312214D01*
X222951Y312949D01*
Y313745D01*
X222647Y314480D01*
X222084Y315042D01*
X221349Y315347D01*
D02*
G37*
G36*
X312949Y315147D02*
X312153D01*
X311418Y314842D01*
X310856Y314280D01*
X310551Y313545D01*
Y312749D01*
X310856Y312014D01*
X311418Y311451D01*
X312153Y311147D01*
X312949D01*
X313684Y311451D01*
X314247Y312014D01*
X314551Y312749D01*
Y313545D01*
X314247Y314280D01*
X313684Y314842D01*
X312949Y315147D01*
D02*
G37*
G36*
X101178Y311081D02*
X100383D01*
X99647Y310776D01*
X99085Y310214D01*
X98780Y309479D01*
Y308683D01*
X99085Y307948D01*
X99647Y307385D01*
X100383Y307081D01*
X101178D01*
X101913Y307385D01*
X102476Y307948D01*
X102780Y308683D01*
Y309479D01*
X102476Y310214D01*
X101913Y310776D01*
X101178Y311081D01*
D02*
G37*
G36*
X82196D02*
X81400D01*
X80665Y310776D01*
X80102Y310214D01*
X79798Y309479D01*
Y308683D01*
X80102Y307948D01*
X80665Y307385D01*
X81400Y307081D01*
X82196D01*
X82931Y307385D01*
X83493Y307948D01*
X83798Y308683D01*
Y309479D01*
X83493Y310214D01*
X82931Y310776D01*
X82196Y311081D01*
D02*
G37*
G36*
X191329Y311034D02*
X190534D01*
X189799Y310730D01*
X189236Y310167D01*
X188932Y309432D01*
Y308636D01*
X189236Y307901D01*
X189799Y307339D01*
X190534Y307034D01*
X191329D01*
X192064Y307339D01*
X192627Y307901D01*
X192932Y308636D01*
Y309432D01*
X192627Y310167D01*
X192064Y310730D01*
X191329Y311034D01*
D02*
G37*
G36*
X172347D02*
X171551D01*
X170816Y310730D01*
X170254Y310167D01*
X169949Y309432D01*
Y308636D01*
X170254Y307901D01*
X170816Y307339D01*
X171551Y307034D01*
X172347D01*
X173082Y307339D01*
X173644Y307901D01*
X173949Y308636D01*
Y309432D01*
X173644Y310167D01*
X173082Y310730D01*
X172347Y311034D01*
D02*
G37*
G36*
X282929Y310834D02*
X282134D01*
X281399Y310529D01*
X280836Y309967D01*
X280532Y309232D01*
Y308436D01*
X280836Y307701D01*
X281399Y307138D01*
X282134Y306834D01*
X282929D01*
X283664Y307138D01*
X284227Y307701D01*
X284532Y308436D01*
Y309232D01*
X284227Y309967D01*
X283664Y310529D01*
X282929Y310834D01*
D02*
G37*
G36*
X263947D02*
X263151D01*
X262416Y310529D01*
X261854Y309967D01*
X261549Y309232D01*
Y308436D01*
X261854Y307701D01*
X262416Y307138D01*
X263151Y306834D01*
X263947D01*
X264682Y307138D01*
X265245Y307701D01*
X265549Y308436D01*
Y309232D01*
X265245Y309967D01*
X264682Y310529D01*
X263947Y310834D01*
D02*
G37*
G36*
X130251Y310062D02*
X129455D01*
X128720Y309758D01*
X128158Y309195D01*
X127853Y308460D01*
Y307664D01*
X128158Y306929D01*
X128720Y306367D01*
X129455Y306062D01*
X130251D01*
X130986Y306367D01*
X131549Y306929D01*
X131853Y307664D01*
Y308460D01*
X131549Y309195D01*
X130986Y309758D01*
X130251Y310062D01*
D02*
G37*
G36*
X220449Y310015D02*
X219653D01*
X218918Y309711D01*
X218356Y309148D01*
X218051Y308413D01*
Y307617D01*
X218356Y306883D01*
X218918Y306320D01*
X219653Y306015D01*
X220449D01*
X221184Y306320D01*
X221747Y306883D01*
X222051Y307617D01*
Y308413D01*
X221747Y309148D01*
X221184Y309711D01*
X220449Y310015D01*
D02*
G37*
G36*
X312390Y309815D02*
X311595D01*
X310860Y309511D01*
X310297Y308948D01*
X309993Y308213D01*
Y307417D01*
X310297Y306682D01*
X310860Y306120D01*
X311595Y305815D01*
X312390D01*
X313125Y306120D01*
X313688Y306682D01*
X313993Y307417D01*
Y308213D01*
X313688Y308948D01*
X313125Y309511D01*
X312390Y309815D01*
D02*
G37*
G36*
X127298Y299713D02*
X126502D01*
X125767Y299408D01*
X125205Y298846D01*
X124900Y298111D01*
Y297315D01*
X125205Y296580D01*
X125767Y296017D01*
X126502Y295713D01*
X127298D01*
X128033Y296017D01*
X128595Y296580D01*
X128900Y297315D01*
Y298111D01*
X128595Y298846D01*
X128033Y299408D01*
X127298Y299713D01*
D02*
G37*
G36*
X217449Y299666D02*
X216653D01*
X215918Y299361D01*
X215356Y298799D01*
X215051Y298064D01*
Y297268D01*
X215356Y296533D01*
X215918Y295970D01*
X216653Y295666D01*
X217449D01*
X218184Y295970D01*
X218747Y296533D01*
X219051Y297268D01*
Y298064D01*
X218747Y298799D01*
X218184Y299361D01*
X217449Y299666D01*
D02*
G37*
G36*
X309049Y299466D02*
X308253D01*
X307518Y299161D01*
X306956Y298599D01*
X306651Y297864D01*
Y297068D01*
X306956Y296333D01*
X307518Y295770D01*
X308253Y295466D01*
X309049D01*
X309784Y295770D01*
X310347Y296333D01*
X310651Y297068D01*
Y297864D01*
X310347Y298599D01*
X309784Y299161D01*
X309049Y299466D01*
D02*
G37*
G36*
X142728Y298096D02*
X141933D01*
X141198Y297792D01*
X140635Y297229D01*
X140331Y296494D01*
Y295698D01*
X140635Y294963D01*
X141198Y294401D01*
X141933Y294096D01*
X142728D01*
X143464Y294401D01*
X144026Y294963D01*
X144331Y295698D01*
Y296494D01*
X144026Y297229D01*
X143464Y297792D01*
X142728Y298096D01*
D02*
G37*
G36*
X232880Y298049D02*
X232084D01*
X231349Y297745D01*
X230786Y297182D01*
X230482Y296447D01*
Y295651D01*
X230786Y294916D01*
X231349Y294354D01*
X232084Y294049D01*
X232880D01*
X233615Y294354D01*
X234177Y294916D01*
X234482Y295651D01*
Y296447D01*
X234177Y297182D01*
X233615Y297745D01*
X232880Y298049D01*
D02*
G37*
G36*
X324480Y297849D02*
X323684D01*
X322949Y297545D01*
X322386Y296982D01*
X322082Y296247D01*
Y295451D01*
X322386Y294716D01*
X322949Y294154D01*
X323684Y293849D01*
X324480D01*
X325215Y294154D01*
X325777Y294716D01*
X326082Y295451D01*
Y296247D01*
X325777Y296982D01*
X325215Y297545D01*
X324480Y297849D01*
D02*
G37*
G36*
X81798Y297276D02*
X81002D01*
X80267Y296972D01*
X79704Y296409D01*
X79400Y295674D01*
Y294879D01*
X79704Y294144D01*
X80267Y293581D01*
X81002Y293276D01*
X81798D01*
X82533Y293581D01*
X83096Y294144D01*
X83400Y294879D01*
Y295674D01*
X83096Y296409D01*
X82533Y296972D01*
X81798Y297276D01*
D02*
G37*
G36*
X171949Y297230D02*
X171153D01*
X170418Y296925D01*
X169856Y296362D01*
X169551Y295627D01*
Y294832D01*
X169856Y294097D01*
X170418Y293534D01*
X171153Y293230D01*
X171949D01*
X172684Y293534D01*
X173247Y294097D01*
X173551Y294832D01*
Y295627D01*
X173247Y296362D01*
X172684Y296925D01*
X171949Y297230D01*
D02*
G37*
G36*
X263549Y297030D02*
X262753D01*
X262018Y296725D01*
X261456Y296163D01*
X261151Y295427D01*
Y294632D01*
X261456Y293897D01*
X262018Y293334D01*
X262753Y293030D01*
X263549D01*
X264284Y293334D01*
X264847Y293897D01*
X265151Y294632D01*
Y295427D01*
X264847Y296163D01*
X264284Y296725D01*
X263549Y297030D01*
D02*
G37*
G36*
X120735Y292220D02*
X119939D01*
X119204Y291915D01*
X118641Y291353D01*
X118337Y290618D01*
Y289822D01*
X118641Y289087D01*
X119204Y288524D01*
X119939Y288220D01*
X120735D01*
X121470Y288524D01*
X122032Y289087D01*
X122337Y289822D01*
Y290618D01*
X122032Y291353D01*
X121470Y291915D01*
X120735Y292220D01*
D02*
G37*
G36*
X210886Y292173D02*
X210090D01*
X209355Y291868D01*
X208793Y291306D01*
X208488Y290571D01*
Y289775D01*
X208793Y289040D01*
X209355Y288477D01*
X210090Y288173D01*
X210886D01*
X211621Y288477D01*
X212184Y289040D01*
X212488Y289775D01*
Y290571D01*
X212184Y291306D01*
X211621Y291868D01*
X210886Y292173D01*
D02*
G37*
G36*
X302486Y291973D02*
X301690D01*
X300955Y291668D01*
X300393Y291106D01*
X300088Y290371D01*
Y289575D01*
X300393Y288840D01*
X300955Y288277D01*
X301690Y287973D01*
X302486D01*
X303221Y288277D01*
X303784Y288840D01*
X304088Y289575D01*
Y290371D01*
X303784Y291106D01*
X303221Y291668D01*
X302486Y291973D01*
D02*
G37*
G36*
X136538Y283694D02*
X135743D01*
X135008Y283389D01*
X134445Y282827D01*
X134141Y282092D01*
Y281296D01*
X134445Y280561D01*
X135008Y279998D01*
X135743Y279694D01*
X136538D01*
X137274Y279998D01*
X137836Y280561D01*
X138141Y281296D01*
Y282092D01*
X137836Y282827D01*
X137274Y283389D01*
X136538Y283694D01*
D02*
G37*
G36*
X226690Y283647D02*
X225894D01*
X225159Y283342D01*
X224596Y282780D01*
X224292Y282045D01*
Y281249D01*
X224596Y280514D01*
X225159Y279951D01*
X225894Y279647D01*
X226690D01*
X227425Y279951D01*
X227987Y280514D01*
X228292Y281249D01*
Y282045D01*
X227987Y282780D01*
X227425Y283342D01*
X226690Y283647D01*
D02*
G37*
G36*
X318290Y283447D02*
X317494D01*
X316759Y283142D01*
X316196Y282580D01*
X315892Y281845D01*
Y281049D01*
X316196Y280314D01*
X316759Y279751D01*
X317494Y279447D01*
X318290D01*
X319025Y279751D01*
X319587Y280314D01*
X319892Y281049D01*
Y281845D01*
X319587Y282580D01*
X319025Y283142D01*
X318290Y283447D01*
D02*
G37*
G36*
X122661Y275576D02*
X121865D01*
X121130Y275272D01*
X120568Y274709D01*
X120263Y273974D01*
Y273179D01*
X120568Y272444D01*
X121130Y271881D01*
X121865Y271576D01*
X122661D01*
X123396Y271881D01*
X123959Y272444D01*
X124263Y273179D01*
Y273974D01*
X123959Y274709D01*
X123396Y275272D01*
X122661Y275576D01*
D02*
G37*
G36*
X115624D02*
X114828D01*
X114093Y275272D01*
X113531Y274709D01*
X113226Y273974D01*
Y273179D01*
X113531Y272444D01*
X114093Y271881D01*
X114828Y271576D01*
X115624D01*
X116359Y271881D01*
X116921Y272444D01*
X117226Y273179D01*
Y273974D01*
X116921Y274709D01*
X116359Y275272D01*
X115624Y275576D01*
D02*
G37*
G36*
X108524D02*
X107728D01*
X106993Y275272D01*
X106430Y274709D01*
X106126Y273974D01*
Y273179D01*
X106430Y272444D01*
X106993Y271881D01*
X107728Y271576D01*
X108524D01*
X109259Y271881D01*
X109821Y272444D01*
X110126Y273179D01*
Y273974D01*
X109821Y274709D01*
X109259Y275272D01*
X108524Y275576D01*
D02*
G37*
G36*
X212812Y275530D02*
X212016D01*
X211281Y275225D01*
X210719Y274662D01*
X210414Y273927D01*
Y273132D01*
X210719Y272397D01*
X211281Y271834D01*
X212016Y271530D01*
X212812D01*
X213547Y271834D01*
X214110Y272397D01*
X214414Y273132D01*
Y273927D01*
X214110Y274662D01*
X213547Y275225D01*
X212812Y275530D01*
D02*
G37*
G36*
X205775D02*
X204979D01*
X204244Y275225D01*
X203682Y274662D01*
X203377Y273927D01*
Y273132D01*
X203682Y272397D01*
X204244Y271834D01*
X204979Y271530D01*
X205775D01*
X206510Y271834D01*
X207073Y272397D01*
X207377Y273132D01*
Y273927D01*
X207073Y274662D01*
X206510Y275225D01*
X205775Y275530D01*
D02*
G37*
G36*
X198675D02*
X197879D01*
X197144Y275225D01*
X196582Y274662D01*
X196277Y273927D01*
Y273132D01*
X196582Y272397D01*
X197144Y271834D01*
X197879Y271530D01*
X198675D01*
X199410Y271834D01*
X199973Y272397D01*
X200277Y273132D01*
Y273927D01*
X199973Y274662D01*
X199410Y275225D01*
X198675Y275530D01*
D02*
G37*
G36*
X304412Y275330D02*
X303616D01*
X302881Y275025D01*
X302319Y274463D01*
X302014Y273727D01*
Y272932D01*
X302319Y272197D01*
X302881Y271634D01*
X303616Y271330D01*
X304412D01*
X305147Y271634D01*
X305710Y272197D01*
X306014Y272932D01*
Y273727D01*
X305710Y274463D01*
X305147Y275025D01*
X304412Y275330D01*
D02*
G37*
G36*
X297375D02*
X296579D01*
X295844Y275025D01*
X295282Y274463D01*
X294977Y273727D01*
Y272932D01*
X295282Y272197D01*
X295844Y271634D01*
X296579Y271330D01*
X297375D01*
X298110Y271634D01*
X298673Y272197D01*
X298977Y272932D01*
Y273727D01*
X298673Y274463D01*
X298110Y275025D01*
X297375Y275330D01*
D02*
G37*
G36*
X290275D02*
X289479D01*
X288744Y275025D01*
X288182Y274463D01*
X287877Y273727D01*
Y272932D01*
X288182Y272197D01*
X288744Y271634D01*
X289479Y271330D01*
X290275D01*
X291010Y271634D01*
X291573Y272197D01*
X291877Y272932D01*
Y273727D01*
X291573Y274463D01*
X291010Y275025D01*
X290275Y275330D01*
D02*
G37*
G36*
X140949Y271443D02*
X140153D01*
X139418Y271138D01*
X138856Y270575D01*
X138551Y269840D01*
Y269045D01*
X138856Y268310D01*
X139418Y267747D01*
X140153Y267443D01*
X140949D01*
X141684Y267747D01*
X142247Y268310D01*
X142551Y269045D01*
Y269840D01*
X142247Y270575D01*
X141684Y271138D01*
X140949Y271443D01*
D02*
G37*
G36*
X231100Y271396D02*
X230305D01*
X229570Y271091D01*
X229007Y270529D01*
X228702Y269794D01*
Y268998D01*
X229007Y268263D01*
X229570Y267700D01*
X230305Y267396D01*
X231100D01*
X231835Y267700D01*
X232398Y268263D01*
X232702Y268998D01*
Y269794D01*
X232398Y270529D01*
X231835Y271091D01*
X231100Y271396D01*
D02*
G37*
G36*
X322700Y271196D02*
X321904D01*
X321169Y270891D01*
X320607Y270329D01*
X320302Y269594D01*
Y268798D01*
X320607Y268063D01*
X321169Y267500D01*
X321904Y267196D01*
X322700D01*
X323435Y267500D01*
X323998Y268063D01*
X324302Y268798D01*
Y269594D01*
X323998Y270329D01*
X323435Y270891D01*
X322700Y271196D01*
D02*
G37*
G36*
X125581Y264543D02*
X124619D01*
X123691Y264295D01*
X122859Y263814D01*
X122180Y263135D01*
X121699Y262302D01*
X121450Y261374D01*
Y260413D01*
X121699Y259485D01*
X122180Y258653D01*
X122859Y257973D01*
X123691Y257493D01*
X124619Y257244D01*
X125581D01*
X126509Y257493D01*
X127341Y257973D01*
X128020Y258653D01*
X128501Y259485D01*
X128750Y260413D01*
Y261374D01*
X128501Y262302D01*
X128020Y263135D01*
X127341Y263814D01*
X126509Y264295D01*
X125581Y264543D01*
D02*
G37*
G36*
X115580D02*
X114620D01*
X113691Y264295D01*
X112859Y263814D01*
X112180Y263135D01*
X111699Y262302D01*
X111450Y261374D01*
Y260413D01*
X111699Y259485D01*
X112180Y258653D01*
X112859Y257973D01*
X113691Y257493D01*
X114620Y257244D01*
X115580D01*
X116509Y257493D01*
X117341Y257973D01*
X118020Y258653D01*
X118501Y259485D01*
X118750Y260413D01*
Y261374D01*
X118501Y262302D01*
X118020Y263135D01*
X117341Y263814D01*
X116509Y264295D01*
X115580Y264543D01*
D02*
G37*
G36*
X105580D02*
X104620D01*
X103691Y264295D01*
X102859Y263814D01*
X102180Y263135D01*
X101699Y262302D01*
X101450Y261374D01*
Y260413D01*
X101699Y259485D01*
X102180Y258653D01*
X102859Y257973D01*
X103691Y257493D01*
X104620Y257244D01*
X105580D01*
X106509Y257493D01*
X107341Y257973D01*
X108020Y258653D01*
X108501Y259485D01*
X108750Y260413D01*
Y261374D01*
X108501Y262302D01*
X108020Y263135D01*
X107341Y263814D01*
X106509Y264295D01*
X105580Y264543D01*
D02*
G37*
G36*
X215732Y264496D02*
X214771D01*
X213843Y264248D01*
X213010Y263767D01*
X212331Y263088D01*
X211850Y262256D01*
X211602Y261327D01*
Y260366D01*
X211850Y259438D01*
X212331Y258606D01*
X213010Y257927D01*
X213843Y257446D01*
X214771Y257197D01*
X215732D01*
X216660Y257446D01*
X217492Y257927D01*
X218172Y258606D01*
X218652Y259438D01*
X218901Y260366D01*
Y261327D01*
X218652Y262256D01*
X218172Y263088D01*
X217492Y263767D01*
X216660Y264248D01*
X215732Y264496D01*
D02*
G37*
G36*
X205732D02*
X204771D01*
X203842Y264248D01*
X203010Y263767D01*
X202331Y263088D01*
X201850Y262256D01*
X201602Y261327D01*
Y260366D01*
X201850Y259438D01*
X202331Y258606D01*
X203010Y257927D01*
X203842Y257446D01*
X204771Y257197D01*
X205732D01*
X206660Y257446D01*
X207492Y257927D01*
X208172Y258606D01*
X208652Y259438D01*
X208901Y260366D01*
Y261327D01*
X208652Y262256D01*
X208172Y263088D01*
X207492Y263767D01*
X206660Y264248D01*
X205732Y264496D01*
D02*
G37*
G36*
X195732D02*
X194771D01*
X193842Y264248D01*
X193010Y263767D01*
X192331Y263088D01*
X191850Y262256D01*
X191602Y261327D01*
Y260366D01*
X191850Y259438D01*
X192331Y258606D01*
X193010Y257927D01*
X193842Y257446D01*
X194771Y257197D01*
X195732D01*
X196660Y257446D01*
X197492Y257927D01*
X198172Y258606D01*
X198652Y259438D01*
X198901Y260366D01*
Y261327D01*
X198652Y262256D01*
X198172Y263088D01*
X197492Y263767D01*
X196660Y264248D01*
X195732Y264496D01*
D02*
G37*
G36*
X307332Y264297D02*
X306371D01*
X305443Y264048D01*
X304610Y263567D01*
X303931Y262888D01*
X303450Y262056D01*
X303202Y261127D01*
Y260166D01*
X303450Y259238D01*
X303931Y258406D01*
X304610Y257727D01*
X305443Y257246D01*
X306371Y256997D01*
X307332D01*
X308260Y257246D01*
X309092Y257727D01*
X309772Y258406D01*
X310252Y259238D01*
X310501Y260166D01*
Y261127D01*
X310252Y262056D01*
X309772Y262888D01*
X309092Y263567D01*
X308260Y264048D01*
X307332Y264297D01*
D02*
G37*
G36*
X297332D02*
X296371D01*
X295443Y264048D01*
X294610Y263567D01*
X293931Y262888D01*
X293450Y262056D01*
X293202Y261127D01*
Y260166D01*
X293450Y259238D01*
X293931Y258406D01*
X294610Y257727D01*
X295443Y257246D01*
X296371Y256997D01*
X297332D01*
X298260Y257246D01*
X299092Y257727D01*
X299772Y258406D01*
X300252Y259238D01*
X300501Y260166D01*
Y261127D01*
X300252Y262056D01*
X299772Y262888D01*
X299092Y263567D01*
X298260Y264048D01*
X297332Y264297D01*
D02*
G37*
G36*
X287332D02*
X286371D01*
X285442Y264048D01*
X284610Y263567D01*
X283931Y262888D01*
X283450Y262056D01*
X283202Y261127D01*
Y260166D01*
X283450Y259238D01*
X283931Y258406D01*
X284610Y257727D01*
X285442Y257246D01*
X286371Y256997D01*
X287332D01*
X288260Y257246D01*
X289092Y257727D01*
X289772Y258406D01*
X290252Y259238D01*
X290501Y260166D01*
Y261127D01*
X290252Y262056D01*
X289772Y262888D01*
X289092Y263567D01*
X288260Y264048D01*
X287332Y264297D01*
D02*
G37*
G36*
X125581Y234543D02*
X124619D01*
X123691Y234295D01*
X122859Y233814D01*
X122180Y233135D01*
X121699Y232302D01*
X121450Y231374D01*
Y230413D01*
X121699Y229485D01*
X122180Y228653D01*
X122859Y227973D01*
X123691Y227493D01*
X124619Y227244D01*
X125581D01*
X126509Y227493D01*
X127341Y227973D01*
X128020Y228653D01*
X128501Y229485D01*
X128750Y230413D01*
Y231374D01*
X128501Y232302D01*
X128020Y233135D01*
X127341Y233814D01*
X126509Y234295D01*
X125581Y234543D01*
D02*
G37*
G36*
X115580D02*
X114620D01*
X113691Y234295D01*
X112859Y233814D01*
X112180Y233135D01*
X111699Y232302D01*
X111450Y231374D01*
Y230413D01*
X111699Y229485D01*
X112180Y228653D01*
X112859Y227973D01*
X113691Y227493D01*
X114620Y227244D01*
X115580D01*
X116509Y227493D01*
X117341Y227973D01*
X118020Y228653D01*
X118501Y229485D01*
X118750Y230413D01*
Y231374D01*
X118501Y232302D01*
X118020Y233135D01*
X117341Y233814D01*
X116509Y234295D01*
X115580Y234543D01*
D02*
G37*
G36*
X105580D02*
X104620D01*
X103691Y234295D01*
X102859Y233814D01*
X102180Y233135D01*
X101699Y232302D01*
X101450Y231374D01*
Y230413D01*
X101699Y229485D01*
X102180Y228653D01*
X102859Y227973D01*
X103691Y227493D01*
X104620Y227244D01*
X105580D01*
X106509Y227493D01*
X107341Y227973D01*
X108020Y228653D01*
X108501Y229485D01*
X108750Y230413D01*
Y231374D01*
X108501Y232302D01*
X108020Y233135D01*
X107341Y233814D01*
X106509Y234295D01*
X105580Y234543D01*
D02*
G37*
G36*
X215732Y234496D02*
X214771D01*
X213843Y234248D01*
X213010Y233767D01*
X212331Y233088D01*
X211850Y232256D01*
X211602Y231327D01*
Y230366D01*
X211850Y229438D01*
X212331Y228606D01*
X213010Y227926D01*
X213843Y227446D01*
X214771Y227197D01*
X215732D01*
X216660Y227446D01*
X217492Y227926D01*
X218172Y228606D01*
X218652Y229438D01*
X218901Y230366D01*
Y231327D01*
X218652Y232256D01*
X218172Y233088D01*
X217492Y233767D01*
X216660Y234248D01*
X215732Y234496D01*
D02*
G37*
G36*
X205732D02*
X204771D01*
X203842Y234248D01*
X203010Y233767D01*
X202331Y233088D01*
X201850Y232256D01*
X201602Y231327D01*
Y230366D01*
X201850Y229438D01*
X202331Y228606D01*
X203010Y227926D01*
X203842Y227446D01*
X204771Y227197D01*
X205732D01*
X206660Y227446D01*
X207492Y227926D01*
X208172Y228606D01*
X208652Y229438D01*
X208901Y230366D01*
Y231327D01*
X208652Y232256D01*
X208172Y233088D01*
X207492Y233767D01*
X206660Y234248D01*
X205732Y234496D01*
D02*
G37*
G36*
X195732D02*
X194771D01*
X193842Y234248D01*
X193010Y233767D01*
X192331Y233088D01*
X191850Y232256D01*
X191602Y231327D01*
Y230366D01*
X191850Y229438D01*
X192331Y228606D01*
X193010Y227926D01*
X193842Y227446D01*
X194771Y227197D01*
X195732D01*
X196660Y227446D01*
X197492Y227926D01*
X198172Y228606D01*
X198652Y229438D01*
X198901Y230366D01*
Y231327D01*
X198652Y232256D01*
X198172Y233088D01*
X197492Y233767D01*
X196660Y234248D01*
X195732Y234496D01*
D02*
G37*
G36*
X307332Y234296D02*
X306371D01*
X305443Y234048D01*
X304610Y233567D01*
X303931Y232888D01*
X303450Y232056D01*
X303202Y231127D01*
Y230166D01*
X303450Y229238D01*
X303931Y228406D01*
X304610Y227727D01*
X305443Y227246D01*
X306371Y226997D01*
X307332D01*
X308260Y227246D01*
X309092Y227727D01*
X309772Y228406D01*
X310252Y229238D01*
X310501Y230166D01*
Y231127D01*
X310252Y232056D01*
X309772Y232888D01*
X309092Y233567D01*
X308260Y234048D01*
X307332Y234296D01*
D02*
G37*
G36*
X297332D02*
X296371D01*
X295443Y234048D01*
X294610Y233567D01*
X293931Y232888D01*
X293450Y232056D01*
X293202Y231127D01*
Y230166D01*
X293450Y229238D01*
X293931Y228406D01*
X294610Y227727D01*
X295443Y227246D01*
X296371Y226997D01*
X297332D01*
X298260Y227246D01*
X299092Y227727D01*
X299772Y228406D01*
X300252Y229238D01*
X300501Y230166D01*
Y231127D01*
X300252Y232056D01*
X299772Y232888D01*
X299092Y233567D01*
X298260Y234048D01*
X297332Y234296D01*
D02*
G37*
G36*
X287332D02*
X286371D01*
X285442Y234048D01*
X284610Y233567D01*
X283931Y232888D01*
X283450Y232056D01*
X283202Y231127D01*
Y230166D01*
X283450Y229238D01*
X283931Y228406D01*
X284610Y227727D01*
X285442Y227246D01*
X286371Y226997D01*
X287332D01*
X288260Y227246D01*
X289092Y227727D01*
X289772Y228406D01*
X290252Y229238D01*
X290501Y230166D01*
Y231127D01*
X290252Y232056D01*
X289772Y232888D01*
X289092Y233567D01*
X288260Y234048D01*
X287332Y234296D01*
D02*
G37*
G36*
X374806Y225477D02*
X374010D01*
X373275Y225173D01*
X372712Y224610D01*
X372408Y223875D01*
Y223079D01*
X372712Y222344D01*
X373275Y221782D01*
X374010Y221477D01*
X374806D01*
X375541Y221782D01*
X376103Y222344D01*
X376408Y223079D01*
Y223875D01*
X376103Y224610D01*
X375541Y225173D01*
X374806Y225477D01*
D02*
G37*
G36*
X307798Y201200D02*
X307002D01*
X306267Y200896D01*
X305704Y200333D01*
X305400Y199598D01*
Y198802D01*
X305704Y198067D01*
X306267Y197504D01*
X307002Y197200D01*
X307798D01*
X308533Y197504D01*
X309096Y198067D01*
X309400Y198802D01*
Y199598D01*
X309096Y200333D01*
X308533Y200896D01*
X307798Y201200D01*
D02*
G37*
G36*
X302898Y191800D02*
X302102D01*
X301367Y191496D01*
X300804Y190933D01*
X300500Y190198D01*
Y189402D01*
X300804Y188667D01*
X301367Y188104D01*
X302102Y187800D01*
X302898D01*
X303633Y188104D01*
X304195Y188667D01*
X304500Y189402D01*
Y190198D01*
X304195Y190933D01*
X303633Y191496D01*
X302898Y191800D01*
D02*
G37*
G36*
X380299Y189000D02*
X379503D01*
X378768Y188696D01*
X378205Y188133D01*
X377901Y187398D01*
Y186602D01*
X378205Y185867D01*
X378768Y185304D01*
X379503Y185000D01*
X380299D01*
X381034Y185304D01*
X381596Y185867D01*
X381901Y186602D01*
Y187398D01*
X381596Y188133D01*
X381034Y188696D01*
X380299Y189000D01*
D02*
G37*
G36*
Y180000D02*
X379503D01*
X378768Y179695D01*
X378205Y179133D01*
X377901Y178398D01*
Y177602D01*
X378205Y176867D01*
X378768Y176304D01*
X379503Y176000D01*
X380299D01*
X381034Y176304D01*
X381596Y176867D01*
X381901Y177602D01*
Y178398D01*
X381596Y179133D01*
X381034Y179695D01*
X380299Y180000D01*
D02*
G37*
G36*
Y170800D02*
X379503D01*
X378768Y170495D01*
X378205Y169933D01*
X377901Y169198D01*
Y168402D01*
X378205Y167667D01*
X378768Y167104D01*
X379503Y166800D01*
X380299D01*
X381034Y167104D01*
X381596Y167667D01*
X381901Y168402D01*
Y169198D01*
X381596Y169933D01*
X381034Y170495D01*
X380299Y170800D01*
D02*
G37*
G36*
Y161600D02*
X379503D01*
X378768Y161295D01*
X378205Y160733D01*
X377901Y159998D01*
Y159202D01*
X378205Y158467D01*
X378768Y157905D01*
X379503Y157600D01*
X380299D01*
X381034Y157905D01*
X381596Y158467D01*
X381901Y159202D01*
Y159998D01*
X381596Y160733D01*
X381034Y161295D01*
X380299Y161600D01*
D02*
G37*
G36*
X282106Y158600D02*
X281311D01*
X280576Y158296D01*
X280013Y157733D01*
X279709Y156998D01*
Y156202D01*
X280013Y155467D01*
X280576Y154904D01*
X281311Y154600D01*
X282106D01*
X282842Y154904D01*
X283404Y155467D01*
X283709Y156202D01*
Y156998D01*
X283404Y157733D01*
X282842Y158296D01*
X282106Y158600D01*
D02*
G37*
G36*
X371046Y154018D02*
X370250D01*
X369515Y153714D01*
X368952Y153151D01*
X368648Y152416D01*
Y151620D01*
X368952Y150885D01*
X369515Y150323D01*
X370250Y150018D01*
X371046D01*
X371781Y150323D01*
X372344Y150885D01*
X372648Y151620D01*
Y152416D01*
X372344Y153151D01*
X371781Y153714D01*
X371046Y154018D01*
D02*
G37*
G36*
X95724Y153526D02*
X94476D01*
X93269Y153203D01*
X92188Y152578D01*
X92099Y152490D01*
X95100Y149490D01*
X98101Y152490D01*
X98013Y152578D01*
X96931Y153203D01*
X95724Y153526D01*
D02*
G37*
G36*
X358680Y152518D02*
X357884D01*
X357149Y152214D01*
X356586Y151651D01*
X356282Y150916D01*
Y150120D01*
X356586Y149385D01*
X357149Y148823D01*
X357884Y148518D01*
X358680D01*
X359415Y148823D01*
X359977Y149385D01*
X360282Y150120D01*
Y150916D01*
X359977Y151651D01*
X359415Y152214D01*
X358680Y152518D01*
D02*
G37*
G36*
X98808Y151783D02*
X95807Y148783D01*
X98808Y145782D01*
X98896Y145870D01*
X99520Y146952D01*
X99843Y148158D01*
Y149407D01*
X99520Y150613D01*
X98896Y151695D01*
X98808Y151783D01*
D02*
G37*
G36*
X91392D02*
X91304Y151695D01*
X90680Y150613D01*
X90357Y149407D01*
Y148158D01*
X90680Y146952D01*
X91304Y145870D01*
X91392Y145782D01*
X94393Y148783D01*
X91392Y151783D01*
D02*
G37*
G36*
X277193Y152548D02*
X276207D01*
X275253Y152293D01*
X274399Y151799D01*
X273701Y151101D01*
X273207Y150247D01*
X272952Y149293D01*
Y148307D01*
X273207Y147353D01*
X273701Y146499D01*
X274399Y145801D01*
X275253Y145307D01*
X276207Y145052D01*
X277193D01*
X278147Y145307D01*
X279001Y145801D01*
X279699Y146499D01*
X280193Y147353D01*
X280448Y148307D01*
Y149293D01*
X280193Y150247D01*
X279699Y151101D01*
X279001Y151799D01*
X278147Y152293D01*
X277193Y152548D01*
D02*
G37*
G36*
X223854Y152826D02*
X222790D01*
X221761Y152550D01*
X220839Y152018D01*
X220087Y151265D01*
X219554Y150343D01*
X219279Y149315D01*
Y148250D01*
X219554Y147222D01*
X220087Y146300D01*
X220839Y145547D01*
X221761Y145015D01*
X222790Y144739D01*
X223854D01*
X224883Y145015D01*
X225805Y145547D01*
X226557Y146300D01*
X227090Y147222D01*
X227365Y148250D01*
Y149315D01*
X227090Y150343D01*
X226557Y151265D01*
X225805Y152018D01*
X224883Y152550D01*
X223854Y152826D01*
D02*
G37*
G36*
X213854D02*
X212790D01*
X211761Y152550D01*
X210839Y152018D01*
X210087Y151265D01*
X209554Y150343D01*
X209279Y149315D01*
Y148250D01*
X209554Y147222D01*
X210087Y146300D01*
X210839Y145547D01*
X211761Y145015D01*
X212790Y144739D01*
X213854D01*
X214883Y145015D01*
X215805Y145547D01*
X216558Y146300D01*
X217090Y147222D01*
X217365Y148250D01*
Y149315D01*
X217090Y150343D01*
X216558Y151265D01*
X215805Y152018D01*
X214883Y152550D01*
X213854Y152826D01*
D02*
G37*
G36*
X165332D02*
X164268D01*
X163239Y152550D01*
X162317Y152018D01*
X161565Y151265D01*
X161032Y150343D01*
X160757Y149315D01*
Y148250D01*
X161032Y147222D01*
X161565Y146300D01*
X162317Y145547D01*
X163239Y145015D01*
X164268Y144739D01*
X165332D01*
X166361Y145015D01*
X167283Y145547D01*
X168035Y146300D01*
X168568Y147222D01*
X168843Y148250D01*
Y149315D01*
X168568Y150343D01*
X168035Y151265D01*
X167283Y152018D01*
X166361Y152550D01*
X165332Y152826D01*
D02*
G37*
G36*
X155332D02*
X154268D01*
X153239Y152550D01*
X152317Y152018D01*
X151565Y151265D01*
X151032Y150343D01*
X150757Y149315D01*
Y148250D01*
X151032Y147222D01*
X151565Y146300D01*
X152317Y145547D01*
X153239Y145015D01*
X154268Y144739D01*
X155332D01*
X156361Y145015D01*
X157283Y145547D01*
X158035Y146300D01*
X158568Y147222D01*
X158843Y148250D01*
Y149315D01*
X158568Y150343D01*
X158035Y151265D01*
X157283Y152018D01*
X156361Y152550D01*
X155332Y152826D01*
D02*
G37*
G36*
X109143D02*
X101057D01*
Y144739D01*
X109143D01*
Y152826D01*
D02*
G37*
G36*
X95100Y148076D02*
X92099Y145075D01*
X92188Y144987D01*
X93269Y144363D01*
X94476Y144039D01*
X95724D01*
X96931Y144363D01*
X98013Y144987D01*
X98101Y145075D01*
X95100Y148076D01*
D02*
G37*
G36*
X277193Y142548D02*
X276207D01*
X275253Y142293D01*
X274399Y141799D01*
X273701Y141101D01*
X273207Y140247D01*
X272952Y139293D01*
Y138307D01*
X273207Y137353D01*
X273701Y136499D01*
X274399Y135801D01*
X275253Y135307D01*
X276207Y135052D01*
X277193D01*
X278147Y135307D01*
X279001Y135801D01*
X279699Y136499D01*
X280193Y137353D01*
X280448Y138307D01*
Y139293D01*
X280193Y140247D01*
X279699Y141101D01*
X279001Y141799D01*
X278147Y142293D01*
X277193Y142548D01*
D02*
G37*
G36*
X223854Y142826D02*
X222790D01*
X221761Y142550D01*
X220839Y142018D01*
X220087Y141265D01*
X219554Y140343D01*
X219279Y139315D01*
Y138250D01*
X219554Y137222D01*
X220087Y136300D01*
X220839Y135547D01*
X221761Y135015D01*
X222790Y134739D01*
X223854D01*
X224883Y135015D01*
X225805Y135547D01*
X226557Y136300D01*
X227090Y137222D01*
X227365Y138250D01*
Y139315D01*
X227090Y140343D01*
X226557Y141265D01*
X225805Y142018D01*
X224883Y142550D01*
X223854Y142826D01*
D02*
G37*
G36*
X213854D02*
X212790D01*
X211761Y142550D01*
X210839Y142018D01*
X210087Y141265D01*
X209554Y140343D01*
X209279Y139315D01*
Y138250D01*
X209554Y137222D01*
X210087Y136300D01*
X210839Y135547D01*
X211761Y135015D01*
X212790Y134739D01*
X213854D01*
X214883Y135015D01*
X215805Y135547D01*
X216558Y136300D01*
X217090Y137222D01*
X217365Y138250D01*
Y139315D01*
X217090Y140343D01*
X216558Y141265D01*
X215805Y142018D01*
X214883Y142550D01*
X213854Y142826D01*
D02*
G37*
G36*
X165332D02*
X164268D01*
X163239Y142550D01*
X162317Y142018D01*
X161565Y141265D01*
X161032Y140343D01*
X160757Y139315D01*
Y138250D01*
X161032Y137222D01*
X161565Y136300D01*
X162317Y135547D01*
X163239Y135015D01*
X164268Y134739D01*
X165332D01*
X166361Y135015D01*
X167283Y135547D01*
X168035Y136300D01*
X168568Y137222D01*
X168843Y138250D01*
Y139315D01*
X168568Y140343D01*
X168035Y141265D01*
X167283Y142018D01*
X166361Y142550D01*
X165332Y142826D01*
D02*
G37*
G36*
X155332D02*
X154268D01*
X153239Y142550D01*
X152317Y142018D01*
X151565Y141265D01*
X151032Y140343D01*
X150757Y139315D01*
Y138250D01*
X151032Y137222D01*
X151565Y136300D01*
X152317Y135547D01*
X153239Y135015D01*
X154268Y134739D01*
X155332D01*
X156361Y135015D01*
X157283Y135547D01*
X158035Y136300D01*
X158568Y137222D01*
X158843Y138250D01*
Y139315D01*
X158568Y140343D01*
X158035Y141265D01*
X157283Y142018D01*
X156361Y142550D01*
X155332Y142826D01*
D02*
G37*
G36*
X105632D02*
X104568D01*
X103539Y142550D01*
X102617Y142018D01*
X101865Y141265D01*
X101332Y140343D01*
X101057Y139315D01*
Y138250D01*
X101332Y137222D01*
X101865Y136300D01*
X102617Y135547D01*
X103539Y135015D01*
X104568Y134739D01*
X105632D01*
X106661Y135015D01*
X107583Y135547D01*
X108335Y136300D01*
X108868Y137222D01*
X109143Y138250D01*
Y139315D01*
X108868Y140343D01*
X108335Y141265D01*
X107583Y142018D01*
X106661Y142550D01*
X105632Y142826D01*
D02*
G37*
G36*
X95632D02*
X94568D01*
X93539Y142550D01*
X92617Y142018D01*
X91865Y141265D01*
X91332Y140343D01*
X91057Y139315D01*
Y138250D01*
X91332Y137222D01*
X91865Y136300D01*
X92617Y135547D01*
X93539Y135015D01*
X94568Y134739D01*
X95632D01*
X96661Y135015D01*
X97583Y135547D01*
X98335Y136300D01*
X98868Y137222D01*
X99143Y138250D01*
Y139315D01*
X98868Y140343D01*
X98335Y141265D01*
X97583Y142018D01*
X96661Y142550D01*
X95632Y142826D01*
D02*
G37*
G36*
X328680Y137300D02*
X327884D01*
X327149Y136995D01*
X326586Y136433D01*
X326282Y135698D01*
Y134902D01*
X326586Y134167D01*
X327149Y133605D01*
X327884Y133300D01*
X328680D01*
X329415Y133605D01*
X329977Y134167D01*
X330282Y134902D01*
Y135698D01*
X329977Y136433D01*
X329415Y136995D01*
X328680Y137300D01*
D02*
G37*
G36*
X223946Y133526D02*
X222698D01*
X221491Y133203D01*
X220410Y132578D01*
X220322Y132490D01*
X223322Y129490D01*
X226323Y132490D01*
X226235Y132578D01*
X225153Y133203D01*
X223946Y133526D01*
D02*
G37*
G36*
X165425D02*
X164175D01*
X162969Y133203D01*
X161888Y132578D01*
X161800Y132490D01*
X164800Y129490D01*
X167800Y132490D01*
X167712Y132578D01*
X166631Y133203D01*
X165425Y133526D01*
D02*
G37*
G36*
X219615Y131783D02*
X219527Y131695D01*
X218902Y130614D01*
X218579Y129407D01*
Y128158D01*
X218902Y126952D01*
X219527Y125870D01*
X219615Y125782D01*
X222615Y128783D01*
X219615Y131783D01*
D02*
G37*
G36*
X161092D02*
X161004Y131695D01*
X160380Y130614D01*
X160057Y129407D01*
Y128158D01*
X160380Y126952D01*
X161004Y125870D01*
X161092Y125782D01*
X164093Y128783D01*
X161092Y131783D01*
D02*
G37*
G36*
X227030Y131783D02*
X224029Y128783D01*
X227030Y125782D01*
X227118Y125870D01*
X227742Y126952D01*
X228065Y128158D01*
Y129407D01*
X227742Y130614D01*
X227118Y131695D01*
X227030Y131783D01*
D02*
G37*
G36*
X168508Y131783D02*
X165507Y128783D01*
X168508Y125782D01*
X168596Y125870D01*
X169220Y126952D01*
X169543Y128158D01*
Y129407D01*
X169220Y130614D01*
X168596Y131695D01*
X168508Y131783D01*
D02*
G37*
G36*
X277193Y132548D02*
X276207D01*
X275253Y132293D01*
X274399Y131799D01*
X273701Y131101D01*
X273207Y130247D01*
X272952Y129293D01*
Y128307D01*
X273207Y127353D01*
X273701Y126499D01*
X274399Y125801D01*
X275253Y125307D01*
X276207Y125052D01*
X277193D01*
X278147Y125307D01*
X279001Y125801D01*
X279699Y126499D01*
X280193Y127353D01*
X280448Y128307D01*
Y129293D01*
X280193Y130247D01*
X279699Y131101D01*
X279001Y131799D01*
X278147Y132293D01*
X277193Y132548D01*
D02*
G37*
G36*
X363657Y128523D02*
X362907D01*
X362214Y128236D01*
X361683Y127705D01*
X361396Y127012D01*
Y126262D01*
X361683Y125569D01*
X362214Y125038D01*
X362907Y124751D01*
X363657D01*
X364350Y125038D01*
X364881Y125569D01*
X365168Y126262D01*
Y127012D01*
X364881Y127705D01*
X364350Y128236D01*
X363657Y128523D01*
D02*
G37*
G36*
X358263D02*
X357513D01*
X356820Y128236D01*
X356290Y127705D01*
X356002Y127012D01*
Y126262D01*
X356290Y125569D01*
X356820Y125038D01*
X357513Y124751D01*
X358263D01*
X358956Y125038D01*
X359487Y125569D01*
X359774Y126262D01*
Y127012D01*
X359487Y127705D01*
X358956Y128236D01*
X358263Y128523D01*
D02*
G37*
G36*
X352751D02*
X352001D01*
X351308Y128236D01*
X350778Y127705D01*
X350491Y127012D01*
Y126262D01*
X350778Y125569D01*
X351308Y125038D01*
X352001Y124751D01*
X352751D01*
X353445Y125038D01*
X353975Y125569D01*
X354262Y126262D01*
Y127012D01*
X353975Y127705D01*
X353445Y128236D01*
X352751Y128523D01*
D02*
G37*
G36*
X217365Y132826D02*
X209279D01*
Y124739D01*
X217365D01*
Y132826D01*
D02*
G37*
G36*
X158843D02*
X150757D01*
Y124739D01*
X158843D01*
Y132826D01*
D02*
G37*
G36*
X105632D02*
X104568D01*
X103539Y132550D01*
X102617Y132018D01*
X101865Y131265D01*
X101332Y130343D01*
X101057Y129315D01*
Y128250D01*
X101332Y127222D01*
X101865Y126300D01*
X102617Y125547D01*
X103539Y125015D01*
X104568Y124739D01*
X105632D01*
X106661Y125015D01*
X107583Y125547D01*
X108335Y126300D01*
X108868Y127222D01*
X109143Y128250D01*
Y129315D01*
X108868Y130343D01*
X108335Y131265D01*
X107583Y132018D01*
X106661Y132550D01*
X105632Y132826D01*
D02*
G37*
G36*
X95632D02*
X94568D01*
X93539Y132550D01*
X92617Y132018D01*
X91865Y131265D01*
X91332Y130343D01*
X91057Y129315D01*
Y128250D01*
X91332Y127222D01*
X91865Y126300D01*
X92617Y125547D01*
X93539Y125015D01*
X94568Y124739D01*
X95632D01*
X96661Y125015D01*
X97583Y125547D01*
X98335Y126300D01*
X98868Y127222D01*
X99143Y128250D01*
Y129315D01*
X98868Y130343D01*
X98335Y131265D01*
X97583Y132018D01*
X96661Y132550D01*
X95632Y132826D01*
D02*
G37*
G36*
X223322Y128076D02*
X220322Y125075D01*
X220410Y124987D01*
X221491Y124363D01*
X222698Y124039D01*
X223946D01*
X225153Y124363D01*
X226235Y124987D01*
X226323Y125075D01*
X223322Y128076D01*
D02*
G37*
G36*
X164800Y128076D02*
X161800Y125075D01*
X161888Y124987D01*
X162969Y124363D01*
X164175Y124039D01*
X165425D01*
X166631Y124363D01*
X167712Y124987D01*
X167800Y125075D01*
X164800Y128076D01*
D02*
G37*
G36*
X367712Y124586D02*
X366962D01*
X366269Y124299D01*
X365738Y123768D01*
X365451Y123075D01*
Y122325D01*
X365738Y121632D01*
X366269Y121101D01*
X366962Y120814D01*
X367712D01*
X368405Y121101D01*
X368936Y121632D01*
X369223Y122325D01*
Y123075D01*
X368936Y123768D01*
X368405Y124299D01*
X367712Y124586D01*
D02*
G37*
G36*
X348815D02*
X348064D01*
X347371Y124299D01*
X346841Y123768D01*
X346553Y123075D01*
Y122325D01*
X346841Y121632D01*
X347371Y121101D01*
X348064Y120814D01*
X348815D01*
X349508Y121101D01*
X350038Y121632D01*
X350325Y122325D01*
Y123075D01*
X350038Y123768D01*
X349508Y124299D01*
X348815Y124586D01*
D02*
G37*
G36*
X361019Y121830D02*
X360269D01*
X359576Y121543D01*
X359045Y121012D01*
X358758Y120319D01*
Y119569D01*
X359045Y118876D01*
X359576Y118345D01*
X360269Y118058D01*
X361019D01*
X361712Y118345D01*
X362243Y118876D01*
X362530Y119569D01*
Y120319D01*
X362243Y121012D01*
X361712Y121543D01*
X361019Y121830D01*
D02*
G37*
G36*
X355507D02*
X354757D01*
X354064Y121543D01*
X353534Y121012D01*
X353246Y120319D01*
Y119569D01*
X353534Y118876D01*
X354064Y118345D01*
X354757Y118058D01*
X355507D01*
X356201Y118345D01*
X356731Y118876D01*
X357018Y119569D01*
Y120319D01*
X356731Y121012D01*
X356201Y121543D01*
X355507Y121830D01*
D02*
G37*
G36*
X367712Y119074D02*
X366962D01*
X366269Y118787D01*
X365738Y118256D01*
X365451Y117563D01*
Y116813D01*
X365738Y116120D01*
X366269Y115589D01*
X366962Y115302D01*
X367712D01*
X368405Y115589D01*
X368936Y116120D01*
X369223Y116813D01*
Y117563D01*
X368936Y118256D01*
X368405Y118787D01*
X367712Y119074D01*
D02*
G37*
G36*
X348815D02*
X348064D01*
X347371Y118787D01*
X346841Y118256D01*
X346553Y117563D01*
Y116813D01*
X346841Y116120D01*
X347371Y115589D01*
X348064Y115302D01*
X348815D01*
X349508Y115589D01*
X350038Y116120D01*
X350325Y116813D01*
Y117563D01*
X350038Y118256D01*
X349508Y118787D01*
X348815Y119074D01*
D02*
G37*
G36*
X277193Y122548D02*
X276207D01*
X275253Y122293D01*
X274399Y121799D01*
X273701Y121101D01*
X273207Y120247D01*
X272952Y119293D01*
Y118307D01*
X273207Y117353D01*
X273701Y116499D01*
X274399Y115801D01*
X275253Y115307D01*
X276207Y115052D01*
X277193D01*
X278147Y115307D01*
X279001Y115801D01*
X279699Y116499D01*
X280193Y117353D01*
X280448Y118307D01*
Y119293D01*
X280193Y120247D01*
X279699Y121101D01*
X279001Y121799D01*
X278147Y122293D01*
X277193Y122548D01*
D02*
G37*
G36*
X361019Y116318D02*
X360269D01*
X359576Y116031D01*
X359045Y115500D01*
X358758Y114807D01*
Y114057D01*
X359045Y113364D01*
X359576Y112834D01*
X360269Y112547D01*
X361019D01*
X361712Y112834D01*
X362243Y113364D01*
X362530Y114057D01*
Y114807D01*
X362243Y115500D01*
X361712Y116031D01*
X361019Y116318D01*
D02*
G37*
G36*
X355507D02*
X354757D01*
X354064Y116031D01*
X353534Y115500D01*
X353246Y114807D01*
Y114057D01*
X353534Y113364D01*
X354064Y112834D01*
X354757Y112547D01*
X355507D01*
X356201Y112834D01*
X356731Y113364D01*
X357018Y114057D01*
Y114807D01*
X356731Y115500D01*
X356201Y116031D01*
X355507Y116318D01*
D02*
G37*
G36*
X367712Y113562D02*
X366962D01*
X366269Y113275D01*
X365738Y112745D01*
X365451Y112051D01*
Y111301D01*
X365738Y110608D01*
X366269Y110078D01*
X366962Y109791D01*
X367712D01*
X368405Y110078D01*
X368936Y110608D01*
X369223Y111301D01*
Y112051D01*
X368936Y112745D01*
X368405Y113275D01*
X367712Y113562D01*
D02*
G37*
G36*
X348815D02*
X348064D01*
X347371Y113275D01*
X346841Y112745D01*
X346553Y112051D01*
Y111301D01*
X346841Y110608D01*
X347371Y110078D01*
X348064Y109791D01*
X348815D01*
X349508Y110078D01*
X350038Y110608D01*
X350325Y111301D01*
Y112051D01*
X350038Y112745D01*
X349508Y113275D01*
X348815Y113562D01*
D02*
G37*
G36*
X40398Y110800D02*
X39602D01*
X38867Y110495D01*
X38304Y109933D01*
X38050Y109318D01*
X37887Y109292D01*
X37413D01*
X37250Y109318D01*
X36996Y109933D01*
X36433Y110495D01*
X35698Y110800D01*
X34902D01*
X34167Y110495D01*
X33604Y109933D01*
X33300Y109198D01*
Y108402D01*
X33604Y107667D01*
X34167Y107105D01*
X34460Y106983D01*
Y106117D01*
X34167Y105996D01*
X33604Y105433D01*
X33300Y104698D01*
Y103902D01*
X33604Y103167D01*
X34167Y102604D01*
X34387Y102513D01*
Y101647D01*
X34167Y101556D01*
X33604Y100994D01*
X33300Y100259D01*
Y99463D01*
X33604Y98728D01*
X34167Y98165D01*
X34902Y97861D01*
X35698D01*
X36433Y98165D01*
X36996Y98728D01*
X37250Y99342D01*
X37413Y99368D01*
X37887D01*
X38050Y99342D01*
X38304Y98728D01*
X38867Y98165D01*
X39602Y97861D01*
X40398D01*
X41133Y98165D01*
X41695Y98728D01*
X42000Y99463D01*
Y100259D01*
X41695Y100994D01*
X41133Y101556D01*
X40913Y101647D01*
Y102513D01*
X41133Y102604D01*
X41695Y103167D01*
X42000Y103902D01*
Y104698D01*
X41695Y105433D01*
X41133Y105996D01*
X40839Y106117D01*
Y106983D01*
X41133Y107105D01*
X41695Y107667D01*
X42000Y108402D01*
Y109198D01*
X41695Y109933D01*
X41133Y110495D01*
X40398Y110800D01*
D02*
G37*
G36*
X23851D02*
X23055D01*
X22320Y110495D01*
X21757Y109933D01*
X21453Y109198D01*
Y108402D01*
X21757Y107667D01*
X22320Y107105D01*
X23055Y106800D01*
X23851D01*
X24586Y107105D01*
X25148Y107667D01*
X25453Y108402D01*
Y109198D01*
X25148Y109933D01*
X24586Y110495D01*
X23851Y110800D01*
D02*
G37*
G36*
X363775Y109625D02*
X363025D01*
X362332Y109338D01*
X361801Y108808D01*
X361514Y108115D01*
Y107364D01*
X361801Y106671D01*
X362332Y106141D01*
X363025Y105853D01*
X363775D01*
X364468Y106141D01*
X364999Y106671D01*
X365286Y107364D01*
Y108115D01*
X364999Y108808D01*
X364468Y109338D01*
X363775Y109625D01*
D02*
G37*
G36*
X358263D02*
X357513D01*
X356820Y109338D01*
X356290Y108808D01*
X356002Y108115D01*
Y107364D01*
X356290Y106671D01*
X356820Y106141D01*
X357513Y105853D01*
X358263D01*
X358956Y106141D01*
X359487Y106671D01*
X359774Y107364D01*
Y108115D01*
X359487Y108808D01*
X358956Y109338D01*
X358263Y109625D01*
D02*
G37*
G36*
X352751D02*
X352001D01*
X351308Y109338D01*
X350778Y108808D01*
X350491Y108115D01*
Y107364D01*
X350778Y106671D01*
X351308Y106141D01*
X352001Y105853D01*
X352751D01*
X353445Y106141D01*
X353975Y106671D01*
X354262Y107364D01*
Y108115D01*
X353975Y108808D01*
X353445Y109338D01*
X352751Y109625D01*
D02*
G37*
G36*
X30648Y110800D02*
X29853D01*
X29118Y110495D01*
X28555Y109933D01*
X28250Y109198D01*
Y108402D01*
X28555Y107667D01*
X29118Y107105D01*
X29411Y106983D01*
Y106117D01*
X29118Y105996D01*
X28555Y105433D01*
X28250Y104698D01*
Y103902D01*
X28555Y103167D01*
X29118Y102604D01*
X29853Y102300D01*
X30648D01*
X31383Y102604D01*
X31946Y103167D01*
X32250Y103902D01*
Y104698D01*
X31946Y105433D01*
X31383Y105996D01*
X31090Y106117D01*
Y106983D01*
X31383Y107105D01*
X31946Y107667D01*
X32250Y108402D01*
Y109198D01*
X31946Y109933D01*
X31383Y110495D01*
X30648Y110800D01*
D02*
G37*
G36*
X372541Y104100D02*
X371745D01*
X371010Y103796D01*
X370448Y103233D01*
X370143Y102498D01*
Y101702D01*
X370448Y100967D01*
X371010Y100405D01*
X371745Y100100D01*
X372541D01*
X373276Y100405D01*
X373839Y100967D01*
X374143Y101702D01*
Y102498D01*
X373839Y103233D01*
X373276Y103796D01*
X372541Y104100D01*
D02*
G37*
G36*
X54898Y110800D02*
X54102D01*
X53367Y110495D01*
X52804Y109933D01*
X52500Y109198D01*
Y108402D01*
X52804Y107667D01*
X53367Y107105D01*
X53661Y106983D01*
Y106117D01*
X53367Y105996D01*
X52804Y105433D01*
X52500Y104698D01*
Y103902D01*
X52804Y103167D01*
X53367Y102604D01*
X53587Y102513D01*
Y101647D01*
X53367Y101556D01*
X52804Y100994D01*
X52500Y100259D01*
Y99463D01*
X52804Y98728D01*
X53367Y98165D01*
X54102Y97861D01*
X54898D01*
X55633Y98165D01*
X56195Y98728D01*
X56500Y99463D01*
Y100259D01*
X56195Y100994D01*
X55633Y101556D01*
X55413Y101647D01*
Y102513D01*
X55633Y102604D01*
X56195Y103167D01*
X56500Y103902D01*
Y104698D01*
X56195Y105433D01*
X55633Y105996D01*
X55339Y106117D01*
Y106983D01*
X55633Y107105D01*
X56195Y107667D01*
X56500Y108402D01*
Y109198D01*
X56195Y109933D01*
X55633Y110495D01*
X54898Y110800D01*
D02*
G37*
G36*
X378541Y95018D02*
X377746D01*
X377011Y94713D01*
X376448Y94151D01*
X376144Y93416D01*
Y92620D01*
X376448Y91885D01*
X377011Y91322D01*
X377746Y91018D01*
X378541D01*
X379277Y91322D01*
X379839Y91885D01*
X380144Y92620D01*
Y93416D01*
X379839Y94151D01*
X379277Y94713D01*
X378541Y95018D01*
D02*
G37*
G36*
X324977Y94880D02*
X324182D01*
X323447Y94575D01*
X322884Y94012D01*
X322580Y93277D01*
Y92482D01*
X322884Y91747D01*
X323447Y91184D01*
X324182Y90880D01*
X324977D01*
X325712Y91184D01*
X326275Y91747D01*
X326580Y92482D01*
Y93277D01*
X326275Y94012D01*
X325712Y94575D01*
X324977Y94880D01*
D02*
G37*
G36*
X338680Y87980D02*
X337884D01*
X337149Y87675D01*
X336586Y87112D01*
X336282Y86377D01*
Y85582D01*
X336586Y84847D01*
X337149Y84284D01*
X337884Y83980D01*
X338680D01*
X339415Y84284D01*
X339977Y84847D01*
X340282Y85582D01*
Y86377D01*
X339977Y87112D01*
X339415Y87675D01*
X338680Y87980D01*
D02*
G37*
G36*
X30526Y85115D02*
X25408D01*
X24661Y85016D01*
X23964Y84728D01*
X23367Y84269D01*
X22974Y83757D01*
X16543D01*
X16150Y84269D01*
X15552Y84728D01*
X14856Y85016D01*
X14109Y85115D01*
X8991D01*
X8243Y85016D01*
X7547Y84728D01*
X6949Y84269D01*
X6490Y83671D01*
X6202Y82975D01*
X6104Y82228D01*
X6202Y81480D01*
X6490Y80784D01*
X6949Y80186D01*
X7547Y79727D01*
X8243Y79439D01*
X8991Y79341D01*
X10020D01*
Y51059D01*
X8991D01*
X8243Y50961D01*
X7547Y50673D01*
X6949Y50214D01*
X6490Y49616D01*
X6202Y48920D01*
X6104Y48172D01*
X6202Y47425D01*
X6490Y46729D01*
X6949Y46131D01*
X7547Y45672D01*
X8243Y45384D01*
X8991Y45285D01*
X14109D01*
X14856Y45384D01*
X15552Y45672D01*
X16150Y46131D01*
X16543Y46643D01*
X22974D01*
X23367Y46131D01*
X23964Y45672D01*
X24661Y45384D01*
X25408Y45285D01*
X30526D01*
X31273Y45384D01*
X31969Y45672D01*
X32567Y46131D01*
X33026Y46729D01*
X33314Y47425D01*
X33413Y48172D01*
X33314Y48920D01*
X33026Y49616D01*
X32567Y50214D01*
X31969Y50673D01*
X31273Y50961D01*
X30526Y51059D01*
X25408D01*
X24661Y50961D01*
X23964Y50673D01*
X23367Y50214D01*
X22974Y49702D01*
X16543D01*
X16150Y50214D01*
X15552Y50673D01*
X14856Y50961D01*
X14109Y51059D01*
X13079D01*
Y56205D01*
X13237Y56310D01*
X14032D01*
X14768Y56615D01*
X15195Y57042D01*
X15667Y57121D01*
X16140Y57042D01*
X16567Y56615D01*
X17302Y56310D01*
X18098D01*
X18833Y56615D01*
X19214Y56996D01*
X19700Y57107D01*
X20186Y56996D01*
X20567Y56615D01*
X21302Y56310D01*
X22098D01*
X22833Y56615D01*
X23395Y57177D01*
X23700Y57912D01*
Y58708D01*
X23395Y59443D01*
X23059Y59780D01*
X22913Y60279D01*
X23059Y60778D01*
X23395Y61114D01*
X23700Y61849D01*
Y62645D01*
X23395Y63380D01*
X23059Y63717D01*
X22913Y64216D01*
X23059Y64715D01*
X23395Y65051D01*
X23700Y65786D01*
Y66582D01*
X23395Y67317D01*
X23059Y67654D01*
X22913Y68153D01*
X23059Y68652D01*
X23395Y68988D01*
X23700Y69723D01*
Y70519D01*
X23395Y71254D01*
X22833Y71817D01*
X22506Y71952D01*
Y72818D01*
X22833Y72953D01*
X23395Y73516D01*
X23700Y74251D01*
Y75047D01*
X23395Y75782D01*
X22833Y76344D01*
X22098Y76649D01*
X21302D01*
X20567Y76344D01*
X20186Y75963D01*
X19700Y75852D01*
X19214Y75963D01*
X18833Y76344D01*
X18098Y76649D01*
X17302D01*
X16567Y76344D01*
X16140Y75917D01*
X15667Y75838D01*
X15195Y75917D01*
X14768Y76344D01*
X14032Y76649D01*
X13237D01*
X13079Y76754D01*
Y79341D01*
X14109D01*
X14856Y79439D01*
X15552Y79727D01*
X16150Y80186D01*
X16543Y80698D01*
X22974D01*
X23367Y80186D01*
X23964Y79727D01*
X24661Y79439D01*
X25408Y79341D01*
X30526D01*
X31273Y79439D01*
X31969Y79727D01*
X32567Y80186D01*
X33026Y80784D01*
X33314Y81480D01*
X33413Y82228D01*
X33314Y82975D01*
X33026Y83671D01*
X32567Y84269D01*
X31969Y84728D01*
X31273Y85016D01*
X30526Y85115D01*
D02*
G37*
G36*
X333680Y85118D02*
X332884D01*
X332149Y84814D01*
X331586Y84251D01*
X331282Y83516D01*
Y82720D01*
X331586Y81985D01*
X332149Y81423D01*
X332884Y81118D01*
X333680D01*
X334415Y81423D01*
X334977Y81985D01*
X335282Y82720D01*
Y83516D01*
X334977Y84251D01*
X334415Y84814D01*
X333680Y85118D01*
D02*
G37*
G36*
X26372Y78259D02*
X25703D01*
X25085Y78003D01*
X24613Y77530D01*
X24357Y76912D01*
Y76244D01*
X24613Y75626D01*
X25085Y75153D01*
X25703Y74897D01*
X26372D01*
X26990Y75153D01*
X27463Y75626D01*
X27719Y76244D01*
Y76912D01*
X27463Y77530D01*
X26990Y78003D01*
X26372Y78259D01*
D02*
G37*
G36*
X383680Y73500D02*
X382884D01*
X382149Y73195D01*
X381586Y72633D01*
X381282Y71898D01*
Y71102D01*
X381586Y70367D01*
X382149Y69805D01*
X382884Y69500D01*
X383680D01*
X384415Y69805D01*
X384977Y70367D01*
X385282Y71102D01*
Y71898D01*
X384977Y72633D01*
X384415Y73195D01*
X383680Y73500D01*
D02*
G37*
G36*
X353680D02*
X352884D01*
X352149Y73195D01*
X351586Y72633D01*
X351282Y71898D01*
Y71102D01*
X351586Y70367D01*
X352149Y69805D01*
X352884Y69500D01*
X353680D01*
X354415Y69805D01*
X354977Y70367D01*
X355282Y71102D01*
Y71898D01*
X354977Y72633D01*
X354415Y73195D01*
X353680Y73500D01*
D02*
G37*
G36*
X378680Y73500D02*
X377884D01*
X377149Y73195D01*
X376586Y72633D01*
X376282Y71898D01*
Y71102D01*
X376586Y70367D01*
X377149Y69805D01*
X377884Y69500D01*
X378680D01*
X379415Y69805D01*
X379977Y70367D01*
X380282Y71102D01*
Y71898D01*
X379977Y72633D01*
X379415Y73195D01*
X378680Y73500D01*
D02*
G37*
G36*
X323680Y73500D02*
X322884D01*
X322149Y73195D01*
X321586Y72633D01*
X321282Y71898D01*
Y71102D01*
X321586Y70367D01*
X322149Y69805D01*
X322884Y69500D01*
X323680D01*
X324415Y69805D01*
X324977Y70367D01*
X325282Y71102D01*
Y71898D01*
X324977Y72633D01*
X324415Y73195D01*
X323680Y73500D01*
D02*
G37*
G36*
X348680Y72447D02*
X347884D01*
X347149Y72142D01*
X346586Y71579D01*
X346282Y70844D01*
Y70049D01*
X346586Y69314D01*
X347149Y68751D01*
X347884Y68446D01*
X348680D01*
X349415Y68751D01*
X349977Y69314D01*
X350282Y70049D01*
Y70844D01*
X349977Y71579D01*
X349415Y72142D01*
X348680Y72447D01*
D02*
G37*
G36*
X343680Y71232D02*
X342884D01*
X342149Y70928D01*
X341586Y70365D01*
X341282Y69630D01*
Y68835D01*
X341586Y68099D01*
X342149Y67537D01*
X342884Y67232D01*
X343680D01*
X344415Y67537D01*
X344977Y68099D01*
X345282Y68835D01*
Y69630D01*
X344977Y70365D01*
X344415Y70928D01*
X343680Y71232D01*
D02*
G37*
G36*
X358814Y66543D02*
X357750D01*
X356721Y66268D01*
X355799Y65736D01*
X355046Y64983D01*
X354514Y64061D01*
X354239Y63032D01*
Y61968D01*
X354514Y60939D01*
X355046Y60017D01*
X355799Y59264D01*
X356721Y58732D01*
X357750Y58457D01*
X358814D01*
X359842Y58732D01*
X360765Y59264D01*
X361517Y60017D01*
X362050Y60939D01*
X362325Y61968D01*
Y63032D01*
X362050Y64061D01*
X361517Y64983D01*
X360765Y65736D01*
X359842Y66268D01*
X358814Y66543D01*
D02*
G37*
G36*
X348814D02*
X347750D01*
X346721Y66268D01*
X345799Y65736D01*
X345046Y64983D01*
X344514Y64061D01*
X344239Y63032D01*
Y61968D01*
X344514Y60939D01*
X345046Y60017D01*
X345799Y59264D01*
X346721Y58732D01*
X347750Y58457D01*
X348814D01*
X349843Y58732D01*
X350764Y59264D01*
X351517Y60017D01*
X352050Y60939D01*
X352325Y61968D01*
Y63032D01*
X352050Y64061D01*
X351517Y64983D01*
X350764Y65736D01*
X349843Y66268D01*
X348814Y66543D01*
D02*
G37*
G36*
X342325D02*
X334239D01*
Y58457D01*
X342325D01*
Y66543D01*
D02*
G37*
G36*
X344574Y55501D02*
X344486Y55413D01*
X343862Y54331D01*
X343696Y53712D01*
X342868D01*
X342702Y54331D01*
X342077Y55413D01*
X341989Y55501D01*
X338989Y52500D01*
X341989Y49499D01*
X342077Y49588D01*
X342702Y50669D01*
X342868Y51288D01*
X343696D01*
X343862Y50669D01*
X344486Y49588D01*
X344574Y49499D01*
X347575Y52500D01*
X344574Y55501D01*
D02*
G37*
G36*
X348906Y57243D02*
X347657D01*
X346451Y56920D01*
X345369Y56296D01*
X345281Y56208D01*
X348282Y53207D01*
X351282Y56208D01*
X351194Y56296D01*
X350113Y56920D01*
X348906Y57243D01*
D02*
G37*
G36*
X338906D02*
X337657D01*
X336451Y56920D01*
X335369Y56296D01*
X335281Y56208D01*
X338282Y53207D01*
X341282Y56208D01*
X341194Y56296D01*
X340113Y56920D01*
X338906Y57243D01*
D02*
G37*
G36*
X26372Y55503D02*
X25703D01*
X25085Y55247D01*
X24613Y54774D01*
X24357Y54156D01*
Y53488D01*
X24613Y52870D01*
X25085Y52397D01*
X25703Y52141D01*
X26372D01*
X26990Y52397D01*
X27463Y52870D01*
X27719Y53488D01*
Y54156D01*
X27463Y54774D01*
X26990Y55247D01*
X26372Y55503D01*
D02*
G37*
G36*
X351990Y55501D02*
X348989Y52500D01*
X351990Y49499D01*
X352078Y49588D01*
X352702Y50669D01*
X353025Y51876D01*
Y53124D01*
X352702Y54331D01*
X352078Y55413D01*
X351990Y55501D01*
D02*
G37*
G36*
X334574Y55501D02*
X334486Y55413D01*
X333862Y54331D01*
X333539Y53124D01*
Y51876D01*
X333862Y50669D01*
X334486Y49588D01*
X334574Y49499D01*
X337575Y52500D01*
X334574Y55501D01*
D02*
G37*
G36*
X358814Y56543D02*
X357750D01*
X356721Y56268D01*
X355799Y55735D01*
X355046Y54983D01*
X354514Y54061D01*
X354239Y53032D01*
Y51968D01*
X354514Y50939D01*
X355046Y50017D01*
X355799Y49265D01*
X356721Y48732D01*
X357750Y48457D01*
X358814D01*
X359842Y48732D01*
X360765Y49265D01*
X361517Y50017D01*
X362050Y50939D01*
X362325Y51968D01*
Y53032D01*
X362050Y54061D01*
X361517Y54983D01*
X360765Y55735D01*
X359842Y56268D01*
X358814Y56543D01*
D02*
G37*
G36*
X348282Y51793D02*
X345281Y48792D01*
X345369Y48704D01*
X346451Y48080D01*
X347657Y47757D01*
X348906D01*
X350113Y48080D01*
X351194Y48704D01*
X351282Y48792D01*
X348282Y51793D01*
D02*
G37*
G36*
X338282D02*
X335281Y48792D01*
X335369Y48704D01*
X336451Y48080D01*
X337657Y47757D01*
X338906D01*
X340113Y48080D01*
X341194Y48704D01*
X341282Y48792D01*
X338282Y51793D01*
D02*
G37*
G36*
X374649Y49700D02*
X373853D01*
X373118Y49395D01*
X372555Y48833D01*
X372251Y48098D01*
Y47302D01*
X372555Y46567D01*
X373118Y46005D01*
X373853Y45700D01*
X374649D01*
X375384Y46005D01*
X375946Y46567D01*
X376251Y47302D01*
Y48098D01*
X375946Y48833D01*
X375384Y49395D01*
X374649Y49700D01*
D02*
G37*
G36*
X105498Y47416D02*
X104702D01*
X103967Y47112D01*
X103404Y46549D01*
X103100Y45814D01*
Y45019D01*
X103404Y44284D01*
X103967Y43721D01*
X104702Y43417D01*
X105498D01*
X106233Y43721D01*
X106796Y44284D01*
X107100Y45019D01*
Y45814D01*
X106796Y46549D01*
X106233Y47112D01*
X105498Y47416D01*
D02*
G37*
G36*
X302546Y34994D02*
X301750D01*
X301015Y34690D01*
X300452Y34127D01*
X300148Y33392D01*
Y32596D01*
X300452Y31861D01*
X301015Y31299D01*
X301750Y30994D01*
X302546D01*
X303281Y31299D01*
X303844Y31861D01*
X304148Y32596D01*
Y33392D01*
X303844Y34127D01*
X303281Y34690D01*
X302546Y34994D01*
D02*
G37*
G36*
X361798Y26624D02*
X361002D01*
X360267Y26320D01*
X359704Y25757D01*
X359400Y25022D01*
Y24226D01*
X359704Y23491D01*
X360267Y22929D01*
X361002Y22624D01*
X361798D01*
X362533Y22929D01*
X363095Y23491D01*
X363400Y24226D01*
Y25022D01*
X363095Y25757D01*
X362533Y26320D01*
X361798Y26624D01*
D02*
G37*
G36*
X360684Y19512D02*
X359888D01*
X359153Y19207D01*
X358591Y18644D01*
X358286Y17909D01*
Y17114D01*
X358591Y16379D01*
X359153Y15816D01*
X359888Y15512D01*
X360684D01*
X361419Y15816D01*
X361982Y16379D01*
X362286Y17114D01*
Y17909D01*
X361982Y18644D01*
X361419Y19207D01*
X360684Y19512D01*
D02*
G37*
G36*
X379903Y15551D02*
X379108D01*
X378373Y15246D01*
X377810Y14684D01*
X377505Y13949D01*
Y13153D01*
X377810Y12418D01*
X378373Y11855D01*
X379108Y11551D01*
X379903D01*
X380638Y11855D01*
X381201Y12418D01*
X381505Y13153D01*
Y13949D01*
X381201Y14684D01*
X380638Y15246D01*
X379903Y15551D01*
D02*
G37*
G36*
X372541D02*
X371745D01*
X371010Y15246D01*
X370448Y14684D01*
X370143Y13949D01*
Y13153D01*
X370448Y12418D01*
X371010Y11855D01*
X371745Y11551D01*
X372541D01*
X373276Y11855D01*
X373839Y12418D01*
X374143Y13153D01*
Y13949D01*
X373839Y14684D01*
X373276Y15246D01*
X372541Y15551D01*
D02*
G37*
G36*
X364943D02*
X364147D01*
X363412Y15246D01*
X362849Y14684D01*
X362545Y13949D01*
Y13153D01*
X362849Y12418D01*
X363412Y11855D01*
X364147Y11551D01*
X364943D01*
X365678Y11855D01*
X366240Y12418D01*
X366545Y13153D01*
Y13949D01*
X366240Y14684D01*
X365678Y15246D01*
X364943Y15551D01*
D02*
G37*
%LPD*%
D12*
X11550Y48172D02*
X27967D01*
X11550D02*
Y82228D01*
X27967D01*
D66*
X133613Y378447D02*
D03*
X118613D02*
D03*
X103613D02*
D03*
X88613D02*
D03*
X315809Y378200D02*
D03*
X300809D02*
D03*
X285809D02*
D03*
X270809D02*
D03*
X222800Y378400D02*
D03*
X207800D02*
D03*
X192800D02*
D03*
X177800D02*
D03*
D67*
X26038Y76578D02*
D03*
Y53822D02*
D03*
D68*
X27967Y82228D02*
D03*
Y48172D02*
D03*
X11550D02*
D03*
Y82228D02*
D03*
D69*
X276700Y118800D02*
D03*
Y128800D02*
D03*
Y138800D02*
D03*
Y148800D02*
D03*
D70*
X164800Y148783D02*
D03*
Y138783D02*
D03*
Y128783D02*
D03*
X154800Y148783D02*
D03*
Y138783D02*
D03*
X95100Y128783D02*
D03*
Y138783D02*
D03*
Y148783D02*
D03*
X105100Y128783D02*
D03*
Y138783D02*
D03*
X348282Y62500D02*
D03*
X358282D02*
D03*
X338282Y52500D02*
D03*
X348282D02*
D03*
X358282D02*
D03*
X223322Y148783D02*
D03*
Y138783D02*
D03*
Y128783D02*
D03*
X213322Y148783D02*
D03*
Y138783D02*
D03*
D71*
X154800Y128783D02*
D03*
X105100Y148783D02*
D03*
X213322Y128783D02*
D03*
D72*
X32900Y322400D02*
D03*
D73*
X56522D02*
D03*
D74*
X44711Y303896D02*
D03*
D75*
X195251Y260847D02*
D03*
X205251D02*
D03*
X215251D02*
D03*
X195251Y230847D02*
D03*
X205251D02*
D03*
X215251D02*
D03*
X125100Y230894D02*
D03*
X115100D02*
D03*
X105100D02*
D03*
X125100Y260894D02*
D03*
X115100D02*
D03*
X105100D02*
D03*
X286851Y260647D02*
D03*
X296851D02*
D03*
X306851D02*
D03*
X286851Y230647D02*
D03*
X296851D02*
D03*
X306851D02*
D03*
D76*
X338282Y62500D02*
D03*
D77*
X357888Y126637D02*
D03*
X352376D02*
D03*
X348439Y122700D02*
D03*
Y117188D02*
D03*
Y111676D02*
D03*
X352376Y107739D02*
D03*
X357888D02*
D03*
X363400D02*
D03*
X367337Y111676D02*
D03*
Y117188D02*
D03*
Y122700D02*
D03*
X363282Y126637D02*
D03*
X355132Y119944D02*
D03*
Y114432D02*
D03*
X360644D02*
D03*
X360644Y119944D02*
D03*
D78*
X206100Y89570D02*
D03*
Y104500D02*
D03*
X178517Y117000D02*
D03*
Y143800D02*
D03*
Y131783D02*
D03*
X246572Y68100D02*
D03*
X246560Y61370D02*
D03*
X246530Y54270D02*
D03*
X246572Y46600D02*
D03*
X246500Y75270D02*
D03*
X246530Y38900D02*
D03*
X278572Y68100D02*
D03*
X278560Y61370D02*
D03*
X278530Y54270D02*
D03*
X278572Y46600D02*
D03*
X278500Y75270D02*
D03*
X278530Y38900D02*
D03*
X308540D02*
D03*
X308510Y75270D02*
D03*
X308540Y54270D02*
D03*
X308570Y61370D02*
D03*
X308582Y68100D02*
D03*
X161240Y80040D02*
D03*
X161270Y71670D02*
D03*
X142240Y71440D02*
D03*
X151910Y71470D02*
D03*
X151940Y89440D02*
D03*
X151970Y80070D02*
D03*
X142270D02*
D03*
X142240Y99801D02*
D03*
X142270Y89570D02*
D03*
X131440Y89470D02*
D03*
Y110140D02*
D03*
X131470Y99831D02*
D03*
X121040D02*
D03*
X121070Y110170D02*
D03*
X121170Y119670D02*
D03*
X105100Y45417D02*
D03*
X358282Y150518D02*
D03*
X307400Y199200D02*
D03*
X302500Y189800D02*
D03*
X281709Y156600D02*
D03*
X328282Y135300D02*
D03*
X372143Y102100D02*
D03*
X378144Y93018D02*
D03*
X324580Y92880D02*
D03*
X370648Y152018D02*
D03*
X383282Y71500D02*
D03*
X353282D02*
D03*
X348282Y70446D02*
D03*
X343282Y69232D02*
D03*
X338282Y85980D02*
D03*
X333282Y83118D02*
D03*
X323282Y71500D02*
D03*
X378282Y71500D02*
D03*
X302148Y32994D02*
D03*
X374251Y47700D02*
D03*
X129853Y308062D02*
D03*
X220051Y308015D02*
D03*
X311993Y307815D02*
D03*
X379505Y5724D02*
D03*
X372143D02*
D03*
X364545D02*
D03*
X379505Y13551D02*
D03*
X372143D02*
D03*
X364545D02*
D03*
X360286Y17512D02*
D03*
X361400Y24624D02*
D03*
X21700Y74649D02*
D03*
X17700D02*
D03*
X13635D02*
D03*
Y70121D02*
D03*
X17700D02*
D03*
X21700D02*
D03*
Y66184D02*
D03*
X17700D02*
D03*
X13635D02*
D03*
Y62247D02*
D03*
X17700D02*
D03*
X21700D02*
D03*
Y58310D02*
D03*
X17700D02*
D03*
X13635D02*
D03*
X30250Y108800D02*
D03*
Y104300D02*
D03*
X23453Y108800D02*
D03*
X35300D02*
D03*
Y104300D02*
D03*
Y99861D02*
D03*
X40000D02*
D03*
Y104300D02*
D03*
Y108800D02*
D03*
X54500Y99861D02*
D03*
Y104300D02*
D03*
Y108800D02*
D03*
X364148Y167182D02*
D03*
X366513Y36730D02*
D03*
Y32793D02*
D03*
X364148Y159600D02*
D03*
X366513Y28856D02*
D03*
X379901Y178000D02*
D03*
Y159600D02*
D03*
Y168800D02*
D03*
X374408Y223477D02*
D03*
X384401Y159600D02*
D03*
Y187000D02*
D03*
X370450Y36730D02*
D03*
X384401Y178000D02*
D03*
X374387Y36730D02*
D03*
X370450Y32793D02*
D03*
Y28856D02*
D03*
X374251Y32791D02*
D03*
X384401Y168800D02*
D03*
X379901Y187000D02*
D03*
X374387Y28856D02*
D03*
X185818Y326145D02*
D03*
X194951Y322569D02*
D03*
X191451Y335196D02*
D03*
X177367D02*
D03*
Y326145D02*
D03*
X217051Y323247D02*
D03*
X65722Y292408D02*
D03*
X115226Y273576D02*
D03*
X104800Y322616D02*
D03*
X81798Y301443D02*
D03*
X108126Y273576D02*
D03*
X99400Y313794D02*
D03*
X142331Y323294D02*
D03*
Y296096D02*
D03*
X112463Y310031D02*
D03*
X126900Y323294D02*
D03*
X134063D02*
D03*
X146400Y308062D02*
D03*
X87216Y326192D02*
D03*
X95667D02*
D03*
X79798D02*
D03*
X81400Y295276D02*
D03*
X101195Y265794D02*
D03*
X120337Y306094D02*
D03*
X112463Y302157D02*
D03*
X116400D02*
D03*
X120337D02*
D03*
X112463Y306094D02*
D03*
X116400D02*
D03*
X81798Y309081D02*
D03*
X100780D02*
D03*
X87216Y335243D02*
D03*
X101300D02*
D03*
X79798D02*
D03*
X140551Y269443D02*
D03*
X120337Y290220D02*
D03*
X116400Y310031D02*
D03*
X126900Y297713D02*
D03*
X130800Y313394D02*
D03*
X136141Y281694D02*
D03*
X120337Y310031D02*
D03*
X122263Y273576D02*
D03*
X134063Y331992D02*
D03*
X147700D02*
D03*
X129200Y265794D02*
D03*
X111600D02*
D03*
X118900D02*
D03*
X169949Y326145D02*
D03*
Y335196D02*
D03*
X189551Y313747D02*
D03*
X171949Y309034D02*
D03*
X171551Y295230D02*
D03*
X210488Y290173D02*
D03*
X171949Y301396D02*
D03*
X190932Y309034D02*
D03*
X217051Y297666D02*
D03*
X224214Y331945D02*
D03*
Y323247D02*
D03*
X232482D02*
D03*
X237851Y331945D02*
D03*
X226292Y281647D02*
D03*
X232482Y296049D02*
D03*
X220951Y313347D02*
D03*
X206551Y302110D02*
D03*
X210488Y306047D02*
D03*
Y302110D02*
D03*
X206551Y306047D02*
D03*
X212414Y273530D02*
D03*
X209051Y265747D02*
D03*
X230702Y269396D02*
D03*
X201751Y265747D02*
D03*
X219351D02*
D03*
X191346D02*
D03*
X205377Y273530D02*
D03*
X198277D02*
D03*
X202614Y302110D02*
D03*
X206551Y309984D02*
D03*
X236551Y308015D02*
D03*
X202614Y306047D02*
D03*
Y309984D02*
D03*
X210488D02*
D03*
X263151Y295030D02*
D03*
X263549Y308834D02*
D03*
Y301196D02*
D03*
X294214Y309784D02*
D03*
X298151Y305847D02*
D03*
X282946Y265547D02*
D03*
X289877Y273330D02*
D03*
X286551Y322369D02*
D03*
X281151Y313547D02*
D03*
X282532Y308834D02*
D03*
X298151Y301910D02*
D03*
X293351Y265547D02*
D03*
X298151Y309784D02*
D03*
X294214Y305847D02*
D03*
Y301910D02*
D03*
X296977Y273330D02*
D03*
X302088Y289973D02*
D03*
X310951Y265547D02*
D03*
X302088Y309784D02*
D03*
X308651Y297466D02*
D03*
X302088Y305847D02*
D03*
Y301910D02*
D03*
X312551Y313147D02*
D03*
X304014Y273330D02*
D03*
X329451Y331745D02*
D03*
X324082Y323047D02*
D03*
Y295849D02*
D03*
X315814Y331745D02*
D03*
X328151Y307815D02*
D03*
X277418Y325945D02*
D03*
X308651Y323047D02*
D03*
X268967Y325945D02*
D03*
X261549D02*
D03*
X317892Y281447D02*
D03*
X315814Y323047D02*
D03*
X322302Y269196D02*
D03*
X300651Y265547D02*
D03*
X261549Y334997D02*
D03*
X283051D02*
D03*
X268967D02*
D03*
M02*
