G04*
G04 #@! TF.GenerationSoftware,Altium Limited,Altium Designer,22.11.1 (43)*
G04*
G04 Layer_Color=65535*
%FSLAX25Y25*%
%MOIN*%
G70*
G04*
G04 #@! TF.SameCoordinates,EC01C676-AF26-4C78-A894-FF1C61784DD5*
G04*
G04*
G04 #@! TF.FilePolarity,Positive*
G04*
G01*
G75*
%ADD10C,0.00600*%
%ADD11C,0.00500*%
%ADD12C,0.01000*%
D10*
X82787Y364274D02*
Y368211D01*
Y389077D02*
Y393014D01*
X135503D02*
X139440D01*
Y389077D02*
Y393014D01*
X82787D02*
X86724D01*
X82787Y364274D02*
X139440D01*
Y372148D01*
X321865Y23112D02*
Y26813D01*
Y31695D02*
Y35396D01*
X316353Y23112D02*
X321865D01*
X312022Y35396D02*
X321865D01*
X271700Y153800D02*
X281700D01*
Y148800D02*
Y153800D01*
X271700Y148800D02*
Y153800D01*
Y113800D02*
X281700D01*
X167800Y123783D02*
X169800D01*
Y125783D01*
Y151783D02*
Y153783D01*
X167800D02*
X169800D01*
X149800D02*
X151800D01*
X149800Y151783D02*
Y153783D01*
Y123783D02*
Y128783D01*
Y123783D02*
X154800D01*
X149800Y128783D02*
Y132283D01*
X154800Y123783D02*
X158300D01*
X360608Y22951D02*
Y25313D01*
Y22951D02*
X362970D01*
X377931D02*
X380293D01*
Y25313D01*
Y40274D02*
Y42636D01*
X377931D02*
X380293D01*
X360608D02*
X362970D01*
X360608Y40274D02*
Y42636D01*
X358206Y40274D02*
X360608D01*
X375501Y163600D02*
X389001D01*
X375501Y155600D02*
X389001D01*
X5001Y124900D02*
X14001D01*
X5001Y131900D02*
X14001D01*
X215520Y333945D02*
X219520D01*
X215520Y329945D02*
X219520D01*
X89763Y301076D02*
Y310076D01*
X96763Y301076D02*
Y310076D01*
X84629Y298776D02*
X93629D01*
X84629Y291776D02*
X93629D01*
X97694Y269076D02*
Y278076D01*
X104694Y269076D02*
Y278076D01*
X137563Y319028D02*
Y328028D01*
X130563Y319028D02*
Y328028D01*
X83216Y322482D02*
Y331482D01*
X76216Y322482D02*
Y331482D01*
X83716Y322482D02*
Y331482D01*
X90716Y322482D02*
Y331482D01*
X123400Y319028D02*
Y328028D01*
X130400Y319028D02*
Y328028D01*
X101300Y318810D02*
Y327810D01*
X108300Y318810D02*
Y327810D01*
X99761Y322444D02*
Y335944D01*
X91761Y322444D02*
Y335944D01*
X146263Y319193D02*
Y332693D01*
X138263Y319193D02*
Y332693D01*
X125700Y269076D02*
Y278076D01*
X132700Y269076D02*
Y278076D01*
X133697Y296676D02*
X142697D01*
X133697Y303676D02*
X142697D01*
X105731Y334394D02*
X109731D01*
X105731Y330394D02*
X109731D01*
X132600Y269076D02*
Y278076D01*
X139600Y269076D02*
Y278076D01*
X125368Y329992D02*
X129368D01*
X125368Y333992D02*
X129368D01*
X89900Y301076D02*
Y310076D01*
X82900Y301076D02*
Y310076D01*
X133697Y311562D02*
X142697D01*
X133697Y304562D02*
X142697D01*
X104626Y269076D02*
Y278076D01*
X111626Y269076D02*
Y278076D01*
X111726Y269076D02*
Y278076D01*
X118726Y269076D02*
Y278076D01*
X118763Y269076D02*
Y278076D01*
X125763Y269076D02*
Y278076D01*
X278514Y300830D02*
Y309830D01*
X271514Y300830D02*
Y309830D01*
X266380Y291530D02*
X275380D01*
X266380Y298530D02*
X275380D01*
X286446Y268830D02*
Y277830D01*
X279446Y268830D02*
Y277830D01*
X312314Y318781D02*
Y327781D01*
X319314Y318781D02*
Y327781D01*
X257967Y322235D02*
Y331235D01*
X264967Y322235D02*
Y331235D01*
X272467Y322235D02*
Y331235D01*
X265467Y322235D02*
Y331235D01*
X312151Y318781D02*
Y327781D01*
X305151Y318781D02*
Y327781D01*
X290051Y318563D02*
Y327563D01*
X283051Y318563D02*
Y327563D01*
X273512Y322197D02*
Y335697D01*
X281512Y322197D02*
Y335697D01*
X320014Y318946D02*
Y332446D01*
X328014Y318946D02*
Y332446D01*
X314451Y268830D02*
Y277830D01*
X307451Y268830D02*
Y277830D01*
X315448Y303430D02*
X324448D01*
X315448Y296430D02*
X324448D01*
X287483Y330147D02*
X291483D01*
X287483Y334147D02*
X291483D01*
X321351Y268830D02*
Y277830D01*
X314351Y268830D02*
Y277830D01*
X307120Y333745D02*
X311120D01*
X307120Y329745D02*
X311120D01*
X264651Y300830D02*
Y309830D01*
X271651Y300830D02*
Y309830D01*
X315448Y304315D02*
X324448D01*
X315448Y311315D02*
X324448D01*
X293377Y268830D02*
Y277830D01*
X286377Y268830D02*
Y277830D01*
X300477Y268830D02*
Y277830D01*
X293477Y268830D02*
Y277830D01*
X307514Y268830D02*
Y277830D01*
X300514Y268830D02*
Y277830D01*
X186914Y301030D02*
Y310030D01*
X179914Y301030D02*
Y310030D01*
X174780Y291730D02*
X183780D01*
X174780Y298730D02*
X183780D01*
X194846Y269030D02*
Y278030D01*
X187846Y269030D02*
Y278030D01*
X220714Y318981D02*
Y327981D01*
X227714Y318981D02*
Y327981D01*
X166367Y322435D02*
Y331435D01*
X173367Y322435D02*
Y331435D01*
X180867Y322435D02*
Y331435D01*
X173867Y322435D02*
Y331435D01*
X220551Y318981D02*
Y327981D01*
X213551Y318981D02*
Y327981D01*
X198451Y318763D02*
Y327763D01*
X191451Y318763D02*
Y327763D01*
X181912Y322397D02*
Y335897D01*
X189912Y322397D02*
Y335897D01*
X228414Y319146D02*
Y332646D01*
X236414Y319146D02*
Y332646D01*
X222851Y269030D02*
Y278030D01*
X215851Y269030D02*
Y278030D01*
X223848Y303630D02*
X232848D01*
X223848Y296630D02*
X232848D01*
X195883Y330347D02*
X199883D01*
X195883Y334347D02*
X199883D01*
X229751Y269030D02*
Y278030D01*
X222751Y269030D02*
Y278030D01*
X173051Y301030D02*
Y310030D01*
X180051Y301030D02*
Y310030D01*
X223848Y304515D02*
X232848D01*
X223848Y311515D02*
X232848D01*
X201777Y269030D02*
Y278030D01*
X194777Y269030D02*
Y278030D01*
X208877Y269030D02*
Y278030D01*
X201877Y269030D02*
Y278030D01*
X215914Y269030D02*
Y278030D01*
X208914Y269030D02*
Y278030D01*
X53122Y279493D02*
Y288493D01*
X60122Y279493D02*
Y288493D01*
X264982Y364027D02*
Y367964D01*
Y388830D02*
Y392767D01*
X317698D02*
X321635D01*
Y388830D02*
Y392767D01*
X264982D02*
X268919D01*
X264982Y364027D02*
X321635D01*
Y371901D01*
X171973Y364227D02*
Y368164D01*
Y389030D02*
Y392967D01*
X224690D02*
X228627D01*
Y389030D02*
Y392967D01*
X171973D02*
X175910D01*
X171973Y364227D02*
X228627D01*
Y372101D01*
X62222Y279593D02*
Y288593D01*
X69222Y279593D02*
Y288593D01*
X375501Y191000D02*
X389001D01*
X375501Y183000D02*
X389001D01*
X375501Y182000D02*
X389001D01*
X375501Y174000D02*
X389001D01*
X375501Y172800D02*
X389001D01*
X375501Y164800D02*
X389001D01*
X356076Y18254D02*
Y27254D01*
X349076Y18254D02*
Y27254D01*
X375643Y9051D02*
Y18051D01*
X368643Y9051D02*
Y18051D01*
X361045Y9051D02*
Y18051D01*
X368045Y9051D02*
Y18051D01*
X376006Y9051D02*
Y18051D01*
X383005Y9051D02*
Y18051D01*
X359648Y163682D02*
X368648D01*
X359648Y170682D02*
X368648D01*
X282953Y23112D02*
X292795D01*
X282953Y35396D02*
X288465D01*
X282953Y23112D02*
Y26813D01*
Y31695D02*
Y35396D01*
X377987Y219977D02*
X386987D01*
X377987Y226977D02*
X386987D01*
X359648Y156100D02*
X368648D01*
X359648Y163100D02*
X368648D01*
X297648Y29014D02*
X306648D01*
X297648Y22014D02*
X306648D01*
X297648Y29494D02*
X306648D01*
X297648Y36494D02*
X306648D01*
X364782Y53866D02*
Y62866D01*
X371782Y53866D02*
Y62866D01*
X5001Y96361D02*
X14001D01*
X5001Y103361D02*
X14001D01*
X5001Y89227D02*
X14001D01*
X5001Y96227D02*
X14001D01*
X5001Y110700D02*
X14001D01*
X5001Y117700D02*
X14001D01*
X5001Y103400D02*
X14001D01*
X5001Y110400D02*
X14001D01*
X5001Y118000D02*
X14001D01*
X5001Y125000D02*
X14001D01*
X90100Y153783D02*
X92100D01*
X90100Y151783D02*
Y153783D01*
Y123783D02*
Y125783D01*
Y123783D02*
X92100D01*
X108100D02*
X110100D01*
Y125783D01*
Y148783D02*
Y153783D01*
X105100D02*
X110100D01*
Y145283D02*
Y148783D01*
X101600Y153783D02*
X105100D01*
X333282Y59000D02*
Y62500D01*
X338282Y67500D02*
X341782D01*
X333282Y62500D02*
Y67500D01*
X338282D01*
X361282D02*
X363282D01*
Y65500D02*
Y67500D01*
Y47500D02*
Y49500D01*
X361282Y47500D02*
X363282D01*
X333282D02*
X335282D01*
X333282D02*
Y49500D01*
X226322Y123783D02*
X228322D01*
Y125783D01*
Y151783D02*
Y153783D01*
X226322D02*
X228322D01*
X208322D02*
X210322D01*
X208322Y151783D02*
Y153783D01*
Y123783D02*
Y128783D01*
Y123783D02*
X213322D01*
X208322Y128783D02*
Y132283D01*
X213322Y123783D02*
X216822D01*
X324215Y35812D02*
X325881D01*
X326298Y36229D01*
Y37062D01*
X325881Y37478D01*
X324215D01*
X323798Y37062D01*
Y36229D01*
X324632Y36645D02*
X323798Y35812D01*
Y36229D02*
X324215Y35812D01*
X323798Y33313D02*
Y34979D01*
X325465Y33313D01*
X325881D01*
X326298Y33729D01*
Y34563D01*
X325881Y34979D01*
X80517Y107450D02*
Y105367D01*
X80934Y104950D01*
X81767D01*
X82183Y105367D01*
Y107450D01*
X84266Y104950D02*
Y107450D01*
X83017Y106200D01*
X84683D01*
X347266Y223483D02*
X346850Y223899D01*
X346017D01*
X345600Y223483D01*
Y223066D01*
X346017Y222650D01*
X346850D01*
X347266Y222233D01*
Y221816D01*
X346850Y221400D01*
X346017D01*
X345600Y221816D01*
X348099Y221400D02*
X348932D01*
X348516D01*
Y223899D01*
X348099Y223483D01*
X312550Y142117D02*
X314633D01*
X315050Y142534D01*
Y143367D01*
X314633Y143783D01*
X312550D01*
X315050Y146283D02*
Y144616D01*
X313384Y146283D01*
X312967D01*
X312550Y145866D01*
Y145033D01*
X312967Y144616D01*
X358500Y50423D02*
Y48340D01*
X358916Y47924D01*
X359750D01*
X360166Y48340D01*
Y50423D01*
X360999Y50007D02*
X361416Y50423D01*
X362249D01*
X362665Y50007D01*
Y49590D01*
X362249Y49174D01*
X361832D01*
X362249D01*
X362665Y48757D01*
Y48340D01*
X362249Y47924D01*
X361416D01*
X360999Y48340D01*
X182610Y256131D02*
X182193Y255715D01*
Y254882D01*
X182610Y254465D01*
X183026D01*
X183443Y254882D01*
Y255715D01*
X183859Y256131D01*
X184276D01*
X184693Y255715D01*
Y254882D01*
X184276Y254465D01*
X184693Y258630D02*
Y256964D01*
X183026Y258630D01*
X182610D01*
X182193Y258214D01*
Y257381D01*
X182610Y256964D01*
X185109Y259463D02*
Y261129D01*
X184693Y261963D02*
Y262796D01*
Y262379D01*
X182193D01*
X182610Y261963D01*
X183078Y317505D02*
Y315422D01*
X183494Y315005D01*
X184327D01*
X184744Y315422D01*
Y317505D01*
X185577Y315005D02*
X186410D01*
X185993D01*
Y317505D01*
X185577Y317088D01*
X187659Y314589D02*
X189326D01*
X190159Y315005D02*
X190992D01*
X190575D01*
Y317505D01*
X190159Y317088D01*
X366266Y180433D02*
X365850Y180850D01*
X365017D01*
X364600Y180433D01*
Y178767D01*
X365017Y178350D01*
X365850D01*
X366266Y178767D01*
X367099Y178350D02*
X367932D01*
X367516D01*
Y180850D01*
X367099Y180433D01*
X370431Y178350D02*
Y180850D01*
X369182Y179600D01*
X370848D01*
X60300Y120550D02*
Y123050D01*
X61550D01*
X61966Y122633D01*
Y121800D01*
X61550Y121384D01*
X60300D01*
X61133D02*
X61966Y120550D01*
X62799D02*
X63632D01*
X63216D01*
Y123050D01*
X62799Y122633D01*
X64882Y123050D02*
X66548D01*
Y122633D01*
X64882Y120967D01*
Y120550D01*
X212469Y336405D02*
Y338905D01*
X213719D01*
X214136Y338488D01*
Y337655D01*
X213719Y337239D01*
X212469D01*
X213302D02*
X214136Y336405D01*
X216635Y338905D02*
X214968D01*
Y337655D01*
X215802Y338072D01*
X216218D01*
X216635Y337655D01*
Y336822D01*
X216218Y336405D01*
X215385D01*
X214968Y336822D01*
X217468Y335989D02*
X219134D01*
X219967Y336405D02*
X220800D01*
X220383D01*
Y338905D01*
X219967Y338488D01*
X99159Y303086D02*
X98742Y302670D01*
Y301837D01*
X99159Y301420D01*
X100825D01*
X101241Y301837D01*
Y302670D01*
X100825Y303086D01*
X101241Y303919D02*
Y304752D01*
Y304336D01*
X98742D01*
X99159Y303919D01*
X101658Y306002D02*
Y307668D01*
X101241Y310167D02*
Y308501D01*
X99575Y310167D01*
X99159D01*
X98742Y309751D01*
Y308918D01*
X99159Y308501D01*
X86584Y288835D02*
X86168Y289252D01*
X85335D01*
X84918Y288835D01*
Y287169D01*
X85335Y286752D01*
X86168D01*
X86584Y287169D01*
X89083Y286752D02*
X87417D01*
X89083Y288419D01*
Y288835D01*
X88667Y289252D01*
X87834D01*
X87417Y288835D01*
X89916Y286336D02*
X91583D01*
X94082Y286752D02*
X92416D01*
X94082Y288419D01*
Y288835D01*
X93665Y289252D01*
X92832D01*
X92416Y288835D01*
X100259Y283460D02*
X99842Y283043D01*
Y282210D01*
X100259Y281794D01*
X101925D01*
X102341Y282210D01*
Y283043D01*
X101925Y283460D01*
X100259Y284293D02*
X99842Y284710D01*
Y285542D01*
X100259Y285959D01*
X100675D01*
X101092Y285542D01*
Y285126D01*
Y285542D01*
X101508Y285959D01*
X101925D01*
X102341Y285542D01*
Y284710D01*
X101925Y284293D01*
X102758Y286792D02*
Y288458D01*
X102341Y290957D02*
Y289291D01*
X100675Y290957D01*
X100259D01*
X99842Y290541D01*
Y289708D01*
X100259Y289291D01*
X133022Y342378D02*
X132605Y341962D01*
Y341128D01*
X133022Y340712D01*
X134688D01*
X135104Y341128D01*
Y341962D01*
X134688Y342378D01*
X135104Y344461D02*
X132605D01*
X133855Y343211D01*
Y344877D01*
X135521Y345710D02*
Y347376D01*
X135104Y349876D02*
Y348210D01*
X133438Y349876D01*
X133022D01*
X132605Y349459D01*
Y348626D01*
X133022Y348210D01*
X78674Y342078D02*
X78258Y341662D01*
Y340828D01*
X78674Y340412D01*
X80340D01*
X80757Y340828D01*
Y341662D01*
X80340Y342078D01*
X78258Y344577D02*
Y342911D01*
X79507D01*
X79091Y343744D01*
Y344161D01*
X79507Y344577D01*
X80340D01*
X80757Y344161D01*
Y343328D01*
X80340Y342911D01*
X81173Y345410D02*
Y347076D01*
X80757Y349576D02*
Y347909D01*
X79091Y349576D01*
X78674D01*
X78258Y349159D01*
Y348326D01*
X78674Y347909D01*
X86174Y342078D02*
X85758Y341662D01*
Y340828D01*
X86174Y340412D01*
X87840D01*
X88257Y340828D01*
Y341662D01*
X87840Y342078D01*
X85758Y344577D02*
X86174Y343744D01*
X87007Y342911D01*
X87840D01*
X88257Y343328D01*
Y344161D01*
X87840Y344577D01*
X87424D01*
X87007Y344161D01*
Y342911D01*
X88673Y345410D02*
Y347076D01*
X88257Y349576D02*
Y347909D01*
X86591Y349576D01*
X86174D01*
X85758Y349159D01*
Y348326D01*
X86174Y347909D01*
X125859Y342378D02*
X125442Y341962D01*
Y341128D01*
X125859Y340712D01*
X127525D01*
X127941Y341128D01*
Y341962D01*
X127525Y342378D01*
X125442Y343211D02*
Y344877D01*
X125859D01*
X127525Y343211D01*
X127941D01*
X128358Y345710D02*
Y347376D01*
X127941Y349876D02*
Y348210D01*
X126275Y349876D01*
X125859D01*
X125442Y349459D01*
Y348626D01*
X125859Y348210D01*
X103759Y342078D02*
X103342Y341662D01*
Y340828D01*
X103759Y340412D01*
X105425D01*
X105841Y340828D01*
Y341662D01*
X105425Y342078D01*
X103759Y342911D02*
X103342Y343328D01*
Y344161D01*
X103759Y344577D01*
X104175D01*
X104592Y344161D01*
X105008Y344577D01*
X105425D01*
X105841Y344161D01*
Y343328D01*
X105425Y342911D01*
X105008D01*
X104592Y343328D01*
X104175Y342911D01*
X103759D01*
X104592Y343328D02*
Y344161D01*
X106258Y345410D02*
Y347076D01*
X105841Y349576D02*
Y347909D01*
X104175Y349576D01*
X103759D01*
X103342Y349159D01*
Y348326D01*
X103759Y347909D01*
X94720Y342078D02*
X94303Y341662D01*
Y340828D01*
X94720Y340412D01*
X96386D01*
X96803Y340828D01*
Y341662D01*
X96386Y342078D01*
Y342911D02*
X96803Y343328D01*
Y344161D01*
X96386Y344577D01*
X94720D01*
X94303Y344161D01*
Y343328D01*
X94720Y342911D01*
X95136D01*
X95553Y343328D01*
Y344577D01*
X97219Y345410D02*
Y347076D01*
X96803Y349576D02*
Y347909D01*
X95136Y349576D01*
X94720D01*
X94303Y349159D01*
Y348326D01*
X94720Y347909D01*
X141222Y341337D02*
X140805Y340920D01*
Y340087D01*
X141222Y339671D01*
X142888D01*
X143304Y340087D01*
Y340920D01*
X142888Y341337D01*
X143304Y342170D02*
Y343003D01*
Y342586D01*
X140805D01*
X141222Y342170D01*
Y344252D02*
X140805Y344669D01*
Y345502D01*
X141222Y345919D01*
X142888D01*
X143304Y345502D01*
Y344669D01*
X142888Y344252D01*
X141222D01*
X143721Y346752D02*
Y348418D01*
X143304Y350917D02*
Y349251D01*
X141638Y350917D01*
X141222D01*
X140805Y350500D01*
Y349667D01*
X141222Y349251D01*
X130241Y281794D02*
X127742D01*
Y283043D01*
X128159Y283460D01*
X128992D01*
X129408Y283043D01*
Y281794D01*
Y282627D02*
X130241Y283460D01*
Y284293D02*
Y285126D01*
Y284710D01*
X127742D01*
X128159Y284293D01*
X130658Y286376D02*
Y288042D01*
X130241Y290541D02*
Y288875D01*
X128575Y290541D01*
X128159D01*
X127742Y290124D01*
Y289291D01*
X128159Y288875D01*
X133518Y292752D02*
Y295252D01*
X134768D01*
X135184Y294835D01*
Y294002D01*
X134768Y293585D01*
X133518D01*
X134351D02*
X135184Y292752D01*
X137683D02*
X136017D01*
X137683Y294419D01*
Y294835D01*
X137267Y295252D01*
X136434D01*
X136017Y294835D01*
X138516Y292336D02*
X140183D01*
X142682Y292752D02*
X141016D01*
X142682Y294419D01*
Y294835D01*
X142265Y295252D01*
X141432D01*
X141016Y294835D01*
X105118Y336452D02*
Y338952D01*
X106368D01*
X106784Y338535D01*
Y337702D01*
X106368Y337285D01*
X105118D01*
X105951D02*
X106784Y336452D01*
X107617Y338535D02*
X108034Y338952D01*
X108867D01*
X109283Y338535D01*
Y338119D01*
X108867Y337702D01*
X108450D01*
X108867D01*
X109283Y337285D01*
Y336869D01*
X108867Y336452D01*
X108034D01*
X107617Y336869D01*
X110117Y336036D02*
X111783D01*
X114282Y336452D02*
X112616D01*
X114282Y338119D01*
Y338535D01*
X113865Y338952D01*
X113032D01*
X112616Y338535D01*
X137141Y281794D02*
X134642D01*
Y283043D01*
X135059Y283460D01*
X135892D01*
X136308Y283043D01*
Y281794D01*
Y282627D02*
X137141Y283460D01*
Y285542D02*
X134642D01*
X135892Y284293D01*
Y285959D01*
X137558Y286792D02*
Y288458D01*
X137141Y290957D02*
Y289291D01*
X135475Y290957D01*
X135059D01*
X134642Y290541D01*
Y289708D01*
X135059Y289291D01*
X122318Y336452D02*
Y338952D01*
X123568D01*
X123984Y338535D01*
Y337702D01*
X123568Y337285D01*
X122318D01*
X123151D02*
X123984Y336452D01*
X126484Y338952D02*
X124817D01*
Y337702D01*
X125650Y338119D01*
X126067D01*
X126484Y337702D01*
Y336869D01*
X126067Y336452D01*
X125234D01*
X124817Y336869D01*
X127316Y336036D02*
X128983D01*
X131482Y336452D02*
X129816D01*
X131482Y338119D01*
Y338535D01*
X131065Y338952D01*
X130232D01*
X129816Y338535D01*
X80341Y300712D02*
X77842D01*
Y301961D01*
X78259Y302378D01*
X79092D01*
X79508Y301961D01*
Y300712D01*
Y301545D02*
X80341Y302378D01*
X77842Y304877D02*
X78259Y304044D01*
X79092Y303211D01*
X79925D01*
X80341Y303628D01*
Y304461D01*
X79925Y304877D01*
X79508D01*
X79092Y304461D01*
Y303211D01*
X80758Y305710D02*
Y307376D01*
X80341Y309876D02*
Y308209D01*
X78675Y309876D01*
X78259D01*
X77842Y309459D01*
Y308626D01*
X78259Y308209D01*
X133818Y313152D02*
Y315652D01*
X135068D01*
X135484Y315235D01*
Y314402D01*
X135068Y313985D01*
X133818D01*
X134651D02*
X135484Y313152D01*
X136317Y315652D02*
X137984D01*
Y315235D01*
X136317Y313569D01*
Y313152D01*
X138816Y312736D02*
X140483D01*
X142982Y313152D02*
X141316D01*
X142982Y314819D01*
Y315235D01*
X142565Y315652D01*
X141732D01*
X141316Y315235D01*
X109167Y281794D02*
X106668D01*
Y283043D01*
X107085Y283460D01*
X107918D01*
X108334Y283043D01*
Y281794D01*
Y282627D02*
X109167Y283460D01*
Y284293D02*
Y285126D01*
Y284710D01*
X106668D01*
X107085Y284293D01*
X109167Y287625D02*
X106668D01*
X107918Y286376D01*
Y288042D01*
X109584Y288875D02*
Y290541D01*
X109167Y293040D02*
Y291374D01*
X107501Y293040D01*
X107085D01*
X106668Y292624D01*
Y291791D01*
X107085Y291374D01*
X116267Y281794D02*
X113768D01*
Y283043D01*
X114185Y283460D01*
X115018D01*
X115434Y283043D01*
Y281794D01*
Y282627D02*
X116267Y283460D01*
Y284293D02*
Y285126D01*
Y284710D01*
X113768D01*
X114185Y284293D01*
X113768Y288042D02*
Y286376D01*
X115018D01*
X114601Y287209D01*
Y287625D01*
X115018Y288042D01*
X115851D01*
X116267Y287625D01*
Y286792D01*
X115851Y286376D01*
X116684Y288875D02*
Y290541D01*
X116267Y293040D02*
Y291374D01*
X114601Y293040D01*
X114185D01*
X113768Y292624D01*
Y291791D01*
X114185Y291374D01*
X123347Y281794D02*
X120848D01*
Y283043D01*
X121264Y283460D01*
X122097D01*
X122514Y283043D01*
Y281794D01*
Y282627D02*
X123347Y283460D01*
Y284293D02*
Y285126D01*
Y284710D01*
X120848D01*
X121264Y284293D01*
X120848Y288042D02*
X121264Y287209D01*
X122097Y286376D01*
X122930D01*
X123347Y286792D01*
Y287625D01*
X122930Y288042D01*
X122514D01*
X122097Y287625D01*
Y286376D01*
X123763Y288875D02*
Y290541D01*
X123347Y293040D02*
Y291374D01*
X121681Y293040D01*
X121264D01*
X120848Y292624D01*
Y291791D01*
X121264Y291374D01*
X92459Y256178D02*
X92042Y255762D01*
Y254928D01*
X92459Y254512D01*
X92875D01*
X93292Y254928D01*
Y255762D01*
X93708Y256178D01*
X94125D01*
X94541Y255762D01*
Y254928D01*
X94125Y254512D01*
X94541Y258677D02*
Y257011D01*
X92875Y258677D01*
X92459D01*
X92042Y258261D01*
Y257428D01*
X92459Y257011D01*
X94958Y259510D02*
Y261176D01*
X94541Y263676D02*
Y262010D01*
X92875Y263676D01*
X92459D01*
X92042Y263259D01*
Y262426D01*
X92459Y262010D01*
X92926Y317552D02*
Y315469D01*
X93343Y315052D01*
X94176D01*
X94593Y315469D01*
Y317552D01*
X95426Y315052D02*
X96259D01*
X95842D01*
Y317552D01*
X95426Y317135D01*
X97508Y314636D02*
X99174D01*
X101674Y315052D02*
X100007D01*
X101674Y316719D01*
Y317135D01*
X101257Y317552D01*
X100424D01*
X100007Y317135D01*
X280910Y302839D02*
X280493Y302423D01*
Y301590D01*
X280910Y301173D01*
X282576D01*
X282993Y301590D01*
Y302423D01*
X282576Y302839D01*
X282993Y303673D02*
Y304505D01*
Y304089D01*
X280493D01*
X280910Y303673D01*
X283409Y305755D02*
Y307421D01*
X280910Y308254D02*
X280493Y308671D01*
Y309504D01*
X280910Y309921D01*
X281326D01*
X281743Y309504D01*
Y309087D01*
Y309504D01*
X282159Y309921D01*
X282576D01*
X282993Y309504D01*
Y308671D01*
X282576Y308254D01*
X268336Y288588D02*
X267919Y289005D01*
X267086D01*
X266669Y288588D01*
Y286922D01*
X267086Y286506D01*
X267919D01*
X268336Y286922D01*
X270835Y286506D02*
X269168D01*
X270835Y288172D01*
Y288588D01*
X270418Y289005D01*
X269585D01*
X269168Y288588D01*
X271668Y286089D02*
X273334D01*
X274167Y288588D02*
X274583Y289005D01*
X275416D01*
X275833Y288588D01*
Y288172D01*
X275416Y287755D01*
X275000D01*
X275416D01*
X275833Y287339D01*
Y286922D01*
X275416Y286506D01*
X274583D01*
X274167Y286922D01*
X282010Y283213D02*
X281593Y282797D01*
Y281963D01*
X282010Y281547D01*
X283676D01*
X284092Y281963D01*
Y282797D01*
X283676Y283213D01*
X282010Y284046D02*
X281593Y284463D01*
Y285296D01*
X282010Y285712D01*
X282426D01*
X282843Y285296D01*
Y284879D01*
Y285296D01*
X283259Y285712D01*
X283676D01*
X284092Y285296D01*
Y284463D01*
X283676Y284046D01*
X284509Y286545D02*
Y288211D01*
X282010Y289044D02*
X281593Y289461D01*
Y290294D01*
X282010Y290711D01*
X282426D01*
X282843Y290294D01*
Y289878D01*
Y290294D01*
X283259Y290711D01*
X283676D01*
X284092Y290294D01*
Y289461D01*
X283676Y289044D01*
X314773Y342131D02*
X314356Y341715D01*
Y340882D01*
X314773Y340465D01*
X316439D01*
X316856Y340882D01*
Y341715D01*
X316439Y342131D01*
X316856Y344214D02*
X314356D01*
X315606Y342964D01*
Y344630D01*
X317272Y345463D02*
Y347130D01*
X314773Y347963D02*
X314356Y348379D01*
Y349212D01*
X314773Y349629D01*
X315189D01*
X315606Y349212D01*
Y348796D01*
Y349212D01*
X316022Y349629D01*
X316439D01*
X316856Y349212D01*
Y348379D01*
X316439Y347963D01*
X260425Y341831D02*
X260009Y341415D01*
Y340582D01*
X260425Y340165D01*
X262092D01*
X262508Y340582D01*
Y341415D01*
X262092Y341831D01*
X260009Y344330D02*
Y342664D01*
X261259D01*
X260842Y343497D01*
Y343914D01*
X261259Y344330D01*
X262092D01*
X262508Y343914D01*
Y343081D01*
X262092Y342664D01*
X262925Y345163D02*
Y346830D01*
X260425Y347663D02*
X260009Y348079D01*
Y348912D01*
X260425Y349329D01*
X260842D01*
X261259Y348912D01*
Y348496D01*
Y348912D01*
X261675Y349329D01*
X262092D01*
X262508Y348912D01*
Y348079D01*
X262092Y347663D01*
X267925Y341831D02*
X267509Y341415D01*
Y340582D01*
X267925Y340165D01*
X269592D01*
X270008Y340582D01*
Y341415D01*
X269592Y341831D01*
X267509Y344330D02*
X267925Y343497D01*
X268759Y342664D01*
X269592D01*
X270008Y343081D01*
Y343914D01*
X269592Y344330D01*
X269175D01*
X268759Y343914D01*
Y342664D01*
X270425Y345163D02*
Y346830D01*
X267925Y347663D02*
X267509Y348079D01*
Y348912D01*
X267925Y349329D01*
X268342D01*
X268759Y348912D01*
Y348496D01*
Y348912D01*
X269175Y349329D01*
X269592D01*
X270008Y348912D01*
Y348079D01*
X269592Y347663D01*
X307610Y342131D02*
X307193Y341715D01*
Y340882D01*
X307610Y340465D01*
X309276D01*
X309693Y340882D01*
Y341715D01*
X309276Y342131D01*
X307193Y342964D02*
Y344630D01*
X307610D01*
X309276Y342964D01*
X309693D01*
X310109Y345463D02*
Y347130D01*
X307610Y347963D02*
X307193Y348379D01*
Y349212D01*
X307610Y349629D01*
X308026D01*
X308443Y349212D01*
Y348796D01*
Y349212D01*
X308859Y349629D01*
X309276D01*
X309693Y349212D01*
Y348379D01*
X309276Y347963D01*
X285510Y341831D02*
X285093Y341415D01*
Y340582D01*
X285510Y340165D01*
X287176D01*
X287593Y340582D01*
Y341415D01*
X287176Y341831D01*
X285510Y342664D02*
X285093Y343081D01*
Y343914D01*
X285510Y344330D01*
X285926D01*
X286343Y343914D01*
X286759Y344330D01*
X287176D01*
X287593Y343914D01*
Y343081D01*
X287176Y342664D01*
X286759D01*
X286343Y343081D01*
X285926Y342664D01*
X285510D01*
X286343Y343081D02*
Y343914D01*
X288009Y345163D02*
Y346830D01*
X285510Y347663D02*
X285093Y348079D01*
Y348912D01*
X285510Y349329D01*
X285926D01*
X286343Y348912D01*
Y348496D01*
Y348912D01*
X286759Y349329D01*
X287176D01*
X287593Y348912D01*
Y348079D01*
X287176Y347663D01*
X276471Y341831D02*
X276055Y341415D01*
Y340582D01*
X276471Y340165D01*
X278137D01*
X278554Y340582D01*
Y341415D01*
X278137Y341831D01*
Y342664D02*
X278554Y343081D01*
Y343914D01*
X278137Y344330D01*
X276471D01*
X276055Y343914D01*
Y343081D01*
X276471Y342664D01*
X276888D01*
X277304Y343081D01*
Y344330D01*
X278970Y345163D02*
Y346830D01*
X276471Y347663D02*
X276055Y348079D01*
Y348912D01*
X276471Y349329D01*
X276888D01*
X277304Y348912D01*
Y348496D01*
Y348912D01*
X277721Y349329D01*
X278137D01*
X278554Y348912D01*
Y348079D01*
X278137Y347663D01*
X322973Y341090D02*
X322556Y340673D01*
Y339840D01*
X322973Y339424D01*
X324639D01*
X325056Y339840D01*
Y340673D01*
X324639Y341090D01*
X325056Y341923D02*
Y342756D01*
Y342339D01*
X322556D01*
X322973Y341923D01*
Y344006D02*
X322556Y344422D01*
Y345255D01*
X322973Y345672D01*
X324639D01*
X325056Y345255D01*
Y344422D01*
X324639Y344006D01*
X322973D01*
X325472Y346505D02*
Y348171D01*
X322973Y349004D02*
X322556Y349420D01*
Y350254D01*
X322973Y350670D01*
X323389D01*
X323806Y350254D01*
Y349837D01*
Y350254D01*
X324222Y350670D01*
X324639D01*
X325056Y350254D01*
Y349420D01*
X324639Y349004D01*
X311993Y281547D02*
X309493D01*
Y282797D01*
X309910Y283213D01*
X310743D01*
X311159Y282797D01*
Y281547D01*
Y282380D02*
X311993Y283213D01*
Y284046D02*
Y284879D01*
Y284463D01*
X309493D01*
X309910Y284046D01*
X312409Y286129D02*
Y287795D01*
X309910Y288628D02*
X309493Y289044D01*
Y289878D01*
X309910Y290294D01*
X310326D01*
X310743Y289878D01*
Y289461D01*
Y289878D01*
X311159Y290294D01*
X311576D01*
X311993Y289878D01*
Y289044D01*
X311576Y288628D01*
X315269Y292506D02*
Y295005D01*
X316519D01*
X316935Y294588D01*
Y293755D01*
X316519Y293339D01*
X315269D01*
X316102D02*
X316935Y292506D01*
X319435D02*
X317769D01*
X319435Y294172D01*
Y294588D01*
X319018Y295005D01*
X318185D01*
X317769Y294588D01*
X320268Y292089D02*
X321934D01*
X322767Y294588D02*
X323183Y295005D01*
X324016D01*
X324433Y294588D01*
Y294172D01*
X324016Y293755D01*
X323600D01*
X324016D01*
X324433Y293339D01*
Y292922D01*
X324016Y292506D01*
X323183D01*
X322767Y292922D01*
X286869Y336206D02*
Y338705D01*
X288119D01*
X288535Y338288D01*
Y337455D01*
X288119Y337039D01*
X286869D01*
X287702D02*
X288535Y336206D01*
X289369Y338288D02*
X289785Y338705D01*
X290618D01*
X291035Y338288D01*
Y337872D01*
X290618Y337455D01*
X290202D01*
X290618D01*
X291035Y337039D01*
Y336622D01*
X290618Y336206D01*
X289785D01*
X289369Y336622D01*
X291868Y335789D02*
X293534D01*
X294367Y338288D02*
X294783Y338705D01*
X295617D01*
X296033Y338288D01*
Y337872D01*
X295617Y337455D01*
X295200D01*
X295617D01*
X296033Y337039D01*
Y336622D01*
X295617Y336206D01*
X294783D01*
X294367Y336622D01*
X318893Y281547D02*
X316393D01*
Y282797D01*
X316810Y283213D01*
X317643D01*
X318059Y282797D01*
Y281547D01*
Y282380D02*
X318893Y283213D01*
Y285296D02*
X316393D01*
X317643Y284046D01*
Y285712D01*
X319309Y286545D02*
Y288211D01*
X316810Y289044D02*
X316393Y289461D01*
Y290294D01*
X316810Y290711D01*
X317226D01*
X317643Y290294D01*
Y289878D01*
Y290294D01*
X318059Y290711D01*
X318476D01*
X318893Y290294D01*
Y289461D01*
X318476Y289044D01*
X304069Y336206D02*
Y338705D01*
X305319D01*
X305735Y338288D01*
Y337455D01*
X305319Y337039D01*
X304069D01*
X304902D02*
X305735Y336206D01*
X308235Y338705D02*
X306569D01*
Y337455D01*
X307402Y337872D01*
X307818D01*
X308235Y337455D01*
Y336622D01*
X307818Y336206D01*
X306985D01*
X306569Y336622D01*
X309068Y335789D02*
X310734D01*
X311567Y338288D02*
X311983Y338705D01*
X312817D01*
X313233Y338288D01*
Y337872D01*
X312817Y337455D01*
X312400D01*
X312817D01*
X313233Y337039D01*
Y336622D01*
X312817Y336206D01*
X311983D01*
X311567Y336622D01*
X262092Y300465D02*
X259593D01*
Y301715D01*
X260010Y302131D01*
X260843D01*
X261259Y301715D01*
Y300465D01*
Y301298D02*
X262092Y302131D01*
X259593Y304630D02*
X260010Y303797D01*
X260843Y302964D01*
X261676D01*
X262092Y303381D01*
Y304214D01*
X261676Y304630D01*
X261259D01*
X260843Y304214D01*
Y302964D01*
X262509Y305463D02*
Y307130D01*
X260010Y307963D02*
X259593Y308379D01*
Y309212D01*
X260010Y309629D01*
X260426D01*
X260843Y309212D01*
Y308796D01*
Y309212D01*
X261259Y309629D01*
X261676D01*
X262092Y309212D01*
Y308379D01*
X261676Y307963D01*
X315569Y312906D02*
Y315405D01*
X316819D01*
X317235Y314988D01*
Y314155D01*
X316819Y313739D01*
X315569D01*
X316402D02*
X317235Y312906D01*
X318069Y315405D02*
X319735D01*
Y314988D01*
X318069Y313322D01*
Y312906D01*
X320568Y312489D02*
X322234D01*
X323067Y314988D02*
X323483Y315405D01*
X324317D01*
X324733Y314988D01*
Y314572D01*
X324317Y314155D01*
X323900D01*
X324317D01*
X324733Y313739D01*
Y313322D01*
X324317Y312906D01*
X323483D01*
X323067Y313322D01*
X290918Y281547D02*
X288419D01*
Y282797D01*
X288836Y283213D01*
X289669D01*
X290085Y282797D01*
Y281547D01*
Y282380D02*
X290918Y283213D01*
Y284046D02*
Y284879D01*
Y284463D01*
X288419D01*
X288836Y284046D01*
X290918Y287378D02*
X288419D01*
X289669Y286129D01*
Y287795D01*
X291335Y288628D02*
Y290294D01*
X288836Y291127D02*
X288419Y291544D01*
Y292377D01*
X288836Y292793D01*
X289252D01*
X289669Y292377D01*
Y291960D01*
Y292377D01*
X290085Y292793D01*
X290502D01*
X290918Y292377D01*
Y291544D01*
X290502Y291127D01*
X298019Y281547D02*
X295519D01*
Y282797D01*
X295936Y283213D01*
X296769D01*
X297185Y282797D01*
Y281547D01*
Y282380D02*
X298019Y283213D01*
Y284046D02*
Y284879D01*
Y284463D01*
X295519D01*
X295936Y284046D01*
X295519Y287795D02*
Y286129D01*
X296769D01*
X296352Y286962D01*
Y287378D01*
X296769Y287795D01*
X297602D01*
X298019Y287378D01*
Y286545D01*
X297602Y286129D01*
X298435Y288628D02*
Y290294D01*
X295936Y291127D02*
X295519Y291544D01*
Y292377D01*
X295936Y292793D01*
X296352D01*
X296769Y292377D01*
Y291960D01*
Y292377D01*
X297185Y292793D01*
X297602D01*
X298019Y292377D01*
Y291544D01*
X297602Y291127D01*
X305098Y281547D02*
X302599D01*
Y282797D01*
X303015Y283213D01*
X303848D01*
X304265Y282797D01*
Y281547D01*
Y282380D02*
X305098Y283213D01*
Y284046D02*
Y284879D01*
Y284463D01*
X302599D01*
X303015Y284046D01*
X302599Y287795D02*
X303015Y286962D01*
X303848Y286129D01*
X304681D01*
X305098Y286545D01*
Y287378D01*
X304681Y287795D01*
X304265D01*
X303848Y287378D01*
Y286129D01*
X305515Y288628D02*
Y290294D01*
X303015Y291127D02*
X302599Y291544D01*
Y292377D01*
X303015Y292793D01*
X303432D01*
X303848Y292377D01*
Y291960D01*
Y292377D01*
X304265Y292793D01*
X304681D01*
X305098Y292377D01*
Y291544D01*
X304681Y291127D01*
X274210Y255931D02*
X273793Y255515D01*
Y254682D01*
X274210Y254265D01*
X274626D01*
X275043Y254682D01*
Y255515D01*
X275459Y255931D01*
X275876D01*
X276292Y255515D01*
Y254682D01*
X275876Y254265D01*
X276292Y258430D02*
Y256764D01*
X274626Y258430D01*
X274210D01*
X273793Y258014D01*
Y257181D01*
X274210Y256764D01*
X276709Y259263D02*
Y260929D01*
X274210Y261763D02*
X273793Y262179D01*
Y263012D01*
X274210Y263429D01*
X274626D01*
X275043Y263012D01*
Y262596D01*
Y263012D01*
X275459Y263429D01*
X275876D01*
X276292Y263012D01*
Y262179D01*
X275876Y261763D01*
X274678Y317305D02*
Y315222D01*
X275094Y314806D01*
X275927D01*
X276344Y315222D01*
Y317305D01*
X277177Y314806D02*
X278010D01*
X277593D01*
Y317305D01*
X277177Y316888D01*
X279259Y314389D02*
X280926D01*
X281759Y316888D02*
X282175Y317305D01*
X283008D01*
X283425Y316888D01*
Y316472D01*
X283008Y316055D01*
X282592D01*
X283008D01*
X283425Y315639D01*
Y315222D01*
X283008Y314806D01*
X282175D01*
X281759Y315222D01*
X189310Y303039D02*
X188893Y302623D01*
Y301790D01*
X189310Y301373D01*
X190976D01*
X191393Y301790D01*
Y302623D01*
X190976Y303039D01*
X191393Y303872D02*
Y304706D01*
Y304289D01*
X188893D01*
X189310Y303872D01*
X191809Y305955D02*
Y307621D01*
X191393Y308454D02*
Y309287D01*
Y308871D01*
X188893D01*
X189310Y308454D01*
X176735Y288788D02*
X176319Y289205D01*
X175486D01*
X175069Y288788D01*
Y287122D01*
X175486Y286705D01*
X176319D01*
X176735Y287122D01*
X179235Y286705D02*
X177568D01*
X179235Y288372D01*
Y288788D01*
X178818Y289205D01*
X177985D01*
X177568Y288788D01*
X180068Y286289D02*
X181734D01*
X182567Y286705D02*
X183400D01*
X182983D01*
Y289205D01*
X182567Y288788D01*
X190410Y283413D02*
X189993Y282997D01*
Y282163D01*
X190410Y281747D01*
X192076D01*
X192492Y282163D01*
Y282997D01*
X192076Y283413D01*
X190410Y284246D02*
X189993Y284663D01*
Y285496D01*
X190410Y285912D01*
X190826D01*
X191243Y285496D01*
Y285079D01*
Y285496D01*
X191659Y285912D01*
X192076D01*
X192492Y285496D01*
Y284663D01*
X192076Y284246D01*
X192909Y286745D02*
Y288411D01*
X192492Y289244D02*
Y290077D01*
Y289661D01*
X189993D01*
X190410Y289244D01*
X223173Y342331D02*
X222756Y341915D01*
Y341082D01*
X223173Y340665D01*
X224839D01*
X225255Y341082D01*
Y341915D01*
X224839Y342331D01*
X225255Y344414D02*
X222756D01*
X224006Y343164D01*
Y344830D01*
X225672Y345663D02*
Y347329D01*
X225255Y348163D02*
Y348996D01*
Y348579D01*
X222756D01*
X223173Y348163D01*
X168825Y342031D02*
X168409Y341615D01*
Y340782D01*
X168825Y340365D01*
X170492D01*
X170908Y340782D01*
Y341615D01*
X170492Y342031D01*
X168409Y344530D02*
Y342864D01*
X169659D01*
X169242Y343697D01*
Y344114D01*
X169659Y344530D01*
X170492D01*
X170908Y344114D01*
Y343281D01*
X170492Y342864D01*
X171325Y345363D02*
Y347029D01*
X170908Y347863D02*
Y348696D01*
Y348279D01*
X168409D01*
X168825Y347863D01*
X176325Y342031D02*
X175909Y341615D01*
Y340782D01*
X176325Y340365D01*
X177992D01*
X178408Y340782D01*
Y341615D01*
X177992Y342031D01*
X175909Y344530D02*
X176325Y343697D01*
X177158Y342864D01*
X177992D01*
X178408Y343281D01*
Y344114D01*
X177992Y344530D01*
X177575D01*
X177158Y344114D01*
Y342864D01*
X178825Y345363D02*
Y347029D01*
X178408Y347863D02*
Y348696D01*
Y348279D01*
X175909D01*
X176325Y347863D01*
X216010Y342331D02*
X215593Y341915D01*
Y341082D01*
X216010Y340665D01*
X217676D01*
X218092Y341082D01*
Y341915D01*
X217676Y342331D01*
X215593Y343164D02*
Y344830D01*
X216010D01*
X217676Y343164D01*
X218092D01*
X218509Y345663D02*
Y347329D01*
X218092Y348163D02*
Y348996D01*
Y348579D01*
X215593D01*
X216010Y348163D01*
X193910Y342031D02*
X193493Y341615D01*
Y340782D01*
X193910Y340365D01*
X195576D01*
X195993Y340782D01*
Y341615D01*
X195576Y342031D01*
X193910Y342864D02*
X193493Y343281D01*
Y344114D01*
X193910Y344530D01*
X194326D01*
X194743Y344114D01*
X195159Y344530D01*
X195576D01*
X195993Y344114D01*
Y343281D01*
X195576Y342864D01*
X195159D01*
X194743Y343281D01*
X194326Y342864D01*
X193910D01*
X194743Y343281D02*
Y344114D01*
X196409Y345363D02*
Y347029D01*
X195993Y347863D02*
Y348696D01*
Y348279D01*
X193493D01*
X193910Y347863D01*
X184871Y342031D02*
X184455Y341615D01*
Y340782D01*
X184871Y340365D01*
X186537D01*
X186954Y340782D01*
Y341615D01*
X186537Y342031D01*
Y342864D02*
X186954Y343281D01*
Y344114D01*
X186537Y344530D01*
X184871D01*
X184455Y344114D01*
Y343281D01*
X184871Y342864D01*
X185288D01*
X185704Y343281D01*
Y344530D01*
X187370Y345363D02*
Y347029D01*
X186954Y347863D02*
Y348696D01*
Y348279D01*
X184455D01*
X184871Y347863D01*
X231373Y341290D02*
X230956Y340873D01*
Y340040D01*
X231373Y339624D01*
X233039D01*
X233455Y340040D01*
Y340873D01*
X233039Y341290D01*
X233455Y342123D02*
Y342956D01*
Y342539D01*
X230956D01*
X231373Y342123D01*
Y344205D02*
X230956Y344622D01*
Y345455D01*
X231373Y345872D01*
X233039D01*
X233455Y345455D01*
Y344622D01*
X233039Y344205D01*
X231373D01*
X233872Y346705D02*
Y348371D01*
X233455Y349204D02*
Y350037D01*
Y349620D01*
X230956D01*
X231373Y349204D01*
X220392Y281747D02*
X217893D01*
Y282997D01*
X218310Y283413D01*
X219143D01*
X219559Y282997D01*
Y281747D01*
Y282580D02*
X220392Y283413D01*
Y284246D02*
Y285079D01*
Y284663D01*
X217893D01*
X218310Y284246D01*
X220809Y286329D02*
Y287995D01*
X220392Y288828D02*
Y289661D01*
Y289245D01*
X217893D01*
X218310Y288828D01*
X223669Y292705D02*
Y295205D01*
X224919D01*
X225336Y294788D01*
Y293955D01*
X224919Y293539D01*
X223669D01*
X224502D02*
X225336Y292705D01*
X227835D02*
X226168D01*
X227835Y294372D01*
Y294788D01*
X227418Y295205D01*
X226585D01*
X226168Y294788D01*
X228668Y292289D02*
X230334D01*
X231167Y292705D02*
X232000D01*
X231583D01*
Y295205D01*
X231167Y294788D01*
X195269Y336405D02*
Y338905D01*
X196519D01*
X196935Y338488D01*
Y337655D01*
X196519Y337239D01*
X195269D01*
X196102D02*
X196935Y336405D01*
X197768Y338488D02*
X198185Y338905D01*
X199018D01*
X199435Y338488D01*
Y338072D01*
X199018Y337655D01*
X198602D01*
X199018D01*
X199435Y337239D01*
Y336822D01*
X199018Y336405D01*
X198185D01*
X197768Y336822D01*
X200268Y335989D02*
X201934D01*
X202767Y336405D02*
X203600D01*
X203183D01*
Y338905D01*
X202767Y338488D01*
X227292Y281747D02*
X224793D01*
Y282997D01*
X225210Y283413D01*
X226043D01*
X226459Y282997D01*
Y281747D01*
Y282580D02*
X227292Y283413D01*
Y285496D02*
X224793D01*
X226043Y284246D01*
Y285912D01*
X227709Y286745D02*
Y288411D01*
X227292Y289244D02*
Y290077D01*
Y289661D01*
X224793D01*
X225210Y289244D01*
X170492Y300665D02*
X167993D01*
Y301915D01*
X168410Y302331D01*
X169243D01*
X169659Y301915D01*
Y300665D01*
Y301498D02*
X170492Y302331D01*
X167993Y304830D02*
X168410Y303997D01*
X169243Y303164D01*
X170076D01*
X170492Y303581D01*
Y304414D01*
X170076Y304830D01*
X169659D01*
X169243Y304414D01*
Y303164D01*
X170909Y305663D02*
Y307330D01*
X170492Y308163D02*
Y308996D01*
Y308579D01*
X167993D01*
X168410Y308163D01*
X223969Y313106D02*
Y315605D01*
X225219D01*
X225636Y315188D01*
Y314355D01*
X225219Y313939D01*
X223969D01*
X224802D02*
X225636Y313106D01*
X226468Y315605D02*
X228135D01*
Y315188D01*
X226468Y313522D01*
Y313106D01*
X228968Y312689D02*
X230634D01*
X231467Y313106D02*
X232300D01*
X231883D01*
Y315605D01*
X231467Y315188D01*
X199319Y281747D02*
X196819D01*
Y282997D01*
X197236Y283413D01*
X198069D01*
X198485Y282997D01*
Y281747D01*
Y282580D02*
X199319Y283413D01*
Y284246D02*
Y285079D01*
Y284663D01*
X196819D01*
X197236Y284246D01*
X199319Y287578D02*
X196819D01*
X198069Y286329D01*
Y287995D01*
X199735Y288828D02*
Y290494D01*
X199319Y291327D02*
Y292160D01*
Y291744D01*
X196819D01*
X197236Y291327D01*
X206418Y281747D02*
X203919D01*
Y282997D01*
X204336Y283413D01*
X205169D01*
X205585Y282997D01*
Y281747D01*
Y282580D02*
X206418Y283413D01*
Y284246D02*
Y285079D01*
Y284663D01*
X203919D01*
X204336Y284246D01*
X203919Y287995D02*
Y286329D01*
X205169D01*
X204752Y287162D01*
Y287578D01*
X205169Y287995D01*
X206002D01*
X206418Y287578D01*
Y286745D01*
X206002Y286329D01*
X206835Y288828D02*
Y290494D01*
X206418Y291327D02*
Y292160D01*
Y291744D01*
X203919D01*
X204336Y291327D01*
X213498Y281747D02*
X210999D01*
Y282997D01*
X211415Y283413D01*
X212248D01*
X212665Y282997D01*
Y281747D01*
Y282580D02*
X213498Y283413D01*
Y284246D02*
Y285079D01*
Y284663D01*
X210999D01*
X211415Y284246D01*
X210999Y287995D02*
X211415Y287162D01*
X212248Y286329D01*
X213082D01*
X213498Y286745D01*
Y287578D01*
X213082Y287995D01*
X212665D01*
X212248Y287578D01*
Y286329D01*
X213914Y288828D02*
Y290494D01*
X213498Y291327D02*
Y292160D01*
Y291744D01*
X210999D01*
X211415Y291327D01*
X55350Y270451D02*
X57850D01*
Y271700D01*
X57433Y272117D01*
X55767D01*
X55350Y271700D01*
Y270451D01*
X57850Y272950D02*
Y273783D01*
Y273366D01*
X55350D01*
X55767Y272950D01*
X66972Y269934D02*
X64472D01*
Y271184D01*
X64889Y271600D01*
X65722D01*
X66139Y271184D01*
Y269934D01*
Y270767D02*
X66972Y271600D01*
X64889Y272433D02*
X64472Y272850D01*
Y273683D01*
X64889Y274100D01*
X65306D01*
X65722Y273683D01*
X66139Y274100D01*
X66555D01*
X66972Y273683D01*
Y272850D01*
X66555Y272433D01*
X66139D01*
X65722Y272850D01*
X65306Y272433D01*
X64889D01*
X65722Y272850D02*
Y273683D01*
X366266Y189633D02*
X365850Y190050D01*
X365017D01*
X364600Y189633D01*
Y187967D01*
X365017Y187550D01*
X365850D01*
X366266Y187967D01*
X367099Y187550D02*
X367932D01*
X367516D01*
Y190050D01*
X367099Y189633D01*
X369182Y187550D02*
X370015D01*
X369598D01*
Y190050D01*
X369182Y189633D01*
X366266Y184833D02*
X365850Y185250D01*
X365017D01*
X364600Y184833D01*
Y183167D01*
X365017Y182750D01*
X365850D01*
X366266Y183167D01*
X367099Y182750D02*
X367932D01*
X367516D01*
Y185250D01*
X367099Y184833D01*
X370848Y182750D02*
X369182D01*
X370848Y184416D01*
Y184833D01*
X370431Y185250D01*
X369598D01*
X369182Y184833D01*
X366266Y175933D02*
X365850Y176350D01*
X365017D01*
X364600Y175933D01*
Y174267D01*
X365017Y173850D01*
X365850D01*
X366266Y174267D01*
X367099Y173850D02*
X367932D01*
X367516D01*
Y176350D01*
X367099Y175933D01*
X369182D02*
X369598Y176350D01*
X370431D01*
X370848Y175933D01*
Y175516D01*
X370431Y175100D01*
X370015D01*
X370431D01*
X370848Y174683D01*
Y174267D01*
X370431Y173850D01*
X369598D01*
X369182Y174267D01*
X352122Y10098D02*
X351706Y9681D01*
Y8848D01*
X352122Y8432D01*
X353788D01*
X354205Y8848D01*
Y9681D01*
X353788Y10098D01*
X354205Y10931D02*
Y11764D01*
Y11347D01*
X351706D01*
X352122Y10931D01*
X351706Y14680D02*
Y13013D01*
X352955D01*
X352539Y13846D01*
Y14263D01*
X352955Y14680D01*
X353788D01*
X354205Y14263D01*
Y13430D01*
X353788Y13013D01*
X371149Y2266D02*
X370732Y1850D01*
Y1017D01*
X371149Y600D01*
X372815D01*
X373232Y1017D01*
Y1850D01*
X372815Y2266D01*
X373232Y3099D02*
Y3932D01*
Y3516D01*
X370732D01*
X371149Y3099D01*
X370732Y6848D02*
X371149Y6015D01*
X371982Y5182D01*
X372815D01*
X373232Y5598D01*
Y6431D01*
X372815Y6848D01*
X372398D01*
X371982Y6431D01*
Y5182D01*
X363367Y2266D02*
X362950Y1850D01*
Y1017D01*
X363367Y600D01*
X365033D01*
X365450Y1017D01*
Y1850D01*
X365033Y2266D01*
X365450Y3099D02*
Y3932D01*
Y3516D01*
X362950D01*
X363367Y3099D01*
X362950Y5182D02*
Y6848D01*
X363367D01*
X365033Y5182D01*
X365450D01*
X379460Y2266D02*
X379043Y1850D01*
Y1017D01*
X379460Y600D01*
X381126D01*
X381542Y1017D01*
Y1850D01*
X381126Y2266D01*
X381542Y3099D02*
Y3932D01*
Y3516D01*
X379043D01*
X379460Y3099D01*
Y5182D02*
X379043Y5598D01*
Y6431D01*
X379460Y6848D01*
X379876D01*
X380293Y6431D01*
X380709Y6848D01*
X381126D01*
X381542Y6431D01*
Y5598D01*
X381126Y5182D01*
X380709D01*
X380293Y5598D01*
X379876Y5182D01*
X379460D01*
X380293Y5598D02*
Y6431D01*
X350042Y167933D02*
X349626Y168350D01*
X348793D01*
X348376Y167933D01*
Y166267D01*
X348793Y165850D01*
X349626D01*
X350042Y166267D01*
X350875Y165850D02*
X351708D01*
X351292D01*
Y168350D01*
X350875Y167933D01*
X352958Y166267D02*
X353374Y165850D01*
X354207D01*
X354624Y166267D01*
Y167933D01*
X354207Y168350D01*
X353374D01*
X352958Y167933D01*
Y167517D01*
X353374Y167100D01*
X354624D01*
X279149Y35014D02*
X280815D01*
X281231Y35430D01*
Y36263D01*
X280815Y36680D01*
X279149D01*
X278732Y36263D01*
Y35430D01*
X279565Y35847D02*
X278732Y35014D01*
Y35430D02*
X279149Y35014D01*
X278732Y34181D02*
Y33348D01*
Y33764D01*
X281231D01*
X280815Y34181D01*
X380217Y229450D02*
Y231950D01*
X381467D01*
X381884Y231533D01*
Y230700D01*
X381467Y230283D01*
X380217D01*
X381050D02*
X381884Y229450D01*
X382716Y229867D02*
X383133Y229450D01*
X383966D01*
X384383Y229867D01*
Y231533D01*
X383966Y231950D01*
X383133D01*
X382716Y231533D01*
Y231117D01*
X383133Y230700D01*
X384383D01*
X348376Y158350D02*
Y160850D01*
X349626D01*
X350042Y160433D01*
Y159600D01*
X349626Y159184D01*
X348376D01*
X349209D02*
X350042Y158350D01*
X350875D02*
X351708D01*
X351292D01*
Y160850D01*
X350875Y160433D01*
X352958D02*
X353374Y160850D01*
X354207D01*
X354624Y160433D01*
Y158767D01*
X354207Y158350D01*
X353374D01*
X352958Y158767D01*
Y160433D01*
X298974Y16864D02*
Y19363D01*
X300224D01*
X300641Y18947D01*
Y18114D01*
X300224Y17697D01*
X298974D01*
X299808D02*
X300641Y16864D01*
X301474D02*
X302307D01*
X301890D01*
Y19363D01*
X301474Y18947D01*
X303556Y16864D02*
X304389D01*
X303973D01*
Y19363D01*
X303556Y18947D01*
X299358Y38564D02*
Y41063D01*
X300607D01*
X301024Y40647D01*
Y39814D01*
X300607Y39397D01*
X299358D01*
X300191D02*
X301024Y38564D01*
X301857D02*
X302690D01*
X302274D01*
Y41063D01*
X301857Y40647D01*
X305606Y38564D02*
X303940D01*
X305606Y40230D01*
Y40647D01*
X305189Y41063D01*
X304356D01*
X303940Y40647D01*
X377850Y55176D02*
X375350D01*
Y56426D01*
X375767Y56842D01*
X376600D01*
X377016Y56426D01*
Y55176D01*
Y56009D02*
X377850Y56842D01*
Y57675D02*
Y58508D01*
Y58092D01*
X375350D01*
X375767Y57675D01*
Y59758D02*
X375350Y60174D01*
Y61007D01*
X375767Y61424D01*
X376183D01*
X376600Y61007D01*
Y60591D01*
Y61007D01*
X377016Y61424D01*
X377433D01*
X377850Y61007D01*
Y60174D01*
X377433Y59758D01*
X61966Y98232D02*
X61550Y98649D01*
X60716D01*
X60300Y98232D01*
Y96566D01*
X60716Y96149D01*
X61550D01*
X61966Y96566D01*
X64465Y96149D02*
X62799D01*
X64465Y97816D01*
Y98232D01*
X64049Y98649D01*
X63216D01*
X62799Y98232D01*
X65298D02*
X65715Y98649D01*
X66548D01*
X66965Y98232D01*
Y96566D01*
X66548Y96149D01*
X65715D01*
X65298Y96566D01*
Y98232D01*
X61966Y91933D02*
X61550Y92350D01*
X60716D01*
X60300Y91933D01*
Y90267D01*
X60716Y89850D01*
X61550D01*
X61966Y90267D01*
X64465Y89850D02*
X62799D01*
X64465Y91517D01*
Y91933D01*
X64049Y92350D01*
X63216D01*
X62799Y91933D01*
X65298Y89850D02*
X66131D01*
X65715D01*
Y92350D01*
X65298Y91933D01*
X61966Y110560D02*
X61550Y110976D01*
X60716D01*
X60300Y110560D01*
Y108894D01*
X60716Y108477D01*
X61550D01*
X61966Y108894D01*
X64465Y108477D02*
X62799D01*
X64465Y110143D01*
Y110560D01*
X64049Y110976D01*
X63216D01*
X62799Y110560D01*
X66965Y108477D02*
X65298D01*
X66965Y110143D01*
Y110560D01*
X66548Y110976D01*
X65715D01*
X65298Y110560D01*
X61966Y104133D02*
X61550Y104550D01*
X60716D01*
X60300Y104133D01*
Y102467D01*
X60716Y102050D01*
X61550D01*
X61966Y102467D01*
X64465Y102050D02*
X62799D01*
X64465Y103717D01*
Y104133D01*
X64049Y104550D01*
X63216D01*
X62799Y104133D01*
X65298D02*
X65715Y104550D01*
X66548D01*
X66965Y104133D01*
Y103717D01*
X66548Y103300D01*
X66131D01*
X66548D01*
X66965Y102884D01*
Y102467D01*
X66548Y102050D01*
X65715D01*
X65298Y102467D01*
X60300Y117210D02*
Y114711D01*
X61550D01*
X61966Y115128D01*
Y116794D01*
X61550Y117210D01*
X60300D01*
X64465Y114711D02*
X62799D01*
X64465Y116377D01*
Y116794D01*
X64049Y117210D01*
X63216D01*
X62799Y116794D01*
D11*
X16156Y47602D02*
X22770D01*
X1313D02*
X6943D01*
X16156Y82798D02*
X22770D01*
X1313D02*
X6943D01*
X1313Y47602D02*
Y82798D01*
D12*
X18236Y116300D02*
Y118473D01*
Y90127D02*
Y92300D01*
Y90127D02*
X20469D01*
X48968D02*
X51701D01*
Y92800D01*
Y115300D02*
Y118473D01*
X48469D02*
X51701D01*
X18236D02*
X28969D01*
X345479Y193476D02*
X391936D01*
Y213554D02*
Y218279D01*
X345479D02*
X391936D01*
X345479Y213554D02*
Y218279D01*
X417770Y75850D02*
Y146716D01*
X393400D02*
X417770D01*
X411865Y75850D02*
X417770D01*
X318361D02*
Y81755D01*
Y140417D02*
Y146716D01*
Y75850D02*
X320329D01*
X318361Y146716D02*
X320329D01*
X53522Y340900D02*
X58522D01*
Y336400D02*
Y340900D01*
Y302400D02*
Y306400D01*
X54022Y302400D02*
X58522D01*
X2522D02*
X8522D01*
X2522D02*
Y340400D01*
X8022D01*
X187180Y226910D02*
Y230847D01*
Y226910D02*
X190251D01*
X220251D02*
X223322D01*
Y230847D01*
Y260847D02*
Y264784D01*
X220251D02*
X223322D01*
X187180Y260847D02*
Y264784D01*
X199251D01*
X196709Y296204D02*
Y297889D01*
Y296204D02*
X198394D01*
X214709D02*
X216394D01*
Y297889D01*
Y314204D02*
Y315889D01*
X214709D02*
X216394D01*
X196709Y314204D02*
Y315889D01*
X198394D01*
X194209Y314204D02*
X196709D01*
X97029Y264831D02*
X109100D01*
X97029Y260894D02*
Y264831D01*
X130100D02*
X133171D01*
Y260894D02*
Y264831D01*
Y226957D02*
Y230894D01*
X130100Y226957D02*
X133171D01*
X97029D02*
X100100D01*
X97029D02*
Y230894D01*
X104058Y314251D02*
X106558D01*
Y315936D02*
X108242D01*
X106558Y314251D02*
Y315936D01*
X124557D02*
X126242D01*
Y314251D02*
Y315936D01*
Y296251D02*
Y297936D01*
X124557Y296251D02*
X126242D01*
X106558D02*
X108242D01*
X106558D02*
Y297936D01*
X278780Y226710D02*
Y230647D01*
Y226710D02*
X281851D01*
X311851D02*
X314922D01*
Y230647D01*
Y260647D02*
Y264584D01*
X311851D02*
X314922D01*
X278780Y260647D02*
Y264584D01*
X290851D01*
X288309Y296004D02*
Y297689D01*
Y296004D02*
X289994D01*
X306309D02*
X307994D01*
Y297689D01*
Y314004D02*
Y315689D01*
X306309D02*
X307994D01*
X288309Y314004D02*
Y315689D01*
X289994D01*
X285809Y314004D02*
X288309D01*
X98620Y355208D02*
Y361206D01*
X100619Y359207D01*
X102619Y361206D01*
Y355208D01*
X107617Y361206D02*
X105618D01*
X104618Y360207D01*
Y356208D01*
X105618Y355208D01*
X107617D01*
X108617Y356208D01*
Y360207D01*
X107617Y361206D01*
X110616D02*
X114615D01*
X112615D01*
Y355208D01*
X119613Y361206D02*
X117614D01*
X116614Y360207D01*
Y356208D01*
X117614Y355208D01*
X119613D01*
X120613Y356208D01*
Y360207D01*
X119613Y361206D01*
X122612Y355208D02*
Y361206D01*
X125611D01*
X126611Y360207D01*
Y358207D01*
X125611Y357207D01*
X122612D01*
X124611D02*
X126611Y355208D01*
X134608Y361206D02*
Y360207D01*
X136608Y358207D01*
X138607Y360207D01*
Y361206D01*
X136608Y358207D02*
Y355208D01*
X83615D02*
Y361206D01*
X86614D01*
X87614Y360207D01*
Y358207D01*
X86614Y357207D01*
X83615D01*
X89613Y360207D02*
X90613Y361206D01*
X92612D01*
X93612Y360207D01*
Y359207D01*
X92612Y358207D01*
X91612D01*
X92612D01*
X93612Y357207D01*
Y356208D01*
X92612Y355208D01*
X90613D01*
X89613Y356208D01*
X43899Y48002D02*
X37901D01*
Y51002D01*
X38901Y52001D01*
X40900D01*
X41900Y51002D01*
Y48002D01*
X43899Y54001D02*
Y56000D01*
Y55000D01*
X37901D01*
X38901Y54001D01*
Y58999D02*
X37901Y59999D01*
Y61998D01*
X38901Y62998D01*
X42899D01*
X43899Y61998D01*
Y59999D01*
X42899Y58999D01*
X38901D01*
X272400Y157100D02*
Y163098D01*
X275399D01*
X276399Y162098D01*
Y160099D01*
X275399Y159099D01*
X272400D01*
X282397Y163098D02*
X280397Y162098D01*
X278398Y160099D01*
Y158100D01*
X279398Y157100D01*
X281397D01*
X282397Y158100D01*
Y159099D01*
X281397Y160099D01*
X278398D01*
X150500Y158100D02*
Y164098D01*
X153499D01*
X154499Y163098D01*
Y161099D01*
X153499Y160099D01*
X150500D01*
X156498Y159100D02*
X157498Y158100D01*
X159497D01*
X160497Y159100D01*
Y163098D01*
X159497Y164098D01*
X157498D01*
X156498Y163098D01*
Y162099D01*
X157498Y161099D01*
X160497D01*
X162496Y157100D02*
X166495D01*
X172493Y158100D02*
X168494D01*
X172493Y162099D01*
Y163098D01*
X171493Y164098D01*
X169494D01*
X168494Y163098D01*
X3301Y346301D02*
Y352299D01*
X6300D01*
X7300Y351299D01*
Y349300D01*
X6300Y348300D01*
X3301D01*
X9299Y346301D02*
X11299D01*
X10299D01*
Y352299D01*
X9299Y351299D01*
X280815Y354961D02*
Y360959D01*
X282815Y358960D01*
X284814Y360959D01*
Y354961D01*
X289812Y360959D02*
X287813D01*
X286813Y359960D01*
Y355961D01*
X287813Y354961D01*
X289812D01*
X290812Y355961D01*
Y359960D01*
X289812Y360959D01*
X292811D02*
X296810D01*
X294811D01*
Y354961D01*
X301808Y360959D02*
X299809D01*
X298809Y359960D01*
Y355961D01*
X299809Y354961D01*
X301808D01*
X302808Y355961D01*
Y359960D01*
X301808Y360959D01*
X304807Y354961D02*
Y360959D01*
X307806D01*
X308806Y359960D01*
Y357960D01*
X307806Y356961D01*
X304807D01*
X306807D02*
X308806Y354961D01*
X316804Y360959D02*
X320802D01*
Y359960D01*
X316804Y355961D01*
Y354961D01*
X320802D01*
X266516D02*
Y360959D01*
X269515D01*
X270514Y359960D01*
Y357960D01*
X269515Y356961D01*
X266516D01*
X276513Y354961D02*
X272514D01*
X276513Y358960D01*
Y359960D01*
X275513Y360959D01*
X273514D01*
X272514Y359960D01*
X187806Y355101D02*
Y361099D01*
X189806Y359100D01*
X191805Y361099D01*
Y355101D01*
X196804Y361099D02*
X194804D01*
X193805Y360099D01*
Y356101D01*
X194804Y355101D01*
X196804D01*
X197803Y356101D01*
Y360099D01*
X196804Y361099D01*
X199803D02*
X203801D01*
X201802D01*
Y355101D01*
X208800Y361099D02*
X206800D01*
X205801Y360099D01*
Y356101D01*
X206800Y355101D01*
X208800D01*
X209799Y356101D01*
Y360099D01*
X208800Y361099D01*
X211799Y355101D02*
Y361099D01*
X214798D01*
X215797Y360099D01*
Y358100D01*
X214798Y357100D01*
X211799D01*
X213798D02*
X215797Y355101D01*
X223795Y361099D02*
Y355101D01*
X225794Y357100D01*
X227794Y355101D01*
Y361099D01*
X172602Y354901D02*
Y360899D01*
X175601D01*
X176600Y359899D01*
Y357900D01*
X175601Y356900D01*
X172602D01*
X181599Y354901D02*
Y360899D01*
X178600Y357900D01*
X182598D01*
X90800Y157100D02*
Y163098D01*
X93799D01*
X94799Y162098D01*
Y160099D01*
X93799Y159099D01*
X90800D01*
X96798Y163098D02*
X100797D01*
Y162098D01*
X96798Y158100D01*
Y157100D01*
X318800Y49501D02*
Y55499D01*
X321799D01*
X322799Y54499D01*
Y52500D01*
X321799Y51500D01*
X318800D01*
X324798Y54499D02*
X325798Y55499D01*
X327797D01*
X328797Y54499D01*
Y53500D01*
X327797Y52500D01*
X328797Y51500D01*
Y50501D01*
X327797Y49501D01*
X325798D01*
X324798Y50501D01*
Y51500D01*
X325798Y52500D01*
X324798Y53500D01*
Y54499D01*
X325798Y52500D02*
X327797D01*
X209000Y158100D02*
Y164098D01*
X211999D01*
X212999Y163098D01*
Y161099D01*
X211999Y160099D01*
X209000D01*
X214998Y159100D02*
X215998Y158100D01*
X217997D01*
X218997Y159100D01*
Y163098D01*
X217997Y164098D01*
X215998D01*
X214998Y163098D01*
Y162099D01*
X215998Y161099D01*
X218997D01*
X220996Y157100D02*
X224995D01*
X226994Y158100D02*
X228994D01*
X227994D01*
Y164098D01*
X226994Y163098D01*
M02*
