G04*
G04 #@! TF.GenerationSoftware,Altium Limited,Altium Designer,22.11.1 (43)*
G04*
G04 Layer_Color=8388736*
%FSLAX25Y25*%
%MOIN*%
G70*
G04*
G04 #@! TF.SameCoordinates,99ABEF4A-569F-4B03-9013-5FDDC67F37EC*
G04*
G04*
G04 #@! TF.FilePolarity,Negative*
G04*
G01*
G75*
%ADD36R,0.02756X0.04882*%
%ADD37R,0.01575X0.04882*%
G04:AMPARAMS|DCode=38|XSize=52.36mil|YSize=27.17mil|CornerRadius=7.78mil|HoleSize=0mil|Usage=FLASHONLY|Rotation=180.000|XOffset=0mil|YOffset=0mil|HoleType=Round|Shape=RoundedRectangle|*
%AMROUNDEDRECTD38*
21,1,0.05236,0.01161,0,0,180.0*
21,1,0.03681,0.02717,0,0,180.0*
1,1,0.01555,-0.01841,0.00581*
1,1,0.01555,0.01841,0.00581*
1,1,0.01555,0.01841,-0.00581*
1,1,0.01555,-0.01841,-0.00581*
%
%ADD38ROUNDEDRECTD38*%
%ADD39R,0.03937X0.08858*%
%ADD40R,0.12992X0.08858*%
%ADD41R,0.07874X0.04331*%
G04:AMPARAMS|DCode=42|XSize=39.37mil|YSize=39.37mil|CornerRadius=6.4mil|HoleSize=0mil|Usage=FLASHONLY|Rotation=270.000|XOffset=0mil|YOffset=0mil|HoleType=Round|Shape=RoundedRectangle|*
%AMROUNDEDRECTD42*
21,1,0.03937,0.02657,0,0,270.0*
21,1,0.02657,0.03937,0,0,270.0*
1,1,0.01280,-0.01329,-0.01329*
1,1,0.01280,-0.01329,0.01329*
1,1,0.01280,0.01329,0.01329*
1,1,0.01280,0.01329,-0.01329*
%
%ADD42ROUNDEDRECTD42*%
G04:AMPARAMS|DCode=43|XSize=62.99mil|YSize=39.37mil|CornerRadius=6.4mil|HoleSize=0mil|Usage=FLASHONLY|Rotation=270.000|XOffset=0mil|YOffset=0mil|HoleType=Round|Shape=RoundedRectangle|*
%AMROUNDEDRECTD43*
21,1,0.06299,0.02657,0,0,270.0*
21,1,0.05020,0.03937,0,0,270.0*
1,1,0.01280,-0.01329,-0.02510*
1,1,0.01280,-0.01329,0.02510*
1,1,0.01280,0.01329,0.02510*
1,1,0.01280,0.01329,-0.02510*
%
%ADD43ROUNDEDRECTD43*%
G04:AMPARAMS|DCode=44|XSize=39.37mil|YSize=62.99mil|CornerRadius=6.4mil|HoleSize=0mil|Usage=FLASHONLY|Rotation=270.000|XOffset=0mil|YOffset=0mil|HoleType=Round|Shape=RoundedRectangle|*
%AMROUNDEDRECTD44*
21,1,0.03937,0.05020,0,0,270.0*
21,1,0.02657,0.06299,0,0,270.0*
1,1,0.01280,-0.02510,-0.01329*
1,1,0.01280,-0.02510,0.01329*
1,1,0.01280,0.02510,0.01329*
1,1,0.01280,0.02510,-0.01329*
%
%ADD44ROUNDEDRECTD44*%
G04:AMPARAMS|DCode=45|XSize=14.17mil|YSize=42.13mil|CornerRadius=4.53mil|HoleSize=0mil|Usage=FLASHONLY|Rotation=0.000|XOffset=0mil|YOffset=0mil|HoleType=Round|Shape=RoundedRectangle|*
%AMROUNDEDRECTD45*
21,1,0.01417,0.03307,0,0,0.0*
21,1,0.00512,0.04213,0,0,0.0*
1,1,0.00906,0.00256,-0.01654*
1,1,0.00906,-0.00256,-0.01654*
1,1,0.00906,-0.00256,0.01654*
1,1,0.00906,0.00256,0.01654*
%
%ADD45ROUNDEDRECTD45*%
G04:AMPARAMS|DCode=46|XSize=14.17mil|YSize=42.13mil|CornerRadius=4.53mil|HoleSize=0mil|Usage=FLASHONLY|Rotation=90.000|XOffset=0mil|YOffset=0mil|HoleType=Round|Shape=RoundedRectangle|*
%AMROUNDEDRECTD46*
21,1,0.01417,0.03307,0,0,90.0*
21,1,0.00512,0.04213,0,0,90.0*
1,1,0.00906,0.01654,0.00256*
1,1,0.00906,0.01654,-0.00256*
1,1,0.00906,-0.01654,-0.00256*
1,1,0.00906,-0.01654,0.00256*
%
%ADD46ROUNDEDRECTD46*%
%ADD47R,0.12795X0.12795*%
%ADD48R,0.13894X0.07394*%
%ADD49R,0.13976X0.13976*%
%ADD50R,0.02756X0.06102*%
%ADD51R,0.06102X0.02756*%
%ADD52R,0.06693X0.04331*%
%ADD53R,0.05512X0.03937*%
%ADD54R,0.02953X0.03937*%
%ADD55R,0.02362X0.02756*%
%ADD56R,0.03937X0.05512*%
%ADD57R,0.07394X0.13894*%
%ADD58R,0.08268X0.08268*%
%ADD59C,0.08268*%
%ADD60R,0.08268X0.08268*%
%ADD61C,0.02756*%
%ADD62R,0.06890X0.06890*%
%ADD63C,0.06890*%
%ADD64C,0.24016*%
%ADD65C,0.07480*%
%ADD66R,0.07480X0.07480*%
%ADD67R,0.16142X0.08268*%
%ADD68R,0.17717X0.09055*%
%ADD69R,0.08268X0.16142*%
%ADD70C,0.06693*%
%ADD71R,0.06693X0.06693*%
%ADD72R,0.07480X0.07480*%
%ADD73C,0.02165*%
D36*
X248898Y25550D02*
D03*
X245749D02*
D03*
X226851D02*
D03*
X223702D02*
D03*
D37*
X243190D02*
D03*
X241221D02*
D03*
X239253D02*
D03*
X237284D02*
D03*
X229410D02*
D03*
X231379D02*
D03*
X233347D02*
D03*
X235316D02*
D03*
D38*
X247654Y116259D02*
D03*
Y123740D02*
D03*
X239307Y120000D02*
D03*
X272708Y123740D02*
D03*
Y116259D02*
D03*
X281054Y120000D02*
D03*
D39*
X217155Y46384D02*
D03*
X226210D02*
D03*
X235265D02*
D03*
D40*
X226210Y69416D02*
D03*
D41*
X326327Y120000D02*
D03*
X290500D02*
D03*
X326327Y135354D02*
D03*
X290500D02*
D03*
D42*
X333788Y49012D02*
D03*
X328276Y43500D02*
D03*
Y49012D02*
D03*
Y54524D02*
D03*
X333788Y43500D02*
D03*
Y54524D02*
D03*
X339300Y43500D02*
D03*
Y49012D02*
D03*
Y54524D02*
D03*
D43*
X364182Y77555D02*
D03*
X359182D02*
D03*
X354182D02*
D03*
X349182D02*
D03*
X344182D02*
D03*
X339182D02*
D03*
X334182D02*
D03*
X329182D02*
D03*
X324182D02*
D03*
X319182D02*
D03*
X314182D02*
D03*
X309182D02*
D03*
X304182D02*
D03*
X299182D02*
D03*
Y8658D02*
D03*
X304182D02*
D03*
X309182D02*
D03*
X314182D02*
D03*
X319182D02*
D03*
X324182D02*
D03*
X329182D02*
D03*
X334182D02*
D03*
X339182D02*
D03*
X344182D02*
D03*
X349182D02*
D03*
X354182D02*
D03*
X359182D02*
D03*
X364182D02*
D03*
D44*
X294261Y60606D02*
D03*
Y55606D02*
D03*
Y50606D02*
D03*
Y45606D02*
D03*
Y40606D02*
D03*
Y35606D02*
D03*
Y30606D02*
D03*
Y25606D02*
D03*
Y20606D02*
D03*
Y65606D02*
D03*
D45*
X256431Y87846D02*
D03*
X258400D02*
D03*
X260368D02*
D03*
X262337D02*
D03*
X264305D02*
D03*
X266274D02*
D03*
X268242D02*
D03*
Y106508D02*
D03*
X266274D02*
D03*
X264305D02*
D03*
X262337D02*
D03*
X260368D02*
D03*
X258400D02*
D03*
X256431D02*
D03*
D46*
X271667Y91272D02*
D03*
Y93240D02*
D03*
Y95209D02*
D03*
Y97177D02*
D03*
Y99146D02*
D03*
Y101114D02*
D03*
Y103083D02*
D03*
X253006D02*
D03*
Y101114D02*
D03*
Y99146D02*
D03*
Y97177D02*
D03*
Y95209D02*
D03*
Y93240D02*
D03*
Y91272D02*
D03*
D47*
X262337Y97177D02*
D03*
D48*
X82397Y139000D02*
D03*
X267000Y67500D02*
D03*
Y50606D02*
D03*
X281000Y36503D02*
D03*
D49*
X114999Y99666D02*
D03*
X41127D02*
D03*
X187785D02*
D03*
D50*
X120905Y109115D02*
D03*
X118937D02*
D03*
X116968D02*
D03*
X114999D02*
D03*
X113031D02*
D03*
X111063D02*
D03*
X109094D02*
D03*
X120905Y90217D02*
D03*
X118937D02*
D03*
X116968D02*
D03*
X114999D02*
D03*
X113031D02*
D03*
X111063D02*
D03*
X109094D02*
D03*
X47032Y109115D02*
D03*
X45064D02*
D03*
X43095D02*
D03*
X41127D02*
D03*
X39158D02*
D03*
X37190D02*
D03*
X35221D02*
D03*
X47032Y90217D02*
D03*
X45064D02*
D03*
X43095D02*
D03*
X41127D02*
D03*
X39158D02*
D03*
X37190D02*
D03*
X35221D02*
D03*
X193691Y109115D02*
D03*
X191722D02*
D03*
X189754D02*
D03*
X187785D02*
D03*
X185817D02*
D03*
X183848D02*
D03*
X181880D02*
D03*
X193691Y90217D02*
D03*
X191722D02*
D03*
X189754D02*
D03*
X187785D02*
D03*
X185817D02*
D03*
X183848D02*
D03*
X181880D02*
D03*
D51*
X124448Y105571D02*
D03*
Y103603D02*
D03*
Y101635D02*
D03*
Y99666D02*
D03*
Y97698D02*
D03*
Y95729D02*
D03*
Y93761D02*
D03*
X105551Y105571D02*
D03*
Y103603D02*
D03*
Y101635D02*
D03*
Y99666D02*
D03*
Y97698D02*
D03*
Y95729D02*
D03*
Y93761D02*
D03*
X50576Y105571D02*
D03*
Y103603D02*
D03*
Y101635D02*
D03*
Y99666D02*
D03*
Y97698D02*
D03*
Y95729D02*
D03*
Y93761D02*
D03*
X31678Y105571D02*
D03*
Y103603D02*
D03*
Y101635D02*
D03*
Y99666D02*
D03*
Y97698D02*
D03*
Y95729D02*
D03*
Y93761D02*
D03*
X197234Y105571D02*
D03*
Y103603D02*
D03*
Y101635D02*
D03*
Y99666D02*
D03*
Y97698D02*
D03*
Y95729D02*
D03*
Y93761D02*
D03*
X178336Y105571D02*
D03*
Y103603D02*
D03*
Y101635D02*
D03*
Y99666D02*
D03*
Y97698D02*
D03*
Y95729D02*
D03*
Y93761D02*
D03*
D52*
X359182Y88500D02*
D03*
Y101098D02*
D03*
X20990Y112717D02*
D03*
Y125316D02*
D03*
X66990Y112966D02*
D03*
Y125565D02*
D03*
X166946Y112763D02*
D03*
Y125361D02*
D03*
X213648Y112966D02*
D03*
Y125565D02*
D03*
X94443Y112749D02*
D03*
Y125347D02*
D03*
X140863Y112966D02*
D03*
Y125565D02*
D03*
X377700Y92000D02*
D03*
Y104598D02*
D03*
X368500Y92000D02*
D03*
Y104598D02*
D03*
X349982Y88500D02*
D03*
Y101098D02*
D03*
D53*
X360000Y184968D02*
D03*
Y176700D02*
D03*
X17990Y103283D02*
D03*
Y95015D02*
D03*
X25127Y78474D02*
D03*
Y70207D02*
D03*
X58790Y112966D02*
D03*
Y121234D02*
D03*
X4300Y112301D02*
D03*
Y120568D02*
D03*
X12627Y120650D02*
D03*
Y112383D02*
D03*
X51627Y121234D02*
D03*
Y112966D02*
D03*
X29527Y121016D02*
D03*
Y112749D02*
D03*
X53132Y78474D02*
D03*
Y70207D02*
D03*
X60032Y78474D02*
D03*
Y70207D02*
D03*
X11127Y95015D02*
D03*
Y103283D02*
D03*
X32059Y78474D02*
D03*
Y70207D02*
D03*
X39158Y78474D02*
D03*
Y70207D02*
D03*
X46196Y78474D02*
D03*
Y70207D02*
D03*
X164648Y103283D02*
D03*
Y95015D02*
D03*
X171785Y78474D02*
D03*
Y70207D02*
D03*
X205448Y112966D02*
D03*
Y121234D02*
D03*
X150900Y112966D02*
D03*
Y121234D02*
D03*
X158400D02*
D03*
Y112966D02*
D03*
X198285Y121234D02*
D03*
Y112966D02*
D03*
X176185Y121016D02*
D03*
Y112749D02*
D03*
X199791Y78474D02*
D03*
Y70207D02*
D03*
X206691Y78474D02*
D03*
Y70207D02*
D03*
X157785Y95015D02*
D03*
Y103283D02*
D03*
X178717Y78474D02*
D03*
Y70207D02*
D03*
X185817Y78474D02*
D03*
Y70207D02*
D03*
X192854Y78474D02*
D03*
Y70207D02*
D03*
X91862Y103283D02*
D03*
Y95015D02*
D03*
X99000Y78474D02*
D03*
Y70207D02*
D03*
X132662Y112966D02*
D03*
Y121234D02*
D03*
X78397Y112952D02*
D03*
Y121220D02*
D03*
X85897D02*
D03*
Y112952D02*
D03*
X125499Y121234D02*
D03*
Y112966D02*
D03*
X103400Y121016D02*
D03*
Y112749D02*
D03*
X127005Y78474D02*
D03*
Y70207D02*
D03*
X133905Y78474D02*
D03*
Y70207D02*
D03*
X85000Y95015D02*
D03*
Y103283D02*
D03*
X105931Y78474D02*
D03*
Y70207D02*
D03*
X113031Y78474D02*
D03*
Y70207D02*
D03*
X120068Y78474D02*
D03*
Y70207D02*
D03*
X152900Y69968D02*
D03*
Y61700D02*
D03*
X160019Y69968D02*
D03*
Y61700D02*
D03*
X342000Y88500D02*
D03*
Y96768D02*
D03*
X241910Y95209D02*
D03*
Y86941D02*
D03*
X244910Y54652D02*
D03*
Y46384D02*
D03*
X260500Y32300D02*
D03*
Y40568D02*
D03*
X268700Y32300D02*
D03*
Y40568D02*
D03*
D54*
X353209Y176000D02*
D03*
X347500D02*
D03*
X353209Y182500D02*
D03*
X347500D02*
D03*
D55*
X127936Y125565D02*
D03*
X124000D02*
D03*
X30490Y125966D02*
D03*
X34427D02*
D03*
X54064Y125565D02*
D03*
X50127D02*
D03*
X177148Y125966D02*
D03*
X181085D02*
D03*
X200722Y125565D02*
D03*
X196785D02*
D03*
X104362Y125966D02*
D03*
X108300D02*
D03*
D56*
X17990Y88849D02*
D03*
X9722D02*
D03*
X58790Y93749D02*
D03*
X67058D02*
D03*
Y101635D02*
D03*
X58790D02*
D03*
X164648Y88849D02*
D03*
X156380D02*
D03*
X205448Y93749D02*
D03*
X213716D02*
D03*
Y101635D02*
D03*
X205448D02*
D03*
X91862Y88849D02*
D03*
X83595D02*
D03*
X132662Y93749D02*
D03*
X140930D02*
D03*
Y101635D02*
D03*
X132662D02*
D03*
X270193Y78474D02*
D03*
X278460D02*
D03*
X277445Y98870D02*
D03*
X285713D02*
D03*
Y91272D02*
D03*
X277445D02*
D03*
X285713Y106232D02*
D03*
X277445D02*
D03*
X335500Y120000D02*
D03*
X343768D02*
D03*
Y135354D02*
D03*
X335500D02*
D03*
X264575Y123740D02*
D03*
X256308D02*
D03*
Y116259D02*
D03*
X264575D02*
D03*
X242618Y37500D02*
D03*
X234350D02*
D03*
X226210D02*
D03*
X217943D02*
D03*
X226210Y78474D02*
D03*
X217943D02*
D03*
X140930Y86632D02*
D03*
X132662D02*
D03*
X67058Y86698D02*
D03*
X58790D02*
D03*
X213710Y86871D02*
D03*
X205442D02*
D03*
D57*
X15748Y149500D02*
D03*
D58*
X82677Y169291D02*
D03*
X212598D02*
D03*
X147638D02*
D03*
D59*
X67677D02*
D03*
X52677D02*
D03*
X37677D02*
D03*
X15748Y40137D02*
D03*
X197598Y169291D02*
D03*
X182598D02*
D03*
X167598D02*
D03*
X132638D02*
D03*
X117638D02*
D03*
X102638D02*
D03*
D60*
X15748Y55137D02*
D03*
D61*
X247678Y21338D02*
D03*
X224922D02*
D03*
D62*
X376200Y152354D02*
D03*
D63*
Y142354D02*
D03*
Y132354D02*
D03*
Y122354D02*
D03*
D64*
X272700Y15000D02*
D03*
X15748Y15748D02*
D03*
X377000Y176700D02*
D03*
X236221Y177165D02*
D03*
X15748D02*
D03*
D65*
X227500Y137000D02*
D03*
Y147000D02*
D03*
Y157000D02*
D03*
X237500Y137000D02*
D03*
Y147000D02*
D03*
X295500Y176000D02*
D03*
X285500D02*
D03*
X275500D02*
D03*
X295500Y186000D02*
D03*
X285500D02*
D03*
X339000Y176000D02*
D03*
X329000D02*
D03*
X319000D02*
D03*
X339000Y186000D02*
D03*
X329000D02*
D03*
X250441Y137000D02*
D03*
Y147000D02*
D03*
Y157000D02*
D03*
X260441Y137000D02*
D03*
Y147000D02*
D03*
D66*
X237500Y157000D02*
D03*
X260441D02*
D03*
D67*
X139500Y31000D02*
D03*
D68*
Y54622D02*
D03*
D69*
X158004Y42811D02*
D03*
D70*
X109229Y13700D02*
D03*
X99229D02*
D03*
X89229D02*
D03*
X109229Y43700D02*
D03*
X99229D02*
D03*
X61400Y13700D02*
D03*
X51400D02*
D03*
X41400D02*
D03*
X61400Y43700D02*
D03*
X51400D02*
D03*
X195817Y13700D02*
D03*
X185817D02*
D03*
X175817D02*
D03*
X195817Y43700D02*
D03*
X185817D02*
D03*
D71*
X89229D02*
D03*
X41400D02*
D03*
X175817D02*
D03*
D72*
X275500Y186000D02*
D03*
X319000D02*
D03*
D73*
X333788Y58461D02*
D03*
X328276D02*
D03*
X324339Y54524D02*
D03*
Y49012D02*
D03*
Y43500D02*
D03*
X328276Y39563D02*
D03*
X333788D02*
D03*
X339300D02*
D03*
X343237Y43500D02*
D03*
Y49012D02*
D03*
Y54524D02*
D03*
X339182Y58461D02*
D03*
X331032Y51768D02*
D03*
Y46256D02*
D03*
X336544D02*
D03*
X336544Y51768D02*
D03*
M02*
