G04*
G04 #@! TF.GenerationSoftware,Altium Limited,Altium Designer,22.11.1 (43)*
G04*
G04 Layer_Color=16711935*
%FSLAX25Y25*%
%MOIN*%
G70*
G04*
G04 #@! TF.SameCoordinates,99ABEF4A-569F-4B03-9013-5FDDC67F37EC*
G04*
G04*
G04 #@! TF.FilePolarity,Negative*
G04*
G01*
G75*
%ADD58R,0.08268X0.08268*%
%ADD59C,0.08268*%
%ADD60R,0.08268X0.08268*%
%ADD61C,0.02756*%
%ADD62R,0.06890X0.06890*%
%ADD63C,0.06890*%
%ADD64C,0.24016*%
%ADD65C,0.07480*%
%ADD66R,0.07480X0.07480*%
%ADD67R,0.16142X0.08268*%
%ADD68R,0.17717X0.09055*%
%ADD69R,0.08268X0.16142*%
%ADD70C,0.06693*%
%ADD71R,0.06693X0.06693*%
%ADD72R,0.07480X0.07480*%
%ADD73C,0.02165*%
D58*
X82677Y169291D02*
D03*
X212598D02*
D03*
X147638D02*
D03*
D59*
X67677D02*
D03*
X52677D02*
D03*
X37677D02*
D03*
X15748Y40137D02*
D03*
X197598Y169291D02*
D03*
X182598D02*
D03*
X167598D02*
D03*
X132638D02*
D03*
X117638D02*
D03*
X102638D02*
D03*
D60*
X15748Y55137D02*
D03*
D61*
X247678Y21338D02*
D03*
X224922D02*
D03*
D62*
X376200Y152354D02*
D03*
D63*
Y142354D02*
D03*
Y132354D02*
D03*
Y122354D02*
D03*
D64*
X272700Y15000D02*
D03*
X15748Y15748D02*
D03*
X377000Y176700D02*
D03*
X236221Y177165D02*
D03*
X15748D02*
D03*
D65*
X227500Y137000D02*
D03*
Y147000D02*
D03*
Y157000D02*
D03*
X237500Y137000D02*
D03*
Y147000D02*
D03*
X295500Y176000D02*
D03*
X285500D02*
D03*
X275500D02*
D03*
X295500Y186000D02*
D03*
X285500D02*
D03*
X339000Y176000D02*
D03*
X329000D02*
D03*
X319000D02*
D03*
X339000Y186000D02*
D03*
X329000D02*
D03*
X250441Y137000D02*
D03*
Y147000D02*
D03*
Y157000D02*
D03*
X260441Y137000D02*
D03*
Y147000D02*
D03*
D66*
X237500Y157000D02*
D03*
X260441D02*
D03*
D67*
X139500Y31000D02*
D03*
D68*
Y54622D02*
D03*
D69*
X158004Y42811D02*
D03*
D70*
X109229Y13700D02*
D03*
X99229D02*
D03*
X89229D02*
D03*
X109229Y43700D02*
D03*
X99229D02*
D03*
X61400Y13700D02*
D03*
X51400D02*
D03*
X41400D02*
D03*
X61400Y43700D02*
D03*
X51400D02*
D03*
X195817Y13700D02*
D03*
X185817D02*
D03*
X175817D02*
D03*
X195817Y43700D02*
D03*
X185817D02*
D03*
D71*
X89229D02*
D03*
X41400D02*
D03*
X175817D02*
D03*
D72*
X275500Y186000D02*
D03*
X319000D02*
D03*
D73*
X333788Y58461D02*
D03*
X328276D02*
D03*
X324339Y54524D02*
D03*
Y49012D02*
D03*
Y43500D02*
D03*
X328276Y39563D02*
D03*
X333788D02*
D03*
X339300D02*
D03*
X343237Y43500D02*
D03*
Y49012D02*
D03*
Y54524D02*
D03*
X339182Y58461D02*
D03*
X331032Y51768D02*
D03*
Y46256D02*
D03*
X336544D02*
D03*
X336544Y51768D02*
D03*
M02*
