G04*
G04 #@! TF.GenerationSoftware,Altium Limited,Altium Designer,22.11.1 (43)*
G04*
G04 Layer_Color=8388736*
%FSLAX25Y25*%
%MOIN*%
G70*
G04*
G04 #@! TF.SameCoordinates,EC01C676-AF26-4C78-A894-FF1C61784DD5*
G04*
G04*
G04 #@! TF.FilePolarity,Negative*
G04*
G01*
G75*
%ADD33R,0.04882X0.02756*%
%ADD34R,0.04882X0.01575*%
G04:AMPARAMS|DCode=35|XSize=56.42mil|YSize=31.23mil|CornerRadius=9.81mil|HoleSize=0mil|Usage=FLASHONLY|Rotation=0.000|XOffset=0mil|YOffset=0mil|HoleType=Round|Shape=RoundedRectangle|*
%AMROUNDEDRECTD35*
21,1,0.05642,0.01161,0,0,0.0*
21,1,0.03681,0.03123,0,0,0.0*
1,1,0.01961,0.01841,-0.00581*
1,1,0.01961,-0.01841,-0.00581*
1,1,0.01961,-0.01841,0.00581*
1,1,0.01961,0.01841,0.00581*
%
%ADD35ROUNDEDRECTD35*%
%ADD36R,0.09265X0.13398*%
%ADD37R,0.09265X0.04343*%
%ADD38R,0.08280X0.04737*%
G04:AMPARAMS|DCode=39|XSize=43.43mil|YSize=43.43mil|CornerRadius=8.43mil|HoleSize=0mil|Usage=FLASHONLY|Rotation=270.000|XOffset=0mil|YOffset=0mil|HoleType=Round|Shape=RoundedRectangle|*
%AMROUNDEDRECTD39*
21,1,0.04343,0.02657,0,0,270.0*
21,1,0.02657,0.04343,0,0,270.0*
1,1,0.01686,-0.01329,-0.01329*
1,1,0.01686,-0.01329,0.01329*
1,1,0.01686,0.01329,0.01329*
1,1,0.01686,0.01329,-0.01329*
%
%ADD39ROUNDEDRECTD39*%
G04:AMPARAMS|DCode=40|XSize=67.06mil|YSize=43.43mil|CornerRadius=8.43mil|HoleSize=0mil|Usage=FLASHONLY|Rotation=270.000|XOffset=0mil|YOffset=0mil|HoleType=Round|Shape=RoundedRectangle|*
%AMROUNDEDRECTD40*
21,1,0.06706,0.02657,0,0,270.0*
21,1,0.05020,0.04343,0,0,270.0*
1,1,0.01686,-0.01329,-0.02510*
1,1,0.01686,-0.01329,0.02510*
1,1,0.01686,0.01329,0.02510*
1,1,0.01686,0.01329,-0.02510*
%
%ADD40ROUNDEDRECTD40*%
G04:AMPARAMS|DCode=41|XSize=43.43mil|YSize=67.06mil|CornerRadius=8.43mil|HoleSize=0mil|Usage=FLASHONLY|Rotation=270.000|XOffset=0mil|YOffset=0mil|HoleType=Round|Shape=RoundedRectangle|*
%AMROUNDEDRECTD41*
21,1,0.04343,0.05020,0,0,270.0*
21,1,0.02657,0.06706,0,0,270.0*
1,1,0.01686,-0.02510,-0.01329*
1,1,0.01686,-0.02510,0.01329*
1,1,0.01686,0.02510,0.01329*
1,1,0.01686,0.02510,-0.01329*
%
%ADD41ROUNDEDRECTD41*%
%ADD42R,0.13202X0.13202*%
G04:AMPARAMS|DCode=43|XSize=18.24mil|YSize=46.19mil|CornerRadius=6.56mil|HoleSize=0mil|Usage=FLASHONLY|Rotation=0.000|XOffset=0mil|YOffset=0mil|HoleType=Round|Shape=RoundedRectangle|*
%AMROUNDEDRECTD43*
21,1,0.01824,0.03307,0,0,0.0*
21,1,0.00512,0.04619,0,0,0.0*
1,1,0.01312,0.00256,-0.01654*
1,1,0.01312,-0.00256,-0.01654*
1,1,0.01312,-0.00256,0.01654*
1,1,0.01312,0.00256,0.01654*
%
%ADD43ROUNDEDRECTD43*%
G04:AMPARAMS|DCode=44|XSize=18.24mil|YSize=46.19mil|CornerRadius=6.56mil|HoleSize=0mil|Usage=FLASHONLY|Rotation=270.000|XOffset=0mil|YOffset=0mil|HoleType=Round|Shape=RoundedRectangle|*
%AMROUNDEDRECTD44*
21,1,0.01824,0.03307,0,0,270.0*
21,1,0.00512,0.04619,0,0,270.0*
1,1,0.01312,-0.01654,-0.00256*
1,1,0.01312,-0.01654,0.00256*
1,1,0.01312,0.01654,0.00256*
1,1,0.01312,0.01654,-0.00256*
%
%ADD44ROUNDEDRECTD44*%
%ADD45R,0.13976X0.13976*%
%ADD46R,0.02756X0.06102*%
%ADD47R,0.06102X0.02756*%
%ADD48R,0.04737X0.07099*%
%ADD49R,0.04343X0.05918*%
%ADD50R,0.02769X0.03162*%
%ADD51R,0.05918X0.04343*%
%ADD52R,0.07099X0.04737*%
%ADD53C,0.08674*%
%ADD54C,0.03162*%
%ADD55C,0.07296*%
%ADD56C,0.07887*%
%ADD57R,0.07887X0.07887*%
%ADD58R,0.08674X0.16548*%
%ADD59R,0.09461X0.18123*%
%ADD60R,0.16548X0.08674*%
%ADD61C,0.07099*%
%ADD62R,0.07887X0.07887*%
%ADD63C,0.02572*%
D33*
X30250Y77798D02*
D03*
Y74649D02*
D03*
Y55751D02*
D03*
Y52602D02*
D03*
D34*
Y66184D02*
D03*
Y68153D02*
D03*
Y70121D02*
D03*
Y72090D02*
D03*
Y64216D02*
D03*
Y62247D02*
D03*
Y60279D02*
D03*
Y58310D02*
D03*
D35*
X323282Y29254D02*
D03*
X314935Y25514D02*
D03*
Y32994D02*
D03*
X289882Y25514D02*
D03*
Y32994D02*
D03*
X281535Y29254D02*
D03*
D36*
X46484Y104300D02*
D03*
D37*
X23453Y95245D02*
D03*
Y104300D02*
D03*
Y113355D02*
D03*
D38*
X350795Y213554D02*
D03*
X386621D02*
D03*
X350795Y198200D02*
D03*
X386621D02*
D03*
D39*
X357888Y117188D02*
D03*
X352376Y111676D02*
D03*
Y117188D02*
D03*
Y122700D02*
D03*
X357888Y111676D02*
D03*
Y122700D02*
D03*
X363400Y111676D02*
D03*
Y117188D02*
D03*
Y122700D02*
D03*
D40*
X388282Y145731D02*
D03*
X383282D02*
D03*
X378282D02*
D03*
X373282D02*
D03*
X368282D02*
D03*
X363282D02*
D03*
X358282D02*
D03*
X353282D02*
D03*
X348282D02*
D03*
X343282D02*
D03*
X338282D02*
D03*
X333282D02*
D03*
X328282D02*
D03*
X323282D02*
D03*
Y76834D02*
D03*
X328282D02*
D03*
X333282D02*
D03*
X338282D02*
D03*
X343282D02*
D03*
X348282D02*
D03*
X353282D02*
D03*
X358282D02*
D03*
X363282D02*
D03*
X368282D02*
D03*
X373282D02*
D03*
X378282D02*
D03*
X383282D02*
D03*
X388282D02*
D03*
D41*
X318361Y128783D02*
D03*
Y123783D02*
D03*
Y118783D02*
D03*
Y113783D02*
D03*
Y108783D02*
D03*
Y103783D02*
D03*
Y98783D02*
D03*
Y93783D02*
D03*
Y88783D02*
D03*
Y133783D02*
D03*
D42*
X370450Y32793D02*
D03*
D43*
X364545Y42124D02*
D03*
X366513D02*
D03*
X368482D02*
D03*
X370450D02*
D03*
X372419D02*
D03*
X374387D02*
D03*
X376356D02*
D03*
Y23463D02*
D03*
X374387D02*
D03*
X372419D02*
D03*
X370450D02*
D03*
X368482D02*
D03*
X366513D02*
D03*
X364545D02*
D03*
D44*
X379781Y38699D02*
D03*
Y36730D02*
D03*
Y34762D02*
D03*
Y32793D02*
D03*
Y30825D02*
D03*
Y28856D02*
D03*
Y26888D02*
D03*
X361120D02*
D03*
Y28856D02*
D03*
Y30825D02*
D03*
Y32793D02*
D03*
Y34762D02*
D03*
Y36730D02*
D03*
Y38699D02*
D03*
D45*
X206551Y306047D02*
D03*
X116400Y306094D02*
D03*
X298151Y305847D02*
D03*
D46*
X212457Y315496D02*
D03*
X210488D02*
D03*
X208520D02*
D03*
X206551D02*
D03*
X204583D02*
D03*
X202614D02*
D03*
X200646D02*
D03*
X212457Y296598D02*
D03*
X210488D02*
D03*
X208520D02*
D03*
X206551D02*
D03*
X204583D02*
D03*
X202614D02*
D03*
X200646D02*
D03*
X110494Y296645D02*
D03*
X112463D02*
D03*
X114432D02*
D03*
X116400D02*
D03*
X118368D02*
D03*
X120337D02*
D03*
X122306D02*
D03*
X110494Y315543D02*
D03*
X112463D02*
D03*
X114432D02*
D03*
X116400D02*
D03*
X118368D02*
D03*
X120337D02*
D03*
X122306D02*
D03*
X304057Y315296D02*
D03*
X302088D02*
D03*
X300120D02*
D03*
X298151D02*
D03*
X296183D02*
D03*
X294214D02*
D03*
X292246D02*
D03*
X304057Y296398D02*
D03*
X302088D02*
D03*
X300120D02*
D03*
X298151D02*
D03*
X296183D02*
D03*
X294214D02*
D03*
X292246D02*
D03*
D47*
X216000Y311952D02*
D03*
Y309984D02*
D03*
Y308015D02*
D03*
Y306047D02*
D03*
Y304078D02*
D03*
Y302110D02*
D03*
Y300141D02*
D03*
X197102Y311952D02*
D03*
Y309984D02*
D03*
Y308015D02*
D03*
Y306047D02*
D03*
Y304078D02*
D03*
Y302110D02*
D03*
Y300141D02*
D03*
X106951Y300188D02*
D03*
Y302157D02*
D03*
Y304125D02*
D03*
Y306094D02*
D03*
Y308062D02*
D03*
Y310031D02*
D03*
Y311999D02*
D03*
X125849Y300188D02*
D03*
Y302157D02*
D03*
Y304125D02*
D03*
Y306094D02*
D03*
Y308062D02*
D03*
Y310031D02*
D03*
Y311999D02*
D03*
X307600Y311752D02*
D03*
Y309784D02*
D03*
Y307815D02*
D03*
Y305847D02*
D03*
Y303878D02*
D03*
Y301910D02*
D03*
Y299941D02*
D03*
X288702Y311752D02*
D03*
Y309784D02*
D03*
Y307815D02*
D03*
Y305847D02*
D03*
Y303878D02*
D03*
Y301910D02*
D03*
Y299941D02*
D03*
D48*
X375702Y159600D02*
D03*
X388300D02*
D03*
X375702Y187000D02*
D03*
X388300D02*
D03*
X375702Y178000D02*
D03*
X388300D02*
D03*
X375702Y168800D02*
D03*
X388300D02*
D03*
D49*
X13635Y128400D02*
D03*
X5367D02*
D03*
X84995Y295276D02*
D03*
X93263D02*
D03*
X142331Y300176D02*
D03*
X134063D02*
D03*
Y308062D02*
D03*
X142331D02*
D03*
X275014Y295030D02*
D03*
X266746D02*
D03*
X315814Y299930D02*
D03*
X324082D02*
D03*
Y307815D02*
D03*
X315814D02*
D03*
X183414Y295230D02*
D03*
X175146D02*
D03*
X224214Y300130D02*
D03*
X232482D02*
D03*
Y308015D02*
D03*
X224214D02*
D03*
X368282Y167182D02*
D03*
X360014D02*
D03*
X386621Y223477D02*
D03*
X378354D02*
D03*
X368282Y159600D02*
D03*
X360014D02*
D03*
X298014Y25514D02*
D03*
X306282D02*
D03*
Y32994D02*
D03*
X298014D02*
D03*
X13635Y99861D02*
D03*
X5367D02*
D03*
X13635Y92727D02*
D03*
X5367D02*
D03*
X13635Y114200D02*
D03*
X5367D02*
D03*
X13635Y106900D02*
D03*
X5367D02*
D03*
X13635Y121500D02*
D03*
X5367D02*
D03*
D50*
X219488Y331945D02*
D03*
X215551D02*
D03*
X109700Y332394D02*
D03*
X105763D02*
D03*
X125400Y331992D02*
D03*
X129337D02*
D03*
X287514Y332147D02*
D03*
X291451D02*
D03*
X311088Y331745D02*
D03*
X307151D02*
D03*
X195914Y332347D02*
D03*
X199851D02*
D03*
D51*
X93263Y301443D02*
D03*
Y309710D02*
D03*
X101195Y269443D02*
D03*
Y277710D02*
D03*
X134063Y327661D02*
D03*
Y319394D02*
D03*
X79716Y331116D02*
D03*
Y322848D02*
D03*
X87216D02*
D03*
Y331116D02*
D03*
X126900Y319394D02*
D03*
Y327661D02*
D03*
X104800Y319176D02*
D03*
Y327444D02*
D03*
X129200Y269443D02*
D03*
Y277710D02*
D03*
X136100Y269443D02*
D03*
Y277710D02*
D03*
X86400Y309710D02*
D03*
Y301443D02*
D03*
X108126Y269443D02*
D03*
Y277710D02*
D03*
X115226Y269443D02*
D03*
Y277710D02*
D03*
X122263Y269443D02*
D03*
Y277710D02*
D03*
X275014Y309463D02*
D03*
Y301196D02*
D03*
X282946Y277463D02*
D03*
Y269196D02*
D03*
X315814Y319147D02*
D03*
Y327415D02*
D03*
X261467Y322601D02*
D03*
Y330869D02*
D03*
X268967D02*
D03*
Y322601D02*
D03*
X308651Y327415D02*
D03*
Y319147D02*
D03*
X286551Y327197D02*
D03*
Y318930D02*
D03*
X310951Y277463D02*
D03*
Y269196D02*
D03*
X317851Y277463D02*
D03*
Y269196D02*
D03*
X268151Y301196D02*
D03*
Y309463D02*
D03*
X289877Y277463D02*
D03*
Y269196D02*
D03*
X296977Y277463D02*
D03*
Y269196D02*
D03*
X304014Y277463D02*
D03*
Y269196D02*
D03*
X183414Y309663D02*
D03*
Y301396D02*
D03*
X191346Y277663D02*
D03*
Y269396D02*
D03*
X224214Y319347D02*
D03*
Y327615D02*
D03*
X169867Y322801D02*
D03*
Y331069D02*
D03*
X177367D02*
D03*
Y322801D02*
D03*
X217051Y327615D02*
D03*
Y319347D02*
D03*
X194951Y327397D02*
D03*
Y319130D02*
D03*
X219351Y277663D02*
D03*
Y269396D02*
D03*
X226251Y277663D02*
D03*
Y269396D02*
D03*
X176551Y301396D02*
D03*
Y309663D02*
D03*
X198277Y277663D02*
D03*
Y269396D02*
D03*
X205377Y277663D02*
D03*
Y269396D02*
D03*
X212414Y277663D02*
D03*
Y269396D02*
D03*
X56622Y279859D02*
D03*
Y288127D02*
D03*
X65722Y279960D02*
D03*
Y288227D02*
D03*
X352576Y26888D02*
D03*
Y18620D02*
D03*
X372143Y17685D02*
D03*
Y9417D02*
D03*
X364545D02*
D03*
Y17685D02*
D03*
X379505Y9417D02*
D03*
Y17685D02*
D03*
X368282Y54232D02*
D03*
Y62500D02*
D03*
D52*
X95761Y335243D02*
D03*
Y322645D02*
D03*
X142263Y331992D02*
D03*
Y319394D02*
D03*
X277512Y322398D02*
D03*
Y334997D02*
D03*
X324014Y319147D02*
D03*
Y331745D02*
D03*
X185912Y322598D02*
D03*
Y335196D02*
D03*
X232414Y319347D02*
D03*
Y331945D02*
D03*
D53*
X133613Y378447D02*
D03*
X118613D02*
D03*
X103613D02*
D03*
X88613D02*
D03*
X315809Y378200D02*
D03*
X300809D02*
D03*
X285809D02*
D03*
X270809D02*
D03*
X222800Y378400D02*
D03*
X207800D02*
D03*
X192800D02*
D03*
X177800D02*
D03*
D54*
X26038Y76578D02*
D03*
Y53822D02*
D03*
D55*
X276700Y118800D02*
D03*
Y128800D02*
D03*
Y138800D02*
D03*
Y148800D02*
D03*
D56*
X164800Y148783D02*
D03*
Y138783D02*
D03*
Y128783D02*
D03*
X154800Y148783D02*
D03*
Y138783D02*
D03*
X95100Y128783D02*
D03*
Y138783D02*
D03*
Y148783D02*
D03*
X105100Y128783D02*
D03*
Y138783D02*
D03*
X348282Y62500D02*
D03*
X358282D02*
D03*
X338282Y52500D02*
D03*
X348282D02*
D03*
X358282D02*
D03*
X223322Y148783D02*
D03*
Y138783D02*
D03*
Y128783D02*
D03*
X213322Y148783D02*
D03*
Y138783D02*
D03*
D57*
X154800Y128783D02*
D03*
X105100Y148783D02*
D03*
X213322Y128783D02*
D03*
D58*
X32900Y322400D02*
D03*
D59*
X56522D02*
D03*
D60*
X44711Y303896D02*
D03*
D61*
X195251Y260847D02*
D03*
X205251D02*
D03*
X215251D02*
D03*
X195251Y230847D02*
D03*
X205251D02*
D03*
X215251D02*
D03*
X125100Y230894D02*
D03*
X115100D02*
D03*
X105100D02*
D03*
X125100Y260894D02*
D03*
X115100D02*
D03*
X105100D02*
D03*
X286851Y260647D02*
D03*
X296851D02*
D03*
X306851D02*
D03*
X286851Y230647D02*
D03*
X296851D02*
D03*
X306851D02*
D03*
D62*
X338282Y62500D02*
D03*
D63*
X357888Y126637D02*
D03*
X352376D02*
D03*
X348439Y122700D02*
D03*
Y117188D02*
D03*
Y111676D02*
D03*
X352376Y107739D02*
D03*
X357888D02*
D03*
X363400D02*
D03*
X367337Y111676D02*
D03*
Y117188D02*
D03*
Y122700D02*
D03*
X363282Y126637D02*
D03*
X355132Y119944D02*
D03*
Y114432D02*
D03*
X360644D02*
D03*
X360644Y119944D02*
D03*
M02*
